<?xml version="1.0" encoding="utf-8"?>
<!-- Generator: Adobe Illustrator 24.2.1, SVG Export Plug-In . SVG Version: 6.00 Build 0)  -->
<svg version="1.1" id="Layer_1" xmlns="http://www.w3.org/2000/svg" xmlns:xlink="http://www.w3.org/1999/xlink" x="0px" y="0px"
	 viewBox="0 0 304.6 100.1" style="enable-background:new 0 0 304.6 100.1;" xml:space="preserve">
<style type="text/css">
	.st0{fill:#fff;}
	.st1{fill:#DA7527;}
	.st2{fill:none;}
	.st3{font-family:'Whitman-RomanOsF';}
	.st4{font-size:10.9387px;}
	.st5{letter-spacing:1;}
</style>
<g>
	<g>
		<g>
			<path class="st0" d="M28.2,39.7v12.3c0,2.6,0.3,4.3,0.9,4.9c0.8,0.9,2,1.4,3.6,1.4h1.6v1.1h-18v-1.1h1.6c0.9,0,1.6-0.1,2.3-0.4
				c0.7-0.3,1.2-0.7,1.5-1.3c0.4-0.7,0.6-2.2,0.6-4.6V24.8c0-2.6-0.3-4.3-0.8-4.9c-0.8-0.9-2-1.4-3.6-1.4h-1.6v-1.1h15.4
				c3.7,0,6.7,0.4,8.9,1.2c1.1,0.4,2.1,0.9,3,1.6c0.9,0.7,1.7,1.4,2.5,2.3c0.7,0.9,1.3,1.9,1.7,3c0.4,1.1,0.6,2.3,0.6,3.5
				c0,1.7-0.3,3.3-0.9,4.7c-0.6,1.4-1.4,2.6-2.5,3.7c-1.1,1-2.5,1.8-4.1,2.4c-1.6,0.6-3.5,0.9-5.5,0.9
				C33.2,40.5,30.9,40.3,28.2,39.7z M28.2,37.9c1.1,0.2,2.1,0.4,2.9,0.5c0.8,0.1,1.6,0.2,2.2,0.2c1.1,0,2.1-0.2,3.1-0.7
				c1-0.4,1.8-1.1,2.5-1.9c0.7-0.8,1.3-1.7,1.7-2.8c0.4-1.1,0.6-2.3,0.6-3.6c0-1.5-0.2-2.9-0.7-4.1c-0.5-1.2-1.1-2.2-1.9-3.1
				c-0.8-0.8-1.8-1.5-2.8-1.9c-1.1-0.4-2.3-0.7-3.5-0.7c-0.5,0-1.1,0-1.8,0.1c-0.7,0.1-1.4,0.2-2.2,0.4V37.9z"/>
			<path class="st0" d="M70.2,29.3v10.2h-0.8c-0.3-2-0.7-3.5-1.4-4.7c-0.3-0.6-0.7-1.1-1.2-1.6c-0.5-0.5-1-0.9-1.6-1.2
				c-0.6-0.3-1.2-0.6-1.9-0.8c-0.7-0.2-1.3-0.3-2-0.3c-0.7,0-1.4,0.1-2.1,0.4c-0.6,0.3-1.2,0.6-1.7,1c-0.5,0.4-0.8,0.9-1.1,1.4
				c-0.3,0.5-0.4,1.1-0.4,1.7c0,0.8,0.2,1.5,0.6,2.1c0.4,0.6,0.9,1.2,1.6,1.7c0.7,0.5,1.4,1,2.3,1.5c0.9,0.5,1.9,1,2.9,1.5
				c1.2,0.6,2.3,1.2,3.3,1.8c1.1,0.6,2,1.2,2.8,2c0.8,0.7,1.4,1.5,1.9,2.5c0.5,0.9,0.7,2,0.7,3.3c0,1.1-0.2,2.1-0.7,3.1
				c-0.5,1-1.1,1.9-1.9,2.6c-0.8,0.7-1.8,1.3-2.9,1.8c-1.1,0.4-2.4,0.7-3.7,0.7c-0.5,0-0.9,0-1.3,0c-0.4,0-0.7,0-1-0.1
				c-0.3-0.1-0.7-0.1-1-0.2c-0.4-0.1-0.8-0.3-1.3-0.4c-0.3-0.1-0.7-0.2-1.1-0.4c-0.4-0.1-0.7-0.2-1-0.3c-0.3-0.1-0.6-0.1-0.8-0.2
				c-0.2,0-0.3-0.1-0.4-0.1c-0.4,0-0.6,0.1-0.9,0.3c-0.2,0.2-0.4,0.7-0.5,1.3h-0.8V50h0.8c0.2,1.1,0.4,2,0.7,2.8
				c0.3,0.8,0.5,1.5,0.9,2c0.3,0.5,0.7,1,1.2,1.5c0.5,0.4,1.1,0.8,1.7,1.2c0.6,0.3,1.3,0.6,2,0.8c0.7,0.2,1.5,0.3,2.2,0.3
				c0.9,0,1.7-0.1,2.5-0.4c0.7-0.3,1.3-0.6,1.8-1.1c0.5-0.4,0.9-1,1.2-1.5c0.3-0.6,0.4-1.2,0.4-1.8c0-0.9-0.2-1.7-0.6-2.4
				c-0.4-0.6-0.9-1.2-1.6-1.7c-0.7-0.5-1.4-1-2.3-1.5c-0.9-0.5-1.8-1-2.8-1.6c-1.1-0.7-2.2-1.3-3.2-1.9c-1-0.6-1.9-1.2-2.7-1.9
				c-0.8-0.7-1.4-1.5-1.9-2.4c-0.5-0.9-0.7-2-0.7-3.2c0-1,0.2-2,0.7-3c0.4-0.9,1-1.8,1.8-2.5c0.8-0.7,1.7-1.3,2.7-1.7
				c1-0.4,2.2-0.6,3.4-0.6c1.5,0,3.2,0.4,5,1.2c0.8,0.4,1.4,0.5,1.7,0.5c0.4,0,0.7-0.1,0.9-0.3c0.2-0.2,0.4-0.7,0.6-1.4H70.2z"/>
			<path class="st0" d="M70.2,29.3v10.2h-0.8c-0.3-2-0.7-3.5-1.4-4.7c-0.3-0.6-0.7-1.1-1.2-1.6c-0.5-0.5-1-0.9-1.6-1.2
				c-0.6-0.3-1.2-0.6-1.9-0.8c-0.7-0.2-1.3-0.3-2-0.3c-0.7,0-1.4,0.1-2.1,0.4c-0.6,0.3-1.2,0.6-1.7,1c-0.5,0.4-0.8,0.9-1.1,1.4
				c-0.3,0.5-0.4,1.1-0.4,1.7c0,0.8,0.2,1.5,0.6,2.1c0.4,0.6,0.9,1.2,1.6,1.7c0.7,0.5,1.4,1,2.3,1.5c0.9,0.5,1.9,1,2.9,1.5
				c1.2,0.6,2.3,1.2,3.3,1.8c1.1,0.6,2,1.2,2.8,2c0.8,0.7,1.4,1.5,1.9,2.5c0.5,0.9,0.7,2,0.7,3.3c0,1.1-0.2,2.1-0.7,3.1
				c-0.5,1-1.1,1.9-1.9,2.6c-0.8,0.7-1.8,1.3-2.9,1.8c-1.1,0.4-2.4,0.7-3.7,0.7c-0.5,0-0.9,0-1.3,0c-0.4,0-0.7,0-1-0.1
				c-0.3-0.1-0.7-0.1-1-0.2c-0.4-0.1-0.8-0.3-1.3-0.4c-0.3-0.1-0.7-0.2-1.1-0.4c-0.4-0.1-0.7-0.2-1-0.3c-0.3-0.1-0.6-0.1-0.8-0.2
				c-0.2,0-0.3-0.1-0.4-0.1c-0.4,0-0.6,0.1-0.9,0.3c-0.2,0.2-0.4,0.7-0.5,1.3h-0.8V50h0.8c0.2,1.1,0.4,2,0.7,2.8
				c0.3,0.8,0.5,1.5,0.9,2c0.3,0.5,0.7,1,1.2,1.5c0.5,0.4,1.1,0.8,1.7,1.2c0.6,0.3,1.3,0.6,2,0.8c0.7,0.2,1.5,0.3,2.2,0.3
				c0.9,0,1.7-0.1,2.5-0.4c0.7-0.3,1.3-0.6,1.8-1.1c0.5-0.4,0.9-1,1.2-1.5c0.3-0.6,0.4-1.2,0.4-1.8c0-0.9-0.2-1.7-0.6-2.4
				c-0.4-0.6-0.9-1.2-1.6-1.7c-0.7-0.5-1.4-1-2.3-1.5c-0.9-0.5-1.8-1-2.8-1.6c-1.1-0.7-2.2-1.3-3.2-1.9c-1-0.6-1.9-1.2-2.7-1.9
				c-0.8-0.7-1.4-1.5-1.9-2.4c-0.5-0.9-0.7-2-0.7-3.2c0-1,0.2-2,0.7-3c0.4-0.9,1-1.8,1.8-2.5c0.8-0.7,1.7-1.3,2.7-1.7
				c1-0.4,2.2-0.6,3.4-0.6c1.5,0,3.2,0.4,5,1.2c0.8,0.4,1.4,0.5,1.7,0.5c0.4,0,0.7-0.1,0.9-0.3c0.2-0.2,0.4-0.7,0.6-1.4H70.2z"/>
			<path class="st0" d="M96.4,29.9h10.3v0.8h-0.6c-0.2,0-0.4,0-0.7,0.1c-0.3,0.1-0.6,0.2-0.9,0.4c-0.3,0.2-0.7,0.4-1,0.6
				c-0.3,0.2-0.7,0.5-1,0.8c-0.3,0.3-0.6,0.7-1,1.2c-0.4,0.5-0.8,1.1-1.2,1.8l-7.1,11.2v7.4c0,1.8,0.2,2.9,0.6,3.4
				c0.5,0.6,1.4,0.9,2.6,0.9h1v0.8H84.9v-0.8h1c1.2,0,2.1-0.4,2.6-1.1c0.3-0.4,0.5-1.5,0.5-3.2v-7L81,35c-0.5-0.7-0.9-1.3-1.2-1.8
				c-0.3-0.4-0.6-0.8-0.7-0.9c-0.1-0.1-0.2-0.2-0.4-0.4c-0.2-0.2-0.5-0.3-0.8-0.5c-0.3-0.2-0.6-0.3-1-0.4c-0.4-0.1-0.8-0.2-1.2-0.2
				v-0.8h12.6v0.8h-0.7c-0.3,0-0.6,0-1,0.1c-0.3,0.1-0.6,0.2-0.9,0.3c-0.3,0.2-0.5,0.4-0.6,0.6c-0.2,0.2-0.2,0.5-0.2,0.9
				c0,0.5,0.4,1.5,1.3,2.8l6.1,9.5l5.8-9.1c0.9-1.4,1.3-2.4,1.3-3c0-0.3-0.1-0.6-0.2-0.8c-0.1-0.3-0.3-0.5-0.5-0.7
				c-0.2-0.2-0.5-0.3-0.9-0.4c-0.4-0.1-0.8-0.2-1.4-0.2V29.9z"/>
			<path class="st0" d="M132.7,29.3l0.7,10h-0.7c-0.4-1.5-1-2.8-1.6-3.8c-0.6-1.1-1.4-1.9-2.2-2.6c-0.8-0.7-1.7-1.2-2.7-1.5
				c-1-0.3-2.1-0.5-3.3-0.5c-2,0-3.7,0.5-5.2,1.4c-1.5,1-2.7,2.4-3.6,4.4c-0.5,1.1-0.9,2.3-1.1,3.7c-0.3,1.4-0.4,3-0.4,4.7
				c0,2.6,0.4,5,1.3,6.9c0.4,1,1,1.9,1.6,2.6c0.7,0.8,1.4,1.4,2.2,1.9c0.8,0.5,1.8,0.9,2.7,1.2c1,0.3,2,0.4,3.1,0.4
				c1.2,0,2.3-0.1,3.1-0.4c0.9-0.2,1.7-0.6,2.4-1.1c0.7-0.5,1.4-1.1,2.1-1.9c0.7-0.8,1.4-1.7,2.2-2.7l0.7,0.4
				c-0.7,1.3-1.5,2.4-2.4,3.4c-0.9,1-1.8,1.7-2.8,2.4s-2.1,1.1-3.2,1.4c-1.2,0.3-2.4,0.4-3.8,0.4c-4.9,0-8.7-1.8-11.3-5.4
				c-2-2.7-3-5.9-3-9.5c0-1.8,0.2-3.4,0.7-5.1c0.5-1.6,1.2-3.2,2.2-4.5c0.7-1,1.5-1.9,2.4-2.6c0.9-0.8,1.9-1.4,2.9-2
				c1-0.5,2.1-0.9,3.3-1.2c1.1-0.3,2.3-0.4,3.5-0.4c2.1,0,4.2,0.5,6.3,1.6c0.6,0.3,1.1,0.5,1.3,0.5c0.5,0,0.9-0.2,1.2-0.6
				c0.3-0.4,0.5-0.9,0.7-1.5H132.7z"/>
			<path class="st0" d="M146.5,43.6h13.7v-8.4c0-0.7,0-1.3,0-1.7c0-0.4-0.1-0.8-0.2-1.1c-0.1-0.3-0.2-0.5-0.4-0.7
				c-0.2-0.2-0.4-0.3-0.6-0.5c-0.6-0.3-1.3-0.5-2-0.5h-1v-0.8h12.6l0,0.8h-1c-0.3,0-0.6,0-0.9,0.1c-0.3,0.1-0.6,0.2-0.9,0.3
				c-0.3,0.1-0.5,0.3-0.7,0.5c-0.2,0.2-0.4,0.4-0.5,0.7c-0.2,0.5-0.2,1.4-0.2,2.9v19c0,0.7,0,1.3,0,1.7c0,0.4,0.1,0.8,0.2,1.1
				c0.1,0.3,0.2,0.5,0.3,0.7c0.2,0.2,0.4,0.3,0.6,0.5c0.6,0.3,1.3,0.5,2,0.5h1v0.8H156v-0.8h1c1.2,0,2.1-0.4,2.6-1.1
				c0.4-0.4,0.5-1.6,0.5-3.3v-9h-13.7v9c0,0.7,0,1.3,0,1.7c0,0.4,0.1,0.8,0.2,1.1c0.1,0.3,0.2,0.5,0.4,0.7c0.2,0.2,0.4,0.3,0.6,0.5
				c0.6,0.3,1.3,0.5,2,0.5h1.1v0.8h-12.6v-0.8h1c1.2,0,2.1-0.4,2.6-1.1c0.3-0.4,0.5-1.6,0.5-3.3v-19c0-0.7,0-1.3,0-1.7
				c0-0.4-0.1-0.8-0.2-1.1c-0.1-0.3-0.2-0.5-0.3-0.7c-0.2-0.2-0.4-0.3-0.6-0.5c-0.6-0.3-1.3-0.5-2-0.5h-1v-0.8h12.6v0.8h-1.1
				c-0.3,0-0.6,0-0.9,0.1c-0.3,0.1-0.6,0.2-0.8,0.3c-0.3,0.1-0.5,0.3-0.7,0.5c-0.2,0.2-0.4,0.4-0.5,0.7c-0.2,0.5-0.3,1.4-0.3,2.9
				V43.6z"/>
			<path class="st0" d="M199.5,18.5v-1.1h14.9v1.1h-1.6c-1.7,0-2.9,0.7-3.8,2.1c-0.4,0.7-0.7,2.2-0.7,4.5v17.1
				c0,4.2-0.4,7.5-1.3,9.8c-0.5,1.5-1.3,2.8-2.3,3.9c-1,1.1-2.1,1.9-3.4,2.6s-2.7,1.2-4.3,1.5c-1.6,0.3-3.2,0.5-4.9,0.5
				c-4.6,0-8.1-0.8-10.5-2.4c-1.5-1-2.7-2-3.5-3.1c-0.8-1.1-1.4-2.3-1.8-3.7c-0.4-1.3-0.6-2.8-0.7-4.4c-0.1-1.6-0.1-3.5-0.1-5.5
				V24.8c0-1.3-0.1-2.4-0.3-3.2c-0.2-0.8-0.4-1.5-0.8-1.9c-0.4-0.5-0.8-0.8-1.4-0.9c-0.6-0.2-1.2-0.2-2-0.2h-1.6v-1.1h18.2v1.1h-1.6
				c-1,0-1.8,0.1-2.4,0.4c-0.6,0.3-1.1,0.7-1.4,1.2c-0.3,0.5-0.5,1.2-0.6,2c-0.1,0.8-0.1,1.7-0.1,2.7v18.3c0,1,0,2.1,0.1,3.1
				c0.1,1,0.2,2,0.4,2.9c0.2,0.9,0.4,1.8,0.8,2.7c0.3,0.8,0.7,1.6,1.3,2.3c0.8,1.1,1.9,2,3.2,2.7c1.4,0.7,3.1,1,5.2,1
				c1.4,0,2.7-0.2,3.9-0.5c1.3-0.3,2.4-0.8,3.4-1.3c1-0.6,1.9-1.2,2.7-2c0.8-0.8,1.3-1.6,1.7-2.6c0.8-1.9,1.2-5.1,1.2-9.5v-17
				c0-2.6-0.3-4.3-0.9-4.9c-0.8-0.9-2-1.4-3.6-1.4H199.5z"/>
		</g>
	</g>
	<g>
		<path class="st1" d="M230.5,59.4h-17.2v-7.5h17.2c0.5,0,1-0.2,1.3-0.6c0.4-0.4,0.6-0.8,0.6-1.3c0-0.5-0.2-0.9-0.6-1
			c-0.4-0.2-0.8-0.2-1.3-0.2h-7.8c-1.3,0-2.5-0.2-3.7-0.7c-1.1-0.5-2.1-1.2-3-2c-0.8-0.9-1.5-1.9-2-3c-0.5-1.1-0.7-2.4-0.7-3.7
			c0-1.3,0.2-2.5,0.7-3.7c0.5-1.1,1.2-2.1,2-3c0.8-0.8,1.8-1.5,3-2c1.1-0.5,2.4-0.7,3.7-0.7h15.3v7.5h-15.3c-0.5,0-1,0.2-1.3,0.6
			c-0.4,0.4-0.6,0.8-0.6,1.3c0,0.5,0.2,1,0.6,1.4c0.4,0.4,0.8,0.6,1.3,0.6h7.8c1.3,0,2.5,0.2,3.6,0.6c1.1,0.4,2.1,1,3,1.8
			c0.8,0.8,1.5,1.7,2,2.8c0.5,1.1,0.7,2.3,0.7,3.6c0,1.3-0.2,2.5-0.7,3.7c-0.5,1.1-1.2,2.1-2,3c-0.8,0.9-1.8,1.5-3,2
			C233,59.1,231.8,59.4,230.5,59.4z"/>
		<path class="st1" d="M252.8,21.7c0,0.7-0.1,1.4-0.4,2c-0.3,0.6-0.6,1.1-1.1,1.6c-0.5,0.5-1,0.8-1.6,1.1c-0.6,0.3-1.3,0.4-2,0.4
			c-0.7,0-1.4-0.1-2-0.4c-0.6-0.3-1.2-0.6-1.6-1.1c-0.5-0.5-0.8-1-1.1-1.6c-0.3-0.6-0.4-1.3-0.4-2c0-0.7,0.1-1.3,0.4-1.9
			c0.3-0.6,0.6-1.2,1.1-1.6c0.5-0.5,1-0.8,1.6-1.1c0.6-0.3,1.3-0.4,2-0.4c0.7,0,1.4,0.1,2,0.4c0.6,0.3,1.2,0.6,1.6,1.1
			c0.5,0.5,0.8,1,1.1,1.6C252.7,20.4,252.8,21.1,252.8,21.7z M251.5,59.4h-7.6V29.8h7.6V59.4z"/>
		<path class="st1" d="M294.9,59.4h-7.5V40.6c0-0.5-0.1-1-0.3-1.5c-0.2-0.5-0.5-0.9-0.8-1.2c-0.4-0.3-0.8-0.6-1.2-0.8
			c-0.5-0.2-0.9-0.3-1.5-0.3c-0.5,0-1,0.1-1.5,0.3c-0.5,0.2-0.8,0.5-1.2,0.8c-0.3,0.4-0.6,0.8-0.8,1.2c-0.2,0.5-0.3,0.9-0.3,1.5
			v18.8h-7.5V40.6c0-0.5-0.1-1-0.3-1.5c-0.2-0.5-0.5-0.9-0.8-1.2c-0.4-0.3-0.8-0.6-1.2-0.8c-0.5-0.2-0.9-0.3-1.5-0.3
			c-0.5,0-1,0.1-1.5,0.3c-0.5,0.2-0.8,0.5-1.2,0.8c-0.3,0.4-0.6,0.8-0.8,1.2c-0.2,0.5-0.3,0.9-0.3,1.5v18.8h-7.5V29.8h1.8l2,2.3
			c1-0.9,2.2-1.6,3.5-2.1c1.3-0.5,2.6-0.7,3.9-0.7c1.4,0,2.7,0.3,4,0.8c1.3,0.5,2.5,1.4,3.5,2.7c0.5-0.6,1-1.2,1.6-1.6
			c0.6-0.4,1.2-0.8,1.9-1.1c0.7-0.3,1.3-0.5,2-0.6c0.7-0.1,1.4-0.2,2.1-0.2c1.6,0,3,0.3,4.4,0.9c1.4,0.6,2.6,1.4,3.6,2.4
			c1,1,1.8,2.2,2.4,3.6c0.6,1.4,0.9,2.9,0.9,4.4V59.4z"/>
	</g>
	<rect x="16.2" y="75.2" class="st2" width="278.6" height="19.9"/>
	<text transform="matrix(1 0 0 1 40.889 82.576)" class="st0 st3 st4 st5">DISEASE STATE EDUCATION SIMULATOR</text>
</g>
</svg>
