<?xml version="1.0" encoding="UTF-8"?>
<svg id="Layer_1" data-name="Layer 1" xmlns="http://www.w3.org/2000/svg" width="100%" height="100%" viewBox="0 0 116.8146906725 116.8146906726">
  <defs>
    <style>
      .cls-1 {
        fill: #5b97ca;
      }

      .cls-1, .cls-2, .cls-3 {
        stroke-width: 0px;
      }

      .cls-4 {
        stroke-width: .5554959774px;
      }

      .cls-4, .cls-5, .cls-2, .cls-6 {
        fill: none;
      }

      .cls-4, .cls-5, .cls-6 {
        stroke: #fff;
      }

      .cls-4, .cls-7, .cls-6 {
        stroke-miterlimit: 10;
      }

      .cls-5 {
        stroke-linecap: round;
        stroke-linejoin: round;
      }

      .cls-5, .cls-6 {
        stroke-width: 2px;
      }

      .cls-7 {
        stroke: #005279;
        stroke-width: 6px;
      }

      .cls-7, .cls-3 {
        fill: #fff;
      }
    </style>
  </defs>
  <g>
    <circle class="cls-7" cx="58.4073453363" cy="58.4073453363" r="55.4073453363"/>
    <circle class="cls-1" cx="58.4073453363" cy="58.4073453363" r="48.6947538512"/>
    <g>
      <line class="cls-5" x1="41.7427918518" y1="74.166519482" x2="41.7427918518" y2="55.979019482"/>
      <polygon class="cls-3" points="49.8406922424 67.6058505367 48.3904969299 66.255203564 41.7447449768 73.4066317867 35.0970398987 66.255203564 33.6468445862 67.6058505367 41.7447449768 76.3138583492 49.8406922424 67.6058505367"/>
    </g>
    <g>
      <line class="cls-5" x1="73.0264792183" y1="91.6323446782" x2="73.0264792183" y2="75.3213029881"/>
      <line class="cls-5" x1="67.1411583358" y1="88.1116590395" x2="78.9118001008" y2="88.1116590395"/>
    </g>
    <circle class="cls-7" cx="58.4073453363" cy="58.4073453363" r="55.4073453363"/>
    <circle class="cls-1" cx="58.4073453363" cy="58.4073453363" r="48.6947538512"/>
  </g>
  <g>
    <path class="cls-6" d="M64.8142374964,24.4642575981c-6.6600265315-2.0264345549-14.3052498036-1.6292200016-21.0258348494,1.8152181659-15.5413515921,7.9652651834-19.0687330619,27.28430211-8.0237933024,39.9032356082,5.0223746505,5.7381069322,7.5881535624,12.5550860235,6.5275061601,20.3858466841"/>
    <path class="cls-6" d="M68.202686641,86.5685580562c0-.9965604283.1395938832-2.0170175655-.0261624484-2.985203028-.4979038581-2.9082819323.7515222221-3.7294148188,3.5171766133-3.5360970587,4.2041860849.2938618512,8.189173278-.2851334319,9.9193276944-4.9551570784.4529122021-1.2224881103.5495710821-2.6468019085.5091983414-3.9692448654-.1265620795-4.1454859446-.7783727558-8.3024716576,4.9837069167-9.6070167932,1.5597943758-.353139831,3.0409721529-2.2256176625,1.0652321033-4.3799937844-1.0412821724-1.1354168057-1.811778062-2.5668775675-2.5057406167-3.9634550647-1.5943659111-3.2086064633-3.6107600181-6.1542008674-4.0750845524-9.9461402123"/>
    <polygon class="cls-4" points="79.8885573672 26.3916895288 77.2189237482 32.83179966 83.4288647798 36.0001737769 76.7292945925 37.9283131565 78.1239948631 44.7588895096 72.4394011049 40.723129858 67.9686228639 46.0723451351 67.5796205794 39.1116957844 60.6099510296 38.9514817777 65.8094668731 34.3074536604 61.5892093409 28.7584547847 68.4619018314 29.928095794 70.1689963161 23.1688213816 73.539587831 29.2713679813 79.8885573672 26.3916895288"/>
  </g>
  <path class="cls-2" d="M61.6723486862,43.0432770042c.0556317773-.5928653613.796078882-.8299296543,1.3913982068-.8433137035,1.7841464833-.0401094104,3.5162592774.6426670589,5.0471263667,1.559854517,1.5308670893.9171874581,2.905255227,2.0698571729,4.3664549396,3.0943972054.6080160159.4263186905,1.2487364671.8382369328,1.9727015259,1.0034811074s1.5546151628.0413435404,2.0759691748-.4874485149c.8021128539-.8135567462.5791530569-2.1517045246.2696108092-3.2514511814"/>
</svg>