<?xml version="1.0" encoding="UTF-8"?>
<svg id="Layer_1" data-name="Layer 1" xmlns="http://www.w3.org/2000/svg" width="41.2096263684mm" height="41.2096263684mm" viewBox="0 0 116.8146906726 116.8146906726">
  <defs>
    <style>
      .cls-1 {
        fill: #5b97ca;
      }

      .cls-1, .cls-2 {
        stroke-width: 0px;
      }

      .cls-3 {
        fill: none;
        stroke: #fff;
        stroke-width: 1.6px;
      }

      .cls-3, .cls-4 {
        stroke-miterlimit: 10;
      }

      .cls-4 {
        stroke: #005279;
        stroke-width: 6px;
      }

      .cls-4, .cls-2 {
        fill: #fff;
      }
    </style>
  </defs>
  <g>
    <circle class="cls-4" cx="58.4073453363" cy="58.4073453363" r="55.4073453363"/>
    <circle class="cls-1" cx="58.4073453363" cy="58.4073453363" r="48.6947538512"/>
  </g>
  <path class="cls-2" d="M76.7156620952,41.1298944363c-.310919958-.2042125401-.3985455758-.6211904408-.1961240909-.9332797121l2.7051602311-4.1862351734c.0608668534-.093494758.1439171217-.1704791732.2417505287-.2240947361.3275434913-.179501525.738585176-.0594905077.9180870235.2680533061l.8960841974,1.6501481021,2.248664555-3.6519666986c.0140815829-.0267810156.0299445466-.052586851.0474819889-.0772433668.2164864601-.3043671597.6387216754-.375608847.9430888754-.1591223869s.3756086454.638721756.1591222458.9430889157l-2.85732549,4.6596387297c-.0611112934.098322287-.1464389171.1793112617-.2478138019.2352132094-.3270720252.1803593224-.7384268382.061426034-.9187864831-.2656463137l-.916373041-1.6907251443-2.1066433752,3.2360478229c-.1249572191.1922369143-.3388041785.3080705227-.5680837517.3077119246-.1241419891-.0045031139-.2446451112-.043110447-.3482896119-.1115884787Z"/>
  <path class="cls-2" d="M54.7837828176,29.3479536746c-.2952741839.2262457471-.7178345694.1715507817-.9457745847-.1224177884l-3.0608001363-3.9336953782c-.0682110826-.0882796229-.1135231884-.1920618965-.1318999298-.302099615-.0615230475-.3684025663.1872514466-.7169268292.5556544236-.7784500749l1.8532798506-.3021745238-2.706830257-3.3266233643c-.0206438381-.0221211601-.0397798832-.0456027813-.0572789574-.0702865423-.2160138939-.3047027288-.144117698-.7268269902.1605850441-.9428409222s.7268269999-.1441174811.9428409138.1605851906l3.4576049142,4.233380482c.072688336.0901014323.1210307097.1973536225.1403989175.3114884882.0624883025.3682401485-.1853718745.7174152363-.5536124337.7799037369l-1.8982765165.3079567032,2.360955262,3.0554610247c.140314006.1813320643.1791976527.4214070711.1032945839.6377585801-.0451654527.1157220522-.1213304428.2167686894-.2201410942.2920540035Z"/>
  <path class="cls-2" d="M60.3568389378,39.7571010995c-.3294188968-.1727922806-.4574459805-.5791884967-.2865506277-.9095957442l2.2823300746-4.4309622243c.0514212644-.0990045311.126535752-.1837498023.2186501886-.2466857594.3083967223-.2107059512.7292129977-.1315126865.9399193014.1768843252l1.0533301343,1.554493897,1.8803325393-3.8545690537c.0113920592-.0280309608.0246524126-.0552658242.0396917198-.0815208217.1856487622-.3240992015.598881035-.4363357543.9229802766-.2506869961s.4363355616.5988811349.2506868596.9229803305l-2.3874178513,4.9169887178c-.051191912.1038328004-.1281807661.1927863486-.2235958294.2583444201-.3078435421.2115134711-.7288659313.1334234135-.9403797549-.174420418l-1.0774940325-1.5928897243-1.7797123248,3.4267442075c-.1055368324.2035468369-.3070163284.3397597568-.5352295941.3618494978-.1239864928.007672098-.2476904239-.0189524404-.3575410795-.0769546543Z"/>
  <path class="cls-2" d="M46.3545627056,39.8048968103c.2618695138-.0043609834.471055591-.2193922547.4682004507-.4812826942l-.0323271759-3.5091083647c-.000989792-.0785414857-.0213941965-.1556176758-.0593945831-.2243613715-.1272249282-.2301508451-.4169352553-.3135893906-.6470864138-.1863643921l-1.1545897399.6440551045.0379747332-3.0193540624c.0017112107-.0212346333.0019954569-.0425601759.0008507359-.0638327753-.0141302921-.2625948159-.2384601597-.4640152641-.5010549996-.4498849872s-.4640151746.2384602836-.4498849184.5010550767l-.0554743437,3.8480258093c-.0006831823.0815051884.0195675034.1618212775.05881331.2332589803.1266213738.2304835149.4161120171.3146810873.6465958453.1880596431l1.1819425445-.6605499733.0342082687,2.718452029c.0019205435.1614185538.0854953949.3108709745.2220161999.39702006.0755413819.0440817249.1617641887.0665060903.249210086.0648119179Z"/>
  <path class="cls-2" d="M40.2710836092,41.3579290506c-.2042126478.3109198872-.6211905789.3985453606-.93327978.1961237676l-4.1862342363-2.7051616812c-.0934947369-.0608668857-.1704791233-.1439171807-.2240946523-.2417506063-.1795014116-.3275435535-.0594902519-.7385851966.2680536241-.9180869307l1.6501484125-.8960836258-3.6519659196-2.24866582c-.0267810107-.0140815922-.0525868406-.0299445649-.0772433504-.0474820157-.3043670847-.2164865655-.3756086257-.6387218055-.1591220602-.9430889305s.6387218861-.3756084242.9430889708-.1591219191l4.6596377399,2.8573271042c.0983222659.0611113274.179311211.1464389792.2352131236.2478138834.1803592091.3270720877.0614257782.7384268595-.265646632.9187863911l-1.6907254618.9163724553,3.2360470932,2.1066444962c.192236871.1249572857.3080704053.3388042852.3077117278.5680838583-.0045031569.1241419875-.0431105317.2446450963-.1115885993.3482895733Z"/>
  <path class="cls-3" d="M67.0892115693,93.2352776821c0-.7972483427.1116751066-1.6136140524-.0209299587-2.3881624224-.3983230865-2.3266255459.6012177777-2.9835318551,2.8137412906-2.828877647,3.3633488679.2350894809,6.5513386224-.2281067455,7.9354621555-3.9641256627.3623297617-.9779904882.4396568657-2.1174415268.4073586731-3.1753958924-.1012496636-3.3163887557-.6226982046-6.6419773261,3.9869655334-7.6856134346,1.2478355007-.2825118648,2.4327777224-1.78049413.8521856827-3.5039950275-.8330257379-.9083334446-1.4494224496-2.053502054-2.0045924934-3.1707640517-1.2754927289-2.5668851706-2.8886080145-4.9233606939-3.2600676419-7.9569121698-1.6350245304-13.3525138006-17.8902213016-19.8877299377-30.2415504365-13.5574195257-12.4330812737,6.3722121468-15.2549864495,21.827441688-6.4190346419,31.9225884866,4.0178997204,4.5904855457,6.0705228499,10.0440688188,5.2220049281,16.3086773473"/>
</svg>