<?xml version="1.0" encoding="UTF-8"?>
<svg id="Layer_1" data-name="Layer 1" xmlns="http://www.w3.org/2000/svg" viewBox="0 0 120 120" width="100%" height="100%">
  <g>
    <circle cx="60" cy="60" r="55.41" style="fill: #fff; stroke: #005178; stroke-miterlimit: 10; stroke-width: 6px;"/>
    <circle cx="60" cy="60" r="48.69" style="fill: #5a97cb; stroke-width: 0px;"/>
    <circle cx="60" cy="60" r="55.41" style="fill: #fff; stroke: #005178; stroke-miterlimit: 10; stroke-width: 6px;"/>
    <circle cx="60" cy="60" r="48.69" style="fill: #5a97cb; stroke-width: 0px;"/>
  </g>
  <g>
    <ellipse cx="37.87" cy="76.75" rx="5.7" ry="4.36" style="fill: none; stroke: #fff; stroke-linecap: round; stroke-linejoin: round; stroke-width: 2px;"/>
    <rect x="43.31" y="74.4" width="3.37" height="4.64" rx=".04" ry=".04" style="fill: none; stroke: #fff; stroke-linecap: round; stroke-linejoin: round; stroke-width: 2px;"/>
    <polyline points="47.93 56.14 61.98 33.65 71.82 49.4" style="fill: none; stroke: #fff; stroke-linecap: round; stroke-linejoin: round; stroke-width: 2px;"/>
    <path d="m54.33,77.39c3.71,1.85,11.84,4.5,19.39-2.53,6.31-5.87,4.68-13.41,2.52-18.31" style="fill: none; stroke: #fff; stroke-linecap: round; stroke-linejoin: round; stroke-width: 2px;"/>
    <path d="m80.11,41.53l-8.54,16.2c-.55,1.07-1.65,1.75-2.86,1.75h-2.77l-3.28,7.22-4.83-13.88-4.27,7.45h-10.66c-1.77,0-3.21,1.44-3.21,3.21h0c0,1.77,1.44,3.21,3.21,3.21h5.16c1.77,0,3.21,1.44,3.21,3.21v3.6c0,1.77-1.44,3.21-3.21,3.21h-1.37" style="fill: none; stroke: #fff; stroke-linecap: round; stroke-linejoin: round; stroke-width: 2px;"/>
    <polyline points="75.97 42.87 80.11 41.53 81.46 45.67" style="fill: none; stroke: #fff; stroke-linecap: round; stroke-linejoin: round; stroke-width: 2px;"/>
  </g>
</svg>