<?xml version="1.0" encoding="UTF-8"?>
<svg id="Layer_1" data-name="Layer 1" xmlns="http://www.w3.org/2000/svg" viewBox="0 0 120 120" width="100%" height="100%">
  <g>
    <circle cx="60" cy="60" r="55.41" style="fill: #fff; stroke: #005178; stroke-miterlimit: 10; stroke-width: 6px;"/>
    <circle cx="60" cy="60" r="48.69" style="fill: #5a97cb; stroke-width: 0px;"/>
    <circle cx="60" cy="60" r="55.41" style="fill: #fff; stroke: #005178; stroke-miterlimit: 10; stroke-width: 6px;"/>
    <circle cx="60" cy="60" r="48.69" style="fill: #5a97cb; stroke-width: 0px;"/>
  </g>
  <g>
    <path d="m59.91,48.81c2.29,0,4.16,1.88,4.16,4.16s-1.88,4.16-4.16,4.16-4.16-1.88-4.16-4.16,1.88-4.16,4.16-4.16m0-1.37c-3.05,0-5.54,2.49-5.54,5.54s2.49,5.54,5.54,5.54,5.54-2.49,5.54-5.54c.05-3.05-2.49-5.54-5.54-5.54h0Z" style="fill: #fff; stroke: #fff; stroke-miterlimit: 10; stroke-width: .75px;"/>
    <path d="m65.65,62.24c1.57,0,2.9,1.32,2.9,2.9v10.46c0,1.32-.91,2.49-2.18,2.84-.61.15-1.02.71-1.02,1.32v11.53c0,1.02-.81,1.83-1.83,1.83h-7.21c-1.02,0-1.83-.81-1.83-1.83v-11.53c0-.61-.41-1.17-1.02-1.32-1.27-.3-2.18-1.47-2.18-2.84v-10.46c0-1.57,1.32-2.9,2.9-2.9h11.48m0-1.37h-11.48c-2.34,0-4.27,1.93-4.27,4.27v10.46c0,1.98,1.37,3.66,3.25,4.16v11.53c0,1.78,1.42,3.2,3.2,3.2h7.16c1.78,0,3.2-1.42,3.2-3.2v-11.53c1.88-.46,3.25-2.13,3.25-4.16v-10.46c-.05-2.34-1.98-4.27-4.32-4.27h0Z" style="fill: #fff; stroke: #fff; stroke-miterlimit: 10; stroke-width: .75px;"/>
  </g>
  <g>
    <path d="m69.94,33.98c.07-.46.11-.93.11-1.41,0-.74-.09-1.47-.26-2.16l-1.37-.49c-.14-.4-.31-.8-.51-1.17l.6-1.26c-.68-1.03-1.57-1.91-2.61-2.59l-1.28.61c-.36-.19-.73-.35-1.12-.48l-.48-1.36c-.68-.17-1.38-.25-2.11-.25-.51,0-1.01.04-1.5.13l-.46,1.29c-.51.13-1,.31-1.47.53l-1.31-.62c-.98.59-1.83,1.36-2.52,2.26l.58,1.21c-.39.59-.7,1.24-.92,1.92l-1.33.47c-.14.62-.21,1.27-.21,1.94,0,.4.03.8.08,1.19l1.26.45c.18.86.5,1.66.93,2.39l-.59,1.25c.58.82,1.3,1.54,2.11,2.12l1.23-.58c.74.45,1.56.79,2.44.97l.45,1.26c.4.06.81.09,1.23.09.63,0,1.25-.06,1.84-.19l.47-1.32c.74-.22,1.43-.55,2.05-.96l1.21.57c.88-.67,1.64-1.51,2.23-2.46l-.63-1.32c.24-.51.44-1.04.57-1.6l1.29-.46Z" style="fill: none; stroke: #fff; stroke-miterlimit: 10; stroke-width: 2px;"/>
    <circle cx="60.91" cy="32.57" r="2.86" style="fill: none; stroke: #fff; stroke-miterlimit: 10; stroke-width: 2px;"/>
  </g>
  <g>
    <g>
      <line x1="41.46" y1="56.71" x2="26.67" y2="50.91" style="fill: none; stroke: #fff; stroke-linecap: round; stroke-linejoin: round; stroke-width: 2px;"/>
      <polyline points="31.09 48.74 26.22 50.86 28.37 55.79" style="fill: none; stroke: #fff; stroke-linecap: round; stroke-linejoin: round; stroke-width: 2px;"/>
    </g>
    <g>
      <line x1="40.76" y1="68.91" x2="27.23" y2="77.24" style="fill: none; stroke: #fff; stroke-linecap: round; stroke-linejoin: round; stroke-width: 2px;"/>
      <polyline points="28.15 72.4 26.92 77.57 32.15 78.81" style="fill: none; stroke: #fff; stroke-linecap: round; stroke-linejoin: round; stroke-width: 2px;"/>
    </g>
  </g>
  <g>
    <g>
      <line x1="78.41" y1="70.84" x2="93.2" y2="76.64" style="fill: none; stroke: #fff; stroke-linecap: round; stroke-linejoin: round; stroke-width: 2px;"/>
      <polyline points="88.78 78.81 93.65 76.68 91.5 71.76" style="fill: none; stroke: #fff; stroke-linecap: round; stroke-linejoin: round; stroke-width: 2px;"/>
    </g>
    <g>
      <line x1="79.11" y1="58.64" x2="92.64" y2="50.31" style="fill: none; stroke: #fff; stroke-linecap: round; stroke-linejoin: round; stroke-width: 2px;"/>
      <polyline points="91.72 55.15 92.95 49.98 87.72 48.74" style="fill: none; stroke: #fff; stroke-linecap: round; stroke-linejoin: round; stroke-width: 2px;"/>
    </g>
  </g>
</svg>