<?xml version="1.0" encoding="UTF-8"?>
<svg id="Layer_1" data-name="Layer 1" xmlns="http://www.w3.org/2000/svg" viewBox="0 0 120 120" width="100%" height="100%">
  <g>
    <circle cx="60" cy="60" r="55.41" style="fill: #fff; stroke: #005178; stroke-miterlimit: 10; stroke-width: 6px;"/>
    <circle cx="60" cy="60" r="48.69" style="fill: #5a97cb; stroke-width: 0px;"/>
  </g>
  <g>
    <circle cx="60" cy="60" r="34.33" style="fill: none; stroke: #fff; stroke-linejoin: round; stroke-width: 2px;"/>
    <line x1="35.82" y1="84.24" x2="84.18" y2="35.88" style="fill: none; stroke: #fff; stroke-linejoin: round; stroke-width: 2px;"/>
  </g>
  <g>
    <polygon points="66.8 75.66 47.92 56.78 48.25 54.82 54.03 49.04 55.96 48.75 74.84 67.63 66.8 75.66" style="fill: none; stroke: #fff; stroke-linejoin: round; stroke-width: 2px;"/>
    <rect x="46.9" y="46.37" width="4.94" height="7.67" transform="translate(49.96 -20.21) rotate(45)" style="fill: none; stroke: #fff; stroke-linejoin: round; stroke-width: 2px;"/>
    <rect x="70.1" y="70.81" width="4.94" height="5.17" transform="translate(73.15 -29.82) rotate(45)" style="fill: none; stroke: #fff; stroke-linejoin: round; stroke-width: 2px;"/>
    <line x1="65.1" y1="77.36" x2="76.21" y2="66.26" style="fill: none; stroke: #fff; stroke-linecap: round; stroke-linejoin: round; stroke-width: 2px;"/>
    <line x1="70.3" y1="79.16" x2="78.01" y2="71.45" style="fill: none; stroke: #fff; stroke-linecap: round; stroke-linejoin: round; stroke-width: 2px;"/>
    <line x1="47.45" y1="48.24" x2="41.99" y2="42.79" style="fill: none; stroke: #fff; stroke-linecap: round; stroke-linejoin: round; stroke-width: 2px;"/>
    <line x1="51.27" y1="60.13" x2="53.46" y2="57.95" style="fill: none; stroke: #fff; stroke-linecap: round; stroke-linejoin: round; stroke-width: 2px;"/>
    <line x1="59.42" y1="68.28" x2="61.61" y2="66.09" style="fill: none; stroke: #fff; stroke-linecap: round; stroke-linejoin: round; stroke-width: 2px;"/>
    <line x1="63.99" y1="72.85" x2="66.18" y2="70.67" style="fill: none; stroke: #fff; stroke-linecap: round; stroke-linejoin: round; stroke-width: 2px;"/>
  </g>
</svg>