<?xml version="1.0" encoding="UTF-8"?>
<svg id="Layer_1" data-name="Layer 1" xmlns="http://www.w3.org/2000/svg" viewBox="0 0 120 120" width="100%" height="100%">
  <g>
    <circle cx="60" cy="60" r="55.41" style="fill: #fff; stroke: #005178; stroke-miterlimit: 10; stroke-width: 6px;"/>
    <circle cx="60" cy="60" r="48.69" style="fill: #5a97cb; stroke-width: 0px;"/>
    <circle cx="60" cy="60" r="55.41" style="fill: #fff; stroke: #005178; stroke-miterlimit: 10; stroke-width: 6px;"/>
    <circle cx="60" cy="60" r="48.69" style="fill: #5a97cb; stroke-width: 0px;"/>
  </g>
  <g>
    <g>
      <path d="m78.19,62.1c3.69,0,6.64,3.43,5.82,7.25-.48,2.24-2.29,4.05-4.53,4.53-3.82.82-7.25-2.13-7.25-5.82,0-3.27,2.69-5.96,5.96-5.96m0-1.96c-4.88,0-8.76,4.46-7.76,9.51.61,3.08,3.09,5.56,6.17,6.17,5.05,1,9.51-2.88,9.51-7.76.07-4.36-3.56-7.92-7.92-7.92h0Z" style="fill: #fff; stroke: #fff; stroke-miterlimit: 10; stroke-width: .5px;"/>
      <path d="m65.84,86.49v-2.07c0-2.28,1.86-4.14,4.14-4.14h16.42c2.28,0,4.14,1.86,4.14,4.14v2.07c0,.54.44.98.98.98h.07c.54,0,.98-.44.98-.98v-2.07c-.07-3.34-2.83-6.1-6.17-6.1h-16.42c-3.36,0-6.1,2.75-6.1,6.1v2.07c0,.54.44.98.98.98h0c.54,0,.98-.44.98-.98Z" style="fill: #fff; stroke: #fff; stroke-miterlimit: 10; stroke-width: .5px;"/>
    </g>
    <g>
      <g>
        <path d="m46.68,46.26c3.69,0,6.64,3.43,5.82,7.25-.48,2.24-2.29,4.05-4.53,4.53-3.82.82-7.25-2.13-7.25-5.82,0-3.27,2.69-5.96,5.96-5.96m5.97.73h-11.92c-1.54,1.76-2.33,4.21-1.81,6.82.61,3.07,3.09,5.56,6.17,6.16,5.05,1,9.51-2.88,9.51-7.76.03-2-.71-3.82-1.95-5.22Z" style="fill: #fff; stroke: #fff; stroke-miterlimit: 10; stroke-width: .5px;"/>
        <path d="m34.33,70.65v-2.07c0-2.28,1.86-4.14,4.14-4.14h16.42c2.28,0,4.14,1.86,4.14,4.14v2.07c0,.54.44.98.98.98h.07c.54,0,.98-.44.98-.98v-2.07c-.07-3.34-2.83-6.1-6.17-6.1h-16.42c-3.36,0-6.1,2.75-6.1,6.1v2.07c0,.54.44.98.98.98h0c.54,0,.98-.44.98-.98Z" style="fill: #fff; stroke: #fff; stroke-miterlimit: 10; stroke-width: .5px;"/>
      </g>
      <polygon points="53.68 38.28 53.68 46.99 39.38 46.99 39.38 38.74 42.93 41.96 46.78 38.35 50.2 41.41 53.68 38.28" style="fill: none; stroke: #fff; stroke-linecap: round; stroke-linejoin: round; stroke-width: 2px;"/>
      <rect x="27.43" y="32.53" width="37.98" height="43.61" rx="4" ry="4" style="fill: none; stroke: #fff; stroke-miterlimit: 10; stroke-width: 2px;"/>
    </g>
  </g>
</svg>