<?xml version="1.0" encoding="UTF-8"?>
<svg id="Layer_1" data-name="Layer 1" xmlns="http://www.w3.org/2000/svg" viewBox="0 0 120 120" width="100%" height="100%">
  <g>
    <circle cx="60.56" cy="60" r="55.41" style="fill: #fff; stroke: #005178; stroke-miterlimit: 10; stroke-width: 6px;"/>
    <circle cx="60.56" cy="60" r="48.69" style="fill: #5a97cb; stroke-width: 0px;"/>
  </g>
  <path d="m86.04,79.73c-.98-.19-1.13-.74-1.24-1.51-.34-2.3-.71-4.59-1.07-6.88-.97-6.24-1.94-12.49-2.93-18.73-.12-.78-.11-1.4.67-1.91.65-.42.84-1.19.81-1.98-.05-1.7-1.15-2.73-3.16-2.78-2.05-.05-14.94-.03-17.03,0-1.16.02-2.32-.08-3.48.11-1.15.2-1.83.85-2.17,1.9-.35,1.07-.14,2.17.73,2.78.88.61.74,1.25.61,2.04-.63,4-1.21,8-1.87,11.99-.26,1.55-.36,3.13-1.03,4.6-.35-1.68-.7-3.36-1.07-5.03-.11-.48-.16-.86.32-1.22,1.17-.86,1.42-2.03.91-3.35-.51-1.32-1.63-1.67-2.94-1.67-4.1,0-8.19.01-12.29,0-1.34,0-2.35.48-2.88,1.76-.48,1.16-.22,2.17.93,3.21.36.33.49.6.4,1.07-1.01,4.77-2.01,9.55-3.01,14.32-.13.6-.33,1.03-1.1,1.2-1.44.33-2.12,1.46-2,2.91.13,1.45.99,2.3,2.52,2.48.37.04.74.05,1.11.05,16.2,0,32.4,0,48.6,0,.56,0,1.12,0,1.65-.19,1.18-.42,1.79-1.27,1.81-2.53.02-1.3-.6-2.41-1.82-2.64Zm-3.43-3.6c.04.78.23,1.56.38,2.33.16.8-.14,1.06-.94,1.05-2.6-.03-5.21-.01-7.81-.01-2.51,0-5.02-.03-7.53.01-.84.01-1.14-.25-1.14-1.11,0-2.44.99-3.52,3.43-3.53,4.05-.01,8.09.04,12.14-.03,1.02-.02,1.42.28,1.47,1.28Zm-23.41-28.3c.32-.02.65-.01.98-.01,6.1,0,12.19,0,18.29,0,.23,0,.47,0,.7,0,.68-.02,1.28.2,1.27.95-.01.75-.65.94-1.31.94-3.26,0-6.52,0-9.77,0-3.07,0-6.14,0-9.22,0-.33,0-.66.02-.98-.02-.55-.07-.99-.31-.98-.96.01-.66.45-.86,1.02-.9Zm-2.33,22.65c.91-5.79,1.81-11.58,2.71-17.36.25-1.6.23-1.6,1.89-1.6,5.31,0,10.61,0,15.92,0,1.3,0,1.33,0,1.54,1.3.58,3.62,1.1,7.26,1.73,10.87.16.91-.23.89-.85.89-3.17,0-6.33,0-9.5,0-.37,0-.75-.01-1.11.06-.44.08-.77.36-.78.85,0,.54.28.88.82.95.37.05.74.03,1.12.03,3.17,0,6.33.04,9.5-.02.91-.02,1.34.21,1.44,1.17.15,1.48.39,2.95.65,4.41.14.78-.15.96-.87.95-2.09-.03-4.19-.01-6.28-.01-1.96,0-3.91.04-5.87,0-2.98-.07-5.34,1.98-5.21,5.07.06,1.52-.01,1.47-1.44,1.48-1.4,0-2.79-.04-4.19.01-.8.03-1.09-.3-1.34-1.04-.9-2.69-.3-5.33.12-7.99Zm-2.33,6.22c.56,2.8.59,2.79-2.21,2.79h-2.37c-1.35,0-2.7-.01-4.05,0-.56,0-.81-.19-.85-.8-.15-2.07.59-2.92,2.7-2.94,1.86-.01,3.72.02,5.59-.02.74-.02,1.06.21,1.21.97Zm-15.25-16.68c.31-.07.65-.07.97-.07,3.81,0,7.62-.01,11.44,0,.7,0,1.68-.2,1.67.92,0,1.13-.99.89-1.68.9-1.91.02-3.81,0-5.72,0-1.91,0-3.81,0-5.72,0-.32,0-.66.02-.97-.06-.37-.1-.66-.33-.67-.78,0-.48.21-.82.68-.92Zm-2.19,18.43c1.01-4.62,1.97-9.26,2.92-13.9.14-.69.46-.91,1.14-.89,1.63.04,3.25.01,4.88.01,1.58,0,3.16.03,4.74-.01.72-.02,1.11.17,1.23.95.19,1.24.42,2.47.72,3.68.19.76.02,1-.77.98-1.95-.04-3.91-.01-5.86-.01-.37,0-.75,0-1.11.04-.48.05-.74.33-.78.82-.04.5.23.81.67.92.36.09.74.09,1.11.09,2.09,0,4.18,0,6.28.01.4,0,.94-.15,1.1.35.21.7.53,1.43.33,2.18-.09.34-.56.25-.88.25-1.67,0-3.35,0-5.02,0-3.17.02-4.53,1.28-4.6,4.42-.02.91-.29,1.22-1.2,1.18-1.35-.06-2.7-.04-4.04,0-.81.02-1.04-.21-.86-1.06Zm48.16,4.75c-.41.06-.83.05-1.25.05-8.01,0-16.01,0-24.02,0s-15.92,0-23.88,0c-.46,0-.94,0-1.39-.07-.44-.07-.77-.37-.79-.85-.02-.48.29-.79.73-.89.36-.08.73-.1,1.1-.1,16.15,0,32.31,0,48.46,0,.37,0,.76-.02,1.1.08.41.12.76.4.71.91-.04.47-.31.79-.77.87Z" style="fill: #fff; stroke-width: 0px;"/>
  <path d="m48.77,43.56c0,1.02-.37,1.88-1.01,2.67-1.1,1.37-1.08,1.79-.03,3.17,1.4,1.82,1.41,3.4.03,5.19-.37.48-.75.93-.81,1.58-.06.66-.5,1.01-1.17.86-.6-.14-.75-.64-.67-1.2.11-.85.5-1.57,1.04-2.24,1.04-1.27,1.02-1.86-.02-3.18-1.39-1.78-1.39-3.4.01-5.18,1.03-1.31,1.04-1.84,0-3.18-.52-.68-.92-1.4-1.03-2.25-.08-.61.09-1.13.81-1.23.65-.09.96.33,1.01.89.06.66.43,1.1.82,1.57.61.73,1.01,1.56,1.01,2.54Z" style="fill: #fff; stroke-width: 0px;"/>
  <path d="m49.79,55.98c-.02-.95.42-1.63.95-2.3,1.1-1.39,1.09-1.85.01-3.29-1.34-1.8-1.34-3.5.07-5.18.37-.44.67-.87.75-1.45.09-.61.4-1.09,1.1-.98.82.12.8.78.73,1.4-.08.77-.48,1.38-.94,1.98-1.1,1.44-1.08,1.92.06,3.4,1.26,1.63,1.22,3.48-.16,5.06-.41.47-.69.96-.78,1.58-.08.56-.4.95-1.05.84-.62-.11-.83-.53-.76-1.07Z" style="fill: #fff; stroke-width: 0px;"/>
  <path d="m44.14,51.91c-.06.97-.26,1.68-.72,2.29-.53.7-1.17,1.29-1.21,2.28-.02.46-.48.64-.96.57-.54-.08-.83-.39-.8-.94.04-.81.31-1.52.8-2.18,1.39-1.87,1.39-1.93-.03-3.84-.46-.62-.73-1.29-.76-2.05-.03-.58.22-1,.84-1.07.56-.06.91.29.96.79.08.81.58,1.34,1.04,1.92.56.7.87,1.65.85,2.24Z" style="fill: #fff; stroke-width: 0px;"/>
  <path d="m71.74,30.91c0,1.02-.37,1.88-1.01,2.67-1.1,1.37-1.08,1.79-.03,3.17,1.4,1.82,1.41,3.4.03,5.19-.37.48-.75.93-.81,1.58-.06.66-.5,1.01-1.17.86-.6-.14-.75-.64-.67-1.2.11-.85.5-1.57,1.04-2.24,1.04-1.27,1.02-1.86-.02-3.18-1.39-1.78-1.39-3.4.01-5.18,1.03-1.31,1.04-1.84,0-3.18-.52-.68-.92-1.4-1.03-2.25-.08-.61.09-1.13.81-1.23.65-.09.96.33,1.01.89.06.66.43,1.1.82,1.57.61.73,1.01,1.56,1.01,2.54Z" style="fill: #fff; stroke-width: 0px;"/>
  <path d="m72.77,43.33c-.02-.95.42-1.63.95-2.3,1.1-1.39,1.09-1.85.01-3.29-1.34-1.8-1.34-3.5.07-5.18.37-.44.67-.87.75-1.45.09-.61.4-1.09,1.1-.98.82.12.8.78.73,1.4-.08.77-.48,1.38-.94,1.98-1.1,1.44-1.08,1.92.06,3.4,1.26,1.63,1.22,3.48-.16,5.06-.41.47-.69.96-.78,1.58-.08.56-.4.95-1.05.84-.62-.11-.83-.53-.76-1.07Z" style="fill: #fff; stroke-width: 0px;"/>
  <path d="m67.11,39.26c-.06.97-.26,1.68-.72,2.29-.53.7-1.17,1.29-1.21,2.28-.02.46-.48.64-.96.57-.54-.08-.83-.39-.8-.94.04-.81.31-1.52.8-2.18,1.39-1.87,1.39-1.93-.03-3.84-.46-.62-.73-1.29-.76-2.05-.03-.58.22-1,.84-1.07.56-.06.91.29.96.79.08.81.58,1.34,1.04,1.92.56.7.87,1.65.85,2.24Z" style="fill: #fff; stroke-width: 0px;"/>
</svg>