<?xml version="1.0" encoding="UTF-8"?>
<svg id="Layer_1" data-name="Layer 1" xmlns="http://www.w3.org/2000/svg" viewBox="0 0 120 120" width="100%" height="100%">
  <g>
    <circle cx="60" cy="60" r="55.41" style="fill: #fff; stroke: #005178; stroke-miterlimit: 10; stroke-width: 6px;"/>
    <circle cx="60" cy="60" r="48.69" style="fill: #5a97cb; stroke-width: 0px;"/>
    <g>
      <path d="m62.48,56.81h0,0m12.39,1.04l1.11.09c2.96.24,5.7,1.44,7.93,3.46l.82.74.67.84c1.69,2.13,2.69,4.67,2.89,7.35l.08,1.11-.09,1.05c-.24,2.89-1.4,5.57-3.34,7.76l-.75.85-.85.69c-2.11,1.71-4.64,2.73-7.33,2.96l-1,.11-1.26-.11c-2.32-.19-4.57-1-6.5-2.33l-.9-.62-.82-.79c-2.33-2.25-3.77-5.26-4.05-8.47l-.1-1.09.09-1.16c.21-2.71,1.23-5.27,2.95-7.4l.68-.85.84-.75c2.2-1.96,4.91-3.12,7.82-3.36l1.1-.09m15.18,26.59h0,0m-13.15-34.12h-4.05c-.86,0-1.56.7-1.56,1.56s.7,1.56,1.56,1.56h.82c.11.83.09,1.67-.07,2.5-3.44.28-6.56,1.7-8.99,3.86-.7-.44-1.33-.99-1.86-1.63l.56-.61c.58-.63.54-1.63-.09-2.21-.3-.28-.68-.41-1.06-.41-.42,0-.84.17-1.15.5l-2.74,2.98c-.58.63-.54,1.63.09,2.21.3.28.68.41,1.06.41.42,0,.84-.17,1.15-.5l.56-.61c.67.47,1.25,1.04,1.74,1.69-1.91,2.36-3.14,5.29-3.39,8.5-.52.1-1.04.16-1.56.16-.34,0-.69-.02-1.03-.07v-.83c0-.86-.7-1.56-1.56-1.56s-1.56.7-1.56,1.56v4.05c0,.86.7,1.56,1.56,1.56s1.56-.7,1.56-1.56v-.82c.35-.05.7-.07,1.05-.07.52,0,1.04.05,1.55.16.33,3.81,2.06,7.22,4.65,9.73-.44.7-.99,1.33-1.62,1.85l-.61-.56c-.3-.28-.68-.41-1.06-.41-.42,0-.84.17-1.15.5-.58.63-.54,1.63.09,2.21l2.98,2.74c.3.28.68.41,1.06.41.42,0,.84-.17,1.15-.5.58-.63.54-1.63-.09-2.21l-.61-.56c.5-.72,1.12-1.35,1.83-1.86,2.16,1.49,4.71,2.45,7.47,2.68.19.88.22,1.78.1,2.66h-.83c-.86,0-1.56.7-1.56,1.56s.7,1.56,1.56,1.56h4.05c.86,0,1.56-.7,1.56-1.56s-.7-1.56-1.56-1.56h-.82c-.12-.87-.09-1.76.09-2.63v-.03c3.19-.27,6.09-1.5,8.43-3.4.67.5,1.25,1.11,1.73,1.79l-.61.56c-.64.58-.68,1.57-.1,2.21.31.34.73.51,1.16.51.38,0,.75-.13,1.05-.41l2.99-2.73c.64-.58.68-1.57.1-2.21-.31-.34-.73-.51-1.16-.51-.38,0-.75.13-1.05.41l-.61.55c-.66-.55-1.22-1.21-1.66-1.94,2.14-2.42,3.55-5.51,3.84-8.92.43-.07.86-.11,1.29-.11.35,0,.7.02,1.05.07v.83c0,.86.7,1.56,1.56,1.56s1.56-.7,1.56-1.56v-4.05c0-.86-.7-1.56-1.56-1.56s-1.56.7-1.56,1.56v.82c-.34.05-.68.07-1.02.07-.44,0-.88-.04-1.31-.11-.24-3.19-1.45-6.09-3.32-8.45.46-.64,1.02-1.2,1.65-1.68l.58.59c.3.31.71.47,1.11.47s.79-.15,1.1-.45c.61-.6.62-1.6.02-2.21l-2.84-2.89c-.3-.31-.71-.47-1.12-.47-.4,0-.79.15-1.1.45-.61.6-.62,1.6-.02,2.21l.58.59c-.47.61-1.04,1.13-1.67,1.57-2.45-2.23-5.61-3.68-9.11-3.97-.16-.83-.18-1.67-.07-2.5h.83c.86,0,1.56-.7,1.56-1.56s-.7-1.56-1.56-1.56h0Z" style="fill: #fff; stroke-width: 0px;"/>
      <circle cx="79.78" cy="74.96" r="3.14" style="fill: none; stroke: #fff; stroke-linecap: round; stroke-miterlimit: 10; stroke-width: 2px;"/>
      <circle cx="78.98" cy="65.91" r="2.21" style="fill: none; stroke: #fff; stroke-linecap: round; stroke-miterlimit: 10; stroke-width: 2px;"/>
      <circle cx="73.34" cy="81.21" r=".93" style="fill: #fff; stroke-width: 0px;"/>
      <circle cx="84.9" cy="68.43" r="1.02" style="fill: #fff; stroke-width: 0px;"/>
      <circle cx="70.66" cy="73.2" r="1.02" style="fill: #fff; stroke-width: 0px;"/>
      <circle cx="72.41" cy="62.38" r="1.02" style="fill: #fff; stroke-width: 0px;"/>
      <circle cx="66.78" cy="65.66" r="1.02" style="fill: #fff; stroke-width: 0px;"/>
      <circle cx="71.09" cy="66.69" r="1.02" style="fill: #fff; stroke-width: 0px;"/>
      <circle cx="67.25" cy="77.66" r="1.02" style="fill: #fff; stroke-width: 0px;"/>
      <circle cx="65.09" cy="71.09" r="1.02" style="fill: #fff; stroke-width: 0px;"/>
    </g>
    <g>
      <path d="m31.2,32.15h0,0m9.23,1.98h.17s.93.02.93.02l.92.17c2.46.44,4.66,1.66,6.36,3.54l.62.69.49.75c1.25,1.92,1.88,4.13,1.83,6.39l-.02.94-.16.87c-.44,2.4-1.62,4.55-3.43,6.23l-.7.65-.77.51c-1.86,1.23-4.01,1.88-6.23,1.88h-.15s-.86,0-.86,0l-1.04-.19c-1.93-.35-3.75-1.21-5.25-2.48l-.7-.59-.62-.73c-1.77-2.08-2.73-4.71-2.71-7.42v-.92s.18-.96.18-.96c.4-2.25,1.46-4.31,3.07-5.95l.64-.65.76-.56c1.96-1.43,4.26-2.18,6.65-2.18m-15.95,8.09h0,0m33.33,3.23h0,0m-5.27,12.72h0,0m-12.22-30.93c-.68,0-1.27.52-1.34,1.22-.07.74.47,1.4,1.21,1.47l.71.07c.03.72-.06,1.44-.27,2.14-.07,0-.13,0-.2,0-2.9,0-5.62.95-7.83,2.57-.57-.44-1.06-.96-1.46-1.55l.53-.47c.55-.49.6-1.35.11-1.9-.27-.3-.63-.45-1.01-.45-.32,0-.64.11-.9.34l-2.6,2.33c-.55.49-.6,1.35-.11,1.9.27.3.63.45,1.01.45.32,0,.64-.11.9-.34l.53-.47c.53.46.98,1,1.35,1.6-1.83,1.87-3.14,4.28-3.62,7.01-.23.02-.47.04-.71.04-.51,0-1.02-.06-1.52-.18l.07-.71c.07-.74-.47-1.4-1.21-1.47-.04,0-.09,0-.13,0-.68,0-1.27.52-1.34,1.22l-.34,3.47c-.07.74.47,1.4,1.21,1.47.04,0,.09,0,.13,0,.68,0,1.27-.52,1.34-1.22l.07-.71c.09,0,.17,0,.26,0,.67,0,1.33.1,1.97.29-.03,3.3,1.17,6.36,3.18,8.73-.44.56-.96,1.06-1.55,1.45l-.47-.53c-.27-.3-.63-.45-1.01-.45-.32,0-.64.11-.9.34-.55.49-.6,1.35-.11,1.9l2.33,2.6c.27.3.64.45,1.01.45.32,0,.64-.11.9-.34.55-.49.6-1.35.11-1.9l-.47-.53c.49-.57,1.07-1.06,1.73-1.44,1.73,1.46,3.83,2.49,6.18,2.92.09.77.04,1.54-.13,2.29l-.71-.07s-.09,0-.13,0c-.68,0-1.27.52-1.34,1.22-.07.74.47,1.4,1.21,1.47l3.47.34s.09,0,.13,0c.68,0,1.27-.52,1.34-1.22.07-.74-.47-1.4-1.21-1.47l-.71-.07c-.03-.76.07-1.52.3-2.25v-.03c.07,0,.13,0,.19,0,2.68,0,5.21-.81,7.33-2.22.53.49.98,1.05,1.33,1.68l-.57.43c-.59.44-.71,1.29-.27,1.89.26.35.67.54,1.08.54.28,0,.56-.09.81-.27l2.79-2.09c.59-.44.72-1.29.27-1.89-.26-.35-.67-.54-1.08-.54-.28,0-.56.09-.81.27l-.57.43c-.52-.53-.94-1.13-1.26-1.8,2.04-1.9,3.5-4.43,4.03-7.33.16-.01.31-.02.47-.02.52,0,1.04.06,1.54.18l-.07.71c-.07.74.47,1.4,1.21,1.47.04,0,.09,0,.13,0,.68,0,1.27-.52,1.34-1.22l.34-3.47c.07-.74-.47-1.4-1.21-1.47-.04,0-.09,0-.13,0-.68,0-1.27.52-1.34,1.22l-.07.71c-.08,0-.16,0-.25,0-.59,0-1.18-.08-1.75-.23.06-2.75-.74-5.35-2.15-7.52.45-.51.97-.95,1.55-1.3l.45.55c.27.33.66.5,1.05.5.3,0,.6-.1.85-.3.58-.47.67-1.32.2-1.9l-2.2-2.71c-.27-.33-.66-.5-1.05-.5-.3,0-.6.1-.85.3-.58.47-.67,1.32-.2,1.9l.45.55c-.45.48-.99.88-1.56,1.21-1.92-2.11-4.51-3.63-7.48-4.16-.07-.72-.02-1.45.15-2.15l.71.07s.09,0,.13,0c.68,0,1.27-.52,1.34-1.22.07-.74-.47-1.4-1.21-1.47l-3.47-.34s-.09,0-.13,0h0Z" style="fill: #fff; stroke-width: 0px;"/>
      <circle cx="44.14" cy="48.19" r="2.38" style="fill: none; stroke: #fff; stroke-linecap: round; stroke-miterlimit: 10; stroke-width: 2px;"/>
      <circle cx="43.53" cy="39.8" r="1.68" style="fill: none; stroke: #fff; stroke-linecap: round; stroke-miterlimit: 10; stroke-width: 2px;"/>
      <path d="m34.22,47.78c-1.2-.51-2.05-1.7-2.05-3.09,0-1.85,1.5-3.36,3.36-3.36,1.62,0,2.98,1.15,3.29,2.68" style="fill: none; stroke: #fff; stroke-linecap: round; stroke-linejoin: round; stroke-width: 2px;"/>
      <circle cx="39.26" cy="52.92" r=".7" style="fill: #fff; stroke-width: 0px;"/>
      <circle cx="48.03" cy="43.23" r=".78" style="fill: #fff; stroke-width: 0px;"/>
      <circle cx="36.66" cy="45.85" r=".78" style="fill: #fff; stroke-width: 0px;"/>
    </g>
  </g>
  <rect x="27.13" y="74.61" width="19.12" height="8.91" rx="4.45" ry="4.45" transform="translate(53.9 -6.38) rotate(36.28)" style="fill: none; stroke: #fff; stroke-miterlimit: 10; stroke-width: 2px;"/>
  <rect x="66.45" y="32.66" width="19.13" height="8.91" rx="4.45" ry="4.45" transform="translate(-5.12 13.17) rotate(-9.58)" style="fill: none; stroke: #fff; stroke-miterlimit: 10; stroke-width: 2px;"/>
</svg>