<?xml version="1.0" encoding="UTF-8"?>
<svg id="Layer_1" data-name="Layer 1" xmlns="http://www.w3.org/2000/svg" viewBox="0 0 120 120" width="100%" height="100%">
  <g>
    <circle cx="60" cy="60" r="55.41" style="fill: #fff; stroke: #005178; stroke-miterlimit: 10; stroke-width: 6px;"/>
    <circle cx="60" cy="60" r="48.69" style="fill: #5a97cb; stroke-width: 0px;"/>
    <circle cx="60" cy="60" r="55.41" style="fill: #fff; stroke: #005178; stroke-miterlimit: 10; stroke-width: 6px;"/>
    <circle cx="60" cy="60" r="48.69" style="fill: #5a97cb; stroke-width: 0px;"/>
  </g>
  <path d="m54.22,67.26c-2.23.98-4.69,1.52-7.27,1.52-10.02,0-18.15-8.13-18.15-18.15s8.13-18.15,18.15-18.15,18.15,8.13,18.15,18.15c0,.54-.02,1.07-.07,1.59" style="fill: none; stroke: #fff; stroke-miterlimit: 10; stroke-width: 2.5px;"/>
  <circle cx="39.68" cy="44.45" r="2.12" style="fill: #fff; stroke-width: 0px;"/>
  <circle cx="54.22" cy="44.68" r="2.12" style="fill: #fff; stroke-width: 0px;"/>
  <path d="m54.76,53.12c0,4.31-3.5,7.81-7.81,7.81s-7.81-3.5-7.81-7.81" style="fill: none; stroke: #fff; stroke-linecap: round; stroke-miterlimit: 10; stroke-width: 2.5px;"/>
  <circle cx="72.46" cy="68.78" r="18.15" style="fill: none; stroke: #fff; stroke-miterlimit: 10; stroke-width: 2.5px;"/>
  <circle cx="65.18" cy="62.6" r="2.12" style="fill: #fff; stroke-width: 0px;"/>
  <circle cx="79.73" cy="62.83" r="2.12" style="fill: #fff; stroke-width: 0px;"/>
  <path d="m64.64,79.08c0-4.31,3.5-7.81,7.81-7.81s7.81,3.5,7.81,7.81" style="fill: none; stroke: #fff; stroke-linecap: round; stroke-miterlimit: 10; stroke-width: 2.5px;"/>
</svg>