<?xml version="1.0" encoding="UTF-8"?>
<svg id="Layer_1" data-name="Layer 1" xmlns="http://www.w3.org/2000/svg" viewBox="0 0 120 120" width="100%" height="100%">
  <circle cx="60" cy="60" r="55.41" style="fill: #fff; stroke: #005178; stroke-miterlimit: 10; stroke-width: 6px;"/>
  <circle cx="60" cy="60" r="48.69" style="fill: #5a97cb; stroke-width: 0px;"/>
  <circle cx="60" cy="60" r="55.41" style="fill: #fff; stroke: #005178; stroke-miterlimit: 10; stroke-width: 6px;"/>
  <circle cx="60" cy="60" r="48.69" style="fill: #5a97cb; stroke-width: 0px;"/>
  <path d="m61.42,42.71c1.73,2.12,4.3,1.66,6.58,2.34-.95.69-1.9,1.21-2.55,2.04.53.28,1.04.4,1.53.4,1,0,1.92-.5,2.81-1.15.52.84,1.11,1.43,1.93,1.43.24,0,.51-.05.79-.16.24-.09.46-.13.67-.13.77,0,1.36.55,2.06.91-.29.43-.62.54-.96.54s-.72-.11-1.08-.11c-.17,0-.33.03-.49.1-.92.43-1.66.51-1.69,1.93-.03,1.33-.73,2.66-.51,4.09.08.5.03,1.02.68,1.32,1.29-.55,1.48-1.53,1.12-2.83-.42-1.49.53-3.46,1.87-4.07.08-.04.17-.05.27-.05.65,0,1.55.77,1.66,1.49.1.67-.26,1.18-.59,1.71.1.09.19.12.27.12.25,0,.46-.27.73-.27.09,0,.19.03.29.11.94,1.37-.28,2.48-.78,3.69.3.12.67.17,1.08.17,1.59,0,3.72-.82,4.23-1.95.36-.8.77-.99,1.35-.99.12,0,.26,0,.4.02.24.02.47.04.69.04.66,0,1.16-.22,1.26-1.35.07-.79,1.01-1.45,2.01-1.51.67-.04,1.35-.07,2.02-.07.11,0,.22,0,.33,0,.03,0,.06,0,.09,0,1.54,0,2.59-.63,3.04-2.19.14-.48.41-.91.59-1.38.18-.47.48-.58.81-.58.26,0,.55.07.79.07.04,0,.07,0,.11,0,.03,0,.06,0,.09,0,.58,0,.63.63.57,1.11-.15,1.18.19,2.19,1.05,3.09-.89,1.04-2.04,1.43-3.17,1.89-1.82.75-2.14,2.54-.42,3.94-.19-.04-.38-.05-.55-.05-1.74,0-2.71,1.62-4.25,1.62-.1,0-.21,0-.32-.02-.27,1.08-.19,2.26-1.7,2.41.54.9.17,1.64-.53,2.32-.21-.34-.19-.87-.78-1-.02.14-.09.3-.06.42.2.69.26,1.4.52,2.09.51,1.38.3,2.53-1.33,3.27-1.87.85-3.31,2.39-4.77,3.81-.81.79-.99,1.82-.53,2.95.48,1.19.88,2.41,1.26,3.63.15.47.22.99.2,1.48-.03.59.09,1.34-.65,1.59-.1.04-.19.05-.28.05-.53,0-.72-.64-.94-.97-.71-1.08-1.6-2.07-1.43-3.6.13-1.15-.87-2.01-2-2.01-.16,0-.33.02-.49.06-.15.03-.28.06-.41.06-.18,0-.34-.05-.52-.19-.68-.54-1.41-.68-2.14-.68-.71,0-1.42.12-2.13.12-.17,0-.33,0-.5-.02-.15,1.17-.53,1.67-1.24,1.67-.3,0-.65-.09-1.07-.25-.85-.33-1.67-.56-2.49-.56-.95,0-1.9.3-2.88,1.09-1.45,1.17-3.13,1.89-2.19,4.31-1.39-.22-2.37-.45-2.78-1.8-.24-.77-.84-1.43-1.28-2.14-.62-1.02-1.15-1.51-1.75-1.51-.49,0-1.04.33-1.74.97-.89-.14-1.45-.65-1.89-1.47-.83-1.57-1.69-2.17-3-2.17-.5,0-1.06.09-1.71.24-.54.13-1.08.18-1.61.18-1.74,0-3.43-.61-5.05-1.35-.73-.33-1.45-.64-2.23-.64-.26,0-.53.03-.81.11-.14.04-.28.06-.4.06-.39,0-.71-.21-.95-.69-.38-.77-1.14-1.38-1.91-1.53-1.88-.38-2.76-1.8-3.44-3.23-.92-1.94-2.31-3.62-2.95-5.75-.55-1.85-.61-3.78-.39-5.51.4-3.1.62-6.09-.48-9.21.09,0,.18,0,.27,0,1.24,0,1.9.67,2.27,2.06.49-1.37-.09-2.29-.12-3.24.31-.19.62-.24.94-.24.29,0,.58.04.87.04h0c10.32-.01,20.65,0,30.97-.02h0c.3,0,.63.06.93.06.38,0,.71-.1.89-.57m0-2c-.11,0-.21,0-.32.03-.39.06-.75.24-1.04.51-.14-.01-.29-.02-.46-.02-5.46,0-10.91,0-16.37.01-4.87,0-9.74,0-14.61,0-.1,0-.2,0-.29-.01-.19-.01-.38-.02-.58-.02-.77,0-1.42.18-2.01.55-.34.21-.6.52-.76.88-.11,0-.22-.01-.33-.01-.13,0-.27,0-.41.01-.62.04-1.19.38-1.53.9-.34.52-.42,1.17-.21,1.76.98,2.78.74,5.51.38,8.28-.28,2.2-.13,4.39.46,6.34.47,1.56,1.23,2.83,1.96,4.06.4.68.79,1.32,1.1,1.97.53,1.11,1.76,3.71,4.85,4.33.11.02.38.19.51.45.57,1.15,1.57,1.81,2.74,1.81.31,0,.63-.05.95-.14.09-.03.17-.04.26-.04.36,0,.83.2,1.4.46,1.66.76,3.66,1.53,5.88,1.53.7,0,1.4-.08,2.07-.24.53-.13.94-.19,1.26-.19.36,0,.65,0,1.23,1.1.75,1.43,1.88,2.27,3.33,2.51.11.02.21.03.32.03.5,0,.98-.19,1.35-.53.09-.08.17-.15.23-.21.06.09.13.19.2.31.16.26.34.51.51.77.24.34.49.69.55.92.8,2.61,3.04,2.97,4.38,3.19.11.02.21.03.32.03.6,0,1.17-.27,1.55-.74.45-.56.57-1.31.31-1.98q-.25-.65.88-1.49c.23-.17.47-.35.7-.54.71-.58,1.24-.65,1.62-.65.47,0,1.03.13,1.76.42.67.26,1.26.39,1.8.39.65,0,1.98-.2,2.73-1.69.08,0,.16-.01.24-.02.32-.03.63-.05.89-.05.5,0,.7.09.9.24.52.41,1.11.62,1.76.62.33,0,.62-.06.86-.11.01,0,.02,0,.03,0-.14,1.94.79,3.29,1.48,4.28.1.14.2.28.29.43,0,.02.03.06.05.09.23.44.94,1.77,2.56,1.77.31,0,.63-.05.94-.16,1.3-.45,1.96-1.53,1.98-3.19,0-.07,0-.13,0-.19.03-.71-.06-1.46-.29-2.17-.38-1.22-.8-2.53-1.31-3.79-.2-.5-.06-.65.07-.77l.48-.48c1.22-1.2,2.37-2.34,3.72-2.95,2.31-1.05,3.22-3.08,2.48-5.46.73-.8,1.03-1.59,1.1-2.28.6-.52.92-1.19,1.1-1.78.69-.22,1.27-.58,1.73-.87.55-.34.9-.55,1.21-.55.06,0,.12,0,.18.02.12.02.25.04.37.04.77,0,1.48-.44,1.81-1.16.39-.83.16-1.82-.56-2.4-.21-.17-.31-.3-.35-.38.05-.04.14-.1.28-.15l.33-.13c1.11-.44,2.48-1,3.6-2.31.67-.78.63-1.94-.08-2.68-.44-.46-.59-.87-.51-1.45.17-1.29-.26-2.08-.64-2.52-.48-.55-1.16-.85-1.91-.85-.07,0-.14,0-.21,0-.03,0-.07-.01-.12-.02-.17-.02-.4-.05-.66-.05-1.24,0-2.24.7-2.68,1.87-.05.14-.12.28-.19.42-.15.3-.33.68-.45,1.12-.16.54-.29.74-1.12.74h-.06c-.12,0-.24,0-.36,0-.64,0-1.32.02-2.15.08-1.84.12-3.37,1.29-3.78,2.81-.16-.01-.3-.02-.44-.02-1.45,0-2.51.71-3.16,2.12-.07.08-.2.18-.38.28.06-.75-.09-1.58-.69-2.45-.1-.14-.21-.27-.34-.38,0-.14-.01-.29-.04-.44-.09-.66-.42-1.29-.87-1.82.04-.27.03-.54-.04-.81-.14-.55-.52-1.02-1.02-1.28-.15-.08-.29-.17-.44-.25-.6-.37-1.42-.87-2.54-.87-.46,0-.92.09-1.37.26-.07-.07-.18-.21-.32-.45-.29-.47-.77-.81-1.32-.91-.1-.02-.19-.03-.29-.03-.22-.58-.69-1.03-1.3-1.21-.84-.25-1.64-.36-2.42-.47-1.58-.22-2.5-.39-3.18-1.21-.38-.47-.95-.74-1.55-.74h0Z" style="fill: #fff; stroke-width: 0px;"/>
</svg>