<svg width="850" height="301" viewBox="0 0 850 301" fill="none" xmlns="http://www.w3.org/2000/svg">
<path opacity="0.5" d="M110.13 100.45H754.13V242.54C754.13 253.53 745.21 262.45 734.22 262.45H130.04C119.05 262.45 110.13 253.53 110.13 242.54V100.45Z" fill="#C1DAED"/>
<path d="M687.93 120.45H476.33C462.412 120.45 451.13 131.733 451.13 145.65V217.25C451.13 231.168 462.412 242.45 476.33 242.45H687.93C701.847 242.45 713.13 231.168 713.13 217.25V145.65C713.13 131.733 701.847 120.45 687.93 120.45Z" fill="white"/>
<g opacity="0.15">
<path d="M566.739 179.19C578.819 179.19 588.609 169.4 588.609 157.32C588.609 145.24 578.819 135.45 566.739 135.45C554.659 135.45 544.869 145.24 544.869 157.32C544.869 169.4 554.659 179.19 566.739 179.19Z" fill="black"/>
<path d="M512.739 189.19C524.819 189.19 534.609 179.4 534.609 167.32C534.609 155.24 524.819 145.45 512.739 145.45C500.659 145.45 490.869 155.24 490.869 167.32C490.869 179.4 500.659 189.19 512.739 189.19Z" fill="black"/>
<path d="M690.96 189.75H643.98C637.48 189.75 631.97 193.93 629.96 199.75H603.99C601.98 193.93 596.47 189.75 589.97 189.75H542.99C536.49 189.75 530.98 193.93 528.97 199.75H488.99C480.79 199.75 474.14 206.4 474.14 214.6V229.45H550.82V219.45H579.14V229.45H655.82V219.45H705.82V204.6C705.82 196.4 699.17 189.75 690.97 189.75H690.96Z" fill="black"/>
<path d="M667.739 179.19C679.819 179.19 689.609 169.4 689.609 157.32C689.609 145.24 679.819 135.45 667.739 135.45C655.659 135.45 645.869 145.24 645.869 157.32C645.869 169.4 655.659 179.19 667.739 179.19Z" fill="black"/>
<path d="M617.739 189.19C629.819 189.19 639.609 179.4 639.609 167.32C639.609 155.24 629.819 145.45 617.739 145.45C605.659 145.45 595.869 155.24 595.869 167.32C595.869 179.4 605.659 189.19 617.739 189.19Z" fill="black"/>
</g>
<path d="M754.13 93.1499H110.13V62.2499C110.13 51.2999 119.01 42.4199 129.96 42.4199H734.3C745.25 42.4199 754.13 51.2999 754.13 62.2499V93.1499Z" fill="#005178"/>
<path d="M259.927 79.2798V70.5525H262.876C263.558 70.5525 264.117 70.669 264.555 70.9019C264.992 71.1321 265.316 71.4488 265.526 71.8522C265.737 72.2556 265.842 72.7144 265.842 73.2286C265.842 73.7429 265.737 74.1988 265.526 74.5965C265.316 74.9943 264.994 75.3068 264.559 75.534C264.124 75.7585 263.569 75.8707 262.893 75.8707H260.506V74.9161H262.859C263.325 74.9161 263.7 74.848 263.984 74.7116C264.271 74.5752 264.478 74.3821 264.606 74.1321C264.737 73.8792 264.802 73.5781 264.802 73.2286C264.802 72.8792 264.737 72.5738 264.606 72.3125C264.475 72.0511 264.266 71.8494 263.979 71.7073C263.693 71.5625 263.313 71.49 262.842 71.49H260.984V79.2798H259.927ZM264.035 75.3593L266.183 79.2798H264.955L262.842 75.3593H264.035ZM267.961 79.2798H266.853L270.057 70.5525H271.148L274.353 79.2798H273.245L270.637 71.9332H270.569L267.961 79.2798ZM268.37 75.8707H272.836V76.8082H268.37V75.8707ZM282.325 73.2798H281.268C281.205 72.9758 281.096 72.7088 280.94 72.4786C280.786 72.2485 280.599 72.0554 280.377 71.8991C280.158 71.74 279.916 71.6207 279.649 71.5411C279.381 71.4616 279.103 71.4218 278.813 71.4218C278.285 71.4218 277.806 71.5554 277.377 71.8224C276.951 72.0894 276.612 72.4829 276.359 73.0028C276.109 73.5227 275.984 74.1605 275.984 74.9161C275.984 75.6718 276.109 76.3096 276.359 76.8295C276.612 77.3494 276.951 77.7429 277.377 78.0099C277.806 78.2769 278.285 78.4105 278.813 78.4105C279.103 78.4105 279.381 78.3707 279.649 78.2911C279.916 78.2116 280.158 78.0937 280.377 77.9375C280.599 77.7784 280.786 77.5838 280.94 77.3536C281.096 77.1207 281.205 76.8536 281.268 76.5525H282.325C282.245 76.9985 282.1 77.3977 281.89 77.75C281.68 78.1022 281.418 78.4019 281.106 78.6491C280.793 78.8934 280.443 79.0795 280.053 79.2073C279.667 79.3352 279.254 79.3991 278.813 79.3991C278.069 79.3991 277.407 79.2173 276.828 78.8536C276.248 78.49 275.792 77.973 275.46 77.3025C275.127 76.6321 274.961 75.8366 274.961 74.9161C274.961 73.9957 275.127 73.2002 275.46 72.5298C275.792 71.8593 276.248 71.3423 276.828 70.9786C277.407 70.615 278.069 70.4332 278.813 70.4332C279.254 70.4332 279.667 70.4971 280.053 70.625C280.443 70.7528 280.793 70.9403 281.106 71.1875C281.418 71.4318 281.68 71.7301 281.89 72.0823C282.1 72.4318 282.245 72.8309 282.325 73.2798ZM284.032 79.2798V70.5525H289.299V71.49H285.089V74.4389H289.027V75.3764H285.089V78.3423H289.368V79.2798H284.032ZM298.193 74.4474V75.3849H294.375V74.4474H298.193ZM303.474 79.2798V70.5525H306.423C307.107 70.5525 307.667 70.6761 308.102 70.9233C308.539 71.1676 308.863 71.4985 309.073 71.9161C309.283 72.3338 309.389 72.7997 309.389 73.3139C309.389 73.8281 309.283 74.2954 309.073 74.7159C308.866 75.1363 308.545 75.4715 308.11 75.7215C307.676 75.9687 307.119 76.0923 306.44 76.0923H304.326V75.1548H306.406C306.874 75.1548 307.251 75.0738 307.535 74.9119C307.819 74.75 308.025 74.5312 308.153 74.2556C308.283 73.9772 308.349 73.6633 308.349 73.3139C308.349 72.9644 308.283 72.6519 308.153 72.3764C308.025 72.1008 307.818 71.8849 307.531 71.7286C307.244 71.5696 306.863 71.49 306.389 71.49H304.531V79.2798H303.474ZM310.614 71.49V70.5525H317.159V71.49H314.415V79.2798H313.358V71.49H310.614ZM323.563 72.7343C323.512 72.3025 323.304 71.9673 322.941 71.7286C322.577 71.49 322.131 71.3707 321.603 71.3707C321.216 71.3707 320.878 71.4332 320.589 71.5582C320.302 71.6832 320.077 71.8551 319.915 72.0738C319.756 72.2926 319.677 72.5411 319.677 72.8196C319.677 73.0525 319.732 73.2528 319.843 73.4204C319.956 73.5852 320.101 73.723 320.277 73.8338C320.454 73.9417 320.638 74.0312 320.831 74.1022C321.025 74.1704 321.202 74.2258 321.364 74.2684L322.25 74.5071C322.478 74.5667 322.731 74.6491 323.009 74.7542C323.29 74.8593 323.559 75.0028 323.814 75.1846C324.073 75.3636 324.286 75.5937 324.454 75.875C324.621 76.1562 324.705 76.5014 324.705 76.9105C324.705 77.3821 324.581 77.8082 324.334 78.1889C324.09 78.5696 323.732 78.8721 323.26 79.0965C322.792 79.321 322.222 79.4332 321.552 79.4332C320.927 79.4332 320.385 79.3323 319.928 79.1306C319.473 78.9289 319.116 78.6477 318.854 78.2869C318.596 77.9261 318.449 77.5071 318.415 77.0298H319.506C319.535 77.3593 319.645 77.6321 319.839 77.848C320.035 78.061 320.282 78.2201 320.58 78.3252C320.881 78.4275 321.205 78.4786 321.552 78.4786C321.955 78.4786 322.317 78.4133 322.638 78.2826C322.959 78.1491 323.214 77.9644 323.401 77.7286C323.589 77.49 323.682 77.2116 323.682 76.8934C323.682 76.6036 323.601 76.3679 323.439 76.186C323.277 76.0042 323.064 75.8565 322.8 75.7429C322.536 75.6292 322.25 75.5298 321.944 75.4446L320.87 75.1377C320.188 74.9417 319.648 74.6619 319.25 74.2983C318.853 73.9346 318.654 73.4588 318.654 72.8707C318.654 72.3821 318.786 71.9559 319.05 71.5923C319.317 71.2258 319.675 70.9417 320.124 70.74C320.576 70.5355 321.08 70.4332 321.637 70.4332C322.199 70.4332 322.699 70.534 323.137 70.7358C323.574 70.9346 323.921 71.2073 324.177 71.5539C324.435 71.9005 324.571 72.294 324.586 72.7343H323.563ZM329.136 79.2798H326.443V70.5525H329.255C330.102 70.5525 330.826 70.7272 331.428 71.0767C332.031 71.4233 332.492 71.9218 332.813 72.5724C333.134 73.2201 333.295 73.9957 333.295 74.8991C333.295 75.8082 333.133 76.5909 332.809 77.2471C332.485 77.9005 332.014 78.4034 331.394 78.7556C330.775 79.1051 330.022 79.2798 329.136 79.2798ZM327.499 78.3423H329.068C329.789 78.3423 330.387 78.2031 330.862 77.9247C331.336 77.6463 331.69 77.25 331.923 76.7358C332.156 76.2215 332.272 75.6093 332.272 74.8991C332.272 74.1946 332.157 73.588 331.927 73.0795C331.697 72.5681 331.353 72.1761 330.896 71.9034C330.438 71.6278 329.869 71.49 329.187 71.49H327.499V78.3423ZM338.443 79.2798V70.5525H341.391C342.076 70.5525 342.636 70.6761 343.07 70.9233C343.508 71.1676 343.832 71.4985 344.042 71.9161C344.252 72.3338 344.357 72.7997 344.357 73.3139C344.357 73.8281 344.252 74.2954 344.042 74.7159C343.835 75.1363 343.514 75.4715 343.079 75.7215C342.644 75.9687 342.087 76.0923 341.408 76.0923H339.295V75.1548H341.374C341.843 75.1548 342.22 75.0738 342.504 74.9119C342.788 74.75 342.994 74.5312 343.122 74.2556C343.252 73.9772 343.318 73.6633 343.318 73.3139C343.318 72.9644 343.252 72.6519 343.122 72.3764C342.994 72.1008 342.786 71.8849 342.499 71.7286C342.212 71.5696 341.832 71.49 341.357 71.49H339.499V79.2798H338.443ZM346.06 79.2798V70.5525H349.009C349.69 70.5525 350.25 70.669 350.688 70.9019C351.125 71.1321 351.449 71.4488 351.659 71.8522C351.869 72.2556 351.975 72.7144 351.975 73.2286C351.975 73.7429 351.869 74.1988 351.659 74.5965C351.449 74.9943 351.127 75.3068 350.692 75.534C350.257 75.7585 349.702 75.8707 349.026 75.8707H346.639V74.9161H348.992C349.457 74.9161 349.832 74.848 350.117 74.7116C350.403 74.5752 350.611 74.3821 350.739 74.1321C350.869 73.8792 350.935 73.5781 350.935 73.2286C350.935 72.8792 350.869 72.5738 350.739 72.3125C350.608 72.0511 350.399 71.8494 350.112 71.7073C349.825 71.5625 349.446 71.49 348.975 71.49H347.117V79.2798H346.06ZM350.168 75.3593L352.315 79.2798H351.088L348.975 75.3593H350.168ZM353.736 79.2798V70.5525H359.003V71.49H354.792V74.4389H358.73V75.3764H354.792V78.3423H359.071V79.2798H353.736ZM361.265 70.5525L363.856 77.8991H363.959L366.549 70.5525H367.657L364.453 79.2798H363.362L360.157 70.5525H361.265ZM368.625 79.2798H367.517L370.721 70.5525H371.812L375.017 79.2798H373.909L371.301 71.9332H371.233L368.625 79.2798ZM369.034 75.8707H373.5V76.8082H369.034V75.8707ZM376.376 79.2798V70.5525H377.433V78.3423H381.49V79.2798H376.376ZM383.126 79.2798V70.5525H388.393V71.49H384.183V74.4389H388.12V75.3764H384.183V78.3423H388.461V79.2798H383.126ZM397.218 70.5525V79.2798H396.196L391.44 72.4275H391.355V79.2798H390.298V70.5525H391.321L396.093 77.4218H396.179V70.5525H397.218ZM406.356 73.2798H405.299C405.237 72.9758 405.127 72.7088 404.971 72.4786C404.818 72.2485 404.63 72.0554 404.408 71.8991C404.19 71.74 403.947 71.6207 403.68 71.5411C403.413 71.4616 403.134 71.4218 402.845 71.4218C402.316 71.4218 401.837 71.5554 401.408 71.8224C400.982 72.0894 400.643 72.4829 400.39 73.0028C400.14 73.5227 400.015 74.1605 400.015 74.9161C400.015 75.6718 400.14 76.3096 400.39 76.8295C400.643 77.3494 400.982 77.7429 401.408 78.0099C401.837 78.2769 402.316 78.4105 402.845 78.4105C403.134 78.4105 403.413 78.3707 403.68 78.2911C403.947 78.2116 404.19 78.0937 404.408 77.9375C404.63 77.7784 404.818 77.5838 404.971 77.3536C405.127 77.1207 405.237 76.8536 405.299 76.5525H406.356C406.276 76.9985 406.131 77.3977 405.921 77.75C405.711 78.1022 405.45 78.4019 405.137 78.6491C404.825 78.8934 404.474 79.0795 404.085 79.2073C403.698 79.3352 403.285 79.3991 402.845 79.3991C402.1 79.3991 401.438 79.2173 400.859 78.8536C400.279 78.49 399.823 77.973 399.491 77.3025C399.158 76.6321 398.992 75.8366 398.992 74.9161C398.992 73.9957 399.158 73.2002 399.491 72.5298C399.823 71.8593 400.279 71.3423 400.859 70.9786C401.438 70.615 402.1 70.4332 402.845 70.4332C403.285 70.4332 403.698 70.4971 404.085 70.625C404.474 70.7528 404.825 70.9403 405.137 71.1875C405.45 71.4318 405.711 71.7301 405.921 72.0823C406.131 72.4318 406.276 72.8309 406.356 73.2798ZM408.064 79.2798V70.5525H413.331V71.49H409.12V74.4389H413.058V75.3764H409.12V78.3423H413.399V79.2798H408.064Z" fill="white"/>
<path d="M583.601 71.3026V64.9754H585.064V65.4598H584.154V70.8182H585.064V71.3026H583.601ZM587.605 65.6081V70.6699H586.992V66.2507H586.963L585.727 67.0713V66.4484L586.992 65.6081H587.605ZM590.772 70.7391C590.445 70.7391 590.154 70.6831 589.899 70.5711C589.645 70.459 589.443 70.3033 589.294 70.1039C589.145 69.9029 589.064 69.6698 589.051 69.4045H589.674C589.687 69.5676 589.743 69.7085 589.842 69.8271C589.941 69.9441 590.07 70.0347 590.23 70.099C590.39 70.1632 590.567 70.1954 590.762 70.1954C590.979 70.1954 591.172 70.1575 591.34 70.0817C591.508 70.0059 591.64 69.9004 591.735 69.7653C591.831 69.6302 591.879 69.4737 591.879 69.2957C591.879 69.1095 591.833 68.9456 591.74 68.8039C591.648 68.6605 591.513 68.5485 591.335 68.4677C591.157 68.387 590.94 68.3466 590.683 68.3466H590.277V67.8029H590.683C590.884 67.8029 591.06 67.7666 591.211 67.6941C591.365 67.6216 591.484 67.5195 591.57 67.3876C591.657 67.2558 591.701 67.1009 591.701 66.923C591.701 66.7516 591.663 66.6025 591.587 66.4756C591.511 66.3488 591.404 66.2499 591.266 66.179C591.129 66.1082 590.968 66.0728 590.781 66.0728C590.607 66.0728 590.442 66.1049 590.287 66.1692C590.134 66.2318 590.009 66.3232 589.911 66.4435C589.814 66.5621 589.761 66.7055 589.753 66.8736H589.16C589.17 66.6083 589.25 66.3759 589.4 66.1766C589.55 65.9755 589.746 65.819 589.988 65.707C590.232 65.5949 590.5 65.5389 590.791 65.5389C591.104 65.5389 591.373 65.6023 591.597 65.7292C591.821 65.8544 591.993 66.02 592.114 66.226C592.234 66.432 592.294 66.6544 592.294 66.8933C592.294 67.1784 592.219 67.4214 592.069 67.6225C591.921 67.8235 591.719 67.9627 591.464 68.0401V68.0797C591.783 68.1324 592.033 68.2684 592.212 68.4875C592.392 68.705 592.482 68.9744 592.482 69.2957C592.482 69.5709 592.407 69.818 592.257 70.0372C592.109 70.2547 591.906 70.4261 591.649 70.5513C591.392 70.6765 591.099 70.7391 590.772 70.7391ZM594.669 64.9754V71.3026H593.206V70.8182H594.116V65.4598H593.206V64.9754H594.669Z" fill="white"/>
<path d="M582.96 186.75H535.98C527.78 186.75 521.13 193.4 521.13 201.6V216.45H597.81V201.6C597.81 193.4 591.16 186.75 582.96 186.75Z" fill="#FFCEA6"/>
<path d="M559.74 176.19C571.819 176.19 581.61 166.399 581.61 154.32C581.61 142.242 571.819 132.45 559.74 132.45C547.662 132.45 537.87 142.242 537.87 154.32C537.87 166.399 547.662 176.19 559.74 176.19Z" fill="#FFCEA6"/>
<path d="M532.37 192.45H478.59C469.2 192.45 461.59 200.96 461.59 211.45V230.45H549.37V211.45C549.37 200.96 541.76 192.45 532.37 192.45Z" fill="white"/>
<path d="M177.997 142.42V133.693H181.048C181.656 133.693 182.158 133.798 182.553 134.008C182.948 134.215 183.242 134.495 183.435 134.847C183.628 135.197 183.725 135.585 183.725 136.011C183.725 136.386 183.658 136.695 183.524 136.94C183.394 137.184 183.22 137.377 183.004 137.519C182.791 137.661 182.56 137.767 182.31 137.835V137.92C182.577 137.937 182.845 138.031 183.115 138.201C183.385 138.372 183.611 138.616 183.793 138.934C183.975 139.252 184.065 139.642 184.065 140.102C184.065 140.539 183.966 140.933 183.767 141.282C183.568 141.632 183.254 141.909 182.825 142.113C182.396 142.318 181.838 142.42 181.151 142.42H177.997ZM179.054 141.482H181.151C181.841 141.482 182.331 141.349 182.621 141.082C182.913 140.812 183.06 140.485 183.06 140.102C183.06 139.806 182.984 139.534 182.834 139.284C182.683 139.031 182.469 138.829 182.19 138.678C181.912 138.525 181.582 138.448 181.202 138.448H179.054V141.482ZM179.054 137.528H181.014C181.332 137.528 181.619 137.465 181.875 137.34C182.134 137.215 182.338 137.039 182.489 136.812C182.642 136.585 182.719 136.318 182.719 136.011C182.719 135.627 182.585 135.302 182.318 135.035C182.051 134.765 181.628 134.63 181.048 134.63H179.054V137.528ZM186.671 133.693V142.42H185.666V133.693H186.671ZM190.439 142.573C190.025 142.573 189.648 142.495 189.31 142.339C188.972 142.18 188.704 141.951 188.505 141.653C188.306 141.352 188.206 140.988 188.206 140.562C188.206 140.187 188.28 139.883 188.428 139.65C188.576 139.414 188.773 139.23 189.02 139.096C189.267 138.963 189.54 138.863 189.839 138.798C190.14 138.73 190.442 138.676 190.746 138.636C191.144 138.585 191.466 138.546 191.714 138.521C191.964 138.492 192.145 138.445 192.259 138.38C192.375 138.315 192.434 138.201 192.434 138.039V138.005C192.434 137.585 192.319 137.258 192.089 137.025C191.861 136.792 191.516 136.676 191.053 136.676C190.573 136.676 190.196 136.781 189.924 136.991C189.651 137.201 189.459 137.426 189.348 137.664L188.394 137.323C188.564 136.926 188.792 136.616 189.076 136.394C189.363 136.17 189.675 136.014 190.013 135.926C190.354 135.835 190.689 135.789 191.019 135.789C191.229 135.789 191.471 135.815 191.743 135.866C192.019 135.914 192.285 136.015 192.54 136.169C192.799 136.322 193.013 136.553 193.184 136.863C193.354 137.173 193.439 137.588 193.439 138.107V142.42H192.434V141.534H192.383C192.314 141.676 192.201 141.828 192.042 141.99C191.883 142.151 191.671 142.289 191.407 142.403C191.142 142.517 190.82 142.573 190.439 142.573ZM190.593 141.67C190.991 141.67 191.326 141.592 191.598 141.436C191.874 141.279 192.081 141.078 192.221 140.83C192.363 140.583 192.434 140.323 192.434 140.051V139.13C192.391 139.181 192.297 139.228 192.152 139.271C192.01 139.311 191.846 139.346 191.658 139.377C191.473 139.406 191.293 139.431 191.117 139.454C190.944 139.474 190.803 139.491 190.695 139.505C190.434 139.539 190.189 139.595 189.962 139.671C189.738 139.745 189.556 139.857 189.417 140.008C189.28 140.156 189.212 140.357 189.212 140.613C189.212 140.963 189.341 141.227 189.6 141.406C189.861 141.582 190.192 141.67 190.593 141.67ZM197.934 142.556C197.32 142.556 196.792 142.411 196.349 142.122C195.906 141.832 195.565 141.433 195.326 140.924C195.087 140.416 194.968 139.835 194.968 139.181C194.968 138.517 195.09 137.93 195.335 137.421C195.582 136.91 195.926 136.511 196.366 136.224C196.809 135.934 197.326 135.789 197.917 135.789C198.377 135.789 198.792 135.874 199.161 136.045C199.531 136.215 199.833 136.454 200.069 136.761C200.305 137.068 200.451 137.426 200.508 137.835H199.502C199.426 137.536 199.255 137.272 198.991 137.042C198.729 136.809 198.377 136.693 197.934 136.693C197.542 136.693 197.198 136.795 196.903 136.999C196.61 137.201 196.381 137.487 196.217 137.856C196.055 138.222 195.974 138.653 195.974 139.147C195.974 139.653 196.053 140.093 196.212 140.468C196.374 140.843 196.602 141.134 196.894 141.342C197.19 141.549 197.536 141.653 197.934 141.653C198.195 141.653 198.433 141.607 198.646 141.517C198.859 141.426 199.039 141.295 199.187 141.124C199.335 140.954 199.44 140.749 199.502 140.511H200.508C200.451 140.897 200.31 141.245 200.086 141.555C199.864 141.862 199.57 142.106 199.204 142.288C198.84 142.467 198.417 142.556 197.934 142.556ZM202.916 140.034L202.899 138.789H203.103L205.967 135.874H207.211L204.16 138.96H204.075L202.916 140.034ZM201.978 142.42V133.693H202.984V142.42H201.978ZM206.137 142.42L203.58 139.181L204.296 138.482L207.416 142.42H206.137ZM214.659 142.539C214.074 142.539 213.557 142.436 213.108 142.228C212.662 142.018 212.314 141.73 212.064 141.363C211.814 140.994 211.69 140.573 211.693 140.102C211.69 139.732 211.763 139.392 211.91 139.079C212.058 138.764 212.26 138.501 212.515 138.291C212.774 138.078 213.062 137.943 213.38 137.886V137.835C212.963 137.727 212.63 137.492 212.383 137.132C212.136 136.768 212.014 136.355 212.017 135.892C212.014 135.448 212.126 135.052 212.353 134.703C212.581 134.353 212.893 134.078 213.291 133.876C213.691 133.674 214.147 133.573 214.659 133.573C215.165 133.573 215.616 133.674 216.014 133.876C216.412 134.078 216.724 134.353 216.951 134.703C217.182 135.052 217.298 135.448 217.301 135.892C217.298 136.355 217.172 136.768 216.922 137.132C216.674 137.492 216.346 137.727 215.937 137.835V137.886C216.253 137.943 216.537 138.078 216.79 138.291C217.042 138.501 217.244 138.764 217.395 139.079C217.545 139.392 217.622 139.732 217.625 140.102C217.622 140.573 217.494 140.994 217.241 141.363C216.991 141.73 216.643 142.018 216.197 142.228C215.754 142.436 215.241 142.539 214.659 142.539ZM214.659 141.602C215.054 141.602 215.395 141.538 215.682 141.41C215.968 141.282 216.19 141.102 216.346 140.869C216.503 140.636 216.582 140.363 216.585 140.051C216.582 139.721 216.497 139.43 216.329 139.177C216.162 138.924 215.933 138.725 215.643 138.58C215.356 138.436 215.028 138.363 214.659 138.363C214.287 138.363 213.954 138.436 213.662 138.58C213.372 138.725 213.143 138.924 212.976 139.177C212.811 139.43 212.73 139.721 212.733 140.051C212.73 140.363 212.805 140.636 212.959 140.869C213.115 141.102 213.338 141.282 213.628 141.41C213.917 141.538 214.261 141.602 214.659 141.602ZM214.659 137.46C214.971 137.46 215.248 137.397 215.49 137.272C215.734 137.147 215.926 136.972 216.065 136.748C216.204 136.524 216.275 136.261 216.278 135.96C216.275 135.664 216.206 135.407 216.069 135.188C215.933 134.967 215.744 134.796 215.503 134.677C215.261 134.555 214.98 134.494 214.659 134.494C214.332 134.494 214.047 134.555 213.802 134.677C213.558 134.796 213.369 134.967 213.236 135.188C213.102 135.407 213.037 135.664 213.04 135.96C213.037 136.261 213.103 136.524 213.24 136.748C213.379 136.972 213.571 137.147 213.815 137.272C214.059 137.397 214.341 137.46 214.659 137.46ZM219.738 142.488C219.528 142.488 219.348 142.413 219.197 142.262C219.047 142.112 218.971 141.931 218.971 141.721C218.971 141.511 219.047 141.33 219.197 141.18C219.348 141.029 219.528 140.954 219.738 140.954C219.949 140.954 220.129 141.029 220.28 141.18C220.43 141.33 220.505 141.511 220.505 141.721C220.505 141.86 220.47 141.988 220.399 142.105C220.331 142.221 220.238 142.315 220.122 142.386C220.008 142.454 219.88 142.488 219.738 142.488ZM222.39 142.42L226.293 134.698V134.63H221.793V133.693H227.384V134.681L223.498 142.42H222.39ZM233.422 140.784V140.323C233.422 140.005 233.487 139.714 233.618 139.45C233.751 139.183 233.944 138.97 234.197 138.811C234.453 138.649 234.763 138.568 235.126 138.568C235.495 138.568 235.805 138.649 236.055 138.811C236.305 138.97 236.494 139.183 236.622 139.45C236.75 139.714 236.814 140.005 236.814 140.323V140.784C236.814 141.102 236.748 141.394 236.618 141.661C236.49 141.926 236.299 142.139 236.047 142.301C235.797 142.46 235.49 142.539 235.126 142.539C234.757 142.539 234.446 142.46 234.193 142.301C233.94 142.139 233.748 141.926 233.618 141.661C233.487 141.394 233.422 141.102 233.422 140.784ZM234.291 140.323V140.784C234.291 141.048 234.353 141.285 234.478 141.495C234.603 141.703 234.819 141.806 235.126 141.806C235.424 141.806 235.635 141.703 235.757 141.495C235.882 141.285 235.944 141.048 235.944 140.784V140.323C235.944 140.059 235.885 139.823 235.765 139.616C235.646 139.406 235.433 139.301 235.126 139.301C234.828 139.301 234.613 139.406 234.483 139.616C234.355 139.823 234.291 140.059 234.291 140.323ZM229.075 135.789V135.329C229.075 135.011 229.14 134.72 229.271 134.455C229.405 134.188 229.598 133.975 229.851 133.816C230.106 133.654 230.416 133.573 230.78 133.573C231.149 133.573 231.459 133.654 231.709 133.816C231.959 133.975 232.147 134.188 232.275 134.455C232.403 134.72 232.467 135.011 232.467 135.329V135.789C232.467 136.107 232.402 136.4 232.271 136.667C232.143 136.931 231.953 137.144 231.7 137.306C231.45 137.465 231.143 137.545 230.78 137.545C230.41 137.545 230.099 137.465 229.846 137.306C229.593 137.144 229.402 136.931 229.271 136.667C229.14 136.4 229.075 136.107 229.075 135.789ZM229.944 135.329V135.789C229.944 136.053 230.007 136.291 230.132 136.501C230.257 136.708 230.473 136.812 230.78 136.812C231.078 136.812 231.288 136.708 231.41 136.501C231.535 136.291 231.598 136.053 231.598 135.789V135.329C231.598 135.065 231.538 134.829 231.419 134.622C231.299 134.411 231.086 134.306 230.78 134.306C230.481 134.306 230.267 134.411 230.136 134.622C230.008 134.829 229.944 135.065 229.944 135.329ZM229.399 142.42L235.399 133.693H236.37L230.37 142.42H229.399Z" fill="#005178"/>
<path d="M179.582 171.42L177.196 162.693H178.27L180.094 169.801H180.179L182.037 162.693H183.23L185.088 169.801H185.173L186.997 162.693H188.071L185.685 171.42H184.594L182.668 164.465H182.6L180.673 171.42H179.582ZM190.257 167.482V171.42H189.252V162.693H190.257V165.897H190.342C190.496 165.559 190.726 165.291 191.033 165.092C191.342 164.89 191.754 164.789 192.269 164.789C192.715 164.789 193.105 164.879 193.44 165.058C193.776 165.234 194.036 165.505 194.22 165.872C194.408 166.235 194.502 166.698 194.502 167.261V171.42H193.496V167.329C193.496 166.809 193.361 166.407 193.091 166.123C192.824 165.836 192.453 165.693 191.979 165.693C191.649 165.693 191.354 165.762 191.092 165.901C190.834 166.041 190.629 166.244 190.479 166.511C190.331 166.778 190.257 167.102 190.257 167.482ZM196.341 171.42V164.874H197.347V171.42H196.341ZM196.853 163.784C196.657 163.784 196.488 163.717 196.346 163.583C196.206 163.45 196.137 163.289 196.137 163.102C196.137 162.914 196.206 162.754 196.346 162.62C196.488 162.487 196.657 162.42 196.853 162.42C197.049 162.42 197.216 162.487 197.356 162.62C197.498 162.754 197.569 162.914 197.569 163.102C197.569 163.289 197.498 163.45 197.356 163.583C197.216 163.717 197.049 163.784 196.853 163.784ZM202.036 164.874V165.727H198.644V164.874H202.036ZM199.632 163.306H200.638V169.545C200.638 169.829 200.679 170.042 200.761 170.184C200.847 170.323 200.955 170.417 201.085 170.465C201.219 170.511 201.359 170.534 201.507 170.534C201.618 170.534 201.709 170.528 201.78 170.517C201.851 170.502 201.908 170.491 201.95 170.482L202.155 171.386C202.087 171.411 201.992 171.437 201.869 171.463C201.747 171.491 201.592 171.505 201.405 171.505C201.121 171.505 200.842 171.444 200.57 171.322C200.3 171.2 200.075 171.014 199.896 170.764C199.72 170.514 199.632 170.198 199.632 169.818V163.306ZM206.222 171.556C205.592 171.556 205.048 171.417 204.59 171.139C204.136 170.857 203.785 170.465 203.538 169.963C203.293 169.457 203.171 168.869 203.171 168.198C203.171 167.528 203.293 166.937 203.538 166.426C203.785 165.911 204.129 165.511 204.569 165.224C205.012 164.934 205.529 164.789 206.12 164.789C206.461 164.789 206.798 164.846 207.13 164.96C207.462 165.073 207.765 165.258 208.038 165.514C208.31 165.767 208.528 166.102 208.69 166.519C208.852 166.937 208.933 167.451 208.933 168.062V168.488H203.887V167.619H207.91C207.91 167.249 207.836 166.92 207.688 166.63C207.543 166.34 207.336 166.112 207.066 165.944C206.799 165.776 206.484 165.693 206.12 165.693C205.72 165.693 205.373 165.792 205.08 165.991C204.791 166.187 204.568 166.443 204.411 166.758C204.255 167.073 204.177 167.411 204.177 167.772V168.352C204.177 168.846 204.262 169.265 204.433 169.609C204.606 169.95 204.846 170.21 205.153 170.389C205.46 170.565 205.816 170.653 206.222 170.653C206.487 170.653 206.725 170.616 206.938 170.542C207.154 170.465 207.34 170.352 207.497 170.201C207.653 170.048 207.774 169.857 207.859 169.63L208.83 169.903C208.728 170.232 208.556 170.522 208.315 170.772C208.073 171.019 207.775 171.213 207.42 171.352C207.065 171.488 206.666 171.556 206.222 171.556ZM214.093 171.42L217.997 163.698V163.63H213.497V162.693H219.087V163.681L215.201 171.42H214.093ZM219.926 171.488C219.716 171.488 219.535 171.413 219.385 171.262C219.234 171.112 219.159 170.931 219.159 170.721C219.159 170.511 219.234 170.33 219.385 170.18C219.535 170.029 219.716 169.954 219.926 169.954C220.136 169.954 220.316 170.029 220.467 170.18C220.618 170.33 220.693 170.511 220.693 170.721C220.693 170.86 220.657 170.988 220.586 171.105C220.518 171.221 220.426 171.315 220.309 171.386C220.196 171.454 220.068 171.488 219.926 171.488ZM222.276 169.63V168.761L226.111 162.693H226.742V164.039H226.316L223.418 168.624V168.693H228.583V169.63H222.276ZM226.384 171.42V169.366V168.961V162.693H227.39V171.42H226.384ZM234.629 169.784V169.323C234.629 169.005 234.694 168.714 234.825 168.45C234.958 168.183 235.151 167.97 235.404 167.811C235.66 167.649 235.97 167.568 236.333 167.568C236.703 167.568 237.012 167.649 237.262 167.811C237.512 167.97 237.701 168.183 237.829 168.45C237.957 168.714 238.021 169.005 238.021 169.323V169.784C238.021 170.102 237.955 170.394 237.825 170.661C237.697 170.926 237.506 171.139 237.254 171.301C237.004 171.46 236.697 171.539 236.333 171.539C235.964 171.539 235.653 171.46 235.4 171.301C235.147 171.139 234.955 170.926 234.825 170.661C234.694 170.394 234.629 170.102 234.629 169.784ZM235.498 169.323V169.784C235.498 170.048 235.56 170.285 235.685 170.495C235.81 170.703 236.026 170.806 236.333 170.806C236.631 170.806 236.842 170.703 236.964 170.495C237.089 170.285 237.151 170.048 237.151 169.784V169.323C237.151 169.059 237.092 168.823 236.972 168.616C236.853 168.406 236.64 168.301 236.333 168.301C236.035 168.301 235.82 168.406 235.69 168.616C235.562 168.823 235.498 169.059 235.498 169.323ZM230.282 164.789V164.329C230.282 164.011 230.347 163.72 230.478 163.455C230.612 163.188 230.805 162.975 231.058 162.816C231.313 162.654 231.623 162.573 231.987 162.573C232.356 162.573 232.666 162.654 232.916 162.816C233.166 162.975 233.354 163.188 233.482 163.455C233.61 163.72 233.674 164.011 233.674 164.329V164.789C233.674 165.107 233.609 165.4 233.478 165.667C233.35 165.931 233.16 166.144 232.907 166.306C232.657 166.465 232.35 166.545 231.987 166.545C231.617 166.545 231.306 166.465 231.053 166.306C230.801 166.144 230.609 165.931 230.478 165.667C230.347 165.4 230.282 165.107 230.282 164.789ZM231.151 164.329V164.789C231.151 165.053 231.214 165.291 231.339 165.501C231.464 165.708 231.68 165.812 231.987 165.812C232.285 165.812 232.495 165.708 232.617 165.501C232.742 165.291 232.805 165.053 232.805 164.789V164.329C232.805 164.065 232.745 163.829 232.626 163.622C232.506 163.411 232.293 163.306 231.987 163.306C231.688 163.306 231.474 163.411 231.343 163.622C231.215 163.829 231.151 164.065 231.151 164.329ZM230.606 171.42L236.606 162.693H237.578L231.578 171.42H230.606Z" fill="#005178"/>
<path d="M177.997 200.42V191.693H179.054V195.579H183.707V191.693H184.764V200.42H183.707V196.517H179.054V200.42H177.997ZM186.744 200.42V193.874H187.749V200.42H186.744ZM187.255 192.784C187.059 192.784 186.89 192.717 186.748 192.583C186.609 192.45 186.539 192.289 186.539 192.102C186.539 191.914 186.609 191.754 186.748 191.62C186.89 191.487 187.059 191.42 187.255 191.42C187.451 191.42 187.619 191.487 187.758 191.62C187.9 191.754 187.971 191.914 187.971 192.102C187.971 192.289 187.9 192.45 187.758 192.583C187.619 192.717 187.451 192.784 187.255 192.784ZM194.228 195.34L193.324 195.596C193.267 195.445 193.184 195.299 193.073 195.157C192.965 195.012 192.817 194.893 192.63 194.799C192.442 194.705 192.202 194.659 191.91 194.659C191.509 194.659 191.175 194.751 190.908 194.936C190.644 195.117 190.512 195.349 190.512 195.63C190.512 195.88 190.603 196.078 190.785 196.222C190.966 196.367 191.25 196.488 191.637 196.585L192.608 196.823C193.194 196.965 193.63 197.183 193.917 197.475C194.204 197.765 194.347 198.139 194.347 198.596C194.347 198.971 194.239 199.306 194.023 199.602C193.81 199.897 193.512 200.13 193.128 200.301C192.745 200.471 192.299 200.556 191.79 200.556C191.123 200.556 190.57 200.411 190.133 200.122C189.695 199.832 189.418 199.409 189.302 198.852L190.256 198.613C190.347 198.965 190.519 199.23 190.772 199.406C191.027 199.582 191.361 199.67 191.773 199.67C192.242 199.67 192.614 199.57 192.89 199.372C193.168 199.17 193.307 198.928 193.307 198.647C193.307 198.42 193.228 198.23 193.069 198.076C192.91 197.92 192.665 197.803 192.336 197.727L191.245 197.471C190.645 197.329 190.205 197.109 189.924 196.811C189.645 196.509 189.506 196.133 189.506 195.681C189.506 195.312 189.61 194.985 189.817 194.701C190.027 194.417 190.313 194.194 190.674 194.032C191.037 193.87 191.449 193.789 191.91 193.789C192.557 193.789 193.066 193.931 193.435 194.215C193.807 194.499 194.071 194.874 194.228 195.34ZM195.861 202.874V193.874H196.832V194.914H196.952C197.026 194.801 197.128 194.656 197.259 194.48C197.392 194.301 197.582 194.142 197.83 194.002C198.08 193.86 198.418 193.789 198.844 193.789C199.395 193.789 199.881 193.927 200.301 194.203C200.722 194.478 201.05 194.869 201.286 195.374C201.521 195.88 201.639 196.477 201.639 197.164C201.639 197.857 201.521 198.458 201.286 198.967C201.05 199.472 200.723 199.865 200.305 200.143C199.888 200.419 199.406 200.556 198.861 200.556C198.44 200.556 198.104 200.487 197.851 200.347C197.598 200.205 197.403 200.045 197.267 199.866C197.131 199.684 197.026 199.534 196.952 199.414H196.867V202.874H195.861ZM196.85 197.147C196.85 197.642 196.922 198.078 197.067 198.455C197.212 198.83 197.423 199.124 197.702 199.338C197.98 199.548 198.321 199.653 198.725 199.653C199.145 199.653 199.496 199.542 199.777 199.32C200.061 199.096 200.274 198.795 200.416 198.417C200.561 198.036 200.634 197.613 200.634 197.147C200.634 196.687 200.563 196.272 200.421 195.903C200.281 195.531 200.07 195.237 199.786 195.021C199.504 194.802 199.151 194.693 198.725 194.693C198.315 194.693 197.972 194.796 197.693 195.004C197.415 195.208 197.205 195.495 197.063 195.865C196.921 196.231 196.85 196.659 196.85 197.147ZM205.1 200.573C204.685 200.573 204.308 200.495 203.97 200.339C203.632 200.18 203.364 199.951 203.165 199.653C202.966 199.352 202.867 198.988 202.867 198.562C202.867 198.187 202.94 197.883 203.088 197.65C203.236 197.414 203.433 197.23 203.68 197.096C203.928 196.963 204.2 196.863 204.499 196.798C204.8 196.73 205.102 196.676 205.406 196.636C205.804 196.585 206.127 196.546 206.374 196.521C206.624 196.492 206.805 196.445 206.919 196.38C207.036 196.315 207.094 196.201 207.094 196.039V196.005C207.094 195.585 206.979 195.258 206.749 195.025C206.521 194.792 206.176 194.676 205.713 194.676C205.233 194.676 204.857 194.781 204.584 194.991C204.311 195.201 204.119 195.426 204.009 195.664L203.054 195.323C203.225 194.926 203.452 194.616 203.736 194.394C204.023 194.17 204.335 194.014 204.673 193.926C205.014 193.835 205.35 193.789 205.679 193.789C205.889 193.789 206.131 193.815 206.403 193.866C206.679 193.914 206.945 194.015 207.2 194.169C207.459 194.322 207.673 194.553 207.844 194.863C208.014 195.173 208.1 195.588 208.1 196.107V200.42H207.094V199.534H207.043C206.975 199.676 206.861 199.828 206.702 199.99C206.543 200.151 206.331 200.289 206.067 200.403C205.803 200.517 205.48 200.573 205.1 200.573ZM205.253 199.67C205.651 199.67 205.986 199.592 206.259 199.436C206.534 199.279 206.742 199.078 206.881 198.83C207.023 198.583 207.094 198.323 207.094 198.051V197.13C207.051 197.181 206.957 197.228 206.813 197.271C206.671 197.311 206.506 197.346 206.318 197.377C206.134 197.406 205.953 197.431 205.777 197.454C205.604 197.474 205.463 197.491 205.355 197.505C205.094 197.539 204.85 197.595 204.622 197.671C204.398 197.745 204.216 197.857 204.077 198.008C203.94 198.156 203.872 198.357 203.872 198.613C203.872 198.963 204.002 199.227 204.26 199.406C204.521 199.582 204.852 199.67 205.253 199.67ZM210.941 196.482V200.42H209.935V193.874H210.907V194.897H210.992C211.145 194.565 211.378 194.298 211.691 194.096C212.003 193.892 212.407 193.789 212.901 193.789C213.344 193.789 213.732 193.88 214.064 194.062C214.397 194.241 214.655 194.514 214.84 194.88C215.025 195.244 215.117 195.704 215.117 196.261V200.42H214.111V196.329C214.111 195.815 213.978 195.414 213.711 195.127C213.444 194.838 213.077 194.693 212.611 194.693C212.29 194.693 212.003 194.762 211.75 194.901C211.5 195.041 211.303 195.244 211.158 195.511C211.013 195.778 210.941 196.102 210.941 196.482ZM216.955 200.42V193.874H217.96V200.42H216.955ZM217.466 192.784C217.27 192.784 217.101 192.717 216.959 192.583C216.82 192.45 216.75 192.289 216.75 192.102C216.75 191.914 216.82 191.754 216.959 191.62C217.101 191.487 217.27 191.42 217.466 191.42C217.662 191.42 217.83 191.487 217.969 191.62C218.111 191.754 218.182 191.914 218.182 192.102C218.182 192.289 218.111 192.45 217.969 192.583C217.83 192.717 217.662 192.784 217.466 192.784ZM222.461 200.556C221.848 200.556 221.319 200.411 220.876 200.122C220.433 199.832 220.092 199.433 219.853 198.924C219.615 198.416 219.495 197.835 219.495 197.181C219.495 196.517 219.618 195.93 219.862 195.421C220.109 194.91 220.453 194.511 220.893 194.224C221.336 193.934 221.853 193.789 222.444 193.789C222.905 193.789 223.319 193.874 223.689 194.045C224.058 194.215 224.361 194.454 224.596 194.761C224.832 195.068 224.978 195.426 225.035 195.835H224.03C223.953 195.536 223.782 195.272 223.518 195.042C223.257 194.809 222.905 194.693 222.461 194.693C222.069 194.693 221.726 194.795 221.43 194.999C221.138 195.201 220.909 195.487 220.744 195.856C220.582 196.222 220.501 196.653 220.501 197.147C220.501 197.653 220.581 198.093 220.74 198.468C220.902 198.843 221.129 199.134 221.422 199.342C221.717 199.549 222.064 199.653 222.461 199.653C222.723 199.653 222.96 199.607 223.173 199.517C223.386 199.426 223.566 199.295 223.714 199.124C223.862 198.954 223.967 198.749 224.03 198.511H225.035C224.978 198.897 224.838 199.245 224.613 199.555C224.392 199.862 224.098 200.106 223.731 200.288C223.368 200.467 222.944 200.556 222.461 200.556ZM230.136 200.42L234.04 192.698V192.63H229.54V191.693H235.13V192.681L231.244 200.42H230.136ZM235.969 200.488C235.759 200.488 235.578 200.413 235.428 200.262C235.277 200.112 235.202 199.931 235.202 199.721C235.202 199.511 235.277 199.33 235.428 199.18C235.578 199.029 235.759 198.954 235.969 198.954C236.179 198.954 236.359 199.029 236.51 199.18C236.661 199.33 236.736 199.511 236.736 199.721C236.736 199.86 236.7 199.988 236.629 200.105C236.561 200.221 236.469 200.315 236.352 200.386C236.239 200.454 236.111 200.488 235.969 200.488ZM241.065 200.539C240.423 200.539 239.877 200.365 239.425 200.015C238.973 199.663 238.628 199.153 238.389 198.485C238.151 197.815 238.031 197.005 238.031 196.056C238.031 195.113 238.151 194.308 238.389 193.64C238.631 192.97 238.977 192.458 239.429 192.106C239.884 191.751 240.429 191.573 241.065 191.573C241.702 191.573 242.246 191.751 242.698 192.106C243.152 192.458 243.499 192.97 243.737 193.64C243.979 194.308 244.1 195.113 244.1 196.056C244.1 197.005 243.98 197.815 243.742 198.485C243.503 199.153 243.158 199.663 242.706 200.015C242.254 200.365 241.707 200.539 241.065 200.539ZM241.065 199.602C241.702 199.602 242.196 199.295 242.548 198.681C242.901 198.068 243.077 197.193 243.077 196.056C243.077 195.301 242.996 194.657 242.834 194.126C242.675 193.595 242.445 193.19 242.144 192.911C241.845 192.633 241.486 192.494 241.065 192.494C240.435 192.494 239.942 192.805 239.587 193.427C239.232 194.046 239.054 194.923 239.054 196.056C239.054 196.812 239.134 197.454 239.293 197.982C239.452 198.511 239.68 198.913 239.979 199.188C240.28 199.464 240.642 199.602 241.065 199.602ZM250.168 198.784V198.323C250.168 198.005 250.233 197.714 250.364 197.45C250.497 197.183 250.69 196.97 250.943 196.811C251.199 196.649 251.509 196.568 251.872 196.568C252.242 196.568 252.551 196.649 252.801 196.811C253.051 196.97 253.24 197.183 253.368 197.45C253.496 197.714 253.56 198.005 253.56 198.323V198.784C253.56 199.102 253.494 199.394 253.364 199.661C253.236 199.926 253.046 200.139 252.793 200.301C252.543 200.46 252.236 200.539 251.872 200.539C251.503 200.539 251.192 200.46 250.939 200.301C250.686 200.139 250.494 199.926 250.364 199.661C250.233 199.394 250.168 199.102 250.168 198.784ZM251.037 198.323V198.784C251.037 199.048 251.1 199.285 251.225 199.495C251.35 199.703 251.565 199.806 251.872 199.806C252.171 199.806 252.381 199.703 252.503 199.495C252.628 199.285 252.69 199.048 252.69 198.784V198.323C252.69 198.059 252.631 197.823 252.511 197.616C252.392 197.406 252.179 197.301 251.872 197.301C251.574 197.301 251.359 197.406 251.229 197.616C251.101 197.823 251.037 198.059 251.037 198.323ZM245.821 193.789V193.329C245.821 193.011 245.886 192.72 246.017 192.455C246.151 192.188 246.344 191.975 246.597 191.816C246.852 191.654 247.162 191.573 247.526 191.573C247.895 191.573 248.205 191.654 248.455 191.816C248.705 191.975 248.894 192.188 249.021 192.455C249.149 192.72 249.213 193.011 249.213 193.329V193.789C249.213 194.107 249.148 194.4 249.017 194.667C248.889 194.931 248.699 195.144 248.446 195.306C248.196 195.465 247.889 195.545 247.526 195.545C247.156 195.545 246.845 195.465 246.592 195.306C246.34 195.144 246.148 194.931 246.017 194.667C245.886 194.4 245.821 194.107 245.821 193.789ZM246.69 193.329V193.789C246.69 194.053 246.753 194.291 246.878 194.501C247.003 194.708 247.219 194.812 247.526 194.812C247.824 194.812 248.034 194.708 248.156 194.501C248.281 194.291 248.344 194.053 248.344 193.789V193.329C248.344 193.065 248.284 192.829 248.165 192.622C248.046 192.411 247.832 192.306 247.526 192.306C247.227 192.306 247.013 192.411 246.882 192.622C246.754 192.829 246.69 193.065 246.69 193.329ZM246.145 200.42L252.145 191.693H253.117L247.117 200.42H246.145Z" fill="#005178"/>
<path d="M178.355 229.42H177.247L180.452 220.693H181.543L184.747 229.42H183.639L181.031 222.073H180.963L178.355 229.42ZM178.764 226.011H183.23V226.948H178.764V226.011ZM190.607 224.34L189.703 224.596C189.646 224.445 189.563 224.299 189.452 224.157C189.344 224.012 189.196 223.893 189.009 223.799C188.821 223.705 188.581 223.659 188.288 223.659C187.888 223.659 187.554 223.751 187.287 223.936C187.023 224.117 186.891 224.349 186.891 224.63C186.891 224.88 186.982 225.078 187.163 225.222C187.345 225.367 187.629 225.488 188.016 225.585L188.987 225.823C189.573 225.965 190.009 226.183 190.296 226.475C190.582 226.765 190.726 227.139 190.726 227.596C190.726 227.971 190.618 228.306 190.402 228.602C190.189 228.897 189.891 229.13 189.507 229.301C189.124 229.471 188.678 229.556 188.169 229.556C187.502 229.556 186.949 229.411 186.511 229.122C186.074 228.832 185.797 228.409 185.68 227.852L186.635 227.613C186.726 227.965 186.898 228.23 187.151 228.406C187.406 228.582 187.74 228.67 188.152 228.67C188.621 228.67 188.993 228.57 189.269 228.372C189.547 228.17 189.686 227.928 189.686 227.647C189.686 227.42 189.607 227.23 189.448 227.076C189.288 226.92 189.044 226.803 188.715 226.727L187.624 226.471C187.024 226.329 186.584 226.109 186.303 225.811C186.024 225.509 185.885 225.133 185.885 224.681C185.885 224.312 185.989 223.985 186.196 223.701C186.406 223.417 186.692 223.194 187.053 223.032C187.416 222.87 187.828 222.789 188.288 222.789C188.936 222.789 189.445 222.931 189.814 223.215C190.186 223.499 190.45 223.874 190.607 224.34ZM192.24 229.42V222.874H193.245V229.42H192.24ZM192.751 221.784C192.555 221.784 192.386 221.717 192.244 221.583C192.105 221.45 192.035 221.289 192.035 221.102C192.035 220.914 192.105 220.754 192.244 220.62C192.386 220.487 192.555 220.42 192.751 220.42C192.947 220.42 193.115 220.487 193.254 220.62C193.396 220.754 193.467 220.914 193.467 221.102C193.467 221.289 193.396 221.45 193.254 221.583C193.115 221.717 192.947 221.784 192.751 221.784ZM197.014 229.573C196.599 229.573 196.222 229.495 195.884 229.339C195.546 229.18 195.278 228.951 195.079 228.653C194.88 228.352 194.781 227.988 194.781 227.562C194.781 227.187 194.854 226.883 195.002 226.65C195.15 226.414 195.347 226.23 195.595 226.096C195.842 225.963 196.114 225.863 196.413 225.798C196.714 225.73 197.016 225.676 197.32 225.636C197.718 225.585 198.041 225.546 198.288 225.521C198.538 225.492 198.72 225.445 198.833 225.38C198.95 225.315 199.008 225.201 199.008 225.039V225.005C199.008 224.585 198.893 224.258 198.663 224.025C198.435 223.792 198.09 223.676 197.627 223.676C197.147 223.676 196.771 223.781 196.498 223.991C196.225 224.201 196.033 224.426 195.923 224.664L194.968 224.323C195.139 223.926 195.366 223.616 195.65 223.394C195.937 223.17 196.249 223.014 196.587 222.926C196.928 222.835 197.264 222.789 197.593 222.789C197.803 222.789 198.045 222.815 198.318 222.866C198.593 222.914 198.859 223.015 199.114 223.169C199.373 223.322 199.587 223.553 199.758 223.863C199.928 224.173 200.014 224.588 200.014 225.107V229.42H199.008V228.534H198.957C198.889 228.676 198.775 228.828 198.616 228.99C198.457 229.151 198.245 229.289 197.981 229.403C197.717 229.517 197.394 229.573 197.014 229.573ZM197.167 228.67C197.565 228.67 197.9 228.592 198.173 228.436C198.448 228.279 198.656 228.078 198.795 227.83C198.937 227.583 199.008 227.323 199.008 227.051V226.13C198.965 226.181 198.872 226.228 198.727 226.271C198.585 226.311 198.42 226.346 198.232 226.377C198.048 226.406 197.867 226.431 197.691 226.454C197.518 226.474 197.377 226.491 197.269 226.505C197.008 226.539 196.764 226.595 196.536 226.671C196.312 226.745 196.13 226.857 195.991 227.008C195.854 227.156 195.786 227.357 195.786 227.613C195.786 227.963 195.916 228.227 196.174 228.406C196.435 228.582 196.766 228.67 197.167 228.67ZM202.855 225.482V229.42H201.849V222.874H202.821V223.897H202.906C203.059 223.565 203.292 223.298 203.605 223.096C203.917 222.892 204.321 222.789 204.815 222.789C205.258 222.789 205.646 222.88 205.978 223.062C206.311 223.241 206.569 223.514 206.754 223.88C206.939 224.244 207.031 224.704 207.031 225.261V229.42H206.025V225.329C206.025 224.815 205.892 224.414 205.625 224.127C205.358 223.838 204.991 223.693 204.525 223.693C204.204 223.693 203.917 223.762 203.665 223.901C203.415 224.041 203.217 224.244 203.072 224.511C202.927 224.778 202.855 225.102 202.855 225.482ZM212.022 227.63V226.761L215.857 220.693H216.488V222.039H216.062L213.164 226.624V226.693H218.329V227.63H212.022ZM216.13 229.42V227.366V226.961V220.693H217.136V229.42H216.13ZM220.266 229.488C220.055 229.488 219.875 229.413 219.725 229.262C219.574 229.112 219.499 228.931 219.499 228.721C219.499 228.511 219.574 228.33 219.725 228.18C219.875 228.029 220.055 227.954 220.266 227.954C220.476 227.954 220.656 228.029 220.807 228.18C220.957 228.33 221.033 228.511 221.033 228.721C221.033 228.86 220.997 228.988 220.926 229.105C220.858 229.221 220.766 229.315 220.649 229.386C220.536 229.454 220.408 229.488 220.266 229.488ZM225.362 229.539C224.72 229.539 224.173 229.365 223.722 229.015C223.27 228.663 222.925 228.153 222.686 227.485C222.448 226.815 222.328 226.005 222.328 225.056C222.328 224.113 222.448 223.308 222.686 222.64C222.928 221.97 223.274 221.458 223.726 221.106C224.18 220.751 224.726 220.573 225.362 220.573C225.999 220.573 226.543 220.751 226.994 221.106C227.449 221.458 227.796 221.97 228.034 222.64C228.276 223.308 228.396 224.113 228.396 225.056C228.396 226.005 228.277 226.815 228.038 227.485C227.8 228.153 227.455 228.663 227.003 229.015C226.551 229.365 226.004 229.539 225.362 229.539ZM225.362 228.602C225.999 228.602 226.493 228.295 226.845 227.681C227.198 227.068 227.374 226.193 227.374 225.056C227.374 224.301 227.293 223.657 227.131 223.126C226.972 222.595 226.742 222.19 226.44 221.911C226.142 221.633 225.783 221.494 225.362 221.494C224.732 221.494 224.239 221.805 223.884 222.427C223.528 223.046 223.351 223.923 223.351 225.056C223.351 225.812 223.43 226.454 223.59 226.982C223.749 227.511 223.977 227.913 224.276 228.188C224.577 228.464 224.939 228.602 225.362 228.602ZM234.465 227.784V227.323C234.465 227.005 234.53 226.714 234.661 226.45C234.794 226.183 234.987 225.97 235.24 225.811C235.496 225.649 235.805 225.568 236.169 225.568C236.538 225.568 236.848 225.649 237.098 225.811C237.348 225.97 237.537 226.183 237.665 226.45C237.793 226.714 237.857 227.005 237.857 227.323V227.784C237.857 228.102 237.791 228.394 237.661 228.661C237.533 228.926 237.342 229.139 237.09 229.301C236.84 229.46 236.533 229.539 236.169 229.539C235.8 229.539 235.489 229.46 235.236 229.301C234.983 229.139 234.791 228.926 234.661 228.661C234.53 228.394 234.465 228.102 234.465 227.784ZM235.334 227.323V227.784C235.334 228.048 235.396 228.285 235.521 228.495C235.646 228.703 235.862 228.806 236.169 228.806C236.467 228.806 236.678 228.703 236.8 228.495C236.925 228.285 236.987 228.048 236.987 227.784V227.323C236.987 227.059 236.928 226.823 236.808 226.616C236.689 226.406 236.476 226.301 236.169 226.301C235.871 226.301 235.656 226.406 235.526 226.616C235.398 226.823 235.334 227.059 235.334 227.323ZM230.118 222.789V222.329C230.118 222.011 230.183 221.72 230.314 221.455C230.448 221.188 230.641 220.975 230.894 220.816C231.149 220.654 231.459 220.573 231.823 220.573C232.192 220.573 232.502 220.654 232.752 220.816C233.002 220.975 233.19 221.188 233.318 221.455C233.446 221.72 233.51 222.011 233.51 222.329V222.789C233.51 223.107 233.445 223.4 233.314 223.667C233.186 223.931 232.996 224.144 232.743 224.306C232.493 224.465 232.186 224.545 231.823 224.545C231.453 224.545 231.142 224.465 230.889 224.306C230.636 224.144 230.445 223.931 230.314 223.667C230.183 223.4 230.118 223.107 230.118 222.789ZM230.987 222.329V222.789C230.987 223.053 231.05 223.291 231.175 223.501C231.3 223.708 231.516 223.812 231.823 223.812C232.121 223.812 232.331 223.708 232.453 223.501C232.578 223.291 232.641 223.053 232.641 222.789V222.329C232.641 222.065 232.581 221.829 232.462 221.622C232.342 221.411 232.129 221.306 231.823 221.306C231.524 221.306 231.31 221.411 231.179 221.622C231.051 221.829 230.987 222.065 230.987 222.329ZM230.442 229.42L236.442 220.693H237.413L231.413 229.42H230.442Z" fill="#005178"/>
<path d="M528.96 196.75H481.98C473.78 196.75 467.13 203.4 467.13 211.6V226.45H543.81V211.6C543.81 203.4 537.16 196.75 528.96 196.75Z" fill="#7A4D3B"/>
<path d="M505.74 186.19C517.819 186.19 527.61 176.399 527.61 164.32C527.61 152.242 517.819 142.45 505.74 142.45C493.662 142.45 483.87 152.242 483.87 164.32C483.87 176.399 493.662 186.19 505.74 186.19Z" fill="#7A4D3B"/>
<path d="M683.96 186.75H636.98C628.78 186.75 622.13 193.4 622.13 201.6V216.45H698.81V201.6C698.81 193.4 692.16 186.75 683.96 186.75Z" fill="#F9D9A5"/>
<path d="M660.74 176.19C672.819 176.19 682.61 166.399 682.61 154.32C682.61 142.242 672.819 132.45 660.74 132.45C648.662 132.45 638.87 142.242 638.87 154.32C638.87 166.399 648.662 176.19 660.74 176.19Z" fill="#F9D9A5"/>
<path d="M637.37 192.45H583.59C574.2 192.45 566.59 200.96 566.59 211.45V230.45H654.37V211.45C654.37 200.96 646.76 192.45 637.37 192.45Z" fill="white"/>
<path d="M633.96 196.75H586.98C578.78 196.75 572.13 203.4 572.13 211.6V226.45H648.81V211.6C648.81 203.4 642.16 196.75 633.96 196.75Z" fill="#DB8C67"/>
<path d="M610.74 186.19C622.819 186.19 632.61 176.399 632.61 164.32C632.61 152.242 622.819 142.45 610.74 142.45C598.662 142.45 588.87 152.242 588.87 164.32C588.87 176.399 598.662 186.19 610.74 186.19Z" fill="#DB8C67"/>
<path d="M315.13 142.44V128.44H301.13V142.44H315.13Z" fill="#7A4D3B"/>
<path d="M329.13 142.44V128.44H315.13V142.44H329.13Z" fill="#7A4D3B"/>
<path d="M343.13 142.44V128.44H329.13V142.44H343.13Z" fill="#7A4D3B"/>
<path d="M357.13 142.44V128.44H343.13V142.44H357.13Z" fill="#7A4D3B"/>
<path d="M371.13 142.44V128.44H357.13V142.44H371.13Z" fill="#7A4D3B"/>
<path d="M385.13 142.44V128.44H371.13V142.44H385.13Z" fill="#7A4D3B"/>
<path d="M399.13 142.44V128.44H385.13V142.44H399.13Z" fill="#7A4D3B"/>
<path d="M413.13 142.44V128.44H399.13V142.44H413.13Z" fill="#7A4D3B"/>
<path d="M423.13 142.44V128.44H301.13V142.44H423.13Z" fill="#7A4D3B"/>
<path d="M315.13 171.44V157.44H301.13V171.44H315.13Z" fill="#FFCEA6"/>
<path d="M329.13 171.44V157.44H315.13V171.44H329.13Z" fill="#FFCEA6"/>
<path d="M343.13 171.44V157.44H329.13V171.44H343.13Z" fill="#FFCEA6"/>
<path d="M357.13 171.44V157.44H343.13V171.44H357.13Z" fill="#FFCEA6"/>
<path d="M371.13 171.44V157.44H357.13V171.44H371.13Z" fill="#FFCEA6"/>
<path d="M385.13 171.44V157.44H371.13V171.44H385.13Z" fill="#FFCEA6"/>
<path d="M399.13 171.44V157.44H385.13V171.44H399.13Z" fill="#FFCEA6"/>
<path d="M404.13 171.44V157.44H301.13V171.44H404.13Z" fill="#FFCEA6"/>
<path d="M315.13 201.44V187.44H301.13V201.44H315.13Z" fill="#DB8C67"/>
<path d="M329.13 201.44V187.44H315.13V201.44H329.13Z" fill="#DB8C67"/>
<path d="M343.13 201.44V187.44H329.13V201.44H343.13Z" fill="#DB8C67"/>
<path d="M357.13 201.44V187.44H343.13V201.44H357.13Z" fill="#DB8C67"/>
<path d="M371.13 201.44V187.44H357.13V201.44H371.13Z" fill="#DB8C67"/>
<path d="M385.13 201.44V187.44H371.13V201.44H385.13Z" fill="#DB8C67"/>
<path d="M399.13 201.44V187.44H301.13V201.44H399.13Z" fill="#DB8C67"/>
<path d="M315.13 228.44V214.44H301.13V228.44H315.13Z" fill="#F9D9A5"/>
<path d="M329.13 228.44V214.44H315.13V228.44H329.13Z" fill="#F9D9A5"/>
<path d="M343.13 228.44V214.44H329.13V228.44H343.13Z" fill="#F9D9A5"/>
<path d="M357.13 228.44V214.44H301.13V228.44H357.13Z" fill="#F9D9A5"/>
</svg>
