<?xml version="1.0" encoding="UTF-8"?>
<svg id="Layer_1" data-name="Layer 1" xmlns="http://www.w3.org/2000/svg" viewBox="0 0 120 120" width="100%" height="100%">
  <g>
    <circle cx="60" cy="60" r="55.41" style="fill: #fff; stroke: #005178; stroke-miterlimit: 10; stroke-width: 6px;"/>
    <circle cx="60" cy="60" r="48.69" style="fill: #5a97cb; stroke-width: 0px;"/>
    <circle cx="60" cy="60" r="55.41" style="fill: #fff; stroke: #005178; stroke-miterlimit: 10; stroke-width: 6px;"/>
    <circle cx="60" cy="60" r="48.69" style="fill: #5a97cb; stroke-width: 0px;"/>
  </g>
  <path d="m35.14,61.34v-26.26c0-2.09,1.69-3.78,3.78-3.78h10.25c2.09,0,3.78,1.69,3.78,3.78v2.63" style="fill: none; stroke: #fff; stroke-linecap: round; stroke-linejoin: round; stroke-width: 2px;"/>
  <path d="m57.95,43.41v-2.28c0-1.34-1.09-2.43-2.43-2.43h-5.21c-1.34,0-2.43,1.09-2.43,2.43v2.28h10.07Z" style="fill: none; stroke: #fff; stroke-linecap: round; stroke-linejoin: round; stroke-width: 2px;"/>
  <rect x="29.23" y="61.7" width="68.34" height="5.27" rx="2.64" ry="2.64" style="fill: none; stroke: #fff; stroke-linecap: round; stroke-linejoin: round; stroke-width: 2px;"/>
  <path d="m95.19,66.97v8.19c0,4.36-3.43,7.94-7.73,8.18-.15.01-.31.01-.46.01h-46.93c-.24,0-.47-.01-.7-.03-4.19-.36-7.5-3.89-7.5-8.16v-8.19h63.32Z" style="fill: none; stroke: #fff; stroke-linecap: round; stroke-linejoin: round; stroke-width: 2px;"/>
  <path d="m44.7,83.95v1.97c0,1.49-1.22,2.7-2.7,2.7s-2.71-1.21-2.71-2.7v-1.97c0-.22.03-.43.08-.63.23.02.46.03.7.03h4.57c.04.19.06.39.06.6Z" style="fill: none; stroke: #fff; stroke-linecap: round; stroke-linejoin: round; stroke-width: 2px;"/>
  <path d="m87.53,83.95v1.97c0,1.49-1.22,2.7-2.71,2.7s-2.7-1.21-2.7-2.7v-1.97c0-.21.02-.41.06-.6h4.82c.15,0,.31,0,.46-.01.05.2.07.4.07.61Z" style="fill: none; stroke: #fff; stroke-linecap: round; stroke-linejoin: round; stroke-width: 2px;"/>
  <line x1="49.56" y1="47.31" x2="49.56" y2="59.09" style="fill: none; stroke: #fff; stroke-dasharray: 0 0 1 4; stroke-linecap: round; stroke-linejoin: round; stroke-width: 2px;"/>
  <line x1="52.95" y1="46.32" x2="52.95" y2="61.34" style="fill: none; stroke: #fff; stroke-dasharray: 0 0 2 5; stroke-linecap: round; stroke-linejoin: round; stroke-width: 2px;"/>
  <line x1="56.34" y1="47.31" x2="56.34" y2="59.09" style="fill: none; stroke: #fff; stroke-dasharray: 0 0 1 4; stroke-linecap: round; stroke-linejoin: round; stroke-width: 2px;"/>
</svg>