<?xml version="1.0" encoding="UTF-8"?>
<svg id="Layer_1" data-name="Layer 1" xmlns="http://www.w3.org/2000/svg" viewBox="0 0 120 120" width="100%" height="100%">
  <circle cx="60" cy="60" r="55.41" style="fill: #fff; stroke: #005178; stroke-miterlimit: 10; stroke-width: 6px;"/>
  <circle cx="60" cy="60" r="48.69" style="fill: #5a97cb; stroke-width: 0px;"/>
  <g>
    <circle cx="85.54" cy="59.75" r="5.53" style="fill: #fff; stroke-width: 0px;"/>
    <path d="m78.06,59.75h0c0-3.74-1.44-11.81-8.75-11.81l-17.68.94c-1.19.09-2.04,1.19-1.95,2.38.08.76.6,1.45,1.19,1.7l-23.12.76c-1.53,0-2.81,1.27-2.81,2.8s1.27,2.8,2.81,2.8l19.46.34h0l-19.46.51c-1.53,0-2.81,1.27-2.81,2.8s1.27,2.8,2.81,2.8l23.12.77c-.68.34-1.1.93-1.19,1.7-.08,1.19.77,2.21,1.95,2.38l17.68.93c7.23.09,8.76-7.99,8.76-11.81Z" style="fill: #fff; stroke-width: 0px;"/>
    <path d="m71.52,43.26c3.49-.09,6.97,1.44,9.26,4" style="fill: #fff; stroke-width: 0px;"/>
    <path d="m76.11,40.71c2.63-.09,5.27,1.11,7.06,3.06" style="fill: #fff; stroke-width: 0px;"/>
    <path d="m46.1,48.1c2.21-1.96,5.27-2.98,8.16-2.64" style="fill: #fff; stroke-width: 0px;"/>
    <path d="m47.55,44.02c1.62-1.53,4-2.29,6.2-2.04" style="fill: #fff; stroke-width: 0px;"/>
    <path d="m54.43,74.79c-2.8.85-6.03.42-8.59-1.1" style="fill: #fff; stroke-width: 0px;"/>
    <path d="m51.37,77.85c-2.12.68-4.59.34-6.46-.85" style="fill: #fff; stroke-width: 0px;"/>
    <path d="m74.41,76.75c3.48.08,6.97-1.45,9.27-4" style="fill: #fff; stroke-width: 0px;"/>
    <path d="m79,79.3c2.63.08,5.27-1.1,7.06-3.06" style="fill: #fff; stroke-width: 0px;"/>
  </g>
</svg>