<?xml version="1.0" encoding="UTF-8"?>
<svg id="Layer_1" data-name="Layer 1" xmlns="http://www.w3.org/2000/svg" viewBox="0 0 120 120" width="100%" height="100%">
  <circle cx="60" cy="60" r="55.41" style="fill: #fff; stroke: #005178; stroke-miterlimit: 10; stroke-width: 6px;"/>
  <circle cx="60" cy="60" r="48.69" style="fill: #5a97cb; stroke-width: 0px;"/>
  <g>
    <path d="m31.72,49.78c-.25,0-.47-.16-.54-.41l-4.3-15.91c-.08-.3.1-.6.39-.68.29-.08.6.1.68.39l4.3,15.91c.08.3-.1.6-.39.68-.05.01-.1.02-.14.02Z" style="fill: #fff; stroke-width: 0px;"/>
    <path d="m27.42,33.87c-.25,0-.48-.17-.54-.42-.18-.72-.06-1.47.32-2.1.39-.63,1-1.08,1.72-1.26.3-.07.6.11.67.41.07.3-.11.6-.41.67-.89.22-1.44,1.12-1.23,2.02.07.3-.11.6-.41.67-.04.01-.09.02-.13.02Z" style="fill: #fff; stroke-width: 0px;"/>
    <path d="m51.65,37.6c-.24,0-.46-.16-.53-.4l-2.61-9.01c-.08-.3.08-.6.38-.69.3-.09.6.08.69.38l2.61,9.01c.08.3-.08.6-.38.69-.05.02-.1.02-.16.02Z" style="fill: #fff; stroke-width: 0px;"/>
    <path d="m49.04,28.6c-.25,0-.48-.17-.54-.42-.11-.43-.37-.8-.75-1.03-.38-.23-.83-.3-1.26-.2-.29.08-.6-.11-.67-.41-.07-.3.11-.6.41-.67.72-.18,1.47-.06,2.1.32.63.39,1.08,1,1.26,1.72.07.3-.11.6-.41.67-.04.01-.09.02-.13.02Z" style="fill: #fff; stroke-width: 0px;"/>
    <path d="m29.06,31.18c-.25,0-.48-.17-.54-.42-.07-.3.11-.6.41-.67l17.29-4.22c.3-.07.6.11.67.41s-.11.6-.41.67l-17.29,4.22s-.09.02-.13.02Z" style="fill: #fff; stroke-width: 0px;"/>
    <path d="m31.24,52.51c-.19,0-.37-.09-.47-.27-.16-.26-.08-.6.19-.76l21.93-13.36c.26-.16.6-.08.76.19.16.26.08.6-.19.76l-21.93,13.36c-.09.06-.19.08-.29.08Z" style="fill: #fff; stroke-width: 0px;"/>
    <path d="m40.78,89.09c-.25,0-.47-.17-.54-.42l-9.55-36.59c-.08-.3.1-.6.4-.68.3-.08.6.1.68.4l9.55,36.59c.08.3-.1.6-.4.68-.05.01-.09.02-.14.02Z" style="fill: #fff; stroke-width: 0px;"/>
    <path d="m61.6,73.71c-.25,0-.48-.17-.54-.42l-8.43-34.57c-.07-.3.11-.6.41-.67.3-.07.6.11.67.41l8.43,34.57c.07.3-.11.6-.41.67-.04.01-.09.02-.13.02Z" style="fill: #fff; stroke-width: 0px;"/>
    <path d="m64.07,73.72h-4.45c-.31,0-.56-.25-.56-.56s.25-.56.56-.56h4.45c.31,0,.56.25.56.56s-.25.56-.56.56Z" style="fill: #fff; stroke-width: 0px;"/>
    <path d="m75.19,74.83h-10.01c-.31,0-.56-.25-.56-.56s.25-.56.56-.56h10.01c.31,0,.56.25.56.56s-.25.56-.56.56Z" style="fill: #fff; stroke-width: 0px;"/>
    <path d="m75.19,91.51h-10.01c-.31,0-.56-.25-.56-.56s.25-.56.56-.56h10.01c.31,0,.56.25.56.56s-.25.56-.56.56Z" style="fill: #fff; stroke-width: 0px;"/>
    <path d="m64.07,92.63h-18.99c-.31,0-.56-.25-.56-.56s.25-.56.56-.56h18.99c.31,0,.56.25.56.56s-.25.56-.56.56Z" style="fill: #fff; stroke-width: 0px;"/>
    <path d="m64.07,92.63c-.31,0-.56-.25-.56-.56v-18.91c0-.31.25-.56.56-.56s.56.25.56.56v18.91c0,.31-.25.56-.56.56Z" style="fill: #fff; stroke-width: 0px;"/>
    <path d="m76.31,90.4c-.31,0-.56-.25-.56-.56v-14.46c0-.31.25-.56.56-.56s.56.25.56.56v14.46c0,.31-.25.56-.56.56Z" style="fill: #fff; stroke-width: 0px;"/>
    <path d="m45.08,92.63s-.03,0-.05,0c-2.3-.2-4.27-1.82-4.79-3.96-.07-.3.11-.6.41-.67.3-.07.6.11.67.41.41,1.68,1.97,2.95,3.8,3.11.31.03.53.3.51.6-.02.29-.27.51-.55.51Z" style="fill: #fff; stroke-width: 0px;"/>
    <path d="m45.27,90.41s-.03,0-.05,0c-1.15-.1-2.49-.91-2.82-2.26-.02-.04-.02-.06-.02-.09l-9.11-34.93c-.08-.3.1-.6.4-.68.3-.08.6.1.68.4l9.13,34.99s0,.04.01.07c.28.86,1.12,1.34,1.83,1.4.31.03.53.29.51.6-.02.29-.27.51-.55.51Z" style="fill: #fff; stroke-width: 0px;"/>
    <path d="m30.27,31.45c-.25,0-.48-.17-.54-.42l-.13-.54c-.07-.3.11-.6.41-.67.3-.07.6.11.67.41l.13.54c.07.3-.11.6-.41.67-.04.01-.09.02-.13.02Z" style="fill: #fff; stroke-width: 0px;"/>
    <path d="m32.43,30.93c-.25,0-.48-.17-.54-.42l-.13-.54c-.07-.3.11-.6.41-.67.3-.07.6.11.67.41l.13.54c.07.3-.11.6-.41.67-.04.01-.09.02-.13.02Z" style="fill: #fff; stroke-width: 0px;"/>
    <path d="m34.59,30.4c-.25,0-.48-.17-.54-.42l-.13-.54c-.07-.3.11-.6.41-.67.3-.07.6.11.67.41l.13.54c.07.3-.11.6-.41.67-.04.01-.09.02-.13.02Z" style="fill: #fff; stroke-width: 0px;"/>
    <path d="m36.75,29.87c-.25,0-.48-.17-.54-.42l-.13-.54c-.07-.3.11-.6.41-.67.3-.07.6.11.67.41l.13.54c.07.3-.11.6-.41.67-.04.01-.09.02-.13.02Z" style="fill: #fff; stroke-width: 0px;"/>
    <path d="m38.92,29.35c-.25,0-.48-.17-.54-.43l-.13-.54c-.07-.3.11-.6.41-.67.3-.07.6.11.67.41l.13.54c.07.3-.11.6-.41.67-.04,0-.09.02-.13.02Z" style="fill: #fff; stroke-width: 0px;"/>
    <path d="m41.08,28.82c-.25,0-.48-.17-.54-.42l-.13-.54c-.07-.3.11-.6.41-.67.3-.07.6.11.67.41l.13.54c.07.3-.11.6-.41.67-.04.01-.09.02-.13.02Z" style="fill: #fff; stroke-width: 0px;"/>
    <path d="m43.24,28.29c-.25,0-.48-.17-.54-.42l-.13-.54c-.07-.3.11-.6.41-.67.3-.07.6.11.67.41l.13.54c.07.3-.11.6-.41.67-.04.01-.09.02-.13.02Z" style="fill: #fff; stroke-width: 0px;"/>
    <path d="m45.4,27.77c-.25,0-.48-.17-.54-.42l-.13-.54c-.07-.3.11-.6.41-.67.3-.07.6.11.67.41l.13.54c.07.3-.11.6-.41.67-.04.01-.09.02-.13.02Z" style="fill: #fff; stroke-width: 0px;"/>
    <path d="m97.44,82.62h-13.35c-.31,0-.56-.25-.56-.56s.25-.56.56-.56h13.35c.31,0,.56.25.56.56s-.25.56-.56.56Z" style="fill: #fff; stroke-width: 0px;"/>
    <path d="m88.54,78.17h-10.01c-.31,0-.56-.25-.56-.56s.25-.56.56-.56h10.01c.31,0,.56.25.56.56s-.25.56-.56.56Z" style="fill: #fff; stroke-width: 0px;"/>
    <path d="m86.32,88.18h-7.79c-.31,0-.56-.25-.56-.56s.25-.56.56-.56h7.79c.31,0,.56.25.56.56s-.25.56-.56.56Z" style="fill: #fff; stroke-width: 0px;"/>
    <path d="m80.76,82.62h-2.22c-.31,0-.56-.25-.56-.56s.25-.56.56-.56h2.22c.31,0,.56.25.56.56s-.25.56-.56.56Z" style="fill: #fff; stroke-width: 0px;"/>
    <path d="m92.99,78.17h-2.22c-.31,0-.56-.25-.56-.56s.25-.56.56-.56h2.22c.31,0,.56.25.56.56s-.25.56-.56.56Z" style="fill: #fff; stroke-width: 0px;"/>
    <path d="m89.66,88.18h-1.11c-.31,0-.56-.25-.56-.56s.25-.56.56-.56h1.11c.31,0,.56.25.56.56s-.25.56-.56.56Z" style="fill: #fff; stroke-width: 0px;"/>
    <path d="m74.08,89.29c-.31,0-.56-.25-.56-.56v-12.24c0-.31.25-.56.56-.56s.56.25.56.56v12.24c0,.31-.25.56-.56.56Z" style="fill: #fff; stroke-width: 0px;"/>
    <path d="m76.31,75.94c-.31,0-.56-.25-.56-.56s-.25-.56-.56-.56-.56-.25-.56-.56.25-.56.56-.56c.92,0,1.67.75,1.67,1.67,0,.31-.25.56-.56.56Z" style="fill: #fff; stroke-width: 0px;"/>
    <path d="m75.19,91.51c-.31,0-.56-.25-.56-.56s.25-.56.56-.56.56-.25.56-.56.25-.56.56-.56.56.25.56.56c0,.92-.75,1.67-1.67,1.67Z" style="fill: #fff; stroke-width: 0px;"/>
  </g>
</svg>