<?xml version="1.0" encoding="UTF-8"?>
<svg id="Layer_1" data-name="Layer 1" xmlns="http://www.w3.org/2000/svg" viewBox="0 0 120 120" width="100%" height="100%">
  <g>
    <circle cx="60" cy="60" r="55.41" style="fill: #fff; stroke: #005178; stroke-miterlimit: 10; stroke-width: 6px;"/>
    <circle cx="60" cy="60" r="48.69" style="fill: #5a97cb; stroke-width: 0px;"/>
  </g>
  <g>
    <path d="m76,57.18c1.04-5.7.5-9.38-1.64-11.24-.97-.79-2.2-1.2-3.45-1.15h-.09c-.68.02-1.36.09-2.03.2-.72.18-1.48.2-2.21.06-1.28-.45-1.2-2.18-.57-5.66.23-1.08.37-2.18.41-3.29,0-1.14-.93-2.07-2.07-2.07" style="fill: none; stroke: #fff; stroke-linecap: round; stroke-miterlimit: 10; stroke-width: .5px;"/>
    <path d="m28.82,61.3v6.67c0,.69.93,1.25,2.07,1.25h37.62v-9.16H30.89c-1.14,0-2.07.56-2.07,1.25Z" style="fill: #fff; stroke-width: 0px;"/>
    <path d="m85.08,60.05h-12.43v9.16h12.43c1.14,0,2.07-.56,2.07-1.25v-6.67c0-.69-.93-1.25-2.07-1.25Z" style="fill: none; stroke: #fff; stroke-miterlimit: 10;"/>
    <path d="m80,54.18c1.04-5.7.5-9.38-1.64-11.24-.97-.79-2.2-1.2-3.45-1.15h-.09c-.68.02-1.36.09-2.03.2-.72.18-1.48.2-2.21.06-1.28-.45-1.2-2.18-.57-5.66.23-1.08.37-2.18.41-3.29,0-1.14-.93-2.07-2.07-2.07" style="fill: none; stroke: #fff; stroke-linecap: round; stroke-miterlimit: 10; stroke-width: .5px;"/>
  </g>
  <path d="m85,57.18c1.04-5.7.5-9.38-1.64-11.24" style="fill: none; stroke: #fff; stroke-linecap: round; stroke-miterlimit: 10; stroke-width: .5px;"/>
</svg>