<?xml version="1.0" encoding="UTF-8"?>
<svg id="Layer_1" data-name="Layer 1" xmlns="http://www.w3.org/2000/svg" viewBox="0 0 120 120" width="100%" height="100%">
  <g>
    <circle cx="60" cy="60" r="55.41" style="fill: #fff; stroke: #005178; stroke-miterlimit: 10; stroke-width: 6px;"/>
    <circle cx="60" cy="60" r="48.69" style="fill: #5a97cb; stroke-width: 0px;"/>
    <circle cx="60" cy="60" r="55.41" style="fill: #fff; stroke: #005178; stroke-miterlimit: 10; stroke-width: 6px;"/>
    <circle cx="60" cy="60" r="48.69" style="fill: #5a97cb; stroke-width: 0px;"/>
  </g>
  <g>
    <path d="m59.86,35.5c-3.17,0-5.77,2.59-5.77,5.77s2.59,5.77,5.77,5.77,5.77-2.59,5.77-5.77c.05-3.17-2.59-5.77-5.77-5.77h0Z" style="fill: #fff; stroke: #fff; stroke-miterlimit: 10; stroke-width: .75px;"/>
    <path d="m65.83,49.48h-11.95c-2.43,0-4.44,2.01-4.44,4.44v10.9c0,2.06,1.43,3.81,3.39,4.34v12.01c0,1.85,1.48,3.33,3.33,3.33h7.46c1.85,0,3.33-1.48,3.33-3.33v-12.01c1.96-.48,3.39-2.22,3.39-4.34v-10.9c-.05-2.43-2.06-4.44-4.5-4.44h0Z" style="fill: #fff; stroke: #fff; stroke-miterlimit: 10; stroke-width: .75px;"/>
  </g>
  <g>
    <path d="m86.32,36.93c2.38,0,4.34,1.96,4.34,4.34s-1.96,4.34-4.34,4.34-4.34-1.96-4.34-4.34,1.96-4.34,4.34-4.34m0-1.43c-3.17,0-5.77,2.59-5.77,5.77s2.59,5.77,5.77,5.77,5.77-2.59,5.77-5.77c.05-3.17-2.59-5.77-5.77-5.77h0Z" style="fill: #fff; stroke: #fff; stroke-miterlimit: 10; stroke-width: .75px;"/>
    <path d="m92.3,50.91c1.64,0,3.02,1.38,3.02,3.02v10.9c0,1.38-.95,2.59-2.27,2.96-.63.16-1.06.74-1.06,1.38v12.01c0,1.06-.85,1.9-1.9,1.9h-7.51c-1.06,0-1.9-.85-1.9-1.9v-12.01c0-.63-.42-1.22-1.06-1.38-1.32-.32-2.27-1.53-2.27-2.96v-10.9c0-1.64,1.38-3.02,3.02-3.02h11.95m0-1.43h-11.95c-2.43,0-4.44,2.01-4.44,4.44v10.9c0,2.06,1.43,3.81,3.39,4.34v12.01c0,1.85,1.48,3.33,3.33,3.33h7.46c1.85,0,3.33-1.48,3.33-3.33v-12.01c1.96-.48,3.39-2.22,3.39-4.34v-10.9c-.05-2.43-2.06-4.44-4.5-4.44h0Z" style="fill: #fff; stroke: #fff; stroke-miterlimit: 10; stroke-width: .75px;"/>
  </g>
  <g>
    <path d="m33.39,36.93c2.38,0,4.34,1.96,4.34,4.34s-1.96,4.34-4.34,4.34-4.34-1.96-4.34-4.34,1.96-4.34,4.34-4.34m0-1.43c-3.17,0-5.77,2.59-5.77,5.77s2.59,5.77,5.77,5.77,5.77-2.59,5.77-5.77c.05-3.17-2.59-5.77-5.77-5.77h0Z" style="fill: #fff; stroke: #fff; stroke-miterlimit: 10; stroke-width: .75px;"/>
    <path d="m39.37,50.91c1.64,0,3.02,1.38,3.02,3.02v10.9c0,1.38-.95,2.59-2.27,2.96-.63.16-1.06.74-1.06,1.38v12.01c0,1.06-.85,1.9-1.9,1.9h-7.51c-1.06,0-1.9-.85-1.9-1.9v-12.01c0-.63-.42-1.22-1.06-1.38-1.32-.32-2.27-1.53-2.27-2.96v-10.9c0-1.64,1.38-3.02,3.02-3.02h11.95m0-1.43h-11.95c-2.43,0-4.44,2.01-4.44,4.44v10.9c0,2.06,1.43,3.81,3.39,4.34v12.01c0,1.85,1.48,3.33,3.33,3.33h7.46c1.85,0,3.33-1.48,3.33-3.33v-12.01c1.96-.48,3.39-2.22,3.39-4.34v-10.9c-.05-2.43-2.06-4.44-4.5-4.44h0Z" style="fill: #fff; stroke: #fff; stroke-miterlimit: 10; stroke-width: .75px;"/>
  </g>
</svg>