<?xml version="1.0" encoding="UTF-8"?>
<svg id="Layer_1" data-name="Layer 1" xmlns="http://www.w3.org/2000/svg" viewBox="0 0 120 120" width="100%" height="100%">
  <g>
    <circle cx="60" cy="60" r="55.41" style="fill: #fff; stroke: #005178; stroke-miterlimit: 10; stroke-width: 6px;"/>
    <circle cx="60" cy="60" r="48.69" style="fill: #5a97cb; stroke-width: 0px;"/>
  </g>
  <g>
    <circle cx="60.13" cy="54.6" r="17.79" style="fill: none; stroke: #fff; stroke-linecap: round; stroke-miterlimit: 10;"/>
    <circle cx="60.13" cy="54.6" r="21.41" style="fill: none; stroke: #fff; stroke-linecap: round; stroke-miterlimit: 10;"/>
    <line x1="60.06" y1="55.01" x2="60.06" y2="41.43" style="fill: none; stroke: #fff; stroke-linecap: round; stroke-miterlimit: 10;"/>
    <line x1="60.06" y1="55.01" x2="66.53" y2="51" style="fill: none; stroke: #fff; stroke-linecap: round; stroke-miterlimit: 10;"/>
    <line x1="42.82" y1="54.43" x2="44.76" y2="54.43" style="fill: none; stroke: #fff; stroke-linecap: round; stroke-miterlimit: 10;"/>
    <line x1="75.4" y1="54.43" x2="77.33" y2="54.43" style="fill: none; stroke: #fff; stroke-linecap: round; stroke-miterlimit: 10;"/>
    <line x1="45.13" y1="63.05" x2="46.81" y2="62.09" style="fill: none; stroke: #fff; stroke-linecap: round; stroke-miterlimit: 10;"/>
    <line x1="73.34" y1="46.77" x2="75.02" y2="45.8" style="fill: none; stroke: #fff; stroke-linecap: round; stroke-miterlimit: 10;"/>
    <line x1="51.45" y1="69.37" x2="52.42" y2="67.7" style="fill: none; stroke: #fff; stroke-linecap: round; stroke-miterlimit: 10;"/>
    <line x1="67.74" y1="41.16" x2="68.7" y2="39.49" style="fill: none; stroke: #fff; stroke-linecap: round; stroke-miterlimit: 10;"/>
    <line x1="60.08" y1="71.68" x2="60.08" y2="69.75" style="fill: none; stroke: #fff; stroke-linecap: round; stroke-miterlimit: 10;"/>
    <line x1="60.08" y1="39.11" x2="60.08" y2="37.18" style="fill: none; stroke: #fff; stroke-linecap: round; stroke-miterlimit: 10;"/>
    <line x1="68.7" y1="69.37" x2="67.74" y2="67.7" style="fill: none; stroke: #fff; stroke-linecap: round; stroke-miterlimit: 10;"/>
    <line x1="52.42" y1="41.16" x2="51.45" y2="39.49" style="fill: none; stroke: #fff; stroke-linecap: round; stroke-miterlimit: 10;"/>
    <line x1="75.02" y1="63.05" x2="73.34" y2="62.09" style="fill: none; stroke: #fff; stroke-linecap: round; stroke-miterlimit: 10;"/>
    <line x1="46.81" y1="46.77" x2="45.13" y2="45.8" style="fill: none; stroke: #fff; stroke-linecap: round; stroke-miterlimit: 10;"/>
  </g>
  <g>
    <g>
      <path d="m32.27,67.13c0,.52-.62.99-1.62,1.32-.89.29-2.09.47-3.41.47s-2.52-.18-3.41-.47c-1-.33-1.62-.8-1.62-1.32,0-.99,2.25-1.8,5.03-1.8s5.03.81,5.03,1.8Z" style="fill: none; stroke: #fff; stroke-linecap: round; stroke-miterlimit: 10;"/>
      <path d="m32.27,67.13v2.63c0,.52-.63.99-1.63,1.32-.89.29-2.09.47-3.4.47s-2.51-.18-3.4-.47c-1-.33-1.63-.8-1.63-1.32v-2.63c0,.52.62.99,1.62,1.32.89.29,2.09.47,3.41.47s2.52-.18,3.41-.47c1-.33,1.62-.8,1.62-1.32Z" style="fill: none; stroke: #fff; stroke-linecap: round; stroke-miterlimit: 10;"/>
      <path d="m32.27,72.4v2.63c0,.52-.62.99-1.61,1.32h-.01c-.89.29-2.09.47-3.41.47s-2.52-.18-3.41-.47h0c-.99-.33-1.61-.8-1.61-1.32v-2.63c0,.52.62.99,1.61,1.32h0c.89.29,2.09.47,3.41.47s2.52-.18,3.41-.47h.01c.99-.33,1.61-.8,1.61-1.32Z" style="fill: none; stroke: #fff; stroke-miterlimit: 10;"/>
      <line x1="32.27" y1="67.13" x2="32.27" y2="67.07" style="fill: none; stroke: #fff; stroke-miterlimit: 10;"/>
      <path d="m32.27,69.76v2.64c0,.52-.62.99-1.61,1.32h-.01c-.89.29-2.09.47-3.41.47s-2.52-.18-3.41-.47h0c-.99-.33-1.61-.8-1.61-1.32v-2.64c0,.52.63.99,1.63,1.32.89.29,2.09.47,3.4.47s2.51-.18,3.4-.47c1-.33,1.63-.8,1.63-1.32Z" style="fill: none; stroke: #fff; stroke-miterlimit: 10;"/>
      <path d="m32.27,75.03v2.63c0,.99-2.25,1.8-5.03,1.8s-5.03-.81-5.03-1.8v-2.63c0,.52.62.99,1.61,1.32h0c.89.29,2.09.47,3.41.47s2.52-.18,3.41-.47h.01c.99-.33,1.61-.8,1.61-1.32Z" style="fill: none; stroke: #fff; stroke-miterlimit: 10;"/>
    </g>
    <g>
      <path d="m42.39,72.37c0,.52-.62.99-1.62,1.32-.89.29-2.09.47-3.41.47s-2.52-.18-3.41-.47c-1-.33-1.62-.8-1.62-1.32,0-.99,2.25-1.8,5.03-1.8s5.03.81,5.03,1.8Z" style="fill: none; stroke: #fff; stroke-linecap: round; stroke-miterlimit: 10;"/>
      <path d="m42.39,72.37v2.63c0,.52-.63.99-1.63,1.32-.89.29-2.09.47-3.4.47s-2.51-.18-3.4-.47c-1-.33-1.63-.8-1.63-1.32v-2.63c0,.52.62.99,1.62,1.32.89.29,2.09.47,3.41.47s2.52-.18,3.41-.47c1-.33,1.62-.8,1.62-1.32Z" style="fill: none; stroke: #fff; stroke-linecap: round; stroke-miterlimit: 10;"/>
      <line x1="42.39" y1="72.37" x2="42.39" y2="72.31" style="fill: none; stroke: #fff; stroke-miterlimit: 10;"/>
      <path d="m42.39,75v2.64c0,.52-.62.99-1.61,1.32h-.01c-.89.29-2.09.47-3.41.47s-2.52-.18-3.41-.47h0c-.99-.33-1.61-.8-1.61-1.32v-2.64c0,.52.63.99,1.63,1.32.89.29,2.09.47,3.4.47s2.51-.18,3.4-.47c1-.33,1.63-.8,1.63-1.32Z" style="fill: none; stroke: #fff; stroke-miterlimit: 10;"/>
    </g>
    <g>
      <path d="m37.3,61.31c0,.52-.62.99-1.62,1.32-.89.29-2.09.47-3.41.47s-2.52-.18-3.41-.47c-1-.33-1.62-.8-1.62-1.32,0-.99,2.25-1.8,5.03-1.8s5.03.81,5.03,1.8Z" style="fill: none; stroke: #fff; stroke-linecap: round; stroke-miterlimit: 10;"/>
      <path d="m37.3,61.31v2.63c0,.52-.63.99-1.63,1.32-.89.29-2.09.47-3.4.47-.62,0-1.21-.04-1.76-.12h-.01c-.49-.06-.95-.15-1.35-.27-.1-.02-.19-.05-.28-.08-1-.33-1.63-.8-1.63-1.32v-2.63c0,.52.62.99,1.62,1.32.89.29,2.09.47,3.41.47s2.52-.18,3.41-.47c1-.33,1.62-.8,1.62-1.32Z" style="fill: none; stroke: #fff; stroke-linecap: round; stroke-miterlimit: 10;"/>
      <path d="m37.3,66.58v2.63c0,.52-.62.99-1.61,1.32h-.01c-.89.29-2.09.47-3.41.47v-2.63c1.32,0,2.52-.18,3.41-.47h.01c.99-.33,1.61-.8,1.61-1.32Z" style="fill: none; stroke: #fff; stroke-miterlimit: 10;"/>
      <line x1="37.3" y1="61.31" x2="37.3" y2="61.25" style="fill: none; stroke: #fff; stroke-miterlimit: 10;"/>
      <path d="m29.15,65.34c-.14-.01-.29-.02-.44-.02-.53,0-1.02-.45-1.47-.32v-1.06c0,.52.63.99,1.63,1.32.09.03.18.06.28.08Z" style="fill: none; stroke: #fff; stroke-miterlimit: 10;"/>
      <path d="m37.3,63.94v2.64c0,.52-.62.99-1.61,1.32h-.01c-.89.29-2.09.47-3.41.47v-1.31c0-.17-.11-.37-.11-.37-.37-.62-.78-.77-1.65-1.08.55.08,1.14.12,1.76.12,1.31,0,2.51-.18,3.4-.47,1-.33,1.63-.8,1.63-1.32Z" style="fill: none; stroke: #fff; stroke-miterlimit: 10;"/>
      <path d="m32.27,73.64v-2.64c1.32,0,2.52-.18,3.41-.47h.01c.99-.33,1.61-.8,1.61-1.32v1.28" style="fill: none; stroke: #fff; stroke-miterlimit: 10;"/>
    </g>
  </g>
  <g>
    <g>
      <path d="m87.99,67.13c0,.52.62.99,1.62,1.32.89.29,2.09.47,3.41.47s2.52-.18,3.41-.47c1-.33,1.62-.8,1.62-1.32,0-.99-2.25-1.8-5.03-1.8-2.78,0-5.03.81-5.03,1.8Z" style="fill: none; stroke: #fff; stroke-linecap: round; stroke-miterlimit: 10;"/>
      <path d="m87.99,67.13v2.63c0,.52.63.99,1.63,1.32.89.29,2.09.47,3.4.47,1.31,0,2.51-.18,3.4-.47,1-.33,1.63-.8,1.63-1.32v-2.63c0,.52-.62.99-1.62,1.32-.89.29-2.09.47-3.41.47s-2.52-.18-3.41-.47c-1-.33-1.62-.8-1.62-1.32Z" style="fill: none; stroke: #fff; stroke-linecap: round; stroke-miterlimit: 10;"/>
      <path d="m87.99,72.4v2.63c0,.52.62.99,1.61,1.32h.01c.89.29,2.09.47,3.41.47s2.52-.18,3.41-.47h0c.99-.33,1.61-.8,1.61-1.32v-2.63c0,.52-.62.99-1.61,1.32h0c-.89.29-2.09.47-3.41.47s-2.52-.18-3.41-.47h-.01c-.99-.33-1.61-.8-1.61-1.32Z" style="fill: none; stroke: #fff; stroke-miterlimit: 10;"/>
      <line x1="87.99" y1="67.07" x2="87.99" y2="67.13" style="fill: none; stroke: #fff; stroke-miterlimit: 10;"/>
      <path d="m87.99,69.76v2.64c0,.52.62.99,1.61,1.32h.01c.89.29,2.09.47,3.41.47s2.52-.18,3.41-.47h0c.99-.33,1.61-.8,1.61-1.32v-2.64c0,.52-.63.99-1.63,1.32-.89.29-2.09.47-3.4.47-1.31,0-2.51-.18-3.4-.47-1-.33-1.63-.8-1.63-1.32Z" style="fill: none; stroke: #fff; stroke-miterlimit: 10;"/>
      <path d="m87.99,75.03v2.63c0,.99,2.25,1.8,5.03,1.8,2.78,0,5.03-.81,5.03-1.8v-2.63c0,.52-.62.99-1.61,1.32h0c-.89.29-2.09.47-3.41.47s-2.52-.18-3.41-.47h-.01c-.99-.33-1.61-.8-1.61-1.32Z" style="fill: none; stroke: #fff; stroke-miterlimit: 10;"/>
    </g>
    <g>
      <path d="m77.87,72.37c0,.52.62.99,1.62,1.32.89.29,2.09.47,3.41.47s2.52-.18,3.41-.47c1-.33,1.62-.8,1.62-1.32,0-.99-2.25-1.8-5.03-1.8-2.78,0-5.03.81-5.03,1.8Z" style="fill: none; stroke: #fff; stroke-linecap: round; stroke-miterlimit: 10;"/>
      <path d="m77.87,72.37v2.63c0,.52.63.99,1.63,1.32.89.29,2.09.47,3.4.47s2.51-.18,3.4-.47c1-.33,1.63-.8,1.63-1.32v-2.63c0,.52-.62.99-1.62,1.32-.89.29-2.09.47-3.41.47s-2.52-.18-3.41-.47c-1-.33-1.62-.8-1.62-1.32Z" style="fill: none; stroke: #fff; stroke-linecap: round; stroke-miterlimit: 10;"/>
      <line x1="77.87" y1="72.31" x2="77.87" y2="72.37" style="fill: none; stroke: #fff; stroke-miterlimit: 10;"/>
      <path d="m77.87,75v2.64c0,.52.62.99,1.61,1.32h.01c.89.29,2.09.47,3.41.47,1.32,0,2.52-.18,3.41-.47h0c.99-.33,1.61-.8,1.61-1.32v-2.64c0,.52-.63.99-1.63,1.32-.89.29-2.09.47-3.4.47s-2.51-.18-3.4-.47c-1-.33-1.63-.8-1.63-1.32Z" style="fill: none; stroke: #fff; stroke-miterlimit: 10;"/>
    </g>
    <g>
      <path d="m82.96,61.31c0,.52.62.99,1.62,1.32.89.29,2.09.47,3.41.47s2.52-.18,3.41-.47c1-.33,1.62-.8,1.62-1.32,0-.99-2.25-1.8-5.03-1.8-2.78,0-5.03.81-5.03,1.8Z" style="fill: none; stroke: #fff; stroke-linecap: round; stroke-miterlimit: 10;"/>
      <path d="m82.96,61.31v2.63c0,.52.63.99,1.63,1.32.89.29,2.09.47,3.4.47.62,0,1.21-.04,1.76-.12h.01c.49-.06.95-.15,1.35-.27.1-.02.19-.05.28-.08,1-.33,1.63-.8,1.63-1.32v-2.63c0,.52-.62.99-1.62,1.32-.89.29-2.09.47-3.41.47s-2.52-.18-3.41-.47c-1-.33-1.62-.8-1.62-1.32Z" style="fill: none; stroke: #fff; stroke-linecap: round; stroke-miterlimit: 10;"/>
      <path d="m82.96,66.58v2.63c0,.52.62.99,1.61,1.32h.01c.89.29,2.09.47,3.41.47v-2.63c-1.32,0-2.52-.18-3.41-.47h-.01c-.99-.33-1.61-.8-1.61-1.32Z" style="fill: none; stroke: #fff; stroke-miterlimit: 10;"/>
      <line x1="82.96" y1="61.25" x2="82.96" y2="61.31" style="fill: none; stroke: #fff; stroke-miterlimit: 10;"/>
      <path d="m91.11,65.34c.14-.01.29-.02.44-.02.53,0,1.02-.45,1.47-.32v-1.06c0,.52-.63.99-1.63,1.32-.09.03-.18.06-.28.08Z" style="fill: none; stroke: #fff; stroke-miterlimit: 10;"/>
      <path d="m82.96,63.94v2.64c0,.52.62.99,1.61,1.32h.01c.89.29,2.09.47,3.41.47v-1.31c0-.17.11-.37.11-.37.37-.62.78-.77,1.65-1.08-.55.08-1.14.12-1.76.12-1.31,0-2.51-.18-3.4-.47-1-.33-1.63-.8-1.63-1.32Z" style="fill: none; stroke: #fff; stroke-miterlimit: 10;"/>
      <path d="m87.99,73.64v-2.64c-1.32,0-2.52-.18-3.41-.47h-.01c-.99-.33-1.61-.8-1.61-1.32v1.28" style="fill: none; stroke: #fff; stroke-miterlimit: 10;"/>
    </g>
  </g>
</svg>