<?xml version="1.0" encoding="UTF-8"?>
<svg id="Layer_1" data-name="Layer 1" xmlns="http://www.w3.org/2000/svg" viewBox="0 0 120 120" width="100%" height="100%">
  <g>
    <circle cx="60" cy="60" r="55.41" style="fill: #fff; stroke: #005178; stroke-miterlimit: 10; stroke-width: 6px;"/>
    <circle cx="60" cy="60" r="55.41" style="fill: #fff; stroke: #005178; stroke-miterlimit: 10; stroke-width: 6px;"/>
    <circle cx="60" cy="60" r="48.69" style="fill: #5a97cb; stroke-width: 0px;"/>
  </g>
  <path d="m79.5,62.8c.2-.28.37-.58.51-.89,1.25-2.95-.58-6.4-1.05-7.21.18-1.02.8-5.64-2.48-7.33-.79-.41-1.63-.69-2.51-.84.81-3.38-.65-5.74-2.42-6.53-.43-.19-.9-.3-1.37-.32-.03-.05-.07-.1-.11-.13-3.26-2.61-6.58-3.61-8.68-2.6-.58.28-1.07.73-1.38,1.3-.31-.57-.79-1.02-1.38-1.3-2.1-1.01-5.43,0-8.68,2.6-.05.04-.08.08-.11.13-.47.02-.94.13-1.37.32-1.77.79-3.24,3.15-2.42,6.53-.87.15-1.72.44-2.51.84-3.28,1.68-2.66,6.31-2.48,7.33-.47.81-2.3,4.26-1.05,7.21.14.31.31.61.51.89-1.34,1.35-1.79,3.35-1.15,5.14.45,1.65,1.53,3.06,3.02,3.92-.38,2.07.21,4.2,1.61,5.77.88,1.12,2.17,1.84,3.58,2.02.87,2.32,3.11,3.85,5.6,3.79.35,0,.71-.02,1.06-.07,3.44-.44,5.08-2.22,5.79-3.75.72,1.54,2.36,3.31,5.79,3.75.35.05.71.07,1.06.07,2.48.05,4.73-1.47,5.6-3.79,1.41-.18,2.7-.9,3.58-2.02,1.4-1.57,1.99-3.7,1.61-5.77,1.48-.86,2.57-2.26,3.02-3.92.63-1.79.18-3.79-1.15-5.14Zm-25.42,19.61c-2.49.52-4.98-.94-5.72-3.38-.06-.23-.29-.38-.52-.36-1.24-.07-2.38-.69-3.13-1.68-1.3-1.46-1.78-3.46-1.3-5.35.07-.26-.09-.53-.35-.59-.02,0-.04,0-.06-.01-.73-.1-2.15-1.46-2.72-3.38-.51-1.42-.17-3.01.86-4.11,1.26,1.12,2.81,1.85,4.47,2.11.26.06.52-.1.59-.36.06-.26-.1-.52-.36-.59-.01,0-.02,0-.04,0-2.58-.53-4.24-1.6-4.91-3.18-1.2-2.82,1.06-6.45,1.08-6.48.07-.11.09-.24.06-.36,0-.05-1.02-4.94,1.94-6.45,2.21-1.13,4.42-1.13,6.06,0,1.54,1.12,2.35,2.99,2.09,4.87-.03.27.16.51.43.54s.51-.16.54-.43c.29-2.24-.67-4.47-2.51-5.79-1.05-.71-2.29-1.06-3.56-1.01-.75-2.9.4-4.9,1.83-5.54,1.63-.73,3.55.18,4.88,2.3.14.23.44.31.67.17.23-.14.31-.44.17-.67,0,0,0-.01-.01-.02-.74-1.33-1.94-2.34-3.39-2.83,2.71-1.99,5.42-2.8,7.02-2.02.9.5,1.41,1.49,1.31,2.51v10.5c-.28-.4-.63-.75-1.04-1.03-.84-.6-1.92-.72-2.88-.33-.25.1-.37.38-.27.63.1.25.38.37.63.27.65-.27,1.4-.18,1.97.24,1.04.81,1.62,2.06,1.58,3.37v17.81c-.35-.49-.78-.93-1.26-1.29-.97-.83-2.26-1.16-3.51-.91-.26.07-.41.34-.35.59s.34.41.59.35c0,0,.01,0,.02,0,.95-.16,1.93.12,2.66.75,1.09.77,1.77,2,1.85,3.33v3.09s-.15,4.04-5.43,4.71Zm25.64-14.75c-.58,1.92-2,3.28-2.72,3.38-.27.03-.45.28-.42.55,0,.02,0,.04.01.06.48,1.89,0,3.89-1.3,5.35-.74,1-1.89,1.61-3.13,1.68-.24-.03-.46.13-.52.36-.75,2.44-3.23,3.9-5.72,3.38-5.28-.68-5.43-4.67-5.43-4.71v-28.19c-.05-.62.19-1.22.63-1.65.7-.49,1.56-.72,2.41-.63.27.03.51-.16.54-.43.03-.27-.16-.51-.43-.54-1.12-.12-2.24.19-3.15.86v-6.79c-.1-1.02.42-2.01,1.32-2.51,1.61-.78,4.32.03,7.03,2.03-1.44.49-2.65,1.49-3.38,2.83-.15.22-.09.53.14.67.22.15.53.09.67-.14,0,0,0-.01.01-.02,1.33-2.12,3.24-3.03,4.88-2.3,1.43.64,2.58,2.64,1.83,5.54-1.26-.06-2.51.3-3.56,1.01-1.84,1.32-2.8,3.54-2.51,5.79.03.27.27.46.54.43.27-.03.46-.27.43-.54-.26-1.89.55-3.76,2.09-4.88,1.64-1.13,3.84-1.13,6.06,0,2.95,1.51,1.95,6.4,1.94,6.45-.03.12,0,.25.06.36.02.04,2.28,3.66,1.08,6.48-.67,1.58-2.32,2.65-4.91,3.18-.27.04-.44.29-.4.56.04.27.29.44.56.4.01,0,.03,0,.04,0,1.66-.26,3.21-.99,4.47-2.11,1.03,1.1,1.37,2.69.86,4.12Zm-6.32-5.39c0,.26-.22.48-.49.48h0c-1.29.06-2.55-.43-3.46-1.35-.6-.7-.95-1.58-.99-2.5-1.55-.24-3.01-.91-4.21-1.94-.21-.17-.25-.47-.08-.68.17-.21.47-.25.68-.08,2.12,1.65,4.03,2.16,5.66,1.5,2.04-.83,3.25-3.39,3.55-5.57.03-.27.26-.46.53-.44.27.03.46.26.44.53,0,.01,0,.02,0,.04-.31,2.27-1.58,5.29-4.15,6.34-.46.18-.95.29-1.44.33.04.68.31,1.32.75,1.83.73.71,1.73,1.08,2.75,1.02.27,0,.48.23.48.5h0Zm-.81,9.01c0,.27-.22.48-.49.48h0c-1.62.02-3.18.6-4.41,1.65-.93.97-1.42,2.28-1.35,3.63,0,.27-.22.49-.49.49s-.49-.22-.49-.49c-.07-1.61.52-3.17,1.64-4.32.66-.64,1.46-1.12,2.33-1.42.17-1.58-.23-3.17-1.13-4.48-1.05-1.22-2.57-1.93-4.17-1.96-.27-.02-.47-.26-.44-.52.03-.26.26-.46.52-.44,1.88.04,3.65.89,4.86,2.34.99,1.39,1.47,3.08,1.36,4.78.59-.13,1.18-.21,1.78-.22.27,0,.48.23.48.49,0,0,0,0,0,0Zm-26.56-17.97c-.05-.26.13-.52.39-.56.26-.05.52.13.56.39,0,.01,0,.03,0,.04.3,2.17,1.51,4.74,3.55,5.57,1.63.66,3.53.16,5.66-1.5.21-.17.51-.14.68.06.17.21.14.51-.06.68,0,0-.01.01-.02.02-1.19,1.02-2.65,1.69-4.2,1.94-.04.92-.39,1.8-.99,2.5-.91.92-2.17,1.41-3.46,1.35h0c-.27,0-.49-.21-.49-.48,0-.27.21-.49.48-.49,1.02.06,2.02-.31,2.75-1.03.44-.51.7-1.15.74-1.83-.5-.03-.98-.14-1.44-.33-2.57-1.04-3.84-4.06-4.15-6.34Zm3.57,19.05c.87.3,1.66.78,2.32,1.42,1.12,1.15,1.72,2.72,1.65,4.32,0,.27-.22.49-.49.49s-.49-.22-.49-.49c.07-1.34-.42-2.66-1.35-3.63-1.23-1.05-2.79-1.63-4.41-1.65h0c-.27,0-.49-.21-.49-.48,0-.27.21-.49.48-.49.6.01,1.2.09,1.79.22-.12-1.7.36-3.39,1.36-4.78,1.21-1.44,2.98-2.29,4.86-2.34.27-.02.5.18.53.45s-.18.5-.45.53c-1.61.03-3.13.74-4.17,1.96-.9,1.31-1.3,2.9-1.13,4.48Z" style="fill: #fff; stroke-width: 0px;"/>
  <circle cx="44.37" cy="49.34" r="12.76" style="fill: #5a97cb; stroke: #fff; stroke-miterlimit: 10;"/>
  <path d="m42.58,55.61c0-1.18.82-1.96,1.8-1.96,1.04,0,1.79.78,1.79,1.96,0,1.1-.68,1.92-1.78,1.92-1.03,0-1.81-.81-1.81-1.92Zm.46-3.54l-.38-10.92h3.43l-.38,10.92h-2.68Z" style="fill: none; stroke: #fff;"/>
</svg>