<?xml version="1.0" encoding="UTF-8"?>
<svg id="Layer_1" data-name="Layer 1" xmlns="http://www.w3.org/2000/svg" viewBox="0 0 120 120" width="100%" height="100%">
  <g>
    <circle cx="60" cy="60" r="55.41" style="fill: #fff; stroke: #005178; stroke-miterlimit: 10; stroke-width: 6px;"/>
    <circle cx="60" cy="60" r="55.41" style="fill: #fff; stroke: #005178; stroke-miterlimit: 10; stroke-width: 6px;"/>
    <circle cx="60" cy="60" r="48.69" style="fill: #5a97cb; stroke-width: 0px;"/>
  </g>
  <g>
    <path d="m35.43,57.39c.92,3.51,2.67,6.9,5.29,9.89,4.74,5.42,7.17,11.86,6.16,19.25" style="fill: none; stroke: #fff; stroke-linecap: round; stroke-miterlimit: 10; stroke-width: 1.5px;"/>
    <path d="m71.35,86.53c0-.94.13-1.9-.02-2.82-.47-2.75.71-3.52,3.32-3.34,3.97.28,7.73-.27,9.37-4.68.43-1.15.52-2.5.48-3.75-.12-3.91-.74-7.84,4.71-9.07,1.47-.33,2.87-2.1,1.01-4.14-.98-1.07-1.71-2.42-2.37-3.74-1.51-3.03-3.41-5.81-3.85-9.39-1.93-15.76-21.12-23.48-35.7-16" style="fill: none; stroke: #fff; stroke-linecap: round; stroke-miterlimit: 10; stroke-width: 1.5px;"/>
  </g>
  <path d="m56.84,41.88c-.24,0-.48.02-.71.06.14-.43.22-.89.22-1.37,0-2.46-2-4.46-4.46-4.46-1.06,0-2.03.37-2.79.99-.66-1.63-2.26-2.78-4.13-2.78-1.97,0-3.64,1.28-4.23,3.06-.8-.78-1.9-1.26-3.11-1.26-2.46,0-4.46,2-4.46,4.46,0,.46.07.9.2,1.32-.09,0-.19-.01-.28-.01-2.46,0-4.46,2-4.46,4.46,0,2.3,1.73,4.2,3.97,4.43,0,0,24.08.03,24.24.03,2.46,0,4.46-2,4.46-4.46s-2-4.46-4.46-4.46Z" style="fill: none; stroke: #fff; stroke-linecap: round; stroke-linejoin: round; stroke-width: 1.5px;"/>
  <g>
    <circle cx="56.61" cy="67.89" r="5.05" style="fill: none; stroke: #fff; stroke-linecap: round; stroke-linejoin: round; stroke-width: 1.5px;"/>
    <polyline points="54.63 68.23 55.72 69.32 58.58 66.45" style="fill: none; stroke: #fff; stroke-linecap: round; stroke-linejoin: round; stroke-width: 1.5px;"/>
  </g>
  <g>
    <circle cx="68.68" cy="59.16" r="5.05" style="fill: none; stroke: #fff; stroke-linecap: round; stroke-linejoin: round; stroke-width: 1.5px;"/>
    <polyline points="66.7 59.51 67.79 60.59 70.65 57.73" style="fill: none; stroke: #fff; stroke-linecap: round; stroke-linejoin: round; stroke-width: 1.5px;"/>
  </g>
  <g>
    <circle cx="71.38" cy="44.33" r="5.05" style="fill: none; stroke: #fff; stroke-linecap: round; stroke-linejoin: round; stroke-width: 1.5px;"/>
    <polyline points="69.41 44.68 70.49 45.76 73.35 42.9" style="fill: none; stroke: #fff; stroke-linecap: round; stroke-linejoin: round; stroke-width: 1.5px;"/>
  </g>
  <line x1="53.2" y1="64.17" x2="43.53" y2="51.42" style="fill: none; stroke: #fff; stroke-linecap: round; stroke-linejoin: round; stroke-width: 1.5px;"/>
  <line x1="58.62" y1="51.07" x2="64.37" y2="55.2" style="fill: none; stroke: #fff; stroke-linecap: round; stroke-linejoin: round; stroke-width: 1.5px;"/>
  <line x1="60.81" y1="44.33" x2="66.33" y2="44.33" style="fill: none; stroke: #fff; stroke-linecap: round; stroke-linejoin: round; stroke-width: 1.5px;"/>
</svg>