<?xml version="1.0" encoding="UTF-8"?>
<svg id="Layer_1" data-name="Layer 1" xmlns="http://www.w3.org/2000/svg" viewBox="0 0 120 120" width="100%" height="100%">
  <g>
    <circle cx="60" cy="60" r="55.41" style="fill: #fff; stroke: #005178; stroke-miterlimit: 10; stroke-width: 6px;"/>
    <circle cx="60" cy="60" r="48.69" style="fill: #5a97cb; stroke-width: 0px;"/>
    <circle cx="60" cy="60" r="55.41" style="fill: #fff; stroke: #005178; stroke-miterlimit: 10; stroke-width: 6px;"/>
    <circle cx="60" cy="60" r="48.69" style="fill: #5a97cb; stroke-width: 0px;"/>
  </g>
  <path d="m55.76,81.26h-1.02c0,.23,0,.44,0,.66-.02.44-.22.66-.65.67-1.11.01-2.22.01-3.33,0-.43,0-.64-.24-.65-.66,0-.21,0-.43,0-.66h-1.33c0,.21,0,.41,0,.61-.01.49-.22.71-.7.72-1.08,0-2.16,0-3.23,0-.48,0-.69-.23-.7-.71,0-.2,0-.39,0-.61h-1.56c-.04.25-.09.51-.13.77-.08.56-.38.78-.93.67-1-.2-2.01-.4-3.01-.6-.51-.1-.7-.38-.61-.89.03-.15.06-.3.09-.46.03-.15.07-.3.1-.48-.47-.22-.93-.44-1.38-.66-.28.37-.51.74-.81,1.05-1.68,1.76-3.72,2.35-6.03,1.63-2.32-.73-3.7-2.39-4.03-4.81-.43-3.17,1.79-6.03,4.96-6.5,3.06-.45,5.99,1.68,6.53,4.74.15.84.12,1.67-.08,2.5-.05.19,0,.28.17.35.3.12.58.26.87.4.19-1.1.53-1.04,1.29-.87.91.21,1.83.37,2.74.55.61.13.75.31.67.92-.01.11-.03.22-.05.36h1.26c0-.21,0-.42,0-.62.01-.49.22-.7.71-.7,1.1,0,2.2,0,3.3,0,.48,0,.7.22.7.7,0,.2,0,.39,0,.64.41,0,.81,0,1.21,0,.05,0,.12-.12.13-.19.02-.2,0-.39.02-.59.03-.33.24-.55.56-.55,1.16,0,2.32-.01,3.48,0,.33,0,.55.24.57.58.01.24,0,.48,0,.76.47,0,.92.01,1.38-.01m-15,1.36c-.06-.29-.2-.57-.14-.79.06-.25.31-.45.5-.7-.71-.15-1.39-.3-2.12-.45.04.1.05.16.09.21.33.43.27.7-.18,1.02-.08.05-.13.15-.21.27.72.16,1.37.3,2.07.46Zm12.3-1.48h-2.06c.11.25.3.49.3.73,0,.24-.2.47-.31.71h2.07c-.11-.24-.29-.47-.29-.7,0-.24.18-.48.29-.74Zm-8.22,0c.59.49.57.97.03,1.44h2.26c-.6-.49-.55-.95,0-1.44h-2.29Z" style="fill: #fff; stroke-width: 0px;"/>
  <path d="m71.62,43.38l-5.77,13.36c-.99,2.51.59,6.23,3.3,9.32l5.53,8,.82,10.16c.19,3.62,4.74,3.42,4.7.15l-.58-10.68c-.14-2.42-1.37-4.5-2.96-6.48l-3.63-4.87,2.64-8,.99,7.18c.76,3.19,4.29,2.68,4.29-.49l-1.24-15.63c-.37-3.71-6.19-4.93-8.08-2.02Z" style="fill: none; stroke: #fff; stroke-linecap: round; stroke-linejoin: round; stroke-width: 2px;"/>
  <circle cx="82.1" cy="35.54" r="4.93" style="fill: none; stroke: #fff; stroke-linecap: round; stroke-linejoin: round; stroke-width: 2px;"/>
  <path d="m66.99,63.05l-8.1,19.12c-1.47,4.1,2.38,6.53,4.86,1.67l6.47-16.24" style="fill: none; stroke: #fff; stroke-linecap: round; stroke-linejoin: round; stroke-width: 2px;"/>
  <path d="m60.72,47.89c-10.24,7.59-16.45-6.13-24.88,0" style="fill: none; stroke: #fff; stroke-linecap: round; stroke-linejoin: round; stroke-width: 2px;"/>
  <path d="m55.62,61.42c-7.08,3.45-9.76-3.55-15.91,0" style="fill: none; stroke: #fff; stroke-linecap: round; stroke-linejoin: round; stroke-width: 2px;"/>
  <path d="m57.65,35.56c-7.08,3.45-9.76-3.55-15.91,0" style="fill: none; stroke: #fff; stroke-linecap: round; stroke-linejoin: round; stroke-width: 2px;"/>
</svg>