<?xml version="1.0" encoding="UTF-8"?>
<svg id="Layer_1" data-name="Layer 1" xmlns="http://www.w3.org/2000/svg" viewBox="0 0 120 120" width="100%" height="100%">
  <g>
    <circle cx="60" cy="60" r="55.41" style="fill: #fff; stroke: #005178; stroke-miterlimit: 10; stroke-width: 6px;"/>
    <circle cx="60" cy="60" r="48.69" style="fill: #5a97cb; stroke-width: 0px;"/>
  </g>
  <g>
    <path d="m40.18,48.24c2.32,0,4.23,1.91,4.23,4.23s-1.91,4.23-4.23,4.23-4.23-1.91-4.23-4.23,1.91-4.23,4.23-4.23m0-1.39c-3.09,0-5.62,2.53-5.62,5.62s2.53,5.62,5.62,5.62,5.62-2.53,5.62-5.62c.05-3.09-2.53-5.62-5.62-5.62h0Z" style="fill: #fff; stroke: #fff; stroke-miterlimit: 10; stroke-width: .5px;"/>
    <path d="m46.01,61.87c1.6,0,2.94,1.34,2.94,2.94v10.62c0,1.34-.93,2.53-2.22,2.89-.62.15-1.03.72-1.03,1.34v11.7c0,1.03-.82,1.86-1.86,1.86h-7.32c-1.03,0-1.86-.82-1.86-1.86v-11.7c0-.62-.41-1.19-1.03-1.34-1.29-.31-2.22-1.5-2.22-2.89v-10.62c0-1.6,1.34-2.94,2.94-2.94h11.65m0-1.39h-11.65c-2.37,0-4.33,1.96-4.33,4.33v10.62c0,2.01,1.39,3.71,3.3,4.23v11.7c0,1.8,1.44,3.25,3.25,3.25h7.27c1.8,0,3.25-1.44,3.25-3.25v-11.7c1.91-.46,3.3-2.17,3.3-4.23v-10.62c-.05-2.37-2.01-4.33-4.38-4.33h0Z" style="fill: #fff; stroke: #fff; stroke-miterlimit: 10; stroke-width: .5px;"/>
  </g>
  <g>
    <path d="m79.77,48.24c2.32,0,4.23,1.91,4.23,4.23s-1.91,4.23-4.23,4.23-4.23-1.91-4.23-4.23,1.91-4.23,4.23-4.23m0-1.39c-3.09,0-5.62,2.53-5.62,5.62s2.53,5.62,5.62,5.62,5.62-2.53,5.62-5.62c.05-3.09-2.53-5.62-5.62-5.62h0Z" style="fill: #fff; stroke: #fff; stroke-miterlimit: 10; stroke-width: .5px;"/>
    <path d="m85.59,61.87c1.6,0,2.94,1.34,2.94,2.94v10.62c0,1.34-.93,2.53-2.22,2.89-.62.15-1.03.72-1.03,1.34v11.7c0,1.03-.82,1.86-1.86,1.86h-7.32c-1.03,0-1.86-.82-1.86-1.86v-11.7c0-.62-.41-1.19-1.03-1.34-1.29-.31-2.22-1.5-2.22-2.89v-10.62c0-1.6,1.34-2.94,2.94-2.94h11.65m0-1.39h-11.65c-2.37,0-4.33,1.96-4.33,4.33v10.62c0,2.01,1.39,3.71,3.3,4.23v11.7c0,1.8,1.44,3.25,3.25,3.25h7.27c1.8,0,3.25-1.44,3.25-3.25v-11.7c1.91-.46,3.3-2.17,3.3-4.23v-10.62c-.05-2.37-2.01-4.33-4.38-4.33h0Z" style="fill: #fff; stroke: #fff; stroke-miterlimit: 10; stroke-width: .5px;"/>
  </g>
  <path d="m67.19,29.73h-3.72v-3.72c0-.48-.39-.86-.86-.86h-2.8c-.48,0-.86.39-.86.86v3.72h-3.72c-.48,0-.86.39-.86.86v2.8c0,.48.39.86.86.86h3.72v3.72c0,.48.39.86.86.86h2.8c.48,0,.86-.39.86-.86v-3.72h3.72c.48,0,.86-.39.86-.86v-2.8c0-.48-.39-.86-.86-.86Z" style="fill: none; stroke: #fff; stroke-linecap: round; stroke-miterlimit: 10;"/>
  <path d="m74.99,21.5h-27.56c-2.4,0-4.36,1.96-4.36,4.36v12.56c0,2.4,1.96,4.36,4.36,4.36h18.7l4.01,5.02,4.01-5.02h.83c2.4,0,4.36-1.96,4.36-4.36v-12.56c0-2.4-1.96-4.36-4.36-4.36Z" style="fill: none; stroke: #fff; stroke-linecap: round; stroke-miterlimit: 10;"/>
  <line x1="75.54" y1="61.67" x2="75.54" y2="72.12" style="fill: none; stroke: #fff; stroke-linecap: round; stroke-miterlimit: 10;"/>
  <line x1="83.27" y1="60.83" x2="83.27" y2="64.48" style="fill: none; stroke: #fff; stroke-linecap: round; stroke-miterlimit: 10;"/>
  <polyline points="80.2 68.23 80.2 65 86.34 65 86.34 68.23" style="fill: none; stroke: #fff; stroke-linecap: round; stroke-linejoin: round;"/>
</svg>