<?xml version="1.0" encoding="UTF-8"?>
<svg id="Layer_1" data-name="Layer 1" xmlns="http://www.w3.org/2000/svg" viewBox="0 0 120 120" width="100%" height="100%">
  <g>
    <circle cx="60" cy="60" r="55.41" style="fill: #fff; stroke: #005178; stroke-miterlimit: 10; stroke-width: 6px;"/>
    <circle cx="60" cy="60" r="48.69" style="fill: #5a97cb; stroke-width: 0px;"/>
  </g>
  <g>
    <g>
      <g>
        <path d="m65.34,37.99h-2.25c1.36.71,2.29,2.13,2.29,3.75,0,2.32-1.91,4.23-4.23,4.23s-4.22-1.91-4.22-4.23c0-1.62.93-3.04,2.28-3.75h-2.23c-.9.99-1.45,2.31-1.45,3.75,0,3.09,2.53,5.62,5.62,5.62s5.62-2.53,5.62-5.62c.03-1.44-.52-2.76-1.43-3.75Z" style="fill: #fff; stroke: #fff; stroke-miterlimit: 10; stroke-width: .5px;"/>
        <path d="m66.98,49.75h-11.65c-2.37,0-4.33,1.96-4.33,4.33v10.62c0,2.01,1.39,3.71,3.3,4.23v11.7c0,1.81,1.44,3.25,3.25,3.25h7.26c1.81,0,3.25-1.44,3.25-3.25v-11.7c1.91-.46,3.3-2.17,3.3-4.23v-10.62c-.05-2.37-2.01-4.33-4.38-4.33Zm2.94,14.95c0,1.34-.93,2.53-2.22,2.89-.62.15-1.03.72-1.03,1.34v11.7c0,1.03-.82,1.86-1.86,1.86h-7.32c-1.03,0-1.85-.83-1.85-1.86v-11.7c0-.62-.42-1.19-1.03-1.34-1.29-.31-2.22-1.5-2.22-2.89v-10.62c0-1.6,1.34-2.94,2.94-2.94h11.65c1.6,0,2.94,1.34,2.94,2.94v10.62Z" style="fill: #fff; stroke: #fff; stroke-miterlimit: 10; stroke-width: .5px;"/>
      </g>
      <line x1="56.92" y1="50.94" x2="56.92" y2="61.39" style="fill: none; stroke: #fff; stroke-linecap: round; stroke-miterlimit: 10;"/>
      <line x1="64.66" y1="50.1" x2="64.66" y2="53.75" style="fill: none; stroke: #fff; stroke-linecap: round; stroke-miterlimit: 10;"/>
      <polyline points="61.59 57.5 61.59 54.27 67.73 54.27 67.73 57.5" style="fill: none; stroke: #fff; stroke-linecap: round; stroke-linejoin: round;"/>
    </g>
    <g>
      <line x1="61.18" y1="36.31" x2="61.18" y2="33.99" style="fill: none; stroke: #fff; stroke-linecap: round; stroke-linejoin: round; stroke-width: .5px;"/>
      <line x1="62.34" y1="35.15" x2="60.02" y2="35.15" style="fill: none; stroke: #fff; stroke-linecap: round; stroke-linejoin: round; stroke-width: .5px;"/>
    </g>
    <polygon points="65.97 33.76 65.97 37.99 56.39 37.99 56.39 33.76 61.18 31.47 65.97 33.76" style="fill: none; stroke: #fff; stroke-linecap: round; stroke-linejoin: round; stroke-width: 1.25px;"/>
  </g>
  <path d="m77.02,39.36c0-.56.18-1.12.54-1.69.36-.57.88-1.04,1.56-1.42s1.49-.56,2.4-.56c.85,0,1.6.16,2.25.47.65.31,1.15.74,1.51,1.28s.53,1.12.53,1.76c0,.5-.1.93-.3,1.31s-.44.7-.72.97c-.28.27-.78.73-1.5,1.38-.2.18-.36.34-.48.48-.12.14-.21.26-.27.38-.06.11-.1.23-.14.34-.03.12-.08.32-.15.6-.11.61-.46.91-1.05.91-.3,0-.56-.1-.77-.3s-.31-.5-.31-.89c0-.49.08-.92.23-1.28.15-.36.35-.68.61-.95.25-.27.59-.6,1.02-.97.38-.33.65-.58.81-.74.17-.17.31-.35.42-.56s.17-.43.17-.67c0-.47-.17-.86-.52-1.19s-.8-.48-1.35-.48c-.64,0-1.12.16-1.42.49-.3.32-.56.8-.77,1.44-.2.66-.58.99-1.13.99-.33,0-.6-.12-.83-.35-.23-.23-.34-.48-.34-.75Zm4.29,10.63c-.36,0-.67-.12-.94-.35-.27-.23-.4-.56-.4-.97,0-.37.13-.68.39-.93s.57-.38.95-.38.68.13.93.38.38.56.38.93c0,.41-.13.73-.4.97s-.57.35-.91.35Z" style="fill: none; stroke: #fff; stroke-miterlimit: 10; stroke-width: .75px;"/>
  <path d="m36.23,39.36c0-.56.18-1.12.54-1.69.36-.57.88-1.04,1.56-1.42s1.49-.56,2.4-.56c.85,0,1.6.16,2.25.47.65.31,1.15.74,1.51,1.28s.53,1.12.53,1.76c0,.5-.1.93-.3,1.31s-.44.7-.72.97c-.28.27-.78.73-1.5,1.38-.2.18-.36.34-.48.48-.12.14-.21.26-.27.38-.06.11-.1.23-.14.34-.03.12-.08.32-.15.6-.11.61-.46.91-1.05.91-.3,0-.56-.1-.77-.3s-.31-.5-.31-.89c0-.49.08-.92.23-1.28.15-.36.35-.68.61-.95.25-.27.59-.6,1.02-.97.38-.33.65-.58.81-.74.17-.17.31-.35.42-.56s.17-.43.17-.67c0-.47-.17-.86-.52-1.19s-.8-.48-1.35-.48c-.64,0-1.12.16-1.42.49-.3.32-.56.8-.77,1.44-.2.66-.58.99-1.13.99-.33,0-.6-.12-.83-.35-.23-.23-.34-.48-.34-.75Zm4.29,10.63c-.36,0-.67-.12-.94-.35-.27-.23-.4-.56-.4-.97,0-.37.13-.68.39-.93s.57-.38.95-.38.68.13.93.38.38.56.38.93c0,.41-.13.73-.4.97s-.57.35-.91.35Z" style="fill: none; stroke: #fff; stroke-miterlimit: 10; stroke-width: .75px;"/>
  <path d="m85.92,60.21c0-.56.18-1.12.54-1.69.36-.57.88-1.04,1.56-1.42s1.49-.56,2.4-.56c.85,0,1.6.16,2.25.47.65.31,1.15.74,1.51,1.28s.53,1.12.53,1.76c0,.5-.1.93-.3,1.31s-.44.7-.72.97c-.28.27-.78.73-1.5,1.38-.2.18-.36.34-.48.48-.12.14-.21.26-.27.38-.06.11-.1.23-.14.34-.03.12-.08.32-.15.6-.11.61-.46.91-1.05.91-.3,0-.56-.1-.77-.3s-.31-.5-.31-.89c0-.49.08-.92.23-1.28.15-.36.35-.68.61-.95.25-.27.59-.6,1.02-.97.38-.33.65-.58.81-.74.17-.17.31-.35.42-.56s.17-.43.17-.67c0-.47-.17-.86-.52-1.19s-.8-.48-1.35-.48c-.64,0-1.12.16-1.42.49-.3.32-.56.8-.77,1.44-.2.66-.58.99-1.13.99-.33,0-.6-.12-.83-.35-.23-.23-.34-.48-.34-.75Zm4.29,10.63c-.36,0-.67-.12-.94-.35-.27-.23-.4-.56-.4-.97,0-.37.13-.68.39-.93s.57-.38.95-.38.68.13.93.38.38.56.38.93c0,.41-.13.73-.4.97s-.57.35-.91.35Z" style="fill: none; stroke: #fff; stroke-miterlimit: 10; stroke-width: .75px;"/>
  <path d="m27.65,60.21c0-.56.18-1.12.54-1.69.36-.57.88-1.04,1.56-1.42s1.49-.56,2.4-.56c.85,0,1.6.16,2.25.47.65.31,1.15.74,1.51,1.28s.53,1.12.53,1.76c0,.5-.1.93-.3,1.31s-.44.7-.72.97c-.28.27-.78.73-1.5,1.38-.2.18-.36.34-.48.48-.12.14-.21.26-.27.38-.06.11-.1.23-.14.34-.03.12-.08.32-.15.6-.11.61-.46.91-1.05.91-.3,0-.56-.1-.77-.3s-.31-.5-.31-.89c0-.49.08-.92.23-1.28.15-.36.35-.68.61-.95.25-.27.59-.6,1.02-.97.38-.33.65-.58.81-.74.17-.17.31-.35.42-.56s.17-.43.17-.67c0-.47-.17-.86-.52-1.19s-.8-.48-1.35-.48c-.64,0-1.12.16-1.42.49-.3.32-.56.8-.77,1.44-.2.66-.58.99-1.13.99-.33,0-.6-.12-.83-.35-.23-.23-.34-.48-.34-.75Zm4.29,10.63c-.36,0-.67-.12-.94-.35-.27-.23-.4-.56-.4-.97,0-.37.13-.68.39-.93s.57-.38.95-.38.68.13.93.38.38.56.38.93c0,.41-.13.73-.4.97s-.57.35-.91.35Z" style="fill: none; stroke: #fff; stroke-miterlimit: 10; stroke-width: .75px;"/>
</svg>