<?xml version="1.0" encoding="UTF-8"?>
<svg id="Layer_1" data-name="Layer 1" xmlns="http://www.w3.org/2000/svg" viewBox="0 0 120 120" width="100%" height="100%">
  <g>
    <circle cx="60" cy="60" r="55.41" style="fill: #fff; stroke: #005178; stroke-miterlimit: 10; stroke-width: 6px;"/>
    <circle cx="60" cy="60" r="55.41" style="fill: #fff; stroke: #005178; stroke-miterlimit: 10; stroke-width: 6px;"/>
    <circle cx="60" cy="60" r="48.69" style="fill: #5a97cb; stroke-width: 0px;"/>
  </g>
  <g>
    <path d="m59.71,24.72c1.77,0,3.38-1.64,3.39-3.44,0-1.8-1.61-3.44-3.39-3.44s-3.39,1.64-3.39,3.44c0,1.8,1.61,3.44,3.39,3.44Z" style="fill: #fff; stroke-width: 0px;"/>
    <path d="m60.76,41.6c1.17,0,2.2-.78,2.43-1.92l2.05-10.57c.03-.15.04-.31.04-.46,0-1.4-1.12-2.54-2.5-2.54h-6.1c-1.38,0-2.5,1.14-2.5,2.54,0,.16.01.31.04.46l2.05,10.57c.22,1.13,1.26,1.92,2.43,1.92" style="fill: #fff; stroke-width: 0px;"/>
  </g>
  <g>
    <path d="m33.76,71.32c1.77,0,3.38-1.64,3.39-3.44,0-1.8-1.61-3.44-3.39-3.44s-3.39,1.64-3.39,3.44c0,1.8,1.61,3.44,3.39,3.44Z" style="fill: #fff; stroke-width: 0px;"/>
    <path d="m34.8,88.21c1.17,0,2.2-.78,2.43-1.92l2.05-10.57c.03-.15.04-.31.04-.46,0-1.4-1.12-2.54-2.5-2.54h-6.1c-1.38,0-2.5,1.14-2.5,2.54,0,.16.01.31.04.46l2.05,10.57c.22,1.13,1.26,1.92,2.43,1.92" style="fill: #fff; stroke-width: 0px;"/>
  </g>
  <g>
    <path d="m85.67,71.32c1.77,0,3.38-1.64,3.39-3.44,0-1.8-1.61-3.44-3.39-3.44s-3.39,1.64-3.39,3.44c0,1.8,1.61,3.44,3.39,3.44Z" style="fill: #fff; stroke-width: 0px;"/>
    <path d="m86.71,88.21c1.17,0,2.2-.78,2.43-1.92l2.05-10.57c.03-.15.04-.31.04-.46,0-1.4-1.12-2.54-2.5-2.54h-6.1c-1.38,0-2.5,1.14-2.5,2.54,0,.16.01.31.04.46l2.05,10.57c.22,1.13,1.26,1.92,2.43,1.92" style="fill: #fff; stroke-width: 0px;"/>
  </g>
  <g>
    <line x1="60" y1="46.42" x2="60" y2="46.42" style="fill: none; stroke: #fff; stroke-linecap: round; stroke-miterlimit: 10; stroke-width: 2px;"/>
    <line x1="60" y1="51.25" x2="60" y2="58.5" style="fill: none; stroke: #fff; stroke-dasharray: 0 0 0 4.84; stroke-linecap: round; stroke-miterlimit: 10; stroke-width: 2px;"/>
    <line x1="60" y1="60.92" x2="60" y2="60.92" style="fill: none; stroke: #fff; stroke-linecap: round; stroke-miterlimit: 10; stroke-width: 2px;"/>
  </g>
  <g>
    <line x1="43.92" y1="70.91" x2="43.92" y2="70.91" style="fill: none; stroke: #fff; stroke-linecap: round; stroke-miterlimit: 10; stroke-width: 2px;"/>
    <line x1="47.94" y1="68.41" x2="57.99" y2="62.17" style="fill: none; stroke: #fff; stroke-dasharray: 0 0 0 4.73; stroke-linecap: round; stroke-miterlimit: 10; stroke-width: 2px;"/>
    <line x1="60" y1="60.92" x2="60" y2="60.92" style="fill: none; stroke: #fff; stroke-linecap: round; stroke-miterlimit: 10; stroke-width: 2px;"/>
  </g>
  <g>
    <line x1="76.2" y1="70.91" x2="76.2" y2="70.91" style="fill: none; stroke: #fff; stroke-linecap: round; stroke-miterlimit: 10; stroke-width: 2px;"/>
    <line x1="72.15" y1="68.41" x2="62.02" y2="62.17" style="fill: none; stroke: #fff; stroke-dasharray: 0 0 0 4.76; stroke-linecap: round; stroke-miterlimit: 10; stroke-width: 2px;"/>
    <line x1="60" y1="60.92" x2="60" y2="60.92" style="fill: none; stroke: #fff; stroke-linecap: round; stroke-miterlimit: 10; stroke-width: 2px;"/>
  </g>
  <g>
    <line x1="38.72" y1="60" x2="38.72" y2="60" style="fill: none; stroke: #fff; stroke-linecap: round; stroke-miterlimit: 10; stroke-width: 2px;"/>
    <line x1="41.51" y1="56.03" x2="51.29" y2="42.11" style="fill: none; stroke: #fff; stroke-dasharray: 0 0 0 4.86; stroke-linecap: round; stroke-miterlimit: 10; stroke-width: 2px;"/>
    <line x1="52.69" y1="40.12" x2="52.69" y2="40.12" style="fill: none; stroke: #fff; stroke-linecap: round; stroke-miterlimit: 10; stroke-width: 2px;"/>
  </g>
  <g>
    <line x1="82.07" y1="60" x2="82.07" y2="60" style="fill: none; stroke: #fff; stroke-linecap: round; stroke-miterlimit: 10; stroke-width: 2px;"/>
    <line x1="79.27" y1="56.03" x2="69.5" y2="42.11" style="fill: none; stroke: #fff; stroke-dasharray: 0 0 0 4.86; stroke-linecap: round; stroke-miterlimit: 10; stroke-width: 2px;"/>
    <line x1="68.1" y1="40.12" x2="68.1" y2="40.12" style="fill: none; stroke: #fff; stroke-linecap: round; stroke-miterlimit: 10; stroke-width: 2px;"/>
  </g>
  <g>
    <line x1="44.06" y1="78.96" x2="44.06" y2="78.96" style="fill: none; stroke: #fff; stroke-linecap: round; stroke-miterlimit: 10; stroke-width: 2px;"/>
    <line x1="49.38" y1="78.96" x2="73.28" y2="78.96" style="fill: none; stroke: #fff; stroke-dasharray: 0 0 0 5.31; stroke-linecap: round; stroke-miterlimit: 10; stroke-width: 2px;"/>
    <line x1="75.94" y1="78.96" x2="75.94" y2="78.96" style="fill: none; stroke: #fff; stroke-linecap: round; stroke-miterlimit: 10; stroke-width: 2px;"/>
  </g>
</svg>