<?xml version="1.0" encoding="UTF-8"?>
<svg id="Layer_1" data-name="Layer 1" xmlns="http://www.w3.org/2000/svg" viewBox="0 0 120 120" width="100%" height="100%">
  <g>
    <circle cx="60" cy="60" r="55.41" style="fill: #fff; stroke: #005178; stroke-miterlimit: 10; stroke-width: 6px;"/>
    <circle cx="60" cy="60" r="48.69" style="fill: #5a97cb; stroke-width: 0px;"/>
    <circle cx="60" cy="60" r="55.41" style="fill: #fff; stroke: #005178; stroke-miterlimit: 10; stroke-width: 6px;"/>
    <circle cx="60" cy="60" r="48.69" style="fill: #5a97cb; stroke-width: 0px;"/>
  </g>
  <g>
    <path d="m61.76,74.43c0-.85-.08-1.68-.23-2.49l3.62-2.97c-.8-2.55-2.15-4.85-3.92-6.78l-4.38,1.65c-1.26-1.07-2.72-1.93-4.31-2.49l-.76-4.62c-1.26-.28-2.57-.42-3.91-.42s-2.65.15-3.91.42l-.76,4.62c-1.59.57-3.05,1.42-4.31,2.49l-4.38-1.65c-1.77,1.93-3.12,4.23-3.92,6.78l3.62,2.97c-.15.81-.23,1.64-.23,2.49s.08,1.68.23,2.49l-3.62,2.97c.8,2.55,2.15,4.85,3.92,6.78l4.38-1.65c1.26,1.07,2.72,1.93,4.31,2.49l.76,4.62c1.26.28,2.57.42,3.91.42s2.65-.15,3.91-.42l.76-4.62c1.59-.57,3.05-1.42,4.31-2.49l4.38,1.65c1.77-1.93,3.12-4.23,3.92-6.78l-3.62-2.97c.15-.81.23-1.64.23-2.49Zm-13.89,6.43c-3.55,0-6.43-2.88-6.43-6.43s2.88-6.43,6.43-6.43,6.43,2.88,6.43,6.43-2.88,6.43-6.43,6.43Z" style="fill: none; stroke: #fff; stroke-miterlimit: 10; stroke-width: 2px;"/>
    <path d="m86.02,45.57c0-.85-.08-1.68-.23-2.49l3.62-2.97c-.8-2.55-2.15-4.85-3.92-6.78l-4.38,1.65c-1.26-1.07-2.72-1.93-4.31-2.49l-.76-4.62c-1.26-.28-2.57-.42-3.91-.42s-2.65.15-3.91.42l-.76,4.62c-1.59.57-3.05,1.42-4.31,2.49l-4.38-1.65c-1.77,1.93-3.12,4.23-3.92,6.78l3.62,2.97c-.15.81-.23,1.64-.23,2.49s.08,1.68.23,2.49l-3.62,2.97c.8,2.55,2.15,4.85,3.92,6.78l4.38-1.65c1.26,1.07,2.72,1.93,4.31,2.49l.76,4.62c1.26.28,2.57.42,3.91.42s2.65-.15,3.91-.42l.76-4.62c1.59-.57,3.05-1.42,4.31-2.49l4.38,1.65c1.77-1.93,3.12-4.23,3.92-6.78l-3.62-2.97c.15-.81.23-1.64.23-2.49Zm-13.89,6.43c-3.55,0-6.43-2.88-6.43-6.43s2.88-6.43,6.43-6.43,6.43,2.88,6.43,6.43-2.88,6.43-6.43,6.43Z" style="fill: none; stroke: #fff; stroke-miterlimit: 10; stroke-width: 2px;"/>
  </g>
</svg>