<?xml version="1.0" encoding="UTF-8"?>
<svg id="Layer_1" data-name="Layer 1" xmlns="http://www.w3.org/2000/svg" viewBox="0 0 120 120" width="100%" height="100%">
  <g>
    <circle cx="60" cy="60" r="55.41" style="fill: #fff; stroke: #005178; stroke-miterlimit: 10; stroke-width: 6px;"/>
    <circle cx="60" cy="60" r="55.41" style="fill: #fff; stroke: #005178; stroke-miterlimit: 10; stroke-width: 6px;"/>
    <circle cx="60" cy="60" r="48.69" style="fill: #5a97cb; stroke-width: 0px;"/>
  </g>
  <g>
    <path d="m70.31,58.33c.07.48.12.97.12,1.47,0,5.76-4.67,10.43-10.43,10.43s-10.43-4.67-10.43-10.43c0-.5.05-.99.12-1.47h-17.68c-.02.49-.04.98-.04,1.47,0,1.23.09,2.45.24,3.65l3.86,1.38c.55,2.63,1.54,5.1,2.86,7.34l-1.82,3.82c1.78,2.51,3.99,4.72,6.47,6.5l3.78-1.79c2.28,1.38,4.79,2.41,7.48,2.99l1.38,3.86c1.23.18,2.48.28,3.77.28,1.93,0,3.83-.18,5.64-.58l1.44-4.05c2.26-.68,4.37-1.69,6.3-2.95l3.7,1.76c2.7-2.05,5.03-4.63,6.84-7.54l-1.93-4.03c.75-1.55,1.34-3.19,1.75-4.9l3.95-1.4c.21-1.41.34-2.85.34-4.32,0-.49-.02-.98-.04-1.47h-17.67Z" style="fill: none; stroke: #fff; stroke-linejoin: round; stroke-width: 2px;"/>
    <path d="m65.4,58.33c0,2.98-2.42,5.4-5.4,5.4s-5.4-2.42-5.4-5.4h10.8Z" style="fill: none; stroke: #fff; stroke-linejoin: round; stroke-width: 2px;"/>
    <line x1="75.7" y1="50.59" x2="88.03" y2="50.59" style="fill: none; stroke: #fff; stroke-linecap: round; stroke-linejoin: round; stroke-width: 2px;"/>
    <line x1="31.97" y1="50.59" x2="70.71" y2="50.59" style="fill: none; stroke: #fff; stroke-linecap: round; stroke-linejoin: round; stroke-width: 2px;"/>
    <line x1="64.32" y1="34.7" x2="88.03" y2="34.7" style="fill: none; stroke: #fff; stroke-linecap: round; stroke-linejoin: round; stroke-width: 2px;"/>
    <line x1="31.97" y1="34.7" x2="59.33" y2="34.7" style="fill: none; stroke: #fff; stroke-linecap: round; stroke-linejoin: round; stroke-width: 2px;"/>
    <line x1="48.55" y1="42.65" x2="88.03" y2="42.65" style="fill: none; stroke: #fff; stroke-linecap: round; stroke-linejoin: round; stroke-width: 2px;"/>
    <line x1="31.97" y1="42.65" x2="42.44" y2="42.65" style="fill: none; stroke: #fff; stroke-linecap: round; stroke-linejoin: round; stroke-width: 2px;"/>
    <circle cx="73.21" cy="50.59" r="2.5" style="fill: none; stroke: #fff; stroke-linecap: round; stroke-linejoin: round; stroke-width: 2px;"/>
    <circle cx="46.05" cy="42.63" r="2.5" style="fill: none; stroke: #fff; stroke-linecap: round; stroke-linejoin: round; stroke-width: 2px;"/>
    <circle cx="61.82" cy="34.67" r="2.5" style="fill: none; stroke: #fff; stroke-linecap: round; stroke-linejoin: round; stroke-width: 2px;"/>
  </g>
</svg>