<?xml version="1.0" encoding="UTF-8"?>
<svg id="Layer_1" data-name="Layer 1" xmlns="http://www.w3.org/2000/svg" viewBox="0 0 120 120" width="100%" height="100%">
  <circle cx="60" cy="60" r="55.41" style="fill: #fff; stroke: #005178; stroke-miterlimit: 10; stroke-width: 6px;"/>
  <circle cx="60" cy="60" r="48.69" style="fill: #5a97cb; stroke-width: 0px;"/>
  <circle cx="60" cy="60" r="55.41" style="fill: #fff; stroke: #005178; stroke-miterlimit: 10; stroke-width: 6px;"/>
  <circle cx="60" cy="60" r="48.69" style="fill: #5a97cb; stroke-width: 0px;"/>
  <path d="m94.68,58.89c-.63-.71-15.68-17.49-34.68-17.49s-34.05,16.77-34.68,17.49c-.56.64-.56,1.59,0,2.22.63.71,15.68,17.49,34.68,17.49s34.05-16.77,34.68-17.49c.56-.64.56-1.59,0-2.22Zm-34.68,16.36c-14.76,0-27.44-11.56-31.1-15.25,3.66-3.69,16.32-15.24,31.1-15.24s27.44,11.56,31.1,15.25c-3.66,3.69-16.32,15.24-31.1,15.24Z" style="fill: #fff; stroke: #5a97cb; stroke-miterlimit: 10; stroke-width: .25px;"/>
  <circle cx="60" cy="60" r="7.94" style="fill: #fff; stroke-width: 0px;"/>
  <line x1="68.42" y1="51.58" x2="51.58" y2="68.42" style="fill: none; stroke: #5a97cb; stroke-miterlimit: 10; stroke-width: 3px;"/>
  <line x1="51.58" y1="51.58" x2="68.42" y2="68.42" style="fill: none; stroke: #5a97cb; stroke-miterlimit: 10; stroke-width: 3px;"/>
  <path d="m49.95,30.4l1.11-.58c.49-.26.67-.87.41-1.35-.09-.17-.23-.31-.41-.41l-1.06-.58c-1.1-.6-2.01-1.51-2.61-2.61l-.63-1.06c-.18-.32-.51-.52-.88-.52-.36,0-.7.2-.87.52l-.58,1.06c-.6,1.1-1.51,2.01-2.62,2.61l-1.05.58c-.49.26-.67.87-.41,1.35.09.17.23.31.41.41l1.05.58c1.11.6,2.02,1.51,2.62,2.61l.63,1.05c.17.32.51.52.87.52.37,0,.7-.2.88-.52l.58-1.05c.59-1.1,1.47-2,2.56-2.61Z" style="fill: none; stroke: #fff; stroke-miterlimit: 10; stroke-width: 2px;"/>
  <g>
    <path d="m91.43,79.85v1.75c0,.55-.45,1-1,1s-1-.45-1-1v-1.75c0-.55.45-1,1-1s1,.45,1,1Z" style="fill: #fff; stroke-width: 0px;"/>
    <path d="m89.43,75.93v-1.76c0-.55.45-1,1-1s1,.45,1,1v1.76c0,.55-.45,1-1,1s-1-.45-1-1Z" style="fill: #fff; stroke-width: 0px;"/>
    <path d="m89.43,77.93c0,.55-.45,1-1,1h-1.77c-.55,0-1-.45-1-1s.45-1,1-1h1.77c.55,0,1,.45,1,1Z" style="fill: #fff; stroke-width: 0px;"/>
    <path d="m94.11,78.93h-1.76c-.55,0-1-.45-1-1s.45-1,1-1h1.75c.55,0,1,.45,1,1s-.45,1-1,1h.01Z" style="fill: #fff; stroke-width: 0px;"/>
  </g>
  <g>
    <path d="m31.44,40.43v1.75c0,.55-.45,1-1,1s-1-.45-1-1v-1.75c0-.55.45-1,1-1s1,.45,1,1Z" style="fill: #fff; stroke-width: 0px;"/>
    <path d="m29.44,36.51v-1.76c0-.55.45-1,1-1s1,.45,1,1v1.76c0,.55-.45,1-1,1s-1-.45-1-1Z" style="fill: #fff; stroke-width: 0px;"/>
    <path d="m29.44,38.51c0,.55-.45,1-1,1h-1.77c-.55,0-1-.45-1-1s.45-1,1-1h1.77c.55,0,1,.45,1,1Z" style="fill: #fff; stroke-width: 0px;"/>
    <path d="m34.12,39.51h-1.76c-.55,0-1-.45-1-1s.45-1,1-1h1.75c.55,0,1,.45,1,1s-.45,1-1,1h.01Z" style="fill: #fff; stroke-width: 0px;"/>
  </g>
  <path d="m46.54,89.66l1.11-.58c.49-.26.67-.87.41-1.35-.09-.17-.23-.31-.41-.41l-1.06-.58c-1.1-.6-2.01-1.51-2.61-2.61l-.63-1.06c-.18-.32-.51-.52-.88-.52-.36,0-.7.2-.87.52l-.58,1.06c-.6,1.1-1.51,2.01-2.62,2.61l-1.05.58c-.49.26-.67.87-.41,1.35.09.17.23.31.41.41l1.05.58c1.11.6,2.02,1.51,2.62,2.61l.63,1.05c.17.32.51.52.87.52.37,0,.7-.2.88-.52l.58-1.05c.59-1.1,1.47-2,2.56-2.61Z" style="fill: none; stroke: #fff; stroke-miterlimit: 10; stroke-width: 2px;"/>
  <g>
    <path d="m83.88,40.39v1.75c0,.55-.45,1-1,1s-1-.45-1-1v-1.75c0-.55.45-1,1-1s1,.45,1,1Z" style="fill: #fff; stroke-width: 0px;"/>
    <path d="m81.88,36.47v-1.76c0-.55.45-1,1-1s1,.45,1,1v1.76c0,.55-.45,1-1,1s-1-.45-1-1Z" style="fill: #fff; stroke-width: 0px;"/>
    <path d="m81.88,38.47c0,.55-.45,1-1,1h-1.77c-.55,0-1-.45-1-1s.45-1,1-1h1.77c.55,0,1,.45,1,1Z" style="fill: #fff; stroke-width: 0px;"/>
    <path d="m86.56,39.47h-1.76c-.55,0-1-.45-1-1s.45-1,1-1h1.75c.55,0,1,.45,1,1s-.45,1-1,1h.01Z" style="fill: #fff; stroke-width: 0px;"/>
  </g>
  <circle cx="60" cy="60" r="16.76" style="fill: none; stroke: #fff; stroke-miterlimit: 10; stroke-width: 2px;"/>
</svg>