<?xml version="1.0" encoding="UTF-8"?>
<svg id="Layer_1" data-name="Layer 1" xmlns="http://www.w3.org/2000/svg" viewBox="0 0 120 120" width="100%" height="100%">
  <g>
    <circle cx="60.56" cy="60" r="55.41" style="fill: #fff; stroke: #005178; stroke-miterlimit: 10; stroke-width: 6px;"/>
    <circle cx="60.56" cy="60" r="48.69" style="fill: #5a97cb; stroke-width: 0px;"/>
  </g>
  <circle cx="60" cy="60" r="30.84" style="fill: none; stroke: #fff; stroke-linejoin: round; stroke-width: 2px;"/>
  <line x1="38.27" y1="81.78" x2="81.73" y2="38.33" style="fill: none; stroke: #fff; stroke-linejoin: round; stroke-width: 2px;"/>
  <g>
    <path d="m46.65,54.5v11.01c0,1.29-1.05,2.34-2.34,2.34s-2.33-1.05-2.33-2.34v-11.01c0-1.29,1.05-2.34,2.33-2.34.65,0,1.23.26,1.65.69.43.42.69,1,.69,1.65Z" style="fill: none; stroke: #fff; stroke-linejoin: round; stroke-width: 2px;"/>
    <path d="m73.62,65.5c0,.17.02.34.05.49v3.76c0,1.29-1.05,2.34-2.33,2.34h0c-1.28,0-2.33-1.05-2.33-2.34v-19.51c0-1.29,1.05-2.34,2.33-2.34h0c1.28,0,2.33,1.05,2.33,2.34v3.76c-.04.15-.05.32-.05.49v11.01Z" style="fill: none; stroke: #fff; stroke-linejoin: round; stroke-width: 2px;"/>
    <path d="m73.68,54v11.99c-.04-.15-.05-.32-.05-.49v-11.01c0-.17.02-.34.05-.49Z" style="fill: none; stroke: #fff; stroke-linejoin: round; stroke-width: 2px;"/>
    <path d="m51.32,50.24v19.51c0,1.29-1.05,2.34-2.33,2.34s-2.34-1.05-2.34-2.34v-19.51c0-1.29,1.05-2.34,2.34-2.34.64,0,1.22.26,1.64.69.43.42.69,1.01.69,1.65Z" style="fill: none; stroke: #fff; stroke-linejoin: round; stroke-width: 2px;"/>
    <path d="m78.29,54.5v11.01c0,1.29-1.05,2.34-2.33,2.34-1.12,0-2.06-.79-2.28-1.84v-11.99c.23-1.06,1.17-1.84,2.28-1.84.64,0,1.22.26,1.65.69.42.42.68,1,.68,1.65Z" style="fill: none; stroke: #fff; stroke-linejoin: round; stroke-width: 2px;"/>
    <path d="m73.68,54v11.99c-.04-.15-.05-.32-.05-.49v-11.01c0-.17.02-.34.05-.49Z" style="fill: none; stroke: #fff; stroke-linejoin: round; stroke-width: 2px;"/>
    <path d="m40.62,58.17h.9v3.67h-.9c-1.18,0-2.13-.79-2.13-1.76v-.14c0-.97.96-1.76,2.13-1.76Z" style="fill: none; stroke: #fff; stroke-linejoin: round; stroke-width: 2px;"/>
    <path d="m79.23,61.83h-.9v-3.67h.9c1.18,0,2.13.79,2.13,1.76v.14c0,.97-.96,1.76-2.13,1.76Z" style="fill: none; stroke: #fff; stroke-linejoin: round; stroke-width: 2px;"/>
    <rect x="51.32" y="58.17" width="17.69" height="3.67" style="fill: none; stroke: #fff; stroke-linejoin: round; stroke-width: 2px;"/>
    <rect x="73.62" y="58.17" width=".05" height="3.67" style="fill: none; stroke: #fff; stroke-linejoin: round; stroke-width: 2px;"/>
  </g>
</svg>