<?xml version="1.0" encoding="UTF-8"?>
<svg id="Layer_1" data-name="Layer 1" xmlns="http://www.w3.org/2000/svg" viewBox="0 0 120 120" width="100%" height="100%">
  <g>
    <circle cx="60" cy="60" r="55.41" style="fill: #fff; stroke: #005178; stroke-miterlimit: 10; stroke-width: 6px;"/>
    <circle cx="60" cy="60" r="48.69" style="fill: #5a97cb; stroke-width: 0px;"/>
    <circle cx="60" cy="60" r="55.41" style="fill: #fff; stroke: #005178; stroke-miterlimit: 10; stroke-width: 6px;"/>
    <circle cx="60" cy="60" r="48.69" style="fill: #5a97cb; stroke-width: 0px;"/>
  </g>
  <g>
    <path d="m72.72,44.49l-14.51-10.86h0l-24.6,19.22c-.79.75-.75,2.01.07,2.71h0c.71.6,1.76.58,2.44-.06l22.09-16.8h0l13.65,10.12c.22-1.41.23-1.94.63-3.31l.23-1.02Z" style="fill: none; stroke: #fff; stroke-linecap: round; stroke-linejoin: round; stroke-width: 2px;"/>
    <path d="m82.6,73.57v-14.46c4.3-.77,7.53-4.94,7.53-10.88,0-6.59-6.81-20.22-8.97-20.22s-8.97,13.61-8.97,20.22c0,5.94,3.26,10.11,7.53,10.88v14.46h0v-14.46c-3.8-1.78-7.2-4.95-7.51-10.11l-14.01-10.53-18.65,14.67v20.43h-11.48v4.3h63.84v-4.3h-9.33Zm-31.56-7.88h-7.17v-7.16h7.17v7.16Zm10.76,7.88h-7.17v-15.04h7.17v15.04Zm10.76-7.88h-7.17v-7.16h7.17v7.16Z" style="fill: none; stroke: #fff; stroke-linecap: round; stroke-linejoin: round; stroke-width: 2px;"/>
  </g>
</svg>