<?xml version="1.0" encoding="UTF-8"?>
<svg id="Layer_1" data-name="Layer 1" xmlns="http://www.w3.org/2000/svg" viewBox="0 0 120 120" width="100%" height="100%">
  <g>
    <circle cx="60" cy="60" r="55.41" style="fill: #fff; stroke: #005178; stroke-miterlimit: 10; stroke-width: 6px;"/>
    <circle cx="60" cy="60" r="48.69" style="fill: #5a97cb; stroke-width: 0px;"/>
  </g>
  <path d="m72.6,35.33h.99c6.6,0,12,5.4,12,12v30.98c0,6.6-5.4,12-12,12h-27.33c-6.6,0-12-5.4-12-12v-30.98c0-6.6,5.4-12,12-12h.98" style="fill: none; stroke: #fff; stroke-miterlimit: 10; stroke-width: 2px;"/>
  <path d="m73.02,38.38c0,7.04-5.71,12.75-12.75,12.75s-12.75-5.71-12.75-12.75c0-.44.02-.88.07-1.31.65-6.43,6.08-11.44,12.68-11.44s12.03,5.01,12.68,11.44c.05.43.07.87.07,1.31Z" style="fill: none; stroke: #fff; stroke-miterlimit: 10; stroke-width: 2px;"/>
  <line x1="61.36" y1="39.28" x2="66.39" y2="44.32" style="fill: none; stroke: #fff; stroke-linecap: round; stroke-miterlimit: 10;"/>
  <circle cx="60.27" cy="38.38" r="1.31" style="fill: none; stroke: #fff; stroke-miterlimit: 10;"/>
  <rect x="42.17" y="55.37" width="14.13" height="27.94" rx="6.2" ry="6.2" style="fill: none; stroke: #fff; stroke-miterlimit: 10;"/>
  <rect x="64.3" y="55.37" width="14.13" height="27.94" rx="6.2" ry="6.2" style="fill: none; stroke: #fff; stroke-miterlimit: 10;"/>
  <path d="m63.42,47.46c-5.01,1.73-10.49-.92-12.22-5.94-3.68-12.19,13.49-18.18,18.16-6.28,1.76,5.02-.99,10.54-5.94,12.22h0Z" style="fill: none; stroke: #fff; stroke-dasharray: 0 0 6.21 8.87; stroke-linecap: round; stroke-miterlimit: 10;"/>
</svg>