<?xml version="1.0" encoding="UTF-8"?>
<svg id="Layer_1" data-name="Layer 1" xmlns="http://www.w3.org/2000/svg" viewBox="0 0 120 120" width="100%" height="100%">
  <g>
    <circle cx="60" cy="60" r="55.41" style="fill: #fff; stroke: #005178; stroke-miterlimit: 10; stroke-width: 6px;"/>
    <circle cx="60" cy="60" r="48.69" style="fill: #5a97cb; stroke-width: 0px;"/>
    <circle cx="60" cy="60" r="55.41" style="fill: #fff; stroke: #005178; stroke-miterlimit: 10; stroke-width: 6px;"/>
    <circle cx="60" cy="60" r="48.69" style="fill: #5a97cb; stroke-width: 0px;"/>
  </g>
  <g>
    <path d="m73.64,70.51h-30.59c-11.55-.58-11.37-18.32,2.28-16.72.21-4.81,7.33-6.86,10.03-3.51,2.28-11.44,20.4-11.35,21.37,3.59,11.13,1.65,8.68,16.39-3.1,16.64Z" style="fill: none; stroke: #fff; stroke-linecap: round; stroke-linejoin: round; stroke-width: 2px;"/>
    <path d="m72.88,44.97c1.28-.85,2.81-1.34,4.45-1.34,4.45,0,8.06,3.61,8.06,8.06,0,2.3-.96,4.38-2.51,5.85" style="fill: none; stroke: #fff; stroke-linecap: round; stroke-linejoin: round; stroke-width: 2px;"/>
    <line x1="85.73" y1="43.1" x2="90.55" y2="38.27" style="fill: none; stroke: #fff; stroke-linecap: round; stroke-linejoin: round; stroke-width: 2px;"/>
    <line x1="74.33" y1="40.56" x2="72.01" y2="34.15" style="fill: none; stroke: #fff; stroke-linecap: round; stroke-linejoin: round; stroke-width: 2px;"/>
    <line x1="88.45" y1="53.54" x2="94.97" y2="55.56" style="fill: none; stroke: #fff; stroke-linecap: round; stroke-linejoin: round; stroke-width: 2px;"/>
    <line x1="80.63" y1="40.44" x2="81.32" y2="37.2" style="fill: none; stroke: #fff; stroke-linecap: round; stroke-linejoin: round; stroke-width: 2px;"/>
    <line x1="90.52" y1="47.91" x2="93.82" y2="47.61" style="fill: none; stroke: #fff; stroke-linecap: round; stroke-linejoin: round; stroke-width: 2px;"/>
    <path d="m36.34,56.94h-3.45c-10.32.45-7.01-16.78,6.23-12.3.19-5.31,5.55-7.72,9.54-3.41.1-9.35,15.87-9.74,17.55.51" style="fill: none; stroke: #fff; stroke-linecap: round; stroke-linejoin: round; stroke-width: 2px;"/>
    <line x1="61.75" y1="79.78" x2="58.05" y2="83.48" style="fill: none; stroke: #fff; stroke-linecap: round; stroke-linejoin: round; stroke-width: 2px;"/>
    <line x1="72.51" y1="74.32" x2="68.8" y2="78.02" style="fill: none; stroke: #fff; stroke-linecap: round; stroke-linejoin: round; stroke-width: 2px;"/>
    <line x1="57.3" y1="73.5" x2="53.6" y2="77.2" style="fill: none; stroke: #fff; stroke-linecap: round; stroke-linejoin: round; stroke-width: 2px;"/>
    <line x1="34.71" y1="80.07" x2="31.01" y2="83.77" style="fill: none; stroke: #fff; stroke-linecap: round; stroke-linejoin: round; stroke-width: 2px;"/>
    <line x1="82.02" y1="75.35" x2="78.32" y2="79.05" style="fill: none; stroke: #fff; stroke-linecap: round; stroke-linejoin: round; stroke-width: 2px;"/>
    <line x1="49.09" y1="82.7" x2="45.39" y2="86.4" style="fill: none; stroke: #fff; stroke-linecap: round; stroke-linejoin: round; stroke-width: 2px;"/>
    <line x1="72.01" y1="83.77" x2="68.31" y2="87.47" style="fill: none; stroke: #fff; stroke-linecap: round; stroke-linejoin: round; stroke-width: 2px;"/>
    <line x1="33.61" y1="70.62" x2="29.91" y2="74.32" style="fill: none; stroke: #fff; stroke-linecap: round; stroke-linejoin: round; stroke-width: 2px;"/>
    <line x1="30.17" y1="61.6" x2="26.47" y2="65.3" style="fill: none; stroke: #fff; stroke-linecap: round; stroke-linejoin: round; stroke-width: 2px;"/>
    <line x1="45.75" y1="74.32" x2="42.05" y2="78.02" style="fill: none; stroke: #fff; stroke-linecap: round; stroke-linejoin: round; stroke-width: 2px;"/>
  </g>
</svg>