<?xml version="1.0" encoding="UTF-8"?>
<svg id="Layer_1" data-name="Layer 1" xmlns="http://www.w3.org/2000/svg" viewBox="0 0 120 120" width="100%" height="100%">
  <circle cx="60" cy="60" r="55.41" style="fill: #fff; stroke: #005178; stroke-miterlimit: 10; stroke-width: 6px;"/>
  <circle cx="60" cy="60" r="48.69" style="fill: #5a97cb; stroke-width: 0px;"/>
  <circle cx="60" cy="60" r="55.41" style="fill: #fff; stroke: #005178; stroke-miterlimit: 10; stroke-width: 6px;"/>
  <circle cx="60" cy="60" r="48.69" style="fill: #5a97cb; stroke-width: 0px;"/>
  <rect x="55.54" y="30.93" width="9.19" height="6.23" transform="translate(8.44 -11.81) rotate(12.06)" style="fill: none; stroke: #fff; stroke-linecap: round; stroke-linejoin: round; stroke-width: 3px;"/>
  <path d="m58.75,48.49c.17-.45-.06-.95-.51-1.11l-.3-.11c-.15-.89-.75-1.68-1.66-2.02l-3.2-1.2c-1-.38-2.09-.09-2.79.63-.19-.17-.49-.33-.98-.51-.44-.16-.76-.21-1-.21-.05-1.01-.68-1.95-1.69-2.33l-3.2-1.2c-.9-.34-1.88-.14-2.58.43l-.31-.11c-.45-.17-.95.06-1.11.51-.16.44.05.92.48,1.1l-.61,1.63c-.51,1.35.18,2.86,1.53,3.37l3.19,1.2c1.35.51,2.86-.18,3.37-1.53l.76-2.02s.03-.09.04-.14c.15-.03.36-.02.83.15.53.19.69.32.77.43-.02.05-.05.1-.07.15l-.76,2.02c-.51,1.35,8.7,1.41,8.7,1.41.44.15.92-.08,1.08-.51Zm-12.19-1.8c-.34.9-1.34,1.35-2.24,1.02l-3.19-1.2c-.9-.34-1.35-1.34-1.02-2.24l.76-2.02c.34-.9,1.34-1.35,2.24-1.01l3.2,1.2c.9.34,1.35,1.34,1.01,2.24l-.76,2.02Zm3.22,1.21l.76-2.02c.34-.9,1.34-1.35,2.24-1.01l3.2,1.2c.9.34,1.35,1.34,1.01,2.24,0,0-7.54.5-7.21-.4Z" style="fill: #fff; stroke: #fff; stroke-miterlimit: 10; stroke-width: .5px;"/>
  <path d="m79.12,39.58l-13.31-2.94-11.56-2.41-13.31-2.94c-1.54-.33-3.01.64-3.35,2.08l-.08.41c-.26,1.02.4,2.11,1.52,2.26l39.7,8.62c1.02.26,2.11-.4,2.26-1.52l.08-.41c.55-1.34-.43-2.82-1.97-3.15Z" style="fill: #fff; stroke: #5a97cb; stroke-miterlimit: 10; stroke-width: 2px;"/>
  <polygon points="74.16 87.81 45.02 87.81 39.05 48.74 80.03 48.74 74.16 87.81" style="fill: none; stroke: #fff; stroke-miterlimit: 10; stroke-width: 3px;"/>
  <polygon points="51.09 80.72 48.96 55.83 49.87 55.72 52 80.62 51.09 80.72" style="fill: #fff; stroke: #fff; stroke-miterlimit: 10; stroke-width: .75px;"/>
  <polygon points="67.99 80.72 67.08 80.62 69.21 55.72 70.12 55.83 67.99 80.72" style="fill: #fff; stroke: #fff; stroke-miterlimit: 10; stroke-width: .75px;"/>
  <rect x="58.78" y="55.42" width="1.01" height="25.61" style="fill: #fff; stroke: #fff; stroke-miterlimit: 10; stroke-width: .75px;"/>
</svg>