<?xml version="1.0" encoding="UTF-8"?>
<svg id="Layer_1" data-name="Layer 1" xmlns="http://www.w3.org/2000/svg" viewBox="0 0 120 120" width="100%" height="100%">
  <g>
    <circle cx="60" cy="60" r="55.41" style="fill: #fff; stroke: #005178; stroke-miterlimit: 10; stroke-width: 6px;"/>
    <circle cx="60" cy="60" r="48.69" style="fill: #5a97cb; stroke-width: 0px;"/>
    <circle cx="60" cy="60" r="55.41" style="fill: #fff; stroke: #005178; stroke-miterlimit: 10; stroke-width: 6px;"/>
    <circle cx="60" cy="60" r="48.69" style="fill: #5a97cb; stroke-width: 0px;"/>
  </g>
  <path d="m94.48,49.93l-4.08-1.49v-8.55l4.08-1.72-27.6-10.19-33.56,11.76c-3.21,1.57-3.29,5.88-3.29,9.41,0,1.18.16,2.35.39,3.45-2.67,1.72-2.74,5.72-2.74,9.09,0,2.74.63,5.25,2.35,6.82-.39,1.33-.16,2.98-.16,4.94,0,3.53.94,6.74,4.08,7.84l21.8,9.02,38.57-15.99-4.08-1.49v-8.62l4.08-1.72-6.27-2.35v-7.53l6.43-2.67Zm-60.21-4.7l21.8,8.55,31.28-12.62v6.74l-31.28,13.02-21.8-8.62v-7.06Zm52.92,27.05l-31.28,12.94-21.87-8.62v-6.12l19.52,8,33.71-13.33-.08,7.13Zm-2.2-11.76l-31.28,12.94-21.8-8.62v-7.06l22.42,8.94,30.73-12.86v6.66h-.08Z" style="fill: none; stroke: #fff; stroke-miterlimit: 10; stroke-width: 1.5px;"/>
</svg>