<?xml version="1.0" encoding="UTF-8"?>
<svg id="Layer_1" data-name="Layer 1" xmlns="http://www.w3.org/2000/svg" xmlns:xlink="http://www.w3.org/1999/xlink" viewBox="0 0 120 120">
  <defs>
    <clipPath id="clippath">
      <path d="m60,59.97v30.56s.02,0,.03,0c16.81,0,30.43-13.67,30.43-30.53,0-.01,0-.02,0-.03h-30.46Z" style="fill: none; stroke-width: 0px;"/>
    </clipPath>
  </defs>
  <g>
    <circle cx="60" cy="60" r="55.41" style="fill: #fff; stroke: #005178; stroke-miterlimit: 10; stroke-width: 6px;"/>
    <circle cx="60" cy="60" r="48.69" style="fill: #5a97cb; stroke-width: 0px;"/>
    <circle cx="60" cy="60" r="55.41" style="fill: #fff; stroke: #005178; stroke-miterlimit: 10; stroke-width: 6px;"/>
    <circle cx="60" cy="60" r="48.69" style="fill: #5a97cb; stroke-width: 0px;"/>
  </g>
  <g>
    <path d="m60,29.47s-.02,0-.03,0c-16.81,0-30.43,13.67-30.43,30.53s13.62,30.53,30.43,30.53c.01,0,.02,0,.03,0V29.47Z" style="fill: #fff; stroke: #fff; stroke-miterlimit: 10; stroke-width: 2px;"/>
    <path d="m90.46,60.07s0-.05,0-.07c0-16.86-13.62-30.53-30.43-30.53-.01,0-.02,0-.03,0v30.6h30.46Z" style="fill: none; stroke: #fff; stroke-miterlimit: 10; stroke-width: 2px;"/>
    <g style="clip-path: url(#clippath);">
      <path d="m46.29,71.91l18.57,18.63m-15.48-21.72l20.14,20.21m-17.06-23.3l21.35,21.42m-18.26-24.51l22.39,22.46m-19.3-25.55l22.72,22.8m-16.42-22.66l19.34,19.4m-13.4-19.64l16.09,16.14m-9.85-16.07l11.8,11.84m-5.56-11.77l7.07,7.09m-1.34-7.53l2.25,2.25" style="fill: none; stroke: #fff; stroke-miterlimit: 10; stroke-width: 2px;"/>
    </g>
    <path d="m60,59.97v30.56s.02,0,.03,0c16.81,0,30.43-13.67,30.43-30.53,0-.01,0-.02,0-.03h-30.46Z" style="fill: none; stroke: #fff; stroke-miterlimit: 10; stroke-width: 2px;"/>
  </g>
</svg>