<?xml version="1.0" encoding="UTF-8"?>
<svg id="Layer_1" data-name="Layer 1" xmlns="http://www.w3.org/2000/svg" viewBox="0 0 120 120" width="100%" height="100%">
  <g>
    <circle cx="60" cy="60" r="55.41" style="fill: #fff; stroke: #005178; stroke-miterlimit: 10; stroke-width: 6px;"/>
    <circle cx="60" cy="60" r="48.69" style="fill: #5a97cb; stroke-width: 0px;"/>
    <circle cx="60" cy="60" r="55.41" style="fill: #fff; stroke: #005178; stroke-miterlimit: 10; stroke-width: 6px;"/>
    <circle cx="60" cy="60" r="48.69" style="fill: #5a97cb; stroke-width: 0px;"/>
  </g>
  <path d="m56.55,46.83c-1.29-.23-2.55-.46-3.81-.68-.09-.01-.2.05-.28.1-1.94,1.43-3.88,2.87-5.82,4.3-1.07.79-2.27.87-3.29.21-1.58-1.02-1.73-3.31-.25-4.46,1.55-1.2,3.15-2.34,4.72-3.51.67-.5,1.38-.96,2.02-1.5.94-.79,2-.92,3.14-.72,2.41.42,4.81.86,7.22,1.29.1.02.21,0,.31-.03,3-1.09,6.07.59,6.75,3.7.05.24.09.49.09.73,0,.25.08.45.24.65.78.96,1.55,1.93,2.31,2.91.13.17.25.19.44.12,2.01-.74,4.03-1.48,6.04-2.2,1.67-.6,3.35.31,3.72,2.01.28,1.29-.42,2.63-1.67,3.11-1.78.68-3.58,1.31-5.37,1.97-.95.34-1.89.7-2.84,1.03-1.16.41-2.2.18-3.03-.71-.7-.75-1.34-1.57-2-2.36-.06-.07-.12-.15-.2-.24-1.35,2.74-2.69,5.46-4.04,8.19.09.07.17.13.26.19,2.85,1.95,5.72,3.88,8.55,5.86.96.67,1.7,1.55,2.11,2.71,1.45,4.11,2.95,8.2,4.43,12.3.69,1.92-.31,3.84-2.23,4.31-1.54.37-3.14-.49-3.7-2.02-1.44-3.96-2.86-7.92-4.29-11.88-.08-.23-.21-.39-.41-.52-4.52-3.08-9.03-6.17-13.54-9.26-1.49-1.02-1.89-2.83-.96-4.38.03-.05.07-.11.09-.16.7-1.97,1.75-3.78,2.65-5.65.83-1.73,1.69-3.44,2.54-5.16.03-.06.06-.13.1-.23Z" style="fill: #fff; stroke-width: 0px;"/>
  <path d="m51.44,65.01c1.81,1.14,3.58,2.27,5.37,3.4-.04.08-.07.16-.1.22-1.34,2.5-2.69,4.99-4.03,7.49-.55,1.02-1.38,1.63-2.52,1.75-1.79.19-3.59.35-5.38.52-1.54.14-3.08.27-4.62.4-.78.07-1.57.16-2.35.18-1.46.03-2.72-.94-3.1-2.34-.38-1.38.22-2.85,1.47-3.58.45-.26.94-.39,1.46-.44,2.88-.24,5.76-.49,8.64-.73.43-.04.86-.09,1.29-.1.2,0,.29-.1.38-.26,1.11-2.07,2.23-4.14,3.34-6.2.05-.09.1-.18.16-.3Z" style="fill: #fff; stroke-width: 0px;"/>
  <path d="m67.64,30.05c3.22.01,5.82,2.62,5.8,5.83-.02,3.2-2.64,5.8-5.83,5.78-3.2-.02-5.8-2.64-5.78-5.83.02-3.19,2.63-5.79,5.8-5.77Z" style="fill: #fff; stroke-width: 0px;"/>
</svg>