<?xml version="1.0" encoding="UTF-8"?>
<svg id="Layer_1" data-name="Layer 1" xmlns="http://www.w3.org/2000/svg" viewBox="0 0 120 120" width="100%" height="100%">
  <g>
    <circle cx="60" cy="60" r="55.41" style="fill: #fff; stroke: #005178; stroke-miterlimit: 10; stroke-width: 6px;"/>
    <circle cx="60" cy="60" r="48.69" style="fill: #5a97cb; stroke-width: 0px;"/>
    <circle cx="60" cy="60" r="55.41" style="fill: #fff; stroke: #005178; stroke-miterlimit: 10; stroke-width: 6px;"/>
    <circle cx="60" cy="60" r="48.69" style="fill: #5a97cb; stroke-width: 0px;"/>
  </g>
  <g>
    <g>
      <line x1="81.34" y1="81.7" x2="81.34" y2="81.7" style="fill: none; stroke: #fff; stroke-linecap: round; stroke-linejoin: round;"/>
      <path d="m83.28,82.16c4,1.06,6.39,2.41,6.39,3.87,0,3.44-13.28,6.23-29.67,6.23s-29.67-2.79-29.67-6.23c0-1.74,3.41-3.32,8.9-4.45" style="fill: none; stroke: #fff; stroke-dasharray: 0 0 0 2; stroke-linecap: round; stroke-linejoin: round;"/>
      <line x1="40.21" y1="81.38" x2="40.21" y2="81.38" style="fill: none; stroke: #fff; stroke-linecap: round; stroke-linejoin: round;"/>
    </g>
    <circle cx="54.9" cy="50.34" r="5.11" style="fill: none; stroke: #fff; stroke-linecap: round; stroke-linejoin: round; stroke-width: 1.5px;"/>
    <path d="m59.77,66.58c-4.28,4.03-4.61,6.43-7.08,11.28" style="fill: none; stroke: #fff; stroke-linecap: round; stroke-linejoin: round; stroke-width: 1.5px;"/>
    <path d="m54.22,59.5c-5.36-3.03-6.41-1.03-7.57,2.52l-2.3,11.02c-1.12,6.84.77,14.56,8.88,11.61,5.17-2.32,9.07-6.01,11.92-10.84l7.65,8.46c4.47,4.63,8.58.56,5.21-4.26l-9.68-11.96" style="fill: none; stroke: #fff; stroke-linecap: round; stroke-linejoin: round; stroke-width: 1.5px;"/>
    <path d="m53.71,59.25c4.49,2.33,7.66,2.6,13.31,2.28,4.13,0,3.77,4.53,0,4.53-5.78.39-11.1.07-15.82-1.33" style="fill: none; stroke: #fff; stroke-linecap: round; stroke-linejoin: round; stroke-width: 1.5px;"/>
    <path d="m55.43,66.05c.71,2.94.18,4.35-.53,7.29" style="fill: none; stroke: #fff; stroke-linecap: round; stroke-linejoin: round; stroke-width: 1.5px;"/>
    <path d="m63.8,76.19l4.96,6.99c2.81,3.33,4.29.65,4.52-.44" style="fill: none; stroke: #fff; stroke-linecap: round; stroke-linejoin: round; stroke-width: 1.5px;"/>
  </g>
  <g>
    <path d="m63.8,25.24v-2.61c0-.48-.39-.87-.87-.87h-5.85c-.48,0-.87.39-.87.87v2.61c0,.48-.39.87-.87.87h-2.71c-.48,0-.87.39-.87.87v2.38c0,.48.39.87.87.87h14.75c.48,0,.87-.39.87-.87v-2.38c0-.48-.39-.87-.87-.87h-2.71c-.48,0-.87-.39-.87-.87Z" style="fill: none; stroke: #fff; stroke-linecap: round; stroke-linejoin: round;"/>
    <line x1="51.75" y1="28.22" x2="68.25" y2="28.22" style="fill: none; stroke: #fff; stroke-linecap: round; stroke-linejoin: round;"/>
    <line x1="57.25" y1="28.22" x2="57.25" y2="30.23" style="fill: none; stroke: #fff; stroke-linecap: round; stroke-linejoin: round;"/>
    <line x1="62.75" y1="28.22" x2="62.75" y2="30.23" style="fill: none; stroke: #fff; stroke-linecap: round; stroke-linejoin: round;"/>
  </g>
  <line x1="57.38" y1="21.43" x2="57.38" y2="16.96" style="fill: none; stroke: #fff; stroke-linecap: round; stroke-linejoin: round;"/>
  <line x1="62.75" y1="21.75" x2="62.75" y2="17.29" style="fill: none; stroke: #fff; stroke-linecap: round; stroke-linejoin: round;"/>
  <line x1="30.33" y1="86.03" x2="51.75" y2="30.23" style="fill: none; stroke: #fff; stroke-dasharray: 0 0 0 2; stroke-linecap: round; stroke-linejoin: round;"/>
  <line x1="68.25" y1="30.23" x2="89.67" y2="86.03" style="fill: none; stroke: #fff; stroke-dasharray: 0 0 0 2; stroke-linecap: round; stroke-linejoin: round;"/>
</svg>