<?xml version="1.0" encoding="UTF-8"?>
<svg id="Layer_1" data-name="Layer 1" xmlns="http://www.w3.org/2000/svg" viewBox="0 0 120 120" width="100%" height="100%">
  <g>
    <circle cx="60" cy="60" r="55.41" style="fill: #fff; stroke: #005178; stroke-miterlimit: 10; stroke-width: 6px;"/>
    <circle cx="60" cy="60" r="48.69" style="fill: #5a97cb; stroke-width: 0px;"/>
    <circle cx="60" cy="60" r="55.41" style="fill: #fff; stroke: #005178; stroke-miterlimit: 10; stroke-width: 6px;"/>
    <circle cx="60" cy="60" r="48.69" style="fill: #5a97cb; stroke-width: 0px;"/>
  </g>
  <path d="m46.72,65.45c3.86.94,7.11,2.77,9.35,6.18,1.25,1.9,1.35,4.05,1.42,6.19.08,2.19.08,4.39,0,6.58-.04,1.07.51,1.37,1.34,1.44,4.72.37,7.15-1.82,7.35-6.57.12-2.85.01-5.7.03-8.55,0-.44-.18-.9.31-1.45h1.13c3.6,0,7.2-.09,10.79.03,3.1.1,6.53-2.78,5.92-6.74-.95-6.14-1.82-12.3-2.93-18.42-.67-3.72-3-5.31-6.41-5.36-7.72-.13-15.44-.1-23.16,0-2.72.03-5.35,2.28-5.38,5.36-.06,7.02-.02,14.04-.02,21.06,0,.95-.88,2.19-1.98,2.34-2.31.3-4.66.32-6.97,0-1.2-.16-1.96-1.19-1.97-2.47-.02-7.11-.04-14.22,0-21.32.01-1.91.98-2.74,2.88-2.76,1.14-.01,2.28,0,3.42,0" style="fill: none; stroke: #fff; stroke-linecap: round; stroke-linejoin: round; stroke-width: 2px;"/>
</svg>