<?xml version="1.0" encoding="UTF-8"?>
<svg id="Layer_1" data-name="Layer 1" xmlns="http://www.w3.org/2000/svg" viewBox="0 0 120 120" width="100%" height="100%">
  <g>
    <circle cx="60" cy="60" r="55.41" style="fill: #fff; stroke: #005178; stroke-miterlimit: 10; stroke-width: 6px;"/>
    <circle cx="60" cy="60" r="48.69" style="fill: #5a97cb; stroke-width: 0px;"/>
  </g>
  <g>
    <path d="m31.56,40.5c-.4-5.89,2.73-9.35,8.18-9.88,1-2.98,3.05-4.68,5.83-5.39,5.38-10.11,13.66-10.95,19.97-2.12,7.34.71,9.75,3.13,10.27,10.42.54.34,1.18.67,1.73,1.11,2.28,1.77,3.45,4.1,2.93,6.98-.54,2.95-2.28,5.07-5.25,5.82-2.96.76-5.98.33-8.99,0,.95-1.11,2.18-.69,3.29-.76,1.23-.08,2.46.02,3.69-.04,3.09-.15,5.38-1.96,6.08-4.73.68-2.71-.55-5.36-3.26-6.96-.44-.26-.91-.47-1.33-.68-.73-7.83-3.58-10.67-9.61-9.43-2.03-4.46-5.34-7.14-10.54-6.44-3.89.52-6.57,3.32-7.52,7.65-3.12.56-5.78,1.83-6.15,5.59-.89.13-1.71.17-2.49.37-3.71.92-6.12,4.31-5.74,8.01.37,3.57,3.25,6.35,6.97,6.61,1.66.11,3.33.02,4.98.28-4.83,2.19-10.16.26-12.37-4.19-.39-.79-.57-.85-.67-2.21Z" style="fill: #fff; stroke-width: 0px;"/>
    <path d="m56.91,36.25c1.33,1.5,2.13,3.01,2.77,4.6.58,1.44.07,2.6-1.12,3.47-1.13.83-2.3.78-3.39-.07-1.17-.91-1.6-2.1-.99-3.52.64-1.5,1.4-2.94,2.73-4.49Zm.02,2.24c-1.03.88-1.44,1.91-1.77,2.94-.28.88.14,1.59.91,2.05.56.34,1.17.33,1.72-.03.75-.49,1.15-1.19.86-2.07-.31-.96-.72-1.9-1.73-2.89Z" style="fill: #fff; stroke-width: 0px;"/>
    <path d="m50.16,47.32c1.32,1.58,2.1,3,2.72,4.51.59,1.43.16,2.6-1.01,3.51-1.09.85-2.27.88-3.39.04-1.19-.88-1.68-2.05-1.1-3.48.65-1.58,1.43-3.1,2.77-4.58Zm-.01,2.23c-.98.92-1.44,1.91-1.76,2.95-.27.89.15,1.59.92,2.05.56.34,1.17.33,1.72-.03.75-.49,1.15-1.19.86-2.07-.31-.96-.72-1.9-1.74-2.9Z" style="fill: #fff; stroke-width: 0px;"/>
    <path d="m62.45,49.77c1.27,1.5,1.97,2.84,2.62,4.23.71,1.52.41,2.79-.88,3.8-1.09.85-2.26.9-3.38.06-1.31-.97-1.7-2.22-1.01-3.76.66-1.47,1.43-2.87,2.65-4.34Zm-.1,2.35c-.87.85-1.28,1.78-1.61,2.72-.31.87.02,1.59.77,2.11.66.46,1.34.42,1.98-.05.73-.54,1.04-1.3.68-2.14-.39-.9-.63-1.93-1.81-2.65Z" style="fill: #fff; stroke-width: 0px;"/>
    <path d="m49.91,25.32c-.12.11-.24.3-.36.3-.33,0-.46-.25-.34-.54.05-.11.32-.21.45-.17.11.03.17.27.25.41Z" style="fill: #fff; stroke-width: 0px;"/>
    <path d="m51.62,26.44c.12-.11.24-.3.36-.3.33,0,.46.25.34.54-.05.11-.32.21-.45.17-.11-.03-.17-.27-.25-.41Z" style="fill: #fff; stroke-width: 0px;"/>
    <path d="m66.53,26.52c-.11.12-.21.32-.33.33-.34.03-.49-.21-.4-.51.03-.11.31-.22.44-.2.11.02.19.24.29.38Z" style="fill: #fff; stroke-width: 0px;"/>
    <path d="m54.21,28.37c-.11.12-.21.32-.33.33-.34.03-.49-.21-.4-.51.03-.11.31-.22.44-.2.11.02.19.24.29.38Z" style="fill: #fff; stroke-width: 0px;"/>
    <path d="m66.53,29.09c-.14.08-.31.25-.43.23-.31-.06-.4-.33-.23-.58.07-.1.36-.17.46-.11.12.07.14.3.2.46Z" style="fill: #fff; stroke-width: 0px;"/>
    <path d="m43.43,30.43c.11.12.3.24.3.36,0,.33-.25.46-.54.34-.11-.05-.21-.32-.17-.45.03-.11.27-.17.41-.25Z" style="fill: #fff; stroke-width: 0px;"/>
    <path d="m46.21,32.13c-.13.09-.28.28-.4.26-.32-.03-.43-.29-.29-.56.06-.11.34-.2.46-.15.12.05.15.29.22.44Z" style="fill: #fff; stroke-width: 0px;"/>
    <path d="m48.06,33.98c-.13.09-.28.28-.4.26-.32-.03-.43-.29-.29-.56.06-.11.34-.2.46-.15.12.05.15.29.22.44Z" style="fill: #fff; stroke-width: 0px;"/>
    <path d="m74.53,35.76c-.11.12-.21.32-.33.33-.34.03-.49-.21-.4-.51.03-.11.31-.22.44-.2.11.02.19.24.29.38Z" style="fill: #fff; stroke-width: 0px;"/>
    <path d="m72.95,37.2c.12.11.32.21.33.33.03.34-.21.49-.51.4-.11-.03-.22-.31-.2-.44.02-.11.24-.19.38-.29Z" style="fill: #fff; stroke-width: 0px;"/>
  </g>
  <path d="m69.25,92.08c0-.99.14-2.01-.03-2.97-.5-2.9.75-3.71,3.5-3.52,4.19.29,8.15-.28,9.88-4.93.45-1.22.55-2.64.51-3.95-.13-4.13-.77-8.27,4.96-9.56,1.55-.35,3.03-2.22,1.06-4.36-1.04-1.13-1.8-2.56-2.49-3.95-1.59-3.19-3.59-6.13-4.06-9.9-.08-.68-.2-1.33-.34-1.98" style="fill: none; stroke: #fff; stroke-linecap: round; stroke-miterlimit: 10; stroke-width: 2px;"/>
  <path d="m31.89,46.95c-2.77,8.21-1.25,17.62,5.06,24.84,5,5.71,7.55,12.5,6.5,20.3" style="fill: none; stroke: #fff; stroke-linecap: round; stroke-miterlimit: 10; stroke-width: 2px;"/>
</svg>