<?xml version="1.0" encoding="UTF-8"?>
<svg id="Layer_1" data-name="Layer 1" xmlns="http://www.w3.org/2000/svg" viewBox="0 0 120 120" width="100%" height="100%">
  <g>
    <circle cx="60" cy="60" r="55.41" style="fill: #fff; stroke: #005178; stroke-miterlimit: 10; stroke-width: 6px;"/>
    <circle cx="60" cy="60" r="55.41" style="fill: #fff; stroke: #005178; stroke-miterlimit: 10; stroke-width: 6px;"/>
    <circle cx="60" cy="60" r="48.69" style="fill: #5a97cb; stroke-width: 0px;"/>
  </g>
  <g>
    <path d="m68.18,56.13c.07-.48.12-.98.12-1.48,0-.78-.09-1.55-.27-2.27l-1.44-.51c-.15-.43-.32-.84-.54-1.23l.63-1.32c-.72-1.08-1.65-2.01-2.75-2.73l-1.35.64c-.38-.2-.77-.36-1.17-.5l-.51-1.43c-.72-.18-1.45-.26-2.22-.26-.54,0-1.06.04-1.58.14l-.48,1.36c-.54.14-1.06.32-1.55.56l-1.38-.65c-1.03.62-1.93,1.43-2.65,2.38l.61,1.28c-.41.62-.73,1.3-.96,2.03l-1.4.5c-.15.65-.22,1.34-.22,2.04,0,.42.03.84.08,1.25l1.33.47c.19.9.53,1.75.98,2.52l-.62,1.31c.61.86,1.37,1.62,2.22,2.23l1.3-.61c.78.47,1.64.83,2.57,1.03l.47,1.33c.42.06.85.09,1.3.09.66,0,1.32-.06,1.94-.2l.49-1.39c.77-.23,1.5-.58,2.16-1.01l1.27.6c.93-.71,1.73-1.59,2.35-2.59l-.66-1.39c.26-.53.46-1.1.6-1.68l1.36-.48Z" style="fill: none; stroke: #fff; stroke-miterlimit: 10; stroke-width: 2px;"/>
    <circle cx="58.67" cy="54.65" r="3.01" style="fill: none; stroke: #fff; stroke-miterlimit: 10; stroke-width: 2px;"/>
  </g>
  <g>
    <path d="m35.69,43.81c-6.15,8.81-5.31,17.91,2.32,26.62,4.74,5.42,7.17,11.86,6.16,19.25" style="fill: none; stroke: #fff; stroke-linecap: round; stroke-miterlimit: 10; stroke-width: 2px;"/>
    <path d="m68.64,89.69c0-.94.13-1.9-.02-2.82-.47-2.75.71-3.52,3.32-3.34,3.97.28,7.73-.27,9.37-4.68.43-1.15.52-2.5.48-3.75-.12-3.91-.74-7.84,4.71-9.07,1.47-.33,2.87-2.1,1.01-4.14-.98-1.07-1.71-2.42-2.37-3.74-1.51-3.03-3.81-5.79-3.85-9.39-.15-12.98-8.74-19.41-23.08-18.32" style="fill: none; stroke: #fff; stroke-linecap: round; stroke-miterlimit: 10; stroke-width: 2px;"/>
  </g>
  <polygon points="49.18 35.04 49.18 25.92 42.85 25.92 42.85 35.04 38 35.04 46.02 43.71 54.03 35.04 49.18 35.04" style="fill: none; stroke: #fff; stroke-linecap: round; stroke-linejoin: round; stroke-width: 1.5px;"/>
</svg>