<?xml version="1.0" encoding="UTF-8"?>
<svg id="Layer_1" data-name="Layer 1" xmlns="http://www.w3.org/2000/svg" viewBox="0 0 120 120" width="100%" height="100%">
  <g>
    <circle cx="60" cy="60" r="55.41" style="fill: #fff; stroke: #005178; stroke-miterlimit: 10; stroke-width: 6px;"/>
    <circle cx="60" cy="60" r="48.69" style="fill: #5a97cb; stroke-width: 0px;"/>
    <circle cx="60" cy="60" r="55.41" style="fill: #fff; stroke: #005178; stroke-miterlimit: 10; stroke-width: 6px;"/>
    <circle cx="59.65" cy="59.93" r="48.69" style="fill: #5a97cb; stroke-width: 0px;"/>
  </g>
  <g>
    <circle cx="60" cy="60" r="34.33" style="fill: none; stroke: #fff; stroke-linejoin: round; stroke-width: 2px;"/>
    <line x1="35.82" y1="84.24" x2="84.18" y2="35.88" style="fill: none; stroke: #fff; stroke-linejoin: round; stroke-width: 2px;"/>
  </g>
  <g>
    <path d="m69.61,63.24l-8.42,8.42-6.76-6.76c-9.31-9.31-15.17-22.7-10.52-27.35h0s25.69,25.69,25.69,25.69Z" style="fill: none; stroke: #fff; stroke-linecap: round; stroke-linejoin: round; stroke-width: 2px;"/>
    <rect x="68.57" y="64.5" width="5.44" height="14.18" transform="translate(-29.74 71.38) rotate(-45)" style="fill: none; stroke: #fff; stroke-linejoin: round; stroke-width: 2px;"/>
    <rect x="73.37" y="76.1" width="8.26" height="3.39" transform="translate(-32.31 77.59) rotate(-45)" style="fill: none; stroke: #fff; stroke-linecap: round; stroke-linejoin: round; stroke-width: 2px;"/>
  </g>
  <line x1="67.25" y1="70.59" x2="67.25" y2="66.23" style="fill: none; stroke: #fff; stroke-linecap: round; stroke-linejoin: round; stroke-width: .75px;"/>
  <line x1="69.21" y1="72.63" x2="69.21" y2="65.63" style="fill: none; stroke: #fff; stroke-linecap: round; stroke-linejoin: round; stroke-width: .75px;"/>
  <line x1="71.17" y1="74.46" x2="71.17" y2="67.46" style="fill: none; stroke: #fff; stroke-linecap: round; stroke-linejoin: round; stroke-width: .75px;"/>
  <line x1="73.13" y1="76.28" x2="73.13" y2="69.29" style="fill: none; stroke: #fff; stroke-linecap: round; stroke-linejoin: round; stroke-width: .75px;"/>
  <line x1="75.09" y1="78.43" x2="75.09" y2="71.43" style="fill: none; stroke: #fff; stroke-linecap: round; stroke-linejoin: round; stroke-width: .75px;"/>
</svg>