<?xml version="1.0" encoding="UTF-8"?>
<svg id="Layer_1" data-name="Layer 1" xmlns="http://www.w3.org/2000/svg" viewBox="0 0 120 120" width="100%" height="100%">
  <g>
    <g>
      <circle cx="60" cy="60" r="55.41" style="fill: #fff; stroke: #005178; stroke-miterlimit: 10; stroke-width: 6px;"/>
      <circle cx="60" cy="60" r="55.41" style="fill: #fff; stroke: #005178; stroke-miterlimit: 10; stroke-width: 6px;"/>
      <circle cx="60" cy="60" r="48.69" style="fill: #5a97cb; stroke-width: 0px;"/>
    </g>
    <line x1="31.13" y1="54.07" x2="31.13" y2="80.59" style="fill: none; stroke: #fff; stroke-linecap: round; stroke-linejoin: round; stroke-width: 2px;"/>
    <line x1="90.65" y1="60.36" x2="90.65" y2="80.59" style="fill: none; stroke: #fff; stroke-linecap: round; stroke-linejoin: round; stroke-width: 2px;"/>
    <line x1="31.13" y1="77.26" x2="90.48" y2="77.26" style="fill: none; stroke: #fff; stroke-linecap: round; stroke-linejoin: round; stroke-width: 2px;"/>
    <line x1="90.48" y1="73.32" x2="31.69" y2="73.32" style="fill: none; stroke: #fff; stroke-linecap: round; stroke-linejoin: round; stroke-width: 2px;"/>
    <line x1="90.59" y1="67.14" x2="31.36" y2="67.14" style="fill: none; stroke: #fff; stroke-linecap: round; stroke-linejoin: round; stroke-width: 2px;"/>
  </g>
  <g>
    <path d="m47.69,58.62c.24,1.33.44,2.67.76,3.98.05.23.59.48.91.48.41,0,.78-.11,1.15-.25.71-.27,1.39-.69,2.24-.87,1.62-.34,2.52-.08,3.41-.92.88-.85.55-2.1-.56-2.68-3.35-1.76-6.72-3.5-10.06-5.28-1.08-.58-1.93-.07-2.76.45-.74.47-1.03,1.22-.84,2.09.76,3.39,1.5,6.78,2.31,10.15" style="fill: none; stroke: #fff; stroke-linecap: round; stroke-linejoin: round; stroke-width: 2px;"/>
    <path d="m46.41,57.78c1.61,1.33,7.87,4.43,9.12,3.73" style="fill: none; stroke: #fff; stroke-linecap: round; stroke-linejoin: round; stroke-width: 2px;"/>
    <circle cx="42.53" cy="47.61" r="3.63" style="fill: none; stroke: #fff; stroke-linecap: round; stroke-linejoin: round; stroke-width: 2px;"/>
  </g>
  <path d="m52.11,37.32c.21,0,.36.21.28.42l-.61,1.47c-.08.2.07.42.28.42.02,0,.03,0,.05,0l1.62-.24s.03,0,.05,0c.25,0,.4.3.22.5,0,0-3.9,4.61-4.08,4.84-.08.11-.17.15-.24.15-.08,0-.13-.07-.08-.2.09-.24,1.36-3.14,1.36-3.14.09-.2-.06-.42-.27-.42-.02,0-.03,0-.05,0l-1.32.2s-.03,0-.05,0c-.2,0-.35-.2-.28-.4l1.13-3.13c.04-.1.13-.18.24-.2l1.71-.26s.03,0,.05,0m0-1h-.19s-1.71.27-1.71.27c-.47.07-.87.39-1.03.84l-1.13,3.13c-.14.4-.08.84.16,1.19.24.35.64.55,1.06.55h.19s.07-.03.07-.03c-.38.87-.82,1.87-.88,2.03-.14.38-.1.78.12,1.09.2.29.54.47.9.47.39,0,.76-.2,1.03-.54.15-.19,2.51-2.98,4.06-4.81.32-.37.41-.92.19-1.38-.21-.46-.67-.76-1.18-.76h-.2s-.4.07-.4.07l.14-.33c.17-.4.12-.86-.12-1.22-.24-.36-.65-.58-1.08-.58h0Z" style="fill: #fff; stroke-width: 0px;"/>
  <path d="m32.61,38.37c.13,0,.25.08.29.22l.44,1.52c.04.14.16.22.29.22.08,0,.16-.03.22-.1l1.11-1.2c.06-.07.14-.1.22-.1.16,0,.31.13.3.32,0,0-.16,6.03-.16,6.33,0,.18-.08.3-.16.3-.05,0-.1-.04-.13-.13-.08-.24-.89-3.3-.89-3.3-.04-.14-.16-.22-.29-.22-.08,0-.16.03-.22.1l-.91.98c-.06.07-.14.1-.22.1-.12,0-.24-.07-.29-.2l-1.07-3.15c-.04-.11-.01-.22.06-.3l1.18-1.27c.06-.07.14-.1.22-.1m0-1c-.36,0-.71.15-.95.42l-1.18,1.27c-.33.35-.43.85-.28,1.3l1.07,3.15c.18.53.68.88,1.23.88.36,0,.71-.15.95-.42l.05-.05c.25.92.53,1.97.58,2.14.16.5.59.82,1.08.82.29,0,.57-.12.79-.33.24-.24.37-.59.37-.97,0-.24.1-3.9.16-6.3.01-.34-.11-.68-.36-.94-.25-.26-.59-.4-.94-.4-.36,0-.71.15-.95.42l-.27.29-.1-.34c-.16-.56-.67-.94-1.25-.94h0Z" style="fill: #fff; stroke-width: 0px;"/>
  <rect x="31.91" y="61.23" width="11.44" height="5.15" rx="2.58" ry="2.58" style="fill: none; stroke: #fff; stroke-linecap: round; stroke-linejoin: round; stroke-width: 2px;"/>
  <line x1="47.7" y1="67.14" x2="50.77" y2="62.72" style="fill: none; stroke: #fff; stroke-linecap: round; stroke-linejoin: round; stroke-width: 2px;"/>
  <path d="m56.38,59.08s13.84,1.35,17.43,1.75,3.38-3.04,6.96-3.04,9.35,9.36,9.35,9.36" style="fill: none; stroke: #fff; stroke-linecap: round; stroke-linejoin: round; stroke-width: 2px;"/>
  <g>
    <path d="m74.73,49.55c-4.83,0-8.74-3.91-8.74-8.74s3.91-8.74,8.74-8.74,8.74,3.91,8.74,8.74c0,4.82-3.91,8.73-8.74,8.74Zm0-16.63c-4.36,0-7.89,3.53-7.89,7.89s3.53,7.89,7.89,7.89,7.89-3.53,7.89-7.89c0-4.36-3.53-7.89-7.89-7.89Z" style="fill: #fff; stroke-width: 0px;"/>
    <path d="m65.2,47.04c-.15,0-.28-.07-.36-.2-2.12-3.38-2.38-7.59-.71-11.21.1-.21.35-.3.56-.2.21.1.3.35.2.56-1.55,3.35-1.31,7.26.66,10.4.13.2.07.46-.13.59-.07.04-.15.07-.23.07h0Z" style="fill: #fff; stroke-width: 0px;"/>
    <path d="m74.38,52.27h-.01c-.47-.01-.94-.06-1.4-.13-.23-.03-.4-.24-.37-.47.03-.23.24-.4.47-.37,0,0,.01,0,.02,0,.43.07.86.1,1.3.12.23,0,.42.2.42.43s-.2.42-.43.42h0Zm-2.68-.4s-.08,0-.11-.02c-.45-.13-.9-.28-1.33-.46-.22-.09-.32-.34-.23-.55.09-.22.34-.32.55-.23h0c.4.17.81.31,1.23.42.23.06.36.3.29.52-.05.18-.22.31-.41.31Zm-2.5-1.03c-.07,0-.14-.02-.21-.05-.41-.23-.8-.48-1.18-.76-.19-.14-.23-.4-.09-.59.14-.19.4-.23.59-.09.35.26.72.49,1.1.71.2.12.28.37.16.58-.08.13-.22.22-.37.22h0Zm-2.18-1.6c-.11,0-.21-.04-.29-.11-.09-.09-.18-.17-.27-.26-.24-.24-.48-.5-.7-.76-.15-.18-.13-.45.05-.6.18-.15.45-.13.6.05,0,0,0,0,0,0,.2.24.42.48.64.7.08.08.17.16.25.24.17.16.18.43.02.6-.08.09-.19.13-.31.13h0Z" style="fill: #fff; stroke-width: 0px;"/>
    <path d="m65.82,36.66c-.18,0-.35-.12-.4-.29l-.46-1.43-1.43.46c-.22.07-.46-.05-.53-.28-.07-.22.05-.46.27-.53l1.47-.48c.42-.14.87.09,1.01.51,0,0,0,0,0,0l.48,1.47c.07.22-.05.46-.27.53-.04.01-.09.02-.13.02Z" style="fill: #fff; stroke-width: 0px;"/>
    <path d="m83.74,48.17c-.23,0-.42-.19-.42-.43,0-.09.03-.18.08-.25,2.19-2.98,2.73-6.86,1.43-10.32-.08-.22.03-.46.25-.55.22-.08.46.03.55.25,1.4,3.73.82,7.92-1.54,11.13-.08.11-.21.17-.34.17Z" style="fill: #fff; stroke-width: 0px;"/>
    <path d="m84.6,36.09c-.16,0-.3-.08-.37-.22-.15-.28-.32-.55-.49-.82-.07-.1-.13-.19-.2-.29-.14-.19-.1-.45.09-.59.19-.14.45-.1.59.09,0,0,0,.01.01.02.07.1.14.21.21.31.19.29.37.58.53.88.11.21.04.46-.17.58-.06.03-.13.05-.2.05h0Zm-1.57-2.21c-.12,0-.23-.05-.31-.14-.29-.32-.6-.63-.93-.91-.18-.16-.19-.42-.04-.6.15-.17.42-.19.59-.04.36.31.69.64,1.01.98.16.17.14.44-.03.6-.08.07-.18.11-.28.11h0Zm-2.05-1.77c-.08,0-.17-.02-.24-.07-.36-.24-.74-.46-1.13-.66-.21-.11-.29-.36-.19-.57.11-.21.36-.29.57-.19,0,0,0,0,0,0,.42.21.82.45,1.21.71.19.13.25.39.12.59-.08.12-.21.19-.35.19h0Zm-2.41-1.23s-.1,0-.15-.03c-.41-.15-.83-.27-1.25-.37-.23-.05-.37-.28-.32-.51s.28-.37.51-.32c.46.11.91.24,1.35.4.22.08.34.32.26.54-.06.17-.22.29-.41.28Z" style="fill: #fff; stroke-width: 0px;"/>
    <path d="m83.1,49.37c-.41,0-.75-.31-.8-.71l-.18-1.54c-.03-.23.14-.44.37-.47s.44.14.47.37c0,0,0,0,0,0l.17,1.49,1.49-.17c.23-.03.44.14.47.37s-.14.44-.37.47l-1.54.17s-.06,0-.09,0Z" style="fill: #fff; stroke-width: 0px;"/>
    <path d="m74.46,42.64c-.06-.8.12-1.55,1.02-2.15,3.21-2.45-2.05-5.48-3.03-1.63" style="fill: none; stroke: #fff; stroke-linecap: round; stroke-linejoin: round; stroke-width: 2px;"/>
    <circle cx="74.47" cy="45.13" r=".75" style="fill: #fff; stroke-width: 0px;"/>
  </g>
</svg>