<?xml version="1.0" encoding="UTF-8"?>
<svg id="Layer_1" data-name="Layer 1" xmlns="http://www.w3.org/2000/svg" viewBox="0 0 120 120" width="100%" height="100%">
  <g>
    <circle cx="60" cy="60" r="55.41" style="fill: #fff; stroke: #005178; stroke-miterlimit: 10; stroke-width: 6px;"/>
    <circle cx="60" cy="60" r="48.69" style="fill: #5a97cb; stroke-width: 0px;"/>
    <circle cx="60" cy="60" r="55.41" style="fill: #fff; stroke: #005178; stroke-miterlimit: 10; stroke-width: 6px;"/>
    <circle cx="60" cy="60" r="48.69" style="fill: #5a97cb; stroke-width: 0px;"/>
  </g>
  <g>
    <path d="m77.41,47.03c-3.7-6.21-12.39-10.56-22.51-10.56-13.49,0-24.42,7.73-24.42,17.27,0,3.01,1.09,5.84,3.01,8.31.27.35-2.77,12.61-2.46,12.95" style="fill: none; stroke: #fff; stroke-miterlimit: 10; stroke-width: 2.5px;"/>
    <path d="m30.65,74.67c.64.28,12.55-5.77,13.23-5.53,3.31,1.19,7.06,1.86,11.03,1.86,13.49,0,24.42-7.73,24.42-17.27,0-2.38-.68-4.64-1.91-6.7" style="fill: none; stroke: #fff; stroke-miterlimit: 10; stroke-width: 2.5px;"/>
    <path d="m76.02,44.83c8.47,2.71,13.5,8.44,13.5,15.45,0,3.01-1.09,5.84-3.01,8.31-.27.35,2.77,12.61,2.46,12.95" style="fill: none; stroke: #fff; stroke-miterlimit: 10; stroke-width: 2.5px;"/>
    <path d="m89.35,81.22c-.64.28-12.55-5.77-13.23-5.53-3.31,1.19-7.06,1.86-11.03,1.86-10.11,0-17.51-2.21-21.22-8.41" style="fill: none; stroke: #fff; stroke-miterlimit: 10; stroke-width: 2.5px;"/>
  </g>
  <path d="m54.96,55.83c-.09-1.25.18-2.42,1.59-3.37,5.02-3.84-3.21-8.58-4.74-2.56" style="fill: none; stroke: #fff; stroke-linecap: round; stroke-linejoin: round; stroke-width: 2px;"/>
  <circle cx="54.99" cy="59.41" r="1.3" style="fill: #fff; stroke-width: 0px;"/>
</svg>