<?xml version="1.0" encoding="UTF-8"?>
<svg id="Layer_1" data-name="Layer 1" xmlns="http://www.w3.org/2000/svg" viewBox="0 0 120 120" width="100%" height="100%">
  <g>
    <circle cx="60" cy="60" r="55.41" style="fill: #fff; stroke: #005178; stroke-miterlimit: 10; stroke-width: 6px;"/>
    <circle cx="60" cy="60" r="48.69" style="fill: #5a97cb; stroke-width: 0px;"/>
    <circle cx="60" cy="60" r="55.41" style="fill: #fff; stroke: #005178; stroke-miterlimit: 10; stroke-width: 6px;"/>
    <circle cx="60" cy="60" r="48.69" style="fill: #5a97cb; stroke-width: 0px;"/>
  </g>
  <g>
    <g>
      <path d="m34.76,63.63c0-3.36-2.72-6.08-6.08-6.08s-6.08,2.72-6.08,6.08c0,.09.01.19.01.28,0,.05-.01.09-.01.14v4.38c0,.71.58,1.28,1.28,1.28h9.6c.71,0,1.28-.58,1.28-1.28v-4.38s0-.09-.01-.14c0-.09.01-.19.01-.28Z" style="fill: none; stroke: #fff; stroke-miterlimit: 10; stroke-width: 1.5px;"/>
      <circle cx="28.67" cy="53.54" r="4" style="fill: none; stroke: #fff; stroke-miterlimit: 10; stroke-width: 1.5px;"/>
    </g>
    <g>
      <path d="m98.45,65.92c0-3.36-2.72-6.08-6.08-6.08s-6.08,2.72-6.08,6.08c0,.09.01.19.01.28,0,.05-.01.09-.01.14v4.38c0,.71.58,1.28,1.28,1.28h9.6c.71,0,1.28-.58,1.28-1.28v-4.38s0-.09-.01-.14c0-.09.01-.19.01-.28Z" style="fill: none; stroke: #fff; stroke-miterlimit: 10; stroke-width: 1.5px;"/>
      <circle cx="92.37" cy="55.83" r="4" style="fill: none; stroke: #fff; stroke-miterlimit: 10; stroke-width: 1.5px;"/>
    </g>
    <g>
      <path d="m65.96,35.05c0-3.36-2.72-6.08-6.08-6.08s-6.08,2.72-6.08,6.08c0,.09.01.19.01.28,0,.05-.01.09-.01.14v4.38c0,.71.58,1.28,1.28,1.28h9.6c.71,0,1.28-.58,1.28-1.28v-4.38s0-.09-.01-.14c0-.09.01-.19.01-.28Z" style="fill: none; stroke: #fff; stroke-miterlimit: 10; stroke-width: 1.5px;"/>
      <circle cx="59.88" cy="24.96" r="4" style="fill: none; stroke: #fff; stroke-miterlimit: 10; stroke-width: 1.5px;"/>
    </g>
    <g>
      <path d="m65.96,90.96c0-3.36-2.72-6.08-6.08-6.08s-6.08,2.72-6.08,6.08c0,.09.01.19.01.28,0,.05-.01.09-.01.14v4.38c0,.71.58,1.28,1.28,1.28h9.6c.71,0,1.28-.58,1.28-1.28v-4.38s0-.09-.01-.14c0-.09.01-.19.01-.28Z" style="fill: none; stroke: #fff; stroke-miterlimit: 10; stroke-width: 1.5px;"/>
      <circle cx="59.88" cy="80.87" r="4" style="fill: none; stroke: #fff; stroke-miterlimit: 10; stroke-width: 1.5px;"/>
    </g>
    <g>
      <circle cx="92.23" cy="57.23" r="11.19" style="fill: none; stroke: #fff; stroke-linecap: round; stroke-miterlimit: 10; stroke-width: 1.5px;"/>
      <line x1="75.83" y1="73.63" x2="84.32" y2="65.14" style="fill: none; stroke: #fff; stroke-linecap: round; stroke-miterlimit: 10; stroke-width: 1.5px;"/>
    </g>
    <g>
      <line x1="36.98" y1="48.12" x2="47.68" y2="37.42" style="fill: none; stroke: #fff; stroke-linecap: round; stroke-miterlimit: 10; stroke-width: 1.5px;"/>
      <line x1="72.33" y1="37.42" x2="81.82" y2="46.91" style="fill: none; stroke: #fff; stroke-linecap: round; stroke-miterlimit: 10; stroke-width: 1.5px;"/>
      <line x1="47.68" y1="82.26" x2="36.98" y2="71.56" style="fill: none; stroke: #fff; stroke-linecap: round; stroke-miterlimit: 10; stroke-width: 1.5px;"/>
      <line x1="81.82" y1="72.77" x2="72.33" y2="82.26" style="fill: none; stroke: #fff; stroke-linecap: round; stroke-miterlimit: 10; stroke-width: 1.5px;"/>
    </g>
    <circle cx="59.88" cy="57.23" r="2.86" style="fill: none; stroke: #fff; stroke-linecap: round; stroke-miterlimit: 10; stroke-width: 1.5px;"/>
    <line x1="59.88" y1="54.38" x2="59.88" y2="50.27" style="fill: none; stroke: #fff; stroke-linecap: round; stroke-miterlimit: 10; stroke-width: 1.5px;"/>
    <line x1="57.02" y1="57.23" x2="52.92" y2="57.23" style="fill: none; stroke: #fff; stroke-linecap: round; stroke-miterlimit: 10; stroke-width: 1.5px;"/>
    <line x1="59.88" y1="60.09" x2="59.88" y2="64.2" style="fill: none; stroke: #fff; stroke-linecap: round; stroke-miterlimit: 10; stroke-width: 1.5px;"/>
    <line x1="62.74" y1="57.23" x2="66.84" y2="57.23" style="fill: none; stroke: #fff; stroke-linecap: round; stroke-miterlimit: 10; stroke-width: 1.5px;"/>
  </g>
</svg>