<?xml version="1.0" encoding="UTF-8"?>
<svg id="Layer_1" data-name="Layer 1" xmlns="http://www.w3.org/2000/svg" viewBox="0 0 120 120" width="100%" height="100%">
  <g>
    <circle cx="60" cy="60" r="55.41" style="fill: #fff; stroke: #005178; stroke-miterlimit: 10; stroke-width: 6px;"/>
    <circle cx="60" cy="60" r="55.41" style="fill: #fff; stroke: #005178; stroke-miterlimit: 10; stroke-width: 6px;"/>
    <circle cx="60" cy="60" r="48.69" style="fill: #5a97cb; stroke-width: 0px;"/>
  </g>
  <g>
    <g>
      <path d="m21.57,54.25l8.57-2.36c.55-.15,1.13-.11,1.65.11l14.67,6.16c1.24.52,1.82,1.94,1.3,3.18h0c-.52,1.24-1.94,1.82-3.18,1.3l-7.92-3.33" style="fill: none; stroke: #fff; stroke-linecap: round; stroke-linejoin: round; stroke-width: 1.5px;"/>
      <path d="m23.72,63.32l4.79-.85,13.79,4.86,18.94-1.79c1.65-.16,2.82-1.69,2.53-3.33h0c-.26-1.47-1.61-2.49-3.1-2.34l-9.51,1" style="fill: none; stroke: #fff; stroke-linecap: round; stroke-linejoin: round; stroke-width: 1.5px;"/>
    </g>
    <g>
      <path d="m96.33,80.44l-7.35-5c-.47-.32-1.03-.47-1.59-.43l-15.88,1.09c-1.34.09-2.35,1.25-2.25,2.59h0c.09,1.34,1.25,2.35,2.59,2.25l8.57-.59" style="fill: none; stroke: #fff; stroke-linecap: round; stroke-linejoin: round; stroke-width: 1.5px;"/>
      <path d="m91.37,88.33l-4.26-2.36-14.62.14-17.35-7.81c-1.51-.68-2.12-2.51-1.32-3.97h0c.72-1.31,2.33-1.84,3.69-1.21l8.67,4.02" style="fill: none; stroke: #fff; stroke-linecap: round; stroke-linejoin: round; stroke-width: 1.5px;"/>
    </g>
    <path d="m66.07,42.26c.08-.54.13-1.08.13-1.64,0-.86-.1-1.71-.3-2.51l-1.59-.57c-.17-.47-.36-.93-.59-1.36l.7-1.46c-.79-1.2-1.83-2.22-3.04-3.02l-1.49.71c-.41-.22-.85-.4-1.3-.56l-.56-1.58c-.79-.2-1.61-.29-2.46-.29-.59,0-1.18.05-1.75.15l-.53,1.5c-.6.15-1.17.36-1.71.62l-1.53-.72c-1.14.69-2.13,1.58-2.93,2.63l.67,1.41c-.45.69-.81,1.44-1.07,2.24l-1.55.55c-.16.72-.24,1.48-.24,2.26,0,.47.03.93.09,1.39l1.47.52c.21,1,.59,1.93,1.09,2.79l-.69,1.45c.68.95,1.51,1.79,2.46,2.47l1.43-.68c.87.52,1.82.92,2.84,1.13l.52,1.47c.47.07.94.1,1.43.1.73,0,1.46-.07,2.14-.22l.55-1.54c.86-.26,1.66-.64,2.39-1.12l1.4.67c1.02-.78,1.91-1.76,2.6-2.86l-.73-1.53c.29-.59.51-1.21.67-1.86l1.5-.53Z" style="fill: none; stroke: #fff; stroke-miterlimit: 10; stroke-width: 1.5px;"/>
    <circle cx="55.56" cy="40.62" r="3.33" style="fill: none; stroke: #fff; stroke-miterlimit: 10; stroke-width: 1.5px;"/>
    <g>
      <line x1="71.05" y1="39.85" x2="73.05" y2="39.85" style="fill: none; stroke: #fff; stroke-linecap: round; stroke-linejoin: round; stroke-width: 1.5px;"/>
      <polyline points="76.74 39.85 78.74 39.85 78.74 41.85" style="fill: none; stroke: #fff; stroke-linecap: round; stroke-linejoin: round; stroke-width: 1.5px;"/>
      <line x1="78.74" y1="45.37" x2="78.74" y2="64.77" style="fill: none; stroke: #fff; stroke-dasharray: 0 0 3.53 3.53; stroke-linecap: round; stroke-linejoin: round; stroke-width: 1.5px;"/>
      <line x1="78.74" y1="66.54" x2="78.74" y2="68.54" style="fill: none; stroke: #fff; stroke-linecap: round; stroke-linejoin: round; stroke-width: 1.5px;"/>
    </g>
    <polyline points="83.38 65.31 78.74 69.95 74.1 65.31" style="fill: none; stroke: #fff; stroke-linecap: round; stroke-linejoin: round; stroke-width: 1.5px;"/>
  </g>
</svg>