<?xml version="1.0" encoding="UTF-8"?>
<svg id="Layer_1" data-name="Layer 1" xmlns="http://www.w3.org/2000/svg" viewBox="0 0 120 120" width="100%" height="100%">
  <g>
    <circle cx="60" cy="60" r="55.41" style="fill: #fff; stroke: #005178; stroke-miterlimit: 10; stroke-width: 6px;"/>
    <circle cx="60" cy="60" r="48.69" style="fill: #5a97cb; stroke-width: 0px;"/>
  </g>
  <path d="m33.07,52.21c-.87,0-1.58-.71-1.58-1.58,0-.18.03-.36.09-.52,2.19-6.2,6.33-11.53,11.8-15.18.73-.48,1.71-.29,2.2.44.48.73.29,1.71-.44,2.2-4.9,3.26-8.61,8.03-10.56,13.59-.22.64-.82,1.06-1.49,1.06Z" style="fill: #fff; stroke-width: 0px;"/>
  <circle cx="50.5" cy="33.07" r="1.58" style="fill: #fff; stroke-width: 0px;"/>
  <path d="m60,14.07c-25.37,0-45.93,20.57-45.93,45.93s20.57,45.93,45.93,45.93,45.93-20.57,45.93-45.93c-.03-25.36-20.58-45.91-45.93-45.93Zm0,88.7c-23.62,0-42.77-19.15-42.77-42.77S36.38,17.23,60,17.23s42.77,19.15,42.77,42.77c-.03,23.61-19.16,42.74-42.77,42.77Z" style="fill: #fff; stroke-width: 0px;"/>
  <path d="m60,23.57c-20.12,0-36.43,16.31-36.43,36.43s16.31,36.43,36.43,36.43,36.43-16.31,36.43-36.43c-.02-20.11-16.32-36.41-36.43-36.43Zm1.58,69.61v-4.67c0-.87-.71-1.58-1.58-1.58s-1.58.71-1.58,1.58v4.67c-17.1-.83-30.77-14.5-31.6-31.6h4.67c.87,0,1.58-.71,1.58-1.58s-.71-1.58-1.58-1.58h-4.67c.83-17.1,14.5-30.77,31.6-31.6v4.67c0,.87.71,1.58,1.58,1.58s1.58-.71,1.58-1.58v-4.67c17.1.83,30.77,14.5,31.6,31.6h-4.67c-.87,0-1.58.71-1.58,1.58s.71,1.58,1.58,1.58h4.67c-.83,17.1-14.5,30.77-31.6,31.6Z" style="fill: #fff; stroke-width: 0px;"/>
  <path d="m72.67,58.42h-11.09v-17.42c0-.87-.71-1.58-1.58-1.58s-1.58.71-1.58,1.58v19.01c0,.87.71,1.58,1.58,1.58h12.67c.87,0,1.58-.71,1.58-1.58s-.71-1.58-1.58-1.58Z" style="fill: #fff; stroke-width: 0px;"/>
</svg>