<?xml version="1.0" encoding="UTF-8"?>
<svg id="Layer_1" data-name="Layer 1" xmlns="http://www.w3.org/2000/svg" viewBox="0 0 120 120" width="100%" height="100%">
  <g>
    <circle cx="60" cy="60" r="55.41" style="fill: #fff; stroke: #005178; stroke-miterlimit: 10; stroke-width: 6px;"/>
    <circle cx="60" cy="60" r="48.69" style="fill: #5a97cb; stroke-width: 0px;"/>
    <circle cx="60" cy="60" r="55.41" style="fill: #fff; stroke: #005178; stroke-miterlimit: 10; stroke-width: 6px;"/>
    <circle cx="60" cy="60" r="48.69" style="fill: #5a97cb; stroke-width: 0px;"/>
  </g>
  <path d="m59.29,70.04c-2.58,2.45-6.07,3.96-9.92,3.96-7.95,0-14.4-6.45-14.4-14.4,0-6.76,4.66-12.43,10.94-13.98,1.11-.27,2.26-.42,3.45-.42,2.39,0,4.64.58,6.62,1.61,4.62,2.4,7.78,7.22,7.78,12.79" style="fill: none; stroke: #fff; stroke-linecap: round; stroke-linejoin: round; stroke-width: 2.5px;"/>
  <path d="m54.22,41.72c2.61-2.61,6.2-4.22,10.18-4.22,7.95,0,14.4,6.45,14.4,14.4s-6.45,14.4-14.4,14.4-14.4-6.45-14.4-14.4" style="fill: none; stroke: #fff; stroke-linecap: round; stroke-linejoin: round; stroke-width: 2.5px;"/>
  <line x1="49.38" y1="74" x2="49.38" y2="89.23" style="fill: none; stroke: #fff; stroke-linecap: round; stroke-linejoin: round; stroke-width: 2.5px;"/>
  <line x1="43" y1="83.6" x2="55.99" y2="83.6" style="fill: none; stroke: #fff; stroke-linecap: round; stroke-linejoin: round; stroke-width: 2.5px;"/>
  <g>
    <line x1="74.36" y1="41.52" x2="84.17" y2="31.63" style="fill: none; stroke: #fff; stroke-linecap: round; stroke-linejoin: round; stroke-width: 2.5px;"/>
    <path d="m84.37,46.19h0c-.77-.02-1.38-.67-1.35-1.44l.4-12.36-12.36.51c-.77.03-1.42-.57-1.45-1.34h0c-.03-.77.57-1.42,1.34-1.45l13.17-.54c1.19-.05,2.16.92,2.12,2.11l-.42,13.17c-.02.77-.67,1.38-1.44,1.35Z" style="fill: #fff; stroke-width: 0px;"/>
  </g>
</svg>