<?xml version="1.0" encoding="UTF-8"?>
<svg id="Layer_1" data-name="Layer 1" xmlns="http://www.w3.org/2000/svg" viewBox="0 0 120 120" width="100%" height="100%">
  <g>
    <circle cx="60" cy="60" r="55.41" style="fill: #fff; stroke: #005178; stroke-miterlimit: 10; stroke-width: 6px;"/>
    <circle cx="60" cy="60" r="55.41" style="fill: #fff; stroke: #005178; stroke-miterlimit: 10; stroke-width: 6px;"/>
    <circle cx="60" cy="60" r="48.69" style="fill: #5a97cb; stroke-width: 0px;"/>
  </g>
  <path d="m67.34,61.02s.49-.11,2.86.13c2.33.24,3.22.41,3.36.57.99,1.13,1.75,2.88,1.75,4.38-.01,6.73,0,11.66,0,18.39,0,1.22-.5,1.85-1.41,1.85-.91,0-1.43-.64-1.43-1.84,0-6.64,0-11.49-.02-18.13,0-.61-.12-1.27-.38-1.81-.42-.9-1.52-1.32-2.48-1.13-.98.2-1.76,1-1.92,1.96-.03.2-.04.4-.09.59-.21.85-.74,1.26-1.51,1.2-.8-.07-1.43-.65-1.27-1.52.21-1.18.69-3.28,2.55-4.65Z" style="fill: none; stroke: #fff; stroke-linecap: round; stroke-linejoin: round; stroke-width: 1.5px;"/>
  <path d="m64.41,60.52c-1.52-.16-2.4-1.01-2.93-2.39-.8-2.08-1.69-4.12-2.5-6.2-.21-.54-.34-.49-.71-.15-2.52,2.37-4.61,5.07-6.35,8.06-.16.28-.23.65-.25.98-.39,6.26-.76,12.51-1.14,18.77-.08,1.37-.12,2.75-.29,4.11-.26,2.05-1.78,3.33-3.74,3.26-1.93-.07-3.37-1.49-3.52-3.53-.18-2.57-.33-5.14-.49-7.71-.29-4.68-.52-9.37-.88-14.05-.22-2.87.26-5.47,1.91-7.9,2.27-3.34,4.43-6.77,7.54-9.4,1.34-1.13,2.86-2.11,4.43-2.9,2.54-1.27,5.67.18,6.8,2.98,1.33,3.28,2.66,6.56,3.97,9.86.23.58.53.9,1.17,1.07,2.18.56,4.35,1.21,6.52,1.82,1.73.49,2.63,1.21,2.44,2.6s-1.04,1.97-2.48,1.79c-3.08-.38-8.66-.99-9.51-1.07Z" style="fill: none; stroke: #fff; stroke-miterlimit: 10; stroke-width: 1.5px;"/>
  <path d="m68.82,33.32v1.5c2.28,0,4.21,1.93,4.23,4.19.01,1.08-.43,2.13-1.23,2.94-.81.81-1.9,1.28-3.01,1.28-2.3,0-4.19-1.89-4.22-4.2-.01-1.07.42-2.11,1.22-2.92.81-.82,1.9-1.29,3-1.29v-1.5m0,0c-3.11,0-5.76,2.65-5.72,5.73.04,3.11,2.61,5.67,5.71,5.68h.02c3.12,0,5.76-2.64,5.73-5.73-.03-3.1-2.61-5.66-5.71-5.67h-.02Z" style="fill: #fff; stroke-width: 0px;"/>
</svg>