<?xml version="1.0" encoding="UTF-8"?>
<svg id="Layer_1" data-name="Layer 1" xmlns="http://www.w3.org/2000/svg" viewBox="0 0 120 120" width="100%" height="100%">
  <g>
    <circle cx="60" cy="60" r="55.41" style="fill: #fff; stroke: #005178; stroke-miterlimit: 10; stroke-width: 6px;"/>
    <circle cx="60" cy="60" r="55.41" style="fill: #fff; stroke: #005178; stroke-miterlimit: 10; stroke-width: 6px;"/>
    <circle cx="60" cy="60" r="48.69" style="fill: #5a97cb; stroke-width: 0px;"/>
  </g>
  <g>
    <circle cx="50.53" cy="32.28" r="5.16" style="fill: none; stroke: #fff; stroke-linecap: round; stroke-linejoin: round; stroke-width: 1.5px;"/>
    <circle cx="82.75" cy="61.74" r="5.16" style="fill: none; stroke: #fff; stroke-linecap: round; stroke-linejoin: round; stroke-width: 1.5px;"/>
    <path d="m43.37,65.56l1.37-20.01c.32-4.64,6-6.69,9.2-3.31l12.95,13.67c.83.88.79,2.26-.09,3.09h0c-.84.79-2.16.79-3-.01l-8.46-8.05-.55,13.33" style="fill: none; stroke: #fff; stroke-linecap: round; stroke-linejoin: round; stroke-width: 1.5px;"/>
    <line x1="31.7" y1="76.17" x2="70.62" y2="76.17" style="fill: none; stroke: #fff; stroke-linecap: round; stroke-linejoin: round; stroke-width: 1.5px;"/>
    <line x1="31.7" y1="79.18" x2="70.62" y2="79.18" style="fill: none; stroke: #fff; stroke-linecap: round; stroke-linejoin: round; stroke-width: 1.5px;"/>
    <line x1="36.32" y1="76.17" x2="36.32" y2="87.62" style="fill: none; stroke: #fff; stroke-linecap: round; stroke-linejoin: round; stroke-width: 1.5px;"/>
    <line x1="66.19" y1="76.17" x2="66.19" y2="87.62" style="fill: none; stroke: #fff; stroke-linecap: round; stroke-linejoin: round; stroke-width: 1.5px;"/>
    <path d="m32.5,67.17l36.07-3.52c2.83-.28,5.6.98,7.25,3.3l3.87,4.81c.77.95,2.05,1.31,3.2.9l6-2.25c1.31-.49,2.77.15,3.29,1.45h0c.53,1.33-.12,2.83-1.45,3.35l-9.59,3.76c-1.26.48-2.69.1-3.55-.95l-3.47-4.24c-.57-.7-1.43-1.1-2.34-1.1h-39.2c-.49,0-.89-.4-.89-.89v-3.75c0-.46.35-.84.8-.88Z" style="fill: none; stroke: #fff; stroke-linecap: round; stroke-linejoin: round; stroke-width: 1.5px;"/>
  </g>
</svg>