<?xml version="1.0" encoding="UTF-8"?>
<svg id="Layer_1" data-name="Layer 1" xmlns="http://www.w3.org/2000/svg" viewBox="0 0 120 120" width="100%" height="100%">
  <g>
    <circle cx="60" cy="60" r="55.41" style="fill: #fff; stroke: #005178; stroke-miterlimit: 10; stroke-width: 6px;"/>
    <circle cx="60" cy="60" r="48.69" style="fill: #5a97cb; stroke-width: 0px;"/>
  </g>
  <g>
    <path d="m59.99,38.66c2.86,0,5.2,2.35,5.2,5.2s-2.35,5.2-5.2,5.2-5.2-2.35-5.2-5.2,2.35-5.2,5.2-5.2m0-1.71c-3.81,0-6.92,3.11-6.92,6.92s3.11,6.92,6.92,6.92,6.92-3.11,6.92-6.92c.06-3.81-3.11-6.92-6.92-6.92h0Z" style="fill: #fff; stroke: #fff; stroke-miterlimit: 10; stroke-width: .75px;"/>
    <path d="m67.16,55.44c1.97,0,3.62,1.65,3.62,3.62v13.07c0,1.65-1.14,3.11-2.73,3.55-.76.19-1.27.89-1.27,1.65v14.41c0,1.27-1.02,2.28-2.28,2.28h-9.01c-1.27,0-2.28-1.02-2.28-2.28v-14.41c0-.76-.51-1.46-1.27-1.65-1.59-.38-2.73-1.84-2.73-3.55v-13.07c0-1.97,1.65-3.62,3.62-3.62h14.34m0-1.71h-14.34c-2.92,0-5.33,2.41-5.33,5.33v13.07c0,2.48,1.71,4.57,4.06,5.2v14.41c0,2.22,1.78,4,4,4h8.95c2.22,0,4-1.78,4-4v-14.41c2.35-.57,4.06-2.67,4.06-5.2v-13.07c-.06-2.92-2.48-5.33-5.39-5.33h0Z" style="fill: #fff; stroke: #fff; stroke-miterlimit: 10; stroke-width: .75px;"/>
  </g>
  <g>
    <path d="m37.02,29.89c-3.81,0-6.92,3.11-6.92,6.92s3.11,6.92,6.92,6.92,6.92-3.11,6.92-6.92c.06-3.81-3.11-6.92-6.92-6.92Z" style="fill: none; stroke: #fff; stroke-dasharray: 0 0 0 3.1; stroke-linecap: round; stroke-miterlimit: 10; stroke-width: 2px;"/>
    <g>
      <line x1="48.49" y1="48.84" x2="48.49" y2="48.84" style="fill: none; stroke: #fff; stroke-linecap: round; stroke-miterlimit: 10; stroke-width: 2px;"/>
      <path d="m46.14,47.04c-.61-.24-1.26-.37-1.95-.37h-14.34c-2.92,0-5.33,2.41-5.33,5.33v13.07c0,1.96,1.07,3.68,2.69,4.63" style="fill: none; stroke: #fff; stroke-dasharray: 0 0 0 2.99; stroke-linecap: round; stroke-miterlimit: 10; stroke-width: 2px;"/>
      <line x1="28.58" y1="70.28" x2="28.58" y2="70.28" style="fill: none; stroke: #fff; stroke-linecap: round; stroke-miterlimit: 10; stroke-width: 2px;"/>
      <path d="m28.58,73.18v11.51c0,2.22,1.78,4,4,4h8.95c2.22,0,4-1.78,4-4v-3.19" style="fill: none; stroke: #fff; stroke-dasharray: 0 0 0 2.9; stroke-linecap: round; stroke-miterlimit: 10; stroke-width: 2px;"/>
      <line x1="45.53" y1="80.05" x2="45.53" y2="80.05" style="fill: none; stroke: #fff; stroke-linecap: round; stroke-miterlimit: 10; stroke-width: 2px;"/>
    </g>
  </g>
  <g>
    <path d="m82.49,29.89c-3.81,0-6.92,3.11-6.92,6.92s3.11,6.92,6.92,6.92,6.92-3.11,6.92-6.92c.06-3.81-3.11-6.92-6.92-6.92Z" style="fill: none; stroke: #fff; stroke-dasharray: 0 0 0 3.1; stroke-linecap: round; stroke-miterlimit: 10; stroke-width: 2px;"/>
    <g>
      <line x1="74.05" y1="80.61" x2="74.05" y2="80.61" style="fill: none; stroke: #fff; stroke-linecap: round; stroke-miterlimit: 10; stroke-width: 2px;"/>
      <path d="m74.05,83.69v1c0,2.22,1.78,4,4,4h8.95c2.22,0,4-1.78,4-4v-12.87" style="fill: none; stroke: #fff; stroke-dasharray: 0 0 0 3.08; stroke-linecap: round; stroke-miterlimit: 10; stroke-width: 2px;"/>
      <line x1="90.99" y1="70.28" x2="90.99" y2="70.28" style="fill: none; stroke: #fff; stroke-linecap: round; stroke-miterlimit: 10; stroke-width: 2px;"/>
      <path d="m93.55,68.82c.94-.96,1.51-2.28,1.51-3.75v-13.07c-.06-2.92-2.48-5.33-5.39-5.33h-14.34c-1.12,0-2.17.36-3.04.96" style="fill: none; stroke: #fff; stroke-dasharray: 0 0 0 2.98; stroke-linecap: round; stroke-miterlimit: 10; stroke-width: 2px;"/>
      <line x1="71.19" y1="48.64" x2="71.19" y2="48.64" style="fill: none; stroke: #fff; stroke-linecap: round; stroke-miterlimit: 10; stroke-width: 2px;"/>
    </g>
  </g>
</svg>