<?xml version="1.0" encoding="UTF-8"?>
<svg id="Layer_1" data-name="Layer 1" xmlns="http://www.w3.org/2000/svg" viewBox="0 0 120 120" width="100%" height="100%">
  <g>
    <circle cx="60" cy="60" r="55.41" style="fill: #fff; stroke: #005178; stroke-miterlimit: 10; stroke-width: 6px;"/>
    <circle cx="60" cy="60" r="48.69" style="fill: #5a97cb; stroke-width: 0px;"/>
  </g>
  <g>
    <path d="m47.86,28.34s.4,1.1,1.04,3.16" style="fill: none; stroke: #fff; stroke-linecap: round; stroke-miterlimit: 10; stroke-width: 2px;"/>
    <path d="m52.28,52.18c1.27,13.03,1.08,28.82-4.4,41.18" style="fill: none; stroke: #fff; stroke-linecap: round; stroke-miterlimit: 10; stroke-width: 2px;"/>
    <path d="m74.14,28.34s10.23,39.35-1.13,64.94" style="fill: none; stroke: #fff; stroke-linecap: round; stroke-miterlimit: 10; stroke-width: 2px;"/>
    <path d="m66.78,93.59c2.07-4.66,3.86-11.12,4.63-16.43.33-2.21.55-4.45.7-6.69.14-2.16.2-4.33.21-6.47,0-1.25-.02-2.49-.06-3.72-.04-1.58-.12-3.14-.22-4.68-.04-.62-.09-1.22-.14-1.83-.2-2.65-.49-5.21-.79-7.62-.32-2.43-.67-4.72-1.03-6.81-1.35-7.83-2.28-10.7-2.28-10.7" style="fill: none; stroke: #fff; stroke-linecap: round; stroke-miterlimit: 10; stroke-width: 2px;"/>
    <path d="m41.83,28.65s11.26,39.04-.1,64.64" style="fill: none; stroke: #fff; stroke-linecap: round; stroke-miterlimit: 10; stroke-width: 2px;"/>
    <path d="m72.31,64.01c0,2.14-.07,4.3-.21,6.47-.15,2.24-.36,4.47-.7,6.69-1.82-1.43-2.9-4.07-2.63-6.97.04-.43.11-.85.2-1.26-1.49-1.49-2.34-3.89-2.1-6.5.17-1.86.87-3.51,1.89-4.73-.92-1.44-1.39-3.35-1.21-5.37.04-.44.11-.87.21-1.28-.86-1.29-1.37-2.96-1.37-4.77,0-3.12,1.52-5.8,3.68-6.94.36,2.09.71,4.38,1.03,6.81.31,2.41.59,4.98.79,7.63.05.61.1,1.22.14,1.83.1,1.54.18,3.1.22,4.68.04,1.23.06,2.47.06,3.72Z" style="fill: none; stroke: #fff; stroke-miterlimit: 10; stroke-width: 2px;"/>
    <path d="m54.79,45.92c.14.49.21,1.03.21,1.58,0,2.18-1.13,4.03-2.71,4.68-.19-1.97-.41-3.87-.66-5.7-.19-1.36-.38-2.67-.58-3.92-.08-.51-.16-1.01-.24-1.51-.19-1.13-.39-2.2-.58-3.22-.47-2.5-.93-4.65-1.32-6.34.4-.17.83-.26,1.27-.26,2.2,0,3.99,2.21,3.99,4.93,0,.32-.02.63-.07.93,1.51.7,2.58,2.5,2.58,4.62,0,1.77-.75,3.31-1.89,4.19Z" style="fill: none; stroke: #fff; stroke-miterlimit: 10; stroke-width: 2px;"/>
    <ellipse cx="59.97" cy="87.74" rx="3.33" ry="2.11" style="fill: none; stroke: #fff; stroke-linecap: round; stroke-miterlimit: 10; stroke-width: 2px;"/>
    <ellipse cx="60.42" cy="75.61" rx="2.11" ry="3.33" transform="translate(-35.77 64.87) rotate(-45)" style="fill: none; stroke: #fff; stroke-linecap: round; stroke-miterlimit: 10; stroke-width: 2px;"/>
    <ellipse cx="59.91" cy="61.25" rx="2.11" ry="3.33" style="fill: none; stroke: #fff; stroke-linecap: round; stroke-miterlimit: 10; stroke-width: 2px;"/>
    <ellipse cx="61.51" cy="34.28" rx="2.11" ry="3.33" transform="translate(-8.88 32.32) rotate(-27.54)" style="fill: none; stroke: #fff; stroke-linecap: round; stroke-miterlimit: 10; stroke-width: 2px;"/>
  </g>
</svg>