<?xml version="1.0" encoding="UTF-8"?>
<svg id="Layer_1" data-name="Layer 1" xmlns="http://www.w3.org/2000/svg" viewBox="0 0 120 120" width="100%" height="100%">
  <g>
    <circle cx="60" cy="60" r="55.41" style="fill: #fff; stroke: #005178; stroke-miterlimit: 10; stroke-width: 6px;"/>
    <circle cx="60" cy="60" r="48.69" style="fill: #5a97cb; stroke-width: 0px;"/>
    <circle cx="60" cy="60" r="55.41" style="fill: #fff; stroke: #005178; stroke-miterlimit: 10; stroke-width: 6px;"/>
    <circle cx="60" cy="60" r="48.69" style="fill: #5a97cb; stroke-width: 0px;"/>
  </g>
  <path d="m99.14,71.87h-22.45c.02-2.45-1-4.88-3.54-5.99,0,0,1.6-2.42,6.92-2.5.43,0,16.17,0,16.17,0l2.9,3.31v5.18Z" style="fill: #fff; stroke-width: 0px;"/>
  <g>
    <path d="m59.96,49.91c3.69,0,6.64,3.43,5.82,7.25-.48,2.24-2.29,4.05-4.53,4.53-3.82.82-7.25-2.13-7.25-5.82,0-3.27,2.69-5.96,5.96-5.96m0-1.96c-4.88,0-8.76,4.46-7.76,9.51.61,3.08,3.09,5.56,6.17,6.17,5.05,1,9.51-2.88,9.51-7.76.07-4.36-3.56-7.92-7.92-7.92h0Z" style="fill: #fff; stroke: #fff; stroke-miterlimit: 10; stroke-width: .5px;"/>
    <path d="m47.61,74.3v-2.07c0-2.28,1.86-4.14,4.14-4.14h16.42c2.28,0,4.14,1.86,4.14,4.14v2.07c0,.54.44.98.98.98h.07c.54,0,.98-.44.98-.98v-2.07c-.07-3.34-2.83-6.1-6.17-6.1h-16.42c-3.36,0-6.1,2.75-6.1,6.1v2.07c0,.54.44.98.98.98h0c.54,0,.98-.44.98-.98Z" style="fill: #fff; stroke: #fff; stroke-miterlimit: 10; stroke-width: .5px;"/>
  </g>
  <path d="m35.73,46.19c3.69,0,6.64,3.43,5.82,7.25-.48,2.24-2.29,4.05-4.53,4.53-3.82.82-7.25-2.13-7.25-5.82,0-3.27,2.69-5.96,5.96-5.96m0-1.96c-4.88,0-8.76,4.46-7.76,9.51.61,3.08,3.09,5.56,6.17,6.17,5.05,1,9.51-2.88,9.51-7.76.07-4.36-3.56-7.92-7.92-7.92h0Z" style="fill: #fff; stroke: #fff; stroke-miterlimit: 10; stroke-width: .5px;"/>
  <path d="m22.26,70.59c.07-4.44.84-7.2,7.55-7.2h5.99s5.92,0,5.92,0c2.67.03,5.08-.35,6.12,1.3" style="fill: none; stroke: #fff; stroke-linecap: round; stroke-miterlimit: 10; stroke-width: 2.5px;"/>
  <path d="m84.67,46.19c3.27,0,5.96,2.69,5.96,5.96,0,3.69-3.43,6.64-7.25,5.82-2.24-.48-4.05-2.29-4.53-4.53-.82-3.82,2.13-7.25,5.82-7.25m0-1.96c-4.36,0-7.99,3.56-7.92,7.92,0,4.88,4.46,8.76,9.51,7.76,3.08-.61,5.56-3.09,6.17-6.17,1-5.05-2.88-9.51-7.76-9.51h0Z" style="fill: #fff; stroke: #fff; stroke-miterlimit: 10; stroke-width: .5px;"/>
  <path d="m99.14,70.59c-.07-4.44-.84-7.2-7.55-7.2h-5.99s-5.92,0-5.92,0c.02,0-5.1-.32-6.12,1.3" style="fill: none; stroke: #fff; stroke-linecap: round; stroke-miterlimit: 10; stroke-width: 2.5px;"/>
  <circle cx="84.67" cy="51.94" r="6.17" style="fill: #fff; stroke: #fff; stroke-miterlimit: 10; stroke-width: .5px;"/>
  <line x1="34.61" y1="45.42" x2="42.47" y2="54.4" style="fill: #fff; stroke: #fff; stroke-linecap: round; stroke-miterlimit: 10;"/>
  <line x1="32.08" y1="47.45" x2="39.94" y2="56.43" style="fill: #fff; stroke: #fff; stroke-linecap: round; stroke-miterlimit: 10;"/>
  <line x1="28.95" y1="49.12" x2="36.81" y2="58.11" style="fill: #fff; stroke: #fff; stroke-linecap: round; stroke-miterlimit: 10;"/>
  <line x1="40.89" y1="63.1" x2="44.91" y2="67.69" style="fill: #fff; stroke: #fff; stroke-linecap: round; stroke-miterlimit: 10;"/>
  <line x1="23.1" y1="67.44" x2="26.56" y2="71.4" style="fill: #fff; stroke: #fff; stroke-linecap: round; stroke-miterlimit: 10;"/>
  <line x1="24.33" y1="64.2" x2="30.64" y2="71.4" style="fill: #fff; stroke: #fff; stroke-linecap: round; stroke-miterlimit: 10;"/>
  <line x1="27.97" y1="63.58" x2="34.57" y2="71.12" style="fill: #fff; stroke: #fff; stroke-linecap: round; stroke-miterlimit: 10;"/>
  <line x1="31.41" y1="62.81" x2="38.62" y2="71.05" style="fill: #fff; stroke: #fff; stroke-linecap: round; stroke-miterlimit: 10;"/>
  <line x1="36.06" y1="62.81" x2="42.77" y2="70.81" style="fill: #fff; stroke: #fff; stroke-linecap: round; stroke-miterlimit: 10;"/>
</svg>