<?xml version="1.0" encoding="UTF-8"?>
<svg id="Layer_1" data-name="Layer 1" xmlns="http://www.w3.org/2000/svg" viewBox="0 0 120 120" width="100%" height="100%">
  <g>
    <circle cx="60" cy="60" r="55.41" style="fill: #fff; stroke: #005178; stroke-miterlimit: 10; stroke-width: 6px;"/>
    <circle cx="60" cy="60" r="48.69" style="fill: #5a97cb; stroke-width: 0px;"/>
    <circle cx="60" cy="60" r="55.41" style="fill: #fff; stroke: #005178; stroke-miterlimit: 10; stroke-width: 6px;"/>
    <circle cx="60" cy="60" r="48.69" style="fill: #5a97cb; stroke-width: 0px;"/>
  </g>
  <line x1="31.13" y1="54.07" x2="31.13" y2="80.59" style="fill: none; stroke: #fff; stroke-linecap: round; stroke-linejoin: round; stroke-width: 2px;"/>
  <line x1="90.65" y1="60.36" x2="90.65" y2="80.59" style="fill: none; stroke: #fff; stroke-linecap: round; stroke-linejoin: round; stroke-width: 2px;"/>
  <line x1="31.13" y1="77.26" x2="90.48" y2="77.26" style="fill: none; stroke: #fff; stroke-linecap: round; stroke-linejoin: round; stroke-width: 2px;"/>
  <line x1="90.48" y1="73.32" x2="31.69" y2="73.32" style="fill: none; stroke: #fff; stroke-linecap: round; stroke-linejoin: round; stroke-width: 2px;"/>
  <line x1="90.59" y1="67.14" x2="31.36" y2="67.14" style="fill: none; stroke: #fff; stroke-linecap: round; stroke-linejoin: round; stroke-width: 2px;"/>
  <path d="m36.8,60.58h3.32c1.81,0,3.28,1.47,3.28,3.28v2.21c0,.59-.48,1.07-1.07,1.07h-7.73c-.59,0-1.07-.48-1.07-1.07v-2.21c0-1.81,1.47-3.28,3.28-3.28Z" style="fill: none; stroke: #fff; stroke-linecap: round; stroke-linejoin: round; stroke-width: 2px;"/>
  <rect x="44.16" y="60.95" width="43.12" height="6.15" rx="3.02" ry="3.02" style="fill: none; stroke: #fff; stroke-linecap: round; stroke-linejoin: round; stroke-width: 2px;"/>
  <g>
    <rect x="49.97" y="32.82" width="22.03" height="22.03" rx="11.02" ry="11.02" style="fill: none; stroke: #fff; stroke-linecap: round; stroke-linejoin: round; stroke-width: 2px;"/>
    <rect x="47.06" y="31.82" width="9.33" height="4.5" rx="2.04" ry="2.04" transform="translate(-8.94 46.56) rotate(-45)" style="fill: none; stroke: #fff; stroke-linecap: round; stroke-linejoin: round; stroke-width: 2px;"/>
    <rect x="65.39" y="31.82" width="9.33" height="4.5" rx="2.04" ry="2.04" transform="translate(44.61 -39.55) rotate(45)" style="fill: none; stroke: #fff; stroke-linecap: round; stroke-linejoin: round; stroke-width: 2px;"/>
    <circle cx="60.7" cy="43.39" r="1.8" style="fill: #fff; stroke-width: 0px;"/>
    <polyline points="56.66 41.22 60.7 43.39 65.82 38.89" style="fill: none; stroke: #fff; stroke-linecap: round; stroke-miterlimit: 10;"/>
  </g>
</svg>