<?xml version="1.0" encoding="UTF-8"?>
<svg id="Layer_1" data-name="Layer 1" xmlns="http://www.w3.org/2000/svg" viewBox="0 0 120 120" width="100%" height="100%">
  <g>
    <circle cx="60" cy="60" r="55.41" style="fill: #fff; stroke: #005178; stroke-miterlimit: 10; stroke-width: 6px;"/>
    <circle cx="60" cy="60" r="48.69" style="fill: #5a97cb; stroke-width: 0px;"/>
    <circle cx="60" cy="60" r="55.41" style="fill: #fff; stroke: #005178; stroke-miterlimit: 10; stroke-width: 6px;"/>
    <circle cx="60" cy="60" r="48.69" style="fill: #5a97cb; stroke-width: 0px;"/>
  </g>
  <path d="m60,101.06c22.68,0,41.06-18.38,41.06-41.06s-18.38-41.06-41.06-41.06S18.94,37.32,18.94,60s18.38,41.06,41.06,41.06Zm0-2.93c21.06,0,38.13-17.07,38.13-38.13s-17.07-38.13-38.13-38.13S21.87,38.94,21.87,60s17.07,38.13,38.13,38.13Zm-14.66-51.32c0-.81.66-1.47,1.47-1.47s1.47.66,1.47,1.47v11.73c0,.81-.66,1.47-1.47,1.47s-1.47-.66-1.47-1.47v-11.73Zm26.39,0c0-.81.66-1.47,1.47-1.47s1.47.66,1.47,1.47v11.73c0,.81-.66,1.47-1.47,1.47s-1.47-.66-1.47-1.47v-11.73Zm-16.36,40.37c.26-.42.86-1.11,1.76-1.82,2.2-1.72,4.95-2.41,8.38-1.46.78.22,1.59-.24,1.81-1.02.22-.78-.24-1.59-1.02-1.81-4.37-1.21-8.07-.3-10.97,1.97-1.2.94-2,1.88-2.43,2.56-.43.68-.23,1.59.45,2.02.68.43,1.59.23,2.02-.45Z" style="fill: #fff; fill-rule: evenodd; stroke-width: 0px;"/>
</svg>