<?xml version="1.0" encoding="UTF-8"?>
<svg id="Layer_1" data-name="Layer 1" xmlns="http://www.w3.org/2000/svg" viewBox="0 0 120 120" width="100%" height="100%">
  <g>
    <circle cx="60" cy="60" r="55.41" style="fill: #fff; stroke: #005178; stroke-miterlimit: 10; stroke-width: 6px;"/>
    <circle cx="60" cy="60" r="48.69" style="fill: #5a97cb; stroke-width: 0px;"/>
  </g>
  <path d="m60.05,86.06c-5.92,0-11.73-2.03-16.38-5.71-7.42-5.89-12.76-17.5-7.94-30.14.07-.19.02-.4-.12-.54-1.09-1.02-1.63-2.13-1.7-3.49-.04-.72.25-1.46.79-2.03.58-.61,1.37-.94,2.24-.94h.17c1.5.08,2.78.64,3.9,1.74.1.1.22.14.35.14s.25-.05.35-.14c1.09-1.06,2.27-1.62,3.6-1.71.11,0,.22-.01.32-.01,1.16,0,2.11.43,2.68,1.22.58.81.67,1.89.28,3.04-.12.34-.3.68-.48,1.04-.09.18-.19.36-.28.55-.08.16-.07.34.03.48s.25.23.42.23h10.31c.28,0,.5-.22.5-.5v-2.64c0-.28-.22-.5-.5-.5-.3,0-.61,0-.91.01-.3,0-.59.01-.88.01-.33,0-.67,0-1-.03-2.27-.17-4.28-1.23-5.63-2.99-1.31-1.7-1.88-3.85-1.53-5.76.37-1.98,2.09-3.4,4.19-3.46h.24c2.62,0,4.76,1.15,6.53,3.52.09.12.24.2.39.2h.01c.15,0,.29-.07.39-.18l.48-.58c1.61-1.98,3.66-2.98,6.08-2.98.31,0,.62.02.95.05.98.1,1.9.63,2.58,1.5.81,1.04,1.16,2.38.97,3.68-.63,4.31-3.73,7-8.09,7.02h-1.97c-.28,0-.5.22-.5.5v2.67c0,.28.22.5.5.5h10.29c.17,0,.32-.08.41-.22.09-.14.11-.31.05-.46-.1-.26-.21-.52-.32-.78-.23-.54-.45-1.05-.57-1.57-.21-.93-.01-1.82.54-2.51.57-.71,1.46-1.12,2.43-1.12h.15c1.51.07,2.78.63,3.89,1.74.1.1.23.15.35.15s.25-.05.34-.14c1.16-1.1,2.36-1.65,3.75-1.73.08,0,.16,0,.23,0,1.09,0,2.05.44,2.61,1.21.55.74.68,1.71.38,2.72-.19.61-.53,1.19-.92,1.86-.2.34-.41.69-.61,1.08-.07.13-.08.27-.03.41,2.55,6.9,2.34,13.74-.63,20.32-2.19,4.85-5.68,8.75-10.37,11.58-3.99,2.4-8.58,3.67-13.29,3.67Zm-12.47-6.61c-.13,0-.27.02-.43.04l-.23.03c-.2.02-.37.17-.43.36-.05.2.02.41.18.53,3.04,2.32,8.77,4.07,13.33,4.07,1.07,0,2.02-.1,2.82-.29.22-.05.38-.25.38-.49v-1.13c0-.86,0-1.73,0-2.59,0-.97.35-1.81,1.02-2.49.61-.62,1.38-.96,2.43-1.05,1.23-.11,1.85-.77,1.89-2.04,0-.11,0-.21,0-.32,0-.11,0-.23,0-.34.14-2.32,1.26-3.94,3.31-4.81.76-.32,1.51-.49,2.23-.49,1.28,0,2.5.51,3.64,1.52.88.78,1.43,1.82,1.76,3.38.04.2.2.35.4.39.03,0,.06,0,.09,0,.17,0,.33-.09.42-.23,1.17-1.85,2.06-3.49,2.65-5.46.04-.15.02-.31-.08-.44-.09-.13-.24-.2-.4-.2-.26,0-.51,0-.74.02-.21,0-.41.02-.6.02-.22,0-.43-.01-.64-.04-1.49-.25-2.59-1.49-2.78-3.15-.19-1.57-.73-2.05-2.32-2.05h-1.57c-2.21-.03-4.01-1.76-4.11-3.95-.11-2.48,1.26-4.12,3.68-4.37,1.11-.12,1.51-.55,1.64-1.79.02-.14-.03-.28-.13-.39s-.23-.17-.37-.17h-36.45s-.22-.01-.28-.01c-.13,0-.24.02-.34.05-.29.1-.64.26-.75.6-.75,2.21-1.15,4.33-1.24,6.46,0,.14.04.27.14.37s.22.15.36.15h3.96s4.1,0,4.1,0c1.32,0,2.64,0,3.96.04,1.91.04,3.39,1.53,3.43,3.45.04,1.8-1.42,3.33-3.31,3.48-.28.02-.56.03-.83.03-.24,0-.49,0-.73.02-.98.06-1.68.7-1.78,1.64-.05.51.1.98.42,1.34.37.41.94.64,1.6.65h1.13s3.03,0,3.03,0c.76,0,1.52,0,2.28.02,1.91.03,3.33.88,4.23,2.5.83,1.52.83,3.22,0,4.67-.86,1.49-2.46,2.41-4.28,2.45-.72.02-1.44.02-2.16.02h-3.17s-.35,0-.35,0Zm26.39-9.32c-.18,0-.35.01-.53.04-1.91.27-3.28,1.86-3.32,3.86-.06,2.67-.97,3.7-3.59,4.08-1.04.15-1.66.77-1.7,1.71-.03.79-.03,1.58-.02,2.39v1.03c0,.26.21.48.47.5,0,0,.23.02.25.02.05,0,.1,0,.15-.02,4.47-1.07,8.4-3.29,11.66-6.58.19-.2.42-.46.41-.79,0-.3,0-.6,0-.9,0-.86,0-1.75-.19-2.61-.36-1.58-1.87-2.73-3.59-2.73Zm-37.95-9.29c-.14,0-.27.06-.37.16s-.14.24-.13.38c.51,6.37,2.86,11.56,7.2,15.88.31.31.81.52,1.25.52,1.58.01,3.17.02,4.75.02,1.44,0,2.88,0,4.32-.01.48,0,.94-.07,1.33-.21,1.48-.5,2.3-1.92,2.05-3.51-.23-1.46-1.55-2.57-3.08-2.59h-1.08s-2.85,0-2.85,0c-.96,0-1.91,0-2.87-.03-1.72-.05-3.14-1.35-3.32-3.02-.19-1.83.86-3.4,2.57-3.81.4-.1.84-.1,1.31-.1.2,0,.4,0,.6,0,1.31-.05,2.13-.76,2.13-1.85,0-.49-.16-.92-.48-1.23-.38-.38-.96-.59-1.66-.59h-11.67Zm39.45-.35c2.5,0,3.69,1.07,3.96,3.58.11,1.01.77,1.66,1.77,1.73.29.02.57.03.86.03.27,0,.54-.01.8-.05.39-.05.9-.43.99-.85.93-4.18.71-8.43-.66-12.64-.11-.35-.55-.74-.97-.75-.89-.02-1.78-.02-2.67-.02h-2.2c-.23,0-.43.16-.49.38l-.04.15c-.03.11-.05.21-.07.3-.32,2.09-1.12,2.88-3.17,3.12-1.42.17-2.16,1.02-2.14,2.45.02,1.39.98,2.44,2.32,2.54.25.02.49.02.74.02h.94Zm-38.39-15.65c-.58,0-1,.17-1.26.5-.26.33-.32.77-.19,1.31.39,1.63,1.7,2.57,3.59,2.57h0c.26,0,.52-.02.8-.05.23-.03.41-.21.44-.44.12-1.03-.18-2.01-.82-2.74-.63-.72-1.51-1.12-2.49-1.14,0,0-.06,0-.06,0Zm37.23,0c-.58,0-1,.19-1.26.53-.26.34-.31.8-.16,1.37.43,1.57,1.73,2.48,3.57,2.48h0c.26,0,.53-.02.81-.05.22-.03.4-.21.43-.43.14-1.01-.16-2.01-.81-2.75-.63-.72-1.56-1.14-2.53-1.14,0,0-.05,0-.06,0Zm8.46,0c-.93,0-1.83.42-2.47,1.17-.64.75-.93,1.71-.79,2.66.03.2.18.37.38.41.36.08.72.12,1.06.12,1.7,0,2.99-.99,3.37-2.58.12-.5.07-.91-.15-1.22-.22-.31-.6-.49-1.12-.54-.09,0-.19-.01-.28-.01Zm-37.28,0c-.92,0-1.82.43-2.45,1.18-.64.76-.92,1.73-.76,2.66.03.2.19.37.39.41.34.07.68.11,1.01.11,1.76,0,3.06-.99,3.42-2.59.11-.48.05-.88-.16-1.19-.21-.3-.57-.49-1.05-.56-.13-.02-.26-.03-.39-.03Zm7.55-9.28c-.84,0-1.58.3-2.1.84-.51.53-.78,1.27-.75,2.09.07,2.37,1.17,4.16,3.27,5.33,1.17.65,2.41.74,3.57.74.27,0,.55,0,.83,0,.26,0,.52,0,.78-.01.28,0,.5-.22.5-.5,0-.3,0-.6,0-.88,0-.62.01-1.22-.01-1.82-.14-3.08-2.97-5.77-6.06-5.77h-.02Zm13.9,0c-.09,0-.19,0-.29.01-1.46.11-2.73.66-3.8,1.62-2.18,1.96-2.15,4.57-1.96,6.85.02.26.24.46.5.46.3,0,.6,0,.9.01.29,0,.57.01.86.01.35,0,.69,0,1.04-.03,3.09-.22,5.55-2.83,5.6-5.94.01-.89-.26-1.65-.8-2.2-.51-.52-1.22-.8-2.03-.8Z" style="fill: #fff; stroke-width: 0px;"/>
</svg>