<svg width="1000" height="411" viewBox="0 0 1000 411" fill="none" xmlns="http://www.w3.org/2000/svg">
<path d="M101.77 370.36H80.9802C77.3502 370.36 74.4102 373.3 74.4102 376.93V383.5H108.35V376.93C108.35 373.3 105.41 370.36 101.78 370.36H101.77Z" fill="#5A97CB"/>
<path d="M91.4905 365.68C96.8367 365.68 101.171 361.346 101.171 356C101.171 350.654 96.8367 346.32 91.4905 346.32C86.1444 346.32 81.8105 350.654 81.8105 356C81.8105 361.346 86.1444 365.68 91.4905 365.68Z" fill="#5A97CB"/>
<path d="M144.7 370.36H123.91C120.28 370.36 117.34 373.3 117.34 376.93V383.5H151.28V376.93C151.28 373.3 148.34 370.36 144.71 370.36H144.7Z" fill="#5A97CB"/>
<path d="M134.42 365.68C139.766 365.68 144.1 361.346 144.1 356C144.1 350.654 139.766 346.32 134.42 346.32C129.074 346.32 124.74 350.654 124.74 356C124.74 361.346 129.074 365.68 134.42 365.68Z" fill="#5A97CB"/>
<path d="M187.63 370.36H166.84C163.21 370.36 160.27 373.3 160.27 376.93V383.5H194.21V376.93C194.21 373.3 191.27 370.36 187.64 370.36H187.63Z" fill="#5A97CB"/>
<path d="M177.35 365.68C182.696 365.68 187.03 361.346 187.03 356C187.03 350.654 182.696 346.32 177.35 346.32C172.004 346.32 167.67 350.654 167.67 356C167.67 361.346 172.004 365.68 177.35 365.68Z" fill="#5A97CB"/>
<path d="M230.56 370.36H209.77C206.14 370.36 203.2 373.3 203.2 376.93V383.5H237.14V376.93C237.14 373.3 234.2 370.36 230.57 370.36H230.56Z" fill="#5A97CB"/>
<path d="M220.281 365.68C225.627 365.68 229.961 361.346 229.961 356C229.961 350.654 225.627 346.32 220.281 346.32C214.934 346.32 210.601 350.654 210.601 356C210.601 361.346 214.934 365.68 220.281 365.68Z" fill="#5A97CB"/>
<path d="M273.49 370.36H252.7C249.07 370.36 246.13 373.3 246.13 376.93V383.5H280.07V376.93C280.07 373.3 277.13 370.36 273.5 370.36H273.49Z" fill="#5A97CB"/>
<path d="M263.21 365.68C268.556 365.68 272.89 361.346 272.89 356C272.89 350.654 268.556 346.32 263.21 346.32C257.864 346.32 253.53 350.654 253.53 356C253.53 361.346 257.864 365.68 263.21 365.68Z" fill="#5A97CB"/>
<path d="M316.42 370.36H295.63C292 370.36 289.06 373.3 289.06 376.93V383.5H323V376.93C323 373.3 320.06 370.36 316.43 370.36H316.42Z" fill="#5A97CB"/>
<path d="M306.14 365.68C311.486 365.68 315.82 361.346 315.82 356C315.82 350.654 311.486 346.32 306.14 346.32C300.794 346.32 296.46 350.654 296.46 356C296.46 361.346 300.794 365.68 306.14 365.68Z" fill="#5A97CB"/>
<path d="M359.35 370.36H338.56C334.93 370.36 331.99 373.3 331.99 376.93V383.5H365.93V376.93C365.93 373.3 362.99 370.36 359.36 370.36H359.35Z" fill="#5A97CB"/>
<path d="M349.08 365.68C354.427 365.68 358.76 361.346 358.76 356C358.76 350.654 354.427 346.32 349.08 346.32C343.734 346.32 339.4 350.654 339.4 356C339.4 361.346 343.734 365.68 349.08 365.68Z" fill="#5A97CB"/>
<path d="M402.28 370.36H381.49C377.86 370.36 374.92 373.3 374.92 376.93V383.5H408.86V376.93C408.86 373.3 405.92 370.36 402.29 370.36H402.28Z" fill="#5A97CB"/>
<path d="M392.01 365.68C397.356 365.68 401.69 361.346 401.69 356C401.69 350.654 397.356 346.32 392.01 346.32C386.664 346.32 382.33 350.654 382.33 356C382.33 361.346 386.664 365.68 392.01 365.68Z" fill="#5A97CB"/>
<path d="M445.22 370.36H424.43C420.8 370.36 417.86 373.3 417.86 376.93V383.5H451.8V376.93C451.8 373.3 448.86 370.36 445.23 370.36H445.22Z" fill="#5A97CB"/>
<path d="M434.941 365.68C440.287 365.68 444.621 361.346 444.621 356C444.621 350.654 440.287 346.32 434.941 346.32C429.595 346.32 425.261 350.654 425.261 356C425.261 361.346 429.595 365.68 434.941 365.68Z" fill="#5A97CB"/>
<path d="M488.15 370.36H467.36C463.73 370.36 460.79 373.3 460.79 376.93V383.5H494.73V376.93C494.73 373.3 491.79 370.36 488.16 370.36H488.15Z" fill="#5A97CB"/>
<path d="M477.87 365.68C483.217 365.68 487.55 361.346 487.55 356C487.55 350.654 483.217 346.32 477.87 346.32C472.524 346.32 468.19 350.654 468.19 356C468.19 361.346 472.524 365.68 477.87 365.68Z" fill="#5A97CB"/>
<path d="M101.77 321.23H80.9802C77.3502 321.23 74.4102 324.17 74.4102 327.8V334.37H108.35V327.8C108.35 324.17 105.41 321.23 101.78 321.23H101.77Z" fill="#5A97CB"/>
<path d="M91.4905 316.55C96.8367 316.55 101.171 312.216 101.171 306.87C101.171 301.524 96.8367 297.19 91.4905 297.19C86.1444 297.19 81.8105 301.524 81.8105 306.87C81.8105 312.216 86.1444 316.55 91.4905 316.55Z" fill="#5A97CB"/>
<path d="M144.7 321.23H123.91C120.28 321.23 117.34 324.17 117.34 327.8V334.37H151.28V327.8C151.28 324.17 148.34 321.23 144.71 321.23H144.7Z" fill="#5A97CB"/>
<path d="M134.42 316.55C139.766 316.55 144.1 312.216 144.1 306.87C144.1 301.524 139.766 297.19 134.42 297.19C129.074 297.19 124.74 301.524 124.74 306.87C124.74 312.216 129.074 316.55 134.42 316.55Z" fill="#5A97CB"/>
<path d="M187.63 321.23H166.84C163.21 321.23 160.27 324.17 160.27 327.8V334.37H194.21V327.8C194.21 324.17 191.27 321.23 187.64 321.23H187.63Z" fill="#5A97CB"/>
<path d="M177.35 316.55C182.696 316.55 187.03 312.216 187.03 306.87C187.03 301.524 182.696 297.19 177.35 297.19C172.004 297.19 167.67 301.524 167.67 306.87C167.67 312.216 172.004 316.55 177.35 316.55Z" fill="#5A97CB"/>
<path d="M230.56 321.23H209.77C206.14 321.23 203.2 324.17 203.2 327.8V334.37H237.14V327.8C237.14 324.17 234.2 321.23 230.57 321.23H230.56Z" fill="#5A97CB"/>
<path d="M220.281 316.55C225.627 316.55 229.961 312.216 229.961 306.87C229.961 301.524 225.627 297.19 220.281 297.19C214.934 297.19 210.601 301.524 210.601 306.87C210.601 312.216 214.934 316.55 220.281 316.55Z" fill="#5A97CB"/>
<path d="M273.49 321.23H252.7C249.07 321.23 246.13 324.17 246.13 327.8V334.37H280.07V327.8C280.07 324.17 277.13 321.23 273.5 321.23H273.49Z" fill="#5A97CB"/>
<path d="M263.21 316.55C268.556 316.55 272.89 312.216 272.89 306.87C272.89 301.524 268.556 297.19 263.21 297.19C257.864 297.19 253.53 301.524 253.53 306.87C253.53 312.216 257.864 316.55 263.21 316.55Z" fill="#5A97CB"/>
<path d="M316.42 321.23H295.63C292 321.23 289.06 324.17 289.06 327.8V334.37H323V327.8C323 324.17 320.06 321.23 316.43 321.23H316.42Z" fill="#5A97CB"/>
<path d="M306.14 316.55C311.486 316.55 315.82 312.216 315.82 306.87C315.82 301.524 311.486 297.19 306.14 297.19C300.794 297.19 296.46 301.524 296.46 306.87C296.46 312.216 300.794 316.55 306.14 316.55Z" fill="#5A97CB"/>
<path d="M359.35 321.23H338.56C334.93 321.23 331.99 324.17 331.99 327.8V334.37H365.93V327.8C365.93 324.17 362.99 321.23 359.36 321.23H359.35Z" fill="#5A97CB"/>
<path d="M349.08 316.55C354.427 316.55 358.76 312.216 358.76 306.87C358.76 301.524 354.427 297.19 349.08 297.19C343.734 297.19 339.4 301.524 339.4 306.87C339.4 312.216 343.734 316.55 349.08 316.55Z" fill="#5A97CB"/>
<path d="M402.28 321.23H381.49C377.86 321.23 374.92 324.17 374.92 327.8V334.37H408.86V327.8C408.86 324.17 405.92 321.23 402.29 321.23H402.28Z" fill="#5A97CB"/>
<path d="M392.01 316.55C397.356 316.55 401.69 312.216 401.69 306.87C401.69 301.524 397.356 297.19 392.01 297.19C386.664 297.19 382.33 301.524 382.33 306.87C382.33 312.216 386.664 316.55 392.01 316.55Z" fill="#5A97CB"/>
<path d="M445.22 321.23H424.43C420.8 321.23 417.86 324.17 417.86 327.8V334.37H451.8V327.8C451.8 324.17 448.86 321.23 445.23 321.23H445.22Z" fill="#5A97CB"/>
<path d="M434.941 316.55C440.287 316.55 444.621 312.216 444.621 306.87C444.621 301.524 440.287 297.19 434.941 297.19C429.595 297.19 425.261 301.524 425.261 306.87C425.261 312.216 429.595 316.55 434.941 316.55Z" fill="#5A97CB"/>
<path d="M488.15 321.23H467.36C463.73 321.23 460.79 324.17 460.79 327.8V334.37H494.73V327.8C494.73 324.17 491.79 321.23 488.16 321.23H488.15Z" fill="#5A97CB"/>
<path d="M477.87 316.55C483.217 316.55 487.55 312.216 487.55 306.87C487.55 301.524 483.217 297.19 477.87 297.19C472.524 297.19 468.19 301.524 468.19 306.87C468.19 312.216 472.524 316.55 477.87 316.55Z" fill="#5A97CB"/>
<path d="M101.77 272.1H80.9802C77.3502 272.1 74.4102 275.04 74.4102 278.67V285.24H108.35V278.67C108.35 275.04 105.41 272.1 101.78 272.1H101.77Z" fill="#5A97CB"/>
<path d="M91.4905 267.43C96.8367 267.43 101.171 263.096 101.171 257.75C101.171 252.404 96.8367 248.07 91.4905 248.07C86.1444 248.07 81.8105 252.404 81.8105 257.75C81.8105 263.096 86.1444 267.43 91.4905 267.43Z" fill="#5A97CB"/>
<path d="M144.7 272.1H123.91C120.28 272.1 117.34 275.04 117.34 278.67V285.24H151.28V278.67C151.28 275.04 148.34 272.1 144.71 272.1H144.7Z" fill="#5A97CB"/>
<path d="M134.42 267.43C139.766 267.43 144.1 263.096 144.1 257.75C144.1 252.404 139.766 248.07 134.42 248.07C129.074 248.07 124.74 252.404 124.74 257.75C124.74 263.096 129.074 267.43 134.42 267.43Z" fill="#5A97CB"/>
<path d="M187.63 272.1H166.84C163.21 272.1 160.27 275.04 160.27 278.67V285.24H194.21V278.67C194.21 275.04 191.27 272.1 187.64 272.1H187.63Z" fill="#5A97CB"/>
<path d="M177.35 267.43C182.696 267.43 187.03 263.096 187.03 257.75C187.03 252.404 182.696 248.07 177.35 248.07C172.004 248.07 167.67 252.404 167.67 257.75C167.67 263.096 172.004 267.43 177.35 267.43Z" fill="#5A97CB"/>
<path d="M230.56 272.1H209.77C206.14 272.1 203.2 275.04 203.2 278.67V285.24H237.14V278.67C237.14 275.04 234.2 272.1 230.57 272.1H230.56Z" fill="#5A97CB"/>
<path d="M220.281 267.43C225.627 267.43 229.961 263.096 229.961 257.75C229.961 252.404 225.627 248.07 220.281 248.07C214.934 248.07 210.601 252.404 210.601 257.75C210.601 263.096 214.934 267.43 220.281 267.43Z" fill="#5A97CB"/>
<path d="M273.49 272.1H252.7C249.07 272.1 246.13 275.04 246.13 278.67V285.24H280.07V278.67C280.07 275.04 277.13 272.1 273.5 272.1H273.49Z" fill="#5A97CB"/>
<path d="M263.21 267.43C268.556 267.43 272.89 263.096 272.89 257.75C272.89 252.404 268.556 248.07 263.21 248.07C257.864 248.07 253.53 252.404 253.53 257.75C253.53 263.096 257.864 267.43 263.21 267.43Z" fill="#5A97CB"/>
<path d="M316.42 272.1H295.63C292 272.1 289.06 275.04 289.06 278.67V285.24H323V278.67C323 275.04 320.06 272.1 316.43 272.1H316.42Z" fill="#5A97CB"/>
<path d="M306.14 267.43C311.486 267.43 315.82 263.096 315.82 257.75C315.82 252.404 311.486 248.07 306.14 248.07C300.794 248.07 296.46 252.404 296.46 257.75C296.46 263.096 300.794 267.43 306.14 267.43Z" fill="#5A97CB"/>
<path d="M359.35 272.1H338.56C334.93 272.1 331.99 275.04 331.99 278.67V285.24H365.93V278.67C365.93 275.04 362.99 272.1 359.36 272.1H359.35Z" fill="#5A97CB"/>
<path d="M349.08 267.43C354.427 267.43 358.76 263.096 358.76 257.75C358.76 252.404 354.427 248.07 349.08 248.07C343.734 248.07 339.4 252.404 339.4 257.75C339.4 263.096 343.734 267.43 349.08 267.43Z" fill="#5A97CB"/>
<path d="M402.28 272.1H381.49C377.86 272.1 374.92 275.04 374.92 278.67V285.24H408.86V278.67C408.86 275.04 405.92 272.1 402.29 272.1H402.28Z" fill="#5A97CB"/>
<path d="M392.01 267.43C397.356 267.43 401.69 263.096 401.69 257.75C401.69 252.404 397.356 248.07 392.01 248.07C386.664 248.07 382.33 252.404 382.33 257.75C382.33 263.096 386.664 267.43 392.01 267.43Z" fill="#5A97CB"/>
<path d="M445.22 272.1H424.43C420.8 272.1 417.86 275.04 417.86 278.67V285.24H451.8V278.67C451.8 275.04 448.86 272.1 445.23 272.1H445.22Z" fill="#5A97CB"/>
<path d="M434.941 267.43C440.287 267.43 444.621 263.096 444.621 257.75C444.621 252.404 440.287 248.07 434.941 248.07C429.595 248.07 425.261 252.404 425.261 257.75C425.261 263.096 429.595 267.43 434.941 267.43Z" fill="#5A97CB"/>
<path d="M488.15 272.1H467.36C463.73 272.1 460.79 275.04 460.79 278.67V285.24H494.73V278.67C494.73 275.04 491.79 272.1 488.16 272.1H488.15Z" fill="#5A97CB"/>
<path d="M477.87 267.43C483.217 267.43 487.55 263.096 487.55 257.75C487.55 252.404 483.217 248.07 477.87 248.07C472.524 248.07 468.19 252.404 468.19 257.75C468.19 263.096 472.524 267.43 477.87 267.43Z" fill="#5A97CB"/>
<path d="M101.77 222.97H80.9802C77.3502 222.97 74.4102 225.91 74.4102 229.54V236.11H108.35V229.54C108.35 225.91 105.41 222.97 101.78 222.97H101.77Z" fill="#5A97CB"/>
<path d="M91.4905 218.3C96.8367 218.3 101.171 213.966 101.171 208.62C101.171 203.274 96.8367 198.94 91.4905 198.94C86.1444 198.94 81.8105 203.274 81.8105 208.62C81.8105 213.966 86.1444 218.3 91.4905 218.3Z" fill="#5A97CB"/>
<path d="M144.7 222.97H123.91C120.28 222.97 117.34 225.91 117.34 229.54V236.11H151.28V229.54C151.28 225.91 148.34 222.97 144.71 222.97H144.7Z" fill="#5A97CB"/>
<path d="M134.42 218.3C139.766 218.3 144.1 213.966 144.1 208.62C144.1 203.274 139.766 198.94 134.42 198.94C129.074 198.94 124.74 203.274 124.74 208.62C124.74 213.966 129.074 218.3 134.42 218.3Z" fill="#5A97CB"/>
<path d="M187.63 222.97H166.84C163.21 222.97 160.27 225.91 160.27 229.54V236.11H194.21V229.54C194.21 225.91 191.27 222.97 187.64 222.97H187.63Z" fill="#5A97CB"/>
<path d="M177.35 218.3C182.696 218.3 187.03 213.966 187.03 208.62C187.03 203.274 182.696 198.94 177.35 198.94C172.004 198.94 167.67 203.274 167.67 208.62C167.67 213.966 172.004 218.3 177.35 218.3Z" fill="#5A97CB"/>
<path d="M230.56 222.97H209.77C206.14 222.97 203.2 225.91 203.2 229.54V236.11H237.14V229.54C237.14 225.91 234.2 222.97 230.57 222.97H230.56Z" fill="#5A97CB"/>
<path d="M220.281 218.3C225.627 218.3 229.961 213.966 229.961 208.62C229.961 203.274 225.627 198.94 220.281 198.94C214.934 198.94 210.601 203.274 210.601 208.62C210.601 213.966 214.934 218.3 220.281 218.3Z" fill="#5A97CB"/>
<path d="M273.49 222.97H252.7C249.07 222.97 246.13 225.91 246.13 229.54V236.11H280.07V229.54C280.07 225.91 277.13 222.97 273.5 222.97H273.49Z" fill="#5A97CB"/>
<path d="M263.21 218.3C268.556 218.3 272.89 213.966 272.89 208.62C272.89 203.274 268.556 198.94 263.21 198.94C257.864 198.94 253.53 203.274 253.53 208.62C253.53 213.966 257.864 218.3 263.21 218.3Z" fill="#5A97CB"/>
<path d="M316.42 222.97H295.63C292 222.97 289.06 225.91 289.06 229.54V236.11H323V229.54C323 225.91 320.06 222.97 316.43 222.97H316.42Z" fill="#5A97CB"/>
<path d="M306.14 218.3C311.486 218.3 315.82 213.966 315.82 208.62C315.82 203.274 311.486 198.94 306.14 198.94C300.794 198.94 296.46 203.274 296.46 208.62C296.46 213.966 300.794 218.3 306.14 218.3Z" fill="#5A97CB"/>
<path d="M359.35 222.97H338.56C334.93 222.97 331.99 225.91 331.99 229.54V236.11H365.93V229.54C365.93 225.91 362.99 222.97 359.36 222.97H359.35Z" fill="#5A97CB"/>
<path d="M349.08 218.3C354.427 218.3 358.76 213.966 358.76 208.62C358.76 203.274 354.427 198.94 349.08 198.94C343.734 198.94 339.4 203.274 339.4 208.62C339.4 213.966 343.734 218.3 349.08 218.3Z" fill="#5A97CB"/>
<path d="M402.28 222.97H381.49C377.86 222.97 374.92 225.91 374.92 229.54V236.11H408.86V229.54C408.86 225.91 405.92 222.97 402.29 222.97H402.28Z" fill="#5A97CB"/>
<path d="M392.01 218.3C397.356 218.3 401.69 213.966 401.69 208.62C401.69 203.274 397.356 198.94 392.01 198.94C386.664 198.94 382.33 203.274 382.33 208.62C382.33 213.966 386.664 218.3 392.01 218.3Z" fill="#5A97CB"/>
<path d="M445.22 222.97H424.43C420.8 222.97 417.86 225.91 417.86 229.54V236.11H451.8V229.54C451.8 225.91 448.86 222.97 445.23 222.97H445.22Z" fill="#5A97CB"/>
<path d="M434.941 218.3C440.287 218.3 444.621 213.966 444.621 208.62C444.621 203.274 440.287 198.94 434.941 198.94C429.595 198.94 425.261 203.274 425.261 208.62C425.261 213.966 429.595 218.3 434.941 218.3Z" fill="#5A97CB"/>
<path d="M488.15 222.97H467.36C463.73 222.97 460.79 225.91 460.79 229.54V236.11H494.73V229.54C494.73 225.91 491.79 222.97 488.16 222.97H488.15Z" fill="#5A97CB"/>
<path d="M477.87 218.3C483.217 218.3 487.55 213.966 487.55 208.62C487.55 203.274 483.217 198.94 477.87 198.94C472.524 198.94 468.19 203.274 468.19 208.62C468.19 213.966 472.524 218.3 477.87 218.3Z" fill="#5A97CB"/>
<path d="M101.77 173.85H80.9802C77.3502 173.85 74.4102 176.79 74.4102 180.42V186.99H108.35V180.42C108.35 176.79 105.41 173.85 101.78 173.85H101.77Z" fill="#005178"/>
<path d="M91.4905 169.17C96.8367 169.17 101.171 164.836 101.171 159.49C101.171 154.144 96.8367 149.81 91.4905 149.81C86.1444 149.81 81.8105 154.144 81.8105 159.49C81.8105 164.836 86.1444 169.17 91.4905 169.17Z" fill="#005178"/>
<path d="M144.7 173.85H123.91C120.28 173.85 117.34 176.79 117.34 180.42V186.99H151.28V180.42C151.28 176.79 148.34 173.85 144.71 173.85H144.7Z" fill="#005178"/>
<path d="M134.42 169.17C139.766 169.17 144.1 164.836 144.1 159.49C144.1 154.144 139.766 149.81 134.42 149.81C129.074 149.81 124.74 154.144 124.74 159.49C124.74 164.836 129.074 169.17 134.42 169.17Z" fill="#005178"/>
<path d="M187.63 173.85H166.84C163.21 173.85 160.27 176.79 160.27 180.42V186.99H194.21V180.42C194.21 176.79 191.27 173.85 187.64 173.85H187.63Z" fill="#005178"/>
<path d="M177.35 169.17C182.696 169.17 187.03 164.836 187.03 159.49C187.03 154.144 182.696 149.81 177.35 149.81C172.004 149.81 167.67 154.144 167.67 159.49C167.67 164.836 172.004 169.17 177.35 169.17Z" fill="#005178"/>
<path d="M230.56 173.85H209.77C206.14 173.85 203.2 176.79 203.2 180.42V186.99H237.14V180.42C237.14 176.79 234.2 173.85 230.57 173.85H230.56Z" fill="#005178"/>
<path d="M220.281 169.17C225.627 169.17 229.961 164.836 229.961 159.49C229.961 154.144 225.627 149.81 220.281 149.81C214.934 149.81 210.601 154.144 210.601 159.49C210.601 164.836 214.934 169.17 220.281 169.17Z" fill="#005178"/>
<path d="M273.49 173.85H252.7C249.07 173.85 246.13 176.79 246.13 180.42V186.99H280.07V180.42C280.07 176.79 277.13 173.85 273.5 173.85H273.49Z" fill="#005178"/>
<path d="M263.21 169.17C268.556 169.17 272.89 164.836 272.89 159.49C272.89 154.144 268.556 149.81 263.21 149.81C257.864 149.81 253.53 154.144 253.53 159.49C253.53 164.836 257.864 169.17 263.21 169.17Z" fill="#005178"/>
<path d="M316.42 173.85H295.63C292 173.85 289.06 176.79 289.06 180.42V186.99H323V180.42C323 176.79 320.06 173.85 316.43 173.85H316.42Z" fill="#5A97CB"/>
<path d="M306.14 169.17C311.486 169.17 315.82 164.836 315.82 159.49C315.82 154.144 311.486 149.81 306.14 149.81C300.794 149.81 296.46 154.144 296.46 159.49C296.46 164.836 300.794 169.17 306.14 169.17Z" fill="#5A97CB"/>
<path d="M359.35 173.85H338.56C334.93 173.85 331.99 176.79 331.99 180.42V186.99H365.93V180.42C365.93 176.79 362.99 173.85 359.36 173.85H359.35Z" fill="#5A97CB"/>
<path d="M349.08 169.17C354.427 169.17 358.76 164.836 358.76 159.49C358.76 154.144 354.427 149.81 349.08 149.81C343.734 149.81 339.4 154.144 339.4 159.49C339.4 164.836 343.734 169.17 349.08 169.17Z" fill="#5A97CB"/>
<path d="M402.28 173.85H381.49C377.86 173.85 374.92 176.79 374.92 180.42V186.99H408.86V180.42C408.86 176.79 405.92 173.85 402.29 173.85H402.28Z" fill="#5A97CB"/>
<path d="M392.01 169.17C397.356 169.17 401.69 164.836 401.69 159.49C401.69 154.144 397.356 149.81 392.01 149.81C386.664 149.81 382.33 154.144 382.33 159.49C382.33 164.836 386.664 169.17 392.01 169.17Z" fill="#5A97CB"/>
<path d="M445.22 173.85H424.43C420.8 173.85 417.86 176.79 417.86 180.42V186.99H451.8V180.42C451.8 176.79 448.86 173.85 445.23 173.85H445.22Z" fill="#5A97CB"/>
<path d="M434.941 169.17C440.287 169.17 444.621 164.836 444.621 159.49C444.621 154.144 440.287 149.81 434.941 149.81C429.595 149.81 425.261 154.144 425.261 159.49C425.261 164.836 429.595 169.17 434.941 169.17Z" fill="#5A97CB"/>
<path d="M488.15 173.85H467.36C463.73 173.85 460.79 176.79 460.79 180.42V186.99H494.73V180.42C494.73 176.79 491.79 173.85 488.16 173.85H488.15Z" fill="#5A97CB"/>
<path d="M477.87 169.17C483.217 169.17 487.55 164.836 487.55 159.49C487.55 154.144 483.217 149.81 477.87 149.81C472.524 149.81 468.19 154.144 468.19 159.49C468.19 164.836 472.524 169.17 477.87 169.17Z" fill="#5A97CB"/>
<path d="M531.92 370.36H511.13C507.5 370.36 504.56 373.3 504.56 376.93V383.5H538.5V376.93C538.5 373.3 535.56 370.36 531.93 370.36H531.92Z" fill="#5A97CB"/>
<path d="M521.64 365.68C526.986 365.68 531.32 361.346 531.32 356C531.32 350.654 526.986 346.32 521.64 346.32C516.294 346.32 511.96 350.654 511.96 356C511.96 361.346 516.294 365.68 521.64 365.68Z" fill="#5A97CB"/>
<path d="M574.85 370.36H554.06C550.43 370.36 547.49 373.3 547.49 376.93V383.5H581.43V376.93C581.43 373.3 578.49 370.36 574.86 370.36H574.85Z" fill="#5A97CB"/>
<path d="M564.571 365.68C569.917 365.68 574.251 361.346 574.251 356C574.251 350.654 569.917 346.32 564.571 346.32C559.225 346.32 554.891 350.654 554.891 356C554.891 361.346 559.225 365.68 564.571 365.68Z" fill="#5A97CB"/>
<path d="M617.78 370.36H596.99C593.36 370.36 590.42 373.3 590.42 376.93V383.5H624.36V376.93C624.36 373.3 621.42 370.36 617.79 370.36H617.78Z" fill="#5A97CB"/>
<path d="M607.5 365.68C612.846 365.68 617.18 361.346 617.18 356C617.18 350.654 612.846 346.32 607.5 346.32C602.154 346.32 597.82 350.654 597.82 356C597.82 361.346 602.154 365.68 607.5 365.68Z" fill="#5A97CB"/>
<path d="M660.71 370.36H639.92C636.29 370.36 633.35 373.3 633.35 376.93V383.5H667.29V376.93C667.29 373.3 664.35 370.36 660.72 370.36H660.71Z" fill="#5A97CB"/>
<path d="M650.43 365.68C655.776 365.68 660.11 361.346 660.11 356C660.11 350.654 655.776 346.32 650.43 346.32C645.084 346.32 640.75 350.654 640.75 356C640.75 361.346 645.084 365.68 650.43 365.68Z" fill="#5A97CB"/>
<path d="M703.64 370.36H682.85C679.22 370.36 676.28 373.3 676.28 376.93V383.5H710.22V376.93C710.22 373.3 707.28 370.36 703.65 370.36H703.64Z" fill="#5A97CB"/>
<path d="M693.361 365.68C698.707 365.68 703.041 361.346 703.041 356C703.041 350.654 698.707 346.32 693.361 346.32C688.015 346.32 683.681 350.654 683.681 356C683.681 361.346 688.015 365.68 693.361 365.68Z" fill="#5A97CB"/>
<path d="M746.57 370.36H725.78C722.15 370.36 719.21 373.3 719.21 376.93V383.5H753.15V376.93C753.15 373.3 750.21 370.36 746.58 370.36H746.57Z" fill="#5A97CB"/>
<path d="M736.3 365.68C741.646 365.68 745.98 361.346 745.98 356C745.98 350.654 741.646 346.32 736.3 346.32C730.954 346.32 726.62 350.654 726.62 356C726.62 361.346 730.954 365.68 736.3 365.68Z" fill="#5A97CB"/>
<path d="M789.5 370.36H768.71C765.08 370.36 762.14 373.3 762.14 376.93V383.5H796.08V376.93C796.08 373.3 793.14 370.36 789.51 370.36H789.5Z" fill="#5A97CB"/>
<path d="M779.23 365.68C784.576 365.68 788.91 361.346 788.91 356C788.91 350.654 784.576 346.32 779.23 346.32C773.884 346.32 769.55 350.654 769.55 356C769.55 361.346 773.884 365.68 779.23 365.68Z" fill="#5A97CB"/>
<path d="M832.43 370.36H811.64C808.01 370.36 805.07 373.3 805.07 376.93V383.5H839.01V376.93C839.01 373.3 836.07 370.36 832.44 370.36H832.43Z" fill="#5A97CB"/>
<path d="M822.16 365.68C827.507 365.68 831.841 361.346 831.841 356C831.841 350.654 827.507 346.32 822.16 346.32C816.814 346.32 812.48 350.654 812.48 356C812.48 361.346 816.814 365.68 822.16 365.68Z" fill="#5A97CB"/>
<path d="M875.37 370.36H854.58C850.95 370.36 848.01 373.3 848.01 376.93V383.5H881.95V376.93C881.95 373.3 879.01 370.36 875.38 370.36H875.37Z" fill="#5A97CB"/>
<path d="M865.09 365.68C870.436 365.68 874.77 361.346 874.77 356C874.77 350.654 870.436 346.32 865.09 346.32C859.744 346.32 855.41 350.654 855.41 356C855.41 361.346 859.744 365.68 865.09 365.68Z" fill="#5A97CB"/>
<path d="M918.3 370.36H897.51C893.88 370.36 890.94 373.3 890.94 376.93V383.5H924.88V376.93C924.88 373.3 921.94 370.36 918.31 370.36H918.3Z" fill="#5A97CB"/>
<path d="M908.021 365.68C913.367 365.68 917.701 361.346 917.701 356C917.701 350.654 913.367 346.32 908.021 346.32C902.675 346.32 898.341 350.654 898.341 356C898.341 361.346 902.675 365.68 908.021 365.68Z" fill="#5A97CB"/>
<path d="M531.92 321.23H511.13C507.5 321.23 504.56 324.17 504.56 327.8V334.37H538.5V327.8C538.5 324.17 535.56 321.23 531.93 321.23H531.92Z" fill="#5A97CB"/>
<path d="M521.64 316.55C526.986 316.55 531.32 312.216 531.32 306.87C531.32 301.524 526.986 297.19 521.64 297.19C516.294 297.19 511.96 301.524 511.96 306.87C511.96 312.216 516.294 316.55 521.64 316.55Z" fill="#5A97CB"/>
<path d="M574.85 321.23H554.06C550.43 321.23 547.49 324.17 547.49 327.8V334.37H581.43V327.8C581.43 324.17 578.49 321.23 574.86 321.23H574.85Z" fill="#5A97CB"/>
<path d="M564.571 316.55C569.917 316.55 574.251 312.216 574.251 306.87C574.251 301.524 569.917 297.19 564.571 297.19C559.225 297.19 554.891 301.524 554.891 306.87C554.891 312.216 559.225 316.55 564.571 316.55Z" fill="#5A97CB"/>
<path d="M617.78 321.23H596.99C593.36 321.23 590.42 324.17 590.42 327.8V334.37H624.36V327.8C624.36 324.17 621.42 321.23 617.79 321.23H617.78Z" fill="#5A97CB"/>
<path d="M607.5 316.55C612.846 316.55 617.18 312.216 617.18 306.87C617.18 301.524 612.846 297.19 607.5 297.19C602.154 297.19 597.82 301.524 597.82 306.87C597.82 312.216 602.154 316.55 607.5 316.55Z" fill="#5A97CB"/>
<path d="M660.71 321.23H639.92C636.29 321.23 633.35 324.17 633.35 327.8V334.37H667.29V327.8C667.29 324.17 664.35 321.23 660.72 321.23H660.71Z" fill="#5A97CB"/>
<path d="M650.43 316.55C655.776 316.55 660.11 312.216 660.11 306.87C660.11 301.524 655.776 297.19 650.43 297.19C645.084 297.19 640.75 301.524 640.75 306.87C640.75 312.216 645.084 316.55 650.43 316.55Z" fill="#5A97CB"/>
<path d="M703.64 321.23H682.85C679.22 321.23 676.28 324.17 676.28 327.8V334.37H710.22V327.8C710.22 324.17 707.28 321.23 703.65 321.23H703.64Z" fill="#5A97CB"/>
<path d="M693.361 316.55C698.707 316.55 703.041 312.216 703.041 306.87C703.041 301.524 698.707 297.19 693.361 297.19C688.015 297.19 683.681 301.524 683.681 306.87C683.681 312.216 688.015 316.55 693.361 316.55Z" fill="#5A97CB"/>
<path d="M746.57 321.23H725.78C722.15 321.23 719.21 324.17 719.21 327.8V334.37H753.15V327.8C753.15 324.17 750.21 321.23 746.58 321.23H746.57Z" fill="#5A97CB"/>
<path d="M736.3 316.55C741.646 316.55 745.98 312.216 745.98 306.87C745.98 301.524 741.646 297.19 736.3 297.19C730.954 297.19 726.62 301.524 726.62 306.87C726.62 312.216 730.954 316.55 736.3 316.55Z" fill="#5A97CB"/>
<path d="M789.5 321.23H768.71C765.08 321.23 762.14 324.17 762.14 327.8V334.37H796.08V327.8C796.08 324.17 793.14 321.23 789.51 321.23H789.5Z" fill="#5A97CB"/>
<path d="M779.23 316.55C784.576 316.55 788.91 312.216 788.91 306.87C788.91 301.524 784.576 297.19 779.23 297.19C773.884 297.19 769.55 301.524 769.55 306.87C769.55 312.216 773.884 316.55 779.23 316.55Z" fill="#5A97CB"/>
<path d="M832.43 321.23H811.64C808.01 321.23 805.07 324.17 805.07 327.8V334.37H839.01V327.8C839.01 324.17 836.07 321.23 832.44 321.23H832.43Z" fill="#5A97CB"/>
<path d="M822.16 316.55C827.507 316.55 831.841 312.216 831.841 306.87C831.841 301.524 827.507 297.19 822.16 297.19C816.814 297.19 812.48 301.524 812.48 306.87C812.48 312.216 816.814 316.55 822.16 316.55Z" fill="#5A97CB"/>
<path d="M875.37 321.23H854.58C850.95 321.23 848.01 324.17 848.01 327.8V334.37H881.95V327.8C881.95 324.17 879.01 321.23 875.38 321.23H875.37Z" fill="#5A97CB"/>
<path d="M865.09 316.55C870.436 316.55 874.77 312.216 874.77 306.87C874.77 301.524 870.436 297.19 865.09 297.19C859.744 297.19 855.41 301.524 855.41 306.87C855.41 312.216 859.744 316.55 865.09 316.55Z" fill="#5A97CB"/>
<path d="M918.3 321.23H897.51C893.88 321.23 890.94 324.17 890.94 327.8V334.37H924.88V327.8C924.88 324.17 921.94 321.23 918.31 321.23H918.3Z" fill="#5A97CB"/>
<path d="M908.021 316.55C913.367 316.55 917.701 312.216 917.701 306.87C917.701 301.524 913.367 297.19 908.021 297.19C902.675 297.19 898.341 301.524 898.341 306.87C898.341 312.216 902.675 316.55 908.021 316.55Z" fill="#5A97CB"/>
<path d="M531.92 272.1H511.13C507.5 272.1 504.56 275.04 504.56 278.67V285.24H538.5V278.67C538.5 275.04 535.56 272.1 531.93 272.1H531.92Z" fill="#5A97CB"/>
<path d="M521.64 267.43C526.986 267.43 531.32 263.096 531.32 257.75C531.32 252.404 526.986 248.07 521.64 248.07C516.294 248.07 511.96 252.404 511.96 257.75C511.96 263.096 516.294 267.43 521.64 267.43Z" fill="#5A97CB"/>
<path d="M574.85 272.1H554.06C550.43 272.1 547.49 275.04 547.49 278.67V285.24H581.43V278.67C581.43 275.04 578.49 272.1 574.86 272.1H574.85Z" fill="#5A97CB"/>
<path d="M564.571 267.43C569.917 267.43 574.251 263.096 574.251 257.75C574.251 252.404 569.917 248.07 564.571 248.07C559.225 248.07 554.891 252.404 554.891 257.75C554.891 263.096 559.225 267.43 564.571 267.43Z" fill="#5A97CB"/>
<path d="M617.78 272.1H596.99C593.36 272.1 590.42 275.04 590.42 278.67V285.24H624.36V278.67C624.36 275.04 621.42 272.1 617.79 272.1H617.78Z" fill="#5A97CB"/>
<path d="M607.5 267.43C612.846 267.43 617.18 263.096 617.18 257.75C617.18 252.404 612.846 248.07 607.5 248.07C602.154 248.07 597.82 252.404 597.82 257.75C597.82 263.096 602.154 267.43 607.5 267.43Z" fill="#5A97CB"/>
<path d="M660.71 272.1H639.92C636.29 272.1 633.35 275.04 633.35 278.67V285.24H667.29V278.67C667.29 275.04 664.35 272.1 660.72 272.1H660.71Z" fill="#5A97CB"/>
<path d="M650.43 267.43C655.776 267.43 660.11 263.096 660.11 257.75C660.11 252.404 655.776 248.07 650.43 248.07C645.084 248.07 640.75 252.404 640.75 257.75C640.75 263.096 645.084 267.43 650.43 267.43Z" fill="#5A97CB"/>
<path d="M703.64 272.1H682.85C679.22 272.1 676.28 275.04 676.28 278.67V285.24H710.22V278.67C710.22 275.04 707.28 272.1 703.65 272.1H703.64Z" fill="#5A97CB"/>
<path d="M693.361 267.43C698.707 267.43 703.041 263.096 703.041 257.75C703.041 252.404 698.707 248.07 693.361 248.07C688.015 248.07 683.681 252.404 683.681 257.75C683.681 263.096 688.015 267.43 693.361 267.43Z" fill="#5A97CB"/>
<path d="M746.57 272.1H725.78C722.15 272.1 719.21 275.04 719.21 278.67V285.24H753.15V278.67C753.15 275.04 750.21 272.1 746.58 272.1H746.57Z" fill="#5A97CB"/>
<path d="M736.3 267.43C741.646 267.43 745.98 263.096 745.98 257.75C745.98 252.404 741.646 248.07 736.3 248.07C730.954 248.07 726.62 252.404 726.62 257.75C726.62 263.096 730.954 267.43 736.3 267.43Z" fill="#5A97CB"/>
<path d="M789.5 272.1H768.71C765.08 272.1 762.14 275.04 762.14 278.67V285.24H796.08V278.67C796.08 275.04 793.14 272.1 789.51 272.1H789.5Z" fill="#5A97CB"/>
<path d="M779.23 267.43C784.576 267.43 788.91 263.096 788.91 257.75C788.91 252.404 784.576 248.07 779.23 248.07C773.884 248.07 769.55 252.404 769.55 257.75C769.55 263.096 773.884 267.43 779.23 267.43Z" fill="#5A97CB"/>
<path d="M832.43 272.1H811.64C808.01 272.1 805.07 275.04 805.07 278.67V285.24H839.01V278.67C839.01 275.04 836.07 272.1 832.44 272.1H832.43Z" fill="#5A97CB"/>
<path d="M822.16 267.43C827.507 267.43 831.841 263.096 831.841 257.75C831.841 252.404 827.507 248.07 822.16 248.07C816.814 248.07 812.48 252.404 812.48 257.75C812.48 263.096 816.814 267.43 822.16 267.43Z" fill="#5A97CB"/>
<path d="M875.37 272.1H854.58C850.95 272.1 848.01 275.04 848.01 278.67V285.24H881.95V278.67C881.95 275.04 879.01 272.1 875.38 272.1H875.37Z" fill="#5A97CB"/>
<path d="M865.09 267.43C870.436 267.43 874.77 263.096 874.77 257.75C874.77 252.404 870.436 248.07 865.09 248.07C859.744 248.07 855.41 252.404 855.41 257.75C855.41 263.096 859.744 267.43 865.09 267.43Z" fill="#5A97CB"/>
<path d="M918.3 272.1H897.51C893.88 272.1 890.94 275.04 890.94 278.67V285.24H924.88V278.67C924.88 275.04 921.94 272.1 918.31 272.1H918.3Z" fill="#5A97CB"/>
<path d="M908.021 267.43C913.367 267.43 917.701 263.096 917.701 257.75C917.701 252.404 913.367 248.07 908.021 248.07C902.675 248.07 898.341 252.404 898.341 257.75C898.341 263.096 902.675 267.43 908.021 267.43Z" fill="#5A97CB"/>
<path d="M531.92 222.97H511.13C507.5 222.97 504.56 225.91 504.56 229.54V236.11H538.5V229.54C538.5 225.91 535.56 222.97 531.93 222.97H531.92Z" fill="#5A97CB"/>
<path d="M521.64 218.3C526.986 218.3 531.32 213.966 531.32 208.62C531.32 203.274 526.986 198.94 521.64 198.94C516.294 198.94 511.96 203.274 511.96 208.62C511.96 213.966 516.294 218.3 521.64 218.3Z" fill="#5A97CB"/>
<path d="M574.85 222.97H554.06C550.43 222.97 547.49 225.91 547.49 229.54V236.11H581.43V229.54C581.43 225.91 578.49 222.97 574.86 222.97H574.85Z" fill="#5A97CB"/>
<path d="M564.571 218.3C569.917 218.3 574.251 213.966 574.251 208.62C574.251 203.274 569.917 198.94 564.571 198.94C559.225 198.94 554.891 203.274 554.891 208.62C554.891 213.966 559.225 218.3 564.571 218.3Z" fill="#5A97CB"/>
<path d="M617.78 222.97H596.99C593.36 222.97 590.42 225.91 590.42 229.54V236.11H624.36V229.54C624.36 225.91 621.42 222.97 617.79 222.97H617.78Z" fill="#5A97CB"/>
<path d="M607.5 218.3C612.846 218.3 617.18 213.966 617.18 208.62C617.18 203.274 612.846 198.94 607.5 198.94C602.154 198.94 597.82 203.274 597.82 208.62C597.82 213.966 602.154 218.3 607.5 218.3Z" fill="#5A97CB"/>
<path d="M660.71 222.97H639.92C636.29 222.97 633.35 225.91 633.35 229.54V236.11H667.29V229.54C667.29 225.91 664.35 222.97 660.72 222.97H660.71Z" fill="#5A97CB"/>
<path d="M650.43 218.3C655.776 218.3 660.11 213.966 660.11 208.62C660.11 203.274 655.776 198.94 650.43 198.94C645.084 198.94 640.75 203.274 640.75 208.62C640.75 213.966 645.084 218.3 650.43 218.3Z" fill="#5A97CB"/>
<path d="M703.64 222.97H682.85C679.22 222.97 676.28 225.91 676.28 229.54V236.11H710.22V229.54C710.22 225.91 707.28 222.97 703.65 222.97H703.64Z" fill="#5A97CB"/>
<path d="M693.361 218.3C698.707 218.3 703.041 213.966 703.041 208.62C703.041 203.274 698.707 198.94 693.361 198.94C688.015 198.94 683.681 203.274 683.681 208.62C683.681 213.966 688.015 218.3 693.361 218.3Z" fill="#5A97CB"/>
<path d="M746.57 222.97H725.78C722.15 222.97 719.21 225.91 719.21 229.54V236.11H753.15V229.54C753.15 225.91 750.21 222.97 746.58 222.97H746.57Z" fill="#5A97CB"/>
<path d="M736.3 218.3C741.646 218.3 745.98 213.966 745.98 208.62C745.98 203.274 741.646 198.94 736.3 198.94C730.954 198.94 726.62 203.274 726.62 208.62C726.62 213.966 730.954 218.3 736.3 218.3Z" fill="#5A97CB"/>
<path d="M789.5 222.97H768.71C765.08 222.97 762.14 225.91 762.14 229.54V236.11H796.08V229.54C796.08 225.91 793.14 222.97 789.51 222.97H789.5Z" fill="#5A97CB"/>
<path d="M779.23 218.3C784.576 218.3 788.91 213.966 788.91 208.62C788.91 203.274 784.576 198.94 779.23 198.94C773.884 198.94 769.55 203.274 769.55 208.62C769.55 213.966 773.884 218.3 779.23 218.3Z" fill="#5A97CB"/>
<path d="M832.43 222.97H811.64C808.01 222.97 805.07 225.91 805.07 229.54V236.11H839.01V229.54C839.01 225.91 836.07 222.97 832.44 222.97H832.43Z" fill="#5A97CB"/>
<path d="M822.16 218.3C827.507 218.3 831.841 213.966 831.841 208.62C831.841 203.274 827.507 198.94 822.16 198.94C816.814 198.94 812.48 203.274 812.48 208.62C812.48 213.966 816.814 218.3 822.16 218.3Z" fill="#5A97CB"/>
<path d="M875.37 222.97H854.58C850.95 222.97 848.01 225.91 848.01 229.54V236.11H881.95V229.54C881.95 225.91 879.01 222.97 875.38 222.97H875.37Z" fill="#5A97CB"/>
<path d="M865.09 218.3C870.436 218.3 874.77 213.966 874.77 208.62C874.77 203.274 870.436 198.94 865.09 198.94C859.744 198.94 855.41 203.274 855.41 208.62C855.41 213.966 859.744 218.3 865.09 218.3Z" fill="#5A97CB"/>
<path d="M918.3 222.97H897.51C893.88 222.97 890.94 225.91 890.94 229.54V236.11H924.88V229.54C924.88 225.91 921.94 222.97 918.31 222.97H918.3Z" fill="#5A97CB"/>
<path d="M908.021 218.3C913.367 218.3 917.701 213.966 917.701 208.62C917.701 203.274 913.367 198.94 908.021 198.94C902.675 198.94 898.341 203.274 898.341 208.62C898.341 213.966 902.675 218.3 908.021 218.3Z" fill="#5A97CB"/>
<path d="M531.92 173.85H511.13C507.5 173.85 504.56 176.79 504.56 180.42V186.99H538.5V180.42C538.5 176.79 535.56 173.85 531.93 173.85H531.92Z" fill="#5A97CB"/>
<path d="M521.64 169.17C526.986 169.17 531.32 164.836 531.32 159.49C531.32 154.144 526.986 149.81 521.64 149.81C516.294 149.81 511.96 154.144 511.96 159.49C511.96 164.836 516.294 169.17 521.64 169.17Z" fill="#5A97CB"/>
<path d="M574.85 173.85H554.06C550.43 173.85 547.49 176.79 547.49 180.42V186.99H581.43V180.42C581.43 176.79 578.49 173.85 574.86 173.85H574.85Z" fill="#5A97CB"/>
<path d="M564.571 169.17C569.917 169.17 574.251 164.836 574.251 159.49C574.251 154.144 569.917 149.81 564.571 149.81C559.225 149.81 554.891 154.144 554.891 159.49C554.891 164.836 559.225 169.17 564.571 169.17Z" fill="#5A97CB"/>
<path d="M617.78 173.85H596.99C593.36 173.85 590.42 176.79 590.42 180.42V186.99H624.36V180.42C624.36 176.79 621.42 173.85 617.79 173.85H617.78Z" fill="#5A97CB"/>
<path d="M607.5 169.17C612.846 169.17 617.18 164.836 617.18 159.49C617.18 154.144 612.846 149.81 607.5 149.81C602.154 149.81 597.82 154.144 597.82 159.49C597.82 164.836 602.154 169.17 607.5 169.17Z" fill="#5A97CB"/>
<path d="M660.71 173.85H639.92C636.29 173.85 633.35 176.79 633.35 180.42V186.99H667.29V180.42C667.29 176.79 664.35 173.85 660.72 173.85H660.71Z" fill="#5A97CB"/>
<path d="M650.43 169.17C655.776 169.17 660.11 164.836 660.11 159.49C660.11 154.144 655.776 149.81 650.43 149.81C645.084 149.81 640.75 154.144 640.75 159.49C640.75 164.836 645.084 169.17 650.43 169.17Z" fill="#5A97CB"/>
<path d="M703.64 173.85H682.85C679.22 173.85 676.28 176.79 676.28 180.42V186.99H710.22V180.42C710.22 176.79 707.28 173.85 703.65 173.85H703.64Z" fill="#5A97CB"/>
<path d="M693.361 169.17C698.707 169.17 703.041 164.836 703.041 159.49C703.041 154.144 698.707 149.81 693.361 149.81C688.015 149.81 683.681 154.144 683.681 159.49C683.681 164.836 688.015 169.17 693.361 169.17Z" fill="#5A97CB"/>
<path d="M746.57 173.85H725.78C722.15 173.85 719.21 176.79 719.21 180.42V186.99H753.15V180.42C753.15 176.79 750.21 173.85 746.58 173.85H746.57Z" fill="#5A97CB"/>
<path d="M736.3 169.17C741.646 169.17 745.98 164.836 745.98 159.49C745.98 154.144 741.646 149.81 736.3 149.81C730.954 149.81 726.62 154.144 726.62 159.49C726.62 164.836 730.954 169.17 736.3 169.17Z" fill="#5A97CB"/>
<path d="M789.5 173.85H768.71C765.08 173.85 762.14 176.79 762.14 180.42V186.99H796.08V180.42C796.08 176.79 793.14 173.85 789.51 173.85H789.5Z" fill="#5A97CB"/>
<path d="M779.23 169.17C784.576 169.17 788.91 164.836 788.91 159.49C788.91 154.144 784.576 149.81 779.23 149.81C773.884 149.81 769.55 154.144 769.55 159.49C769.55 164.836 773.884 169.17 779.23 169.17Z" fill="#5A97CB"/>
<path d="M832.43 173.85H811.64C808.01 173.85 805.07 176.79 805.07 180.42V186.99H839.01V180.42C839.01 176.79 836.07 173.85 832.44 173.85H832.43Z" fill="#5A97CB"/>
<path d="M822.16 169.17C827.507 169.17 831.841 164.836 831.841 159.49C831.841 154.144 827.507 149.81 822.16 149.81C816.814 149.81 812.48 154.144 812.48 159.49C812.48 164.836 816.814 169.17 822.16 169.17Z" fill="#5A97CB"/>
<path d="M875.37 173.85H854.58C850.95 173.85 848.01 176.79 848.01 180.42V186.99H881.95V180.42C881.95 176.79 879.01 173.85 875.38 173.85H875.37Z" fill="#5A97CB"/>
<path d="M865.09 169.17C870.436 169.17 874.77 164.836 874.77 159.49C874.77 154.144 870.436 149.81 865.09 149.81C859.744 149.81 855.41 154.144 855.41 159.49C855.41 164.836 859.744 169.17 865.09 169.17Z" fill="#5A97CB"/>
<path d="M918.3 173.85H897.51C893.88 173.85 890.94 176.79 890.94 180.42V186.99H924.88V180.42C924.88 176.79 921.94 173.85 918.31 173.85H918.3Z" fill="#5A97CB"/>
<path d="M908.021 169.17C913.367 169.17 917.701 164.836 917.701 159.49C917.701 154.144 913.367 149.81 908.021 149.81C902.675 149.81 898.341 154.144 898.341 159.49C898.341 164.836 902.675 169.17 908.021 169.17Z" fill="#5A97CB"/>
<path d="M907.01 26.96H97.7998V74.63H907.01V26.96Z" fill="#5A97CB"/>
<path d="M907.01 82.3999H97.7998V130.07H907.01V82.3999Z" fill="#5A97CB"/>
<path d="M113.489 62.0958C113.48 61.6242 113.557 61.2449 113.719 60.958C113.881 60.6711 114.091 60.4622 114.349 60.3316C114.611 60.2009 114.886 60.1355 115.176 60.1355C115.466 60.1355 115.73 60.1995 115.969 60.3273C116.21 60.4523 116.486 60.6497 116.795 60.9196C117.006 61.1015 117.173 61.2293 117.298 61.3032C117.426 61.377 117.565 61.414 117.716 61.414C117.96 61.414 118.153 61.3259 118.295 61.1497C118.438 60.9708 118.506 60.7122 118.5 60.3742H119.42C119.429 60.8458 119.352 61.225 119.19 61.512C119.031 61.7989 118.821 62.0077 118.56 62.1384C118.298 62.2691 118.023 62.3344 117.733 62.3344C117.443 62.3344 117.179 62.2719 116.94 62.1469C116.702 62.0191 116.426 61.8202 116.114 61.5503C115.906 61.3685 115.739 61.2407 115.611 61.1668C115.483 61.0929 115.344 61.056 115.193 61.056C114.963 61.056 114.773 61.137 114.622 61.2989C114.474 61.458 114.403 61.7236 114.409 62.0958H113.489ZM124.382 56.8628V65.5901H123.325V57.9708H123.274L121.143 59.3855V58.3117L123.325 56.8628H124.382ZM129.841 65.7094C129.278 65.7094 128.777 65.6128 128.336 65.4196C127.899 65.2265 127.551 64.958 127.292 64.6142C127.037 64.2676 126.897 63.8657 126.875 63.4083H127.949C127.971 63.6895 128.068 63.9324 128.238 64.137C128.409 64.3387 128.632 64.4949 128.907 64.6057C129.183 64.7165 129.488 64.7719 129.824 64.7719C130.199 64.7719 130.531 64.7066 130.821 64.5759C131.11 64.4452 131.338 64.2634 131.502 64.0304C131.667 63.7975 131.75 63.5276 131.75 63.2208C131.75 62.8997 131.67 62.6171 131.511 62.3728C131.352 62.1256 131.119 61.9324 130.812 61.7932C130.505 61.654 130.13 61.5844 129.687 61.5844H128.988V60.6469H129.687C130.034 60.6469 130.338 60.5844 130.599 60.4594C130.863 60.3344 131.069 60.1583 131.217 59.931C131.368 59.7037 131.443 59.4367 131.443 59.1299C131.443 58.8344 131.377 58.5773 131.247 58.3586C131.116 58.1398 130.931 57.9693 130.693 57.8472C130.457 57.725 130.179 57.664 129.858 57.664C129.556 57.664 129.272 57.7193 129.005 57.8301C128.741 57.9381 128.525 58.0958 128.358 58.3032C128.19 58.5077 128.099 58.7549 128.085 59.0446H127.062C127.079 58.5872 127.217 58.1867 127.475 57.8429C127.734 57.4963 128.072 57.2265 128.49 57.0333C128.91 56.8401 129.372 56.7435 129.875 56.7435C130.414 56.7435 130.877 56.8529 131.264 57.0716C131.65 57.2875 131.947 57.573 132.154 57.9282C132.362 58.2833 132.466 58.6668 132.466 59.0787C132.466 59.5702 132.336 59.9892 132.078 60.3358C131.822 60.6824 131.474 60.9225 131.034 61.056V61.1242C131.585 61.2151 132.015 61.4495 132.325 61.8273C132.635 62.2023 132.789 62.6668 132.789 63.2208C132.789 63.6952 132.66 64.1213 132.402 64.4992C132.146 64.8742 131.797 65.1696 131.353 65.3855C130.91 65.6015 130.406 65.7094 129.841 65.7094ZM138.419 65.5901H137.311L140.515 56.8628H141.606L144.811 65.5901H143.703L141.095 58.2435H141.027L138.419 65.5901ZM138.828 62.181H143.294V63.1185H138.828V62.181ZM148.863 65.5901H146.17V56.8628H148.983C149.829 56.8628 150.554 57.0375 151.156 57.387C151.758 57.7336 152.22 58.2321 152.541 58.8827C152.862 59.5304 153.022 60.306 153.022 61.2094C153.022 62.1185 152.86 62.9012 152.537 63.5574C152.213 64.2108 151.741 64.7137 151.122 65.0659C150.502 65.4154 149.75 65.5901 148.863 65.5901ZM147.227 64.6526H148.795C149.517 64.6526 150.115 64.5134 150.589 64.235C151.064 63.9566 151.417 63.5603 151.65 63.0461C151.883 62.5318 152 61.9196 152 61.2094C152 60.5049 151.885 59.8983 151.654 59.3898C151.424 58.8784 151.081 58.4864 150.623 58.2137C150.166 57.9381 149.596 57.8003 148.914 57.8003H147.227V64.6526ZM160.522 56.8628H161.579V62.6412C161.579 63.2378 161.439 63.7705 161.157 64.2392C160.879 64.7051 160.485 65.073 159.977 65.3429C159.468 65.61 158.872 65.7435 158.187 65.7435C157.502 65.7435 156.906 65.61 156.397 65.3429C155.889 65.073 155.494 64.7051 155.213 64.2392C154.934 63.7705 154.795 63.2378 154.795 62.6412V56.8628H155.852V62.556C155.852 62.9821 155.946 63.3614 156.133 63.6938C156.321 64.0233 156.588 64.2833 156.934 64.4736C157.284 64.6611 157.701 64.7549 158.187 64.7549C158.673 64.7549 159.091 64.6611 159.44 64.4736C159.789 64.2833 160.056 64.0233 160.241 63.6938C160.429 63.3614 160.522 62.9821 160.522 62.556V56.8628ZM163.69 65.5901V56.8628H164.746V64.6526H168.803V65.5901H163.69ZM168.802 57.8003V56.8628H175.348V57.8003H172.603V65.5901H171.547V57.8003H168.802ZM181.751 59.0446C181.7 58.6128 181.493 58.2776 181.129 58.039C180.766 57.8003 180.32 57.681 179.791 57.681C179.405 57.681 179.067 57.7435 178.777 57.8685C178.49 57.9935 178.266 58.1654 178.104 58.3841C177.945 58.6029 177.865 58.8515 177.865 59.1299C177.865 59.3628 177.92 59.5631 178.031 59.7307C178.145 59.8955 178.29 60.0333 178.466 60.1441C178.642 60.252 178.827 60.3415 179.02 60.4125C179.213 60.4807 179.391 60.5361 179.553 60.5787L180.439 60.8174C180.666 60.877 180.919 60.9594 181.197 61.0645C181.479 61.1696 181.747 61.3131 182.003 61.4949C182.261 61.6739 182.474 61.904 182.642 62.1853C182.81 62.4665 182.893 62.8117 182.893 63.2208C182.893 63.6924 182.77 64.1185 182.523 64.4992C182.278 64.8799 181.92 65.1824 181.449 65.4068C180.98 65.6313 180.411 65.7435 179.74 65.7435C179.115 65.7435 178.574 65.6426 178.116 65.4409C177.662 65.2392 177.304 64.958 177.043 64.5972C176.784 64.2364 176.638 63.8174 176.604 63.3401H177.695C177.723 63.6696 177.834 63.9424 178.027 64.1583C178.223 64.3713 178.47 64.5304 178.768 64.6355C179.07 64.7378 179.393 64.789 179.74 64.789C180.143 64.789 180.506 64.7236 180.827 64.5929C181.148 64.4594 181.402 64.2747 181.589 64.039C181.777 63.8003 181.871 63.5219 181.871 63.2037C181.871 62.914 181.79 62.6782 181.628 62.4963C181.466 62.3145 181.253 62.1668 180.989 62.0532C180.724 61.9395 180.439 61.8401 180.132 61.7549L179.058 61.448C178.376 61.252 177.837 60.9722 177.439 60.6086C177.041 60.2449 176.842 59.7691 176.842 59.181C176.842 58.6924 176.974 58.2662 177.239 57.9026C177.506 57.5361 177.864 57.252 178.312 57.0503C178.764 56.8458 179.268 56.7435 179.825 56.7435C180.388 56.7435 180.888 56.8443 181.325 57.0461C181.763 57.2449 182.109 57.5176 182.365 57.8642C182.624 58.2108 182.76 58.6043 182.774 59.0446H181.751ZM189.063 56.8628V65.5901H188.006V56.8628H189.063ZM198.102 56.8628V65.5901H197.08L192.324 58.7378H192.239V65.5901H191.182V56.8628H192.205L196.977 63.7321H197.062V56.8628H198.102ZM203.115 57.8003V56.8628H209.66V57.8003H206.916V65.5901H205.859V57.8003H203.115ZM211.291 65.5901V56.8628H212.348V60.7492H217.001V56.8628H218.058V65.5901H217.001V61.6867H212.348V65.5901H211.291ZM220.174 65.5901V56.8628H225.441V57.8003H221.231V60.7492H225.168V61.6867H221.231V64.6526H225.509V65.5901H220.174ZM236.448 56.8628H237.505V62.6412C237.505 63.2378 237.364 63.7705 237.083 64.2392C236.805 64.7051 236.411 65.073 235.903 65.3429C235.394 65.61 234.798 65.7435 234.113 65.7435C233.428 65.7435 232.832 65.61 232.323 65.3429C231.815 65.073 231.42 64.7051 231.138 64.2392C230.86 63.7705 230.721 63.2378 230.721 62.6412V56.8628H231.778V62.556C231.778 62.9821 231.871 63.3614 232.059 63.6938C232.246 64.0233 232.513 64.2833 232.86 64.4736C233.21 64.6611 233.627 64.7549 234.113 64.7549C234.599 64.7549 235.016 64.6611 235.366 64.4736C235.715 64.2833 235.982 64.0233 236.167 63.6938C236.354 63.3614 236.448 62.9821 236.448 62.556V56.8628ZM244.388 59.0446C244.337 58.6128 244.13 58.2776 243.766 58.039C243.402 57.8003 242.956 57.681 242.428 57.681C242.042 57.681 241.703 57.7435 241.414 57.8685C241.127 57.9935 240.902 58.1654 240.74 58.3841C240.581 58.6029 240.502 58.8515 240.502 59.1299C240.502 59.3628 240.557 59.5631 240.668 59.7307C240.782 59.8955 240.926 60.0333 241.103 60.1441C241.279 60.252 241.463 60.3415 241.657 60.4125C241.85 60.4807 242.027 60.5361 242.189 60.5787L243.076 60.8174C243.303 60.877 243.556 60.9594 243.834 61.0645C244.115 61.1696 244.384 61.3131 244.64 61.4949C244.898 61.6739 245.111 61.904 245.279 62.1853C245.446 62.4665 245.53 62.8117 245.53 63.2208C245.53 63.6924 245.407 64.1185 245.159 64.4992C244.915 64.8799 244.557 65.1824 244.086 65.4068C243.617 65.6313 243.047 65.7435 242.377 65.7435C241.752 65.7435 241.211 65.6426 240.753 65.4409C240.299 65.2392 239.941 64.958 239.679 64.5972C239.421 64.2364 239.275 63.8174 239.24 63.3401H240.331C240.36 63.6696 240.471 63.9424 240.664 64.1583C240.86 64.3713 241.107 64.5304 241.405 64.6355C241.706 64.7378 242.03 64.789 242.377 64.789C242.78 64.789 243.142 64.7236 243.463 64.5929C243.784 64.4594 244.039 64.2747 244.226 64.039C244.414 63.8003 244.507 63.5219 244.507 63.2037C244.507 62.914 244.426 62.6782 244.265 62.4963C244.103 62.3145 243.89 62.1668 243.625 62.0532C243.361 61.9395 243.076 61.8401 242.769 61.7549L241.695 61.448C241.013 61.252 240.473 60.9722 240.076 60.6086C239.678 60.2449 239.479 59.7691 239.479 59.181C239.479 58.6924 239.611 58.2662 239.875 57.9026C240.142 57.5361 240.5 57.252 240.949 57.0503C241.401 56.8458 241.905 56.7435 242.462 56.7435C243.025 56.7435 243.525 56.8443 243.962 57.0461C244.4 57.2449 244.746 57.5176 245.002 57.8642C245.26 58.2108 245.397 58.6043 245.411 59.0446H244.388ZM252.228 65.5901L249.842 56.8628H250.915L252.739 63.9708H252.825L254.683 56.8628H255.876L257.734 63.9708H257.819L259.643 56.8628H260.717L258.33 65.5901H257.239L255.313 58.6355H255.245L253.319 65.5901H252.228ZM263.09 56.8628V65.5901H262.033V56.8628H263.09ZM265.209 65.5901V56.8628H266.266V64.6526H270.323V65.5901H265.209ZM271.959 65.5901V56.8628H273.016V64.6526H277.073V65.5901H271.959ZM282.084 65.5901V56.8628H287.351V57.8003H283.141V60.7492H287.078V61.6867H283.141V64.6526H287.419V65.5901H282.084ZM289.767 56.8628L292.017 60.4935H292.086L294.336 56.8628H295.58L292.836 61.2265L295.58 65.5901H294.336L292.086 62.0276H292.017L289.767 65.5901H288.523L291.336 61.2265L288.523 56.8628H289.767ZM296.955 65.5901V56.8628H299.904C300.589 56.8628 301.148 56.9864 301.583 57.2336C302.021 57.4779 302.344 57.8088 302.555 58.2265C302.765 58.6441 302.87 59.11 302.87 59.6242C302.87 60.1384 302.765 60.6057 302.555 61.0262C302.347 61.4466 302.026 61.7818 301.592 62.0318C301.157 62.279 300.6 62.4026 299.921 62.4026H297.808V61.4651H299.887C300.356 61.4651 300.732 61.3841 301.016 61.2222C301.3 61.0603 301.506 60.8415 301.634 60.5659C301.765 60.2875 301.83 59.9736 301.83 59.6242C301.83 59.2747 301.765 58.9622 301.634 58.6867C301.506 58.4111 301.299 58.1952 301.012 58.039C300.725 57.8799 300.344 57.8003 299.87 57.8003H298.012V65.5901H296.955ZM304.572 65.5901V56.8628H309.839V57.8003H305.629V60.7492H309.567V61.6867H305.629V64.6526H309.908V65.5901H304.572ZM311.744 65.5901V56.8628H314.693C315.375 56.8628 315.935 56.9793 316.372 57.2122C316.81 57.4424 317.134 57.7591 317.344 58.1625C317.554 58.5659 317.659 59.0247 317.659 59.539C317.659 60.0532 317.554 60.5091 317.344 60.9068C317.134 61.3046 316.811 61.6171 316.376 61.8443C315.942 62.0688 315.386 62.181 314.71 62.181H312.324V61.2265H314.676C315.142 61.2265 315.517 61.1583 315.801 61.0219C316.088 60.8855 316.295 60.6924 316.423 60.4424C316.554 60.1895 316.619 59.8884 316.619 59.539C316.619 59.1895 316.554 58.8841 316.423 58.6228C316.293 58.3614 316.084 58.1597 315.797 58.0176C315.51 57.8728 315.131 57.8003 314.659 57.8003H312.801V65.5901H311.744ZM315.852 61.6696L318 65.5901H316.773L314.659 61.6696H315.852ZM320.477 56.8628V65.5901H319.42V56.8628H320.477ZM322.596 65.5901V56.8628H327.863V57.8003H323.653V60.7492H327.59V61.6867H323.653V64.6526H327.931V65.5901H322.596ZM336.688 56.8628V65.5901H335.665L330.91 58.7378H330.825V65.5901H329.768V56.8628H330.79L335.563 63.7321H335.648V56.8628H336.688ZM345.826 59.5901H344.769C344.706 59.2861 344.597 59.0191 344.441 58.789C344.287 58.5588 344.1 58.3657 343.878 58.2094C343.659 58.0503 343.417 57.931 343.15 57.8515C342.882 57.7719 342.604 57.7321 342.314 57.7321C341.786 57.7321 341.307 57.8657 340.878 58.1327C340.452 58.3997 340.113 58.7932 339.86 59.3131C339.61 59.833 339.485 60.4708 339.485 61.2265C339.485 61.9821 339.61 62.6199 339.86 63.1398C340.113 63.6597 340.452 64.0532 340.878 64.3202C341.307 64.5872 341.786 64.7208 342.314 64.7208C342.604 64.7208 342.882 64.681 343.15 64.6015C343.417 64.5219 343.659 64.404 343.878 64.2478C344.1 64.0887 344.287 63.8941 344.441 63.664C344.597 63.431 344.706 63.164 344.769 62.8628H345.826C345.746 63.3088 345.601 63.708 345.391 64.0603C345.181 64.4125 344.919 64.7122 344.607 64.9594C344.294 65.2037 343.944 65.3898 343.554 65.5176C343.168 65.6455 342.755 65.7094 342.314 65.7094C341.57 65.7094 340.908 65.5276 340.328 65.164C339.749 64.8003 339.293 64.2833 338.961 63.6128C338.628 62.9424 338.462 62.1469 338.462 61.2265C338.462 60.306 338.628 59.5105 338.961 58.8401C339.293 58.1696 339.749 57.6526 340.328 57.289C340.908 56.9253 341.57 56.7435 342.314 56.7435C342.755 56.7435 343.168 56.8074 343.554 56.9353C343.944 57.0631 344.294 57.2506 344.607 57.4978C344.919 57.7421 345.181 58.0404 345.391 58.3926C345.601 58.7421 345.746 59.1412 345.826 59.5901ZM347.533 65.5901V56.8628H352.8V57.8003H348.59V60.7492H352.528V61.6867H348.59V64.6526H352.869V65.5901H347.533Z" fill="white"/>
<path d="M210.906 121.97V113.243H213.855C214.54 113.243 215.1 113.366 215.534 113.613C215.972 113.858 216.296 114.189 216.506 114.606C216.716 115.024 216.821 115.49 216.821 116.004C216.821 116.518 216.716 116.986 216.506 117.406C216.298 117.827 215.977 118.162 215.543 118.412C215.108 118.659 214.551 118.782 213.872 118.782H211.759V117.845H213.838C214.307 117.845 214.683 117.764 214.968 117.602C215.252 117.44 215.458 117.221 215.585 116.946C215.716 116.667 215.781 116.353 215.781 116.004C215.781 115.655 215.716 115.342 215.585 115.067C215.458 114.791 215.25 114.575 214.963 114.419C214.676 114.26 214.296 114.18 213.821 114.18H211.963V121.97H210.906ZM218.046 114.18V113.243H224.592V114.18H221.847V121.97H220.791V114.18H218.046ZM230.996 115.425C230.944 114.993 230.737 114.657 230.373 114.419C230.01 114.18 229.564 114.061 229.035 114.061C228.649 114.061 228.311 114.123 228.021 114.248C227.734 114.373 227.51 114.545 227.348 114.764C227.189 114.983 227.109 115.231 227.109 115.51C227.109 115.743 227.165 115.943 227.275 116.111C227.389 116.275 227.534 116.413 227.71 116.524C227.886 116.632 228.071 116.721 228.264 116.792C228.457 116.861 228.635 116.916 228.797 116.959L229.683 117.197C229.91 117.257 230.163 117.339 230.442 117.444C230.723 117.55 230.991 117.693 231.247 117.875C231.506 118.054 231.719 118.284 231.886 118.565C232.054 118.846 232.138 119.192 232.138 119.601C232.138 120.072 232.014 120.498 231.767 120.879C231.523 121.26 231.165 121.562 230.693 121.787C230.224 122.011 229.655 122.123 228.984 122.123C228.359 122.123 227.818 122.023 227.361 121.821C226.906 121.619 226.548 121.338 226.287 120.977C226.028 120.616 225.882 120.197 225.848 119.72H226.939C226.967 120.05 227.078 120.322 227.271 120.538C227.467 120.751 227.714 120.91 228.013 121.015C228.314 121.118 228.638 121.169 228.984 121.169C229.388 121.169 229.75 121.103 230.071 120.973C230.392 120.839 230.646 120.655 230.834 120.419C231.021 120.18 231.115 119.902 231.115 119.584C231.115 119.294 231.034 119.058 230.872 118.876C230.71 118.694 230.497 118.547 230.233 118.433C229.969 118.319 229.683 118.22 229.376 118.135L228.302 117.828C227.621 117.632 227.081 117.352 226.683 116.988C226.285 116.625 226.086 116.149 226.086 115.561C226.086 115.072 226.219 114.646 226.483 114.282C226.75 113.916 227.108 113.632 227.557 113.43C228.008 113.226 228.513 113.123 229.069 113.123C229.632 113.123 230.132 113.224 230.569 113.426C231.007 113.625 231.354 113.898 231.609 114.244C231.868 114.591 232.004 114.984 232.018 115.425H230.996ZM236.568 121.97H233.875V113.243H236.688C237.534 113.243 238.259 113.417 238.861 113.767C239.463 114.113 239.925 114.612 240.246 115.263C240.567 115.91 240.727 116.686 240.727 117.589C240.727 118.498 240.566 119.281 240.242 119.937C239.918 120.591 239.446 121.094 238.827 121.446C238.208 121.795 237.455 121.97 236.568 121.97ZM234.932 121.032H236.5C237.222 121.032 237.82 120.893 238.294 120.615C238.769 120.336 239.122 119.94 239.355 119.426C239.588 118.912 239.705 118.3 239.705 117.589C239.705 116.885 239.59 116.278 239.36 115.77C239.129 115.258 238.786 114.866 238.328 114.594C237.871 114.318 237.301 114.18 236.619 114.18H234.932V121.032ZM248.568 121.97H245.875V113.243H248.688C249.534 113.243 250.259 113.417 250.861 113.767C251.463 114.113 251.925 114.612 252.246 115.263C252.567 115.91 252.727 116.686 252.727 117.589C252.727 118.498 252.566 119.281 252.242 119.937C251.918 120.591 251.446 121.094 250.827 121.446C250.208 121.795 249.455 121.97 248.568 121.97ZM246.932 121.032H248.5C249.222 121.032 249.82 120.893 250.294 120.615C250.769 120.336 251.122 119.94 251.355 119.426C251.588 118.912 251.705 118.3 251.705 117.589C251.705 116.885 251.59 116.278 251.36 115.77C251.129 115.258 250.786 114.866 250.328 114.594C249.871 114.318 249.301 114.18 248.619 114.18H246.932V121.032ZM260.227 113.243H261.284V119.021C261.284 119.618 261.144 120.15 260.862 120.619C260.584 121.085 260.191 121.453 259.682 121.723C259.173 121.99 258.577 122.123 257.892 122.123C257.208 122.123 256.611 121.99 256.102 121.723C255.594 121.453 255.199 121.085 254.918 120.619C254.639 120.15 254.5 119.618 254.5 119.021V113.243H255.557V118.936C255.557 119.362 255.651 119.741 255.838 120.074C256.026 120.403 256.293 120.663 256.639 120.853C256.989 121.041 257.406 121.135 257.892 121.135C258.378 121.135 258.796 121.041 259.145 120.853C259.494 120.663 259.762 120.403 259.946 120.074C260.134 119.741 260.227 119.362 260.227 118.936V113.243ZM263.395 121.97V113.243H266.344C267.025 113.243 267.585 113.359 268.023 113.592C268.46 113.822 268.784 114.139 268.994 114.542C269.204 114.946 269.309 115.405 269.309 115.919C269.309 116.433 269.204 116.889 268.994 117.287C268.784 117.684 268.461 117.997 268.027 118.224C267.592 118.449 267.037 118.561 266.361 118.561H263.974V117.606H266.327C266.792 117.606 267.167 117.538 267.452 117.402C267.738 117.265 267.946 117.072 268.074 116.822C268.204 116.569 268.27 116.268 268.27 115.919C268.27 115.569 268.204 115.264 268.074 115.003C267.943 114.741 267.734 114.54 267.447 114.398C267.16 114.253 266.781 114.18 266.309 114.18H264.452V121.97H263.395ZM267.503 118.05L269.65 121.97H268.423L266.309 118.05H267.503ZM272.127 113.243V121.97H271.07V113.243H272.127ZM281.167 113.243V121.97H280.144L275.388 115.118H275.303V121.97H274.246V113.243H275.269L280.042 120.112H280.127V113.243H281.167ZM289.247 115.97C289.154 115.683 289.03 115.426 288.877 115.199C288.726 114.969 288.546 114.773 288.335 114.611C288.128 114.449 287.892 114.325 287.628 114.24C287.364 114.155 287.074 114.112 286.759 114.112C286.242 114.112 285.771 114.246 285.348 114.513C284.925 114.78 284.588 115.173 284.338 115.693C284.088 116.213 283.963 116.851 283.963 117.606C283.963 118.362 284.09 119 284.343 119.52C284.595 120.04 284.938 120.433 285.369 120.7C285.801 120.967 286.287 121.101 286.827 121.101C287.327 121.101 287.767 120.994 288.148 120.781C288.531 120.565 288.83 120.261 289.043 119.869C289.259 119.474 289.367 119.01 289.367 118.476L289.691 118.544H287.066V117.606H290.389V118.544C290.389 119.263 290.236 119.888 289.929 120.419C289.625 120.95 289.205 121.362 288.668 121.655C288.134 121.944 287.52 122.089 286.827 122.089C286.054 122.089 285.375 121.907 284.79 121.544C284.208 121.18 283.753 120.663 283.426 119.993C283.102 119.322 282.941 118.527 282.941 117.606C282.941 116.916 283.033 116.295 283.218 115.744C283.405 115.19 283.669 114.719 284.01 114.329C284.351 113.94 284.754 113.642 285.22 113.434C285.686 113.227 286.199 113.123 286.759 113.123C287.219 113.123 287.648 113.193 288.046 113.332C288.446 113.469 288.803 113.663 289.115 113.916C289.431 114.166 289.693 114.466 289.904 114.815C290.114 115.162 290.259 115.547 290.338 115.97H289.247ZM295.932 121.97H294.824L298.029 113.243H299.12L302.324 121.97H301.216L298.608 114.623H298.54L295.932 121.97ZM296.341 118.561H300.807V119.498H296.341V118.561ZM313.025 115.97C312.931 115.683 312.807 115.426 312.654 115.199C312.503 114.969 312.323 114.773 312.113 114.611C311.905 114.449 311.67 114.325 311.405 114.24C311.141 114.155 310.851 114.112 310.536 114.112C310.019 114.112 309.549 114.246 309.126 114.513C308.702 114.78 308.366 115.173 308.116 115.693C307.866 116.213 307.741 116.851 307.741 117.606C307.741 118.362 307.867 119 308.12 119.52C308.373 120.04 308.715 120.433 309.147 120.7C309.579 120.967 310.064 121.101 310.604 121.101C311.104 121.101 311.545 120.994 311.925 120.781C312.309 120.565 312.607 120.261 312.82 119.869C313.036 119.474 313.144 119.01 313.144 118.476L313.468 118.544H310.843V117.606H314.167V118.544C314.167 119.263 314.013 119.888 313.706 120.419C313.403 120.95 312.982 121.362 312.445 121.655C311.911 121.944 311.297 122.089 310.604 122.089C309.831 122.089 309.153 121.907 308.567 121.544C307.985 121.18 307.53 120.663 307.204 119.993C306.88 119.322 306.718 118.527 306.718 117.606C306.718 116.916 306.81 116.295 306.995 115.744C307.182 115.19 307.447 114.719 307.787 114.329C308.128 113.94 308.532 113.642 308.998 113.434C309.464 113.227 309.976 113.123 310.536 113.123C310.996 113.123 311.425 113.193 311.823 113.332C312.224 113.469 312.58 113.663 312.893 113.916C313.208 114.166 313.471 114.466 313.681 114.815C313.891 115.162 314.036 115.547 314.116 115.97H313.025ZM317.034 113.243V121.97H315.977V113.243H317.034ZM319.51 113.243L322.101 120.589H322.204L324.795 113.243H325.903L322.698 121.97H321.607L318.403 113.243H319.51ZM327.262 121.97V113.243H332.529V114.18H328.319V117.129H332.256V118.067H328.319V121.032H332.597V121.97H327.262ZM341.354 113.243V121.97H340.331L335.576 115.118H335.491V121.97H334.434V113.243H335.456L340.229 120.112H340.314V113.243H341.354ZM346.094 113.243H347.304L349.725 117.317H349.827L352.247 113.243H353.458L350.304 118.373V121.97H349.247V118.373L346.094 113.243ZM354.824 121.97V113.243H360.091V114.18H355.881V117.129H359.819V118.067H355.881V121.032H360.16V121.97H354.824ZM362.354 121.97H361.246L364.451 113.243H365.542L368.746 121.97H367.638L365.03 114.623H364.962L362.354 121.97ZM362.763 118.561H367.229V119.498H362.763V118.561ZM370.106 121.97V113.243H373.055C373.736 113.243 374.296 113.359 374.733 113.592C375.171 113.822 375.495 114.139 375.705 114.542C375.915 114.946 376.02 115.405 376.02 115.919C376.02 116.433 375.915 116.889 375.705 117.287C375.495 117.684 375.172 117.997 374.738 118.224C374.303 118.449 373.748 118.561 373.072 118.561H370.685V117.606H373.037C373.503 117.606 373.878 117.538 374.162 117.402C374.449 117.265 374.657 117.072 374.785 116.822C374.915 116.569 374.981 116.268 374.981 115.919C374.981 115.569 374.915 115.264 374.785 115.003C374.654 114.741 374.445 114.54 374.158 114.398C373.871 114.253 373.492 114.18 373.02 114.18H371.162V121.97H370.106ZM374.214 118.05L376.361 121.97H375.134L373.02 118.05H374.214Z" fill="white"/>
<path d="M764.771 108.883V102.555H766.234V103.04H765.324V108.398H766.234V108.883H764.771ZM768.578 108.319C768.288 108.319 768.026 108.262 767.794 108.146C767.562 108.031 767.376 107.873 767.236 107.672C767.096 107.471 767.019 107.242 767.006 106.985H767.599C767.622 107.214 767.726 107.403 767.91 107.553C768.096 107.701 768.319 107.775 768.578 107.775C768.785 107.775 768.97 107.727 769.131 107.63C769.294 107.532 769.422 107.399 769.514 107.229C769.608 107.058 769.655 106.864 769.655 106.648C769.655 106.428 769.607 106.231 769.509 106.058C769.414 105.883 769.282 105.745 769.114 105.645C768.946 105.544 768.754 105.493 768.538 105.492C768.383 105.49 768.224 105.514 768.061 105.563C767.898 105.611 767.764 105.673 767.658 105.749L767.085 105.68L767.391 103.188H770.021V103.732H767.905L767.727 105.225H767.757C767.861 105.142 767.991 105.074 768.148 105.02C768.304 104.965 768.467 104.938 768.637 104.938C768.947 104.938 769.223 105.012 769.465 105.161C769.709 105.307 769.9 105.508 770.038 105.764C770.178 106.019 770.248 106.311 770.248 106.639C770.248 106.961 770.176 107.25 770.031 107.504C769.888 107.756 769.69 107.955 769.438 108.102C769.186 108.247 768.899 108.319 768.578 108.319ZM772.407 102.555V108.883H770.944V108.398H771.853V103.04H770.944V102.555H772.407Z" fill="white"/>
</svg>
