<?xml version="1.0" encoding="UTF-8"?>
<svg id="Layer_1" data-name="Layer 1" xmlns="http://www.w3.org/2000/svg" viewBox="0 0 120 120" width="100%" height="100%">
  <g>
    <circle cx="60" cy="60" r="55.41" style="fill: #fff; stroke: #005178; stroke-miterlimit: 10; stroke-width: 6px;"/>
    <circle cx="60" cy="60" r="48.69" style="fill: #5a97cb; stroke-width: 0px;"/>
    <circle cx="60" cy="60" r="55.41" style="fill: #fff; stroke: #005178; stroke-miterlimit: 10; stroke-width: 6px;"/>
    <circle cx="59.65" cy="59.93" r="48.69" style="fill: #5a97cb; stroke-width: 0px;"/>
  </g>
  <g>
    <polygon points="69.26 65.97 62.84 65.97 62.84 59.55 57.16 59.55 57.16 65.97 50.74 65.97 50.74 71.66 57.16 71.66 57.16 78.08 62.84 78.08 62.84 71.66 69.26 71.66 69.26 65.97" style="fill: none; stroke: #fff; stroke-linecap: round; stroke-linejoin: round; stroke-width: 1.5px;"/>
    <g>
      <rect x="41.44" y="46.36" width="37.12" height="44.37" rx="5.8" ry="5.8" style="fill: none; stroke: #fff; stroke-linecap: round; stroke-linejoin: round; stroke-width: 1.5px;"/>
      <line x1="41.44" y1="54.02" x2="65.77" y2="54.02" style="fill: none; stroke: #fff; stroke-linecap: round; stroke-linejoin: round; stroke-width: 1.5px;"/>
      <line x1="70.34" y1="54.02" x2="78.56" y2="54.02" style="fill: none; stroke: #fff; stroke-linecap: round; stroke-linejoin: round; stroke-width: 1.5px;"/>
      <line x1="78.56" y1="83.41" x2="54.23" y2="83.41" style="fill: none; stroke: #fff; stroke-linecap: round; stroke-linejoin: round; stroke-width: 1.5px;"/>
      <line x1="49.66" y1="83.41" x2="41.44" y2="83.41" style="fill: none; stroke: #fff; stroke-linecap: round; stroke-linejoin: round; stroke-width: 1.5px;"/>
      <path d="m52.89,37.27v2.76s23.33,0,23.33,0c1.29,0,2.34-1.05,2.34-2.34v-6.08c0-1.29-1.05-2.34-2.34-2.34h-1.32" style="fill: none; stroke: #fff; stroke-linecap: round; stroke-linejoin: round; stroke-width: 1.5px;"/>
      <path d="m45.55,40.03h-1.77c-1.29,0-2.34-1.05-2.34-2.34v-6.08c0-1.29,1.05-2.34,2.34-2.34h23.79v2.76" style="fill: none; stroke: #fff; stroke-linecap: round; stroke-linejoin: round; stroke-width: 1.5px;"/>
      <line x1="45.55" y1="40.03" x2="48.87" y2="40.03" style="fill: none; stroke: #fff; stroke-linecap: round; stroke-linejoin: round; stroke-width: 1.5px;"/>
      <line x1="70.99" y1="29.27" x2="74.45" y2="29.27" style="fill: none; stroke: #fff; stroke-linecap: round; stroke-linejoin: round; stroke-width: 1.5px;"/>
      <line x1="45.55" y1="40.03" x2="45.55" y2="46.44" style="fill: none; stroke: #fff; stroke-linecap: round; stroke-linejoin: round; stroke-width: 1.5px;"/>
      <line x1="74.91" y1="40.03" x2="74.91" y2="46.44" style="fill: none; stroke: #fff; stroke-linecap: round; stroke-linejoin: round; stroke-width: 1.5px;"/>
    </g>
  </g>
</svg>