<svg width="750" height="201" viewBox="0 0 750 201" fill="none" xmlns="http://www.w3.org/2000/svg">
<path d="M634.22 18.4502H116.04C105.044 18.4502 96.1299 27.3642 96.1299 38.3602V160.54C96.1299 171.536 105.044 180.45 116.04 180.45H634.22C645.216 180.45 654.13 171.536 654.13 160.54V38.3602C654.13 27.3642 645.216 18.4502 634.22 18.4502Z" fill="#C1DAED"/>
<g opacity="0.24">
<path d="M466.35 71.5801H499.12C500.05 71.5801 500.8 70.8501 500.8 69.9601V53.7401C500.8 44.1701 492.67 36.3301 482.73 36.3301C472.79 36.3301 464.66 44.1601 464.66 53.7401V69.9601C464.66 70.8601 465.41 71.5801 466.34 71.5801H466.35Z" fill="#005178"/>
<path d="M497.85 93.3301H507.36V83.8201C507.36 78.5701 503.1 74.3101 497.85 74.3101H467.76C462.51 74.3101 458.25 78.5701 458.25 83.8201V93.3301H497.85Z" fill="#005178"/>
<path d="M500.21 114.65C500.21 111.23 492.25 108.45 482.43 108.45C472.61 108.45 464.65 111.23 464.65 114.65C464.65 116.32 466.54 117.83 469.61 118.94V121.03C467.04 121.54 465.48 122.2 465.48 122.92C465.48 123.64 466.95 124.27 469.39 124.77C468.92 126.17 468.65 127.67 468.65 129.22C468.65 136.96 474.92 143.23 482.66 143.23C490.4 143.23 496.67 136.96 496.67 129.22C496.67 127.62 496.39 126.1 495.9 124.67C498.08 124.18 499.38 123.58 499.38 122.92C499.38 122.26 498.14 121.69 496.07 121.21V118.63C498.65 117.55 500.2 116.17 500.2 114.66L500.21 114.65Z" fill="#005178"/>
<path d="M506.29 149.87L499.45 145.9C498.23 145.19 496.66 145.6 495.95 146.83L495.67 147.32H486.83C486.83 147.32 486.8 147.42 486.78 147.46C486.3 148.52 485.82 149.58 485.35 150.64C485.28 150.8 485.19 150.86 485.03 150.86C483.96 150.86 482.9 150.86 481.83 150.85C481.75 150.85 481.63 150.79 481.59 150.71C481.08 149.6 480.58 148.47 480.07 147.35C480.07 147.35 480.07 147.33 480.07 147.32H469.86L469.18 146.15C468.69 145.31 467.61 145.02 466.76 145.51L458.56 150.28C457.72 150.77 457.43 151.85 457.92 152.7L458.49 153.67C458.14 154.66 457.94 155.72 457.94 156.83V166.34H479.29C480.1 161.56 480.91 156.79 481.71 152.01C481.74 151.83 481.8 151.77 481.97 151.78C482.46 151.79 482.95 151.78 483.44 151.78C483.94 151.78 484.44 151.78 484.93 151.78C485.08 151.78 485.15 151.82 485.17 151.98C485.68 155.04 486.2 158.1 486.72 161.15C487.01 162.88 487.3 164.61 487.6 166.34H507.04V156.83C507.04 155.94 506.91 155.09 506.68 154.27L507.2 153.37C507.91 152.15 507.5 150.58 506.27 149.87H506.29Z" fill="#005178"/>
</g>
<path d="M606.72 34.4502H534.54C524.372 34.4502 516.13 42.6926 516.13 52.8602V68.0402C516.13 78.2078 524.372 86.4502 534.54 86.4502H606.72C616.887 86.4502 625.13 78.2078 625.13 68.0402V52.8602C625.13 42.6926 616.887 34.4502 606.72 34.4502Z" fill="url(#paint0_linear_138_383)"/>
<path d="M536.354 55V54.233L539.234 51.0795C539.572 50.7102 539.851 50.3892 540.07 50.1165C540.288 49.8409 540.45 49.5824 540.555 49.3409C540.663 49.0966 540.717 48.8409 540.717 48.5739C540.717 48.267 540.643 48.0014 540.496 47.777C540.351 47.5526 540.152 47.3793 539.899 47.2571C539.646 47.1349 539.362 47.0739 539.047 47.0739C538.712 47.0739 538.419 47.1435 538.169 47.2827C537.922 47.419 537.73 47.6108 537.594 47.858C537.46 48.1051 537.393 48.3949 537.393 48.7273H536.388C536.388 48.2159 536.506 47.767 536.741 47.3807C536.977 46.9943 537.298 46.6932 537.704 46.4773C538.114 46.2614 538.572 46.1534 539.081 46.1534C539.592 46.1534 540.045 46.2614 540.44 46.4773C540.835 46.6932 541.145 46.9844 541.369 47.3509C541.594 47.7173 541.706 48.125 541.706 48.5739C541.706 48.8949 541.648 49.2088 541.531 49.5156C541.418 49.8196 541.219 50.1591 540.935 50.5341C540.653 50.9062 540.263 51.3608 539.763 51.8977L537.802 53.9943V54.0625H541.859V55H536.354ZM544.386 48.4545L545.954 51.1307L547.523 48.4545H548.682L546.568 51.7273L548.682 55H547.523L545.954 52.4602L544.386 55H543.227L545.307 51.7273L543.227 48.4545H544.386Z" fill="white"/>
<path d="M539.251 80.1193C538.893 80.1136 538.535 80.0455 538.177 79.9148C537.82 79.7841 537.493 79.5639 537.197 79.2543C536.902 78.9418 536.665 78.5199 536.486 77.9886C536.307 77.4545 536.217 76.7841 536.217 75.9773C536.217 75.2045 536.29 74.5199 536.435 73.9233C536.579 73.3239 536.79 72.8196 537.065 72.4105C537.341 71.9986 537.673 71.6861 538.062 71.473C538.454 71.2599 538.896 71.1534 539.388 71.1534C539.876 71.1534 540.311 71.2514 540.692 71.4474C541.075 71.6406 541.388 71.9105 541.629 72.2571C541.871 72.6037 542.027 73.0028 542.098 73.4545H541.058C540.962 73.0625 540.774 72.7372 540.496 72.4787C540.217 72.2202 539.848 72.0909 539.388 72.0909C538.712 72.0909 538.179 72.3849 537.79 72.973C537.403 73.5611 537.209 74.3864 537.206 75.4489H537.274C537.433 75.2074 537.622 75.0014 537.841 74.831C538.062 74.6577 538.307 74.5241 538.574 74.4304C538.841 74.3366 539.123 74.2898 539.422 74.2898C539.922 74.2898 540.379 74.4148 540.794 74.6648C541.209 74.9119 541.541 75.2543 541.791 75.6918C542.041 76.1264 542.166 76.625 542.166 77.1875C542.166 77.7273 542.045 78.2216 541.804 78.6705C541.562 79.1165 541.223 79.4716 540.785 79.7358C540.351 79.9972 539.839 80.125 539.251 80.1193ZM539.251 79.1818C539.609 79.1818 539.93 79.0923 540.214 78.9134C540.501 78.7344 540.727 78.4943 540.892 78.1932C541.06 77.892 541.143 77.5568 541.143 77.1875C541.143 76.8267 541.062 76.4986 540.9 76.2031C540.741 75.9048 540.521 75.6676 540.24 75.4915C539.962 75.3153 539.643 75.2273 539.285 75.2273C539.016 75.2273 538.764 75.2812 538.531 75.3892C538.298 75.4943 538.094 75.6392 537.918 75.8239C537.744 76.0085 537.608 76.2202 537.508 76.4588C537.409 76.6946 537.359 76.9432 537.359 77.2045C537.359 77.5511 537.44 77.875 537.602 78.1761C537.767 78.4773 537.991 78.7202 538.275 78.9048C538.562 79.0895 538.888 79.1818 539.251 79.1818ZM546.74 80.1193C546.382 80.1136 546.024 80.0455 545.666 79.9148C545.308 79.7841 544.981 79.5639 544.686 79.2543C544.39 78.9418 544.153 78.5199 543.974 77.9886C543.795 77.4545 543.706 76.7841 543.706 75.9773C543.706 75.2045 543.778 74.5199 543.923 73.9233C544.068 73.3239 544.278 72.8196 544.554 72.4105C544.829 71.9986 545.161 71.6861 545.551 71.473C545.943 71.2599 546.384 71.1534 546.876 71.1534C547.365 71.1534 547.799 71.2514 548.18 71.4474C548.563 71.6406 548.876 71.9105 549.117 72.2571C549.359 72.6037 549.515 73.0028 549.586 73.4545H548.546C548.45 73.0625 548.262 72.7372 547.984 72.4787C547.706 72.2202 547.336 72.0909 546.876 72.0909C546.2 72.0909 545.667 72.3849 545.278 72.973C544.892 73.5611 544.697 74.3864 544.694 75.4489H544.762C544.921 75.2074 545.11 75.0014 545.329 74.831C545.551 74.6577 545.795 74.5241 546.062 74.4304C546.329 74.3366 546.612 74.2898 546.91 74.2898C547.41 74.2898 547.867 74.4148 548.282 74.6648C548.697 74.9119 549.029 75.2543 549.279 75.6918C549.529 76.1264 549.654 76.625 549.654 77.1875C549.654 77.7273 549.534 78.2216 549.292 78.6705C549.051 79.1165 548.711 79.4716 548.274 79.7358C547.839 79.9972 547.328 80.125 546.74 80.1193ZM546.74 79.1818C547.098 79.1818 547.419 79.0923 547.703 78.9134C547.99 78.7344 548.215 78.4943 548.38 78.1932C548.548 77.892 548.632 77.5568 548.632 77.1875C548.632 76.8267 548.551 76.4986 548.389 76.2031C548.23 75.9048 548.009 75.6676 547.728 75.4915C547.45 75.3153 547.132 75.2273 546.774 75.2273C546.504 75.2273 546.252 75.2812 546.019 75.3892C545.786 75.4943 545.582 75.6392 545.406 75.8239C545.233 76.0085 545.096 76.2202 544.997 76.4588C544.897 76.6946 544.848 76.9432 544.848 77.2045C544.848 77.5511 544.929 77.875 545.09 78.1761C545.255 78.4773 545.48 78.7202 545.764 78.9048C546.051 79.0895 546.376 79.1818 546.74 79.1818ZM551.67 80.0682C551.46 80.0682 551.279 79.9929 551.129 79.8423C550.978 79.6918 550.903 79.5114 550.903 79.3011C550.903 79.0909 550.978 78.9105 551.129 78.7599C551.279 78.6094 551.46 78.5341 551.67 78.5341C551.88 78.5341 552.061 78.6094 552.211 78.7599C552.362 78.9105 552.437 79.0909 552.437 79.3011C552.437 79.4403 552.402 79.5682 552.331 79.6847C552.262 79.8011 552.17 79.8949 552.054 79.9659C551.94 80.0341 551.812 80.0682 551.67 80.0682ZM554.02 78.2102V77.3409L557.855 71.2727H558.486V72.6193H558.06L555.162 77.2045V77.2727H560.327V78.2102H554.02ZM558.128 80V77.946V77.5412V71.2727H559.134V80H558.128ZM566.373 78.3636V77.9034C566.373 77.5852 566.438 77.294 566.569 77.0298C566.702 76.7628 566.896 76.5497 567.148 76.3906C567.404 76.2287 567.714 76.1477 568.077 76.1477C568.447 76.1477 568.756 76.2287 569.006 76.3906C569.256 76.5497 569.445 76.7628 569.573 77.0298C569.701 77.294 569.765 77.5852 569.765 77.9034V78.3636C569.765 78.6818 569.699 78.9744 569.569 79.2415C569.441 79.5057 569.251 79.7187 568.998 79.8807C568.748 80.0398 568.441 80.1193 568.077 80.1193C567.708 80.1193 567.397 80.0398 567.144 79.8807C566.891 79.7187 566.699 79.5057 566.569 79.2415C566.438 78.9744 566.373 78.6818 566.373 78.3636ZM567.242 77.9034V78.3636C567.242 78.6278 567.305 78.8651 567.43 79.0753C567.555 79.2827 567.771 79.3864 568.077 79.3864C568.376 79.3864 568.586 79.2827 568.708 79.0753C568.833 78.8651 568.896 78.6278 568.896 78.3636V77.9034C568.896 77.6392 568.836 77.4034 568.717 77.196C568.597 76.9858 568.384 76.8807 568.077 76.8807C567.779 76.8807 567.565 76.9858 567.434 77.196C567.306 77.4034 567.242 77.6392 567.242 77.9034ZM562.026 73.3693V72.9091C562.026 72.5909 562.092 72.2997 562.222 72.0355C562.356 71.7685 562.549 71.5554 562.802 71.3963C563.057 71.2344 563.367 71.1534 563.731 71.1534C564.1 71.1534 564.41 71.2344 564.66 71.3963C564.91 71.5554 565.099 71.7685 565.226 72.0355C565.354 72.2997 565.418 72.5909 565.418 72.9091V73.3693C565.418 73.6875 565.353 73.9801 565.222 74.2472C565.094 74.5114 564.904 74.7244 564.651 74.8864C564.401 75.0455 564.094 75.125 563.731 75.125C563.361 75.125 563.05 75.0455 562.797 74.8864C562.545 74.7244 562.353 74.5114 562.222 74.2472C562.092 73.9801 562.026 73.6875 562.026 73.3693ZM562.896 72.9091V73.3693C562.896 73.6335 562.958 73.8707 563.083 74.081C563.208 74.2884 563.424 74.392 563.731 74.392C564.029 74.392 564.239 74.2884 564.361 74.081C564.486 73.8707 564.549 73.6335 564.549 73.3693V72.9091C564.549 72.6449 564.489 72.4091 564.37 72.2017C564.251 71.9915 564.038 71.8864 563.731 71.8864C563.432 71.8864 563.218 71.9915 563.087 72.2017C562.959 72.4091 562.896 72.6449 562.896 72.9091ZM562.35 80L568.35 71.2727H569.322L563.322 80H562.35Z" fill="white"/>
<path d="M123.997 61V52.2727H126.946C127.631 52.2727 128.19 52.3963 128.625 52.6435C129.063 52.8878 129.386 53.2188 129.597 53.6364C129.807 54.054 129.912 54.5199 129.912 55.0341C129.912 55.5483 129.807 56.0156 129.597 56.4361C129.389 56.8565 129.068 57.1918 128.634 57.4418C128.199 57.6889 127.642 57.8125 126.963 57.8125H124.85V56.875H126.929C127.398 56.875 127.774 56.794 128.058 56.6321C128.342 56.4702 128.548 56.2514 128.676 55.9759C128.807 55.6974 128.872 55.3835 128.872 55.0341C128.872 54.6847 128.807 54.3722 128.676 54.0966C128.548 53.821 128.341 53.6051 128.054 53.4489C127.767 53.2898 127.386 53.2102 126.912 53.2102H125.054V61H123.997ZM131.137 53.2102V52.2727H137.683V53.2102H134.938V61H133.881V53.2102H131.137ZM144.086 54.4545C144.035 54.0227 143.828 53.6875 143.464 53.4489C143.101 53.2102 142.655 53.0909 142.126 53.0909C141.74 53.0909 141.402 53.1534 141.112 53.2784C140.825 53.4034 140.601 53.5753 140.439 53.794C140.28 54.0128 140.2 54.2614 140.2 54.5398C140.2 54.7727 140.255 54.973 140.366 55.1406C140.48 55.3054 140.625 55.4432 140.801 55.554C140.977 55.6619 141.162 55.7514 141.355 55.8224C141.548 55.8906 141.726 55.946 141.888 55.9886L142.774 56.2273C143.001 56.2869 143.254 56.3693 143.532 56.4744C143.814 56.5795 144.082 56.723 144.338 56.9048C144.596 57.0838 144.809 57.3139 144.977 57.5952C145.145 57.8764 145.228 58.2216 145.228 58.6307C145.228 59.1023 145.105 59.5284 144.858 59.9091C144.613 60.2898 144.255 60.5923 143.784 60.8168C143.315 61.0412 142.745 61.1534 142.075 61.1534C141.45 61.1534 140.909 61.0526 140.451 60.8509C139.997 60.6491 139.639 60.3679 139.378 60.0071C139.119 59.6463 138.973 59.2273 138.939 58.75H140.03C140.058 59.0795 140.169 59.3523 140.362 59.5682C140.558 59.7812 140.805 59.9403 141.103 60.0455C141.405 60.1477 141.728 60.1989 142.075 60.1989C142.478 60.1989 142.841 60.1335 143.162 60.0028C143.483 59.8693 143.737 59.6847 143.924 59.4489C144.112 59.2102 144.206 58.9318 144.206 58.6136C144.206 58.3239 144.125 58.0881 143.963 57.9062C143.801 57.7244 143.588 57.5767 143.324 57.4631C143.059 57.3494 142.774 57.25 142.467 57.1648L141.393 56.858C140.711 56.6619 140.172 56.3821 139.774 56.0185C139.376 55.6548 139.177 55.179 139.177 54.5909C139.177 54.1023 139.309 53.6761 139.574 53.3125C139.841 52.946 140.199 52.6619 140.647 52.4602C141.099 52.2557 141.603 52.1534 142.16 52.1534C142.723 52.1534 143.223 52.2543 143.66 52.456C144.098 52.6548 144.444 52.9276 144.7 53.2741C144.959 53.6207 145.095 54.0142 145.109 54.4545H144.086ZM149.659 61H146.966V52.2727H149.778C150.625 52.2727 151.35 52.4474 151.952 52.7969C152.554 53.1435 153.016 53.642 153.337 54.2926C153.658 54.9403 153.818 55.7159 153.818 56.6193C153.818 57.5284 153.656 58.3111 153.332 58.9673C153.009 59.6207 152.537 60.1236 151.918 60.4759C151.298 60.8253 150.546 61 149.659 61ZM148.023 60.0625H149.591C150.313 60.0625 150.911 59.9233 151.385 59.6449C151.859 59.3665 152.213 58.9702 152.446 58.456C152.679 57.9418 152.796 57.3295 152.796 56.6193C152.796 55.9148 152.68 55.3082 152.45 54.7997C152.22 54.2884 151.877 53.8963 151.419 53.6236C150.962 53.348 150.392 53.2102 149.71 53.2102H148.023V60.0625ZM158.83 63.4545V54.4545H159.801V55.4943H159.921C159.994 55.3807 160.097 55.2358 160.227 55.0597C160.361 54.8807 160.551 54.7216 160.798 54.5824C161.048 54.4403 161.386 54.3693 161.813 54.3693C162.364 54.3693 162.85 54.5071 163.27 54.7827C163.69 55.0582 164.019 55.4489 164.254 55.9545C164.49 56.4602 164.608 57.0568 164.608 57.7443C164.608 58.4375 164.49 59.0384 164.254 59.5469C164.019 60.0526 163.692 60.4446 163.274 60.723C162.857 60.9986 162.375 61.1364 161.83 61.1364C161.409 61.1364 161.073 61.0668 160.82 60.9276C160.567 60.7855 160.372 60.625 160.236 60.446C160.1 60.2642 159.994 60.1136 159.921 59.9943H159.835V63.4545H158.83ZM159.818 57.7273C159.818 58.2216 159.891 58.6577 160.036 59.0355C160.18 59.4105 160.392 59.7045 160.671 59.9176C160.949 60.1278 161.29 60.233 161.693 60.233C162.114 60.233 162.465 60.1222 162.746 59.9006C163.03 59.6761 163.243 59.375 163.385 58.9972C163.53 58.6165 163.602 58.1932 163.602 57.7273C163.602 57.267 163.531 56.8523 163.389 56.483C163.25 56.1108 163.038 55.8168 162.754 55.6009C162.473 55.3821 162.119 55.2727 161.693 55.2727C161.284 55.2727 160.94 55.3764 160.662 55.5838C160.384 55.7884 160.173 56.0753 160.031 56.4446C159.889 56.8111 159.818 57.2386 159.818 57.7273ZM166.142 61V54.4545H167.114V55.4432H167.182C167.301 55.1193 167.517 54.8565 167.83 54.6548C168.142 54.4531 168.494 54.3523 168.886 54.3523C168.96 54.3523 169.053 54.3537 169.163 54.3565C169.274 54.3594 169.358 54.3636 169.415 54.3693V55.392C169.381 55.3835 169.303 55.3707 169.18 55.3537C169.061 55.3338 168.935 55.3239 168.801 55.3239C168.483 55.3239 168.199 55.3906 167.949 55.5241C167.702 55.6548 167.506 55.8366 167.361 56.0696C167.219 56.2997 167.148 56.5625 167.148 56.858V61H166.142ZM173.152 61.1364C172.521 61.1364 171.977 60.9972 171.52 60.7188C171.065 60.4375 170.715 60.0455 170.467 59.5426C170.223 59.0369 170.101 58.4489 170.101 57.7784C170.101 57.108 170.223 56.517 170.467 56.0057C170.715 55.4915 171.058 55.0909 171.499 54.804C171.942 54.5142 172.459 54.3693 173.05 54.3693C173.391 54.3693 173.727 54.4261 174.06 54.5398C174.392 54.6534 174.695 54.8381 174.967 55.0938C175.24 55.3466 175.457 55.6818 175.619 56.0994C175.781 56.517 175.862 57.0312 175.862 57.642V58.0682H170.817V57.1989H174.84C174.84 56.8295 174.766 56.5 174.618 56.2102C174.473 55.9205 174.266 55.6918 173.996 55.5241C173.729 55.3565 173.413 55.2727 173.05 55.2727C172.649 55.2727 172.303 55.3722 172.01 55.571C171.72 55.767 171.497 56.0227 171.341 56.3381C171.185 56.6534 171.107 56.9915 171.107 57.3523V57.9318C171.107 58.4261 171.192 58.8452 171.362 59.1889C171.536 59.5298 171.776 59.7898 172.082 59.9688C172.389 60.1449 172.746 60.233 173.152 60.233C173.416 60.233 173.655 60.196 173.868 60.1222C174.084 60.0455 174.27 59.9318 174.426 59.7812C174.582 59.6278 174.703 59.4375 174.788 59.2102L175.76 59.483C175.658 59.8125 175.486 60.1023 175.244 60.3523C175.003 60.5994 174.705 60.7926 174.35 60.9318C173.994 61.0682 173.595 61.1364 173.152 61.1364ZM182.545 54.4545L180.125 61H179.102L176.682 54.4545H177.772L179.579 59.6705H179.647L181.454 54.4545H182.545ZM185.6 61.1534C185.185 61.1534 184.808 61.0753 184.47 60.919C184.132 60.7599 183.864 60.5312 183.665 60.233C183.466 59.9318 183.367 59.5682 183.367 59.142C183.367 58.767 183.44 58.4631 183.588 58.2301C183.736 57.9943 183.933 57.8097 184.18 57.6761C184.428 57.5426 184.7 57.4432 184.999 57.3778C185.3 57.3097 185.602 57.2557 185.906 57.2159C186.304 57.1648 186.627 57.1264 186.874 57.1009C187.124 57.0724 187.305 57.0256 187.419 56.9602C187.536 56.8949 187.594 56.7812 187.594 56.6193V56.5852C187.594 56.1648 187.479 55.8381 187.249 55.6051C187.021 55.3722 186.676 55.2557 186.213 55.2557C185.733 55.2557 185.357 55.3608 185.084 55.571C184.811 55.7812 184.619 56.0057 184.509 56.2443L183.554 55.9034C183.725 55.5057 183.952 55.196 184.236 54.9744C184.523 54.75 184.835 54.5937 185.173 54.5057C185.514 54.4148 185.85 54.3693 186.179 54.3693C186.389 54.3693 186.631 54.3949 186.903 54.446C187.179 54.4943 187.445 54.5952 187.7 54.7486C187.959 54.902 188.173 55.1335 188.344 55.4432C188.514 55.7528 188.6 56.1676 188.6 56.6875V61H187.594V60.1136H187.543C187.475 60.2557 187.361 60.4077 187.202 60.5696C187.043 60.7315 186.831 60.8693 186.567 60.983C186.303 61.0966 185.98 61.1534 185.6 61.1534ZM185.753 60.25C186.151 60.25 186.486 60.1719 186.759 60.0156C187.034 59.8594 187.242 59.6577 187.381 59.4105C187.523 59.1634 187.594 58.9034 187.594 58.6307V57.7102C187.551 57.7614 187.457 57.8082 187.313 57.8509C187.171 57.8906 187.006 57.9261 186.818 57.9574C186.634 57.9858 186.453 58.0114 186.277 58.0341C186.104 58.054 185.963 58.071 185.855 58.0852C185.594 58.1193 185.35 58.1747 185.122 58.2514C184.898 58.3253 184.716 58.4375 184.577 58.5881C184.44 58.7358 184.372 58.9375 184.372 59.1932C184.372 59.5426 184.502 59.8068 184.76 59.9858C185.021 60.1619 185.352 60.25 185.753 60.25ZM191.441 52.2727V61H190.435V52.2727H191.441ZM196.027 61.1364C195.396 61.1364 194.852 60.9972 194.395 60.7188C193.94 60.4375 193.59 60.0455 193.342 59.5426C193.098 59.0369 192.976 58.4489 192.976 57.7784C192.976 57.108 193.098 56.517 193.342 56.0057C193.59 55.4915 193.933 55.0909 194.374 54.804C194.817 54.5142 195.334 54.3693 195.925 54.3693C196.266 54.3693 196.602 54.4261 196.935 54.5398C197.267 54.6534 197.57 54.8381 197.842 55.0938C198.115 55.3466 198.332 55.6818 198.494 56.0994C198.656 56.517 198.737 57.0312 198.737 57.642V58.0682H193.692V57.1989H197.715C197.715 56.8295 197.641 56.5 197.493 56.2102C197.348 55.9205 197.141 55.6918 196.871 55.5241C196.604 55.3565 196.288 55.2727 195.925 55.2727C195.524 55.2727 195.178 55.3722 194.885 55.571C194.595 55.767 194.372 56.0227 194.216 56.3381C194.06 56.6534 193.982 56.9915 193.982 57.3523V57.9318C193.982 58.4261 194.067 58.8452 194.237 59.1889C194.411 59.5298 194.651 59.7898 194.957 59.9688C195.264 60.1449 195.621 60.233 196.027 60.233C196.291 60.233 196.53 60.196 196.743 60.1222C196.959 60.0455 197.145 59.9318 197.301 59.7812C197.457 59.6278 197.578 59.4375 197.663 59.2102L198.635 59.483C198.533 59.8125 198.361 60.1023 198.119 60.3523C197.878 60.5994 197.58 60.7926 197.225 60.9318C196.869 61.0682 196.47 61.1364 196.027 61.1364ZM201.273 57.0625V61H200.267V54.4545H201.239V55.4773H201.324C201.477 55.1449 201.71 54.8778 202.023 54.6761C202.335 54.4716 202.739 54.3693 203.233 54.3693C203.676 54.3693 204.064 54.4602 204.396 54.642C204.729 54.821 204.987 55.0938 205.172 55.4602C205.357 55.8239 205.449 56.2841 205.449 56.8409V61H204.443V56.9091C204.443 56.3949 204.31 55.9943 204.043 55.7074C203.776 55.4176 203.409 55.2727 202.943 55.2727C202.622 55.2727 202.335 55.3423 202.082 55.4815C201.832 55.6207 201.635 55.8239 201.49 56.0909C201.345 56.358 201.273 56.6818 201.273 57.0625ZM209.946 61.1364C209.332 61.1364 208.804 60.9915 208.361 60.7017C207.917 60.4119 207.576 60.0128 207.338 59.5043C207.099 58.9957 206.98 58.4148 206.98 57.7614C206.98 57.0966 207.102 56.5099 207.346 56.0014C207.593 55.4901 207.937 55.0909 208.378 54.804C208.821 54.5142 209.338 54.3693 209.929 54.3693C210.389 54.3693 210.804 54.4545 211.173 54.625C211.542 54.7955 211.845 55.0341 212.081 55.3409C212.316 55.6477 212.463 56.0057 212.52 56.4148H211.514C211.437 56.1165 211.267 55.8523 211.003 55.6222C210.741 55.3892 210.389 55.2727 209.946 55.2727C209.554 55.2727 209.21 55.375 208.915 55.5795C208.622 55.7812 208.393 56.0668 208.228 56.4361C208.066 56.8026 207.986 57.233 207.986 57.7273C207.986 58.233 208.065 58.6733 208.224 59.0483C208.386 59.4233 208.613 59.7145 208.906 59.9219C209.201 60.1293 209.548 60.233 209.946 60.233C210.207 60.233 210.444 60.1875 210.657 60.0966C210.87 60.0057 211.051 59.875 211.199 59.7045C211.346 59.5341 211.451 59.3295 211.514 59.0909H212.52C212.463 59.4773 212.322 59.8253 212.098 60.1349C211.876 60.4418 211.582 60.6861 211.216 60.8679C210.852 61.0469 210.429 61.1364 209.946 61.1364ZM216.734 61.1364C216.103 61.1364 215.559 60.9972 215.102 60.7188C214.647 60.4375 214.297 60.0455 214.049 59.5426C213.805 59.0369 213.683 58.4489 213.683 57.7784C213.683 57.108 213.805 56.517 214.049 56.0057C214.297 55.4915 214.64 55.0909 215.081 54.804C215.524 54.5142 216.041 54.3693 216.632 54.3693C216.973 54.3693 217.309 54.4261 217.642 54.5398C217.974 54.6534 218.277 54.8381 218.549 55.0938C218.822 55.3466 219.04 55.6818 219.201 56.0994C219.363 56.517 219.444 57.0312 219.444 57.642V58.0682H214.399V57.1989H218.422C218.422 56.8295 218.348 56.5 218.2 56.2102C218.055 55.9205 217.848 55.6918 217.578 55.5241C217.311 55.3565 216.995 55.2727 216.632 55.2727C216.231 55.2727 215.885 55.3722 215.592 55.571C215.302 55.767 215.079 56.0227 214.923 56.3381C214.767 56.6534 214.689 56.9915 214.689 57.3523V57.9318C214.689 58.4261 214.774 58.8452 214.944 59.1889C215.118 59.5298 215.358 59.7898 215.665 59.9688C215.971 60.1449 216.328 60.233 216.734 60.233C216.998 60.233 217.237 60.196 217.45 60.1222C217.666 60.0455 217.852 59.9318 218.008 59.7812C218.165 59.6278 218.285 59.4375 218.37 59.2102L219.342 59.483C219.24 59.8125 219.068 60.1023 218.826 60.3523C218.585 60.5994 218.287 60.7926 217.932 60.9318C217.576 61.0682 217.177 61.1364 216.734 61.1364ZM225.832 61L223.838 54.4545H224.895L226.309 59.4659H226.378L227.775 54.4545H228.849L230.23 59.4489H230.298L231.713 54.4545H232.77L230.775 61H229.787L228.355 55.9716H228.253L226.821 61H225.832ZM234.099 61V54.4545H235.105V61H234.099ZM234.611 53.3636C234.415 53.3636 234.245 53.2969 234.103 53.1634C233.964 53.0298 233.895 52.8693 233.895 52.6818C233.895 52.4943 233.964 52.3338 234.103 52.2003C234.245 52.0668 234.415 52 234.611 52C234.807 52 234.974 52.0668 235.113 52.2003C235.255 52.3338 235.326 52.4943 235.326 52.6818C235.326 52.8693 235.255 53.0298 235.113 53.1634C234.974 53.2969 234.807 53.3636 234.611 53.3636ZM239.793 54.4545V55.3068H236.401V54.4545H239.793ZM237.39 52.8864H238.396V59.125C238.396 59.4091 238.437 59.6222 238.519 59.7642C238.604 59.9034 238.712 59.9972 238.843 60.0455C238.977 60.0909 239.117 60.1136 239.265 60.1136C239.376 60.1136 239.467 60.108 239.538 60.0966C239.609 60.0824 239.666 60.071 239.708 60.0625L239.913 60.9659C239.845 60.9915 239.749 61.017 239.627 61.0426C239.505 61.071 239.35 61.0852 239.163 61.0852C238.879 61.0852 238.6 61.0241 238.328 60.902C238.058 60.7798 237.833 60.5938 237.654 60.3438C237.478 60.0938 237.39 59.7784 237.39 59.3977V52.8864ZM242.453 57.0625V61H241.447V52.2727H242.453V55.4773H242.538C242.691 55.1392 242.921 54.8707 243.228 54.6719C243.538 54.4702 243.95 54.3693 244.464 54.3693C244.91 54.3693 245.301 54.4588 245.636 54.6378C245.971 54.8139 246.231 55.0852 246.416 55.4517C246.603 55.8153 246.697 56.2784 246.697 56.8409V61H245.691V56.9091C245.691 56.3892 245.556 55.9872 245.286 55.7031C245.019 55.4162 244.649 55.2727 244.174 55.2727C243.845 55.2727 243.549 55.3423 243.288 55.4815C243.029 55.6207 242.825 55.8239 242.674 56.0909C242.526 56.358 242.453 56.6818 242.453 57.0625ZM248.537 61V54.4545H249.542V61H248.537ZM249.048 53.3636C248.852 53.3636 248.683 53.2969 248.541 53.1634C248.402 53.0298 248.332 52.8693 248.332 52.6818C248.332 52.4943 248.402 52.3338 248.541 52.2003C248.683 52.0668 248.852 52 249.048 52C249.244 52 249.412 52.0668 249.551 52.2003C249.693 52.3338 249.764 52.4943 249.764 52.6818C249.764 52.8693 249.693 53.0298 249.551 53.1634C249.412 53.2969 249.244 53.3636 249.048 53.3636ZM252.39 57.0625V61H251.384V54.4545H252.356V55.4773H252.441C252.595 55.1449 252.828 54.8778 253.14 54.6761C253.453 54.4716 253.856 54.3693 254.35 54.3693C254.793 54.3693 255.181 54.4602 255.514 54.642C255.846 54.821 256.104 55.0938 256.289 55.4602C256.474 55.8239 256.566 56.2841 256.566 56.8409V61H255.56V56.9091C255.56 56.3949 255.427 55.9943 255.16 55.7074C254.893 55.4176 254.526 55.2727 254.06 55.2727C253.739 55.2727 253.453 55.3423 253.2 55.4815C252.95 55.6207 252.752 55.8239 252.607 56.0909C252.462 56.358 252.39 56.6818 252.39 57.0625ZM264.625 54.4545V55.3068H261.233V54.4545H264.625ZM262.222 52.8864H263.228V59.125C263.228 59.4091 263.269 59.6222 263.351 59.7642C263.437 59.9034 263.544 59.9972 263.675 60.0455C263.809 60.0909 263.949 60.1136 264.097 60.1136C264.208 60.1136 264.299 60.108 264.37 60.0966C264.441 60.0824 264.498 60.071 264.54 60.0625L264.745 60.9659C264.677 60.9915 264.581 61.017 264.459 61.0426C264.337 61.071 264.182 61.0852 263.995 61.0852C263.711 61.0852 263.432 61.0241 263.16 60.902C262.89 60.7798 262.665 60.5938 262.486 60.3438C262.31 60.0938 262.222 59.7784 262.222 59.3977V52.8864ZM267.285 57.0625V61H266.279V52.2727H267.285V55.4773H267.37C267.523 55.1392 267.753 54.8707 268.06 54.6719C268.37 54.4702 268.782 54.3693 269.296 54.3693C269.742 54.3693 270.133 54.4588 270.468 54.6378C270.803 54.8139 271.063 55.0852 271.248 55.4517C271.435 55.8153 271.529 56.2784 271.529 56.8409V61H270.523V56.9091C270.523 56.3892 270.388 55.9872 270.118 55.7031C269.851 55.4162 269.481 55.2727 269.006 55.2727C268.677 55.2727 268.381 55.3423 268.12 55.4815C267.861 55.6207 267.657 55.8239 267.506 56.0909C267.358 56.358 267.285 56.6818 267.285 57.0625ZM276.113 61.1364C275.482 61.1364 274.938 60.9972 274.481 60.7188C274.026 60.4375 273.676 60.0455 273.428 59.5426C273.184 59.0369 273.062 58.4489 273.062 57.7784C273.062 57.108 273.184 56.517 273.428 56.0057C273.676 55.4915 274.019 55.0909 274.46 54.804C274.903 54.5142 275.42 54.3693 276.011 54.3693C276.352 54.3693 276.688 54.4261 277.021 54.5398C277.353 54.6534 277.656 54.8381 277.928 55.0938C278.201 55.3466 278.418 55.6818 278.58 56.0994C278.742 56.517 278.823 57.0312 278.823 57.642V58.0682H273.778V57.1989H277.801C277.801 56.8295 277.727 56.5 277.579 56.2102C277.434 55.9205 277.227 55.6918 276.957 55.5241C276.69 55.3565 276.374 55.2727 276.011 55.2727C275.61 55.2727 275.264 55.3722 274.971 55.571C274.681 55.767 274.458 56.0227 274.302 56.3381C274.146 56.6534 274.068 56.9915 274.068 57.3523V57.9318C274.068 58.4261 274.153 58.8452 274.323 59.1889C274.497 59.5298 274.737 59.7898 275.043 59.9688C275.35 60.1449 275.707 60.233 276.113 60.233C276.377 60.233 276.616 60.196 276.829 60.1222C277.045 60.0455 277.231 59.9318 277.387 59.7812C277.543 59.6278 277.664 59.4375 277.749 59.2102L278.721 59.483C278.619 59.8125 278.447 60.1023 278.205 60.3523C277.964 60.5994 277.666 60.7926 277.31 60.9318C276.955 61.0682 276.556 61.1364 276.113 61.1364Z" fill="#005178"/>
<path d="M123.861 88.6001V82.0546H124.832V83.0774H124.918C125.054 82.7279 125.274 82.4566 125.578 82.2634C125.882 82.0674 126.247 81.9694 126.673 81.9694C127.105 81.9694 127.465 82.0674 127.752 82.2634C128.041 82.4566 128.267 82.7279 128.429 83.0774H128.497C128.665 82.7393 128.916 82.4708 129.252 82.272C129.587 82.0703 129.989 81.9694 130.457 81.9694C131.043 81.9694 131.521 82.1527 131.894 82.5191C132.266 82.8828 132.452 83.4495 132.452 84.2194V88.6001H131.446V84.2194C131.446 83.7365 131.314 83.3913 131.05 83.1839C130.786 82.9765 130.475 82.8728 130.117 82.8728C129.656 82.8728 129.3 83.012 129.047 83.2904C128.794 83.566 128.668 83.9154 128.668 84.3387V88.6001H127.645V84.1171C127.645 83.745 127.524 83.4453 127.283 83.218C127.041 82.9879 126.73 82.8728 126.35 82.8728C126.088 82.8728 125.844 82.9424 125.617 83.0816C125.392 83.2208 125.21 83.414 125.071 83.6612C124.935 83.9055 124.867 84.1882 124.867 84.5092V88.6001H123.861ZM134.291 88.6001V82.0546H135.296V88.6001H134.291ZM134.802 80.9637C134.606 80.9637 134.437 80.897 134.295 80.7634C134.156 80.6299 134.086 80.4694 134.086 80.2819C134.086 80.0944 134.156 79.9339 134.295 79.8004C134.437 79.6669 134.606 79.6001 134.802 79.6001C134.998 79.6001 135.166 79.6669 135.305 79.8004C135.447 79.9339 135.518 80.0944 135.518 80.2819C135.518 80.4694 135.447 80.6299 135.305 80.7634C135.166 80.897 134.998 80.9637 134.802 80.9637ZM138.144 79.8728V88.6001H137.138V79.8728H138.144ZM139.986 88.6001V82.0546H140.992V88.6001H139.986ZM140.497 80.9637C140.301 80.9637 140.132 80.897 139.99 80.7634C139.851 80.6299 139.781 80.4694 139.781 80.2819C139.781 80.0944 139.851 79.9339 139.99 79.8004C140.132 79.6669 140.301 79.6001 140.497 79.6001C140.693 79.6001 140.861 79.6669 141 79.8004C141.142 79.9339 141.213 80.0944 141.213 80.2819C141.213 80.4694 141.142 80.6299 141 80.7634C140.861 80.897 140.693 80.9637 140.497 80.9637ZM145.68 82.0546V82.9069H142.288V82.0546H145.68ZM143.277 80.4865H144.282V86.7251C144.282 87.0092 144.324 87.2223 144.406 87.3643C144.491 87.5035 144.599 87.5973 144.73 87.6456C144.863 87.691 145.004 87.7137 145.152 87.7137C145.263 87.7137 145.353 87.7081 145.424 87.6967C145.495 87.6825 145.552 87.6711 145.595 87.6626L145.799 88.566C145.731 88.5916 145.636 88.6171 145.514 88.6427C145.392 88.6711 145.237 88.6853 145.049 88.6853C144.765 88.6853 144.487 88.6242 144.214 88.5021C143.944 88.3799 143.72 88.1938 143.541 87.9438C143.365 87.6938 143.277 87.3785 143.277 86.9978V80.4865ZM149.119 88.7535C148.704 88.7535 148.328 88.6754 147.99 88.5191C147.652 88.36 147.383 88.1313 147.184 87.8331C146.986 87.5319 146.886 87.1683 146.886 86.7421C146.886 86.3671 146.96 86.0632 147.108 85.8302C147.255 85.5944 147.453 85.4098 147.7 85.2762C147.947 85.1427 148.22 85.0433 148.518 84.9779C148.819 84.9098 149.122 84.8558 149.426 84.816C149.824 84.7649 150.146 84.7265 150.393 84.7009C150.643 84.6725 150.825 84.6257 150.939 84.5603C151.055 84.495 151.113 84.3813 151.113 84.2194V84.1853C151.113 83.7649 150.998 83.4382 150.768 83.2052C150.541 82.9723 150.196 82.8558 149.733 82.8558C149.253 82.8558 148.876 82.9609 148.603 83.1711C148.331 83.3813 148.139 83.6058 148.028 83.8444L147.074 83.5035C147.244 83.1058 147.471 82.7961 147.755 82.5745C148.042 82.3501 148.355 82.1938 148.693 82.1058C149.034 82.0149 149.369 81.9694 149.699 81.9694C149.909 81.9694 150.15 81.995 150.423 82.0461C150.699 82.0944 150.964 82.1953 151.22 82.3487C151.478 82.5021 151.693 82.7336 151.863 83.0433C152.034 83.3529 152.119 83.7677 152.119 84.2876V88.6001H151.113V87.7137H151.062C150.994 87.8558 150.88 88.0078 150.721 88.1697C150.562 88.3316 150.351 88.4694 150.086 88.5831C149.822 88.6967 149.5 88.7535 149.119 88.7535ZM149.272 87.8501C149.67 87.8501 150.005 87.772 150.278 87.6157C150.554 87.4595 150.761 87.2578 150.9 87.0106C151.042 86.7634 151.113 86.5035 151.113 86.2308V85.3103C151.071 85.3615 150.977 85.4083 150.832 85.4509C150.69 85.4907 150.525 85.5262 150.338 85.5575C150.153 85.5859 149.973 85.6115 149.797 85.6342C149.623 85.6541 149.483 85.6711 149.375 85.6853C149.113 85.7194 148.869 85.7748 148.642 85.8515C148.417 85.9254 148.236 86.0376 148.096 86.1882C147.96 86.3359 147.892 86.5376 147.892 86.7933C147.892 87.1427 148.021 87.4069 148.28 87.5859C148.541 87.762 148.872 87.8501 149.272 87.8501ZM153.955 88.6001V82.0546H154.926V83.0433H154.994C155.114 82.7194 155.33 82.4566 155.642 82.2549C155.955 82.0532 156.307 81.9524 156.699 81.9524C156.773 81.9524 156.865 81.9538 156.976 81.9566C157.087 81.9595 157.171 81.9637 157.227 81.9694V82.9921C157.193 82.9836 157.115 82.9708 156.993 82.9538C156.874 82.9339 156.747 82.924 156.614 82.924C156.296 82.924 156.011 82.9907 155.761 83.1242C155.514 83.2549 155.318 83.4367 155.173 83.6697C155.031 83.8998 154.96 84.1626 154.96 84.4581V88.6001H153.955ZM159.266 91.0546C159.096 91.0546 158.944 91.0404 158.81 91.012C158.677 90.9865 158.585 90.9609 158.533 90.9353L158.789 90.049C159.033 90.1115 159.249 90.1342 159.437 90.1171C159.624 90.1001 159.791 90.0163 159.935 89.8657C160.083 89.718 160.218 89.4779 160.34 89.1456L160.528 88.6342L158.107 82.0546H159.198L161.005 87.2706H161.073L162.88 82.0546H163.971L161.193 89.5546C161.068 89.8927 160.913 90.1725 160.728 90.3941C160.543 90.6186 160.329 90.7848 160.085 90.8927C159.843 91.0007 159.57 91.0546 159.266 91.0546Z" fill="#005178"/>
<path d="M214.771 81.6127V75.2854H216.234V75.7699H215.324V81.1283H216.234V81.6127H214.771ZM216.877 79.9419V79.4377L219.102 75.9182H219.467V76.6992H219.22L217.54 79.3586V79.3982H220.535V79.9419H216.877ZM219.26 80.98V79.7887V79.5539V75.9182H219.843V80.98H219.26ZM222.638 75.2854V81.6127H221.175V81.1283H222.084V75.7699H221.175V75.2854H222.638Z" fill="#005178"/>
<path d="M123.997 121V112.273H129.23V113.21H125.054V116.159H128.838V117.097H125.054V121H123.997ZM133.168 121.136C132.537 121.136 131.993 120.997 131.536 120.719C131.081 120.438 130.73 120.045 130.483 119.543C130.239 119.037 130.117 118.449 130.117 117.778C130.117 117.108 130.239 116.517 130.483 116.006C130.73 115.491 131.074 115.091 131.514 114.804C131.957 114.514 132.475 114.369 133.065 114.369C133.406 114.369 133.743 114.426 134.075 114.54C134.408 114.653 134.71 114.838 134.983 115.094C135.256 115.347 135.473 115.682 135.635 116.099C135.797 116.517 135.878 117.031 135.878 117.642V118.068H130.832V117.199H134.855C134.855 116.83 134.781 116.5 134.634 116.21C134.489 115.92 134.281 115.692 134.011 115.524C133.744 115.357 133.429 115.273 133.065 115.273C132.665 115.273 132.318 115.372 132.026 115.571C131.736 115.767 131.513 116.023 131.357 116.338C131.2 116.653 131.122 116.991 131.122 117.352V117.932C131.122 118.426 131.207 118.845 131.378 119.189C131.551 119.53 131.791 119.79 132.098 119.969C132.405 120.145 132.761 120.233 133.168 120.233C133.432 120.233 133.671 120.196 133.884 120.122C134.1 120.045 134.286 119.932 134.442 119.781C134.598 119.628 134.719 119.437 134.804 119.21L135.776 119.483C135.673 119.812 135.502 120.102 135.26 120.352C135.019 120.599 134.72 120.793 134.365 120.932C134.01 121.068 133.611 121.136 133.168 121.136ZM137.408 121V114.455H138.379V115.477H138.465C138.601 115.128 138.821 114.857 139.125 114.663C139.429 114.467 139.794 114.369 140.22 114.369C140.652 114.369 141.011 114.467 141.298 114.663C141.588 114.857 141.814 115.128 141.976 115.477H142.044C142.212 115.139 142.463 114.871 142.798 114.672C143.134 114.47 143.536 114.369 144.004 114.369C144.59 114.369 145.068 114.553 145.44 114.919C145.813 115.283 145.999 115.849 145.999 116.619V121H144.993V116.619C144.993 116.136 144.861 115.791 144.597 115.584C144.332 115.376 144.021 115.273 143.663 115.273C143.203 115.273 142.847 115.412 142.594 115.69C142.341 115.966 142.215 116.315 142.215 116.739V121H141.192V116.517C141.192 116.145 141.071 115.845 140.83 115.618C140.588 115.388 140.277 115.273 139.896 115.273C139.635 115.273 139.391 115.342 139.163 115.482C138.939 115.621 138.757 115.814 138.618 116.061C138.482 116.305 138.413 116.588 138.413 116.909V121H137.408ZM149.764 121.153C149.349 121.153 148.972 121.075 148.634 120.919C148.296 120.76 148.028 120.531 147.829 120.233C147.63 119.932 147.531 119.568 147.531 119.142C147.531 118.767 147.604 118.463 147.752 118.23C147.9 117.994 148.097 117.81 148.345 117.676C148.592 117.543 148.864 117.443 149.163 117.378C149.464 117.31 149.766 117.256 150.07 117.216C150.468 117.165 150.791 117.126 151.038 117.101C151.288 117.072 151.47 117.026 151.583 116.96C151.7 116.895 151.758 116.781 151.758 116.619V116.585C151.758 116.165 151.643 115.838 151.413 115.605C151.185 115.372 150.84 115.256 150.377 115.256C149.897 115.256 149.521 115.361 149.248 115.571C148.975 115.781 148.783 116.006 148.673 116.244L147.718 115.903C147.889 115.506 148.116 115.196 148.4 114.974C148.687 114.75 148.999 114.594 149.337 114.506C149.678 114.415 150.014 114.369 150.343 114.369C150.553 114.369 150.795 114.395 151.068 114.446C151.343 114.494 151.609 114.595 151.864 114.749C152.123 114.902 152.337 115.134 152.508 115.443C152.678 115.753 152.764 116.168 152.764 116.688V121H151.758V120.114H151.707C151.639 120.256 151.525 120.408 151.366 120.57C151.207 120.732 150.995 120.869 150.731 120.983C150.467 121.097 150.144 121.153 149.764 121.153ZM149.917 120.25C150.315 120.25 150.65 120.172 150.923 120.016C151.198 119.859 151.406 119.658 151.545 119.411C151.687 119.163 151.758 118.903 151.758 118.631V117.71C151.715 117.761 151.622 117.808 151.477 117.851C151.335 117.891 151.17 117.926 150.982 117.957C150.798 117.986 150.617 118.011 150.441 118.034C150.268 118.054 150.127 118.071 150.019 118.085C149.758 118.119 149.514 118.175 149.286 118.251C149.062 118.325 148.88 118.437 148.741 118.588C148.604 118.736 148.536 118.937 148.536 119.193C148.536 119.543 148.666 119.807 148.924 119.986C149.185 120.162 149.516 120.25 149.917 120.25ZM155.605 112.273V121H154.599V112.273H155.605ZM160.191 121.136C159.56 121.136 159.016 120.997 158.559 120.719C158.104 120.438 157.754 120.045 157.506 119.543C157.262 119.037 157.14 118.449 157.14 117.778C157.14 117.108 157.262 116.517 157.506 116.006C157.754 115.491 158.097 115.091 158.538 114.804C158.981 114.514 159.498 114.369 160.089 114.369C160.43 114.369 160.766 114.426 161.099 114.54C161.431 114.653 161.734 114.838 162.006 115.094C162.279 115.347 162.497 115.682 162.658 116.099C162.82 116.517 162.901 117.031 162.901 117.642V118.068H157.856V117.199H161.879C161.879 116.83 161.805 116.5 161.657 116.21C161.512 115.92 161.305 115.692 161.035 115.524C160.768 115.357 160.453 115.273 160.089 115.273C159.688 115.273 159.342 115.372 159.049 115.571C158.759 115.767 158.536 116.023 158.38 116.338C158.224 116.653 158.146 116.991 158.146 117.352V117.932C158.146 118.426 158.231 118.845 158.401 119.189C158.575 119.53 158.815 119.79 159.122 119.969C159.428 120.145 159.785 120.233 160.191 120.233C160.455 120.233 160.694 120.196 160.907 120.122C161.123 120.045 161.309 119.932 161.465 119.781C161.622 119.628 161.742 119.437 161.828 119.21L162.799 119.483C162.697 119.812 162.525 120.102 162.283 120.352C162.042 120.599 161.744 120.793 161.389 120.932C161.033 121.068 160.634 121.136 160.191 121.136ZM169.289 121L167.295 114.455H168.352L169.766 119.466H169.835L171.232 114.455H172.306L173.687 119.449H173.755L175.17 114.455H176.227L174.232 121H173.244L171.812 115.972H171.71L170.278 121H169.289ZM179.482 121.153C179.068 121.153 178.691 121.075 178.353 120.919C178.015 120.76 177.747 120.531 177.548 120.233C177.349 119.932 177.249 119.568 177.249 119.142C177.249 118.767 177.323 118.463 177.471 118.23C177.619 117.994 177.816 117.81 178.063 117.676C178.31 117.543 178.583 117.443 178.881 117.378C179.183 117.31 179.485 117.256 179.789 117.216C180.187 117.165 180.509 117.126 180.756 117.101C181.006 117.072 181.188 117.026 181.302 116.96C181.418 116.895 181.477 116.781 181.477 116.619V116.585C181.477 116.165 181.362 115.838 181.131 115.605C180.904 115.372 180.559 115.256 180.096 115.256C179.616 115.256 179.239 115.361 178.967 115.571C178.694 115.781 178.502 116.006 178.391 116.244L177.437 115.903C177.607 115.506 177.835 115.196 178.119 114.974C178.406 114.75 178.718 114.594 179.056 114.506C179.397 114.415 179.732 114.369 180.062 114.369C180.272 114.369 180.514 114.395 180.786 114.446C181.062 114.494 181.328 114.595 181.583 114.749C181.842 114.902 182.056 115.134 182.227 115.443C182.397 115.753 182.482 116.168 182.482 116.688V121H181.477V120.114H181.426C181.357 120.256 181.244 120.408 181.085 120.57C180.926 120.732 180.714 120.869 180.45 120.983C180.185 121.097 179.863 121.153 179.482 121.153ZM179.636 120.25C180.033 120.25 180.369 120.172 180.641 120.016C180.917 119.859 181.124 119.658 181.264 119.411C181.406 119.163 181.477 118.903 181.477 118.631V117.71C181.434 117.761 181.34 117.808 181.195 117.851C181.053 117.891 180.889 117.926 180.701 117.957C180.516 117.986 180.336 118.011 180.16 118.034C179.987 118.054 179.846 118.071 179.738 118.085C179.477 118.119 179.232 118.175 179.005 118.251C178.781 118.325 178.599 118.437 178.46 118.588C178.323 118.736 178.255 118.937 178.255 119.193C178.255 119.543 178.384 119.807 178.643 119.986C178.904 120.162 179.235 120.25 179.636 120.25ZM184.318 121V114.455H185.29V115.443H185.358C185.477 115.119 185.693 114.857 186.005 114.655C186.318 114.453 186.67 114.352 187.062 114.352C187.136 114.352 187.228 114.354 187.339 114.357C187.45 114.359 187.534 114.364 187.591 114.369V115.392C187.557 115.384 187.478 115.371 187.356 115.354C187.237 115.334 187.111 115.324 186.977 115.324C186.659 115.324 186.375 115.391 186.125 115.524C185.878 115.655 185.682 115.837 185.537 116.07C185.395 116.3 185.324 116.562 185.324 116.858V121H184.318ZM197.51 114.455L195.09 121H194.067L191.646 114.455H192.737L194.544 119.67H194.612L196.419 114.455H197.51ZM201.347 121.136C200.717 121.136 200.173 120.997 199.715 120.719C199.261 120.438 198.91 120.045 198.663 119.543C198.418 119.037 198.296 118.449 198.296 117.778C198.296 117.108 198.418 116.517 198.663 116.006C198.91 115.491 199.254 115.091 199.694 114.804C200.137 114.514 200.654 114.369 201.245 114.369C201.586 114.369 201.923 114.426 202.255 114.54C202.587 114.653 202.89 114.838 203.163 115.094C203.435 115.347 203.653 115.682 203.815 116.099C203.977 116.517 204.058 117.031 204.058 117.642V118.068H199.012V117.199H203.035C203.035 116.83 202.961 116.5 202.813 116.21C202.668 115.92 202.461 115.692 202.191 115.524C201.924 115.357 201.609 115.273 201.245 115.273C200.845 115.273 200.498 115.372 200.205 115.571C199.916 115.767 199.693 116.023 199.536 116.338C199.38 116.653 199.302 116.991 199.302 117.352V117.932C199.302 118.426 199.387 118.845 199.558 119.189C199.731 119.53 199.971 119.79 200.278 119.969C200.585 120.145 200.941 120.233 201.347 120.233C201.612 120.233 201.85 120.196 202.063 120.122C202.279 120.045 202.465 119.932 202.622 119.781C202.778 119.628 202.899 119.437 202.984 119.21L203.955 119.483C203.853 119.812 203.681 120.102 203.44 120.352C203.198 120.599 202.9 120.793 202.545 120.932C202.19 121.068 201.791 121.136 201.347 121.136ZM208.434 114.455V115.307H205.042V114.455H208.434ZM206.031 112.886H207.036V119.125C207.036 119.409 207.078 119.622 207.16 119.764C207.245 119.903 207.353 119.997 207.484 120.045C207.617 120.091 207.758 120.114 207.906 120.114C208.016 120.114 208.107 120.108 208.178 120.097C208.249 120.082 208.306 120.071 208.349 120.062L208.553 120.966C208.485 120.991 208.39 121.017 208.268 121.043C208.146 121.071 207.991 121.085 207.803 121.085C207.519 121.085 207.241 121.024 206.968 120.902C206.698 120.78 206.474 120.594 206.295 120.344C206.119 120.094 206.031 119.778 206.031 119.398V112.886ZM212.621 121.136C211.99 121.136 211.446 120.997 210.989 120.719C210.534 120.438 210.183 120.045 209.936 119.543C209.692 119.037 209.57 118.449 209.57 117.778C209.57 117.108 209.692 116.517 209.936 116.006C210.183 115.491 210.527 115.091 210.967 114.804C211.411 114.514 211.928 114.369 212.519 114.369C212.859 114.369 213.196 114.426 213.528 114.54C213.861 114.653 214.163 114.838 214.436 115.094C214.709 115.347 214.926 115.682 215.088 116.099C215.25 116.517 215.331 117.031 215.331 117.642V118.068H210.286V117.199H214.308C214.308 116.83 214.234 116.5 214.087 116.21C213.942 115.92 213.734 115.692 213.465 115.524C213.198 115.357 212.882 115.273 212.519 115.273C212.118 115.273 211.771 115.372 211.479 115.571C211.189 115.767 210.966 116.023 210.81 116.338C210.653 116.653 210.575 116.991 210.575 117.352V117.932C210.575 118.426 210.661 118.845 210.831 119.189C211.004 119.53 211.244 119.79 211.551 119.969C211.858 120.145 212.215 120.233 212.621 120.233C212.885 120.233 213.124 120.196 213.337 120.122C213.553 120.045 213.739 119.932 213.895 119.781C214.051 119.628 214.172 119.437 214.257 119.21L215.229 119.483C215.127 119.812 214.955 120.102 214.713 120.352C214.472 120.599 214.173 120.793 213.818 120.932C213.463 121.068 213.064 121.136 212.621 121.136ZM216.861 121V114.455H217.832V115.443H217.901C218.02 115.119 218.236 114.857 218.548 114.655C218.861 114.453 219.213 114.352 219.605 114.352C219.679 114.352 219.771 114.354 219.882 114.357C219.993 114.359 220.077 114.364 220.134 114.369V115.392C220.1 115.384 220.021 115.371 219.899 115.354C219.78 115.334 219.653 115.324 219.52 115.324C219.202 115.324 218.918 115.391 218.668 115.524C218.421 115.655 218.225 115.837 218.08 116.07C217.938 116.3 217.867 116.562 217.867 116.858V121H216.861ZM223.252 121.153C222.837 121.153 222.461 121.075 222.123 120.919C221.785 120.76 221.516 120.531 221.317 120.233C221.118 119.932 221.019 119.568 221.019 119.142C221.019 118.767 221.093 118.463 221.241 118.23C221.388 117.994 221.586 117.81 221.833 117.676C222.08 117.543 222.353 117.443 222.651 117.378C222.952 117.31 223.255 117.256 223.559 117.216C223.956 117.165 224.279 117.126 224.526 117.101C224.776 117.072 224.958 117.026 225.071 116.96C225.188 116.895 225.246 116.781 225.246 116.619V116.585C225.246 116.165 225.131 115.838 224.901 115.605C224.674 115.372 224.329 115.256 223.866 115.256C223.385 115.256 223.009 115.361 222.736 115.571C222.464 115.781 222.272 116.006 222.161 116.244L221.206 115.903C221.377 115.506 221.604 115.196 221.888 114.974C222.175 114.75 222.488 114.594 222.826 114.506C223.167 114.415 223.502 114.369 223.831 114.369C224.042 114.369 224.283 114.395 224.556 114.446C224.831 114.494 225.097 114.595 225.353 114.749C225.611 114.902 225.826 115.134 225.996 115.443C226.167 115.753 226.252 116.168 226.252 116.688V121H225.246V120.114H225.195C225.127 120.256 225.013 120.408 224.854 120.57C224.695 120.732 224.483 120.869 224.219 120.983C223.955 121.097 223.633 121.153 223.252 121.153ZM223.405 120.25C223.803 120.25 224.138 120.172 224.411 120.016C224.687 119.859 224.894 119.658 225.033 119.411C225.175 119.163 225.246 118.903 225.246 118.631V117.71C225.204 117.761 225.11 117.808 224.965 117.851C224.823 117.891 224.658 117.926 224.471 117.957C224.286 117.986 224.106 118.011 223.929 118.034C223.756 118.054 223.616 118.071 223.508 118.085C223.246 118.119 223.002 118.175 222.775 118.251C222.55 118.325 222.368 118.437 222.229 118.588C222.093 118.736 222.025 118.937 222.025 119.193C222.025 119.543 222.154 119.807 222.412 119.986C222.674 120.162 223.005 120.25 223.405 120.25ZM229.093 117.062V121H228.087V114.455H229.059V115.477H229.144C229.298 115.145 229.531 114.878 229.843 114.676C230.156 114.472 230.559 114.369 231.053 114.369C231.497 114.369 231.884 114.46 232.217 114.642C232.549 114.821 232.808 115.094 232.992 115.46C233.177 115.824 233.269 116.284 233.269 116.841V121H232.264V116.909C232.264 116.395 232.13 115.994 231.863 115.707C231.596 115.418 231.229 115.273 230.764 115.273C230.443 115.273 230.156 115.342 229.903 115.482C229.653 115.621 229.455 115.824 229.31 116.091C229.166 116.358 229.093 116.682 229.093 117.062ZM239.743 115.92L238.84 116.176C238.783 116.026 238.699 115.879 238.589 115.737C238.481 115.592 238.333 115.473 238.145 115.379C237.958 115.286 237.718 115.239 237.425 115.239C237.025 115.239 236.691 115.331 236.424 115.516C236.16 115.697 236.027 115.929 236.027 116.21C236.027 116.46 236.118 116.658 236.3 116.803C236.482 116.947 236.766 117.068 237.152 117.165L238.124 117.403C238.709 117.545 239.145 117.763 239.432 118.055C239.719 118.345 239.863 118.719 239.863 119.176C239.863 119.551 239.755 119.886 239.539 120.182C239.326 120.477 239.027 120.71 238.644 120.881C238.26 121.051 237.814 121.136 237.306 121.136C236.638 121.136 236.086 120.991 235.648 120.702C235.211 120.412 234.934 119.989 234.817 119.432L235.772 119.193C235.863 119.545 236.035 119.81 236.287 119.986C236.543 120.162 236.877 120.25 237.289 120.25C237.758 120.25 238.13 120.151 238.405 119.952C238.684 119.75 238.823 119.509 238.823 119.227C238.823 119 238.743 118.81 238.584 118.656C238.425 118.5 238.181 118.384 237.851 118.307L236.76 118.051C236.161 117.909 235.721 117.689 235.439 117.391C235.161 117.089 235.022 116.713 235.022 116.261C235.022 115.892 235.125 115.565 235.333 115.281C235.543 114.997 235.829 114.774 236.189 114.612C236.553 114.45 236.965 114.369 237.425 114.369C238.073 114.369 238.581 114.511 238.951 114.795C239.323 115.08 239.587 115.455 239.743 115.92ZM247.803 112.273V121H246.746V113.381H246.695L244.564 114.795V113.722L246.746 112.273H247.803ZM253.261 121.119C252.699 121.119 252.198 121.023 251.757 120.83C251.32 120.636 250.972 120.368 250.713 120.024C250.457 119.678 250.318 119.276 250.296 118.818H251.369C251.392 119.099 251.489 119.342 251.659 119.547C251.83 119.749 252.053 119.905 252.328 120.016C252.604 120.126 252.909 120.182 253.244 120.182C253.619 120.182 253.952 120.116 254.242 119.986C254.531 119.855 254.759 119.673 254.923 119.44C255.088 119.207 255.171 118.938 255.171 118.631C255.171 118.31 255.091 118.027 254.932 117.783C254.773 117.536 254.54 117.342 254.233 117.203C253.926 117.064 253.551 116.994 253.108 116.994H252.409V116.057H253.108C253.455 116.057 253.759 115.994 254.02 115.869C254.284 115.744 254.49 115.568 254.638 115.341C254.788 115.114 254.864 114.847 254.864 114.54C254.864 114.244 254.798 113.987 254.668 113.768C254.537 113.55 254.352 113.379 254.114 113.257C253.878 113.135 253.6 113.074 253.278 113.074C252.977 113.074 252.693 113.129 252.426 113.24C252.162 113.348 251.946 113.506 251.778 113.713C251.611 113.918 251.52 114.165 251.506 114.455H250.483C250.5 113.997 250.638 113.597 250.896 113.253C251.155 112.906 251.493 112.636 251.911 112.443C252.331 112.25 252.793 112.153 253.296 112.153C253.835 112.153 254.298 112.263 254.685 112.482C255.071 112.697 255.368 112.983 255.575 113.338C255.783 113.693 255.886 114.077 255.886 114.489C255.886 114.98 255.757 115.399 255.499 115.746C255.243 116.092 254.895 116.332 254.455 116.466V116.534C255.006 116.625 255.436 116.859 255.746 117.237C256.055 117.612 256.21 118.077 256.21 118.631C256.21 119.105 256.081 119.531 255.823 119.909C255.567 120.284 255.217 120.58 254.774 120.795C254.331 121.011 253.827 121.119 253.261 121.119ZM258.434 121.068C258.223 121.068 258.043 120.993 257.892 120.842C257.742 120.692 257.667 120.511 257.667 120.301C257.667 120.091 257.742 119.911 257.892 119.76C258.043 119.609 258.223 119.534 258.434 119.534C258.644 119.534 258.824 119.609 258.975 119.76C259.125 119.911 259.201 120.091 259.201 120.301C259.201 120.44 259.165 120.568 259.094 120.685C259.026 120.801 258.934 120.895 258.817 120.966C258.704 121.034 258.576 121.068 258.434 121.068ZM260.784 119.21V118.341L264.619 112.273H265.25V113.619H264.824L261.926 118.205V118.273H267.091V119.21H260.784ZM264.892 121V118.946V118.541V112.273H265.897V121H264.892ZM273.136 119.364V118.903C273.136 118.585 273.202 118.294 273.332 118.03C273.466 117.763 273.659 117.55 273.912 117.391C274.168 117.229 274.477 117.148 274.841 117.148C275.21 117.148 275.52 117.229 275.77 117.391C276.02 117.55 276.209 117.763 276.337 118.03C276.465 118.294 276.528 118.585 276.528 118.903V119.364C276.528 119.682 276.463 119.974 276.332 120.241C276.205 120.506 276.014 120.719 275.761 120.881C275.511 121.04 275.205 121.119 274.841 121.119C274.472 121.119 274.161 121.04 273.908 120.881C273.655 120.719 273.463 120.506 273.332 120.241C273.202 119.974 273.136 119.682 273.136 119.364ZM274.006 118.903V119.364C274.006 119.628 274.068 119.865 274.193 120.075C274.318 120.283 274.534 120.386 274.841 120.386C275.139 120.386 275.35 120.283 275.472 120.075C275.597 119.865 275.659 119.628 275.659 119.364V118.903C275.659 118.639 275.6 118.403 275.48 118.196C275.361 117.986 275.148 117.881 274.841 117.881C274.543 117.881 274.328 117.986 274.198 118.196C274.07 118.403 274.006 118.639 274.006 118.903ZM268.79 114.369V113.909C268.79 113.591 268.855 113.3 268.986 113.036C269.119 112.768 269.313 112.555 269.565 112.396C269.821 112.234 270.131 112.153 270.494 112.153C270.864 112.153 271.173 112.234 271.423 112.396C271.673 112.555 271.862 112.768 271.99 113.036C272.118 113.3 272.182 113.591 272.182 113.909V114.369C272.182 114.687 272.117 114.98 271.986 115.247C271.858 115.511 271.668 115.724 271.415 115.886C271.165 116.045 270.858 116.125 270.494 116.125C270.125 116.125 269.814 116.045 269.561 115.886C269.308 115.724 269.117 115.511 268.986 115.247C268.855 114.98 268.79 114.687 268.79 114.369ZM269.659 113.909V114.369C269.659 114.634 269.722 114.871 269.847 115.081C269.972 115.288 270.188 115.392 270.494 115.392C270.793 115.392 271.003 115.288 271.125 115.081C271.25 114.871 271.313 114.634 271.313 114.369V113.909C271.313 113.645 271.253 113.409 271.134 113.202C271.014 112.991 270.801 112.886 270.494 112.886C270.196 112.886 269.982 112.991 269.851 113.202C269.723 113.409 269.659 113.645 269.659 113.909ZM269.114 121L275.114 112.273H276.085L270.085 121H269.114Z" fill="#005178"/>
<path d="M123.997 144.673H125.259L128.225 151.917H128.327L131.293 144.673H132.554V153.4H131.565V146.769H131.48L128.753 153.4H127.798L125.071 146.769H124.986V153.4H123.997V144.673ZM136.463 153.553C136.048 153.553 135.672 153.475 135.334 153.319C134.995 153.16 134.727 152.931 134.528 152.633C134.329 152.332 134.23 151.968 134.23 151.542C134.23 151.167 134.304 150.863 134.451 150.63C134.599 150.394 134.797 150.21 135.044 150.076C135.291 149.943 135.564 149.843 135.862 149.778C136.163 149.71 136.466 149.656 136.77 149.616C137.167 149.565 137.49 149.526 137.737 149.501C137.987 149.472 138.169 149.425 138.282 149.36C138.399 149.295 138.457 149.181 138.457 149.019V148.985C138.457 148.565 138.342 148.238 138.112 148.005C137.885 147.772 137.54 147.656 137.076 147.656C136.596 147.656 136.22 147.761 135.947 147.971C135.674 148.181 135.483 148.406 135.372 148.644L134.417 148.303C134.588 147.906 134.815 147.596 135.099 147.374C135.386 147.15 135.699 146.994 136.037 146.906C136.378 146.815 136.713 146.769 137.042 146.769C137.253 146.769 137.494 146.795 137.767 146.846C138.042 146.894 138.308 146.995 138.564 147.148C138.822 147.302 139.037 147.533 139.207 147.843C139.378 148.153 139.463 148.568 139.463 149.087V153.4H138.457V152.514H138.406C138.338 152.656 138.224 152.808 138.065 152.97C137.906 153.131 137.694 153.269 137.43 153.383C137.166 153.496 136.843 153.553 136.463 153.553ZM136.616 152.65C137.014 152.65 137.349 152.572 137.622 152.416C137.897 152.259 138.105 152.058 138.244 151.81C138.386 151.563 138.457 151.303 138.457 151.031V150.11C138.415 150.161 138.321 150.208 138.176 150.251C138.034 150.291 137.869 150.326 137.682 150.357C137.497 150.386 137.316 150.411 137.14 150.434C136.967 150.454 136.826 150.471 136.718 150.485C136.457 150.519 136.213 150.575 135.986 150.651C135.761 150.725 135.579 150.837 135.44 150.988C135.304 151.136 135.236 151.337 135.236 151.593C135.236 151.943 135.365 152.207 135.623 152.386C135.885 152.562 136.216 152.65 136.616 152.65ZM142.304 144.673V153.4H141.298V144.673H142.304ZM146.89 153.536C146.26 153.536 145.716 153.397 145.258 153.119C144.804 152.837 144.453 152.445 144.206 151.943C143.961 151.437 143.839 150.849 143.839 150.178C143.839 149.508 143.961 148.917 144.206 148.406C144.453 147.891 144.797 147.491 145.237 147.204C145.68 146.914 146.197 146.769 146.788 146.769C147.129 146.769 147.466 146.826 147.798 146.94C148.13 147.053 148.433 147.238 148.706 147.494C148.978 147.746 149.196 148.082 149.358 148.499C149.52 148.917 149.601 149.431 149.601 150.042V150.468H144.555V149.599H148.578C148.578 149.229 148.504 148.9 148.356 148.61C148.211 148.32 148.004 148.092 147.734 147.924C147.467 147.756 147.152 147.673 146.788 147.673C146.388 147.673 146.041 147.772 145.748 147.971C145.459 148.167 145.236 148.423 145.079 148.738C144.923 149.053 144.845 149.391 144.845 149.752V150.332C144.845 150.826 144.93 151.245 145.101 151.589C145.274 151.93 145.514 152.19 145.821 152.369C146.128 152.545 146.484 152.633 146.89 152.633C147.155 152.633 147.393 152.596 147.606 152.522C147.822 152.445 148.008 152.332 148.165 152.181C148.321 152.028 148.441 151.837 148.527 151.61L149.498 151.883C149.396 152.212 149.224 152.502 148.983 152.752C148.741 152.999 148.443 153.193 148.088 153.332C147.733 153.468 147.334 153.536 146.89 153.536ZM155.988 153.4L153.994 146.854H155.051L156.466 151.866H156.534L157.932 146.854H159.005L160.386 151.849H160.454L161.869 146.854H162.926L160.932 153.4H159.943L158.511 148.371H158.409L156.977 153.4H155.988ZM166.182 153.553C165.767 153.553 165.39 153.475 165.052 153.319C164.714 153.16 164.446 152.931 164.247 152.633C164.048 152.332 163.949 151.968 163.949 151.542C163.949 151.167 164.022 150.863 164.17 150.63C164.318 150.394 164.515 150.21 164.763 150.076C165.01 149.943 165.282 149.843 165.581 149.778C165.882 149.71 166.184 149.656 166.488 149.616C166.886 149.565 167.209 149.526 167.456 149.501C167.706 149.472 167.888 149.425 168.001 149.36C168.118 149.295 168.176 149.181 168.176 149.019V148.985C168.176 148.565 168.061 148.238 167.831 148.005C167.603 147.772 167.258 147.656 166.795 147.656C166.315 147.656 165.939 147.761 165.666 147.971C165.393 148.181 165.201 148.406 165.091 148.644L164.136 148.303C164.307 147.906 164.534 147.596 164.818 147.374C165.105 147.15 165.417 146.994 165.755 146.906C166.096 146.815 166.432 146.769 166.761 146.769C166.971 146.769 167.213 146.795 167.486 146.846C167.761 146.894 168.027 146.995 168.282 147.148C168.541 147.302 168.755 147.533 168.926 147.843C169.096 148.153 169.182 148.568 169.182 149.087V153.4H168.176V152.514H168.125C168.057 152.656 167.943 152.808 167.784 152.97C167.625 153.131 167.413 153.269 167.149 153.383C166.885 153.496 166.562 153.553 166.182 153.553ZM166.335 152.65C166.733 152.65 167.068 152.572 167.341 152.416C167.616 152.259 167.824 152.058 167.963 151.81C168.105 151.563 168.176 151.303 168.176 151.031V150.11C168.133 150.161 168.04 150.208 167.895 150.251C167.753 150.291 167.588 150.326 167.4 150.357C167.216 150.386 167.035 150.411 166.859 150.434C166.686 150.454 166.545 150.471 166.437 150.485C166.176 150.519 165.932 150.575 165.704 150.651C165.48 150.725 165.298 150.837 165.159 150.988C165.022 151.136 164.954 151.337 164.954 151.593C164.954 151.943 165.084 152.207 165.342 152.386C165.603 152.562 165.934 152.65 166.335 152.65ZM171.017 153.4V146.854H171.989V147.843H172.057C172.176 147.519 172.392 147.256 172.705 147.055C173.017 146.853 173.369 146.752 173.761 146.752C173.835 146.752 173.928 146.754 174.038 146.756C174.149 146.759 174.233 146.764 174.29 146.769V147.792C174.256 147.783 174.178 147.771 174.055 147.754C173.936 147.734 173.81 147.724 173.676 147.724C173.358 147.724 173.074 147.791 172.824 147.924C172.577 148.055 172.381 148.237 172.236 148.47C172.094 148.7 172.023 148.962 172.023 149.258V153.4H171.017ZM184.209 146.854L181.789 153.4H180.766L178.346 146.854H179.437L181.243 152.07H181.312L183.118 146.854H184.209ZM188.047 153.536C187.416 153.536 186.872 153.397 186.415 153.119C185.96 152.837 185.609 152.445 185.362 151.943C185.118 151.437 184.995 150.849 184.995 150.178C184.995 149.508 185.118 148.917 185.362 148.406C185.609 147.891 185.953 147.491 186.393 147.204C186.836 146.914 187.353 146.769 187.944 146.769C188.285 146.769 188.622 146.826 188.954 146.94C189.287 147.053 189.589 147.238 189.862 147.494C190.135 147.746 190.352 148.082 190.514 148.499C190.676 148.917 190.757 149.431 190.757 150.042V150.468H185.711V149.599H189.734C189.734 149.229 189.66 148.9 189.513 148.61C189.368 148.32 189.16 148.092 188.89 147.924C188.623 147.756 188.308 147.673 187.944 147.673C187.544 147.673 187.197 147.772 186.905 147.971C186.615 148.167 186.392 148.423 186.236 148.738C186.079 149.053 186.001 149.391 186.001 149.752V150.332C186.001 150.826 186.086 151.245 186.257 151.589C186.43 151.93 186.67 152.19 186.977 152.369C187.284 152.545 187.64 152.633 188.047 152.633C188.311 152.633 188.549 152.596 188.763 152.522C188.978 152.445 189.165 152.332 189.321 152.181C189.477 152.028 189.598 151.837 189.683 151.61L190.655 151.883C190.552 152.212 190.38 152.502 190.139 152.752C189.897 152.999 189.599 153.193 189.244 153.332C188.889 153.468 188.49 153.536 188.047 153.536ZM195.133 146.854V147.707H191.741V146.854H195.133ZM192.73 145.286H193.736V151.525C193.736 151.809 193.777 152.022 193.859 152.164C193.944 152.303 194.052 152.397 194.183 152.445C194.316 152.491 194.457 152.514 194.605 152.514C194.716 152.514 194.807 152.508 194.878 152.496C194.949 152.482 195.005 152.471 195.048 152.462L195.253 153.366C195.184 153.391 195.089 153.417 194.967 153.443C194.845 153.471 194.69 153.485 194.503 153.485C194.218 153.485 193.94 153.424 193.667 153.302C193.397 153.18 193.173 152.994 192.994 152.744C192.818 152.494 192.73 152.178 192.73 151.798V145.286ZM199.32 153.536C198.689 153.536 198.145 153.397 197.688 153.119C197.233 152.837 196.883 152.445 196.635 151.943C196.391 151.437 196.269 150.849 196.269 150.178C196.269 149.508 196.391 148.917 196.635 148.406C196.883 147.891 197.226 147.491 197.667 147.204C198.11 146.914 198.627 146.769 199.218 146.769C199.559 146.769 199.895 146.826 200.228 146.94C200.56 147.053 200.863 147.238 201.135 147.494C201.408 147.746 201.625 148.082 201.787 148.499C201.949 148.917 202.03 149.431 202.03 150.042V150.468H196.985V149.599H201.008C201.008 149.229 200.934 148.9 200.786 148.61C200.641 148.32 200.434 148.092 200.164 147.924C199.897 147.756 199.581 147.673 199.218 147.673C198.817 147.673 198.471 147.772 198.178 147.971C197.888 148.167 197.665 148.423 197.509 148.738C197.353 149.053 197.275 149.391 197.275 149.752V150.332C197.275 150.826 197.36 151.245 197.53 151.589C197.704 151.93 197.944 152.19 198.25 152.369C198.557 152.545 198.914 152.633 199.32 152.633C199.584 152.633 199.823 152.596 200.036 152.522C200.252 152.445 200.438 152.332 200.594 152.181C200.75 152.028 200.871 151.837 200.956 151.61L201.928 151.883C201.826 152.212 201.654 152.502 201.412 152.752C201.171 152.999 200.873 153.193 200.517 153.332C200.162 153.468 199.763 153.536 199.32 153.536ZM203.56 153.4V146.854H204.532V147.843H204.6C204.719 147.519 204.935 147.256 205.248 147.055C205.56 146.853 205.912 146.752 206.304 146.752C206.378 146.752 206.471 146.754 206.581 146.756C206.692 146.759 206.776 146.764 206.833 146.769V147.792C206.799 147.783 206.721 147.771 206.598 147.754C206.479 147.734 206.353 147.724 206.219 147.724C205.901 147.724 205.617 147.791 205.367 147.924C205.12 148.055 204.924 148.237 204.779 148.47C204.637 148.7 204.566 148.962 204.566 149.258V153.4H203.56ZM209.951 153.553C209.536 153.553 209.16 153.475 208.822 153.319C208.484 153.16 208.215 152.931 208.016 152.633C207.818 152.332 207.718 151.968 207.718 151.542C207.718 151.167 207.792 150.863 207.94 150.63C208.087 150.394 208.285 150.21 208.532 150.076C208.779 149.943 209.052 149.843 209.35 149.778C209.651 149.71 209.954 149.656 210.258 149.616C210.656 149.565 210.978 149.526 211.225 149.501C211.475 149.472 211.657 149.425 211.771 149.36C211.887 149.295 211.945 149.181 211.945 149.019V148.985C211.945 148.565 211.83 148.238 211.6 148.005C211.373 147.772 211.028 147.656 210.565 147.656C210.085 147.656 209.708 147.761 209.435 147.971C209.163 148.181 208.971 148.406 208.86 148.644L207.906 148.303C208.076 147.906 208.303 147.596 208.587 147.374C208.874 147.15 209.187 146.994 209.525 146.906C209.866 146.815 210.201 146.769 210.531 146.769C210.741 146.769 210.982 146.795 211.255 146.846C211.531 146.894 211.796 146.995 212.052 147.148C212.31 147.302 212.525 147.533 212.695 147.843C212.866 148.153 212.951 148.568 212.951 149.087V153.4H211.945V152.514H211.894C211.826 152.656 211.712 152.808 211.553 152.97C211.394 153.131 211.183 153.269 210.918 153.383C210.654 153.496 210.332 153.553 209.951 153.553ZM210.104 152.65C210.502 152.65 210.837 152.572 211.11 152.416C211.386 152.259 211.593 152.058 211.732 151.81C211.874 151.563 211.945 151.303 211.945 151.031V150.11C211.903 150.161 211.809 150.208 211.664 150.251C211.522 150.291 211.357 150.326 211.17 150.357C210.985 150.386 210.805 150.411 210.629 150.434C210.455 150.454 210.315 150.471 210.207 150.485C209.945 150.519 209.701 150.575 209.474 150.651C209.249 150.725 209.068 150.837 208.928 150.988C208.792 151.136 208.724 151.337 208.724 151.593C208.724 151.943 208.853 152.207 209.112 152.386C209.373 152.562 209.704 152.65 210.104 152.65ZM215.792 149.462V153.4H214.787V146.854H215.758V147.877H215.843C215.997 147.545 216.23 147.278 216.542 147.076C216.855 146.871 217.258 146.769 217.753 146.769C218.196 146.769 218.584 146.86 218.916 147.042C219.248 147.221 219.507 147.494 219.691 147.86C219.876 148.224 219.968 148.684 219.968 149.241V153.4H218.963V149.309C218.963 148.795 218.829 148.394 218.562 148.107C218.295 147.818 217.929 147.673 217.463 147.673C217.142 147.673 216.855 147.742 216.602 147.881C216.352 148.021 216.155 148.224 216.01 148.491C215.865 148.758 215.792 149.082 215.792 149.462ZM226.443 148.32L225.539 148.576C225.482 148.425 225.399 148.279 225.288 148.137C225.18 147.992 225.032 147.873 224.845 147.779C224.657 147.685 224.417 147.639 224.124 147.639C223.724 147.639 223.39 147.731 223.123 147.916C222.859 148.097 222.727 148.329 222.727 148.61C222.727 148.86 222.818 149.058 222.999 149.202C223.181 149.347 223.465 149.468 223.852 149.565L224.823 149.803C225.408 149.945 225.845 150.163 226.131 150.455C226.418 150.745 226.562 151.119 226.562 151.576C226.562 151.951 226.454 152.286 226.238 152.582C226.025 152.877 225.727 153.11 225.343 153.281C224.96 153.451 224.514 153.536 224.005 153.536C223.337 153.536 222.785 153.391 222.347 153.102C221.91 152.812 221.633 152.389 221.516 151.832L222.471 151.593C222.562 151.945 222.734 152.21 222.987 152.386C223.242 152.562 223.576 152.65 223.988 152.65C224.457 152.65 224.829 152.55 225.104 152.352C225.383 152.15 225.522 151.908 225.522 151.627C225.522 151.4 225.443 151.21 225.283 151.056C225.124 150.9 224.88 150.783 224.551 150.707L223.46 150.451C222.86 150.309 222.42 150.089 222.139 149.791C221.86 149.489 221.721 149.113 221.721 148.661C221.721 148.292 221.825 147.965 222.032 147.681C222.242 147.397 222.528 147.174 222.889 147.012C223.252 146.85 223.664 146.769 224.124 146.769C224.772 146.769 225.281 146.911 225.65 147.195C226.022 147.479 226.286 147.854 226.443 148.32ZM231.706 153.4L235.61 145.678V145.61H231.11V144.673H236.701V145.661L232.814 153.4H231.706ZM237.539 153.468C237.329 153.468 237.149 153.393 236.998 153.242C236.847 153.092 236.772 152.911 236.772 152.701C236.772 152.491 236.847 152.31 236.998 152.16C237.149 152.009 237.329 151.934 237.539 151.934C237.749 151.934 237.93 152.009 238.08 152.16C238.231 152.31 238.306 152.491 238.306 152.701C238.306 152.84 238.271 152.968 238.2 153.085C238.131 153.201 238.039 153.295 237.923 153.366C237.809 153.434 237.681 153.468 237.539 153.468ZM240.191 153.4L244.094 145.678V145.61H239.594V144.673H245.185V145.661L241.299 153.4H240.191ZM251.222 151.764V151.303C251.222 150.985 251.288 150.694 251.418 150.43C251.552 150.163 251.745 149.95 251.998 149.791C252.254 149.629 252.563 149.548 252.927 149.548C253.296 149.548 253.606 149.629 253.856 149.791C254.106 149.95 254.295 150.163 254.423 150.43C254.551 150.694 254.614 150.985 254.614 151.303V151.764C254.614 152.082 254.549 152.374 254.418 152.641C254.291 152.906 254.1 153.119 253.847 153.281C253.597 153.44 253.291 153.519 252.927 153.519C252.558 153.519 252.247 153.44 251.994 153.281C251.741 153.119 251.549 152.906 251.418 152.641C251.288 152.374 251.222 152.082 251.222 151.764ZM252.092 151.303V151.764C252.092 152.028 252.154 152.265 252.279 152.475C252.404 152.683 252.62 152.786 252.927 152.786C253.225 152.786 253.435 152.683 253.558 152.475C253.683 152.265 253.745 152.028 253.745 151.764V151.303C253.745 151.039 253.685 150.803 253.566 150.596C253.447 150.386 253.234 150.281 252.927 150.281C252.629 150.281 252.414 150.386 252.283 150.596C252.156 150.803 252.092 151.039 252.092 151.303ZM246.876 146.769V146.309C246.876 145.991 246.941 145.7 247.072 145.435C247.205 145.168 247.399 144.955 247.651 144.796C247.907 144.634 248.217 144.553 248.58 144.553C248.95 144.553 249.259 144.634 249.509 144.796C249.759 144.955 249.948 145.168 250.076 145.435C250.204 145.7 250.268 145.991 250.268 146.309V146.769C250.268 147.087 250.203 147.38 250.072 147.647C249.944 147.911 249.754 148.124 249.501 148.286C249.251 148.445 248.944 148.525 248.58 148.525C248.211 148.525 247.9 148.445 247.647 148.286C247.394 148.124 247.203 147.911 247.072 147.647C246.941 147.38 246.876 147.087 246.876 146.769ZM247.745 146.309V146.769C247.745 147.033 247.808 147.271 247.933 147.481C248.058 147.688 248.274 147.792 248.58 147.792C248.879 147.792 249.089 147.688 249.211 147.481C249.336 147.271 249.399 147.033 249.399 146.769V146.309C249.399 146.045 249.339 145.809 249.22 145.602C249.1 145.391 248.887 145.286 248.58 145.286C248.282 145.286 248.068 145.391 247.937 145.602C247.809 145.809 247.745 146.045 247.745 146.309ZM247.2 153.4L253.2 144.673H254.171L248.171 153.4H247.2Z" fill="#005178"/>
<path d="M495.17 142.26H462.15V161.44H495.17V142.26Z" fill="white"/>
<path d="M478.74 31.3398C468.8 31.3398 460.67 39.1698 460.67 48.7498V64.9698C460.67 65.8698 461.42 66.5898 462.35 66.5898H495.12C496.05 66.5898 496.8 65.8598 496.8 64.9698V48.7498C496.8 39.1798 488.67 31.3398 478.73 31.3398H478.74Z" fill="#005178"/>
<path d="M503.36 78.8201C503.36 73.5701 499.1 69.3101 493.85 69.3101H463.76C458.51 69.3101 454.25 73.5701 454.25 78.8201V88.3301H503.36" fill="#005178"/>
<path d="M478.98 62.5498C486.717 62.5498 492.99 56.2773 492.99 48.5398C492.99 40.8023 486.717 34.5298 478.98 34.5298C471.242 34.5298 464.97 40.8023 464.97 48.5398C464.97 56.2773 471.242 62.5498 478.98 62.5498Z" fill="white"/>
<path d="M478.67 138.23C486.408 138.23 492.68 131.957 492.68 124.22C492.68 116.482 486.408 110.21 478.67 110.21C470.933 110.21 464.66 116.482 464.66 124.22C464.66 131.957 470.933 138.23 478.67 138.23Z" fill="#005178"/>
<path d="M467.402 145.019L465.156 141.154C464.665 140.309 463.581 140.022 462.736 140.513L454.54 145.276C453.694 145.767 453.407 146.851 453.898 147.696L456.144 151.561C456.635 152.406 457.719 152.693 458.564 152.202L466.761 147.439C467.606 146.948 467.893 145.865 467.402 145.019Z" fill="#005178"/>
<path d="M496.21 109.65C496.21 106.23 488.25 103.45 478.43 103.45C468.61 103.45 460.65 106.23 460.65 109.65C460.65 111.32 462.54 112.83 465.61 113.94V119.16H492.07V113.62C494.65 112.54 496.2 111.16 496.2 109.65H496.21Z" fill="#005178"/>
<path d="M478.44 120.81C487.801 120.81 495.39 119.516 495.39 117.92C495.39 116.324 487.801 115.03 478.44 115.03C469.079 115.03 461.49 116.324 461.49 117.92C461.49 119.516 469.079 120.81 478.44 120.81Z" fill="#005178"/>
<path d="M493.54 142.31H482.83C482.83 142.31 482.8 142.41 482.78 142.45C482.3 143.51 481.82 144.57 481.35 145.63C481.28 145.79 481.19 145.85 481.03 145.85C479.96 145.85 478.9 145.85 477.83 145.84C477.75 145.84 477.63 145.78 477.59 145.7C477.08 144.59 476.58 143.46 476.07 142.34C476.07 142.34 476.07 142.32 476.07 142.31H463.45C458.2 142.31 453.94 146.57 453.94 151.82V161.33H475.29C476.1 156.55 476.91 151.78 477.71 147C477.74 146.82 477.8 146.76 477.97 146.77C478.46 146.78 478.95 146.77 479.44 146.77C479.94 146.77 480.44 146.77 480.93 146.77C481.08 146.77 481.15 146.81 481.17 146.97C481.68 150.03 482.2 153.09 482.72 156.14C483.01 157.87 483.3 159.6 483.6 161.33H503.04V151.82C503.04 146.57 498.78 142.31 493.53 142.31H493.54Z" fill="#005178"/>
<path d="M464.63 144.05L463.51 145.75L464.27 147.64L462.31 147.09L460.74 148.4L460.66 146.36L458.93 145.28L460.84 144.57L461.34 142.6L462.6 144.19L464.63 144.05Z" fill="white"/>
<path d="M503.22 148.37C503.93 147.15 503.52 145.58 502.29 144.87L495.45 140.9C494.23 140.19 492.66 140.6 491.95 141.83L490.49 144.34C489.78 145.56 490.19 147.13 491.42 147.84L498.26 151.81C499.48 152.52 501.05 152.11 501.76 150.88L503.22 148.37Z" fill="#005178"/>
<path d="M492.91 144.05L494.03 145.75L493.27 147.64L495.24 147.09L496.8 148.4L496.88 146.36L498.61 145.28L496.7 144.57L496.2 142.6L494.94 144.19L492.91 144.05Z" fill="white"/>
<path d="M469.03 152.86H463.24V155.75H469.03V152.86Z" fill="white"/>
<path d="M474.82 109.23C474.82 115.27 482.53 115.27 482.53 109.23H474.82Z" fill="white"/>
<path d="M471.38 35.7998C477.26 43.3498 484.93 45.5398 494.13 44.7198L492.07 37.5798L481.17 31.7798L473.04 34.0098L471.37 35.7898L471.38 35.7998Z" fill="#005178"/>
<path d="M477.18 35.7998C473.72 43.3498 469.21 45.5398 463.8 44.7198L465.01 37.5798L471.83 34.0098H476.2L477.18 35.7898V35.7998Z" fill="#005178"/>
<defs>
<linearGradient id="paint0_linear_138_383" x1="570.63" y1="34.4502" x2="570.63" y2="86.4502" gradientUnits="userSpaceOnUse">
<stop stop-color="#D8B5F9"/>
<stop offset="0.05" stop-color="#CBA8F0"/>
<stop offset="0.22" stop-color="#A786D9"/>
<stop offset="0.38" stop-color="#8B6BC7"/>
<stop offset="0.55" stop-color="#7758BA"/>
<stop offset="0.72" stop-color="#6B4CB2"/>
<stop offset="0.88" stop-color="#6849B0"/>
</linearGradient>
</defs>
</svg>
