<?xml version="1.0" encoding="UTF-8"?>
<svg id="Layer_1" data-name="Layer 1" xmlns="http://www.w3.org/2000/svg" viewBox="0 0 120 120" width="100%" height="100%">
  <g>
    <circle cx="60" cy="60" r="55.41" style="fill: #fff; stroke: #005178; stroke-miterlimit: 10; stroke-width: 6px;"/>
    <circle cx="60" cy="60" r="48.69" style="fill: #5a97cb; stroke-width: 0px;"/>
  </g>
  <path d="m60,101.06c22.68,0,41.06-18.38,41.06-41.06s-18.38-41.06-41.06-41.06S18.94,37.32,18.94,60s18.38,41.06,41.06,41.06Zm0-2.93c21.06,0,38.13-17.07,38.13-38.13s-17.07-38.13-38.13-38.13S21.87,38.94,21.87,60s17.07,38.13,38.13,38.13Zm-8.8-45.46c0-.81-.66-1.47-1.47-1.47h-14.66c-.81,0-1.47.66-1.47,1.47s.66,1.47,1.47,1.47h7.58c.6,1.71,2.23,2.93,4.15,2.93,2.43,0,4.4-1.96,4.4-4.4Zm17.6,0c0-.81.66-1.47,1.47-1.47h14.66c.81,0,1.47.66,1.47,1.47s-.66,1.47-1.47,1.47h-7.58c-.6,1.71-2.23,2.93-4.15,2.93-2.43,0-4.4-1.96-4.4-4.4Zm-20.11,32.41c.67-.63,1.46-1.26,2.37-1.85,2.59-1.69,5.58-2.7,8.94-2.7s6.35,1.01,8.94,2.7c.91.59,1.7,1.22,2.37,1.85.39.37.64.64.76.78.51.63,1.44.72,2.06.2.63-.51.72-1.44.2-2.06-.69-.84-1.96-2.04-3.79-3.23-3.04-1.98-6.57-3.17-10.54-3.17s-7.5,1.19-10.54,3.17c-1.83,1.19-3.1,2.39-3.79,3.23-.51.63-.42,1.55.2,2.06.63.51,1.55.42,2.06-.2.11-.14.37-.41.76-.78Z" style="fill: #fff; fill-rule: evenodd; stroke-width: 0px;"/>
</svg>