<?xml version="1.0" encoding="UTF-8"?>
<svg id="Layer_1" data-name="Layer 1" xmlns="http://www.w3.org/2000/svg" viewBox="0 0 120 120" width="100%" height="100%">
  <g>
    <circle cx="60" cy="60" r="55.41" style="fill: #fff; stroke: #005178; stroke-miterlimit: 10; stroke-width: 6px;"/>
    <circle cx="60" cy="60" r="48.69" style="fill: #5a97cb; stroke-width: 0px;"/>
  </g>
  <g>
    <path d="m60.52,46.43c2.47,0,4.5,2.03,4.5,4.5s-2.03,4.5-4.5,4.5-4.5-2.03-4.5-4.5,2.03-4.5,4.5-4.5m0-1.48c-3.29,0-5.98,2.69-5.98,5.98s2.69,5.98,5.98,5.98,5.98-2.69,5.98-5.98c.05-3.29-2.69-5.98-5.98-5.98h0Z" style="fill: #fff; stroke: #fff; stroke-miterlimit: 10; stroke-width: .75px;"/>
    <path d="m66.71,60.92c1.7,0,3.13,1.43,3.13,3.13v11.29c0,1.43-.99,2.69-2.36,3.07-.66.16-1.1.77-1.1,1.43v12.45c0,1.1-.88,1.97-1.97,1.97h-7.79c-1.1,0-1.97-.88-1.97-1.97v-12.45c0-.66-.44-1.26-1.1-1.43-1.37-.33-2.36-1.59-2.36-3.07v-11.29c0-1.7,1.43-3.13,3.13-3.13h12.39m0-1.48h-12.39c-2.52,0-4.61,2.08-4.61,4.61v11.29c0,2.14,1.48,3.95,3.51,4.5v12.45c0,1.92,1.54,3.45,3.45,3.45h7.73c1.92,0,3.45-1.54,3.45-3.45v-12.45c2.03-.49,3.51-2.3,3.51-4.5v-11.29c-.05-2.52-2.14-4.61-4.66-4.61h0Z" style="fill: #fff; stroke: #fff; stroke-miterlimit: 10; stroke-width: .75px;"/>
  </g>
  <g>
    <circle cx="31.55" cy="50.53" r="4.45" style="fill: none; stroke: #fff; stroke-linecap: round; stroke-linejoin: round; stroke-width: 1.5px;"/>
    <path d="m42.05,50.53s-4.7,4.45-10.5,4.45-10.5-4.45-10.5-4.45c0,0,4.7-4.45,10.5-4.45s10.5,4.45,10.5,4.45Z" style="fill: none; stroke: #fff; stroke-linecap: round; stroke-linejoin: round; stroke-width: 1.5px;"/>
  </g>
  <g>
    <circle cx="89.4" cy="50.53" r="4.45" style="fill: none; stroke: #fff; stroke-linecap: round; stroke-linejoin: round; stroke-width: 1.5px;"/>
    <path d="m99.9,50.53s-4.7,4.45-10.5,4.45-10.5-4.45-10.5-4.45c0,0,4.7-4.45,10.5-4.45s10.5,4.45,10.5,4.45Z" style="fill: none; stroke: #fff; stroke-linecap: round; stroke-linejoin: round; stroke-width: 1.5px;"/>
  </g>
  <g>
    <circle cx="45.8" cy="31.12" r="4.45" style="fill: none; stroke: #fff; stroke-linecap: round; stroke-linejoin: round; stroke-width: 1.5px;"/>
    <path d="m56.3,31.12s-4.7,4.45-10.5,4.45-10.5-4.45-10.5-4.45c0,0,4.7-4.45,10.5-4.45s10.5,4.45,10.5,4.45Z" style="fill: none; stroke: #fff; stroke-linecap: round; stroke-linejoin: round; stroke-width: 1.5px;"/>
  </g>
  <g>
    <circle cx="81.43" cy="31.12" r="4.45" style="fill: none; stroke: #fff; stroke-linecap: round; stroke-linejoin: round; stroke-width: 1.5px;"/>
    <path d="m91.93,31.12s-4.7,4.45-10.5,4.45-10.5-4.45-10.5-4.45c0,0,4.7-4.45,10.5-4.45s10.5,4.45,10.5,4.45Z" style="fill: none; stroke: #fff; stroke-linecap: round; stroke-linejoin: round; stroke-width: 1.5px;"/>
  </g>
</svg>