<?xml version="1.0" encoding="UTF-8"?>
<svg id="Layer_1" data-name="Layer 1" xmlns="http://www.w3.org/2000/svg" viewBox="0 0 120 120" width="100%" height="100%">
  <g>
    <circle cx="60" cy="60" r="55.41" style="fill: #fff; stroke: #005178; stroke-miterlimit: 10; stroke-width: 6px;"/>
    <circle cx="60" cy="60" r="48.69" style="fill: #5a97cb; stroke-width: 0px;"/>
    <circle cx="60" cy="60" r="55.41" style="fill: #fff; stroke: #005178; stroke-miterlimit: 10; stroke-width: 6px;"/>
    <circle cx="60" cy="60" r="48.69" style="fill: #5a97cb; stroke-width: 0px;"/>
  </g>
  <g>
    <g>
      <path d="m61.16,27.89c3.82,0,6.88,3.55,6.02,7.5-.5,2.32-2.37,4.19-4.69,4.69-3.96.85-7.5-2.2-7.5-6.02,0-3.39,2.78-6.17,6.17-6.17m0-2.03c-5.05,0-9.07,4.62-8.04,9.85.63,3.19,3.2,5.76,6.39,6.39,5.23,1.03,9.85-2.98,9.85-8.04.08-4.51-3.69-8.2-8.2-8.2h0Z" style="fill: #fff; stroke: #fff; stroke-miterlimit: 10; stroke-width: .5px;"/>
      <path d="m48.37,53.15v-2.14c0-2.36,1.93-4.29,4.29-4.29h17c2.36,0,4.29,1.93,4.29,4.29v2.14c0,.56.45,1.02,1.02,1.02h.08c.56,0,1.02-.45,1.02-1.02v-2.14c-.08-3.46-2.93-6.32-6.39-6.32h-17c-3.48,0-6.32,2.84-6.32,6.32v2.14c0,.56.45,1.02,1.02,1.02h0c.56,0,1.02-.45,1.02-1.02Z" style="fill: #fff; stroke: #fff; stroke-miterlimit: 10; stroke-width: .5px;"/>
    </g>
    <g>
      <path d="m41.8,58.91c3.82,0,6.88,3.55,6.02,7.5-.5,2.32-2.37,4.19-4.69,4.69-3.96.85-7.5-2.2-7.5-6.02,0-3.39,2.78-6.17,6.17-6.17m0-2.03c-5.05,0-9.07,4.62-8.04,9.85.63,3.19,3.2,5.76,6.39,6.39,5.23,1.03,9.85-2.98,9.85-8.04.08-4.51-3.69-8.2-8.2-8.2h0Z" style="fill: #fff; stroke: #fff; stroke-miterlimit: 10; stroke-width: .5px;"/>
      <path d="m29.01,84.16v-2.14c0-2.36,1.93-4.29,4.29-4.29h17c2.36,0,4.29,1.93,4.29,4.29v2.14c0,.56.45,1.02,1.02,1.02h.08c.56,0,1.02-.45,1.02-1.02v-2.14c-.08-3.46-2.93-6.32-6.39-6.32h-17c-3.48,0-6.32,2.84-6.32,6.32v2.14c0,.56.45,1.02,1.02,1.02h0c.56,0,1.02-.45,1.02-1.02Z" style="fill: #fff; stroke: #fff; stroke-miterlimit: 10; stroke-width: .5px;"/>
    </g>
    <g>
      <path d="m80.52,58.91c3.82,0,6.88,3.55,6.02,7.5-.5,2.32-2.37,4.19-4.69,4.69-3.96.85-7.5-2.2-7.5-6.02,0-3.39,2.78-6.17,6.17-6.17m0-2.03c-5.05,0-9.07,4.62-8.04,9.85.63,3.19,3.2,5.76,6.39,6.39,5.23,1.03,9.85-2.98,9.85-8.04.08-4.51-3.69-8.2-8.2-8.2h0Z" style="fill: #fff; stroke: #fff; stroke-miterlimit: 10; stroke-width: .5px;"/>
      <path d="m67.73,84.16v-2.14c0-2.36,1.93-4.29,4.29-4.29h17c2.36,0,4.29,1.93,4.29,4.29v2.14c0,.56.45,1.02,1.02,1.02h.08c.56,0,1.02-.45,1.02-1.02v-2.14c-.08-3.46-2.93-6.32-6.39-6.32h-17c-3.48,0-6.32,2.84-6.32,6.32v2.14c0,.56.45,1.02,1.02,1.02h0c.56,0,1.02-.45,1.02-1.02Z" style="fill: #fff; stroke: #fff; stroke-miterlimit: 10; stroke-width: .5px;"/>
    </g>
  </g>
  <g>
    <path d="m76.82,24.47c13.29,6.3,22.48,19.84,22.48,35.53,0,2.32-.2,4.6-.59,6.81" style="fill: none; stroke: #fff; stroke-linecap: round; stroke-miterlimit: 10; stroke-width: 2px;"/>
    <polygon points="95.03 64.74 97.31 72.38 102.79 66.58 95.03 64.74" style="fill: #fff; stroke-width: 0px;"/>
  </g>
  <g>
    <path d="m23.48,74.56c-1.8-4.5-2.78-9.41-2.78-14.56,0-15.61,9.1-29.09,22.28-35.44" style="fill: none; stroke: #fff; stroke-linecap: round; stroke-miterlimit: 10; stroke-width: 2px;"/>
    <polygon points="43.65 28.66 48.15 22.07 40.2 21.48 43.65 28.66" style="fill: #fff; stroke-width: 0px;"/>
  </g>
  <g>
    <path d="m84.76,90.53c-6.76,5.49-15.37,8.78-24.76,8.78-7.21,0-13.97-1.94-19.78-5.33" style="fill: none; stroke: #fff; stroke-linecap: round; stroke-miterlimit: 10; stroke-width: 2px;"/>
    <polygon points="43.45 91.25 35.49 90.73 39.02 97.88 43.45 91.25" style="fill: #fff; stroke-width: 0px;"/>
  </g>
</svg>