<?xml version="1.0" encoding="UTF-8"?>
<svg id="Layer_1" data-name="Layer 1" xmlns="http://www.w3.org/2000/svg" viewBox="0 0 120 120" width="100%" height="100%">
  <g>
    <circle cx="60" cy="60" r="55.41" style="fill: #fff; stroke: #005178; stroke-miterlimit: 10; stroke-width: 6px;"/>
    <circle cx="60" cy="60" r="48.69" style="fill: #5a97cb; stroke-width: 0px;"/>
    <circle cx="60" cy="60" r="55.41" style="fill: #fff; stroke: #005178; stroke-miterlimit: 10; stroke-width: 6px;"/>
    <circle cx="59.7" cy="60.8" r="48.69" style="fill: #5a97cb; stroke-width: 0px;"/>
  </g>
  <g>
    <path d="m48.33,42.04c-.59-.54-.8-.64-1.57-.64-2.24.02-4.48.02-6.72,0-1.23,0-1.53.29-1.52,1.52.01,6.58.02,33.91,0,36.12-.01,1.37.26,1.64,1.63,1.63,5.13-.02,38.61-.02,41.11,0,1.51.01,1.74-.23,1.74-1.74-.01-11.93-.01-23.86,0-35.79,0-1.51-.23-1.76-1.74-1.74-2.24.02-4.48.02-6.72,0-.77,0-1.48.12-2.06.66" style="fill: none; stroke: #fff; stroke-linecap: round; stroke-linejoin: round; stroke-width: 2px;"/>
    <path d="m57.14,52.16c.07,8.06.03,18.18.03,26.25v1.84" style="fill: none; stroke: #fff; stroke-linecap: round; stroke-linejoin: round; stroke-width: 2px;"/>
    <path d="m56.85,52.37c-2.31.59-4.57,1.38-6.93,1.78-.61.1-.93-.08-1.07-.48-1.06-3.1-2.04-6.21-1.01-9.54.24-.77.7-2.28.7-2.28" style="fill: none; stroke: #fff; stroke-linecap: round; stroke-linejoin: round; stroke-width: 2px;"/>
    <path d="m64.55,52.48c-.24.44-.33.9-.33,1.41,0,8.53,0,17.07.01,25.6,0,.25.07.51.1.76" style="fill: none; stroke: #fff; stroke-linecap: round; stroke-linejoin: round; stroke-width: 2px;"/>
    <path d="m38.95,71.13c1.65,0,6.47,0,8.45.01.48,0,.87-.39.87-.88v-5.29c0-.49-.4-.88-.88-.88l-8.44.09" style="fill: none; stroke: #fff; stroke-linecap: round; stroke-linejoin: round; stroke-width: 2px;"/>
    <path d="m72.34,41.41s.73,1.69.99,2.29c.72,1.67.89,3.37.6,5.21-.24,1.53-.65,2.98-1.12,4.44-.27.82-.67,1.17-1.53.87-2.36-.84-4.94-.99-7.17-2.26-.22-.12-.57-.05-.86-.01-1.66.22-3.32.32-4.99.01-.3-.06-.67-.15-.97.09" style="fill: none; stroke: #fff; stroke-linecap: round; stroke-linejoin: round; stroke-width: 2px;"/>
    <path d="m76.15,61.05c-1.66.04-3.33.07-4.99.11" style="fill: none; stroke: #fff; stroke-linecap: round; stroke-linejoin: round; stroke-width: 2px;"/>
  </g>
  <ellipse cx="60.31" cy="43.31" rx="12" ry="7.81" style="fill: none; stroke: #fff; stroke-linecap: round; stroke-linejoin: round; stroke-width: 2px;"/>
</svg>