<?xml version="1.0" encoding="UTF-8"?>
<svg id="Layer_1" data-name="Layer 1" xmlns="http://www.w3.org/2000/svg" viewBox="0 0 120 120" width="100%" height="100%">
  <g>
    <circle cx="60" cy="60" r="55.41" style="fill: #fff; stroke: #005178; stroke-miterlimit: 10; stroke-width: 6px;"/>
    <circle cx="60" cy="60" r="48.69" style="fill: #5a97cb; stroke-width: 0px;"/>
  </g>
  <g>
    <path d="m54.32,32.97c3.14,0,5.72,2.58,5.72,5.72s-2.58,5.72-5.72,5.72-5.72-2.58-5.72-5.72,2.58-5.72,5.72-5.72m0-1.88c-4.19,0-7.61,3.42-7.61,7.61s3.42,7.61,7.61,7.61,7.61-3.42,7.61-7.61c.07-4.19-3.42-7.61-7.61-7.61h0Z" style="fill: #fff; stroke: #fff; stroke-miterlimit: 10; stroke-width: .75px;"/>
    <path d="m62.21,51.42c2.16,0,3.98,1.81,3.98,3.98v14.38c0,1.81-1.26,3.42-3,3.91-.84.21-1.4.98-1.4,1.81v15.84c0,1.4-1.12,2.51-2.51,2.51h-9.91c-1.4,0-2.51-1.12-2.51-2.51v-15.84c0-.84-.56-1.61-1.4-1.81-1.74-.42-3-2.02-3-3.91v-14.38c0-2.16,1.81-3.98,3.98-3.98h15.77m0-1.88h-15.77c-3.21,0-5.86,2.65-5.86,5.86v14.38c0,2.72,1.88,5.02,4.47,5.72v15.84c0,2.44,1.95,4.4,4.4,4.4h9.84c2.44,0,4.4-1.95,4.4-4.4v-15.84c2.58-.63,4.47-2.93,4.47-5.72v-14.38c-.07-3.21-2.72-5.86-5.93-5.86h0Z" style="fill: #fff; stroke: #fff; stroke-miterlimit: 10; stroke-width: .75px;"/>
  </g>
  <polyline points="64.86 44 76.53 52.72 78.92 46.59 87.21 46.57 83.36 35.66 87.21 26.51 78.92 27.23 76.53 20.75 62.8 30.59" style="fill: none; stroke: #fff; stroke-linecap: round; stroke-linejoin: round; stroke-width: 2px;"/>
  <circle cx="74.03" cy="41.46" r="1.61" style="fill: #fff; stroke-width: 0px;"/>
  <path d="m75.07,30.55h-2.07c-.38,0-.68.32-.67.7l.33,6.69c.02.35.31.63.67.63h1.4c.36,0,.65-.28.67-.63l.33-6.69c.02-.38-.28-.7-.67-.7Z" style="fill: #fff; stroke-width: 0px;"/>
</svg>