<?xml version="1.0" encoding="UTF-8"?>
<svg id="Layer_1" data-name="Layer 1" xmlns="http://www.w3.org/2000/svg" viewBox="0 0 120 120" width="100%" height="100%">
  <circle cx="60" cy="60" r="55.41" style="fill: #fff; stroke: #005178; stroke-miterlimit: 10; stroke-width: 6px;"/>
  <circle cx="60" cy="60" r="48.69" style="fill: #5a97cb; stroke-width: 0px;"/>
  <path d="m40.59,79.88c0,.12-.12.35,0,.47.12.23.35.35.58.35h.23c.82-.35,1.52-.7,2.22-1.05.58-.35,1.17-.58,1.63-.82.58-.23,1.17-.47,1.75-.58,1.52-.58,3.15-1.05,4.43-2.45,1.87-1.98,2.68-4.43,3.38-6.88h0c.12-.35.23-.82.47-1.28.35-1.05.82-2.22.82-3.5,0-.35-.23-.58-.58-.58s-.58.23-.58.58c0,1.05-.35,2.1-.82,3.15-.12.47-.35.82-.47,1.28-.82,2.68-1.63,4.9-3.15,6.53-1.05,1.17-2.33,1.63-3.96,2.1-.58.23-1.17.35-1.75.58s-1.17.58-1.75.82c-.7.35-1.4.7-2.1.93-.23.12-.23.23-.35.35Z" style="fill: #fff; stroke-width: 0px;"/>
  <path d="m35.92,76.61v.23c0,1.17.12,2.1.47,2.91.12.23.35.35.58.35h.23c.35-.12.47-.47.23-.82-.23-.35-.35-1.17-.35-2.45v-.23c0-3.15,1.28-5.6,2.68-8.28.47-1.05,1.05-1.98,1.52-3.15s.93-2.33,1.28-3.5c.7-2.22,1.4-4.43,2.91-6.06.82-.93,1.87-1.52,2.91-2.33.35-.23.82-.58,1.17-.82l.7-.93c.7-1.05,1.75-1.63,2.8-1.75h.35c.93,0,1.4.35,1.52,1.63v4.2c0,.35.23.58.58.58s.58-.23.58-.58h0v-4.08c0-.93-.23-1.63-.82-2.1-.47-.47-1.17-.7-1.87-.7h-.58c-1.4.23-2.68,1.05-3.5,2.33l-.47.7c-.35.23-.7.47-1.05.82-1.05.7-2.1,1.52-3.03,2.45-1.87,1.87-2.56,4.31-3.26,6.53-.35,1.17-.7,2.22-1.17,3.38-.47,1.05-.93,2.1-1.52,3.03-1.52,2.56-2.91,5.13-2.91,8.63h0Z" style="fill: #fff; stroke-width: 0px;"/>
  <path d="m38.84,81.16c.35,0,.58-.23.58-.47,0-.12,0-.35-.12-.47-.12-.12-.23-.23-.35-.23-.35,0-.58.23-.7.47,0,.12,0,.35.12.47.12.12.23.23.47.23h0Z" style="fill: #fff; stroke-width: 0px;"/>
  <path d="m56.79,61.11c0-.12-.12-.35-.23-.47-.23-.23-.58-.23-.82,0l-5.83,5.83c-.23.23-.23.58,0,.82.12.12.23.12.47.12s.35-.12.35-.12l5.83-5.83c.12-.12.23-.23.23-.35Z" style="fill: #fff; stroke-width: 0px;"/>
  <path d="m57.84,59.94c.12,0,.35,0,.47-.23.12-.12.12-.23.12-.35s0-.35-.12-.47c-.23-.23-.58-.23-.82,0s-.23.58,0,.82c0,.23.23.23.35.23Z" style="fill: #fff; stroke-width: 0px;"/>
  <path d="m59.83,57.73c-.12,0-.35,0-.35.23-.12.12-.12.23-.12.35,0,.35.23.58.58.58h0c.47,0,.93.23,1.28.47l7.69,7.69c.12.12.23.12.47.12.12,0,.35,0,.47-.12.12-.12.12-.23.12-.47,0-.12-.12-.35-.12-.35l-7.69-7.69c-.82-.47-1.52-.82-2.33-.82h0Z" style="fill: #fff; stroke-width: 0px;"/>
  <path d="m58.89,39.42c0-.35-.23-.58-.58-.58s-.58.23-.58.58v8.16c0,.35.23.58.58.58s.58-.23.58-.58v-8.16Z" style="fill: #fff; stroke-width: 0px;"/>
  <path d="m58.31,49.33c-.35,0-.58.23-.58.58s.23.58.58.58.58-.23.58-.58-.35-.58-.58-.58Z" style="fill: #fff; stroke-width: 0px;"/>
  <path d="m58.89,52.25c0-.35-.23-.58-.58-.58s-.58.23-.58.58h0v1.52c0,.47-.23.93-.47,1.28l-6.76,6.65c-.12.12-.23.23-.23.35s0,.35.23.47c.12.12.23.12.35.12s.35,0,.47-.12l6.76-6.76c.58-.58.82-1.28.82-2.1,0,0,0-1.4,0-1.4Z" style="fill: #fff; stroke-width: 0px;"/>
  <path d="m62.27,55.98c.12,0,.35,0,.35-.12.12-.12.23-.23.23-.47,0-.12-.12-.35-.23-.35-.23-.23-.58-.23-.82,0-.12.12-.12.23-.12.35s0,.35.12.47c.12.12.23.12.47.12Z" style="fill: #fff; stroke-width: 0px;"/>
  <path d="m60.87,40.47v12.82c0,.35.23.58.58.58s.58-.23.58-.58v-12.82c0-.35-.23-.58-.58-.58-.35,0-.58.35-.58.58Z" style="fill: #fff; stroke-width: 0px;"/>
  <path d="m63.44,56.68c-.23.23-.23.58,0,.82l5.83,5.83c.12.12.23.12.35.12s.35,0,.47-.12c.23-.23.23-.58,0-.82l-5.83-5.83c-.23-.23-.58-.23-.82,0Z" style="fill: #fff; stroke-width: 0px;"/>
  <path d="m42.92,69.04c-.12.12-.23.23-.23.35s0,.35.12.47.23.23.47.23c.12,0,.23,0,.35-.12.23-.12.35-.35.47-.47,1.52-1.52,2.22-3.61,2.22-6.06,0-1.75-.35-3.26-.58-3.73-.12-.35-.47-.47-.7-.35-.12,0-.23.12-.35.23s-.12.35,0,.47.47,1.63.47,3.38c0,2.22-.58,3.96-1.87,5.25,0,0-.12.12-.35.35Z" style="fill: #fff; stroke-width: 0px;"/>
  <path d="m41.17,70.08c-.12,0-.23.12-.35.35s0,.35,0,.47c.12.12.23.35.47.35h.23c.12-.12.23-.12.35-.35v-.47c-.12-.35-.47-.47-.7-.35Z" style="fill: #fff; stroke-width: 0px;"/>
  <path d="m45.72,71.95c-.23.12-.35.47-.23.82.12.23.35.35.47.35s.23,0,.23-.12c.12-.12.23-.23.35-.35v-.47c-.23-.23-.58-.35-.82-.23Z" style="fill: #fff; stroke-width: 0px;"/>
  <path d="m50.38,70.67h0c-.35,0-1.28.12-2.45.47-.12,0-.23.12-.35.23-.12.12-.12.35,0,.47.12.23.35.47.58.47h.12c.7-.23,1.52-.35,2.1-.35h0c.35,0,.58-.35.58-.58,0-.47-.23-.7-.58-.7Z" style="fill: #fff; stroke-width: 0px;"/>
  <path d="m41.87,76.15c0,.12.12.23.35.35.12,0,.23.12.23.12.23,0,.47-.12.47-.35.35-.7.93-1.4,1.52-1.98.12-.12.23-.23.23-.47,0-.12,0-.35-.12-.47-.23-.23-.58-.23-.82,0-.7.7-1.28,1.52-1.75,2.33-.12.12-.23.35-.12.47Z" style="fill: #fff; stroke-width: 0px;"/>
  <path d="m51.31,55.51c.23,0,.58,0,.82.12.12,0,.23.12.35.12h0c.23.12.58,0,.82-.35.12-.35,0-.58-.35-.82-.23-.12-.82-.35-1.75-.35-1.4,0-3.15.82-3.73,3.38v.47c.12.12.23.23.35.23h.12c.23,0,.47-.23.58-.47.7-1.98,1.75-2.33,2.8-2.33h0Z" style="fill: #fff; stroke-width: 0px;"/>
  <path d="m79.64,64.72c-.47-1.05-.82-2.22-1.17-3.38-.7-2.33-1.4-4.66-3.26-6.53-.93-.93-1.98-1.75-3.03-2.45-.35-.23-.7-.47-1.05-.82l-.47-.7c-.93-1.28-2.22-2.1-3.5-2.33h-.58c-.7,0-1.4.23-1.87.7-.47.47-.82,1.17-.82,2.1v4.2c0,.35.23.58.58.58s.58-.23.58-.58h0v-4.08c0-1.28.58-1.52,1.52-1.63h.35c1.05.12,2.1.82,2.8,1.75l.58.82.12.12c.35.35.82.58,1.17.82,1.05.7,1.98,1.4,2.91,2.33,1.63,1.63,2.22,3.73,2.91,6.06.35,1.17.7,2.33,1.28,3.5.47,1.05,1.05,2.1,1.52,3.03,1.4,2.68,2.68,5.13,2.68,8.28v.23c0,1.28-.12,1.98-.35,2.45-.12.35,0,.58.23.82h.23c.23,0,.47-.12.58-.35.35-.82.35-1.63.47-2.91h0v-.23c0-3.5-1.4-6.06-2.8-8.86-.58-.82-1.17-1.87-1.63-2.91Z" style="fill: #fff; stroke-width: 0px;"/>
  <path d="m81.16,81.16c.12,0,.35-.12.35-.23.12-.12.12-.23.12-.47,0-.35-.35-.58-.7-.47-.12,0-.35.12-.35.23-.12.12-.12.23-.12.47,0,.23.23.47.7.47q-.12,0,0,0Z" style="fill: #fff; stroke-width: 0px;"/>
  <path d="m66.24,68.57c-.12-.47-.35-.93-.47-1.28-.35-1.05-.82-2.1-.82-3.15,0-.47-.7-.7-1.05-.35-.12.12-.12.23-.12.35,0,1.4.47,2.45.82,3.5.12.47.35.82.47,1.28h0c.82,2.45,1.63,5.01,3.38,6.88,1.28,1.4,2.91,1.87,4.43,2.45.58.23,1.17.35,1.75.58s1.05.47,1.63.82c.7.35,1.4.7,2.22,1.05h.23c.23,0,.47-.12.58-.35.12-.35,0-.7-.35-.82-.7-.23-1.4-.58-2.1-.93-.58-.35-1.17-.58-1.75-.82s-1.17-.47-1.75-.58c-1.52-.58-2.91-.93-3.96-2.1-1.52-1.63-2.33-3.85-3.15-6.53Z" style="fill: #fff; stroke-width: 0px;"/>
  <path d="m78.36,71.13h.23c.23,0,.47-.12.58-.35v-.47l-.35-.35c-.35-.12-.58,0-.82.35v.47c0,.23.12.35.35.35Z" style="fill: #fff; stroke-width: 0px;"/>
  <path d="m74.75,59.13c-.35-.12-.58.12-.7.35h0c-.12.23-.58,1.87-.58,3.73,0,2.56.7,4.55,2.22,6.06.23.23.35.35.58.47.12.12.23.12.35.12s.35-.12.47-.23c.23-.23.23-.58-.12-.82-.12-.12-.35-.23-.47-.47-1.28-1.28-1.87-3.03-1.87-5.25,0-1.87.47-3.38.47-3.38.12-.12-.12-.47-.35-.58Z" style="fill: #fff; stroke-width: 0px;"/>
  <path d="m73.35,72.65c0,.12.12.23.35.35.12,0,.12.12.23.12.23,0,.47-.12.47-.35.12-.23,0-.58-.23-.82-.23-.12-.58,0-.82.23v.47Z" style="fill: #fff; stroke-width: 0px;"/>
  <path d="m75.45,73.47c-.12.12-.12.23-.12.47,0,.12.12.35.23.35.58.58,1.17,1.28,1.52,1.98.12.23.35.35.47.35h.23l.35-.35c.12-.12,0-.35,0-.47-.47-.93-1.05-1.63-1.75-2.33-.35-.23-.82-.23-.93,0Z" style="fill: #fff; stroke-width: 0px;"/>
  <path d="m69.5,71.83c.12,0,1.05.12,2.1.47h.12c.23,0,.47-.12.58-.47.12-.35-.12-.58-.47-.7-1.17-.35-2.1-.47-2.45-.47s-.58.23-.58.58c.12.23.35.58.7.58h0Z" style="fill: #fff; stroke-width: 0px;"/>
  <path d="m68.69,54.35h0c-1.05,0-1.75.35-1.87.35-.12.12-.23.12-.35.35v.47c.12.35.47.47.82.35h0c.12,0,.58-.23,1.28-.23,1.05,0,2.1.35,2.68,2.56.12.23.35.47.58.47h.12c.12,0,.23-.12.35-.23s.12-.35,0-.47c-.58-2.68-2.22-3.61-3.61-3.61Z" style="fill: #fff; stroke-width: 0px;"/>
</svg>