<svg id="Layer_1" data-name="Layer 1" xmlns="http://www.w3.org/2000/svg" width="100%" height="100%" viewBox="0 0 116.8146906725 116.8146906726">
  <g>
    <circle cx="58.4073453363" cy="58.4073453363" r="55.4073453363" fill="#fff" stroke="#005279" stroke-miterlimit="10" stroke-width="6px"/>
    <circle cx="58.4073453363" cy="58.4073453363" r="48.6947538512" fill="#5b97ca"/>
  </g>
  <g opacity="0.15">
    <path fill="#fff" stroke-width="0px" d="M76.30279298,83.3237843935c0-.8944454787.1252900619-1.8103390328-.0234816505-2.6793170545-.4468849475-2.610277863.6745156988-3.3472714029,3.1567806931-3.1737624098,3.7733940948.2637505932,7.3500500368-.2559165523,8.9029200398-4.447415048.4065034693-1.09722294.4932579658-2.3755910157.4570221146-3.5625266897-.1135935931-3.7207088049-.6986149283-7.4517390269,4.4730394588-8.6226108226,1.3999663117-.316954513,2.7293716626-1.9975644216.9560805462-3.9311872375-.9345847022-1.0190736051-1.6261298863-2.3038563136-2.2489839068-3.5573301547-1.4309953918-2.879828922-3.2407748503-5.5235959451-3.6575212598-8.9269851489-1.8343597854-14.9803956427-20.0713211936-22.3123576092-33.928471983-15.2102826045-13.9488698023,7.1490852212-17.1148096868,24.488550788-7.2016161163,35.8144550612,4.5077450106,5.1501380709,6.810615245,11.2685990829,5.8586496175,18.2969621091"/>
  </g>
  <g opacity="0.5">
    <path fill="#fff" stroke-width="0px" d="M68.4009443875,83.3237843935c0-.8944454787.1252900619-1.8103390328-.0234816505-2.6793170545-.4468849475-2.610277863.6745156988-3.3472714029,3.1567806931-3.1737624098,3.7733940948.2637505932,7.3500500368-.2559165523,8.9029200398-4.447415048.4065034692-1.09722294.4932579658-2.3755910157.4570221146-3.5625266897-.1135935931-3.7207088049-.6986149283-7.4517390269,4.4730394588-8.6226108226,1.3999663117-.316954513,2.7293716626-1.9975644216.9560805462-3.9311872375-.9345847022-1.0190736051-1.6261298863-2.3038563136-2.2489839068-3.5573301547-1.4309953918-2.879828922-3.2407748503-5.5235959451-3.6575212598-8.9269851489-1.8343597854-14.9803956427-20.0713211936-22.3123576092-33.928471983-15.2102826045-13.9488698023,7.1490852212-17.1148096868,24.488550788-7.2016161163,35.8144550612,4.5077450106,5.1501380709,6.810615245,11.2685990829,5.8586496175,18.2969621091"/>
  </g>
  <path fill="#fff" stroke-width="0px" d="M57.7525153505,83.3237843935c0-.8944454787.1252900619-1.8103390328-.0234816505-2.6793170545-.4468849475-2.610277863.6745156988-3.3472714029,3.1567806931-3.1737624098,3.7733940948.2637505932,7.3500500368-.2559165523,8.9029200397-4.447415048.4065034693-1.09722294.4932579658-2.3755910157.4570221146-3.5625266897-.1135935931-3.7207088049-.6986149283-7.4517390269,4.4730394588-8.6226108226,1.3999663117-.316954513,2.7293716626-1.9975644216.9560805462-3.9311872375-.9345847022-1.0190736051-1.6261298863-2.3038563136-2.2489839068-3.5573301547-1.4309953918-2.879828922-3.2407748503-5.5235959451-3.6575212598-8.9269851489-1.8343597854-14.9803956427-20.0713211936-22.3123576092-33.928471983-15.2102826045-13.9488698023,7.1490852212-17.1148096868,24.488550788-7.2016161163,35.8144550612,4.5077450106,5.1501380709,6.810615245,11.2685990829,5.8586496175,18.2969621091"/>
</svg>