<svg id="Layer_1" data-name="Layer 1" xmlns="http://www.w3.org/2000/svg" width="100%" height="100%" viewBox="0 0 116.8146906725 116.8146906726">
  <g>
    <circle cx="58.4073453363" cy="58.4073453363" r="55.4073453363" fill="#fff" stroke="#005279" stroke-width="6px" stroke-miterlimit="10"/>
    <circle cx="58.4073453363" cy="58.4073453363" r="48.6947538512" fill="#5b97ca" stroke-width="0px"/>
  </g>
  <path d="M68.0445586729,88.1263001762c0-.9965604283.1395938832-2.0170175655-.0261624484-2.985203028-.4979038581-2.9082819323.7515222221-3.7294148188,3.5171766133-3.5360970587,4.2041860849.2938618512,8.1891732779-.2851334319,9.9193276943-4.9551570784.4529122021-1.2224881103.5495710822-2.6468019085.5091983414-3.9692448654-.1265620795-4.1454859446-.7783727558-8.3024716576,4.9837069167-9.6070167932,1.5597943758-.353139831,3.0409721529-2.2256176625,1.0652321033-4.3799937844-1.0412821724-1.1354168057-1.811778062-2.5668775675-2.5057406167-3.9634550647-1.5943659111-3.2086064633-3.6107600181-6.1542008674-4.0750845524-9.9461402123-2.043780663-16.6906422507-22.3627766271-24.8596624221-37.8019380456-16.9467744071-15.5413515921,7.9652651834-19.0687330619,27.28430211-8.0237933024,39.9032356082,5.0223746505,5.7381069321,7.5881535624,12.5550860235,6.5275061601,20.3858466841" fill="none" stroke="#fff" stroke-width="2px" stroke-miterlimit="10"/>
  <g>
    <g>
      <rect x="55.6318423783" y="37.9344477746" width="1.6998611607" height="4.7596114942" rx=".4984023904" ry=".4984023904" fill="#fff" stroke-width="0px"/>
      <circle cx="56.481772933" cy="44.3939205105" r=".8499306247" fill="#fff" stroke-width="0px"/>
    </g>
    <polygon points="56.481772933 30.3731022719 59.0417625096 36.8575772336 65.7076565758 34.8160536704 62.2340172974 40.8605381252 67.9862616619 44.7992748431 61.0947147544 45.8521487115 61.6017520863 52.8051966263 56.481772933 48.0736244108 51.3617937797 52.8051966263 51.8688311116 45.8521487115 44.9772842041 44.7992748431 50.7295285685 40.8605381252 47.2558892901 34.8160536704 53.9217833563 36.8575772336 56.481772933 30.3731022719" fill="none" stroke="#fff" stroke-width=".5554959774px" stroke-miterlimit="10"/>
  </g>
</svg>