<svg id="Layer_1" data-name="Layer 1" xmlns="http://www.w3.org/2000/svg" width="100%" height="100%" viewBox="0 0 116.8146906725 116.8146906726">
  <g>
    <circle cx="58.4073453363" cy="58.4073453363" r="55.4073453363" fill="#fff" stroke="#005279" stroke-width="6px" stroke-miterlimit="10"/>
    <circle cx="58.4073453363" cy="58.4073453363" r="48.6947538512" fill="#5b97ca" stroke-width="0"/>
    <circle cx="41.7428334988" cy="41.4963404271" r="13.6647074926" fill="none" stroke="#fff" stroke-width="2px" stroke-linecap="round" stroke-linejoin="round"/>
    <g>
      <line x1="41.7427918518" y1="74.166519482" x2="41.7427918518" y2="55.979019482" fill="none" stroke="#fff" stroke-width="2px" stroke-linecap="round" stroke-linejoin="round"/>
      <polygon points="49.8406922424 67.6058505367 48.3904969299 66.255203564 41.7447449768 73.4066317867 35.0970398987 66.255203564 33.6468445862 67.6058505367 41.7447449768 76.3138583492 49.8406922424 67.6058505367" fill="#fff" stroke-width="0"/>
    </g>
    <g>
      <line x1="73.0264792183" y1="91.6323446782" x2="73.0264792183" y2="75.3213029881" fill="none" stroke="#fff" stroke-width="2px" stroke-linecap="round" stroke-linejoin="round"/>
      <line x1="67.1411583358" y1="88.1116590395" x2="78.9118001008" y2="88.1116590395" fill="none" stroke="#fff" stroke-width="2px" stroke-linecap="round" stroke-linejoin="round"/>
    </g>
    <circle cx="58.4073453363" cy="58.4073453363" r="55.4073453363" fill="#fff" stroke="#005279" stroke-width="6px" stroke-miterlimit="10"/>
    <circle cx="58.4073453363" cy="58.4073453363" r="48.6947538512" fill="#5b97ca" stroke-width="0"/>
  </g>
  <path d="M68.1004013535,86.5685580562c0-.9965604283.1395938832-2.0170175655-.0261624484-2.985203028-.4979038581-2.9082819323.7515222221-3.7294148188,3.5171766133-3.5360970587,4.2041860849.2938618512,8.1891732779-.2851334319,9.9193276943-4.9551570784.4529122021-1.2224881103.5495710822-2.6468019085.5091983414-3.9692448654-.1265620795-4.1454859446-.7783727558-8.3024716576,4.9837069167-9.6070167932,1.5597943758-.353139831,3.0409721529-2.2256176625,1.0652321033-4.3799937844-1.0412821724-1.1354168057-1.811778062-2.5668775675-2.5057406167-3.9634550647-1.5943659111-3.2086064633-3.6107600181-6.1542008674-4.0750845524-9.9461402123-2.043780663-16.6906422507-22.3627766271-24.8596624221-37.8019380456-16.9467744071-15.5413515921,7.9652651834-19.0687330619,27.28430211-8.0237933024,39.9032356082,5.0223746505,5.7381069321,7.5881535624,12.5550860235,6.5275061601,20.3858466841" fill="none" stroke="#fff" stroke-width="2px" stroke-miterlimit="10"/>
  <g>
    <path d="M56.2553935198,33.0110427188l-7.8739242234,13.6380368098c-.9445403177,1.63599182.2361350794,3.6809815951,2.1252157148,3.6809815951h15.7478484467c1.8890806354,0,3.0697560325-2.0449897751,2.1252157148-3.6809815951l-7.8739242234-13.6380368098c-.9445403177-1.63599182-3.3058911119-1.63599182-4.2504314296,0Z" fill="none" stroke="#fff" stroke-miterlimit="10"/>
    <g>
      <rect x="57.0988643374" y="36.5455519269" width="2.5634897968" height="7.1777714284" rx="1.2817436159" ry="1.2817436159" fill="#fff" stroke-width="0"/>
      <circle cx="58.3806092346" cy="46.2868131568" r="1.2817448994" fill="#fff" stroke-width="0"/>
    </g>
  </g>
</svg>