<svg id="Layer_1" data-name="Layer 1" xmlns="http://www.w3.org/2000/svg" width="100%" height="100%" viewBox="0 0 116.8146906726 116.8146906726">
  <defs>
    <style >
      .cls-1 {
        fill: #5b97ca;
        stroke-width: 0px;
      }

      .cls-2, .cls-3, .cls-4, .cls-5 {
        stroke-miterlimit: 10;
      }

      .cls-2, .cls-4, .cls-5 {
        fill: none;
        stroke: #fff;
      }

      .cls-3 {
        fill: #fff;
        stroke: #005279;
        stroke-width: 6px;
      }

      .cls-4 {
        stroke-width: .5px;
      }

      .cls-5 {
        stroke-linecap: round;
        stroke-width: 2px;
      }
    </style>
  </defs>
  <g>
    <circle class="cls-3" cx="58.4073453363" cy="58.4073453363" r="55.4073453363"/>
    <circle class="cls-1" cx="58.4073453363" cy="58.4073453363" r="48.6947538512"/>
  </g>
  <g>
    <path class="cls-5" d="M68.5077398517,90.136910924c0-.9775390625.1368408203-1.9785766602-.0257568359-2.9282836914-.4884033203-2.8529052734.7371826172-3.6583862305,3.4501953125-3.46875,4.1241455078.288269043,8.0330810547-.2796630859,9.7303466797-4.8607177734.4443359375-1.19921875.5390625-2.5963745117.4995117188-3.8936157227-.1242675781-4.0665283203-.7635498047-8.1442871094,4.888671875-9.4240112305,1.5301513672-.3463745117,2.9831542969-2.1832275391,1.044921875-4.2965087891-1.0213623047-1.1138305664-1.7772216797-2.5180053711-2.4580078125-3.8879394531-1.5639648438-3.1474609375-3.5418701172-6.0369873047-3.9973144531-9.756652832-1.5708007812-12.8280029297-14.1466064453-20.5216674805-26.8026123047-19.51953125"/>
    <path class="cls-5" d="M30.4332769611,54.9812102404c.3004150391,5.3538208008,2.3393554688,10.6852416992,6.2543945312,15.1582641601,4.9266357422,5.6287841797,7.4436035156,12.3159179688,6.4030761719,19.9974365234"/>
  </g>
  <g>
    <path class="cls-2" d="M49.2349149675,26.3050298605c-.1941662407-.4332920093-.4770463673-.8351826506-.8503811805-1.1754422491-1.3775090472-1.2555525618-3.4703533067-1.2270971645-4.8150549546.0136585907-.4953917294-.415582709-1.0697890326-.738266915-1.6966781746-.9474977778-.6904953244-2.0686069564-2.6391209348-3.5616114399-4.9399239336-3.5616114399-2.8777445493,0-5.2106184547,2.3328739054-5.2106184547,5.2106184547-2.8777445493,0-5.2106184547,2.3328739054-5.2106184547,5.2106184547s2.3328739054,5.2106184547,5.2106184547,5.2106184547c1.3262223781,0,2.5328651334-.4995093927,3.4526774835-1.3154093271.632312406,1.1609132579,1.8847516126,1.9253591385,3.2941307048,1.8600791093,1.4847691567-.0687616308,2.7141762299-1.0369146794,3.1889461654-2.3533283146.5975633443.6011788536,1.4346876574.959817291,2.3481393892.9175359183.9286502617-.0430178654,1.7409346867-.4911066813,2.2803820666-1.1633570744.3732678593.0870735159.7632072338.128618396,1.1649304905.1100052185,2.3486080663-.1087330948,4.1643302327-2.1008117708,4.055530184-4.4494198372-.0723101862-1.5631051918-.9813429622-2.8863146454-2.2720797859-3.5670681808Z"/>
    <ellipse class="cls-2" cx="44.8859259445" cy="38.1856938845" rx="2.1939446125" ry="1.6454584594"/>
    <ellipse class="cls-2" cx="48.7253290164" cy="41.7508538798" rx="1.6454584594" ry="1.3712153828"/>
  </g>
  <path class="cls-2" d="M32.672309315,42.2798451416c.0857627175-.2454279119.1347850453-.5080927069.1347850453-.7827758789,0-1.311689897-1.063310103-2.375-2.375-2.375-.7655917081,0-1.4447354403.3638194691-1.8790838068.9263111461-.3721479936-.3043864857-.8412863991-.4944929643-1.3595525568-.4944929643-1.0598310991,0-1.9371726296.764985518-2.1200838956,1.7720780806-.1528653232-.0281219482-.3098421964-.0448053533-.4708251953-.0448053533-1.4309248491,0-2.5909090909,1.1599842418-2.5909090909,2.5909090909s1.1599842418,2.5909090909,2.5909090909,2.5909090909c.2513316761,0,.4935968572-.0376101407.7233692516-.1043701172.4314491966.8310865922,1.298248291,1.3998246626,2.2993580211,1.3998246626.2169633345,0,.4265996759-.0295978893.6280129173-.0798589533.2864379883.5578266491.8608953303.9434953169,1.5310779918.9434953169.9539850408,0,1.7272727273-.7733403986,1.7272727273-1.7272727273,0-.1751889316-.0337885076-.3408633145-.0822837136-.5001858798.1655689586.0406674472.33604015.068367698.5141018954.068367698,1.192454945,0,2.1590909091-.9666623202,2.1590909091-2.1590909091,0-.9353512851-.5982832475-1.7241363525-1.4302395907-2.0240423029Z"/>
  <circle class="cls-4" cx="35.0116398148" cy="48.1220692627" r="1"/>
  <circle class="cls-4" cx="32.0116398148" cy="50.1220692627" r="1"/>
  <circle class="cls-4" cx="37.0116398148" cy="52.1220692627" r="1"/>
</svg>