<svg id="Layer_1" data-name="Layer 1" xmlns="http://www.w3.org/2000/svg" width="100%" height="100%" viewBox="0 0 116.8146906725 116.8146906726">
  <defs>
    <style>
      .cls-1 {
        fill: #5b97ca;
        stroke-width: 0px;
      }

      .cls-2, .cls-3 {
        fill: #fff;
      }

      .cls-2, .cls-3, .cls-4, .cls-5, .cls-6 {
        stroke-miterlimit: 10;
      }

      .cls-2, .cls-4, .cls-5, .cls-6 {
        stroke: #fff;
      }

      .cls-2, .cls-4, .cls-6 {
        stroke-linecap: round;
      }

      .cls-3 {
        stroke: #005279;
        stroke-width: 6px;
      }

      .cls-4, .cls-5, .cls-6 {
        fill: none;
      }

      .cls-4, .cls-6 {
        stroke-width: .6px;
      }

      .cls-5 {
        stroke-width: 2px;
      }

      .cls-6 {
        stroke-dasharray: 0 0 2.9260299206 2.9260299206;
      }
    </style>
  </defs>
  <g>
    <circle class="cls-3" cx="58.4073453363" cy="58.4073453363" r="55.4073453363"/>
    <circle class="cls-1" cx="58.4073453363" cy="58.4073453363" r="48.6947538512"/>
  </g>
  <path class="cls-5" d="M67.0157935985,86.5685580562c0-.9965604283.1395938832-2.0170175655-.0261624484-2.985203028-.4979038581-2.9082819323.7515222221-3.7294148188,3.5171766133-3.5360970587,4.2041860849.2938618512,8.189173278-.2851334319,9.9193276944-4.9551570784.4529122021-1.2224881103.5495710821-2.6468019085.5091983414-3.9692448654-.1265620795-4.1454859446-.7783727558-8.3024716576,4.9837069167-9.6070167932,1.5597943758-.353139831,3.0409721529-2.2256176625,1.0652321033-4.3799937844-1.0412821724-1.1354168057-1.811778062-2.5668775675-2.5057406167-3.9634550647-1.5943659111-3.2086064633-3.6107600181-6.1542008674-4.0750845524-9.9461402123-2.043780663-16.6906422507-22.3627766271-24.8596624221-37.8019380456-16.9467744071-15.5413515921,7.9652651834-19.0687330619,27.28430211-8.0237933024,39.9032356082,5.0223746505,5.7381069321,7.5881535624,12.5550860235,6.5275061601,20.3858466841"/>
  <g>
    <g>
      <path class="cls-4" d="M59.8245110327,39.670953447c.3719718596-.8179556542.490314669-1.7756816168.2442381183-2.7750597726-.3654052419-1.4840016886-1.5843591858-2.679063178-3.0754624295-3.0143140079-2.7261084719-.6129220975-5.1417816733,1.4435643761-5.1417816733,4.0642526001,0,.6154373028.134315355,1.1991734368.3734942876,1.7251211804l3.7997558485,8.8485248546,3.7997558485-8.8485248546Z"/>
      <circle class="cls-4" cx="56.0247551843" cy="38.09529014" r="1.7704649421"/>
    </g>
    <ellipse class="cls-4" cx="56.0247551843" cy="49.16175132" rx="5.5775410362" ry=".5521472393"/>
    <path class="cls-6" d="M46.2346125337,49.3800814937c0-1.0307617188,4.3831787109-1.866394043,9.7901611328-1.866394043s9.7901611328.8356323242,9.7901611328,1.866394043-4.3831787109,1.8663330078-9.7901611328,1.8663330078-9.7901611328-.8355712891-9.7901611328-1.8663330078Z"/>
    <g>
      <line class="cls-2" x1="49.5543522178" y1="31.6248871736" x2="62.4951581506" y2="44.5656931064"/>
      <line class="cls-2" x1="62.4951581506" y1="31.6248871736" x2="49.5543522178" y2="44.5656931064"/>
    </g>
  </g>
</svg>