<svg id="Layer_1" data-name="Layer 1" xmlns="http://www.w3.org/2000/svg" width="100%" height="100%" viewBox="0 0 116.8146906726 116.8146906726">
  <defs>
    <style>
      .cls-1 {
        fill: #8ac6ec;
      }

      .cls-1, .cls-2, .cls-3 {
        stroke-width: 0px;
      }

      .cls-2 {
        fill: #5b97ca;
      }

      .cls-4 {
        stroke-width: 1.0498497486px;
      }

      .cls-4, .cls-5, .cls-6, .cls-7, .cls-8 {
        stroke-miterlimit: 10;
      }

      .cls-4, .cls-5, .cls-6, .cls-8 {
        fill: none;
        stroke: #fff;
      }

      .cls-5 {
        stroke-width: .1725582018px;
      }

      .cls-7 {
        stroke: #005279;
        stroke-width: 6px;
      }

      .cls-7, .cls-3 {
        fill: #fff;
      }

      .cls-8 {
        stroke-width: .200000003px;
      }
    </style>
  </defs>
  <g>
    <circle class="cls-7" cx="58.4073453363" cy="58.4073453363" r="55.4073453363"/>
    <circle class="cls-2" cx="58.4073453363" cy="58.4073453363" r="48.6947538512"/>
  </g>
  <path class="cls-6" d="M76.0744162849,25.0776098689c-.3438218342-.7672562069-.8447346788-1.478908124-1.5058210745-2.0814262486-2.4392380747-2.2232823951-6.1451632103-2.1728947125-8.5263072509.0241860876-.8772199142-.7358972844-1.8943397471-1.3072936051-3.0044100346-1.6777912712-1.2227015779-3.6630066859-4.6732500822-6.3067594724-8.7474202581-6.3067594724-5.0957952605,0-9.2267553187,4.1309600582-9.2267553187,9.2267553187-5.0957952605,0-9.2267553187,4.1309600582-9.2267553187,9.2267553187s4.1309600582,9.2267553187,9.2267553187,9.2267553187c2.3484216868,0,4.4850965474-.8845113083,6.1138635674-2.3292743674,1.1196735869,2.0556988907,3.3374429767,3.4093491638,5.8331152559,3.2937538919,2.6291699983-.121760353,4.806155005-1.8361271538,5.6468586692-4.16717991,1.0581413345,1.0645435342,2.5404876769,1.6996061738,4.1579915679,1.6247360054,1.6444168415-.0761743202,3.0827777009-.869632122,4.0380096037-2.0600263034.6609678364.1541863087,1.3514569269.2277523253,2.0628124459.194792853,4.1588214827-.1925402271,7.3740298694-3.7200336867,7.181371083-7.8788551694-.1280439934-2.7678843245-1.7377229737-5.1109708449-4.0233082563-6.3164220515Z"/>
  <path class="cls-1" d="M80.0417940155,48.7486033191l-4.1781189372,1.1455321538c-11.7260015436-1.3478163482-23.8563486773-1.3478163482-35.6497417239,0l-4.2455087263-1.1455321538c-1.3478163482-.336954087-2.7629676427,0-3.7738299038,1.0108622611s-1.415150866,2.4260135556-1.0108622611,3.7738299038l.9435273148,3.5718250649c-1.3478163482,6.7390834547-1.2804818303,13.7477277798.0673460863,20.82376018l-1.0108622611,3.7064949575c-.336954087,1.3478163482,0,2.7629659288,1.0108622611,3.77382819s2.4260135556,1.3478163482,3.7738290469,1.0108622611l3.4368758168-.9435290287c6.1325650698.7412414066,12.3325199286,1.1455321538,18.5324747875,1.1455321538,6.1999565727,0,12.3999097177-.4043010302,18.5324747875-1.1455321538l3.5042107631.9435290287c1.3478163482.336954087,2.7629693565,0,3.7738316177-1.0108622611s1.4151495807-2.4260118418,1.0108622611-3.77382819l-.8761957962-3.3695408705c1.2804831157-6.671690238,1.2804831157-13.7477260659-.1346938864-20.8911533968l1.0108622611-3.8411648501c.336954087-1.3478163482,0-2.7629676427-1.0108622611-3.7738299038-.9433028022-1.0110867738-2.3586786093-1.4153758072-3.7064949575-1.0110867738l.0000137107.0000034277Z"/>
  <g>
    <path class="cls-4" d="M48.0116398148,94.1220692627l1.9186580951-7.5439202506c.5567601909-4.1105609561-.7900809494-7.6889627623-3.4264502678-10.7010377496-5.7977634749-6.6239919203-3.946153245-16.7650347056,4.2118885889-20.9462004298,8.1043996711-4.1536716463,18.7703458159.1344501367,19.8431770976,8.8957832106.2437354919,1.9904832359,1.3021908895,3.5366989709,2.1391131947,5.2209762746.364278198.7330982495.7687306463,1.4845075917,1.3153255465,2.0805161014,1.0371150721,1.1308855876.2596080325,2.1137957542-.5591668144,2.2991676311-3.0246588748.6847881748-2.6825072457,2.8668933249-2.6160716636,5.0429619608.0211926553.6941831862-.0295459939,1.4418409096-.2672908689,2.0835553117-.9082010676,2.4514115164-3.0000199185,2.7553405353-5.2069017173,2.6010851437-1.4517607486-.1014772985-2.1076155608.3295557683-1.846253447,1.8561852592.0870096194.5082246199.0137333196,1.0438879415.0137333196,1.5670072864,0,0-.4963875323,4.5930000052.9919257022,7.0684601279"/>
    <path class="cls-3" d="M66.4330265336,66.6467885009c-1.3916902262.6207697602-2.7158711623-.5851913002-3.8194521452-1.2861038894,1.3876261277.2178401098,2.3645274509,1.3416055759,3.8194521452,1.2861038894h0Z"/>
  </g>
  <path class="cls-3" d="M64.6065616198,33.5673556359c-1.279961605-1.1814151698-2.9188322201-3.1462148588-4.0288310446-4.964298879.9350363924-.8303355635,1.4769783385-2.0936358925,1.2967878441-3.4790216262-.2313036854-1.7781502536-1.6804413235-3.1990538178-3.4625506922-3.3974029459-2.3845547147-.2653876056-4.4034242415,1.5939879546-4.4034242415,3.9249042735,0,1.0733008731.4295386082,2.045225559,1.1242364115,2.7571556645-.8146894452,2.4137531885-2.5448227389,4.2405548756-3.7901167079,5.3103280756-.6942409824.596417847-.8844815382,1.6212576288-.3790091329,2.3842755463.1388228175.2095666208.3063745984.3592643153.5457234086.3592643153.7982185113,0,.7982185113-1.6632344003,1.5964116437-1.6632344003.7982185113,0,.7982185113,1.6632344003,1.5964370226,1.6632344003s.7982185113-1.6632344003,1.5964370226-1.6632344003c.7984215429,0,.7984215429,1.6632344003,1.5968430857,1.6632344003h.1264125145c.7978632061,0,.7978632061-1.6632344003,1.5957264122-1.6632344003.7982185113,0,.7982185113,1.6632344003,1.5964116437,1.6632344003.7982185113,0,.7982185113-1.6632344003,1.5964370226-1.6632344003s.7982185113,1.6632344003,1.5964370226,1.6632344003c.2395264629,0,.4071797595-.1496976946.5461040928-.3592643153.5319426427-.8024187264.3609900835-1.8829779772-.3464733281-2.5359401089ZM57.4059463975,25.4533724297c-.054305862.0919965637-.1070940631.1866609417-.1611689767.2791451704-.1066321664.1823867016-.2195989169.3588066788-.3534499995.4788009495-.1600802201.1434882481-.3415726543.1988525662-.5211845088.2213425275-.2416049983.0302639148-.5003331693-.0045037295-.697299145-.2497131547-.1310467094-.1631382781-.2236240172-.4084050757-.2779958645-.6722605148-.0544048398-.2638554391-.0727487397-.5465003229-.0756190982-.826735568-.0038271446-.3754733466.0247444693-.774985708.1597502938-1.0680723596.0502807616-.1090935241.1161340426-.2013769496.193765691-.2377797059.0229958601-.0107860019.049719887-.0154044761.0686906468.0096098687.0127681462.0168100986.0194326566.0436890448.026361108.068789448.0375786007.1359437841.0969983197.2486230801.1610699988.351463018.0134609913.0215720037.0271199384.0427137148.0407788854.0635111918.2622253894.3985944038.5609406228.7239243162.8808041293.9631096447.1157711237.0865461904.2342806354.1618187141.3549016751.2252151611.0602775272.0316982235.1210829365.0604130849.1823172498.0861158978.0583309623.0244406212.121214907.035054506.1782591569.0659208305-.059419719.0579173876-.1110861709.1588353518-.1599812422.2415375948ZM60.5480650949,25.5106874076c-.0544048398.2638554391-.146949155.5091222367-.2780288571.6722605148-.1969659757.2452094252-.4556611541.2799770695-.6972661523.2497131547-.1796118545-.0224899613-.3611372813-.0778542794-.5212175014-.2213425275-.13381809-.1199942707-.2467848405-.2964142479-.3534170069-.4788009495-.054041921-.0924842287-.1068631148-.1871486067-.1612019694-.2791451704-.0488620787-.082702243-.1005615232-.1836202072-.1599482496-.2415375948.0570442499-.0308663245.1198952019-.0414802093.1782261642-.0659208305.0612343134-.0257028129.1220727152-.0544176743.1823832351-.0861158978.1205550545-.0633964471.2391305514-.1386689707.3548686824-.2252151611.3198635065-.2391853284.6185457473-.5645152409.8807711367-.9631096447.0137249323-.020797477.0273508867-.0419391881.0407788854-.0635111918.0641046718-.1028399379.1235243908-.2155192339.1611029915-.351463018.0069284514-.0251004033.0135929618-.0519793494.026361108-.068789448.0189707598-.0250143447.0456947866-.0203958705.0686906468-.0096098687.0775986557.0364027563.1435179219.1286861817.1937656909.2377797059.1350058245.2930866516.1635444458.692599013.1597173012,1.0680723596-.0028373658.2802352451-.0211812657.5628801289-.0755861056.826735568Z"/>
  <ellipse class="cls-8" cx="60.7645400481" cy="46.5361796921" rx="2.2085889571" ry="1.3987730061"/>
  <circle class="cls-8" cx="57.4186508536" cy="56.0596665161" r="1.6531159186"/>
  <circle class="cls-5" cx="60.2116921519" cy="50.8938446263" r="1.5312038423"/>
</svg>