<?xml version="1.0" encoding="UTF-8"?>
<svg id="Layer_1" data-name="Layer 1" xmlns="http://www.w3.org/2000/svg" width="41.2096263684mm" height="41.2096263684mm" viewBox="0 0 116.8146906726 116.8146906726">
  <defs>
    <style>
      .cls-1 {
        fill: #5b97ca;
      }

      .cls-1, .cls-2 {
        stroke-width: 0px;
      }

      .cls-3 {
        stroke-linecap: round;
      }

      .cls-3, .cls-4, .cls-5 {
        stroke-miterlimit: 10;
      }

      .cls-3, .cls-5 {
        fill: none;
        stroke: #fff;
      }

      .cls-4 {
        stroke: #005279;
        stroke-width: 6px;
      }

      .cls-4, .cls-2 {
        fill: #fff;
      }

      .cls-5 {
        stroke-width: 2px;
      }
    </style>
  </defs>
  <g>
    <circle class="cls-4" cx="58.4073453363" cy="58.4073453363" r="55.4073453363"/>
    <circle class="cls-1" cx="58.4073453363" cy="58.4073453363" r="48.6947538512"/>
  </g>
  <path class="cls-5" d="M69.0499454084,86.4859624879c0-.9965604283.1395938832-2.0170175655-.0261624484-2.985203028-.4979038581-2.9082819323.7515222221-3.7294148188,3.5171766133-3.5360970587,4.2041860849.2938618512,8.189173278-.2851334319,9.9193276944-4.9551570784.4529122021-1.2224881103.5495710821-2.6468019085.5091983414-3.9692448654-.1265620795-4.1454859446-.7783727558-8.3024716576,4.9837069167-9.6070167932,1.5597943758-.353139831,3.0409721529-2.2256176625,1.0652321033-4.3799937844-1.0412821724-1.1354168057-1.811778062-2.5668775675-2.5057406167-3.9634550647-1.5943659111-3.2086064633-3.6107600181-6.1542008674-4.0750845524-9.9461402123-2.043780663-16.6906422507-22.3627766271-24.8596624221-37.8019380456-16.9467744071-15.5413515921,7.9652651834-19.0687330619,27.28430211-8.0237933024,39.9032356082,5.0223746505,5.7381069322,7.5881535624,12.5550860235,6.5275061601,20.3858466841"/>
  <circle class="cls-3" cx="56.4790795781" cy="42.3692857099" r="8.380453608"/>
  <g>
    <path class="cls-3" d="M63.1995151428,32.9621849107c2.9405595046,2.0815273959,4.8601508477,5.5100225544,4.8601508477,9.3868622937,0,6.3472521414-5.1454645119,11.4927166534-11.4927166534,11.4927166534-2.0349685906,0-3.9464074068-.528893837-5.604354204-1.4567192664"/>
    <polygon class="cls-2" points="62.5821473143 34.3485169586 64.0177301364 32.0419395119 60.4839878051 31.7658658923 62.5821473143 34.3485169586"/>
  </g>
  <polyline class="cls-3" points="56.1128221609 38.0503528148 56.4790795781 42.3692857099 50.2048467008 44.676119686"/>
</svg>