<svg id="Layer_1" data-name="Layer 1" xmlns="http://www.w3.org/2000/svg" width="100%" height="100%" viewBox="0 0 116.8146906725 116.8146906726">
  <defs>
    <style>
      .cls-1 {
        fill: #5b97ca;
      }

      .cls-1, .cls-2, .cls-3 {
        stroke-width: 0px;
      }

      .cls-4 {
        stroke-width: .7032868532px;
      }

      .cls-4, .cls-5 {
        stroke-linecap: round;
        stroke-linejoin: round;
      }

      .cls-4, .cls-5, .cls-2, .cls-6 {
        fill: none;
      }

      .cls-4, .cls-5, .cls-6 {
        stroke: #fff;
      }

      .cls-5 {
        stroke-width: 2px;
      }

      .cls-6 {
        stroke-width: 1.6px;
      }

      .cls-6, .cls-7 {
        stroke-miterlimit: 10;
      }

      .cls-7 {
        stroke: #005279;
        stroke-width: 6px;
      }

      .cls-7, .cls-3 {
        fill: #fff;
      }
    </style>
  </defs>
  <g>
    <circle class="cls-7" cx="58.4073453363" cy="58.4073453363" r="55.4073453363"/>
    <circle class="cls-1" cx="58.4073453363" cy="58.4073453363" r="48.6947538512"/>
    <g>
      <line class="cls-5" x1="41.7427918518" y1="74.166519482" x2="41.7427918518" y2="55.979019482"/>
      <polygon class="cls-3" points="49.8406922424 67.6058505367 48.3904969299 66.255203564 41.7447449768 73.4066317867 35.0970398987 66.255203564 33.6468445862 67.6058505367 41.7447449768 76.3138583492 49.8406922424 67.6058505367"/>
    </g>
    <g>
      <line class="cls-5" x1="73.0264792183" y1="91.6323446782" x2="73.0264792183" y2="75.3213029881"/>
      <line class="cls-5" x1="67.1411583358" y1="88.1116590395" x2="78.9118001008" y2="88.1116590395"/>
    </g>
    <circle class="cls-7" cx="58.4073453363" cy="58.4073453363" r="55.4073453363"/>
    <circle class="cls-1" cx="58.4073453363" cy="58.4073453363" r="48.6947538512"/>
  </g>
  <path class="cls-6" d="M49.3058429734,80.2352776821c0-.7972483427.1116751066-1.6136140524-.0209299587-2.3881624224-.3983230865-2.3266255459.6012177777-2.9835318551,2.8137412906-2.828877647,3.3633488679.2350894809,6.5513386224-.2281067455,7.9354621555-3.9641256627.3623297617-.9779904882.4396568657-2.1174415268.4073586731-3.1753958924-.1012496636-3.3163887557-.6226982046-6.6419773261,3.9869655334-7.6856134346,1.2478355007-.2825118648,2.4327777224-1.78049413.8521856827-3.5039950275-.8330257379-.9083334446-1.4494224496-2.053502054-2.0045924934-3.1707640517-1.2754927289-2.5668851706-2.8886080145-4.9233606939-3.2600676419-7.9569121698-1.6350245304-13.3525138006-17.8902213016-19.8877299377-30.2415504365-13.5574195257-12.4330812737,6.3722121468-15.2549864495,21.827441688-6.4190346419,31.9225884866,4.0178997204,4.5904855457,6.0705228499,10.0440688188,5.2220049281,16.3086773473"/>
  <path class="cls-2" d="M61.6723486862,43.0432770042c.0556317773-.5928653613.796078882-.8299296543,1.3913982068-.8433137035,1.7841464833-.0401094105,3.5162592774.6426670589,5.0471263667,1.559854517s2.905255227,2.0698571729,4.3664549396,3.0943972054c.6080160159.4263186905,1.2487364671.8382369328,1.9727015259,1.0034811074s1.5546151628.0413435404,2.0759691748-.4874485149c.8021128539-.8135567462.5791530569-2.1517045246.2696108092-3.2514511814"/>
  <path class="cls-3" d="M50.2829529846,46.9135897945c1.2135641591-.8880613318,3.0424182179-1.0830729051,4.3361875565-.3062066597.7674676135.4101751831,1.3015799425.7172256393,2.0725067376.9417592295.174557659.0538395201.2443818778.082709149.2581758231.1182316099.1115722656.1276245117.3210449219-.267578125.4013671875-.6165771484.8085494978,1.1281547518-.2620497865,1.638974864-1.2855412962,1.5885089033-.7754938601.0289837724-1.6033747195-.2974322432-2.1717340945-.606331169-1.1858415303-.7111884201-2.2503880629-.7213218053-3.6109619141-1.1193847656h0Z"/>
  <path class="cls-4" d="M88.5351502503,41.189163525c-7.8295898438,0-14.1767578125,4.7628173828-14.1767578125,10.6380615234,0,2.358215332,1.03515625,4.5297851562,2.7657470703,6.2935180664-4.4564208984,2.8500976562-6.0786529728,6.0797167819-6.0786529728,6.0797167819l11.6925445744-2.6720019381c1.7712402344.5969848633,3.7297363281.9367675781,5.7971191406.9367675781,7.8298339844,0,14.1770019531-4.7628173828,14.1770019531-10.6380004883,0-5.8752441406-6.3471679688-10.6380615234-14.1770019531-10.6380615234Z"/>
  <g>
    <path class="cls-3" d="M78.9145111024,52.3380191697h-.3984375v-.64453125h.52734375l.17578125-.8642578125h-.703125v-.6474609375h.8349609375l.2314453125-1.142578125h.65625l-.2314453125,1.142578125h.6474609375l.2255859375-1.142578125h.6796875l-.234375,1.142578125h.404296875v.6474609375h-.5361328125l-.17578125.8642578125h.7119140625v.64453125h-.84375l-.2314453125,1.142578125h-.6533203125l.2255859375-1.142578125h-.650390625l-.2314453125,1.142578125h-.662109375l.2314453125-1.142578125ZM79.8783782899,50.8292301072l-.1728515625.8642578125h.650390625l.169921875-.8642578125h-.6474609375Z"/>
    <path class="cls-3" d="M82.0609954774,50.1729801072c0-.384765625.083984375-.669921875.2529296875-.85546875s.3984375-.2783203125.6875-.2783203125c.298828125,0,.5322265625.0927734375.701171875.2763671875.1689453125.185546875.25390625.470703125.25390625.857421875,0,.384765625-.0849609375.669921875-.25390625.85546875s-.3974609375.2783203125-.6865234375.2783203125c-.298828125,0-.533203125-.0927734375-.7021484375-.2763671875-.1689453125-.185546875-.2529296875-.470703125-.2529296875-.857421875ZM82.7025970399,50.1671207322c0,.279296875.0322265625.466796875.0966796875.5625.048828125.0703125.1162109375.10546875.2021484375.10546875.087890625,0,.15625-.03515625.205078125-.10546875.0625-.095703125.09375-.283203125.09375-.5625s-.03125-.4658203125-.09375-.5595703125c-.048828125-.072265625-.1171875-.1083984375-.205078125-.1083984375-.0859375,0-.1533203125.03515625-.2021484375.10546875-.064453125.095703125-.0966796875.283203125-.0966796875.5625ZM83.6283782899,53.5714176072h-.609375l2.2880859375-4.5322265625h.591796875l-2.2705078125,4.5322265625ZM84.9584564149,52.4434879197c0-.384765625.083984375-.669921875.25390625-.85546875.16796875-.185546875.3994140625-.2783203125.6923828125-.2783203125.294921875,0,.5263671875.0927734375.6962890625.2783203125.16796875.185546875.2529296875.470703125.2529296875.85546875,0,.38671875-.0849609375.6728515625-.2529296875.8583984375-.169921875.185546875-.3984375.2783203125-.6875.2783203125-.298828125,0-.533203125-.0927734375-.701171875-.2783203125-.169921875-.185546875-.25390625-.4716796875-.25390625-.8583984375ZM85.6000579774,52.4405582322c0,.279296875.0322265625.4658203125.0966796875.5595703125.048828125.072265625.1162109375.1083984375.2021484375.1083984375.087890625,0,.1552734375-.03515625.2021484375-.10546875.064453125-.095703125.0966796875-.283203125.0966796875-.5625s-.03125-.466796875-.09375-.5625c-.048828125-.0703125-.1171875-.10546875-.205078125-.10546875s-.1552734375.03515625-.2021484375.10546875c-.064453125.095703125-.0966796875.283203125-.0966796875.5625Z"/>
    <path class="cls-3" d="M92.3412689149,53.3516910447h.6240234375c-.1953125.396484375-.4951171875.70703125-.8994140625.931640625-.462890625.2578125-1.02734375.38671875-1.693359375.38671875-.64453125,0-1.201171875-.109375-1.669921875-.3271484375s-.8173828125-.5390625-1.0458984375-.962890625c-.228515625-.42578125-.3427734375-.8876953125-.3427734375-1.3876953125,0-.548828125.1298828125-1.0595703125.3896484375-1.5341796875.259765625-.47265625.615234375-.828125,1.06640625-1.06640625.451171875-.236328125.966796875-.35546875,1.546875-.35546875.4921875,0,.9296875.095703125,1.3125.287109375s.67578125.4638671875.876953125.81640625c.203125.3525390625.3037109375.7373046875.3037109375,1.1552734375,0,.498046875-.1533203125.9482421875-.4599609375,1.3505859375-.384765625.5078125-.8779296875.76171875-1.4794921875.76171875-.162109375,0-.2841796875-.0283203125-.3662109375-.0849609375s-.13671875-.1396484375-.1640625-.2490234375c-.23046875.22265625-.49609375.333984375-.796875.333984375-.32421875,0-.59375-.111328125-.806640625-.3359375-.21484375-.22265625-.3212890625-.5205078125-.3212890625-.8916015625,0-.458984375.12890625-.8779296875.38671875-1.2568359375.3125-.4609375.712890625-.69140625,1.201171875-.69140625.34765625,0,.6044921875.1328125.7705078125.3984375l.0732421875-.3251953125h.7734375l-.4423828125,2.1005859375c-.02734375.1328125-.041015625.21875-.041015625.2578125,0,.048828125.0107421875.0859375.033203125.109375.0224609375.025390625.0498046875.037109375.0810546875.037109375.09375,0,.21484375-.056640625.36328125-.169921875.19921875-.1484375.3603515625-.34765625.4833984375-.59765625s.1845703125-.5087890625.1845703125-.7763671875c0-.48046875-.173828125-.8818359375-.521484375-1.2060546875-.34765625-.322265625-.8330078125-.484375-1.4560546875-.484375-.529296875,0-.978515625.1083984375-1.345703125.32421875-.369140625.2158203125-.646484375.51953125-.83203125.91015625-.1875.392578125-.2802734375.7998046875-.2802734375,1.2236328125,0,.412109375.1044921875.787109375.3115234375,1.125.208984375.337890625.5.5849609375.876953125.7392578125.375.15625.8056640625.2333984375,1.2900390625.2333984375.466796875,0,.8681640625-.0654296875,1.2041015625-.1943359375.3359375-.130859375.6064453125-.3251953125.8115234375-.5849609375ZM89.1742767274,52.1475894822c0,.248046875.0498046875.4306640625.150390625.5478515625s.2255859375.17578125.3740234375.17578125c.111328125,0,.2158203125-.02734375.3134765625-.08203125.07421875-.0390625.1474609375-.1005859375.2197265625-.1845703125.103515625-.119140625.1923828125-.29296875.2685546875-.521484375.07421875-.228515625.1123046875-.44140625.1123046875-.638671875,0-.220703125-.0517578125-.3896484375-.1533203125-.5078125-.103515625-.1181640625-.232421875-.177734375-.388671875-.177734375-.16796875,0-.3232421875.0654296875-.4658203125.1953125s-.25.314453125-.322265625.5546875-.1083984375.453125-.1083984375.638671875Z"/>
    <path class="cls-3" d="M97.2221282899,52.8829410447l-.498046875.6357421875c-.244140625-.119140625-.478515625-.283203125-.703125-.4921875-.173828125.15625-.3583984375.271484375-.5537109375.345703125s-.427734375.111328125-.697265625.111328125c-.53515625,0-.9375-.150390625-1.20703125-.451171875-.208984375-.232421875-.3134765625-.5-.3134765625-.802734375,0-.275390625.08203125-.5234375.24609375-.7421875.1640625-.220703125.4091796875-.4111328125.7353515625-.5732421875-.146484375-.173828125-.2568359375-.3388671875-.3310546875-.4970703125-.07421875-.15625-.111328125-.3056640625-.111328125-.4462890625,0-.259765625.103515625-.4794921875.3125-.6611328125.20703125-.1796875.50390625-.2705078125.888671875-.2705078125.37109375,0,.6611328125.0947265625.8701171875.2841796875s.3134765625.4208984375.3134765625.6943359375c0,.173828125-.0517578125.3388671875-.1552734375.4951171875s-.3125.3330078125-.626953125.5302734375l.59765625.7880859375c.0703125-.125.130859375-.2880859375.181640625-.4892578125l.744140625.169921875c-.07421875.263671875-.138671875.45703125-.193359375.5791015625s-.11328125.2236328125-.17578125.3056640625c.091796875.0859375.2099609375.1806640625.3564453125.2822265625.14453125.103515625.251953125.1708984375.3203125.2041015625ZM94.6586517274,51.4415347947c-.189453125.095703125-.3310546875.2109375-.4248046875.345703125s-.140625.2724609375-.140625.4130859375c0,.177734375.0576171875.3232421875.173828125.435546875s.2724609375.16796875.4677734375.16796875c.12890625,0,.2529296875-.025390625.3720703125-.076171875s.2490234375-.134765625.3896484375-.251953125l-.837890625-1.0341796875ZM94.9809173524,50.5479801072l.22265625-.169921875c.1640625-.126953125.24609375-.2529296875.24609375-.3779296875,0-.10546875-.0400390625-.1953125-.1181640625-.26953125-.080078125-.07421875-.1865234375-.111328125-.3212890625-.111328125-.130859375,0-.2333984375.033203125-.3076171875.0986328125s-.111328125.140625-.111328125.2265625c0,.1015625.0625.224609375.1875.369140625l.2021484375.234375Z"/>
    <path class="cls-3" d="M98.0717376649,52.2999332322l-.2138671875-2.1796875v-1.0078125h.890625v1.0078125l-.2109375,2.1796875h-.4658203125ZM97.8930267274,53.4073551072v-.8232421875h.8232421875v.8232421875h-.8232421875Z"/>
  </g>
</svg>