<?xml version="1.0" encoding="UTF-8"?>
<svg id="Layer_8" data-name="Layer 8" xmlns="http://www.w3.org/2000/svg" viewBox="0 0 137.98 141.69">
  <defs>
    <style>
      .cls-1 {
        fill: none;
        stroke: #fff;
        stroke-width: 1.6px;
      }

      .cls-1, .cls-2 {
        stroke-miterlimit: 10;
      }

      .cls-3 {
        fill: #5a97cb;
      }

      .cls-3, .cls-4 {
        stroke-width: 0px;
      }

      .cls-4, .cls-2 {
        fill: #fff;
      }

      .cls-2 {
        stroke: #005178;
        stroke-width: 6px;
      }
    </style>
  </defs>
  <g>
    <circle class="cls-2" cx="70.55" cy="71.33" r="55.41"/>
    <circle class="cls-3" cx="70.55" cy="71.33" r="48.69"/>
  </g>
  <path class="cls-4" d="m88.86,54.05c-.31-.2-.4-.62-.2-.93l2.71-4.19c.06-.09.14-.17.24-.22.33-.18.74-.06.92.27l.9,1.65,2.25-3.65s.03-.05.05-.08c.22-.3.64-.38.94-.16s.38.64.16.94l-2.86,4.66c-.06.1-.15.18-.25.24-.33.18-.74.06-.92-.27l-.92-1.69-2.11,3.24c-.12.19-.34.31-.57.31-.12,0-.24-.04-.35-.11Z"/>
  <path class="cls-4" d="m66.93,42.27c-.3.23-.72.17-.95-.12l-3.06-3.93c-.07-.09-.11-.19-.13-.3-.06-.37.19-.72.56-.78l1.85-.3-2.71-3.33s-.04-.05-.06-.07c-.22-.3-.14-.73.16-.94s.73-.14.94.16l3.46,4.23c.07.09.12.2.14.31.06.37-.19.72-.55.78l-1.9.31,2.36,3.06c.14.18.18.42.1.64-.05.12-.12.22-.22.29Z"/>
  <path class="cls-4" d="m72.5,52.68c-.33-.17-.46-.58-.29-.91l2.28-4.43c.05-.1.13-.18.22-.25.31-.21.73-.13.94.18l1.05,1.55,1.88-3.85s.02-.06.04-.08c.19-.32.6-.44.92-.25s.44.6.25.92l-2.39,4.92c-.05.1-.13.19-.22.26-.31.21-.73.13-.94-.17l-1.08-1.59-1.78,3.43c-.11.2-.31.34-.54.36-.12,0-.25-.02-.36-.08Z"/>
  <path class="cls-4" d="m58.5,52.72c.26,0,.47-.22.47-.48l-.03-3.51c0-.08-.02-.16-.06-.22-.13-.23-.42-.31-.65-.19l-1.15.64.04-3.02s0-.04,0-.06c-.01-.26-.24-.46-.5-.45s-.46.24-.45.5l-.06,3.85c0,.08.02.16.06.23.13.23.42.31.65.19l1.18-.66.03,2.72c0,.16.09.31.22.4.08.04.16.07.25.06Z"/>
  <path class="cls-4" d="m85.6,41.12c.25.09.52-.04.61-.28l1.21-3.29c.03-.07.03-.15.02-.23-.04-.26-.28-.44-.54-.4l-1.31.19,1.1-2.81s.02-.04.02-.06c.08-.25-.06-.52-.31-.6s-.52.06-.6.31l-1.41,3.58c-.03.08-.04.16-.03.24.04.26.28.44.54.4l1.34-.2-.93,2.56c-.06.15-.03.32.07.45.06.07.13.12.21.15Z"/>
  <path class="cls-4" d="m52.41,54.28c-.2.31-.62.4-.93.2l-4.19-2.71c-.09-.06-.17-.14-.22-.24-.18-.33-.06-.74.27-.92l1.65-.9-3.65-2.25s-.05-.03-.08-.05c-.3-.22-.38-.64-.16-.94s.64-.38.94-.16l4.66,2.86c.1.06.18.15.24.25.18.33.06.74-.27.92l-1.69.92,3.24,2.11c.19.12.31.34.31.57,0,.12-.04.24-.11.35Z"/>
  <path class="cls-1" d="m79.23,106.15c0-.8.11-1.61-.02-2.39-.4-2.33.6-2.98,2.81-2.83,3.36.24,6.55-.23,7.94-3.96.36-.98.44-2.12.41-3.18-.1-3.32-.62-6.64,3.99-7.69,1.25-.28,2.43-1.78.85-3.5-.83-.91-1.45-2.05-2-3.17-1.28-2.57-2.89-4.92-3.26-7.96-1.64-13.35-17.89-19.89-30.24-13.56-12.43,6.37-15.25,21.83-6.42,31.92,4.02,4.59,6.07,10.04,5.22,16.31"/>
</svg>