<svg width="375" height="397" viewBox="0 0 375 397" fill="none" xmlns="http://www.w3.org/2000/svg">
<g clip-path="url(#clip0_204_1587)">
<path d="M63.4102 27.5801H176.12L186.83 41.9601" stroke="#4F4E4E" stroke-miterlimit="10"/>
<g filter="url(#filter0_d_204_1587)">
<path d="M189.3 208.28L177.47 39.12C181.58 38.83 185.18 38.71 189.3 38.71V208.28Z" fill="#5FFFD1"/>
<path d="M189.3 208.28L40.9805 126.07C69.6805 74.2999 118.42 43.2499 177.46 39.1199L189.29 208.28H189.3Z" fill="#62C4C4"/>
<path d="M189.3 208.28L35.61 279.94C11.86 229.01 13.74 175.21 40.98 126.06L189.29 208.27L189.3 208.28Z" fill="#3D91BE"/>
<path d="M189.3 208.28L209.97 376.59C135.98 385.68 67.1201 347.51 35.6201 279.95L189.31 208.29L189.3 208.28Z" fill="#24448E"/>
<path d="M189.3 208.28L340.39 285.26C314.2 336.66 267.23 369.55 209.97 376.58L189.3 208.27V208.28Z" fill="#162065"/>
<path d="M189.3 208.28V38.71C282.95 38.71 358.87 114.63 358.87 208.28C358.87 237.22 353.53 259.48 340.39 285.26L189.3 208.28Z" fill="#01072D"/>
</g>
<path d="M292.43 138.62C292.82 139.02 293.01 139.56 293.01 140.22V140.78C293.01 141.63 292.79 142.23 292.36 142.59C291.93 142.95 291.3 143.15 290.49 143.2V144.21H289.64V143.2C289.23 143.18 288.81 143.15 288.37 143.11C287.93 143.07 287.57 143.01 287.28 142.95V141.79C288 141.85 288.89 141.89 289.96 141.89C290.5 141.89 290.9 141.81 291.18 141.66C291.46 141.51 291.59 141.23 291.59 140.83V140.41C291.59 140.1 291.5 139.86 291.33 139.69C291.16 139.52 290.89 139.44 290.55 139.44H289.72C288.88 139.44 288.25 139.26 287.83 138.89C287.41 138.52 287.2 137.93 287.2 137.1V136.64C287.2 135.85 287.41 135.26 287.83 134.86C288.25 134.47 288.87 134.25 289.7 134.21L289.64 133.71L290.4 133.25L290.5 133.99L290.13 134.21C290.53 134.21 290.95 134.25 291.4 134.3C291.85 134.35 292.25 134.41 292.6 134.49V135.65C291.52 135.58 290.7 135.54 290.14 135.54C289.64 135.54 289.26 135.62 289.01 135.79C288.76 135.96 288.63 136.26 288.63 136.7V137C288.63 137.36 288.73 137.62 288.92 137.78C289.11 137.94 289.41 138.02 289.81 138.02H290.73C291.47 138.02 292.04 138.22 292.43 138.63V138.62Z" fill="white"/>
<path d="M298.23 135.76H294.21V134.28H299.73L300.14 134.94L297.1 143.14H295.43L298.23 135.76Z" fill="white"/>
<path d="M302.34 142.81C301.97 142.55 301.68 142.11 301.49 141.47C301.29 140.83 301.2 139.94 301.2 138.79C301.2 137.17 301.48 136 302.03 135.29C302.58 134.58 303.4 134.22 304.48 134.22C305.31 134.22 306.06 134.28 306.71 134.39V135.55H304.59C303.33 135.55 302.69 136.4 302.69 138.11C303.2 137.99 303.92 137.93 304.85 137.93C305.68 137.93 306.29 138.09 306.67 138.42C307.05 138.75 307.24 139.24 307.24 139.9V141.16C307.24 141.86 307.05 142.38 306.66 142.71C306.28 143.04 305.76 143.2 305.1 143.2H303.78C303.2 143.2 302.72 143.07 302.35 142.82L302.34 142.81ZM304.77 141.86C305.08 141.86 305.32 141.78 305.5 141.63C305.67 141.48 305.76 141.23 305.76 140.87V140.16C305.76 139.78 305.66 139.52 305.45 139.38C305.24 139.24 304.91 139.18 304.45 139.18H302.69C302.69 139.88 302.74 140.42 302.84 140.81C302.94 141.2 303.09 141.47 303.29 141.63C303.49 141.79 303.75 141.86 304.07 141.86H304.78H304.77Z" fill="white"/>
<path d="M308.61 143.09C308.61 143.09 308.54 143 308.54 142.93V141.79C308.54 141.64 308.62 141.56 308.77 141.56H309.62C309.77 141.56 309.85 141.64 309.85 141.79V142.93C309.85 143.07 309.77 143.15 309.62 143.15H308.77C308.71 143.15 308.65 143.13 308.61 143.09Z" fill="white"/>
<path d="M311.77 135.63L310.1 135.93V134.98L311.92 134.2H313.25V143.14H311.76V135.63H311.77Z" fill="white"/>
<path d="M279.31 157.17C278.94 156.16 278.75 154.98 278.75 153.62C278.75 152.26 278.94 151.17 279.33 150.13C279.71 149.09 280.23 148.12 280.88 147.21H282.22C281.6 148.24 281.12 149.27 280.77 150.3C280.42 151.33 280.24 152.43 280.24 153.62C280.24 154.81 280.4 155.91 280.73 156.9C281.06 157.88 281.55 158.94 282.22 160.06H280.88C280.21 159.15 279.69 158.19 279.31 157.17Z" fill="white"/>
<path d="M282.92 157.4V156.21H285.7C286.23 156.21 286.62 156.14 286.87 155.99C287.12 155.85 287.25 155.58 287.25 155.2V154.76C287.25 154.42 287.13 154.16 286.89 154C286.65 153.84 286.34 153.75 285.95 153.74L283.74 153.64V152.51L285.89 152.4C286.3 152.38 286.61 152.31 286.82 152.17C287.03 152.03 287.14 151.81 287.14 151.5V151.09C287.14 150.72 287.02 150.45 286.77 150.27C286.52 150.09 286.14 150.01 285.62 150.01H283.14V148.82C284.28 148.66 285.3 148.59 286.21 148.6C286.99 148.6 287.58 148.8 287.99 149.16C288.4 149.53 288.61 150.06 288.61 150.74V151.42C288.61 151.88 288.5 152.24 288.27 152.51C288.05 152.78 287.77 152.96 287.43 153.06C287.77 153.16 288.08 153.37 288.34 153.7C288.6 154.03 288.74 154.44 288.74 154.94V155.46C288.74 156.15 288.52 156.68 288.08 157.05C287.64 157.42 287.02 157.61 286.23 157.61C284.98 157.61 283.87 157.54 282.91 157.39L282.92 157.4Z" fill="white"/>
<path d="M290 156.34L293.07 153.33C293.48 152.94 293.77 152.58 293.95 152.26C294.13 151.94 294.22 151.59 294.22 151.2C294.22 150.81 294.11 150.52 293.88 150.32C293.65 150.12 293.26 150.01 292.7 150.01H290.24V148.85C290.76 148.78 291.23 148.72 291.65 148.68C292.07 148.64 292.52 148.61 293 148.61C293.98 148.61 294.68 148.81 295.09 149.21C295.5 149.61 295.71 150.2 295.71 150.97C295.71 151.55 295.59 152.08 295.36 152.54C295.12 153 294.75 153.49 294.23 154L291.99 156.2H296.01V157.54H290.01V156.34H290Z" fill="white"/>
<path d="M297.23 157.49C297.23 157.49 297.16 157.4 297.16 157.33V156.19C297.16 156.04 297.24 155.96 297.39 155.96H298.24C298.39 155.96 298.47 156.04 298.47 156.19V157.33C298.47 157.47 298.39 157.55 298.24 157.55H297.39C297.33 157.55 297.27 157.53 297.23 157.49Z" fill="white"/>
<path d="M299.93 155.72V154.48C299.93 154.12 300.03 153.81 300.23 153.54C300.43 153.27 300.68 153.11 300.97 153.04C300.63 152.87 300.4 152.66 300.28 152.41C300.16 152.16 300.11 151.85 300.11 151.48V150.46C300.11 149.83 300.3 149.36 300.67 149.06C301.04 148.76 301.53 148.61 302.14 148.61H303.81C304.41 148.61 304.89 148.76 305.24 149.05C305.6 149.35 305.77 149.81 305.77 150.45V151.47C305.77 151.76 305.7 152.05 305.56 152.35C305.42 152.65 305.21 152.83 304.94 152.89C305.29 152.97 305.55 153.16 305.7 153.45C305.85 153.74 305.93 154.07 305.93 154.42V155.7C305.93 156.38 305.74 156.86 305.37 157.15C305 157.44 304.48 157.58 303.82 157.58H302.2C300.68 157.58 299.92 156.96 299.92 155.71L299.93 155.72ZM303.49 156.32C303.84 156.32 304.09 156.25 304.23 156.11C304.37 155.97 304.45 155.75 304.45 155.46V154.56C304.45 154.25 304.37 154.02 304.22 153.88C304.06 153.74 303.81 153.66 303.47 153.66H302.45C302.19 153.66 301.95 153.74 301.74 153.89C301.53 154.04 301.42 154.27 301.42 154.56V155.46C301.42 155.76 301.51 155.98 301.68 156.12C301.86 156.26 302.11 156.32 302.45 156.32H303.49ZM303.45 152.38C304.03 152.38 304.31 152.08 304.31 151.47V150.81C304.31 150.46 304.24 150.21 304.11 150.08C303.97 149.94 303.77 149.88 303.49 149.88H302.45C302.13 149.88 301.9 149.95 301.77 150.09C301.64 150.23 301.57 150.47 301.57 150.82V151.48C301.57 151.79 301.64 152.02 301.78 152.17C301.92 152.32 302.15 152.39 302.46 152.39H303.47L303.45 152.38Z" fill="white"/>
<path d="M307.56 152.96C307.32 152.7 307.19 152.31 307.19 151.78V150.33C307.19 149.79 307.31 149.4 307.56 149.14C307.8 148.88 308.22 148.76 308.8 148.76H310.01C310.58 148.76 310.99 148.89 311.23 149.15C311.48 149.41 311.6 149.8 311.6 150.33V151.78C311.6 152.31 311.48 152.7 311.23 152.96C310.98 153.22 310.57 153.35 309.98 153.35H308.77C308.2 153.35 307.8 153.22 307.55 152.96H307.56ZM309.82 152.39C310.13 152.39 310.35 152.33 310.47 152.2C310.59 152.07 310.65 151.86 310.65 151.56V150.53C310.65 150.23 310.59 150.01 310.48 149.89C310.36 149.77 310.15 149.71 309.85 149.71H308.99C308.7 149.71 308.49 149.77 308.36 149.88C308.23 149.99 308.16 150.21 308.16 150.53V151.56C308.16 151.86 308.22 152.07 308.33 152.2C308.45 152.33 308.66 152.39 308.96 152.39H309.82ZM314.66 148.75H315.64L310.31 157.53H309.29L314.65 148.75H314.66ZM313.79 157.11C313.55 156.85 313.42 156.46 313.42 155.93V154.48C313.42 153.94 313.54 153.55 313.79 153.29C314.04 153.03 314.45 152.91 315.03 152.91H316.25C316.82 152.91 317.23 153.04 317.47 153.3C317.71 153.56 317.84 153.95 317.84 154.48V155.93C317.84 156.46 317.72 156.85 317.47 157.11C317.22 157.37 316.81 157.5 316.22 157.5H315C314.43 157.5 314.03 157.37 313.78 157.11H313.79ZM316.04 156.54C316.35 156.54 316.57 156.48 316.7 156.35C316.83 156.23 316.89 156.01 316.89 155.71V154.68C316.89 154.38 316.83 154.16 316.7 154.04C316.58 153.92 316.36 153.86 316.06 153.86H315.21C314.92 153.86 314.71 153.92 314.58 154.03C314.45 154.14 314.38 154.36 314.38 154.68V155.71C314.38 156.01 314.44 156.22 314.55 156.35C314.67 156.48 314.88 156.54 315.18 156.54H316.03H316.04Z" fill="white"/>
<path d="M319.95 156.97C320.29 155.95 320.47 154.84 320.47 153.64C320.47 152.44 320.31 151.34 319.99 150.36C319.67 149.38 319.17 148.34 318.5 147.22H319.83C320.51 148.13 321.03 149.09 321.4 150.1C321.77 151.11 321.95 152.29 321.95 153.64C321.95 154.99 321.76 156.11 321.39 157.14C321.01 158.17 320.49 159.14 319.83 160.06H318.5C319.12 159.02 319.61 157.99 319.95 156.97Z" fill="white"/>
<path d="M253.36 294.57C253.75 294.97 253.94 295.51 253.94 296.17V296.73C253.94 297.58 253.72 298.18 253.29 298.54C252.86 298.9 252.23 299.1 251.42 299.15V300.16H250.57V299.15C250.16 299.13 249.74 299.1 249.3 299.06C248.86 299.02 248.5 298.96 248.21 298.9V297.74C248.93 297.8 249.82 297.84 250.89 297.84C251.43 297.84 251.83 297.76 252.11 297.61C252.39 297.46 252.52 297.18 252.52 296.78V296.36C252.52 296.05 252.43 295.81 252.26 295.64C252.09 295.47 251.82 295.39 251.48 295.39H250.65C249.81 295.39 249.18 295.21 248.76 294.84C248.34 294.47 248.13 293.88 248.13 293.05V292.59C248.13 291.8 248.34 291.21 248.76 290.81C249.18 290.42 249.8 290.2 250.63 290.16L250.57 289.66L251.33 289.2L251.43 289.94L251.06 290.16C251.46 290.16 251.88 290.2 252.33 290.25C252.78 290.3 253.18 290.36 253.53 290.44V291.6C252.45 291.53 251.63 291.49 251.07 291.49C250.57 291.49 250.19 291.57 249.94 291.74C249.69 291.91 249.56 292.21 249.56 292.65V292.95C249.56 293.31 249.66 293.57 249.85 293.73C250.05 293.89 250.34 293.97 250.74 293.97H251.66C252.4 293.97 252.97 294.17 253.36 294.58V294.57Z" fill="white"/>
<path d="M255.31 298.95V297.76H258.09C258.62 297.76 259.01 297.69 259.26 297.54C259.51 297.4 259.64 297.13 259.64 296.75V296.31C259.64 295.97 259.52 295.71 259.28 295.55C259.04 295.39 258.73 295.3 258.34 295.29L256.13 295.19V294.06L258.28 293.95C258.69 293.93 259 293.86 259.21 293.72C259.42 293.58 259.53 293.36 259.53 293.05V292.64C259.53 292.27 259.41 292 259.16 291.82C258.92 291.64 258.53 291.56 258.01 291.56H255.53V290.37C256.67 290.21 257.69 290.14 258.6 290.15C259.38 290.15 259.97 290.35 260.38 290.71C260.79 291.08 261 291.61 261 292.29V292.97C261 293.43 260.89 293.79 260.66 294.06C260.44 294.33 260.16 294.51 259.82 294.61C260.16 294.71 260.47 294.92 260.73 295.25C260.99 295.58 261.13 295.99 261.13 296.49V297.01C261.13 297.7 260.91 298.23 260.47 298.6C260.03 298.97 259.41 299.16 258.62 299.16C257.37 299.16 256.26 299.09 255.3 298.94L255.31 298.95Z" fill="white"/>
<path d="M262.609 298.98V297.82H265.719C266.169 297.82 266.509 297.71 266.729 297.49C266.959 297.27 267.069 296.99 267.069 296.66V295.92C267.069 295.58 266.979 295.32 266.789 295.14C266.599 294.96 266.329 294.86 265.949 294.86H265.169C264.869 294.86 264.639 294.92 264.479 295.05C264.319 295.18 264.209 295.37 264.159 295.64H262.759L263.009 290.24H268.229V291.57H264.289L264.169 294.08C264.289 293.94 264.459 293.82 264.689 293.73C264.909 293.64 265.169 293.6 265.469 293.6H266.469C267.139 293.6 267.659 293.79 268.019 294.17C268.379 294.55 268.559 295.04 268.559 295.65V296.96C268.559 298.42 267.589 299.16 265.659 299.16C264.689 299.16 263.679 299.1 262.609 298.99V298.98Z" fill="white"/>
<path d="M269.94 299.04C269.94 299.04 269.87 298.95 269.87 298.88V297.74C269.87 297.59 269.95 297.51 270.1 297.51H270.95C271.1 297.51 271.18 297.59 271.18 297.74V298.88C271.18 299.02 271.1 299.1 270.95 299.1H270.1C270.04 299.1 269.98 299.08 269.94 299.04Z" fill="white"/>
<path d="M276.19 291.71H272.17V290.23H277.69L278.1 290.89L275.06 299.09H273.39L276.19 291.71Z" fill="white"/>
<path d="M243.19 313.12C242.82 312.11 242.63 310.93 242.63 309.57C242.63 308.21 242.82 307.12 243.21 306.08C243.59 305.04 244.11 304.07 244.76 303.16H246.1C245.48 304.19 245 305.22 244.65 306.25C244.3 307.28 244.12 308.38 244.12 309.57C244.12 310.76 244.28 311.86 244.61 312.85C244.94 313.83 245.43 314.89 246.1 316.01H244.76C244.09 315.1 243.57 314.14 243.19 313.12Z" fill="white"/>
<path d="M248.41 305.98L246.74 306.28V305.33L248.56 304.55H249.89V313.49H248.4V305.98H248.41Z" fill="white"/>
<path d="M251.56 313.38V312.22H254.67C255.12 312.22 255.46 312.11 255.68 311.89C255.91 311.67 256.02 311.39 256.02 311.06V310.32C256.02 309.98 255.93 309.72 255.74 309.54C255.56 309.36 255.28 309.26 254.9 309.26H254.12C253.82 309.26 253.59 309.32 253.43 309.45C253.27 309.58 253.16 309.77 253.11 310.04H251.71L251.96 304.64H257.18V305.97H253.24L253.12 308.48C253.24 308.34 253.41 308.22 253.64 308.13C253.86 308.04 254.12 308 254.42 308H255.42C256.09 308 256.61 308.19 256.97 308.57C257.33 308.95 257.51 309.44 257.51 310.05V311.36C257.51 312.82 256.54 313.56 254.61 313.56C253.64 313.56 252.63 313.5 251.56 313.39V313.38Z" fill="white"/>
<path d="M258.89 313.44C258.89 313.44 258.82 313.35 258.82 313.28V312.14C258.82 311.99 258.9 311.91 259.05 311.91H259.9C260.05 311.91 260.13 311.99 260.13 312.14V313.28C260.13 313.42 260.05 313.5 259.9 313.5H259.05C258.99 313.5 258.93 313.48 258.89 313.44Z" fill="white"/>
<path d="M265.37 311.47H261.37L261.08 310.74L264.12 304.63H265.64L262.83 310.21H265.36V308.25L265.66 307.3H266.84V310.2H267.86V311.22L266.84 311.46V313.46H265.36V311.46L265.37 311.47Z" fill="white"/>
<path d="M268.94 308.91C268.7 308.65 268.57 308.26 268.57 307.73V306.28C268.57 305.74 268.69 305.35 268.94 305.09C269.18 304.83 269.6 304.71 270.18 304.71H271.39C271.96 304.71 272.37 304.84 272.61 305.1C272.86 305.36 272.98 305.75 272.98 306.28V307.73C272.98 308.26 272.86 308.65 272.61 308.91C272.36 309.17 271.95 309.3 271.36 309.3H270.15C269.58 309.3 269.18 309.17 268.93 308.91H268.94ZM271.2 308.34C271.51 308.34 271.73 308.28 271.85 308.15C271.97 308.02 272.03 307.81 272.03 307.51V306.48C272.03 306.18 271.97 305.96 271.86 305.84C271.74 305.72 271.53 305.66 271.23 305.66H270.37C270.08 305.66 269.87 305.72 269.74 305.83C269.61 305.94 269.54 306.16 269.54 306.48V307.51C269.54 307.81 269.6 308.02 269.71 308.15C269.83 308.28 270.04 308.34 270.34 308.34H271.2ZM276.04 304.7H277.02L271.69 313.48H270.67L276.03 304.7H276.04ZM275.17 313.06C274.93 312.8 274.8 312.41 274.8 311.88V310.43C274.8 309.89 274.92 309.5 275.17 309.24C275.41 308.98 275.83 308.86 276.41 308.86H277.63C278.2 308.86 278.61 308.99 278.85 309.25C279.09 309.51 279.22 309.9 279.22 310.43V311.88C279.22 312.41 279.1 312.8 278.85 313.06C278.6 313.32 278.19 313.45 277.6 313.45H276.38C275.81 313.45 275.41 313.32 275.16 313.06H275.17ZM277.42 312.49C277.73 312.49 277.95 312.43 278.08 312.3C278.21 312.17 278.27 311.96 278.27 311.66V310.63C278.27 310.33 278.21 310.11 278.08 309.99C277.96 309.87 277.74 309.81 277.44 309.81H276.59C276.3 309.81 276.09 309.87 275.96 309.98C275.83 310.09 275.76 310.31 275.76 310.63V311.66C275.76 311.96 275.82 312.17 275.93 312.3C276.05 312.43 276.26 312.49 276.56 312.49H277.41H277.42Z" fill="white"/>
<path d="M281.33 312.92C281.67 311.9 281.85 310.79 281.85 309.59C281.85 308.39 281.69 307.29 281.37 306.31C281.05 305.33 280.55 304.29 279.88 303.17H281.21C281.89 304.08 282.41 305.04 282.78 306.05C283.15 307.06 283.33 308.24 283.33 309.59C283.33 310.94 283.14 312.06 282.77 313.09C282.39 314.12 281.87 315.09 281.21 316.01H279.88C280.5 314.97 280.99 313.94 281.33 312.92Z" fill="white"/>
<path d="M121.64 300.83C122.03 301.23 122.22 301.77 122.22 302.43V302.99C122.22 303.84 122 304.44 121.57 304.8C121.14 305.16 120.51 305.36 119.7 305.41V306.42H118.85V305.41C118.44 305.39 118.02 305.36 117.58 305.32C117.14 305.28 116.78 305.22 116.49 305.16V304C117.21 304.06 118.1 304.1 119.17 304.1C119.71 304.1 120.11 304.02 120.39 303.87C120.67 303.72 120.8 303.44 120.8 303.04V302.62C120.8 302.31 120.71 302.07 120.54 301.9C120.37 301.73 120.1 301.65 119.76 301.65H118.93C118.09 301.65 117.46 301.47 117.04 301.1C116.62 300.73 116.41 300.14 116.41 299.31V298.85C116.41 298.06 116.62 297.47 117.04 297.07C117.46 296.68 118.08 296.46 118.91 296.42L118.85 295.92L119.61 295.46L119.71 296.2L119.34 296.42C119.74 296.42 120.16 296.46 120.61 296.51C121.06 296.56 121.46 296.62 121.81 296.7V297.86C120.73 297.79 119.91 297.75 119.35 297.75C118.85 297.75 118.47 297.83 118.22 298C117.97 298.17 117.84 298.47 117.84 298.91V299.21C117.84 299.57 117.94 299.83 118.13 299.99C118.33 300.15 118.62 300.23 119.02 300.23H119.94C120.68 300.23 121.25 300.43 121.64 300.84V300.83Z" fill="white"/>
<path d="M127.68 303.33H123.68L123.39 302.6L126.43 296.49H127.95L125.14 302.07H127.67V300.11L127.97 299.16H129.15V302.06H130.17V303.08L129.15 303.32V305.32H127.67V303.32L127.68 303.33Z" fill="white"/>
<path d="M132.27 305.01C131.9 304.75 131.61 304.31 131.42 303.67C131.22 303.03 131.13 302.14 131.13 300.99C131.13 299.37 131.41 298.2 131.96 297.49C132.51 296.78 133.33 296.42 134.41 296.42C135.24 296.42 135.99 296.48 136.64 296.59V297.75H134.52C133.26 297.75 132.62 298.6 132.62 300.31C133.13 300.19 133.85 300.13 134.78 300.13C135.61 300.13 136.22 300.29 136.6 300.62C136.98 300.95 137.17 301.44 137.17 302.1V303.36C137.17 304.06 136.98 304.58 136.59 304.91C136.21 305.24 135.69 305.4 135.03 305.4H133.71C133.13 305.4 132.65 305.27 132.28 305.02L132.27 305.01ZM134.7 304.06C135.01 304.06 135.25 303.98 135.43 303.83C135.6 303.68 135.69 303.43 135.69 303.07V302.36C135.69 301.98 135.59 301.72 135.38 301.58C135.18 301.44 134.84 301.38 134.38 301.38H132.62C132.62 302.08 132.67 302.62 132.77 303.01C132.87 303.4 133.02 303.67 133.22 303.83C133.42 303.99 133.68 304.06 134 304.06H134.71H134.7Z" fill="white"/>
<path d="M138.53 305.3C138.53 305.3 138.46 305.21 138.46 305.14V304C138.46 303.85 138.54 303.77 138.69 303.77H139.54C139.69 303.77 139.77 303.85 139.77 304V305.14C139.77 305.28 139.69 305.36 139.54 305.36H138.69C138.63 305.36 138.57 305.34 138.53 305.3Z" fill="white"/>
<path d="M141.04 304.15L144.11 301.14C144.52 300.75 144.81 300.39 144.99 300.07C145.17 299.75 145.26 299.4 145.26 299.01C145.26 298.62 145.15 298.33 144.92 298.13C144.69 297.93 144.3 297.82 143.74 297.82H141.28V296.66C141.8 296.59 142.27 296.53 142.69 296.49C143.11 296.45 143.56 296.42 144.04 296.42C145.02 296.42 145.72 296.62 146.13 297.02C146.54 297.42 146.75 298.01 146.75 298.78C146.75 299.36 146.63 299.89 146.4 300.35C146.16 300.81 145.79 301.3 145.27 301.81L143.03 304.01H147.05V305.35H141.05V304.15H141.04Z" fill="white"/>
<path d="M111.86 319.38C111.49 318.37 111.3 317.19 111.3 315.83C111.3 314.47 111.49 313.38 111.88 312.34C112.26 311.3 112.78 310.33 113.43 309.42H114.77C114.15 310.45 113.67 311.48 113.32 312.51C112.97 313.54 112.79 314.64 112.79 315.83C112.79 317.02 112.95 318.12 113.28 319.11C113.61 320.09 114.1 321.15 114.77 322.27H113.43C112.76 321.36 112.24 320.4 111.86 319.38Z" fill="white"/>
<path d="M117.08 312.23L115.41 312.53V311.58L117.23 310.8H118.56V319.74H117.07V312.23H117.08Z" fill="white"/>
<path d="M120.58 319.64V318.48H122.7C123.97 318.48 124.61 317.63 124.61 315.92C124.1 316.04 123.38 316.1 122.45 316.1C121.62 316.1 121.01 315.94 120.63 315.61C120.25 315.28 120.05 314.79 120.05 314.12V312.86C120.05 312.16 120.24 311.65 120.63 311.32C121.02 310.99 121.54 310.83 122.2 310.83H123.52C124.1 310.83 124.58 310.96 124.95 311.21C125.32 311.47 125.61 311.91 125.8 312.55C126 313.19 126.09 314.08 126.09 315.23C126.09 316.85 125.81 318.02 125.26 318.73C124.71 319.44 123.89 319.8 122.81 319.8C121.99 319.8 121.24 319.74 120.57 319.63L120.58 319.64ZM124.61 314.83C124.61 314.13 124.56 313.59 124.46 313.2C124.36 312.81 124.21 312.54 124.02 312.39C123.82 312.24 123.56 312.16 123.23 312.16H122.52C122.2 312.16 121.96 312.23 121.79 312.38C121.62 312.53 121.54 312.78 121.54 313.14V313.85C121.54 314.23 121.64 314.49 121.85 314.62C122.06 314.75 122.39 314.82 122.85 314.82H124.61V314.83Z" fill="white"/>
<path d="M127.52 319.7C127.52 319.7 127.45 319.61 127.45 319.54V318.4C127.45 318.25 127.53 318.17 127.68 318.17H128.53C128.68 318.17 128.76 318.25 128.76 318.4V319.54C128.76 319.68 128.68 319.76 128.53 319.76H127.68C127.62 319.76 127.56 319.74 127.52 319.7Z" fill="white"/>
<path d="M130.599 319.64V318.48H132.719C133.989 318.48 134.629 317.63 134.629 315.92C134.119 316.04 133.399 316.1 132.469 316.1C131.639 316.1 131.029 315.94 130.649 315.61C130.269 315.28 130.069 314.79 130.069 314.12V312.86C130.069 312.16 130.259 311.65 130.649 311.32C131.039 310.99 131.559 310.83 132.219 310.83H133.539C134.119 310.83 134.599 310.96 134.969 311.21C135.339 311.47 135.629 311.91 135.819 312.55C136.019 313.19 136.109 314.08 136.109 315.23C136.109 316.85 135.829 318.02 135.279 318.73C134.729 319.44 133.909 319.8 132.829 319.8C132.009 319.8 131.259 319.74 130.589 319.63L130.599 319.64ZM134.629 314.83C134.629 314.13 134.579 313.59 134.479 313.2C134.379 312.81 134.229 312.54 134.039 312.39C133.839 312.24 133.579 312.16 133.249 312.16H132.539C132.219 312.16 131.979 312.23 131.809 312.38C131.639 312.53 131.559 312.78 131.559 313.14V313.85C131.559 314.23 131.659 314.49 131.869 314.62C132.079 314.75 132.409 314.82 132.869 314.82H134.629V314.83Z" fill="white"/>
<path d="M137.62 315.17C137.38 314.91 137.25 314.52 137.25 313.99V312.54C137.25 312 137.37 311.61 137.62 311.35C137.86 311.09 138.28 310.97 138.86 310.97H140.07C140.64 310.97 141.05 311.1 141.29 311.36C141.54 311.62 141.66 312.01 141.66 312.54V313.99C141.66 314.52 141.54 314.91 141.29 315.17C141.04 315.43 140.63 315.56 140.04 315.56H138.83C138.26 315.56 137.86 315.43 137.61 315.17H137.62ZM139.88 314.6C140.19 314.6 140.41 314.54 140.53 314.41C140.65 314.28 140.71 314.07 140.71 313.77V312.74C140.71 312.44 140.65 312.22 140.54 312.1C140.42 311.98 140.21 311.92 139.91 311.92H139.05C138.76 311.92 138.55 311.98 138.42 312.09C138.29 312.2 138.22 312.42 138.22 312.74V313.77C138.22 314.07 138.28 314.28 138.39 314.41C138.51 314.54 138.72 314.6 139.02 314.6H139.88ZM144.72 310.96H145.7L140.37 319.74H139.35L144.71 310.96H144.72ZM143.85 319.32C143.61 319.06 143.48 318.67 143.48 318.14V316.69C143.48 316.15 143.6 315.76 143.85 315.5C144.09 315.24 144.51 315.12 145.09 315.12H146.31C146.88 315.12 147.29 315.25 147.53 315.51C147.77 315.77 147.9 316.16 147.9 316.69V318.14C147.9 318.67 147.78 319.06 147.53 319.32C147.28 319.58 146.87 319.71 146.28 319.71H145.06C144.49 319.71 144.09 319.58 143.84 319.32H143.85ZM146.1 318.75C146.41 318.75 146.63 318.69 146.76 318.56C146.89 318.43 146.95 318.22 146.95 317.92V316.89C146.95 316.59 146.89 316.37 146.76 316.25C146.64 316.13 146.42 316.07 146.12 316.07H145.27C144.98 316.07 144.77 316.13 144.64 316.24C144.51 316.35 144.44 316.57 144.44 316.89V317.92C144.44 318.22 144.5 318.43 144.61 318.56C144.73 318.69 144.94 318.75 145.24 318.75H146.09H146.1Z" fill="white"/>
<path d="M150.01 319.18C150.35 318.16 150.53 317.05 150.53 315.85C150.53 314.65 150.37 313.55 150.05 312.57C149.73 311.59 149.23 310.55 148.56 309.43H149.89C150.57 310.34 151.09 311.3 151.46 312.31C151.83 313.32 152.01 314.5 152.01 315.85C152.01 317.2 151.82 318.32 151.45 319.35C151.07 320.38 150.55 321.35 149.89 322.27H148.56C149.18 321.23 149.67 320.2 150.01 319.18Z" fill="white"/>
<path d="M57.6419 197.896L57.5819 196.96L58.5299 196.672L58.5899 197.608L57.6419 197.896ZM57.5819 207.628V206.44L58.5899 206.452V207.628H57.5819ZM58.0739 206.632C57.8419 206.632 57.6019 206.624 57.3539 206.608C57.1139 206.6 56.8659 206.584 56.6099 206.56C56.3619 206.528 56.1259 206.496 55.9019 206.464C55.6779 206.424 55.4739 206.38 55.2899 206.332V204.928C55.5299 204.952 55.8019 204.972 56.1059 204.988C56.4099 205.004 56.7259 205.016 57.0539 205.024C57.3819 205.032 57.6939 205.036 57.9899 205.036C58.2939 205.036 58.5539 205.012 58.7699 204.964C58.9939 204.908 59.1659 204.816 59.2859 204.688C59.4059 204.552 59.4659 204.368 59.4659 204.136V203.812C59.4659 203.548 59.3859 203.348 59.2259 203.212C59.0739 203.068 58.8539 202.996 58.5659 202.996H57.8099C56.9619 202.996 56.3099 202.812 55.8539 202.444C55.4059 202.068 55.1819 201.432 55.1819 200.536V200.104C55.1819 199.24 55.4299 198.608 55.9259 198.208C56.4219 197.808 57.1299 197.608 58.0499 197.608C58.3779 197.608 58.7019 197.624 59.0219 197.656C59.3499 197.688 59.6619 197.728 59.9579 197.776C60.2619 197.816 60.5219 197.86 60.7379 197.908V199.312C60.3699 199.288 59.9579 199.264 59.5019 199.24C59.0539 199.216 58.6379 199.204 58.2539 199.204C57.9819 199.204 57.7379 199.232 57.5219 199.288C57.3139 199.336 57.1539 199.432 57.0419 199.576C56.9299 199.72 56.8739 199.924 56.8739 200.188V200.428C56.8739 200.74 56.9619 200.964 57.1379 201.1C57.3139 201.236 57.5739 201.304 57.9179 201.304H58.7939C59.3299 201.304 59.7699 201.404 60.1139 201.604C60.4659 201.796 60.7259 202.064 60.8939 202.408C61.0699 202.752 61.1579 203.144 61.1579 203.584V204.088C61.1579 204.784 61.0259 205.316 60.7619 205.684C60.5059 206.052 60.1459 206.304 59.6819 206.44C59.2259 206.568 58.6899 206.632 58.0739 206.632ZM65.7944 206.632C65.1544 206.632 64.5424 206.608 63.9584 206.56C63.3824 206.52 62.8624 206.46 62.3984 206.38V204.952H65.1224C65.4504 204.952 65.7184 204.928 65.9264 204.88C66.1344 204.832 66.2864 204.748 66.3824 204.628C66.4864 204.508 66.5384 204.34 66.5384 204.124V203.752C66.5384 203.536 66.4864 203.368 66.3824 203.248C66.2784 203.12 66.1384 203.028 65.9624 202.972C65.7944 202.908 65.5984 202.872 65.3744 202.864L63.1904 202.78V201.412L65.3024 201.292C65.6624 201.276 65.9424 201.212 66.1424 201.1C66.3424 200.988 66.4424 200.796 66.4424 200.524V200.224C66.4424 199.904 66.3344 199.668 66.1184 199.516C65.9104 199.364 65.5584 199.288 65.0624 199.288H62.5904V197.872C63.0464 197.8 63.5424 197.736 64.0784 197.68C64.6144 197.616 65.1784 197.592 65.7704 197.608C66.2904 197.616 66.7304 197.704 67.0904 197.872C67.4504 198.032 67.7224 198.276 67.9064 198.604C68.0984 198.924 68.1944 199.324 68.1944 199.804V200.464C68.1944 200.688 68.1664 200.892 68.1104 201.076C68.0624 201.26 67.9864 201.42 67.8824 201.556C67.7784 201.684 67.6584 201.796 67.5224 201.892C67.3864 201.98 67.2424 202.048 67.0904 202.096C67.2584 202.136 67.4144 202.212 67.5584 202.324C67.7104 202.436 67.8424 202.572 67.9544 202.732C68.0664 202.884 68.1544 203.068 68.2184 203.284C68.2904 203.5 68.3264 203.736 68.3264 203.992V204.448C68.3264 205.16 68.1024 205.704 67.6544 206.08C67.2064 206.448 66.5864 206.632 65.7944 206.632ZM73.3916 206.548V204.676H69.5036L69.1676 203.836L72.0476 197.68H73.8596L71.2796 203.164H73.3916V201.436L73.7396 200.416H75.1676V203.164H76.0796V204.388L75.1676 204.676V206.548H73.3916ZM77.2093 206.572C77.0493 206.572 76.9693 206.492 76.9693 206.332V205.108C76.9693 204.94 77.0493 204.856 77.2093 204.856H78.2413C78.4173 204.856 78.5053 204.94 78.5053 205.108V206.332C78.5053 206.428 78.4773 206.492 78.4213 206.524C78.3733 206.556 78.3133 206.572 78.2413 206.572H77.2093ZM82.1698 206.608C81.8658 206.608 81.5698 206.58 81.2818 206.524C81.0018 206.468 80.7498 206.372 80.5258 206.236C80.3098 206.092 80.1378 205.896 80.0098 205.648C79.8898 205.392 79.8298 205.068 79.8298 204.676V203.464C79.8298 203.232 79.8698 203.02 79.9498 202.828C80.0298 202.628 80.1418 202.456 80.2858 202.312C80.4378 202.168 80.6138 202.076 80.8138 202.036C80.5658 201.916 80.3818 201.776 80.2618 201.616C80.1498 201.448 80.0778 201.268 80.0458 201.076C80.0218 200.884 80.0098 200.684 80.0098 200.476V199.468C80.0098 199.012 80.1018 198.648 80.2858 198.376C80.4778 198.104 80.7338 197.908 81.0538 197.788C81.3738 197.668 81.7178 197.608 82.0858 197.608H83.7658C84.1498 197.608 84.4938 197.668 84.7978 197.788C85.1018 197.908 85.3458 198.104 85.5298 198.376C85.7138 198.648 85.8058 199.012 85.8058 199.468V200.476C85.8058 200.58 85.7938 200.704 85.7698 200.848C85.7458 200.992 85.7018 201.14 85.6378 201.292C85.5818 201.444 85.5018 201.572 85.3978 201.676C85.2938 201.78 85.1658 201.852 85.0138 201.892C85.2858 201.948 85.4898 202.068 85.6258 202.252C85.7618 202.428 85.8538 202.624 85.9018 202.84C85.9498 203.056 85.9738 203.252 85.9738 203.428V204.676C85.9738 205.204 85.8738 205.608 85.6738 205.888C85.4818 206.16 85.2218 206.348 84.8938 206.452C84.5658 206.556 84.1978 206.608 83.7898 206.608H82.1698ZM82.4818 205.108H83.3698C83.6978 205.108 83.9178 205.044 84.0298 204.916C84.1418 204.78 84.1978 204.592 84.1978 204.352V203.56C84.1978 203.304 84.1298 203.112 83.9938 202.984C83.8658 202.848 83.6578 202.78 83.3698 202.78H82.4698C82.3658 202.78 82.2618 202.796 82.1578 202.828C82.0538 202.86 81.9618 202.908 81.8818 202.972C81.8018 203.036 81.7338 203.12 81.6778 203.224C81.6298 203.32 81.6058 203.432 81.6058 203.56V204.352C81.6058 204.624 81.6818 204.82 81.8338 204.94C81.9858 205.052 82.2018 205.108 82.4818 205.108ZM82.4698 201.268H83.3458C83.5458 201.268 83.6938 201.232 83.7898 201.16C83.8938 201.088 83.9658 200.992 84.0058 200.872C84.0458 200.744 84.0658 200.604 84.0658 200.452V199.888C84.0658 199.568 84.0018 199.36 83.8738 199.264C83.7458 199.168 83.5778 199.12 83.3698 199.12H82.4818C82.2258 199.12 82.0378 199.172 81.9178 199.276C81.7978 199.38 81.7378 199.584 81.7378 199.888V200.452C81.7378 200.756 81.7938 200.968 81.9058 201.088C82.0258 201.208 82.2138 201.268 82.4698 201.268Z" fill="white"/>
<path d="M52.0477 223.48C51.6557 222.984 51.2957 222.432 50.9677 221.824C50.6397 221.224 50.3757 220.532 50.1757 219.748C49.9757 218.964 49.8757 218.064 49.8757 217.048C49.8757 216.072 49.9797 215.196 50.1877 214.42C50.3957 213.636 50.6637 212.932 50.9917 212.308C51.3197 211.676 51.6717 211.12 52.0477 210.64H53.6317C53.2877 211.208 52.9637 211.82 52.6597 212.476C52.3637 213.132 52.1197 213.84 51.9277 214.6C51.7437 215.352 51.6517 216.168 51.6517 217.048C51.6517 217.92 51.7317 218.716 51.8917 219.436C52.0597 220.156 52.2917 220.84 52.5877 221.488C52.8837 222.144 53.2317 222.808 53.6317 223.48H52.0477ZM55.7643 220.96V213.7L54.1923 213.904V212.764L55.9563 211.996H57.5403V220.96H55.7643ZM62.0532 221.02C61.5652 221.02 61.0532 221 60.5172 220.96C59.9812 220.92 59.4732 220.876 58.9932 220.828V219.424H62.1252C62.4132 219.424 62.6372 219.376 62.7972 219.28C62.9652 219.184 63.0812 219.06 63.1452 218.908C63.2172 218.748 63.2532 218.584 63.2532 218.416V217.804C63.2532 217.524 63.1812 217.304 63.0372 217.144C62.9012 216.976 62.6692 216.892 62.3412 216.892H61.6452C61.3812 216.892 61.1812 216.948 61.0452 217.06C60.9172 217.164 60.8332 217.328 60.7932 217.552H59.1132L59.3652 212.08H64.6932V213.676H60.8892L60.7932 215.788C60.9132 215.66 61.0772 215.564 61.2852 215.5C61.5012 215.428 61.7412 215.392 62.0052 215.392H62.9772C63.4412 215.392 63.8252 215.484 64.1292 215.668C64.4332 215.852 64.6612 216.104 64.8132 216.424C64.9652 216.736 65.0412 217.088 65.0412 217.48V218.788C65.0412 219.308 64.9252 219.732 64.6932 220.06C64.4612 220.388 64.1252 220.632 63.6852 220.792C63.2452 220.944 62.7012 221.02 62.0532 221.02ZM66.4622 220.972C66.3022 220.972 66.2222 220.892 66.2222 220.732V219.508C66.2222 219.34 66.3022 219.256 66.4622 219.256H67.4942C67.6702 219.256 67.7582 219.34 67.7582 219.508V220.732C67.7582 220.828 67.7302 220.892 67.6742 220.924C67.6262 220.956 67.5662 220.972 67.4942 220.972H66.4622ZM71.3747 221.008C70.8787 221.008 70.4547 220.924 70.1027 220.756C69.7587 220.58 69.4947 220.32 69.3107 219.976C69.1347 219.632 69.0467 219.212 69.0467 218.716V214.396C69.0467 213.876 69.1387 213.44 69.3227 213.088C69.5067 212.728 69.7747 212.46 70.1267 212.284C70.4867 212.1 70.9067 212.008 71.3867 212.008H73.2347C73.7387 212.008 74.1547 212.104 74.4827 212.296C74.8187 212.48 75.0707 212.752 75.2387 213.112C75.4067 213.464 75.4907 213.892 75.4907 214.396V218.716C75.4907 219.46 75.2907 220.028 74.8907 220.42C74.4987 220.812 73.9467 221.008 73.2347 221.008H71.3747ZM71.7947 219.412H72.7547C73.0827 219.412 73.3227 219.332 73.4747 219.172C73.6347 219.012 73.7147 218.772 73.7147 218.452V214.564C73.7147 214.212 73.6347 213.964 73.4747 213.82C73.3147 213.676 73.0987 213.604 72.8267 213.604H71.7347C71.4387 213.604 71.2107 213.684 71.0507 213.844C70.8987 214.004 70.8227 214.244 70.8227 214.564V218.44C70.8227 218.776 70.9067 219.024 71.0747 219.184C71.2427 219.336 71.4827 219.412 71.7947 219.412ZM78.6163 220.96L84.0163 212.176H85.1683L79.8403 220.96H78.6163ZM78.1603 216.772C77.5763 216.772 77.1603 216.636 76.9123 216.364C76.6723 216.092 76.5522 215.7 76.5522 215.188V213.76C76.5522 213.248 76.6723 212.856 76.9123 212.584C77.1523 212.312 77.5763 212.176 78.1843 212.176H79.3963C79.9883 212.176 80.4043 212.312 80.6443 212.584C80.8843 212.856 81.0043 213.248 81.0043 213.76V215.188C81.0043 215.7 80.8843 216.092 80.6443 216.364C80.4043 216.636 79.9803 216.772 79.3723 216.772H78.1603ZM78.3763 215.62H79.1562C79.4283 215.62 79.6123 215.564 79.7083 215.452C79.8123 215.332 79.8643 215.156 79.8643 214.924V214.024C79.8643 213.752 79.8123 213.568 79.7083 213.472C79.6043 213.376 79.4283 213.328 79.1803 213.328H78.4003C78.1843 213.328 78.0123 213.372 77.8843 213.46C77.7643 213.54 77.7043 213.728 77.7043 214.024V214.924C77.7043 215.156 77.7483 215.332 77.8363 215.452C77.9323 215.564 78.1123 215.62 78.3763 215.62ZM84.4843 220.924C83.9003 220.924 83.4883 220.788 83.2483 220.516C83.0083 220.244 82.8883 219.852 82.8883 219.34V217.912C82.8883 217.4 83.0043 217.008 83.2363 216.736C83.4763 216.464 83.9003 216.328 84.5083 216.328H85.7323C86.3243 216.328 86.7403 216.464 86.9803 216.736C87.2203 217.008 87.3403 217.4 87.3403 217.912V219.34C87.3403 219.852 87.2203 220.244 86.9803 220.516C86.7403 220.788 86.3163 220.924 85.7083 220.924H84.4843ZM84.7123 219.772H85.4803C85.7603 219.772 85.9483 219.716 86.0443 219.604C86.1483 219.484 86.2003 219.308 86.2003 219.076V218.176C86.2003 217.904 86.1443 217.72 86.0323 217.624C85.9283 217.528 85.7523 217.48 85.5043 217.48H84.7363C84.5203 217.48 84.3483 217.524 84.2203 217.612C84.0923 217.692 84.0283 217.88 84.0283 218.176V219.076C84.0283 219.308 84.0723 219.484 84.1603 219.604C84.2563 219.716 84.4403 219.772 84.7123 219.772ZM87.9027 223.48C88.2627 222.896 88.5907 222.276 88.8867 221.62C89.1907 220.972 89.4307 220.272 89.6067 219.52C89.7907 218.768 89.8827 217.948 89.8827 217.06C89.8827 216.188 89.8027 215.396 89.6427 214.684C89.4907 213.972 89.2667 213.288 88.9707 212.632C88.6747 211.976 88.3187 211.312 87.9027 210.64H89.4987C89.8987 211.136 90.2627 211.688 90.5907 212.296C90.9187 212.904 91.1787 213.596 91.3707 214.372C91.5707 215.148 91.6707 216.044 91.6707 217.06C91.6707 218.036 91.5667 218.916 91.3587 219.7C91.1587 220.476 90.8947 221.172 90.5667 221.788C90.2387 222.412 89.8827 222.976 89.4987 223.48H87.9027Z" fill="white"/>
<path d="M111.73 98.13C112.12 98.53 112.31 99.07 112.31 99.73V100.29C112.31 101.14 112.09 101.74 111.66 102.1C111.23 102.46 110.6 102.66 109.79 102.71V103.72H108.94V102.71C108.53 102.69 108.11 102.66 107.67 102.62C107.23 102.58 106.87 102.52 106.58 102.46V101.3C107.3 101.36 108.19 101.4 109.26 101.4C109.8 101.4 110.2 101.32 110.48 101.17C110.76 101.02 110.89 100.74 110.89 100.34V99.92C110.89 99.61 110.8 99.37 110.63 99.2C110.46 99.03 110.19 98.95 109.85 98.95H109.02C108.18 98.95 107.55 98.77 107.13 98.4C106.71 98.03 106.5 97.44 106.5 96.61V96.15C106.5 95.36 106.71 94.77 107.13 94.37C107.55 93.98 108.17 93.76 109 93.72L108.94 93.22L109.7 92.76L109.8 93.5L109.43 93.72C109.83 93.72 110.25 93.76 110.7 93.81C111.15 93.86 111.55 93.92 111.9 94V95.16C110.82 95.09 110 95.05 109.44 95.05C108.94 95.05 108.56 95.13 108.31 95.3C108.06 95.47 107.93 95.77 107.93 96.21V96.51C107.93 96.87 108.03 97.13 108.22 97.29C108.42 97.45 108.71 97.53 109.11 97.53H110.03C110.77 97.53 111.34 97.73 111.73 98.14V98.13Z" fill="white"/>
<path d="M113.69 102.5V101.31H116.47C117 101.31 117.39 101.24 117.64 101.09C117.89 100.95 118.02 100.68 118.02 100.3V99.8599C118.02 99.5199 117.9 99.2599 117.66 99.0999C117.42 98.9399 117.11 98.8499 116.72 98.8399L114.51 98.7399V97.6099L116.66 97.4999C117.07 97.4799 117.38 97.4099 117.59 97.2699C117.8 97.1299 117.91 96.9099 117.91 96.5999V96.1899C117.91 95.8199 117.79 95.5499 117.54 95.3699C117.3 95.1899 116.91 95.1099 116.39 95.1099H113.91V93.9199C115.05 93.7599 116.07 93.6899 116.98 93.6999C117.76 93.6999 118.35 93.8999 118.76 94.2599C119.17 94.6299 119.38 95.1599 119.38 95.8399V96.5199C119.38 96.9799 119.27 97.3399 119.04 97.6099C118.82 97.8799 118.54 98.0599 118.2 98.1599C118.54 98.2599 118.85 98.4699 119.11 98.7999C119.37 99.1299 119.51 99.5399 119.51 100.04V100.56C119.51 101.25 119.29 101.78 118.85 102.15C118.41 102.52 117.79 102.71 117 102.71C115.75 102.71 114.64 102.64 113.68 102.49L113.69 102.5Z" fill="white"/>
<path d="M122.02 102.31C121.65 102.05 121.36 101.61 121.17 100.97C120.97 100.33 120.88 99.44 120.88 98.29C120.88 96.67 121.16 95.5 121.71 94.79C122.26 94.08 123.08 93.72 124.16 93.72C124.99 93.72 125.74 93.78 126.39 93.89V95.05H124.27C123.01 95.05 122.37 95.9 122.37 97.61C122.88 97.49 123.6 97.43 124.53 97.43C125.36 97.43 125.97 97.59 126.35 97.92C126.73 98.25 126.92 98.74 126.92 99.4V100.66C126.92 101.36 126.73 101.88 126.34 102.21C125.96 102.54 125.44 102.7 124.78 102.7H123.46C122.88 102.7 122.4 102.57 122.03 102.32L122.02 102.31ZM124.45 101.36C124.76 101.36 125 101.28 125.18 101.13C125.35 100.98 125.44 100.73 125.44 100.37V99.66C125.44 99.28 125.34 99.02 125.13 98.88C124.92 98.74 124.59 98.68 124.13 98.68H122.37C122.37 99.38 122.42 99.92 122.52 100.31C122.62 100.7 122.77 100.97 122.97 101.13C123.17 101.29 123.43 101.36 123.75 101.36H124.46H124.45Z" fill="white"/>
<path d="M128.28 102.6C128.28 102.6 128.21 102.51 128.21 102.44V101.3C128.21 101.15 128.29 101.07 128.44 101.07H129.29C129.44 101.07 129.52 101.15 129.52 101.3V102.44C129.52 102.58 129.44 102.66 129.29 102.66H128.44C128.38 102.66 128.32 102.64 128.28 102.6Z" fill="white"/>
<path d="M134.53 95.27H130.51V93.79H136.03L136.44 94.45L133.4 102.65H131.73L134.53 95.27Z" fill="white"/>
<path d="M101.41 116.68C101.04 115.67 100.85 114.49 100.85 113.13C100.85 111.77 101.04 110.68 101.43 109.64C101.81 108.6 102.33 107.63 102.98 106.72H104.32C103.7 107.75 103.22 108.78 102.87 109.81C102.52 110.84 102.34 111.94 102.34 113.13C102.34 114.32 102.5 115.42 102.83 116.41C103.16 117.39 103.65 118.45 104.32 119.57H102.98C102.31 118.66 101.79 117.7 101.41 116.68Z" fill="white"/>
<path d="M106.63 109.53L104.96 109.83V108.88L106.78 108.1H108.11V117.04H106.62V109.53H106.63Z" fill="white"/>
<path d="M109.779 116.94V115.78H112.889C113.339 115.78 113.679 115.67 113.899 115.45C114.129 115.23 114.239 114.95 114.239 114.62V113.88C114.239 113.54 114.149 113.28 113.959 113.1C113.779 112.92 113.499 112.82 113.119 112.82H112.339C112.039 112.82 111.809 112.88 111.649 113.01C111.489 113.14 111.379 113.33 111.329 113.6H109.929L110.179 108.2H115.399V109.53H111.459L111.339 112.04C111.459 111.9 111.629 111.78 111.859 111.69C112.079 111.6 112.339 111.56 112.639 111.56H113.639C114.309 111.56 114.829 111.75 115.189 112.13C115.549 112.51 115.729 113 115.729 113.61V114.92C115.729 116.38 114.759 117.12 112.829 117.12C111.859 117.12 110.849 117.06 109.779 116.95V116.94Z" fill="white"/>
<path d="M117.11 117C117.11 117 117.04 116.91 117.04 116.84V115.7C117.04 115.55 117.12 115.47 117.27 115.47H118.12C118.27 115.47 118.35 115.55 118.35 115.7V116.84C118.35 116.98 118.27 117.06 118.12 117.06H117.27C117.21 117.06 117.15 117.04 117.11 117Z" fill="white"/>
<path d="M119.82 115.22V113.98C119.82 113.62 119.92 113.31 120.12 113.04C120.32 112.77 120.57 112.61 120.86 112.54C120.52 112.37 120.29 112.16 120.17 111.91C120.05 111.66 120 111.35 120 110.98V109.96C120 109.33 120.19 108.86 120.56 108.56C120.93 108.26 121.42 108.11 122.03 108.11H123.7C124.3 108.11 124.78 108.26 125.13 108.55C125.49 108.85 125.66 109.31 125.66 109.95V110.97C125.66 111.26 125.59 111.55 125.45 111.85C125.31 112.15 125.1 112.33 124.83 112.39C125.18 112.47 125.44 112.66 125.59 112.95C125.75 113.25 125.82 113.57 125.82 113.92V115.2C125.82 115.88 125.63 116.36 125.26 116.65C124.88 116.93 124.37 117.08 123.71 117.08H122.09C120.57 117.08 119.81 116.46 119.81 115.21L119.82 115.22ZM123.38 115.82C123.73 115.82 123.98 115.75 124.12 115.61C124.26 115.47 124.34 115.25 124.34 114.96V114.06C124.34 113.75 124.26 113.52 124.11 113.38C123.95 113.24 123.7 113.16 123.36 113.16H122.34C122.08 113.16 121.84 113.24 121.63 113.39C121.42 113.54 121.31 113.77 121.31 114.06V114.96C121.31 115.26 121.4 115.48 121.57 115.62C121.74 115.76 122 115.82 122.34 115.82H123.38ZM123.34 111.88C123.92 111.88 124.2 111.58 124.2 110.97V110.31C124.2 109.96 124.13 109.71 124 109.58C123.86 109.44 123.66 109.38 123.38 109.38H122.34C122.02 109.38 121.79 109.45 121.66 109.59C121.52 109.73 121.46 109.97 121.46 110.32V110.98C121.46 111.29 121.53 111.52 121.67 111.67C121.81 111.82 122.04 111.89 122.35 111.89H123.36L123.34 111.88Z" fill="white"/>
<path d="M127.439 112.47C127.199 112.21 127.069 111.82 127.069 111.29V109.84C127.069 109.3 127.189 108.91 127.439 108.65C127.679 108.39 128.099 108.27 128.679 108.27H129.889C130.459 108.27 130.869 108.4 131.109 108.66C131.359 108.92 131.479 109.31 131.479 109.84V111.29C131.479 111.82 131.359 112.21 131.109 112.47C130.859 112.73 130.449 112.86 129.859 112.86H128.649C128.079 112.86 127.679 112.73 127.429 112.47H127.439ZM129.699 111.9C130.009 111.9 130.229 111.84 130.349 111.71C130.469 111.59 130.529 111.37 130.529 111.07V110.04C130.529 109.74 130.469 109.52 130.359 109.4C130.239 109.28 130.029 109.22 129.729 109.22H128.869C128.579 109.22 128.369 109.28 128.239 109.39C128.109 109.5 128.039 109.72 128.039 110.04V111.07C128.039 111.37 128.099 111.58 128.209 111.71C128.319 111.84 128.539 111.9 128.839 111.9H129.699ZM134.539 108.26H135.519L130.189 117.04H129.169L134.529 108.26H134.539ZM133.669 116.62C133.429 116.36 133.299 115.97 133.299 115.44V113.99C133.299 113.45 133.419 113.06 133.669 112.8C133.919 112.54 134.329 112.42 134.909 112.42H136.129C136.699 112.42 137.109 112.55 137.349 112.81C137.599 113.07 137.719 113.46 137.719 113.99V115.44C137.719 115.97 137.599 116.36 137.349 116.62C137.099 116.88 136.689 117.01 136.099 117.01H134.879C134.309 117.01 133.909 116.88 133.659 116.62H133.669ZM135.919 116.05C136.229 116.05 136.449 115.99 136.579 115.86C136.709 115.73 136.769 115.52 136.769 115.22V114.19C136.769 113.89 136.709 113.67 136.579 113.55C136.449 113.43 136.239 113.37 135.939 113.37H135.089C134.799 113.37 134.589 113.43 134.459 113.54C134.329 113.65 134.259 113.87 134.259 114.19V115.22C134.259 115.52 134.319 115.73 134.429 115.86C134.549 115.99 134.759 116.05 135.059 116.05H135.909H135.919Z" fill="white"/>
<path d="M139.83 116.48C140.17 115.46 140.35 114.35 140.35 113.15C140.35 111.95 140.19 110.85 139.87 109.87C139.55 108.89 139.05 107.85 138.38 106.73H139.71C140.39 107.64 140.91 108.6 141.28 109.61C141.65 110.62 141.83 111.8 141.83 113.15C141.83 114.5 141.64 115.62 141.27 116.65C140.89 117.68 140.37 118.65 139.71 119.57H138.38C139 118.53 139.49 117.5 139.83 116.48Z" fill="white"/>
<path d="M72.4417 12.316L72.3817 11.38L73.3297 11.092L73.3897 12.028L72.4417 12.316ZM72.3817 22.048V20.86L73.3897 20.872V22.048H72.3817ZM72.8737 21.052C72.6417 21.052 72.4017 21.044 72.1537 21.028C71.9137 21.02 71.6657 21.004 71.4097 20.98C71.1617 20.948 70.9257 20.916 70.7017 20.884C70.4777 20.844 70.2737 20.8 70.0897 20.752V19.348C70.3297 19.372 70.6017 19.392 70.9057 19.408C71.2097 19.424 71.5257 19.436 71.8537 19.444C72.1817 19.452 72.4937 19.456 72.7897 19.456C73.0937 19.456 73.3537 19.432 73.5697 19.384C73.7937 19.328 73.9657 19.236 74.0857 19.108C74.2057 18.972 74.2657 18.788 74.2657 18.556V18.232C74.2657 17.968 74.1857 17.768 74.0257 17.632C73.8737 17.488 73.6537 17.416 73.3657 17.416H72.6097C71.7617 17.416 71.1097 17.232 70.6537 16.864C70.2057 16.488 69.9817 15.852 69.9817 14.956V14.524C69.9817 13.66 70.2297 13.028 70.7257 12.628C71.2217 12.228 71.9297 12.028 72.8497 12.028C73.1777 12.028 73.5017 12.044 73.8217 12.076C74.1497 12.108 74.4617 12.148 74.7577 12.196C75.0617 12.236 75.3217 12.28 75.5377 12.328V13.732C75.1697 13.708 74.7577 13.684 74.3017 13.66C73.8537 13.636 73.4377 13.624 73.0537 13.624C72.7817 13.624 72.5377 13.652 72.3217 13.708C72.1137 13.756 71.9537 13.852 71.8417 13.996C71.7297 14.14 71.6737 14.344 71.6737 14.608V14.848C71.6737 15.16 71.7617 15.384 71.9377 15.52C72.1137 15.656 72.3737 15.724 72.7177 15.724H73.5937C74.1297 15.724 74.5697 15.824 74.9137 16.024C75.2657 16.216 75.5257 16.484 75.6937 16.828C75.8697 17.172 75.9577 17.564 75.9577 18.004V18.508C75.9577 19.204 75.8257 19.736 75.5617 20.104C75.3057 20.472 74.9457 20.724 74.4817 20.86C74.0257 20.988 73.4897 21.052 72.8737 21.052ZM77.2942 20.98V19.552L80.2582 16.612C80.4982 16.38 80.6942 16.164 80.8462 15.964C80.9982 15.764 81.1102 15.568 81.1822 15.376C81.2622 15.176 81.3022 14.964 81.3022 14.74C81.3022 14.524 81.2582 14.34 81.1702 14.188C81.0902 14.028 80.9542 13.908 80.7622 13.828C80.5782 13.748 80.3222 13.708 79.9942 13.708H77.4982V12.316C77.8822 12.244 78.3062 12.18 78.7702 12.124C79.2422 12.06 79.7662 12.028 80.3422 12.028C81.0382 12.028 81.5822 12.124 81.9742 12.316C82.3742 12.508 82.6582 12.784 82.8262 13.144C82.9942 13.504 83.0782 13.94 83.0782 14.452C83.0782 14.852 83.0222 15.216 82.9102 15.544C82.8062 15.872 82.6502 16.188 82.4422 16.492C82.2342 16.788 81.9702 17.088 81.6502 17.392L79.6582 19.372H83.3542V20.98H77.2942ZM84.6614 20.992C84.5014 20.992 84.4214 20.912 84.4214 20.752V19.528C84.4214 19.36 84.5014 19.276 84.6614 19.276H85.6934C85.8694 19.276 85.9574 19.36 85.9574 19.528V20.752C85.9574 20.848 85.9294 20.912 85.8734 20.944C85.8254 20.976 85.7654 20.992 85.6934 20.992H84.6614ZM89.8499 21.04C89.4179 21.04 89.0339 20.976 88.6979 20.848C88.3699 20.712 88.0939 20.484 87.8699 20.164C87.6459 19.836 87.4779 19.388 87.3659 18.82C87.2539 18.252 87.1979 17.532 87.1979 16.66C87.1979 15.788 87.2699 15.056 87.4139 14.464C87.5659 13.872 87.7859 13.396 88.0739 13.036C88.3699 12.676 88.7219 12.42 89.1299 12.268C89.5459 12.108 90.0179 12.028 90.5459 12.028C90.9379 12.028 91.3339 12.044 91.7339 12.076C92.1339 12.108 92.4939 12.156 92.8139 12.22V13.624H90.7139C90.1139 13.624 89.6739 13.812 89.3939 14.188C89.1139 14.556 88.9739 15.104 88.9739 15.832C89.1659 15.776 89.3619 15.736 89.5619 15.712C89.7699 15.68 89.9899 15.66 90.2219 15.652C90.4619 15.636 90.7139 15.628 90.9779 15.628C91.5619 15.628 92.0259 15.712 92.3699 15.88C92.7219 16.04 92.9699 16.276 93.1139 16.588C93.2659 16.892 93.3419 17.252 93.3419 17.668V18.94C93.3419 19.444 93.2459 19.848 93.0539 20.152C92.8699 20.456 92.6099 20.68 92.2739 20.824C91.9459 20.968 91.5699 21.04 91.1459 21.04H89.8499ZM90.2099 19.444H90.7379C90.9139 19.444 91.0619 19.416 91.1819 19.36C91.3019 19.304 91.3939 19.212 91.4579 19.084C91.5299 18.956 91.5659 18.792 91.5659 18.592V18.004C91.5659 17.772 91.5259 17.596 91.4459 17.476C91.3739 17.348 91.2579 17.26 91.0979 17.212C90.9379 17.164 90.7339 17.14 90.4859 17.14H88.9739C88.9739 17.596 88.9979 17.976 89.0459 18.28C89.0939 18.576 89.1699 18.808 89.2739 18.976C89.3779 19.144 89.5059 19.264 89.6579 19.336C89.8099 19.408 89.9939 19.444 90.2099 19.444ZM99.8368 23.5C99.4448 23.004 99.0848 22.452 98.7568 21.844C98.4288 21.244 98.1648 20.552 97.9648 19.768C97.7648 18.984 97.6648 18.084 97.6648 17.068C97.6648 16.092 97.7688 15.216 97.9768 14.44C98.1848 13.656 98.4528 12.952 98.7808 12.328C99.1088 11.696 99.4608 11.14 99.8368 10.66H101.421C101.077 11.228 100.753 11.84 100.449 12.496C100.153 13.152 99.9088 13.86 99.7168 14.62C99.5328 15.372 99.4408 16.188 99.4408 17.068C99.4408 17.94 99.5208 18.736 99.6808 19.456C99.8488 20.176 100.081 20.86 100.377 21.508C100.673 22.164 101.021 22.828 101.421 23.5H99.8368ZM103.553 20.98V13.72L101.981 13.924V12.784L103.745 12.016H105.329V20.98H103.553ZM106.962 20.992C106.802 20.992 106.722 20.912 106.722 20.752V19.528C106.722 19.36 106.802 19.276 106.962 19.276H107.994C108.17 19.276 108.258 19.36 108.258 19.528V20.752C108.258 20.848 108.23 20.912 108.174 20.944C108.126 20.976 108.066 20.992 107.994 20.992H106.962ZM109.987 20.98V13.72L108.415 13.924V12.784L110.179 12.016H111.763V20.98H109.987ZM114.968 20.98L120.368 12.196H121.52L116.192 20.98H114.968ZM114.512 16.792C113.928 16.792 113.512 16.656 113.264 16.384C113.024 16.112 112.904 15.72 112.904 15.208V13.78C112.904 13.268 113.024 12.876 113.264 12.604C113.504 12.332 113.928 12.196 114.536 12.196H115.748C116.34 12.196 116.756 12.332 116.996 12.604C117.236 12.876 117.356 13.268 117.356 13.78V15.208C117.356 15.72 117.236 16.112 116.996 16.384C116.756 16.656 116.332 16.792 115.724 16.792H114.512ZM114.728 15.64H115.508C115.78 15.64 115.964 15.584 116.06 15.472C116.164 15.352 116.216 15.176 116.216 14.944V14.044C116.216 13.772 116.164 13.588 116.06 13.492C115.956 13.396 115.78 13.348 115.532 13.348H114.752C114.536 13.348 114.364 13.392 114.236 13.48C114.116 13.56 114.056 13.748 114.056 14.044V14.944C114.056 15.176 114.1 15.352 114.188 15.472C114.284 15.584 114.464 15.64 114.728 15.64ZM120.836 20.944C120.252 20.944 119.84 20.808 119.6 20.536C119.36 20.264 119.24 19.872 119.24 19.36V17.932C119.24 17.42 119.356 17.028 119.588 16.756C119.828 16.484 120.252 16.348 120.86 16.348H122.084C122.676 16.348 123.092 16.484 123.332 16.756C123.572 17.028 123.692 17.42 123.692 17.932V19.36C123.692 19.872 123.572 20.264 123.332 20.536C123.092 20.808 122.668 20.944 122.06 20.944H120.836ZM121.064 19.792H121.832C122.112 19.792 122.3 19.736 122.396 19.624C122.5 19.504 122.552 19.328 122.552 19.096V18.196C122.552 17.924 122.496 17.74 122.384 17.644C122.28 17.548 122.104 17.5 121.856 17.5H121.088C120.872 17.5 120.7 17.544 120.572 17.632C120.444 17.712 120.38 17.9 120.38 18.196V19.096C120.38 19.328 120.424 19.504 120.512 19.624C120.608 19.736 120.792 19.792 121.064 19.792ZM124.254 23.5C124.614 22.916 124.942 22.296 125.238 21.64C125.542 20.992 125.782 20.292 125.958 19.54C126.142 18.788 126.234 17.968 126.234 17.08C126.234 16.208 126.154 15.416 125.994 14.704C125.842 13.992 125.618 13.308 125.322 12.652C125.026 11.996 124.67 11.332 124.254 10.66H125.85C126.25 11.156 126.614 11.708 126.942 12.316C127.27 12.924 127.53 13.616 127.722 14.392C127.922 15.168 128.022 16.064 128.022 17.08C128.022 18.056 127.918 18.936 127.71 19.72C127.51 20.496 127.246 21.192 126.918 21.808C126.59 22.432 126.234 22.996 125.85 23.5H124.254Z" fill="#4F4E4E"/>
<path d="M191.05 274.88C230.782 274.88 262.99 242.671 262.99 202.94C262.99 163.209 230.782 131 191.05 131C151.319 131 119.11 163.209 119.11 202.94C119.11 242.671 151.319 274.88 191.05 274.88Z" fill="white"/>
<path d="M191.05 127.85C149.58 127.85 115.96 161.47 115.96 202.94C115.96 244.41 149.58 278.03 191.05 278.03C232.52 278.03 266.14 244.41 266.14 202.94C266.14 161.47 232.52 127.85 191.05 127.85ZM191.05 274.27C151.65 274.27 119.72 242.33 119.72 202.94C119.72 163.55 151.66 131.61 191.05 131.61C230.44 131.61 262.38 163.55 262.38 202.94C262.38 242.33 230.44 274.27 191.05 274.27Z" fill="#B2B1B0"/>
<path d="M174.063 175.06V164.741H170.612V162.48H180.047V164.741H176.579V175.06H174.063ZM184.35 175.145C183.602 175.145 182.961 175.071 182.429 174.924C181.896 174.765 181.46 174.505 181.12 174.142C180.791 173.779 180.547 173.298 180.389 172.697C180.241 172.096 180.168 171.354 180.168 170.47C180.168 169.541 180.241 168.776 180.389 168.175C180.547 167.563 180.791 167.087 181.12 166.747C181.46 166.396 181.896 166.152 182.429 166.016C182.973 165.869 183.613 165.795 184.35 165.795C185.109 165.795 185.755 165.869 186.288 166.016C186.82 166.163 187.251 166.413 187.58 166.764C187.92 167.104 188.163 167.58 188.311 168.192C188.469 168.793 188.549 169.552 188.549 170.47C188.549 171.377 188.475 172.136 188.328 172.748C188.18 173.349 187.942 173.825 187.614 174.176C187.285 174.527 186.849 174.777 186.305 174.924C185.772 175.071 185.12 175.145 184.35 175.145ZM184.35 173.139C184.656 173.139 184.911 173.111 185.115 173.054C185.33 172.997 185.5 172.884 185.625 172.714C185.761 172.533 185.863 172.261 185.931 171.898C185.999 171.535 186.033 171.059 186.033 170.47C186.033 169.869 185.999 169.393 185.931 169.042C185.863 168.679 185.761 168.413 185.625 168.243C185.5 168.062 185.33 167.943 185.115 167.886C184.911 167.829 184.656 167.801 184.35 167.801C184.055 167.801 183.8 167.829 183.585 167.886C183.381 167.943 183.211 168.062 183.075 168.243C182.939 168.413 182.837 168.679 182.769 169.042C182.712 169.393 182.684 169.869 182.684 170.47C182.684 171.059 182.712 171.535 182.769 171.898C182.837 172.261 182.939 172.533 183.075 172.714C183.211 172.884 183.381 172.997 183.585 173.054C183.8 173.111 184.055 173.139 184.35 173.139ZM193.686 175.06C192.983 175.06 192.411 174.958 191.969 174.754C191.538 174.55 191.227 174.21 191.034 173.734C190.841 173.258 190.756 172.618 190.779 171.813L190.864 167.954H189.436V166.339L190.949 165.931L191.289 163.381H193.278V165.931H195.42V167.954H193.278V171.796C193.278 172.045 193.301 172.249 193.346 172.408C193.391 172.567 193.454 172.697 193.533 172.799C193.624 172.89 193.726 172.958 193.839 173.003C193.952 173.048 194.066 173.077 194.179 173.088L195.335 173.19V175.06H193.686ZM198.763 175.162C198.072 175.162 197.511 174.958 197.08 174.55C196.65 174.142 196.434 173.575 196.434 172.85V172.034C196.434 171.343 196.678 170.776 197.165 170.334C197.653 169.881 198.412 169.654 199.443 169.654H201.772V169.025C201.772 168.742 201.721 168.509 201.619 168.328C201.517 168.135 201.325 167.999 201.041 167.92C200.769 167.829 200.35 167.784 199.783 167.784H197.046V166.322C197.488 166.186 197.998 166.067 198.576 165.965C199.166 165.863 199.874 165.812 200.701 165.812C201.461 165.812 202.107 165.903 202.639 166.084C203.183 166.265 203.591 166.577 203.863 167.019C204.147 167.461 204.288 168.073 204.288 168.855V175.06H202.299L201.891 174.091C201.812 174.182 201.676 174.284 201.483 174.397C201.291 174.51 201.053 174.629 200.769 174.754C200.497 174.867 200.186 174.964 199.834 175.043C199.494 175.122 199.137 175.162 198.763 175.162ZM200.038 173.411C200.152 173.411 200.276 173.4 200.412 173.377C200.56 173.343 200.707 173.309 200.854 173.275C201.013 173.23 201.155 173.19 201.279 173.156C201.415 173.111 201.523 173.071 201.602 173.037C201.693 173.003 201.75 172.98 201.772 172.969V170.844L200.242 170.946C199.8 170.98 199.472 171.093 199.256 171.286C199.052 171.479 198.95 171.739 198.95 172.068V172.442C198.95 172.669 198.996 172.856 199.086 173.003C199.188 173.15 199.319 173.258 199.477 173.326C199.647 173.383 199.834 173.411 200.038 173.411ZM209.028 175.094C208.382 175.094 207.844 174.992 207.413 174.788C206.994 174.573 206.682 174.25 206.478 173.819C206.274 173.377 206.172 172.81 206.172 172.119V162.089H208.688V171.745C208.688 172.085 208.722 172.357 208.79 172.561C208.858 172.754 208.96 172.895 209.096 172.986C209.243 173.077 209.425 173.139 209.64 173.173L210.337 173.275V175.094H209.028Z" fill="#4F4E4E"/>
<path d="M186.41 192.468V190.428H194.026V192.468H186.41ZM186.41 188.388V186.348H194.026V188.388H186.41Z" fill="#4F4E4E"/>
<path d="M167.477 203.586L167.392 202.26L168.735 201.852L168.82 203.178L167.477 203.586ZM167.392 217.373V215.69L168.82 215.707V217.373H167.392ZM168.089 215.962C167.76 215.962 167.42 215.951 167.069 215.928C166.729 215.917 166.378 215.894 166.015 215.86C165.664 215.815 165.329 215.769 165.012 215.724C164.695 215.667 164.406 215.605 164.145 215.537V213.548C164.485 213.582 164.87 213.61 165.301 213.633C165.732 213.656 166.179 213.673 166.644 213.684C167.109 213.695 167.551 213.701 167.97 213.701C168.401 213.701 168.769 213.667 169.075 213.599C169.392 213.52 169.636 213.389 169.806 213.208C169.976 213.015 170.061 212.755 170.061 212.426V211.967C170.061 211.593 169.948 211.31 169.721 211.117C169.506 210.913 169.194 210.811 168.786 210.811H167.715C166.514 210.811 165.59 210.55 164.944 210.029C164.309 209.496 163.992 208.595 163.992 207.326V206.714C163.992 205.49 164.343 204.595 165.046 204.028C165.749 203.461 166.752 203.178 168.055 203.178C168.52 203.178 168.979 203.201 169.432 203.246C169.897 203.291 170.339 203.348 170.758 203.416C171.189 203.473 171.557 203.535 171.863 203.603V205.592C171.342 205.558 170.758 205.524 170.112 205.49C169.477 205.456 168.888 205.439 168.344 205.439C167.959 205.439 167.613 205.479 167.307 205.558C167.012 205.626 166.786 205.762 166.627 205.966C166.468 206.17 166.389 206.459 166.389 206.833V207.173C166.389 207.615 166.514 207.932 166.763 208.125C167.012 208.318 167.381 208.414 167.868 208.414H169.109C169.868 208.414 170.492 208.556 170.979 208.839C171.478 209.111 171.846 209.491 172.084 209.978C172.333 210.465 172.458 211.021 172.458 211.644V212.358C172.458 213.344 172.271 214.098 171.897 214.619C171.534 215.14 171.024 215.497 170.367 215.69C169.721 215.871 168.962 215.962 168.089 215.962ZM174.351 215.86V213.837L178.55 209.672C178.89 209.343 179.168 209.037 179.383 208.754C179.599 208.471 179.757 208.193 179.859 207.921C179.973 207.638 180.029 207.337 180.029 207.02C180.029 206.714 179.967 206.453 179.842 206.238C179.729 206.011 179.536 205.841 179.264 205.728C179.004 205.615 178.641 205.558 178.176 205.558H174.64V203.586C175.184 203.484 175.785 203.393 176.442 203.314C177.111 203.223 177.853 203.178 178.669 203.178C179.655 203.178 180.426 203.314 180.981 203.586C181.548 203.858 181.95 204.249 182.188 204.759C182.426 205.269 182.545 205.887 182.545 206.612C182.545 207.179 182.466 207.694 182.307 208.159C182.16 208.624 181.939 209.071 181.644 209.502C181.35 209.921 180.976 210.346 180.522 210.777L177.7 213.582H182.936V215.86H174.351ZM188.987 215.962C188.081 215.962 187.214 215.928 186.386 215.86C185.57 215.803 184.834 215.718 184.176 215.605V213.582H188.035C188.5 213.582 188.88 213.548 189.174 213.48C189.469 213.412 189.684 213.293 189.82 213.123C189.968 212.953 190.041 212.715 190.041 212.409V211.882C190.041 211.576 189.968 211.338 189.82 211.168C189.673 210.987 189.475 210.856 189.225 210.777C188.987 210.686 188.71 210.635 188.392 210.624L185.298 210.505V208.567L188.29 208.397C188.8 208.374 189.197 208.284 189.48 208.125C189.764 207.966 189.905 207.694 189.905 207.309V206.884C189.905 206.431 189.752 206.096 189.446 205.881C189.152 205.666 188.653 205.558 187.95 205.558H184.448V203.552C185.094 203.45 185.797 203.359 186.556 203.28C187.316 203.189 188.115 203.155 188.953 203.178C189.69 203.189 190.313 203.314 190.823 203.552C191.333 203.779 191.719 204.124 191.979 204.589C192.251 205.042 192.387 205.609 192.387 206.289V207.224C192.387 207.541 192.348 207.83 192.268 208.091C192.2 208.352 192.093 208.578 191.945 208.771C191.798 208.952 191.628 209.111 191.435 209.247C191.243 209.372 191.039 209.468 190.823 209.536C191.061 209.593 191.282 209.7 191.486 209.859C191.702 210.018 191.889 210.21 192.047 210.437C192.206 210.652 192.331 210.913 192.421 211.219C192.523 211.525 192.574 211.859 192.574 212.222V212.868C192.574 213.877 192.257 214.647 191.622 215.18C190.988 215.701 190.109 215.962 188.987 215.962ZM194.157 215.86V213.837L198.356 209.672C198.696 209.343 198.974 209.037 199.189 208.754C199.404 208.471 199.563 208.193 199.665 207.921C199.778 207.638 199.835 207.337 199.835 207.02C199.835 206.714 199.773 206.453 199.648 206.238C199.535 206.011 199.342 205.841 199.07 205.728C198.809 205.615 198.447 205.558 197.982 205.558H194.446V203.586C194.99 203.484 195.591 203.393 196.248 203.314C196.917 203.223 197.659 203.178 198.475 203.178C199.461 203.178 200.232 203.314 200.787 203.586C201.354 203.858 201.756 204.249 201.994 204.759C202.232 205.269 202.351 205.887 202.351 206.612C202.351 207.179 202.272 207.694 202.113 208.159C201.966 208.624 201.745 209.071 201.45 209.502C201.155 209.921 200.781 210.346 200.328 210.777L197.506 213.582H202.742V215.86H194.157ZM204.594 215.877C204.367 215.877 204.254 215.764 204.254 215.537V213.803C204.254 213.565 204.367 213.446 204.594 213.446H206.056C206.305 213.446 206.43 213.565 206.43 213.803V215.537C206.43 215.673 206.39 215.764 206.311 215.809C206.243 215.854 206.158 215.877 206.056 215.877H204.594ZM208.102 215.86V213.837L212.301 209.672C212.641 209.343 212.919 209.037 213.134 208.754C213.35 208.471 213.508 208.193 213.61 207.921C213.724 207.638 213.78 207.337 213.78 207.02C213.78 206.714 213.718 206.453 213.593 206.238C213.48 206.011 213.287 205.841 213.015 205.728C212.755 205.615 212.392 205.558 211.927 205.558H208.391V203.586C208.935 203.484 209.536 203.393 210.193 203.314C210.862 203.223 211.604 203.178 212.42 203.178C213.406 203.178 214.177 203.314 214.732 203.586C215.299 203.858 215.701 204.249 215.939 204.759C216.177 205.269 216.296 205.887 216.296 206.612C216.296 207.179 216.217 207.694 216.058 208.159C215.911 208.624 215.69 209.071 215.395 209.502C215.101 209.921 214.727 210.346 214.273 210.777L211.451 213.582H216.687V215.86H208.102Z" fill="#4F4E4E"/>
<path d="M166.648 236.26V223.68H171.595C172.841 223.68 173.748 223.969 174.315 224.547C174.893 225.114 175.182 225.924 175.182 226.978C175.182 227.477 175.108 227.919 174.961 228.304C174.825 228.678 174.626 228.99 174.366 229.239C174.105 229.477 173.793 229.641 173.431 229.732C173.703 229.8 173.963 229.908 174.213 230.055C174.473 230.202 174.706 230.401 174.91 230.65C175.125 230.899 175.289 231.205 175.403 231.568C175.527 231.919 175.59 232.327 175.59 232.792C175.59 233.642 175.442 234.322 175.148 234.832C174.864 235.342 174.439 235.71 173.873 235.937C173.317 236.152 172.632 236.26 171.816 236.26H166.648ZM169.164 233.999H171.748C172.042 233.999 172.297 233.942 172.513 233.829C172.728 233.716 172.892 233.54 173.006 233.302C173.13 233.064 173.193 232.747 173.193 232.35C173.193 232.021 173.13 231.744 173.006 231.517C172.881 231.29 172.711 231.115 172.496 230.99C172.28 230.865 172.031 230.803 171.748 230.803H169.164V233.999ZM169.164 228.865H171.612C171.974 228.865 172.258 228.735 172.462 228.474C172.677 228.202 172.785 227.851 172.785 227.42C172.796 226.865 172.683 226.479 172.445 226.264C172.207 226.049 171.918 225.941 171.578 225.941H169.164V228.865ZM177.493 225.788C177.255 225.788 177.136 225.675 177.136 225.448V223.782C177.136 223.544 177.255 223.425 177.493 223.425H179.431C179.533 223.425 179.612 223.459 179.669 223.527C179.725 223.595 179.754 223.68 179.754 223.782V225.448C179.754 225.675 179.646 225.788 179.431 225.788H177.493ZM177.187 236.26V227.131H179.703V236.26H177.187ZM184.492 236.294C183.846 236.294 183.308 236.192 182.877 235.988C182.458 235.773 182.146 235.45 181.942 235.019C181.738 234.577 181.636 234.01 181.636 233.319V223.289H184.152V232.945C184.152 233.285 184.186 233.557 184.254 233.761C184.322 233.954 184.424 234.095 184.56 234.186C184.707 234.277 184.889 234.339 185.104 234.373L185.801 234.475V236.294H184.492ZM189.821 236.294C189.175 236.294 188.637 236.192 188.206 235.988C187.787 235.773 187.475 235.45 187.271 235.019C187.067 234.577 186.965 234.01 186.965 233.319V223.289H189.481V232.945C189.481 233.285 189.515 233.557 189.583 233.761C189.651 233.954 189.753 234.095 189.889 234.186C190.036 234.277 190.218 234.339 190.433 234.373L191.13 234.475V236.294H189.821ZM192.6 225.788C192.362 225.788 192.243 225.675 192.243 225.448V223.782C192.243 223.544 192.362 223.425 192.6 223.425H194.538C194.64 223.425 194.72 223.459 194.776 223.527C194.833 223.595 194.861 223.68 194.861 223.782V225.448C194.861 225.675 194.754 225.788 194.538 225.788H192.6ZM192.294 236.26V227.131H194.81V236.26H192.294ZM200.653 236.345C199.905 236.345 199.265 236.271 198.732 236.124C198.2 235.965 197.763 235.705 197.423 235.342C197.095 234.979 196.851 234.498 196.692 233.897C196.545 233.296 196.471 232.554 196.471 231.67C196.471 230.741 196.545 229.976 196.692 229.375C196.851 228.763 197.095 228.287 197.423 227.947C197.763 227.596 198.2 227.352 198.732 227.216C199.276 227.069 199.917 226.995 200.653 226.995C201.413 226.995 202.059 227.069 202.591 227.216C203.124 227.363 203.555 227.613 203.883 227.964C204.223 228.304 204.467 228.78 204.614 229.392C204.773 229.993 204.852 230.752 204.852 231.67C204.852 232.577 204.779 233.336 204.631 233.948C204.484 234.549 204.246 235.025 203.917 235.376C203.589 235.727 203.152 235.977 202.608 236.124C202.076 236.271 201.424 236.345 200.653 236.345ZM200.653 234.339C200.959 234.339 201.214 234.311 201.418 234.254C201.634 234.197 201.804 234.084 201.928 233.914C202.064 233.733 202.166 233.461 202.234 233.098C202.302 232.735 202.336 232.259 202.336 231.67C202.336 231.069 202.302 230.593 202.234 230.242C202.166 229.879 202.064 229.613 201.928 229.443C201.804 229.262 201.634 229.143 201.418 229.086C201.214 229.029 200.959 229.001 200.653 229.001C200.359 229.001 200.104 229.029 199.888 229.086C199.684 229.143 199.514 229.262 199.378 229.443C199.242 229.613 199.14 229.879 199.072 230.242C199.016 230.593 198.987 231.069 198.987 231.67C198.987 232.259 199.016 232.735 199.072 233.098C199.14 233.461 199.242 233.733 199.378 233.914C199.514 234.084 199.684 234.197 199.888 234.254C200.104 234.311 200.359 234.339 200.653 234.339ZM206.522 236.26V227.131H208.596L209.038 228.066C209.378 227.783 209.803 227.533 210.313 227.318C210.834 227.091 211.367 226.978 211.911 226.978C212.659 226.978 213.237 227.125 213.645 227.42C214.053 227.715 214.336 228.111 214.495 228.61C214.665 229.097 214.75 229.641 214.75 230.242V236.26H212.234V230.565C212.234 230.27 212.177 230.027 212.064 229.834C211.962 229.641 211.814 229.494 211.622 229.392C211.429 229.29 211.197 229.239 210.925 229.239C210.687 229.239 210.454 229.267 210.228 229.324C210.012 229.381 209.803 229.46 209.599 229.562C209.406 229.664 209.219 229.783 209.038 229.919V236.26H206.522Z" fill="#4F4E4E"/>
<path opacity="0.6" d="M141.36 280.9L158.11 274.54C158.68 274.83 159.25 275.11 159.83 275.38C160.24 275.58 160.66 275.77 161.07 275.96C161.76 276.27 162.44 276.58 163.14 276.88C163.35 276.97 163.56 277.05 163.78 277.14C166.5 278.26 166.37 278.06 169.27 278.89C169.32 278.9 169.37 278.92 169.42 278.93C169.99 279.09 170.55 279.24 171.12 279.39C171.89 279.59 172.66 279.78 173.43 279.96C173.83 280.05 174.23 280.14 174.63 280.22C175.59 280.42 176.55 280.62 177.51 280.78C177.67 280.81 177.83 280.83 177.99 280.86C189.1 282.71 200.51 282.17 211.42 279.27C211.51 279.25 211.6 279.22 211.69 279.2C212.7 278.93 213.71 278.62 214.72 278.31C215 278.22 215.29 278.13 215.57 278.04C216.39 277.77 217.19 277.49 218 277.19C218.68 276.94 219.35 276.69 220.02 276.42C220.44 276.25 220.87 276.08 221.29 275.91C222.21 275.53 223.12 275.13 224.03 274.71C224.22 274.62 224.41 274.53 224.6 274.44C225.6 273.97 226.6 273.48 227.58 272.96C227.71 272.89 227.84 272.83 227.96 272.76C228.92 272.25 229.87 271.72 230.81 271.18C231.01 271.06 231.21 270.95 231.41 270.83C232.23 270.34 224.28 274.03 223.42 274.45C213.96 279.02 224.72 274.42 225.11 274.16C225.69 273.77 243.96 277.25 243.96 277.25C243.96 277.25 244.75 260.83 245.47 260.28C245.26 260.45 245.68 260.12 245.47 260.28C244.59 261.03 246.38 259.57 245.47 260.28C245.43 260.31 245.51 260.25 245.47 260.28C247.48 258.56 246.31 259.45 248.17 257.5C252.63 252.83 256.4 247.76 259.49 242.42C259.56 242.31 259.62 242.19 259.69 242.08C260.09 241.37 260.48 240.66 260.86 239.95C260.95 239.78 261.04 239.62 261.13 239.45C261.49 238.76 261.84 238.06 262.18 237.35C262.37 236.96 262.55 236.57 262.74 236.17C262.9 235.83 263.05 235.49 263.2 235.15C263.58 234.29 263.95 233.42 264.31 232.54C264.37 232.39 264.43 232.24 264.5 232.08C265.2 230.3 265.85 228.48 266.43 226.63C266.45 226.56 266.47 226.5 266.49 226.43C266.68 225.82 266.86 225.2 267.04 224.58C267.05 224.54 267.06 224.5 267.07 224.46C267.34 223.52 267.58 222.58 267.81 221.64C267.87 221.39 267.92 221.15 267.98 220.9C268.15 220.2 268.3 219.49 268.45 218.79C268.55 218.32 268.64 217.85 268.72 217.38C268.81 216.92 268.89 216.46 268.97 216C269.08 215.31 269.19 214.63 269.29 213.94C270.51 205.35 270.28 196.81 268.77 188.59C268.62 187.75 268.44 186.9 268.26 186.06C268.21 185.83 268.16 185.6 268.11 185.36C267.96 184.72 267.81 184.08 267.65 183.44C267.54 183 267.43 182.57 267.31 182.13C267.19 181.7 267.07 181.28 266.95 180.85C266.76 180.21 266.57 179.58 266.37 178.94C266.3 178.72 266.23 178.5 266.15 178.28C265.88 177.46 265.6 176.64 265.3 175.83C265.3 175.81 265.29 175.8 265.28 175.78L270.1 158.84L253.15 154.02C253.07 153.92 252.99 153.82 252.91 153.72C252.48 153.18 252.04 152.64 251.6 152.11C251.3 151.75 250.99 151.4 250.69 151.04C250.38 150.68 250.06 150.32 249.74 149.97C249.26 149.44 248.77 148.91 248.27 148.39C248.1 148.21 247.92 148.02 247.75 147.84C247.08 147.15 246.4 146.47 245.7 145.8C245.67 145.77 245.64 145.74 245.61 145.71C243.66 143.85 241.64 142.11 239.56 140.49C239.51 140.45 239.46 140.41 239.41 140.37C238.46 139.64 237.51 138.93 236.54 138.25C236.41 138.16 236.27 138.06 236.14 137.97C235.13 137.27 234.11 136.59 233.08 135.94C233.05 135.92 233.02 135.9 232.99 135.88C231.98 135.24 230.95 134.64 229.92 134.06C229.51 133.83 229.09 133.61 228.67 133.38C228.09 133.07 227.51 132.76 226.93 132.46C226.36 132.17 225.78 131.88 225.19 131.6C224.79 131.41 224.38 131.22 223.97 131.03C223.28 130.71 222.58 130.4 221.88 130.1C221.69 130.02 221.5 129.94 221.3 129.87C218.55 128.73 215.71 127.73 212.77 126.9C212.72 126.89 212.68 126.87 212.64 126.86C212.07 126.7 211.5 126.55 210.93 126.4C210.16 126.2 209.4 126.01 208.63 125.84C208.23 125.75 207.83 125.66 207.42 125.58C206.46 125.38 205.51 125.19 204.54 125.02C204.38 124.99 204.22 124.97 204.06 124.94C199.5 124.18 194.89 123.83 190.29 123.87L186.62 112.86L183.03 124.27C178.86 124.69 174.72 125.45 170.64 126.53C170.55 126.55 170.46 126.58 170.37 126.6C169.36 126.87 168.35 127.18 167.34 127.49C167.06 127.58 166.77 127.67 166.49 127.76C165.67 128.03 164.87 128.31 164.06 128.61C163.38 128.86 162.71 129.11 162.03 129.38C161.61 129.55 161.19 129.72 160.77 129.89C159.85 130.27 158.94 130.67 158.03 131.09C157.84 131.18 157.65 131.26 157.46 131.35C156.46 131.82 155.46 132.31 154.48 132.83C154.35 132.9 154.23 132.96 154.1 133.03C153.14 133.54 161.28 129.68 160.34 130.22C160.14 130.34 144.27 125.31 144.27 125.31C144.27 125.31 141.18 141.86 140.38 142.37C139.99 142.62 147.44 136.98 147.05 137.24C146.47 137.63 145.89 138.02 145.32 138.43C144.58 138.95 143.85 139.48 143.13 140.03C142.92 140.19 142.7 140.36 142.49 140.53C141.58 141.24 140.69 141.96 139.81 142.71C139.77 142.74 139.74 142.77 139.7 142.8C137.69 144.52 135.75 146.35 133.88 148.31C129.44 152.95 125.69 158 122.61 163.31C122.55 163.42 122.49 163.52 122.43 163.63C122.04 164.31 121.66 165 121.29 165.7C121.18 165.91 121.07 166.11 120.96 166.32C120.6 167 120.26 167.69 119.93 168.38C119.73 168.79 119.54 169.19 119.35 169.6C119.21 169.91 119.07 170.22 118.93 170.53C118.49 171.52 118.06 172.52 117.65 173.53C117.64 173.56 117.62 173.6 117.61 173.63C117.37 174.24 117.13 174.86 116.9 175.48C116.9 175.49 116.9 175.51 116.88 175.52C116.2 177.38 115.58 179.27 115.02 181.21C115 181.26 114.99 181.32 114.98 181.37C114.72 182.29 114.48 183.21 114.25 184.13C114.2 184.35 114.15 184.56 114.1 184.78C113.93 185.5 113.77 186.23 113.62 186.95C113.53 187.37 113.45 187.78 113.37 188.2C113.28 188.7 113.19 189.2 113.1 189.69C112.99 190.32 112.89 190.94 112.8 191.57C112.78 191.7 112.76 191.83 112.74 191.96L100.31 204.97L113.32 217.4C113.48 218.27 113.66 219.13 113.85 220C113.89 220.17 113.92 220.33 113.96 220.5C114.11 221.15 114.27 221.79 114.43 222.44C114.53 222.84 114.63 223.24 114.74 223.64C114.85 224.05 114.97 224.45 115.09 224.86C115.27 225.49 115.46 226.12 115.65 226.75C115.7 226.92 115.76 227.08 115.81 227.25C116.08 228.09 116.36 228.92 116.66 229.74C119.54 237.75 123.75 245.38 129.29 252.28C129.69 252.78 130.1 253.28 130.51 253.77C130.83 254.15 131.16 254.53 131.49 254.91C131.77 255.23 132.06 255.56 132.35 255.88C132.84 256.43 133.34 256.97 133.86 257.5C134.01 257.66 134.17 257.83 134.33 257.99C134.99 258.67 135.67 259.34 136.36 260.01C136.39 260.04 138.8 263.11 138.84 263.14M142.26 280.59L265.09 215.3C265.06 215.45 265.04 215.61 265.01 215.76C264.85 216.67 264.67 217.58 264.48 218.49C264.4 218.87 264.32 219.26 264.23 219.64C264.06 220.37 263.88 221.1 263.69 221.83C263.55 222.37 263.4 222.91 263.25 223.45C263.25 223.46 263.25 223.47 263.25 223.48C263.14 223.87 263.02 224.26 262.9 224.64C262.65 225.45 262.4 226.26 262.13 227.07C262.02 227.39 261.9 227.71 261.79 228.04C261.5 228.86 261.2 229.68 260.88 230.49C260.66 231.05 260.43 231.61 260.2 232.16C259.98 232.68 259.75 233.2 259.52 233.72C259.18 234.49 258.83 235.25 258.46 235.99C258.33 236.27 258.18 236.54 258.05 236.81C257.6 237.7 257.14 238.58 256.66 239.45C256.59 239.57 256.52 239.69 256.45 239.82C252.07 247.6 246.4 254.4 239.81 260.03C239.77 260.06 239.74 260.09 239.7 260.12C238.87 260.83 238.02 261.52 237.15 262.19C236.94 262.35 236.74 262.51 236.53 262.67C235.85 263.19 235.16 263.69 234.46 264.18C233.92 264.57 233.37 264.94 232.81 265.31C232.44 265.56 232.07 265.8 231.7 266.04C230.93 266.53 230.16 267.01 229.38 267.48C229.2 267.59 229.01 267.7 228.83 267.81C227.93 268.33 227.03 268.84 226.11 269.32C225.99 269.38 225.87 269.44 225.75 269.51C224.81 270 223.87 270.47 222.92 270.92C222.74 271 222.56 271.09 222.38 271.17C221.52 271.57 220.65 271.95 219.77 272.31C219.37 272.48 218.97 272.64 218.57 272.79C217.93 273.04 217.29 273.29 216.64 273.52C215.88 273.8 215.11 274.07 214.33 274.32C214.06 274.41 213.79 274.49 213.52 274.58C212.57 274.88 211.61 275.16 210.65 275.43C210.56 275.45 210.48 275.48 210.39 275.5C200.27 278.21 189.47 278.83 178.64 277.01C178.49 276.98 178.33 276.96 178.18 276.93C177.27 276.77 176.36 276.59 175.45 276.4C175.07 276.32 174.69 276.24 174.3 276.15C173.57 275.98 172.84 275.8 172.11 275.61C171.57 275.47 171.03 275.32 170.49 275.17C170.48 275.17 170.47 275.17 170.46 275.17C170.06 275.06 169.66 274.93 169.27 274.81C168.47 274.57 167.67 274.32 166.87 274.05C166.54 273.94 166.22 273.82 165.89 273.71C165.07 273.42 164.26 273.12 163.45 272.8C162.89 272.58 162.33 272.35 161.77 272.12C161.25 271.9 160.73 271.67 160.21 271.44C159.44 271.1 158.68 270.75 157.93 270.38C157.66 270.25 157.38 270.11 157.11 269.97C156.22 269.52 155.34 269.06 154.47 268.58C154.35 268.51 154.23 268.44 154.11 268.38C146.33 264 139.52 258.33 133.9 251.73C133.87 251.69 133.84 251.66 133.81 251.62C133.1 250.79 132.41 249.94 131.74 249.07C131.58 248.87 131.42 248.66 131.27 248.46C130.75 247.78 130.25 247.08 129.75 246.38C129.36 245.84 128.99 245.29 128.62 244.74C128.37 244.37 128.13 244 127.89 243.63C127.4 242.86 126.92 242.09 126.45 241.31C126.34 241.13 126.23 240.94 126.12 240.76C125.6 239.86 125.09 238.96 124.61 238.04C124.55 237.92 124.49 237.8 124.43 237.69C123.94 236.75 123.47 235.81 123.02 234.85C122.94 234.67 122.86 234.49 122.77 234.32C122.37 233.46 121.99 232.59 121.63 231.71C121.47 231.31 121.31 230.92 121.15 230.52C120.9 229.88 120.65 229.24 120.42 228.59C120.14 227.83 119.87 227.06 119.62 226.28C119.53 226.01 119.45 225.74 119.36 225.47C119.06 224.52 118.78 223.56 118.51 222.6C118.49 222.51 118.46 222.43 118.44 222.34C115.73 212.22 115.11 201.42 116.93 190.59C116.96 190.44 116.98 190.28 117.01 190.13C117.17 189.22 117.35 188.31 117.54 187.4C117.62 187.02 117.7 186.64 117.79 186.26C117.96 185.53 118.14 184.8 118.33 184.07C118.47 183.53 118.62 182.99 118.77 182.45C118.77 182.44 118.77 182.43 118.77 182.42C118.89 182.01 119.01 181.61 119.13 181.21C119.37 180.41 119.62 179.62 119.89 178.83C120 178.5 120.12 178.17 120.24 177.84C120.53 177.03 120.83 176.22 121.14 175.42C121.36 174.85 121.6 174.28 121.83 173.72C122.05 173.21 122.27 172.69 122.5 172.18C122.84 171.41 123.2 170.65 123.56 169.9C123.69 169.63 123.83 169.36 123.97 169.08C124.42 168.19 124.88 167.31 125.37 166.44C125.44 166.32 125.51 166.2 125.57 166.08C129.95 158.3 135.62 151.49 142.22 145.87C142.25 145.84 142.29 145.81 142.32 145.78C143.16 145.07 144.01 144.38 144.87 143.71C145.07 143.55 145.27 143.4 145.47 143.24C146.16 142.72 146.85 142.21 147.56 141.71C148.1 141.33 148.65 140.95 149.2 140.58C149.57 140.33 149.94 140.09 150.32 139.84C151.08 139.35 151.85 138.87 152.62 138.41C152.81 138.3 153 138.18 153.19 138.07C154.08 137.55 154.98 137.05 155.89 136.57C156.01 136.51 156.13 136.44 156.25 136.38C157.18 135.89 158.13 135.42 159.08 134.98C159.26 134.89 159.45 134.81 159.63 134.72C160.49 134.33 161.35 133.95 162.22 133.58C162.62 133.41 163.02 133.25 163.43 133.09C164.07 132.84 164.7 132.59 165.35 132.36C166.12 132.08 166.89 131.81 167.66 131.55C167.93 131.46 168.2 131.38 168.47 131.3C169.42 131 170.38 130.71 171.35 130.45C171.43 130.43 171.52 130.41 171.6 130.38C181.72 127.67 192.52 127.04 203.36 128.87C203.51 128.9 203.67 128.92 203.82 128.95C204.73 129.11 205.64 129.29 206.55 129.48C206.93 129.56 207.31 129.64 207.69 129.73C208.42 129.9 209.15 130.08 209.88 130.27C210.42 130.41 210.96 130.56 211.5 130.71C211.51 130.71 211.52 130.71 211.53 130.71C211.93 130.82 212.33 130.95 212.72 131.07C213.52 131.31 214.32 131.56 215.12 131.83C215.45 131.94 215.77 132.06 216.1 132.17C216.92 132.46 217.73 132.76 218.54 133.08C219.1 133.3 219.66 133.53 220.22 133.76C220.74 133.98 221.26 134.21 221.78 134.44C222.55 134.78 223.31 135.13 224.06 135.5C224.33 135.63 224.61 135.77 224.88 135.91C225.77 136.36 226.65 136.82 227.52 137.3C227.64 137.37 227.76 137.44 227.88 137.51C235.66 141.89 242.46 147.56 248.09 154.15C248.12 154.19 248.15 154.22 248.18 154.26C248.89 155.09 249.58 155.94 250.25 156.8C250.41 157.01 250.57 157.21 250.73 157.42C251.25 158.1 251.75 158.79 252.24 159.49C252.63 160.03 253 160.58 253.37 161.13C253.62 161.5 253.86 161.87 254.1 162.24C254.59 163 255.07 163.78 255.53 164.55C255.64 164.74 255.75 164.92 255.86 165.11C256.38 166.01 256.89 166.91 257.37 167.83C257.43 167.95 257.49 168.07 257.56 168.18C258.05 169.12 258.52 170.06 258.97 171.02C259.05 171.2 259.13 171.38 259.22 171.55C259.62 172.41 260 173.28 260.36 174.16C260.52 174.56 260.68 174.95 260.84 175.35C261.09 175.99 261.34 176.64 261.58 177.29C261.86 178.05 262.13 178.82 262.38 179.59C262.47 179.86 262.55 180.13 262.64 180.41C262.94 181.36 263.22 182.32 263.48 183.28C263.5 183.37 263.53 183.46 263.55 183.54C266.26 193.66 266.88 204.46 265.06 215.29L142.26 280.59Z" fill="#B2B1B0"/>
</g>
<defs>
<filter id="filter0_d_204_1587" x="7.74715" y="35.88" width="373.793" height="373.208" filterUnits="userSpaceOnUse" color-interpolation-filters="sRGB">
<feFlood flood-opacity="0" result="BackgroundImageFix"/>
<feColorMatrix in="SourceAlpha" type="matrix" values="0 0 0 0 0 0 0 0 0 0 0 0 0 0 0 0 0 0 127 0" result="hardAlpha"/>
<feOffset dx="5.67" dy="14.17"/>
<feGaussianBlur stdDeviation="8.5"/>
<feColorMatrix type="matrix" values="0 0 0 0 0.137255 0 0 0 0 0.121569 0 0 0 0 0.12549 0 0 0 0.4 0"/>
<feBlend mode="normal" in2="BackgroundImageFix" result="effect1_dropShadow_204_1587"/>
<feBlend mode="normal" in="SourceGraphic" in2="effect1_dropShadow_204_1587" result="shape"/>
</filter>
<clipPath id="clip0_204_1587">
<rect width="374.17" height="396.85" fill="white"/>
</clipPath>
</defs>
</svg>
