<svg width="375" height="397" viewBox="0 0 375 397" fill="none" xmlns="http://www.w3.org/2000/svg">
<g clip-path="url(#clip0_204_1662)">
<path d="M65.9297 27.46H176.12L186.83 41.85" stroke="#4F4E4E" stroke-miterlimit="10"/>
<g filter="url(#filter0_d_204_1662)">
<path d="M189.301 204.3L180.431 34.96C183.051 34.82 186.681 34.73 189.301 34.73V204.3Z" fill="#5FFFD1"/>
<path d="M189.301 204.3L34.3809 135.33C61.2009 75.1 114.581 38.41 180.421 34.96L189.291 204.3H189.301Z" fill="#62C4C4"/>
<path d="M189.3 204.3L45.4904 294.16C14.9204 245.24 10.9204 188.03 34.3804 135.33L189.29 204.3H189.3Z" fill="#3D91BE"/>
<path d="M189.3 204.3L255.56 360.39C177.97 393.32 90.16 365.64 45.5 294.16L189.31 204.3H189.3Z" fill="#24448E"/>
<path d="M189.301 204.3L328.211 301.56C309.091 328.87 286.251 347.36 255.561 360.39L189.301 204.3Z" fill="#162065"/>
<path d="M189.3 204.3V34.73C282.95 34.73 358.87 110.65 358.87 204.3C358.87 241.11 349.31 271.41 328.2 301.56L189.29 204.3H189.3Z" fill="#01072D"/>
</g>
<path d="M292.81 138.51C293.2 138.91 293.39 139.45 293.39 140.11V140.67C293.39 141.52 293.17 142.12 292.74 142.48C292.31 142.84 291.68 143.04 290.87 143.09V144.1H290.02V143.09C289.61 143.07 289.19 143.04 288.75 143C288.31 142.96 287.95 142.9 287.66 142.84V141.68C288.38 141.74 289.27 141.78 290.34 141.78C290.88 141.78 291.28 141.7 291.56 141.55C291.84 141.4 291.97 141.12 291.97 140.72V140.3C291.97 139.99 291.88 139.75 291.71 139.58C291.54 139.41 291.27 139.33 290.93 139.33H290.1C289.26 139.33 288.63 139.15 288.21 138.78C287.79 138.41 287.58 137.82 287.58 136.99V136.53C287.58 135.74 287.79 135.15 288.21 134.75C288.63 134.36 289.25 134.14 290.08 134.1L290.02 133.6L290.78 133.14L290.88 133.88L290.51 134.1C290.91 134.1 291.33 134.14 291.78 134.19C292.23 134.24 292.63 134.3 292.98 134.38V135.54C291.9 135.47 291.08 135.43 290.52 135.43C290.02 135.43 289.64 135.51 289.39 135.68C289.14 135.85 289.01 136.15 289.01 136.59V136.89C289.01 137.25 289.11 137.51 289.3 137.67C289.5 137.83 289.79 137.91 290.19 137.91H291.11C291.85 137.91 292.42 138.11 292.81 138.52V138.51Z" fill="white"/>
<path d="M296.12 142.69C295.75 142.43 295.46 141.99 295.27 141.35C295.07 140.71 294.98 139.82 294.98 138.67C294.98 137.05 295.26 135.88 295.81 135.17C296.36 134.46 297.18 134.1 298.26 134.1C299.09 134.1 299.84 134.16 300.49 134.27V135.43H298.37C297.11 135.43 296.47 136.28 296.47 137.99C296.98 137.87 297.7 137.81 298.63 137.81C299.46 137.81 300.07 137.97 300.45 138.3C300.83 138.63 301.02 139.12 301.02 139.78V141.04C301.02 141.74 300.83 142.26 300.44 142.59C300.06 142.92 299.54 143.08 298.88 143.08H297.56C296.98 143.08 296.5 142.95 296.13 142.7L296.12 142.69ZM298.55 141.74C298.86 141.74 299.1 141.66 299.28 141.51C299.45 141.36 299.54 141.11 299.54 140.75V140.04C299.54 139.66 299.44 139.4 299.23 139.26C299.02 139.12 298.69 139.06 298.23 139.06H296.47C296.47 139.76 296.52 140.3 296.62 140.69C296.72 141.08 296.87 141.35 297.07 141.51C297.27 141.67 297.53 141.74 297.85 141.74H298.56H298.55Z" fill="white"/>
<path d="M303.481 142.69C303.111 142.43 302.821 141.99 302.631 141.35C302.431 140.71 302.341 139.82 302.341 138.67C302.341 137.05 302.621 135.88 303.171 135.17C303.721 134.46 304.541 134.1 305.621 134.1C306.451 134.1 307.201 134.16 307.851 134.27V135.43H305.731C304.471 135.43 303.831 136.28 303.831 137.99C304.341 137.87 305.061 137.81 305.991 137.81C306.821 137.81 307.431 137.97 307.811 138.3C308.191 138.63 308.381 139.12 308.381 139.78V141.04C308.381 141.74 308.191 142.26 307.801 142.59C307.421 142.92 306.901 143.08 306.241 143.08H304.921C304.341 143.08 303.861 142.95 303.491 142.7L303.481 142.69ZM305.911 141.74C306.221 141.74 306.461 141.66 306.641 141.51C306.811 141.36 306.901 141.11 306.901 140.75V140.04C306.901 139.66 306.801 139.4 306.591 139.26C306.391 139.12 306.051 139.06 305.591 139.06H303.831C303.831 139.76 303.881 140.3 303.981 140.69C304.081 141.08 304.231 141.35 304.431 141.51C304.631 141.67 304.891 141.74 305.211 141.74H305.921H305.911Z" fill="white"/>
<path d="M309.741 142.98C309.741 142.98 309.671 142.89 309.671 142.82V141.68C309.671 141.53 309.751 141.45 309.901 141.45H310.751C310.901 141.45 310.981 141.53 310.981 141.68V142.82C310.981 142.96 310.901 143.04 310.751 143.04H309.901C309.841 143.04 309.781 143.02 309.741 142.98Z" fill="white"/>
<path d="M313 142.5C312.6 142.12 312.4 141.57 312.4 140.84V136.39C312.4 135.65 312.6 135.09 313.01 134.69C313.42 134.29 313.98 134.1 314.69 134.1H316.5C317.23 134.1 317.78 134.3 318.14 134.7C318.51 135.1 318.69 135.66 318.69 136.39V140.84C318.69 141.57 318.5 142.12 318.11 142.5C317.72 142.88 317.18 143.07 316.48 143.07H314.67C313.95 143.07 313.39 142.88 312.99 142.5H313ZM316.11 141.73C316.85 141.73 317.23 141.36 317.23 140.63V136.54C317.23 135.8 316.88 135.44 316.17 135.44H314.98C314.63 135.44 314.36 135.53 314.17 135.72C313.98 135.91 313.89 136.18 313.89 136.54V140.63C313.89 141 313.99 141.27 314.18 141.46C314.38 141.64 314.66 141.74 315.03 141.74H316.11V141.73Z" fill="white"/>
<path d="M282.04 157.06C281.67 156.05 281.48 154.87 281.48 153.51C281.48 152.15 281.67 151.06 282.06 150.02C282.44 148.98 282.96 148.01 283.61 147.1H284.95C284.33 148.13 283.85 149.16 283.5 150.19C283.15 151.22 282.97 152.32 282.97 153.51C282.97 154.7 283.13 155.8 283.46 156.79C283.79 157.77 284.28 158.83 284.95 159.95H283.61C282.94 159.04 282.42 158.08 282.04 157.06Z" fill="white"/>
<path d="M285.651 157.28V156.09H288.431C288.961 156.09 289.351 156.02 289.601 155.87C289.851 155.73 289.981 155.46 289.981 155.08V154.64C289.981 154.3 289.861 154.04 289.621 153.88C289.381 153.72 289.071 153.63 288.681 153.62L286.471 153.52V152.39L288.621 152.28C289.031 152.26 289.341 152.19 289.551 152.05C289.761 151.91 289.871 151.69 289.871 151.38V150.97C289.871 150.6 289.751 150.33 289.501 150.15C289.251 149.97 288.871 149.89 288.351 149.89H285.871V148.7C287.011 148.54 288.031 148.47 288.941 148.48C289.721 148.48 290.311 148.68 290.721 149.04C291.131 149.41 291.341 149.94 291.341 150.62V151.3C291.341 151.76 291.231 152.12 291.001 152.39C290.781 152.66 290.501 152.84 290.161 152.94C290.501 153.04 290.811 153.25 291.071 153.58C291.331 153.91 291.471 154.32 291.471 154.82V155.34C291.471 156.03 291.251 156.56 290.811 156.93C290.371 157.3 289.751 157.49 288.961 157.49C287.711 157.49 286.601 157.42 285.641 157.27L285.651 157.28Z" fill="white"/>
<path d="M296.711 155.41H292.711L292.421 154.68L295.461 148.57H296.981L294.171 154.15H296.701V152.19L297.001 151.24H298.181V154.14H299.201V155.16L298.181 155.4V157.4H296.701V155.4L296.711 155.41Z" fill="white"/>
<path d="M300.211 157.38C300.211 157.38 300.141 157.29 300.141 157.22V156.08C300.141 155.93 300.221 155.85 300.371 155.85H301.221C301.371 155.85 301.451 155.93 301.451 156.08V157.22C301.451 157.36 301.371 157.44 301.221 157.44H300.371C300.311 157.44 300.251 157.42 300.211 157.38Z" fill="white"/>
<path d="M302.92 155.6V154.36C302.92 154 303.02 153.69 303.22 153.42C303.42 153.15 303.67 152.99 303.96 152.92C303.62 152.75 303.39 152.54 303.27 152.29C303.15 152.04 303.1 151.73 303.1 151.36V150.34C303.1 149.71 303.29 149.24 303.66 148.94C304.03 148.64 304.52 148.49 305.13 148.49H306.8C307.4 148.49 307.88 148.64 308.23 148.93C308.59 149.23 308.76 149.69 308.76 150.33V151.35C308.76 151.64 308.69 151.93 308.55 152.23C308.41 152.53 308.2 152.71 307.93 152.77C308.28 152.85 308.54 153.04 308.69 153.33C308.84 153.62 308.92 153.95 308.92 154.3V155.58C308.92 156.26 308.73 156.74 308.36 157.03C307.99 157.32 307.47 157.46 306.81 157.46H305.19C303.67 157.46 302.91 156.84 302.91 155.59L302.92 155.6ZM306.48 156.2C306.83 156.2 307.08 156.13 307.22 155.99C307.36 155.85 307.44 155.63 307.44 155.34V154.44C307.44 154.13 307.36 153.9 307.21 153.76C307.05 153.62 306.8 153.54 306.46 153.54H305.44C305.18 153.54 304.94 153.62 304.73 153.77C304.52 153.92 304.41 154.15 304.41 154.44V155.34C304.41 155.64 304.5 155.86 304.67 156C304.84 156.14 305.1 156.2 305.44 156.2H306.48ZM306.44 152.26C307.02 152.26 307.3 151.96 307.3 151.35V150.69C307.3 150.34 307.23 150.09 307.1 149.96C306.97 149.83 306.76 149.76 306.48 149.76H305.44C305.12 149.76 304.89 149.83 304.76 149.97C304.62 150.11 304.56 150.35 304.56 150.7V151.36C304.56 151.67 304.63 151.9 304.77 152.05C304.91 152.2 305.14 152.27 305.45 152.27H306.46L306.44 152.26Z" fill="white"/>
<path d="M310.541 152.85C310.301 152.59 310.171 152.2 310.171 151.67V150.22C310.171 149.68 310.291 149.29 310.541 149.03C310.781 148.77 311.201 148.65 311.781 148.65H312.991C313.561 148.65 313.971 148.78 314.211 149.04C314.461 149.3 314.581 149.69 314.581 150.22V151.67C314.581 152.2 314.461 152.59 314.211 152.85C313.961 153.11 313.551 153.24 312.961 153.24H311.751C311.181 153.24 310.781 153.11 310.531 152.85H310.541ZM312.801 152.28C313.111 152.28 313.331 152.22 313.451 152.09C313.571 151.96 313.631 151.75 313.631 151.45V150.42C313.631 150.12 313.571 149.9 313.461 149.78C313.341 149.66 313.131 149.6 312.831 149.6H311.971C311.681 149.6 311.471 149.66 311.341 149.77C311.211 149.88 311.141 150.1 311.141 150.42V151.45C311.141 151.75 311.201 151.96 311.311 152.09C311.431 152.22 311.641 152.28 311.941 152.28H312.801ZM317.641 148.64H318.621L313.291 157.42H312.271L317.631 148.64H317.641ZM316.771 157C316.531 156.74 316.401 156.35 316.401 155.82V154.37C316.401 153.83 316.521 153.44 316.771 153.18C317.011 152.92 317.431 152.8 318.011 152.8H319.231C319.801 152.8 320.211 152.93 320.451 153.19C320.691 153.45 320.821 153.84 320.821 154.37V155.82C320.821 156.35 320.701 156.74 320.451 157C320.201 157.26 319.791 157.39 319.201 157.39H317.981C317.411 157.39 317.011 157.26 316.761 157H316.771ZM319.021 156.43C319.331 156.43 319.551 156.37 319.681 156.24C319.811 156.12 319.871 155.9 319.871 155.6V154.57C319.871 154.27 319.811 154.05 319.681 153.93C319.551 153.81 319.341 153.75 319.041 153.75H318.191C317.901 153.75 317.691 153.81 317.561 153.92C317.431 154.03 317.361 154.25 317.361 154.57V155.6C317.361 155.9 317.421 156.11 317.531 156.24C317.651 156.37 317.861 156.43 318.161 156.43H319.011H319.021Z" fill="white"/>
<path d="M322.93 156.85C323.27 155.83 323.45 154.72 323.45 153.52C323.45 152.32 323.29 151.22 322.97 150.24C322.65 149.26 322.15 148.22 321.48 147.1H322.81C323.49 148.01 324.01 148.97 324.38 149.98C324.75 150.99 324.93 152.17 324.93 153.52C324.93 154.87 324.74 155.99 324.37 157.02C323.99 158.05 323.47 159.02 322.81 159.94H321.48C322.1 158.9 322.59 157.87 322.93 156.85Z" fill="white"/>
<path d="M260.4 294.45C260.79 294.85 260.98 295.39 260.98 296.05V296.61C260.98 297.46 260.77 298.06 260.33 298.42C259.9 298.78 259.27 298.98 258.46 299.03V300.04H257.61V299.03C257.2 299.01 256.78 298.98 256.34 298.94C255.9 298.9 255.54 298.84 255.25 298.78V297.62C255.97 297.68 256.86 297.72 257.93 297.72C258.47 297.72 258.87 297.64 259.15 297.49C259.43 297.34 259.56 297.06 259.56 296.66V296.24C259.56 295.93 259.47 295.69 259.3 295.52C259.13 295.35 258.86 295.27 258.52 295.27H257.69C256.85 295.27 256.22 295.09 255.8 294.72C255.38 294.35 255.17 293.76 255.17 292.93V292.47C255.17 291.68 255.38 291.09 255.8 290.69C256.22 290.3 256.84 290.08 257.67 290.04L257.61 289.54L258.37 289.08L258.47 289.82L258.1 290.04C258.5 290.04 258.92 290.08 259.37 290.13C259.82 290.18 260.22 290.24 260.57 290.32V291.48C259.49 291.41 258.67 291.37 258.11 291.37C257.61 291.37 257.23 291.45 256.98 291.62C256.73 291.79 256.6 292.09 256.6 292.53V292.83C256.6 293.19 256.7 293.45 256.89 293.61C257.09 293.77 257.38 293.85 257.78 293.85H258.7C259.44 293.85 260.01 294.05 260.4 294.46V294.45Z" fill="white"/>
<path d="M263.96 291.46L262.29 291.76V290.81L264.11 290.03H265.44V298.97H263.95V291.46H263.96Z" fill="white"/>
<path d="M268.14 298.64C267.77 298.38 267.48 297.94 267.29 297.3C267.09 296.66 267 295.77 267 294.62C267 293 267.28 291.83 267.83 291.12C268.38 290.41 269.2 290.05 270.28 290.05C271.11 290.05 271.86 290.11 272.51 290.22V291.38H270.39C269.13 291.38 268.49 292.23 268.49 293.94C269 293.82 269.72 293.76 270.65 293.76C271.48 293.76 272.09 293.92 272.47 294.25C272.85 294.58 273.04 295.07 273.04 295.73V296.99C273.04 297.69 272.85 298.21 272.46 298.54C272.08 298.87 271.56 299.03 270.9 299.03H269.58C269 299.03 268.52 298.9 268.15 298.65L268.14 298.64ZM270.57 297.69C270.88 297.69 271.12 297.61 271.3 297.46C271.47 297.31 271.56 297.06 271.56 296.7V295.99C271.56 295.61 271.46 295.35 271.25 295.21C271.04 295.07 270.71 295.01 270.25 295.01H268.49C268.49 295.71 268.54 296.25 268.64 296.64C268.74 297.03 268.89 297.3 269.09 297.46C269.29 297.62 269.55 297.69 269.87 297.69H270.58H270.57Z" fill="white"/>
<path d="M274.411 298.92C274.411 298.92 274.341 298.83 274.341 298.76V297.62C274.341 297.47 274.421 297.39 274.571 297.39H275.421C275.571 297.39 275.651 297.47 275.651 297.62V298.76C275.651 298.9 275.571 298.98 275.421 298.98H274.571C274.511 298.98 274.451 298.96 274.411 298.92Z" fill="white"/>
<path d="M277.49 298.86V297.7H279.61C280.88 297.7 281.52 296.85 281.52 295.14C281.01 295.26 280.29 295.32 279.36 295.32C278.53 295.32 277.92 295.16 277.54 294.83C277.16 294.5 276.96 294.01 276.96 293.34V292.08C276.96 291.38 277.15 290.87 277.54 290.54C277.93 290.21 278.45 290.05 279.11 290.05H280.43C281.01 290.05 281.49 290.18 281.86 290.43C282.23 290.69 282.52 291.13 282.71 291.77C282.91 292.41 283 293.3 283 294.45C283 296.07 282.72 297.24 282.17 297.95C281.62 298.66 280.8 299.02 279.72 299.02C278.9 299.02 278.15 298.96 277.48 298.85L277.49 298.86ZM281.52 294.05C281.52 293.35 281.47 292.81 281.37 292.42C281.27 292.03 281.12 291.76 280.93 291.61C280.73 291.46 280.47 291.38 280.14 291.38H279.43C279.11 291.38 278.87 291.45 278.7 291.6C278.53 291.75 278.45 292 278.45 292.36V293.07C278.45 293.45 278.55 293.71 278.76 293.84C278.97 293.97 279.3 294.04 279.76 294.04H281.52V294.05Z" fill="white"/>
<path d="M251.42 313.01C251.05 312 250.86 310.82 250.86 309.46C250.86 308.1 251.05 307.01 251.44 305.97C251.82 304.93 252.34 303.96 252.99 303.05H254.33C253.71 304.08 253.23 305.11 252.88 306.14C252.53 307.17 252.35 308.27 252.35 309.46C252.35 310.65 252.51 311.75 252.84 312.74C253.17 313.72 253.66 314.78 254.33 315.9H252.99C252.32 314.99 251.8 314.03 251.42 313.01Z" fill="white"/>
<path d="M255.34 311.55V310.31C255.34 309.95 255.44 309.64 255.64 309.37C255.84 309.1 256.09 308.94 256.38 308.87C256.04 308.7 255.81 308.49 255.69 308.24C255.57 307.99 255.52 307.68 255.52 307.31V306.29C255.52 305.66 255.71 305.19 256.08 304.89C256.45 304.59 256.94 304.44 257.55 304.44H259.22C259.82 304.44 260.3 304.59 260.65 304.88C261.01 305.18 261.18 305.64 261.18 306.28V307.3C261.18 307.59 261.11 307.88 260.97 308.18C260.83 308.48 260.62 308.66 260.35 308.72C260.7 308.8 260.96 308.99 261.11 309.28C261.26 309.57 261.34 309.9 261.34 310.25V311.53C261.34 312.21 261.15 312.69 260.78 312.98C260.4 313.26 259.89 313.41 259.23 313.41H257.61C256.09 313.41 255.33 312.79 255.33 311.54L255.34 311.55ZM258.9 312.15C259.25 312.15 259.5 312.08 259.64 311.94C259.78 311.8 259.86 311.58 259.86 311.29V310.39C259.86 310.08 259.78 309.85 259.63 309.71C259.47 309.57 259.22 309.49 258.88 309.49H257.86C257.6 309.49 257.36 309.57 257.15 309.72C256.94 309.87 256.83 310.1 256.83 310.39V311.29C256.83 311.59 256.92 311.81 257.09 311.95C257.26 312.09 257.52 312.15 257.86 312.15H258.9ZM258.86 308.21C259.44 308.21 259.72 307.91 259.72 307.3V306.64C259.72 306.29 259.65 306.04 259.52 305.91C259.38 305.77 259.18 305.71 258.9 305.71H257.86C257.54 305.71 257.31 305.78 257.18 305.92C257.05 306.06 256.98 306.3 256.98 306.65V307.31C256.98 307.62 257.05 307.85 257.19 308C257.33 308.15 257.56 308.22 257.87 308.22H258.88L258.86 308.21Z" fill="white"/>
<path d="M262.89 313.32C262.89 313.32 262.82 313.23 262.82 313.16V312.02C262.82 311.87 262.9 311.79 263.05 311.79H263.9C264.05 311.79 264.13 311.87 264.13 312.02V313.16C264.13 313.3 264.05 313.38 263.9 313.38H263.05C262.99 313.38 262.93 313.36 262.89 313.32Z" fill="white"/>
<path d="M265.97 313.26V312.1H268.09C269.36 312.1 270 311.25 270 309.54C269.49 309.66 268.77 309.72 267.84 309.72C267.01 309.72 266.4 309.56 266.02 309.23C265.64 308.9 265.44 308.41 265.44 307.74V306.48C265.44 305.78 265.63 305.27 266.02 304.94C266.41 304.61 266.93 304.45 267.59 304.45H268.91C269.49 304.45 269.97 304.58 270.34 304.83C270.71 305.09 271 305.53 271.19 306.17C271.39 306.81 271.48 307.7 271.48 308.85C271.48 310.47 271.2 311.64 270.65 312.35C270.1 313.06 269.28 313.42 268.2 313.42C267.38 313.42 266.63 313.36 265.96 313.25L265.97 313.26ZM270 308.45C270 307.75 269.95 307.21 269.85 306.82C269.75 306.43 269.6 306.16 269.41 306.01C269.21 305.86 268.95 305.78 268.62 305.78H267.91C267.59 305.78 267.35 305.85 267.18 306C267.01 306.15 266.93 306.4 266.93 306.76V307.47C266.93 307.85 267.03 308.11 267.24 308.24C267.44 308.37 267.78 308.44 268.24 308.44H270V308.45Z" fill="white"/>
<path d="M272.99 308.79C272.75 308.53 272.62 308.14 272.62 307.61V306.16C272.62 305.62 272.74 305.23 272.99 304.97C273.23 304.71 273.65 304.59 274.23 304.59H275.44C276.01 304.59 276.42 304.72 276.66 304.98C276.91 305.24 277.03 305.63 277.03 306.16V307.61C277.03 308.14 276.91 308.53 276.66 308.79C276.41 309.05 276 309.18 275.41 309.18H274.2C273.63 309.18 273.23 309.05 272.98 308.79H272.99ZM275.25 308.22C275.56 308.22 275.78 308.16 275.9 308.03C276.02 307.9 276.08 307.69 276.08 307.39V306.36C276.08 306.06 276.02 305.84 275.91 305.72C275.79 305.6 275.58 305.54 275.28 305.54H274.42C274.13 305.54 273.92 305.6 273.79 305.71C273.66 305.82 273.59 306.04 273.59 306.36V307.39C273.59 307.69 273.65 307.9 273.76 308.03C273.88 308.16 274.09 308.22 274.39 308.22H275.25ZM280.09 304.58H281.07L275.74 313.36H274.72L280.08 304.58H280.09ZM279.22 312.94C278.98 312.68 278.85 312.29 278.85 311.76V310.31C278.85 309.77 278.97 309.38 279.22 309.12C279.47 308.86 279.88 308.74 280.46 308.74H281.68C282.25 308.74 282.66 308.87 282.9 309.13C283.14 309.39 283.27 309.78 283.27 310.31V311.76C283.27 312.29 283.15 312.68 282.9 312.94C282.65 313.2 282.24 313.33 281.65 313.33H280.43C279.86 313.33 279.46 313.2 279.21 312.94H279.22ZM281.47 312.37C281.78 312.37 282 312.31 282.13 312.18C282.26 312.06 282.32 311.84 282.32 311.54V310.51C282.32 310.21 282.26 309.99 282.13 309.87C282.01 309.75 281.79 309.69 281.49 309.69H280.64C280.35 309.69 280.14 309.75 280.01 309.86C279.88 309.97 279.81 310.19 279.81 310.51V311.54C279.81 311.84 279.87 312.05 279.98 312.18C280.1 312.31 280.31 312.37 280.61 312.37H281.46H281.47Z" fill="white"/>
<path d="M285.381 312.8C285.721 311.78 285.901 310.67 285.901 309.47C285.901 308.27 285.741 307.17 285.421 306.19C285.101 305.21 284.601 304.17 283.931 303.05H285.261C285.941 303.96 286.461 304.92 286.831 305.93C287.201 306.94 287.381 308.12 287.381 309.47C287.381 310.82 287.191 311.94 286.821 312.97C286.441 314 285.921 314.97 285.261 315.89H283.931C284.551 314.85 285.041 313.82 285.381 312.8Z" fill="white"/>
<path d="M139.35 306.62C139.74 307.02 139.93 307.56 139.93 308.22V308.78C139.93 309.63 139.71 310.23 139.28 310.59C138.85 310.95 138.22 311.15 137.41 311.2V312.21H136.56V311.2C136.15 311.18 135.73 311.15 135.29 311.11C134.85 311.07 134.49 311.01 134.2 310.95V309.79C134.92 309.85 135.81 309.89 136.88 309.89C137.42 309.89 137.82 309.81 138.1 309.66C138.38 309.51 138.51 309.23 138.51 308.83V308.41C138.51 308.1 138.42 307.86 138.25 307.69C138.08 307.52 137.81 307.44 137.47 307.44H136.64C135.8 307.44 135.17 307.26 134.75 306.89C134.33 306.52 134.12 305.93 134.12 305.1V304.64C134.12 303.85 134.33 303.26 134.75 302.86C135.17 302.47 135.79 302.25 136.62 302.21L136.56 301.71L137.32 301.25L137.42 301.99L137.05 302.21C137.45 302.21 137.87 302.25 138.32 302.3C138.77 302.35 139.17 302.41 139.52 302.49V303.65C138.44 303.58 137.62 303.54 137.06 303.54C136.56 303.54 136.18 303.62 135.93 303.79C135.68 303.96 135.55 304.26 135.55 304.7V305C135.55 305.36 135.65 305.62 135.84 305.78C136.04 305.94 136.33 306.02 136.73 306.02H137.65C138.39 306.02 138.96 306.22 139.35 306.63V306.62Z" fill="white"/>
<path d="M145.4 309.13H141.4L141.11 308.4L144.15 302.29H145.67L142.86 307.87H145.39V305.91L145.69 304.96H146.87V307.86H147.89V308.88L146.87 309.12V311.12H145.39V309.12L145.4 309.13Z" fill="white"/>
<path d="M148.73 309.94L151.8 306.93C152.21 306.54 152.5 306.18 152.68 305.86C152.86 305.54 152.95 305.19 152.95 304.8C152.95 304.41 152.84 304.12 152.61 303.92C152.38 303.72 151.99 303.61 151.43 303.61H148.97V302.45C149.49 302.38 149.96 302.32 150.38 302.28C150.8 302.24 151.25 302.21 151.73 302.21C152.71 302.21 153.41 302.41 153.82 302.81C154.23 303.21 154.44 303.8 154.44 304.57C154.44 305.15 154.32 305.68 154.09 306.14C153.86 306.6 153.48 307.09 152.96 307.6L150.72 309.8H154.74V311.14H148.74V309.94H148.73Z" fill="white"/>
<path d="M155.961 311.09C155.961 311.09 155.891 311 155.891 310.93V309.79C155.891 309.64 155.971 309.56 156.121 309.56H156.971C157.121 309.56 157.201 309.64 157.201 309.79V310.93C157.201 311.07 157.121 311.15 156.971 311.15H156.121C156.061 311.15 156.001 311.13 155.961 311.09Z" fill="white"/>
<path d="M162.21 303.76H158.19V302.28H163.71L164.12 302.94L161.08 311.14H159.41L162.21 303.76Z" fill="white"/>
<path d="M128.01 325.17C127.64 324.16 127.45 322.98 127.45 321.62C127.45 320.26 127.64 319.17 128.03 318.13C128.41 317.09 128.93 316.12 129.58 315.21H130.92C130.3 316.24 129.82 317.27 129.47 318.3C129.12 319.33 128.94 320.43 128.94 321.62C128.94 322.81 129.1 323.91 129.43 324.9C129.76 325.88 130.25 326.94 130.92 328.06H129.58C128.91 327.15 128.39 326.19 128.01 325.17Z" fill="white"/>
<path d="M131.72 324.34L134.79 321.33C135.2 320.94 135.49 320.58 135.67 320.26C135.85 319.94 135.94 319.59 135.94 319.2C135.94 318.81 135.83 318.52 135.6 318.32C135.37 318.12 134.98 318.01 134.42 318.01H131.96V316.85C132.48 316.78 132.95 316.72 133.37 316.68C133.79 316.64 134.24 316.61 134.72 316.61C135.7 316.61 136.4 316.81 136.81 317.21C137.22 317.61 137.43 318.2 137.43 318.97C137.43 319.55 137.31 320.08 137.08 320.54C136.85 321 136.47 321.49 135.95 322L133.71 324.2H137.73V325.54H131.73V324.34H131.72Z" fill="white"/>
<path d="M138.79 324.34L141.86 321.33C142.27 320.94 142.56 320.58 142.74 320.26C142.92 319.94 143.01 319.59 143.01 319.2C143.01 318.81 142.9 318.52 142.67 318.32C142.44 318.12 142.05 318.01 141.49 318.01H139.03V316.85C139.55 316.78 140.02 316.72 140.44 316.68C140.86 316.64 141.31 316.61 141.79 316.61C142.77 316.61 143.47 316.81 143.88 317.21C144.29 317.61 144.5 318.2 144.5 318.97C144.5 319.55 144.38 320.08 144.15 320.54C143.91 321 143.54 321.49 143.02 322L140.78 324.2H144.8V325.54H138.8V324.34H138.79Z" fill="white"/>
<path d="M146.02 325.49C146.02 325.49 145.95 325.4 145.95 325.33V324.19C145.95 324.04 146.03 323.96 146.18 323.96H147.03C147.18 323.96 147.26 324.04 147.26 324.19V325.33C147.26 325.47 147.18 325.55 147.03 325.55H146.18C146.12 325.55 146.06 325.53 146.02 325.49Z" fill="white"/>
<path d="M148.75 325.43V324.27H151.86C152.31 324.27 152.65 324.16 152.87 323.94C153.1 323.72 153.21 323.44 153.21 323.11V322.37C153.21 322.03 153.12 321.77 152.93 321.59C152.74 321.41 152.47 321.31 152.09 321.31H151.31C151.01 321.31 150.78 321.37 150.62 321.5C150.46 321.63 150.35 321.82 150.3 322.09H148.9L149.15 316.69H154.37V318.02H150.43L150.31 320.53C150.43 320.39 150.6 320.27 150.83 320.18C151.05 320.09 151.31 320.05 151.61 320.05H152.61C153.28 320.05 153.8 320.24 154.16 320.62C154.52 321 154.7 321.49 154.7 322.1V323.41C154.7 324.87 153.73 325.61 151.8 325.61C150.83 325.61 149.82 325.55 148.75 325.44V325.43Z" fill="white"/>
<path d="M156.15 320.96C155.91 320.7 155.78 320.31 155.78 319.78V318.33C155.78 317.79 155.9 317.4 156.15 317.14C156.39 316.88 156.81 316.76 157.39 316.76H158.6C159.17 316.76 159.58 316.89 159.82 317.15C160.07 317.41 160.19 317.8 160.19 318.33V319.78C160.19 320.31 160.07 320.7 159.82 320.96C159.57 321.22 159.16 321.35 158.57 321.35H157.36C156.79 321.35 156.39 321.22 156.14 320.96H156.15ZM158.41 320.39C158.72 320.39 158.94 320.33 159.06 320.2C159.18 320.07 159.24 319.86 159.24 319.56V318.53C159.24 318.23 159.18 318.01 159.07 317.89C158.95 317.77 158.74 317.71 158.44 317.71H157.58C157.29 317.71 157.08 317.77 156.95 317.88C156.82 317.99 156.75 318.21 156.75 318.53V319.56C156.75 319.86 156.81 320.07 156.92 320.2C157.04 320.33 157.25 320.39 157.55 320.39H158.41ZM163.25 316.75H164.23L158.9 325.53H157.88L163.24 316.75H163.25ZM162.38 325.11C162.14 324.85 162.01 324.46 162.01 323.93V322.48C162.01 321.94 162.13 321.55 162.38 321.29C162.62 321.03 163.04 320.91 163.62 320.91H164.84C165.41 320.91 165.82 321.04 166.06 321.3C166.3 321.56 166.43 321.95 166.43 322.48V323.93C166.43 324.46 166.31 324.85 166.06 325.11C165.81 325.37 165.4 325.5 164.81 325.5H163.59C163.02 325.5 162.62 325.37 162.37 325.11H162.38ZM164.63 324.54C164.94 324.54 165.16 324.48 165.29 324.35C165.42 324.23 165.48 324.01 165.48 323.71V322.68C165.48 322.38 165.42 322.16 165.29 322.04C165.16 321.92 164.95 321.86 164.65 321.86H163.8C163.51 321.86 163.3 321.92 163.17 322.03C163.04 322.14 162.97 322.36 162.97 322.68V323.71C162.97 324.01 163.03 324.22 163.14 324.35C163.26 324.48 163.47 324.54 163.77 324.54H164.62H164.63Z" fill="white"/>
<path d="M168.54 324.97C168.88 323.95 169.06 322.84 169.06 321.64C169.06 320.44 168.9 319.34 168.58 318.36C168.26 317.38 167.76 316.34 167.09 315.22H168.42C169.1 316.13 169.62 317.09 169.99 318.1C170.36 319.11 170.54 320.29 170.54 321.64C170.54 322.99 170.35 324.11 169.98 325.14C169.6 326.17 169.08 327.14 168.42 328.06H167.09C167.71 327.02 168.2 325.99 168.54 324.97Z" fill="white"/>
<path d="M57.0423 197.776L56.9823 196.84L57.9303 196.552L57.9903 197.488L57.0423 197.776ZM56.9823 207.508V206.32L57.9903 206.332V207.508H56.9823ZM57.4743 206.512C57.2423 206.512 57.0023 206.504 56.7543 206.488C56.5143 206.48 56.2663 206.464 56.0103 206.44C55.7623 206.408 55.5263 206.376 55.3023 206.344C55.0783 206.304 54.8743 206.26 54.6903 206.212V204.808C54.9303 204.832 55.2023 204.852 55.5063 204.868C55.8103 204.884 56.1263 204.896 56.4543 204.904C56.7823 204.912 57.0943 204.916 57.3903 204.916C57.6943 204.916 57.9543 204.892 58.1703 204.844C58.3943 204.788 58.5663 204.696 58.6863 204.568C58.8063 204.432 58.8663 204.248 58.8663 204.016V203.692C58.8663 203.428 58.7863 203.228 58.6263 203.092C58.4743 202.948 58.2543 202.876 57.9663 202.876H57.2103C56.3623 202.876 55.7103 202.692 55.2543 202.324C54.8063 201.948 54.5823 201.312 54.5823 200.416V199.984C54.5823 199.12 54.8303 198.488 55.3263 198.088C55.8223 197.688 56.5303 197.488 57.4503 197.488C57.7783 197.488 58.1023 197.504 58.4223 197.536C58.7503 197.568 59.0623 197.608 59.3583 197.656C59.6623 197.696 59.9223 197.74 60.1383 197.788V199.192C59.7703 199.168 59.3583 199.144 58.9023 199.12C58.4543 199.096 58.0383 199.084 57.6543 199.084C57.3823 199.084 57.1383 199.112 56.9223 199.168C56.7143 199.216 56.5543 199.312 56.4423 199.456C56.3303 199.6 56.2743 199.804 56.2743 200.068V200.308C56.2743 200.62 56.3623 200.844 56.5383 200.98C56.7143 201.116 56.9743 201.184 57.3183 201.184H58.1943C58.7303 201.184 59.1703 201.284 59.5143 201.484C59.8663 201.676 60.1263 201.944 60.2943 202.288C60.4703 202.632 60.5583 203.024 60.5583 203.464V203.968C60.5583 204.664 60.4263 205.196 60.1623 205.564C59.9063 205.932 59.5463 206.184 59.0823 206.32C58.6263 206.448 58.0903 206.512 57.4743 206.512ZM61.8948 206.44V205.012L64.8588 202.072C65.0988 201.84 65.2948 201.624 65.4468 201.424C65.5988 201.224 65.7108 201.028 65.7828 200.836C65.8628 200.636 65.9028 200.424 65.9028 200.2C65.9028 199.984 65.8588 199.8 65.7708 199.648C65.6908 199.488 65.5548 199.368 65.3628 199.288C65.1788 199.208 64.9228 199.168 64.5948 199.168H62.0988V197.776C62.4828 197.704 62.9068 197.64 63.3708 197.584C63.8428 197.52 64.3668 197.488 64.9428 197.488C65.6388 197.488 66.1828 197.584 66.5748 197.776C66.9748 197.968 67.2588 198.244 67.4268 198.604C67.5948 198.964 67.6788 199.4 67.6788 199.912C67.6788 200.312 67.6228 200.676 67.5108 201.004C67.4068 201.332 67.2508 201.648 67.0428 201.952C66.8348 202.248 66.5708 202.548 66.2508 202.852L64.2588 204.832H67.9548V206.44H61.8948ZM71.722 206.5C71.33 206.5 70.934 206.484 70.534 206.452C70.142 206.42 69.786 206.372 69.466 206.308V204.904H71.554C72.154 204.904 72.594 204.72 72.874 204.352C73.154 203.976 73.294 203.424 73.294 202.696C73.118 202.752 72.922 202.796 72.706 202.828C72.498 202.86 72.278 202.88 72.046 202.888C71.814 202.896 71.562 202.9 71.29 202.9C70.706 202.9 70.242 202.82 69.898 202.66C69.554 202.492 69.306 202.256 69.154 201.952C69.01 201.648 68.938 201.284 68.938 200.86V199.588C68.938 199.092 69.03 198.692 69.214 198.388C69.398 198.076 69.654 197.852 69.982 197.716C70.318 197.572 70.702 197.5 71.134 197.5H72.418C72.85 197.5 73.23 197.568 73.558 197.704C73.894 197.832 74.174 198.056 74.398 198.376C74.622 198.696 74.79 199.144 74.902 199.72C75.022 200.288 75.082 201.008 75.082 201.88C75.082 202.744 75.006 203.476 74.854 204.076C74.702 204.668 74.482 205.144 74.194 205.504C73.906 205.856 73.554 206.112 73.138 206.272C72.722 206.424 72.25 206.5 71.722 206.5ZM71.794 201.388H73.294C73.294 200.932 73.27 200.556 73.222 200.26C73.174 199.964 73.098 199.732 72.994 199.564C72.898 199.388 72.774 199.268 72.622 199.204C72.47 199.132 72.286 199.096 72.07 199.096H71.53C71.362 199.096 71.214 199.124 71.086 199.18C70.966 199.236 70.874 199.324 70.81 199.444C70.746 199.564 70.714 199.732 70.714 199.948V200.524C70.714 200.756 70.75 200.936 70.822 201.064C70.902 201.184 71.022 201.268 71.182 201.316C71.342 201.364 71.546 201.388 71.794 201.388ZM76.5511 206.452C76.3911 206.452 76.3111 206.372 76.3111 206.212V204.988C76.3111 204.82 76.3911 204.736 76.5511 204.736H77.5831C77.7591 204.736 77.8471 204.82 77.8471 204.988V206.212C77.8471 206.308 77.8191 206.372 77.7631 206.404C77.7151 206.436 77.6551 206.452 77.5831 206.452H76.5511ZM79.0276 206.44V205.012L81.9916 202.072C82.2316 201.84 82.4276 201.624 82.5796 201.424C82.7316 201.224 82.8436 201.028 82.9156 200.836C82.9956 200.636 83.0356 200.424 83.0356 200.2C83.0356 199.984 82.9916 199.8 82.9036 199.648C82.8236 199.488 82.6876 199.368 82.4956 199.288C82.3116 199.208 82.0556 199.168 81.7276 199.168H79.2316V197.776C79.6156 197.704 80.0396 197.64 80.5036 197.584C80.9756 197.52 81.4996 197.488 82.0756 197.488C82.7716 197.488 83.3156 197.584 83.7076 197.776C84.1076 197.968 84.3916 198.244 84.5596 198.604C84.7276 198.964 84.8116 199.4 84.8116 199.912C84.8116 200.312 84.7556 200.676 84.6436 201.004C84.5396 201.332 84.3836 201.648 84.1756 201.952C83.9676 202.248 83.7036 202.548 83.3836 202.852L81.3916 204.832H85.0876V206.44H79.0276Z" fill="white"/>
<path d="M51.4881 223.36C51.0961 222.864 50.7361 222.312 50.4081 221.704C50.0801 221.104 49.8161 220.412 49.6161 219.628C49.4161 218.844 49.3161 217.944 49.3161 216.928C49.3161 215.952 49.4201 215.076 49.6281 214.3C49.8361 213.516 50.1041 212.812 50.4321 212.188C50.7601 211.556 51.1121 211 51.4881 210.52H53.0721C52.7281 211.088 52.4041 211.7 52.1001 212.356C51.8041 213.012 51.5601 213.72 51.3681 214.48C51.1841 215.232 51.0921 216.048 51.0921 216.928C51.0921 217.8 51.1721 218.596 51.3321 219.316C51.5001 220.036 51.7321 220.72 52.0281 221.368C52.3241 222.024 52.6721 222.688 53.0721 223.36H51.4881ZM55.2047 220.84V213.58L53.6327 213.784V212.644L55.3967 211.876H56.9807V220.84H55.2047ZM61.4936 220.9C61.0056 220.9 60.4936 220.88 59.9576 220.84C59.4216 220.8 58.9136 220.756 58.4336 220.708V219.304H61.5656C61.8536 219.304 62.0776 219.256 62.2376 219.16C62.4056 219.064 62.5216 218.94 62.5856 218.788C62.6576 218.628 62.6936 218.464 62.6936 218.296V217.684C62.6936 217.404 62.6216 217.184 62.4776 217.024C62.3416 216.856 62.1096 216.772 61.7816 216.772H61.0856C60.8216 216.772 60.6216 216.828 60.4856 216.94C60.3576 217.044 60.2736 217.208 60.2336 217.432H58.5536L58.8056 211.96H64.1336V213.556H60.3296L60.2336 215.668C60.3536 215.54 60.5176 215.444 60.7256 215.38C60.9416 215.308 61.1816 215.272 61.4456 215.272H62.4176C62.8816 215.272 63.2656 215.364 63.5696 215.548C63.8736 215.732 64.1016 215.984 64.2536 216.304C64.4056 216.616 64.4816 216.968 64.4816 217.36V218.668C64.4816 219.188 64.3656 219.612 64.1336 219.94C63.9016 220.268 63.5656 220.512 63.1256 220.672C62.6856 220.824 62.1416 220.9 61.4936 220.9ZM65.9026 220.852C65.7426 220.852 65.6626 220.772 65.6626 220.612V219.388C65.6626 219.22 65.7426 219.136 65.9026 219.136H66.9346C67.1106 219.136 67.1986 219.22 67.1986 219.388V220.612C67.1986 220.708 67.1706 220.772 67.1146 220.804C67.0666 220.836 67.0066 220.852 66.9346 220.852H65.9026ZM72.3271 220.828V218.956H68.4391L68.1031 218.116L70.9831 211.96H72.7951L70.2151 217.444H72.3271V215.716L72.6751 214.696H74.1031V217.444H75.0151V218.668L74.1031 218.956V220.828H72.3271ZM77.7168 220.84L83.1168 212.056H84.2688L78.9408 220.84H77.7168ZM77.2608 216.652C76.6768 216.652 76.2608 216.516 76.0128 216.244C75.7728 215.972 75.6528 215.58 75.6528 215.068V213.64C75.6528 213.128 75.7728 212.736 76.0128 212.464C76.2528 212.192 76.6768 212.056 77.2848 212.056H78.4968C79.0888 212.056 79.5048 212.192 79.7448 212.464C79.9848 212.736 80.1048 213.128 80.1048 213.64V215.068C80.1048 215.58 79.9848 215.972 79.7448 216.244C79.5048 216.516 79.0808 216.652 78.4728 216.652H77.2608ZM77.4768 215.5H78.2568C78.5288 215.5 78.7128 215.444 78.8088 215.332C78.9128 215.212 78.9648 215.036 78.9648 214.804V213.904C78.9648 213.632 78.9128 213.448 78.8088 213.352C78.7048 213.256 78.5288 213.208 78.2808 213.208H77.5008C77.2848 213.208 77.1128 213.252 76.9848 213.34C76.8648 213.42 76.8048 213.608 76.8048 213.904V214.804C76.8048 215.036 76.8488 215.212 76.9368 215.332C77.0328 215.444 77.2128 215.5 77.4768 215.5ZM83.5848 220.804C83.0008 220.804 82.5888 220.668 82.3488 220.396C82.1088 220.124 81.9888 219.732 81.9888 219.22V217.792C81.9888 217.28 82.1048 216.888 82.3368 216.616C82.5768 216.344 83.0008 216.208 83.6088 216.208H84.8328C85.4248 216.208 85.8408 216.344 86.0808 216.616C86.3208 216.888 86.4408 217.28 86.4408 217.792V219.22C86.4408 219.732 86.3208 220.124 86.0808 220.396C85.8408 220.668 85.4168 220.804 84.8088 220.804H83.5848ZM83.8128 219.652H84.5808C84.8608 219.652 85.0488 219.596 85.1448 219.484C85.2488 219.364 85.3008 219.188 85.3008 218.956V218.056C85.3008 217.784 85.2448 217.6 85.1328 217.504C85.0288 217.408 84.8528 217.36 84.6048 217.36H83.8368C83.6208 217.36 83.4488 217.404 83.3208 217.492C83.1928 217.572 83.1288 217.76 83.1288 218.056V218.956C83.1288 219.188 83.1728 219.364 83.2608 219.484C83.3568 219.596 83.5408 219.652 83.8128 219.652ZM87.0032 223.36C87.3632 222.776 87.6912 222.156 87.9872 221.5C88.2912 220.852 88.5312 220.152 88.7072 219.4C88.8912 218.648 88.9832 217.828 88.9832 216.94C88.9832 216.068 88.9032 215.276 88.7432 214.564C88.5912 213.852 88.3672 213.168 88.0712 212.512C87.7752 211.856 87.4192 211.192 87.0032 210.52H88.5992C88.9992 211.016 89.3632 211.568 89.6912 212.176C90.0192 212.784 90.2792 213.476 90.4712 214.252C90.6712 215.028 90.7712 215.924 90.7712 216.94C90.7712 217.916 90.6672 218.796 90.4592 219.58C90.2592 220.356 89.9952 221.052 89.6672 221.668C89.3392 222.292 88.9832 222.856 88.5992 223.36H87.0032Z" fill="white"/>
<path d="M110.11 99.5199C110.5 99.9199 110.69 100.46 110.69 101.12V101.68C110.69 102.53 110.47 103.13 110.04 103.49C109.61 103.85 108.98 104.05 108.17 104.1V105.11H107.32V104.1C106.91 104.08 106.49 104.05 106.05 104.01C105.61 103.97 105.25 103.91 104.96 103.85V102.69C105.68 102.75 106.57 102.79 107.64 102.79C108.18 102.79 108.58 102.71 108.86 102.56C109.14 102.41 109.27 102.13 109.27 101.73V101.31C109.27 101 109.18 100.76 109.01 100.59C108.84 100.42 108.57 100.34 108.23 100.34H107.4C106.56 100.34 105.93 100.16 105.51 99.7899C105.09 99.4199 104.88 98.8299 104.88 97.9999V97.5399C104.88 96.7499 105.09 96.1599 105.51 95.7599C105.93 95.3699 106.55 95.1499 107.38 95.1099L107.32 94.6099L108.08 94.1499L108.18 94.8899L107.81 95.1099C108.21 95.1099 108.63 95.1499 109.08 95.1999C109.53 95.2499 109.93 95.3099 110.28 95.3899V96.5499C109.2 96.4799 108.38 96.4399 107.82 96.4399C107.32 96.4399 106.94 96.5199 106.69 96.6899C106.44 96.8599 106.31 97.1599 106.31 97.5999V97.8999C106.31 98.2599 106.41 98.5199 106.6 98.6799C106.8 98.8399 107.09 98.9199 107.49 98.9199H108.41C109.15 98.9199 109.72 99.1199 110.11 99.5299V99.5199Z" fill="white"/>
<path d="M112.06 103.89V102.7H114.84C115.37 102.7 115.76 102.63 116.01 102.48C116.26 102.34 116.39 102.07 116.39 101.69V101.25C116.39 100.91 116.27 100.65 116.03 100.49C115.79 100.33 115.48 100.24 115.09 100.23L112.88 100.13V98.9998L115.03 98.8898C115.44 98.8698 115.75 98.7998 115.96 98.6598C116.17 98.5198 116.28 98.2998 116.28 97.9898V97.5798C116.28 97.2098 116.16 96.9398 115.91 96.7598C115.67 96.5798 115.28 96.4998 114.76 96.4998H112.28V95.3098C113.42 95.1498 114.44 95.0798 115.35 95.0898C116.13 95.0898 116.72 95.2898 117.13 95.6498C117.54 96.0198 117.75 96.5498 117.75 97.2298V97.9098C117.75 98.3698 117.64 98.7298 117.41 98.9998C117.19 99.2698 116.91 99.4498 116.57 99.5498C116.91 99.6498 117.22 99.8598 117.48 100.19C117.74 100.52 117.88 100.93 117.88 101.43V101.95C117.88 102.64 117.66 103.17 117.22 103.54C116.78 103.91 116.16 104.1 115.37 104.1C114.12 104.1 113.01 104.03 112.05 103.88L112.06 103.89Z" fill="white"/>
<path d="M119.031 103.89V102.7H121.811C122.341 102.7 122.731 102.63 122.981 102.48C123.231 102.34 123.361 102.07 123.361 101.69V101.25C123.361 100.91 123.241 100.65 123.001 100.49C122.761 100.33 122.451 100.24 122.061 100.23L119.851 100.13V98.9998L122.001 98.8898C122.411 98.8698 122.721 98.7998 122.931 98.6598C123.141 98.5198 123.251 98.2998 123.251 97.9898V97.5798C123.251 97.2098 123.131 96.9398 122.881 96.7598C122.641 96.5798 122.261 96.4998 121.731 96.4998H119.251V95.3098C120.391 95.1498 121.411 95.0798 122.321 95.0898C123.101 95.0898 123.691 95.2898 124.101 95.6498C124.511 96.0198 124.721 96.5498 124.721 97.2298V97.9098C124.721 98.3698 124.611 98.7298 124.381 98.9998C124.161 99.2698 123.881 99.4498 123.541 99.5498C123.881 99.6498 124.191 99.8598 124.451 100.19C124.711 100.52 124.851 100.93 124.851 101.43V101.95C124.851 102.64 124.631 103.17 124.191 103.54C123.751 103.91 123.131 104.1 122.341 104.1C121.091 104.1 119.981 104.03 119.021 103.88L119.031 103.89Z" fill="white"/>
<path d="M126.27 103.99C126.27 103.99 126.2 103.9 126.2 103.83V102.69C126.2 102.54 126.28 102.46 126.43 102.46H127.28C127.43 102.46 127.51 102.54 127.51 102.69V103.83C127.51 103.97 127.43 104.05 127.28 104.05H126.43C126.37 104.05 126.31 104.03 126.27 103.99Z" fill="white"/>
<path d="M128.66 103.89V102.7H131.44C131.97 102.7 132.36 102.63 132.61 102.48C132.86 102.34 132.99 102.07 132.99 101.69V101.25C132.99 100.91 132.87 100.65 132.63 100.49C132.39 100.33 132.08 100.24 131.69 100.23L129.48 100.13V98.9998L131.63 98.8898C132.04 98.8698 132.35 98.7998 132.56 98.6598C132.77 98.5198 132.88 98.2998 132.88 97.9898V97.5798C132.88 97.2098 132.76 96.9398 132.51 96.7598C132.26 96.5798 131.88 96.4998 131.36 96.4998H128.88V95.3098C130.02 95.1498 131.04 95.0798 131.95 95.0898C132.73 95.0898 133.32 95.2898 133.73 95.6498C134.14 96.0198 134.35 96.5498 134.35 97.2298V97.9098C134.35 98.3698 134.24 98.7298 134.01 98.9998C133.79 99.2698 133.51 99.4498 133.17 99.5498C133.51 99.6498 133.82 99.8598 134.08 100.19C134.34 100.52 134.48 100.93 134.48 101.43V101.95C134.48 102.64 134.26 103.17 133.82 103.54C133.38 103.91 132.76 104.1 131.97 104.1C130.72 104.1 129.61 104.03 128.65 103.88L128.66 103.89Z" fill="white"/>
<path d="M100.84 118.07C100.47 117.06 100.28 115.88 100.28 114.52C100.28 113.16 100.47 112.07 100.86 111.03C101.24 109.99 101.76 109.02 102.41 108.11H103.75C103.13 109.14 102.65 110.17 102.3 111.2C101.95 112.23 101.77 113.33 101.77 114.52C101.77 115.71 101.93 116.81 102.26 117.8C102.59 118.78 103.08 119.84 103.75 120.96H102.41C101.74 120.05 101.22 119.09 100.84 118.07Z" fill="white"/>
<path d="M106.05 110.92L104.38 111.22V110.27L106.2 109.49H107.53V118.43H106.04V110.92H106.05Z" fill="white"/>
<path d="M112.72 111.06H108.7V109.58H114.22L114.63 110.24L111.59 118.44H109.92L112.72 111.06Z" fill="white"/>
<path d="M114.66 118.39C114.66 118.39 114.59 118.3 114.59 118.23V117.09C114.59 116.94 114.67 116.86 114.82 116.86H115.67C115.82 116.86 115.9 116.94 115.9 117.09V118.23C115.9 118.37 115.82 118.45 115.67 118.45H114.82C114.76 118.45 114.7 118.43 114.66 118.39Z" fill="white"/>
<path d="M118.42 118.1C118.05 117.84 117.76 117.4 117.57 116.76C117.37 116.12 117.28 115.23 117.28 114.08C117.28 112.46 117.56 111.29 118.11 110.58C118.66 109.87 119.48 109.51 120.56 109.51C121.39 109.51 122.14 109.57 122.79 109.68V110.84H120.67C119.41 110.84 118.77 111.69 118.77 113.4C119.28 113.28 120 113.22 120.93 113.22C121.76 113.22 122.37 113.38 122.75 113.71C123.13 114.04 123.32 114.53 123.32 115.19V116.45C123.32 117.15 123.13 117.67 122.74 118C122.36 118.33 121.84 118.49 121.18 118.49H119.86C119.28 118.49 118.8 118.36 118.43 118.11L118.42 118.1ZM120.85 117.15C121.16 117.15 121.4 117.07 121.58 116.92C121.75 116.77 121.84 116.52 121.84 116.16V115.45C121.84 115.07 121.74 114.81 121.53 114.67C121.32 114.53 120.99 114.47 120.53 114.47H118.77C118.77 115.17 118.82 115.71 118.92 116.1C119.02 116.49 119.17 116.76 119.37 116.92C119.57 117.08 119.83 117.15 120.15 117.15H120.86H120.85Z" fill="white"/>
<path d="M124.75 113.86C124.51 113.6 124.38 113.21 124.38 112.68V111.23C124.38 110.69 124.5 110.3 124.75 110.04C124.99 109.78 125.41 109.66 125.99 109.66H127.2C127.77 109.66 128.18 109.79 128.42 110.05C128.67 110.31 128.79 110.7 128.79 111.23V112.68C128.79 113.21 128.67 113.6 128.42 113.86C128.17 114.12 127.76 114.25 127.17 114.25H125.96C125.39 114.25 124.99 114.12 124.74 113.86H124.75ZM127.01 113.29C127.32 113.29 127.54 113.23 127.66 113.1C127.78 112.97 127.84 112.76 127.84 112.46V111.43C127.84 111.13 127.78 110.91 127.67 110.79C127.55 110.67 127.34 110.61 127.04 110.61H126.18C125.89 110.61 125.68 110.67 125.55 110.78C125.42 110.89 125.35 111.11 125.35 111.43V112.46C125.35 112.76 125.41 112.97 125.52 113.1C125.64 113.23 125.85 113.29 126.15 113.29H127.01ZM131.85 109.65H132.83L127.5 118.43H126.48L131.84 109.65H131.85ZM130.98 118.01C130.74 117.75 130.61 117.36 130.61 116.83V115.38C130.61 114.84 130.73 114.45 130.98 114.19C131.22 113.93 131.64 113.81 132.22 113.81H133.44C134.01 113.81 134.42 113.94 134.66 114.2C134.9 114.46 135.03 114.85 135.03 115.38V116.83C135.03 117.36 134.91 117.75 134.66 118.01C134.41 118.27 134 118.4 133.41 118.4H132.19C131.62 118.4 131.22 118.27 130.97 118.01H130.98ZM133.23 117.44C133.54 117.44 133.76 117.38 133.89 117.25C134.02 117.13 134.08 116.91 134.08 116.61V115.58C134.08 115.28 134.02 115.06 133.89 114.94C133.76 114.82 133.55 114.76 133.25 114.76H132.4C132.11 114.76 131.9 114.82 131.77 114.93C131.64 115.04 131.57 115.26 131.57 115.58V116.61C131.57 116.91 131.63 117.12 131.74 117.25C131.86 117.38 132.07 117.44 132.37 117.44H133.22H133.23Z" fill="white"/>
<path d="M137.14 117.86C137.48 116.84 137.66 115.73 137.66 114.53C137.66 113.33 137.5 112.23 137.18 111.25C136.86 110.27 136.36 109.23 135.69 108.11H137.02C137.7 109.02 138.22 109.98 138.59 110.99C138.96 112 139.14 113.18 139.14 114.53C139.14 115.88 138.95 117 138.58 118.03C138.2 119.06 137.68 120.03 137.02 120.95H135.69C136.31 119.91 136.8 118.88 137.14 117.86Z" fill="white"/>
<path d="M71.2718 12.1961L71.2118 11.2601L72.1598 10.9721L72.2198 11.9081L71.2718 12.1961ZM71.2118 21.9281V20.7401L72.2198 20.7521V21.9281H71.2118ZM71.7038 20.9321C71.4718 20.9321 71.2318 20.9241 70.9838 20.9081C70.7438 20.9001 70.4958 20.8841 70.2398 20.8601C69.9918 20.8281 69.7558 20.7961 69.5318 20.7641C69.3078 20.7241 69.1038 20.6801 68.9198 20.6321V19.2281C69.1598 19.2521 69.4318 19.2721 69.7358 19.2881C70.0398 19.3041 70.3558 19.3161 70.6838 19.3241C71.0118 19.3321 71.3238 19.3361 71.6198 19.3361C71.9238 19.3361 72.1838 19.3121 72.3998 19.2641C72.6238 19.2081 72.7958 19.1161 72.9158 18.9881C73.0358 18.8521 73.0958 18.6681 73.0958 18.4361V18.1121C73.0958 17.8481 73.0158 17.6481 72.8558 17.5121C72.7038 17.3681 72.4838 17.2961 72.1958 17.2961H71.4398C70.5918 17.2961 69.9398 17.1121 69.4838 16.7441C69.0358 16.3681 68.8118 15.7321 68.8118 14.8361V14.4041C68.8118 13.5401 69.0598 12.9081 69.5558 12.5081C70.0518 12.1081 70.7598 11.9081 71.6798 11.9081C72.0078 11.9081 72.3318 11.9241 72.6518 11.9561C72.9798 11.9881 73.2918 12.0281 73.5878 12.0761C73.8918 12.1161 74.1518 12.1601 74.3678 12.2081V13.6121C73.9998 13.5881 73.5878 13.5641 73.1318 13.5401C72.6838 13.5161 72.2678 13.5041 71.8838 13.5041C71.6118 13.5041 71.3678 13.5321 71.1518 13.5881C70.9438 13.6361 70.7838 13.7321 70.6718 13.8761C70.5598 14.0201 70.5038 14.2241 70.5038 14.4881V14.7281C70.5038 15.0401 70.5918 15.2641 70.7678 15.4001C70.9438 15.5361 71.2038 15.6041 71.5478 15.6041H72.4238C72.9598 15.6041 73.3998 15.7041 73.7438 15.9041C74.0958 16.0961 74.3558 16.3641 74.5238 16.7081C74.6998 17.0521 74.7878 17.4441 74.7878 17.8841V18.3881C74.7878 19.0841 74.6558 19.6161 74.3918 19.9841C74.1358 20.3521 73.7758 20.6041 73.3118 20.7401C72.8558 20.8681 72.3198 20.9321 71.7038 20.9321ZM77.5163 20.8601V13.6001L75.9443 13.8041V12.6641L77.7083 11.8961H79.2923V20.8601H77.5163ZM80.9251 20.8721C80.7651 20.8721 80.6851 20.7921 80.6851 20.6321V19.4081C80.6851 19.2401 80.7651 19.1561 80.9251 19.1561H81.9571C82.1331 19.1561 82.2211 19.2401 82.2211 19.4081V20.6321C82.2211 20.7281 82.1931 20.7921 82.1371 20.8241C82.0891 20.8561 82.0291 20.8721 81.9571 20.8721H80.9251ZM86.7016 20.9321C86.0616 20.9321 85.4496 20.9081 84.8656 20.8601C84.2896 20.8201 83.7696 20.7601 83.3056 20.6801V19.2521H86.0296C86.3576 19.2521 86.6256 19.2281 86.8336 19.1801C87.0416 19.1321 87.1936 19.0481 87.2896 18.9281C87.3936 18.8081 87.4456 18.6401 87.4456 18.4241V18.0521C87.4456 17.8361 87.3936 17.6681 87.2896 17.5481C87.1856 17.4201 87.0456 17.3281 86.8696 17.2721C86.7016 17.2081 86.5056 17.1721 86.2816 17.1641L84.0976 17.0801V15.7121L86.2096 15.5921C86.5696 15.5761 86.8496 15.5121 87.0496 15.4001C87.2496 15.2881 87.3496 15.0961 87.3496 14.8241V14.5241C87.3496 14.2041 87.2416 13.9681 87.0256 13.8161C86.8176 13.6641 86.4656 13.5881 85.9696 13.5881H83.4976V12.1721C83.9536 12.1001 84.4496 12.0361 84.9856 11.9801C85.5216 11.9161 86.0856 11.8921 86.6776 11.9081C87.1976 11.9161 87.6376 12.0041 87.9976 12.1721C88.3576 12.3321 88.6296 12.5761 88.8136 12.9041C89.0056 13.2241 89.1016 13.6241 89.1016 14.1041V14.7641C89.1016 14.9881 89.0736 15.1921 89.0176 15.3761C88.9696 15.5601 88.8936 15.7201 88.7896 15.8561C88.6856 15.9841 88.5656 16.0961 88.4296 16.1921C88.2936 16.2801 88.1496 16.3481 87.9976 16.3961C88.1656 16.4361 88.3216 16.5121 88.4656 16.6241C88.6176 16.7361 88.7496 16.8721 88.8616 17.0321C88.9736 17.1841 89.0616 17.3681 89.1256 17.5841C89.1976 17.8001 89.2336 18.0361 89.2336 18.2921V18.7481C89.2336 19.4601 89.0096 20.0041 88.5616 20.3801C88.1136 20.7481 87.4936 20.9321 86.7016 20.9321ZM95.7606 23.3801C95.3686 22.8841 95.0086 22.3321 94.6806 21.7241C94.3526 21.1241 94.0886 20.4321 93.8886 19.6481C93.6886 18.8641 93.5886 17.9641 93.5886 16.9481C93.5886 15.9721 93.6926 15.0961 93.9006 14.3201C94.1086 13.5361 94.3766 12.8321 94.7046 12.2081C95.0326 11.5761 95.3846 11.0201 95.7606 10.5401H97.3446C97.0006 11.1081 96.6766 11.7201 96.3726 12.3761C96.0766 13.0321 95.8326 13.7401 95.6406 14.5001C95.4566 15.2521 95.3646 16.0681 95.3646 16.9481C95.3646 17.8201 95.4446 18.6161 95.6046 19.3361C95.7726 20.0561 96.0046 20.7401 96.3006 21.3881C96.5966 22.0441 96.9446 22.7081 97.3446 23.3801H95.7606ZM100.521 20.9081C100.025 20.9081 99.6012 20.8241 99.2492 20.6561C98.9052 20.4801 98.6412 20.2201 98.4572 19.8761C98.2812 19.5321 98.1932 19.1121 98.1932 18.6161V14.2961C98.1932 13.7761 98.2852 13.3401 98.4692 12.9881C98.6532 12.6281 98.9212 12.3601 99.2732 12.1841C99.6332 12.0001 100.053 11.9081 100.533 11.9081H102.381C102.885 11.9081 103.301 12.0041 103.629 12.1961C103.965 12.3801 104.217 12.6521 104.385 13.0121C104.553 13.3641 104.637 13.7921 104.637 14.2961V18.6161C104.637 19.3601 104.437 19.9281 104.037 20.3201C103.645 20.7121 103.093 20.9081 102.381 20.9081H100.521ZM100.941 19.3121H101.901C102.229 19.3121 102.469 19.2321 102.621 19.0721C102.781 18.9121 102.861 18.6721 102.861 18.3521V14.4641C102.861 14.1121 102.781 13.8641 102.621 13.7201C102.461 13.5761 102.245 13.5041 101.973 13.5041H100.881C100.585 13.5041 100.357 13.5841 100.197 13.7441C100.045 13.9041 99.9692 14.1441 99.9692 14.4641V18.3401C99.9692 18.6761 100.053 18.9241 100.221 19.0841C100.389 19.2361 100.629 19.3121 100.941 19.3121ZM106.191 20.8721C106.031 20.8721 105.951 20.7921 105.951 20.6321V19.4081C105.951 19.2401 106.031 19.1561 106.191 19.1561H107.223C107.399 19.1561 107.487 19.2401 107.487 19.4081V20.6321C107.487 20.7281 107.459 20.7921 107.403 20.8241C107.355 20.8561 107.295 20.8721 107.223 20.8721H106.191ZM109.531 20.8601L112.171 13.7561H108.391V11.9801H113.995L114.463 12.7361L111.523 20.8601H109.531ZM117.22 20.8601L122.62 12.0761H123.772L118.444 20.8601H117.22ZM116.764 16.6721C116.18 16.6721 115.764 16.5361 115.516 16.2641C115.276 15.9921 115.156 15.6001 115.156 15.0881V13.6601C115.156 13.1481 115.276 12.7561 115.516 12.4841C115.756 12.2121 116.18 12.0761 116.788 12.0761H118C118.592 12.0761 119.008 12.2121 119.248 12.4841C119.488 12.7561 119.608 13.1481 119.608 13.6601V15.0881C119.608 15.6001 119.488 15.9921 119.248 16.2641C119.008 16.5361 118.584 16.6721 117.976 16.6721H116.764ZM116.98 15.5201H117.76C118.032 15.5201 118.216 15.4641 118.312 15.3521C118.416 15.2321 118.468 15.0561 118.468 14.8241V13.9241C118.468 13.6521 118.416 13.4681 118.312 13.3721C118.208 13.2761 118.032 13.2281 117.784 13.2281H117.004C116.788 13.2281 116.616 13.2721 116.488 13.3601C116.368 13.4401 116.308 13.6281 116.308 13.9241V14.8241C116.308 15.0561 116.352 15.2321 116.44 15.3521C116.536 15.4641 116.716 15.5201 116.98 15.5201ZM123.088 20.8241C122.504 20.8241 122.092 20.6881 121.852 20.4161C121.612 20.1441 121.492 19.7521 121.492 19.2401V17.8121C121.492 17.3001 121.608 16.9081 121.84 16.6361C122.08 16.3641 122.504 16.2281 123.112 16.2281H124.336C124.928 16.2281 125.344 16.3641 125.584 16.6361C125.824 16.9081 125.944 17.3001 125.944 17.8121V19.2401C125.944 19.7521 125.824 20.1441 125.584 20.4161C125.344 20.6881 124.92 20.8241 124.312 20.8241H123.088ZM123.316 19.6721H124.084C124.364 19.6721 124.552 19.6161 124.648 19.5041C124.752 19.3841 124.804 19.2081 124.804 18.9761V18.0761C124.804 17.8041 124.748 17.6201 124.636 17.5241C124.532 17.4281 124.356 17.3801 124.108 17.3801H123.34C123.124 17.3801 122.952 17.4241 122.824 17.5121C122.696 17.5921 122.632 17.7801 122.632 18.0761V18.9761C122.632 19.2081 122.676 19.3841 122.764 19.5041C122.86 19.6161 123.044 19.6721 123.316 19.6721ZM126.506 23.3801C126.866 22.7961 127.194 22.1761 127.49 21.5201C127.794 20.8721 128.034 20.1721 128.21 19.4201C128.394 18.6681 128.486 17.8481 128.486 16.9601C128.486 16.0881 128.406 15.2961 128.246 14.5841C128.094 13.8721 127.87 13.1881 127.574 12.5321C127.278 11.8761 126.922 11.2121 126.506 10.5401H128.102C128.502 11.0361 128.866 11.5881 129.194 12.1961C129.522 12.8041 129.782 13.4961 129.974 14.2721C130.174 15.0481 130.274 15.9441 130.274 16.9601C130.274 17.9361 130.17 18.8161 129.962 19.6001C129.762 20.3761 129.498 21.0721 129.17 21.6881C128.842 22.3121 128.486 22.8761 128.102 23.3801H126.506Z" fill="#4F4E4E"/>
<path d="M191.05 274.76C230.782 274.76 262.99 242.551 262.99 202.82C262.99 163.089 230.782 130.88 191.05 130.88C151.319 130.88 119.11 163.089 119.11 202.82C119.11 242.551 151.319 274.76 191.05 274.76Z" fill="white"/>
<path d="M191.05 127.73C149.58 127.73 115.96 161.35 115.96 202.82C115.96 244.29 149.58 277.91 191.05 277.91C232.52 277.91 266.14 244.29 266.14 202.82C266.14 161.35 232.52 127.73 191.05 127.73ZM191.05 274.15C151.65 274.15 119.72 242.21 119.72 202.82C119.72 163.43 151.66 131.49 191.05 131.49C230.44 131.49 262.38 163.43 262.38 202.82C262.38 242.21 230.44 274.15 191.05 274.15Z" fill="#B2B1B0"/>
<path d="M174.053 174.94V164.621H170.602V162.36H180.037V164.621H176.569V174.94H174.053ZM184.34 175.025C183.592 175.025 182.952 174.951 182.419 174.804C181.886 174.645 181.45 174.385 181.11 174.022C180.781 173.659 180.538 173.178 180.379 172.577C180.232 171.976 180.158 171.234 180.158 170.35C180.158 169.421 180.232 168.656 180.379 168.055C180.538 167.443 180.781 166.967 181.11 166.627C181.45 166.276 181.886 166.032 182.419 165.896C182.963 165.749 183.603 165.675 184.34 165.675C185.099 165.675 185.745 165.749 186.278 165.896C186.811 166.043 187.241 166.293 187.57 166.644C187.91 166.984 188.154 167.46 188.301 168.072C188.46 168.673 188.539 169.432 188.539 170.35C188.539 171.257 188.465 172.016 188.318 172.628C188.171 173.229 187.933 173.705 187.604 174.056C187.275 174.407 186.839 174.657 186.295 174.804C185.762 174.951 185.111 175.025 184.34 175.025ZM184.34 173.019C184.646 173.019 184.901 172.991 185.105 172.934C185.32 172.877 185.49 172.764 185.615 172.594C185.751 172.413 185.853 172.141 185.921 171.778C185.989 171.415 186.023 170.939 186.023 170.35C186.023 169.749 185.989 169.273 185.921 168.922C185.853 168.559 185.751 168.293 185.615 168.123C185.49 167.942 185.32 167.823 185.105 167.766C184.901 167.709 184.646 167.681 184.34 167.681C184.045 167.681 183.79 167.709 183.575 167.766C183.371 167.823 183.201 167.942 183.065 168.123C182.929 168.293 182.827 168.559 182.759 168.922C182.702 169.273 182.674 169.749 182.674 170.35C182.674 170.939 182.702 171.415 182.759 171.778C182.827 172.141 182.929 172.413 183.065 172.594C183.201 172.764 183.371 172.877 183.575 172.934C183.79 172.991 184.045 173.019 184.34 173.019ZM193.676 174.94C192.974 174.94 192.401 174.838 191.959 174.634C191.529 174.43 191.217 174.09 191.024 173.614C190.832 173.138 190.747 172.498 190.769 171.693L190.854 167.834H189.426V166.219L190.939 165.811L191.279 163.261H193.268V165.811H195.41V167.834H193.268V171.676C193.268 171.925 193.291 172.129 193.336 172.288C193.382 172.447 193.444 172.577 193.523 172.679C193.614 172.77 193.716 172.838 193.829 172.883C193.943 172.928 194.056 172.957 194.169 172.968L195.325 173.07V174.94H193.676ZM198.754 175.042C198.062 175.042 197.501 174.838 197.071 174.43C196.64 174.022 196.425 173.455 196.425 172.73V171.914C196.425 171.223 196.668 170.656 197.156 170.214C197.643 169.761 198.402 169.534 199.434 169.534H201.763V168.905C201.763 168.622 201.712 168.389 201.61 168.208C201.508 168.015 201.315 167.879 201.032 167.8C200.76 167.709 200.34 167.664 199.774 167.664H197.037V166.202C197.479 166.066 197.989 165.947 198.567 165.845C199.156 165.743 199.864 165.692 200.692 165.692C201.451 165.692 202.097 165.783 202.63 165.964C203.174 166.145 203.582 166.457 203.854 166.899C204.137 167.341 204.279 167.953 204.279 168.735V174.94H202.29L201.882 173.971C201.802 174.062 201.666 174.164 201.474 174.277C201.281 174.39 201.043 174.509 200.76 174.634C200.488 174.747 200.176 174.844 199.825 174.923C199.485 175.002 199.128 175.042 198.754 175.042ZM200.029 173.291C200.142 173.291 200.267 173.28 200.403 173.257C200.55 173.223 200.697 173.189 200.845 173.155C201.003 173.11 201.145 173.07 201.27 173.036C201.406 172.991 201.513 172.951 201.593 172.917C201.683 172.883 201.74 172.86 201.763 172.849V170.724L200.233 170.826C199.791 170.86 199.462 170.973 199.247 171.166C199.043 171.359 198.941 171.619 198.941 171.948V172.322C198.941 172.549 198.986 172.736 199.077 172.883C199.179 173.03 199.309 173.138 199.468 173.206C199.638 173.263 199.825 173.291 200.029 173.291ZM209.018 174.974C208.372 174.974 207.834 174.872 207.403 174.668C206.984 174.453 206.672 174.13 206.468 173.699C206.264 173.257 206.162 172.69 206.162 171.999V161.969H208.678V171.625C208.678 171.965 208.712 172.237 208.78 172.441C208.848 172.634 208.95 172.775 209.086 172.866C209.234 172.957 209.415 173.019 209.63 173.053L210.327 173.155V174.974H209.018Z" fill="#4F4E4E"/>
<path d="M186.4 192.348V190.308H194.016V192.348H186.4ZM186.4 188.268V186.228H194.016V188.268H186.4Z" fill="#4F4E4E"/>
<path d="M168.457 203.466L168.372 202.14L169.715 201.732L169.8 203.058L168.457 203.466ZM168.372 217.253V215.57L169.8 215.587V217.253H168.372ZM169.069 215.842C168.741 215.842 168.401 215.831 168.049 215.808C167.709 215.797 167.358 215.774 166.995 215.74C166.644 215.695 166.31 215.649 165.992 215.604C165.675 215.547 165.386 215.485 165.125 215.417V213.428C165.465 213.462 165.851 213.49 166.281 213.513C166.712 213.536 167.16 213.553 167.624 213.564C168.089 213.575 168.531 213.581 168.95 213.581C169.381 213.581 169.749 213.547 170.055 213.479C170.373 213.4 170.616 213.269 170.786 213.088C170.956 212.895 171.041 212.635 171.041 212.306V211.847C171.041 211.473 170.928 211.19 170.701 210.997C170.486 210.793 170.174 210.691 169.766 210.691H168.695C167.494 210.691 166.57 210.43 165.924 209.909C165.29 209.376 164.972 208.475 164.972 207.206V206.594C164.972 205.37 165.324 204.475 166.026 203.908C166.729 203.341 167.732 203.058 169.035 203.058C169.5 203.058 169.959 203.081 170.412 203.126C170.877 203.171 171.319 203.228 171.738 203.296C172.169 203.353 172.537 203.415 172.843 203.483V205.472C172.322 205.438 171.738 205.404 171.092 205.37C170.458 205.336 169.868 205.319 169.324 205.319C168.939 205.319 168.593 205.359 168.287 205.438C167.993 205.506 167.766 205.642 167.607 205.846C167.449 206.05 167.369 206.339 167.369 206.713V207.053C167.369 207.495 167.494 207.812 167.743 208.005C167.993 208.198 168.361 208.294 168.848 208.294H170.089C170.849 208.294 171.472 208.436 171.959 208.719C172.458 208.991 172.826 209.371 173.064 209.858C173.314 210.345 173.438 210.901 173.438 211.524V212.238C173.438 213.224 173.251 213.978 172.877 214.499C172.515 215.02 172.005 215.377 171.347 215.57C170.701 215.751 169.942 215.842 169.069 215.842ZM177.304 215.74V205.455L175.077 205.744V204.129L177.576 203.041H179.82V215.74H177.304ZM185.176 215.808C184.745 215.808 184.326 215.768 183.918 215.689C183.521 215.61 183.164 215.474 182.847 215.281C182.541 215.077 182.297 214.799 182.116 214.448C181.946 214.085 181.861 213.626 181.861 213.071V211.354C181.861 211.025 181.918 210.725 182.031 210.453C182.144 210.17 182.303 209.926 182.507 209.722C182.722 209.518 182.972 209.388 183.255 209.331C182.904 209.161 182.643 208.963 182.473 208.736C182.314 208.498 182.212 208.243 182.167 207.971C182.133 207.699 182.116 207.416 182.116 207.121V205.693C182.116 205.047 182.246 204.531 182.507 204.146C182.779 203.761 183.142 203.483 183.595 203.313C184.048 203.143 184.536 203.058 185.057 203.058H187.437C187.981 203.058 188.468 203.143 188.899 203.313C189.33 203.483 189.675 203.761 189.936 204.146C190.197 204.531 190.327 205.047 190.327 205.693V207.121C190.327 207.268 190.31 207.444 190.276 207.648C190.242 207.852 190.18 208.062 190.089 208.277C190.01 208.492 189.896 208.674 189.749 208.821C189.602 208.968 189.42 209.07 189.205 209.127C189.59 209.206 189.879 209.376 190.072 209.637C190.265 209.886 190.395 210.164 190.463 210.47C190.531 210.776 190.565 211.054 190.565 211.303V213.071C190.565 213.819 190.423 214.391 190.14 214.788C189.868 215.173 189.5 215.44 189.035 215.587C188.57 215.734 188.049 215.808 187.471 215.808H185.176ZM185.618 213.683H186.876C187.341 213.683 187.652 213.592 187.811 213.411C187.97 213.218 188.049 212.952 188.049 212.612V211.49C188.049 211.127 187.953 210.855 187.76 210.674C187.579 210.481 187.284 210.385 186.876 210.385H185.601C185.454 210.385 185.306 210.408 185.159 210.453C185.012 210.498 184.881 210.566 184.768 210.657C184.655 210.748 184.558 210.867 184.479 211.014C184.411 211.15 184.377 211.309 184.377 211.49V212.612C184.377 212.997 184.485 213.275 184.7 213.445C184.915 213.604 185.221 213.683 185.618 213.683ZM185.601 208.243H186.842C187.125 208.243 187.335 208.192 187.471 208.09C187.618 207.988 187.72 207.852 187.777 207.682C187.834 207.501 187.862 207.302 187.862 207.087V206.288C187.862 205.835 187.771 205.54 187.59 205.404C187.409 205.268 187.171 205.2 186.876 205.2H185.618C185.255 205.2 184.989 205.274 184.819 205.421C184.649 205.568 184.564 205.857 184.564 206.288V207.087C184.564 207.518 184.643 207.818 184.802 207.988C184.972 208.158 185.238 208.243 185.601 208.243ZM196.293 215.825C195.737 215.825 195.176 215.802 194.61 215.757C194.054 215.712 193.55 215.644 193.097 215.553V213.564H196.055C196.905 213.564 197.528 213.303 197.925 212.782C198.321 212.249 198.52 211.467 198.52 210.436C198.27 210.515 197.993 210.578 197.687 210.623C197.392 210.668 197.08 210.697 196.752 210.708C196.423 210.719 196.066 210.725 195.681 210.725C194.853 210.725 194.196 210.612 193.709 210.385C193.221 210.147 192.87 209.813 192.655 209.382C192.451 208.951 192.349 208.436 192.349 207.835V206.033C192.349 205.33 192.479 204.764 192.74 204.333C193 203.891 193.363 203.574 193.828 203.381C194.304 203.177 194.848 203.075 195.46 203.075H197.279C197.891 203.075 198.429 203.171 198.894 203.364C199.37 203.545 199.766 203.863 200.084 204.316C200.401 204.769 200.639 205.404 200.798 206.22C200.968 207.025 201.053 208.045 201.053 209.28C201.053 210.504 200.945 211.541 200.73 212.391C200.514 213.23 200.203 213.904 199.795 214.414C199.387 214.913 198.888 215.275 198.299 215.502C197.709 215.717 197.041 215.825 196.293 215.825ZM196.395 208.583H198.52C198.52 207.937 198.486 207.404 198.418 206.985C198.35 206.566 198.242 206.237 198.095 205.999C197.959 205.75 197.783 205.58 197.568 205.489C197.352 205.387 197.092 205.336 196.786 205.336H196.021C195.783 205.336 195.573 205.376 195.392 205.455C195.222 205.534 195.091 205.659 195.001 205.829C194.91 205.999 194.865 206.237 194.865 206.543V207.359C194.865 207.688 194.916 207.943 195.018 208.124C195.131 208.294 195.301 208.413 195.528 208.481C195.754 208.549 196.043 208.583 196.395 208.583ZM203.134 215.757C202.907 215.757 202.794 215.644 202.794 215.417V213.683C202.794 213.445 202.907 213.326 203.134 213.326H204.596C204.845 213.326 204.97 213.445 204.97 213.683V215.417C204.97 215.553 204.93 215.644 204.851 215.689C204.783 215.734 204.698 215.757 204.596 215.757H203.134ZM211.198 215.825C210.507 215.825 209.782 215.797 209.022 215.74C208.263 215.683 207.543 215.621 206.863 215.553V213.564H211.3C211.708 213.564 212.026 213.496 212.252 213.36C212.49 213.224 212.655 213.048 212.745 212.833C212.847 212.606 212.898 212.374 212.898 212.136V211.269C212.898 210.872 212.796 210.561 212.592 210.334C212.4 210.096 212.071 209.977 211.606 209.977H210.62C210.246 209.977 209.963 210.056 209.77 210.215C209.589 210.362 209.47 210.595 209.413 210.912H207.033L207.39 203.16H214.938V205.421H209.549L209.413 208.413C209.583 208.232 209.816 208.096 210.11 208.005C210.416 207.903 210.756 207.852 211.13 207.852H212.507C213.165 207.852 213.709 207.982 214.139 208.243C214.57 208.504 214.893 208.861 215.108 209.314C215.324 209.756 215.431 210.255 215.431 210.81V212.663C215.431 213.4 215.267 214 214.938 214.465C214.61 214.93 214.134 215.275 213.51 215.502C212.887 215.717 212.116 215.825 211.198 215.825Z" fill="#4F4E4E"/>
<path d="M166.639 236.14V223.56H171.586C172.832 223.56 173.739 223.849 174.306 224.427C174.884 224.994 175.173 225.804 175.173 226.858C175.173 227.357 175.099 227.799 174.952 228.184C174.816 228.558 174.617 228.87 174.357 229.119C174.096 229.357 173.784 229.521 173.422 229.612C173.694 229.68 173.954 229.788 174.204 229.935C174.464 230.082 174.697 230.281 174.901 230.53C175.116 230.779 175.28 231.085 175.394 231.448C175.518 231.799 175.581 232.207 175.581 232.672C175.581 233.522 175.433 234.202 175.139 234.712C174.855 235.222 174.43 235.59 173.864 235.817C173.308 236.032 172.623 236.14 171.807 236.14H166.639ZM169.155 233.879H171.739C172.033 233.879 172.288 233.822 172.504 233.709C172.719 233.596 172.883 233.42 172.997 233.182C173.121 232.944 173.184 232.627 173.184 232.23C173.184 231.901 173.121 231.624 172.997 231.397C172.872 231.17 172.702 230.995 172.487 230.87C172.271 230.745 172.022 230.683 171.739 230.683H169.155V233.879ZM169.155 228.745H171.603C171.965 228.745 172.249 228.615 172.453 228.354C172.668 228.082 172.776 227.731 172.776 227.3C172.787 226.745 172.674 226.359 172.436 226.144C172.198 225.929 171.909 225.821 171.569 225.821H169.155V228.745ZM177.484 225.668C177.246 225.668 177.127 225.555 177.127 225.328V223.662C177.127 223.424 177.246 223.305 177.484 223.305H179.422C179.524 223.305 179.603 223.339 179.66 223.407C179.717 223.475 179.745 223.56 179.745 223.662V225.328C179.745 225.555 179.637 225.668 179.422 225.668H177.484ZM177.178 236.14V227.011H179.694V236.14H177.178ZM184.483 236.174C183.837 236.174 183.299 236.072 182.868 235.868C182.449 235.653 182.137 235.33 181.933 234.899C181.729 234.457 181.627 233.89 181.627 233.199V223.169H184.143V232.825C184.143 233.165 184.177 233.437 184.245 233.641C184.313 233.834 184.415 233.975 184.551 234.066C184.699 234.157 184.88 234.219 185.095 234.253L185.792 234.355V236.174H184.483ZM189.812 236.174C189.166 236.174 188.628 236.072 188.197 235.868C187.778 235.653 187.466 235.33 187.262 234.899C187.058 234.457 186.956 233.89 186.956 233.199V223.169H189.472V232.825C189.472 233.165 189.506 233.437 189.574 233.641C189.642 233.834 189.744 233.975 189.88 234.066C190.028 234.157 190.209 234.219 190.424 234.253L191.121 234.355V236.174H189.812ZM192.591 225.668C192.353 225.668 192.234 225.555 192.234 225.328V223.662C192.234 223.424 192.353 223.305 192.591 223.305H194.529C194.631 223.305 194.711 223.339 194.767 223.407C194.824 223.475 194.852 223.56 194.852 223.662V225.328C194.852 225.555 194.745 225.668 194.529 225.668H192.591ZM192.285 236.14V227.011H194.801V236.14H192.285ZM200.645 236.225C199.897 236.225 199.256 236.151 198.724 236.004C198.191 235.845 197.755 235.585 197.415 235.222C197.086 234.859 196.842 234.378 196.684 233.777C196.536 233.176 196.463 232.434 196.463 231.55C196.463 230.621 196.536 229.856 196.684 229.255C196.842 228.643 197.086 228.167 197.415 227.827C197.755 227.476 198.191 227.232 198.724 227.096C199.268 226.949 199.908 226.875 200.645 226.875C201.404 226.875 202.05 226.949 202.583 227.096C203.115 227.243 203.546 227.493 203.875 227.844C204.215 228.184 204.458 228.66 204.606 229.272C204.764 229.873 204.844 230.632 204.844 231.55C204.844 232.457 204.77 233.216 204.623 233.828C204.475 234.429 204.237 234.905 203.909 235.256C203.58 235.607 203.144 235.857 202.6 236.004C202.067 236.151 201.415 236.225 200.645 236.225ZM200.645 234.219C200.951 234.219 201.206 234.191 201.41 234.134C201.625 234.077 201.795 233.964 201.92 233.794C202.056 233.613 202.158 233.341 202.226 232.978C202.294 232.615 202.328 232.139 202.328 231.55C202.328 230.949 202.294 230.473 202.226 230.122C202.158 229.759 202.056 229.493 201.92 229.323C201.795 229.142 201.625 229.023 201.41 228.966C201.206 228.909 200.951 228.881 200.645 228.881C200.35 228.881 200.095 228.909 199.88 228.966C199.676 229.023 199.506 229.142 199.37 229.323C199.234 229.493 199.132 229.759 199.064 230.122C199.007 230.473 198.979 230.949 198.979 231.55C198.979 232.139 199.007 232.615 199.064 232.978C199.132 233.341 199.234 233.613 199.37 233.794C199.506 233.964 199.676 234.077 199.88 234.134C200.095 234.191 200.35 234.219 200.645 234.219ZM206.513 236.14V227.011H208.587L209.029 227.946C209.369 227.663 209.794 227.413 210.304 227.198C210.825 226.971 211.358 226.858 211.902 226.858C212.65 226.858 213.228 227.005 213.636 227.3C214.044 227.595 214.327 227.991 214.486 228.49C214.656 228.977 214.741 229.521 214.741 230.122V236.14H212.225V230.445C212.225 230.15 212.168 229.907 212.055 229.714C211.953 229.521 211.806 229.374 211.613 229.272C211.42 229.17 211.188 229.119 210.916 229.119C210.678 229.119 210.446 229.147 210.219 229.204C210.004 229.261 209.794 229.34 209.59 229.442C209.397 229.544 209.21 229.663 209.029 229.799V236.14H206.513Z" fill="#4F4E4E"/>
<path opacity="0.6" d="M158.66 288.77C158.66 288.77 172.88 280 173.53 280.12C174.31 280.26 173.71 280.12 173.71 280.12C174.11 280.21 175.81 280.48 176.21 280.56C177.17 280.76 181.39 281.13 182.36 281.3C182.52 281.33 182.68 281.36 182.84 281.38C191.34 282.29 200.5 282.07 211.4 279.17C211.49 279.15 211.58 279.12 211.67 279.1C212.68 278.83 213.69 278.52 214.7 278.21C214.98 278.12 215.27 278.03 215.55 277.94C216.37 277.67 217.17 277.39 217.98 277.09C218.66 276.84 219.33 276.59 220 276.32C220.42 276.15 220.85 275.98 221.27 275.81C222.19 275.43 223.1 275.03 224.01 274.61C224.2 274.52 224.39 274.43 224.58 274.34C225.58 273.87 226.58 273.38 227.56 272.86C227.69 272.79 227.82 272.73 227.94 272.66C228.9 272.15 229.85 271.62 230.79 271.08C230.99 270.96 231.19 270.85 231.39 270.73C232.21 270.24 224.26 273.93 223.4 274.35C213.94 278.92 224.7 274.32 225.09 274.06C225.67 273.67 243.94 277.15 243.94 277.15C243.94 277.15 244.73 260.73 245.45 260.18C245.24 260.35 245.66 260.02 245.45 260.18C244.57 260.93 246.36 259.47 245.45 260.18C245.41 260.21 245.49 260.15 245.45 260.18C247.46 258.46 246.29 259.35 248.15 257.4C252.61 252.73 256.38 247.66 259.47 242.32C259.54 242.21 259.6 242.09 259.67 241.98C260.07 241.27 260.46 240.56 260.84 239.85C260.93 239.68 261.02 239.52 261.11 239.35C261.47 238.66 261.82 237.96 262.16 237.25C262.35 236.86 262.53 236.47 262.72 236.07C262.88 235.73 263.03 235.39 263.18 235.05C263.56 234.19 263.93 233.32 264.29 232.44C264.35 232.29 264.41 232.14 264.48 231.98C265.18 230.2 265.83 228.38 266.41 226.53C266.43 226.46 266.45 226.4 266.47 226.33C266.66 225.72 266.84 225.1 267.02 224.48C267.03 224.44 267.04 224.4 267.05 224.36C267.32 223.42 267.56 222.48 267.79 221.54C267.85 221.29 267.9 221.05 267.96 220.8C268.13 220.1 268.28 219.39 268.43 218.69C268.53 218.22 268.62 217.75 268.7 217.28C268.79 216.82 268.87 216.36 268.95 215.9C269.06 215.21 269.17 214.53 269.27 213.84C270.49 205.25 270.26 196.71 268.75 188.49C268.6 187.65 268.42 186.8 268.24 185.96C268.19 185.73 268.14 185.5 268.09 185.26C267.94 184.62 267.79 183.98 267.63 183.34C267.52 182.9 267.41 182.47 267.29 182.03C267.17 181.6 267.05 181.18 266.93 180.75C266.74 180.11 266.55 179.48 266.35 178.84C266.28 178.62 266.21 178.4 266.13 178.18C265.86 177.36 265.58 176.54 265.28 175.73C265.28 175.71 265.27 175.7 265.26 175.68L270.08 158.74L253.13 153.92C253.05 153.82 252.97 153.72 252.89 153.62C252.46 153.08 252.02 152.54 251.58 152.01C251.28 151.65 250.97 151.3 250.67 150.94C250.36 150.58 250.04 150.22 249.72 149.87C249.24 149.34 248.75 148.81 248.25 148.29C248.08 148.11 247.9 147.92 247.73 147.74C247.06 147.05 246.38 146.37 245.68 145.7C245.65 145.67 245.62 145.64 245.59 145.61C243.64 143.75 241.62 142.01 239.54 140.39C239.49 140.35 239.44 140.31 239.39 140.27C238.44 139.54 237.49 138.83 236.52 138.15C236.39 138.06 236.25 137.96 236.12 137.87C235.11 137.17 234.09 136.49 233.06 135.84C233.03 135.82 233 135.8 232.97 135.78C231.96 135.14 230.93 134.54 229.9 133.96C229.49 133.73 229.07 133.51 228.65 133.28C228.07 132.97 227.49 132.66 226.91 132.36C226.34 132.07 225.76 131.78 225.17 131.5C224.77 131.31 224.36 131.12 223.95 130.93C223.26 130.61 222.56 130.3 221.86 130C221.67 129.92 221.48 129.84 221.28 129.77C218.53 128.63 215.69 127.63 212.75 126.8C212.7 126.79 212.66 126.77 212.62 126.76C212.05 126.6 211.48 126.45 210.91 126.3C210.14 126.1 209.38 125.91 208.61 125.74C208.21 125.65 207.81 125.56 207.4 125.48C206.44 125.28 205.49 125.09 204.52 124.92C204.36 124.89 204.2 124.87 204.04 124.84C199.96 124.16 195.84 123.81 191.72 123.77L187.14 114.3L183.87 124.09C179.41 124.49 174.97 125.27 170.62 126.43C170.53 126.45 170.44 126.48 170.35 126.5C169.34 126.77 168.33 127.08 167.32 127.39C167.04 127.48 166.75 127.57 166.47 127.66C165.65 127.93 164.85 128.21 164.04 128.51C163.36 128.76 162.69 129.01 162.01 129.28C161.59 129.45 161.17 129.62 160.75 129.79C159.83 130.17 158.92 130.57 158.01 130.99C157.82 131.08 157.63 131.16 157.44 131.25C156.44 131.72 155.44 132.21 154.46 132.73C154.33 132.8 154.21 132.86 154.08 132.93C153.12 133.44 161.26 129.58 160.32 130.12C160.12 130.24 144.25 125.21 144.25 125.21C144.25 125.21 141.16 141.76 140.36 142.27C139.97 142.52 147.42 136.88 147.03 137.14C146.45 137.53 145.87 137.92 145.3 138.33C144.56 138.85 143.83 139.38 143.11 139.93C142.9 140.09 142.68 140.26 142.47 140.43C141.56 141.14 140.67 141.86 139.79 142.61C139.75 142.64 139.72 142.67 139.68 142.7C137.67 144.42 135.73 146.25 133.86 148.21C129.42 152.85 125.67 157.9 122.59 163.21C122.53 163.32 122.47 163.42 122.41 163.53C122.02 164.21 121.64 164.9 121.27 165.6C121.16 165.81 121.05 166.01 120.94 166.22C120.58 166.9 120.24 167.59 119.91 168.28C119.71 168.69 119.52 169.09 119.33 169.5C119.19 169.81 119.05 170.12 118.91 170.43C118.47 171.42 118.04 172.42 117.63 173.43C117.62 173.46 117.6 173.5 117.59 173.53C117.35 174.14 117.11 174.76 116.88 175.38C116.88 175.39 116.88 175.41 116.86 175.42C116.18 177.28 115.56 179.17 115 181.11C114.98 181.16 114.97 181.22 114.96 181.27C114.7 182.19 114.46 183.11 114.23 184.03C114.18 184.25 114.13 184.46 114.08 184.68C113.91 185.4 113.75 186.13 113.6 186.85C113.51 187.27 113.43 187.68 113.35 188.1C113.26 188.6 113.17 189.1 113.08 189.59C112.97 190.22 112.87 190.84 112.78 191.47C112.76 191.6 112.74 191.73 112.72 191.86L100.29 204.87L113.3 217.3C113.46 218.17 113.64 219.03 113.83 219.9C113.87 220.07 113.9 220.23 113.94 220.4C114.09 221.05 114.25 221.69 114.41 222.34C114.51 222.74 114.61 223.14 114.72 223.54C114.83 223.95 114.95 224.35 115.07 224.76C115.25 225.39 115.44 226.02 115.63 226.65C115.68 226.82 115.74 226.98 115.79 227.15C116.06 227.99 116.34 228.82 116.64 229.64C119.52 237.65 123.73 245.28 129.27 252.18C129.67 252.68 130.08 253.18 130.49 253.67C130.81 254.05 131.14 254.43 131.47 254.81C131.75 255.13 132.04 255.46 132.33 255.78C132.82 256.33 133.32 256.87 133.84 257.4C133.99 257.56 134.15 257.73 134.31 257.89C134.97 258.57 135.72 259.17 136.34 259.91C138.93 262.99 146.55 269.88 151.63 272.31L158.66 288.8V288.77ZM142.24 280.46L265.07 215.17C265.04 215.32 265.02 215.48 264.99 215.63C264.83 216.54 264.65 217.45 264.46 218.36C264.38 218.74 264.3 219.13 264.21 219.51C264.04 220.24 263.86 220.97 263.67 221.7C263.53 222.24 263.38 222.78 263.23 223.32C263.23 223.33 263.23 223.34 263.23 223.35C263.12 223.74 263 224.13 262.88 224.51C262.63 225.32 262.38 226.13 262.11 226.94C262 227.26 261.88 227.58 261.77 227.91C261.48 228.73 261.18 229.55 260.86 230.36C260.64 230.92 260.41 231.48 260.18 232.03C259.96 232.55 259.73 233.07 259.5 233.59C259.16 234.36 258.81 235.12 258.44 235.86C258.31 236.14 258.16 236.41 258.03 236.68C257.58 237.57 257.12 238.45 256.64 239.32C256.57 239.44 256.5 239.56 256.43 239.69C252.05 247.47 246.38 254.27 239.79 259.9C239.75 259.93 239.72 259.96 239.68 259.99C238.85 260.7 238 261.39 237.13 262.06C236.92 262.22 236.72 262.38 236.51 262.54C235.83 263.06 235.14 263.56 234.44 264.05C233.9 264.44 233.35 264.81 232.79 265.18C232.42 265.43 232.05 265.67 231.68 265.91C230.91 266.4 230.14 266.88 229.36 267.35C229.18 267.46 228.99 267.57 228.81 267.68C227.91 268.2 227.01 268.71 226.09 269.19C225.97 269.25 225.85 269.31 225.73 269.38C224.79 269.87 223.85 270.34 222.9 270.79C222.72 270.87 222.54 270.96 222.36 271.04C221.5 271.44 220.63 271.82 219.75 272.18C219.35 272.35 218.95 272.51 218.55 272.66C217.91 272.91 217.27 273.16 216.62 273.39C215.86 273.67 215.09 273.94 214.31 274.19C214.04 274.28 213.77 274.36 213.5 274.45C212.55 274.75 211.59 275.03 210.63 275.3C210.54 275.32 210.46 275.35 210.37 275.37C200.25 278.08 189.45 278.7 178.62 276.88C178.47 276.85 178.31 276.83 178.16 276.8C177.25 276.64 176.34 276.46 175.43 276.27C175.05 276.19 174.67 276.11 174.28 276.02C173.55 275.85 172.82 275.67 172.09 275.48C171.55 275.34 171.01 275.19 170.47 275.04C170.46 275.04 170.45 275.04 170.44 275.04C170.04 274.93 169.64 274.8 169.25 274.68C168.45 274.44 167.65 274.19 166.85 273.92C166.52 273.81 166.2 273.69 165.87 273.58C165.05 273.29 164.24 272.99 163.43 272.67C162.87 272.45 162.31 272.22 161.75 271.99C161.23 271.77 160.71 271.54 160.19 271.31C159.42 270.97 158.66 270.62 157.91 270.25C157.64 270.12 157.36 269.98 157.09 269.84C156.2 269.39 155.32 268.93 154.45 268.45C154.33 268.38 154.21 268.31 154.09 268.25C146.31 263.87 139.5 258.2 133.88 251.6C133.85 251.56 133.82 251.53 133.79 251.49C133.08 250.66 132.39 249.81 131.72 248.94C131.56 248.74 131.4 248.53 131.25 248.33C130.73 247.65 130.23 246.95 129.73 246.25C129.34 245.71 128.97 245.16 128.6 244.61C128.35 244.24 128.11 243.87 127.87 243.5C127.38 242.73 126.9 241.96 126.43 241.18C126.32 241 126.21 240.81 126.1 240.63C125.58 239.73 125.07 238.83 124.59 237.91C124.53 237.79 124.47 237.67 124.41 237.56C123.92 236.62 123.45 235.68 123 234.72C122.92 234.54 122.84 234.36 122.75 234.19C122.35 233.33 121.97 232.46 121.61 231.58C121.45 231.18 121.29 230.79 121.13 230.39C120.88 229.75 120.63 229.11 120.4 228.46C120.12 227.7 119.85 226.93 119.6 226.15C119.51 225.88 119.43 225.61 119.34 225.34C119.04 224.39 118.76 223.43 118.49 222.47C118.47 222.38 118.44 222.3 118.42 222.21C115.71 212.09 115.09 201.29 116.91 190.46C116.94 190.31 116.96 190.15 116.99 190C117.15 189.09 117.33 188.18 117.52 187.27C117.6 186.89 117.68 186.51 117.77 186.13C117.94 185.4 118.12 184.67 118.31 183.94C118.45 183.4 118.6 182.86 118.75 182.32C118.75 182.31 118.75 182.3 118.75 182.29C118.87 181.88 118.99 181.48 119.11 181.08C119.35 180.28 119.6 179.49 119.87 178.7C119.98 178.37 120.1 178.04 120.22 177.71C120.51 176.9 120.81 176.09 121.12 175.29C121.34 174.72 121.58 174.15 121.81 173.59C122.03 173.08 122.25 172.56 122.48 172.05C122.82 171.28 123.18 170.52 123.54 169.77C123.67 169.5 123.81 169.23 123.95 168.95C124.4 168.06 124.86 167.18 125.35 166.31C125.42 166.19 125.49 166.07 125.55 165.95C129.93 158.17 135.6 151.36 142.2 145.74C142.23 145.71 142.27 145.68 142.3 145.65C143.14 144.94 143.99 144.25 144.85 143.58C145.05 143.42 145.25 143.27 145.45 143.11C146.14 142.59 146.83 142.08 147.54 141.58C148.08 141.2 148.63 140.82 149.18 140.45C149.55 140.2 149.92 139.96 150.3 139.71C151.06 139.22 151.83 138.74 152.6 138.28C152.79 138.17 152.98 138.05 153.17 137.94C154.06 137.42 154.96 136.92 155.87 136.44C155.99 136.38 156.11 136.31 156.23 136.25C157.16 135.76 158.11 135.29 159.06 134.85C159.24 134.76 159.43 134.68 159.61 134.59C160.47 134.2 161.33 133.82 162.2 133.45C162.6 133.28 163 133.12 163.41 132.96C164.05 132.71 164.68 132.46 165.33 132.23C166.1 131.95 166.87 131.68 167.64 131.42C167.91 131.33 168.18 131.25 168.45 131.17C169.4 130.87 170.36 130.58 171.33 130.32C171.41 130.3 171.5 130.28 171.58 130.25C181.7 127.54 192.5 126.91 203.34 128.74C203.49 128.77 203.65 128.79 203.8 128.82C204.71 128.98 205.62 129.16 206.53 129.35C206.91 129.43 207.29 129.51 207.67 129.6C208.4 129.77 209.13 129.95 209.86 130.14C210.4 130.28 210.94 130.43 211.48 130.58C211.49 130.58 211.5 130.58 211.51 130.58C211.91 130.69 212.31 130.82 212.7 130.94C213.5 131.18 214.3 131.43 215.1 131.7C215.43 131.81 215.75 131.93 216.08 132.04C216.9 132.33 217.71 132.63 218.52 132.95C219.08 133.17 219.64 133.4 220.2 133.63C220.72 133.85 221.24 134.08 221.76 134.31C222.53 134.65 223.29 135 224.04 135.37C224.31 135.5 224.59 135.64 224.86 135.78C225.75 136.23 226.63 136.69 227.5 137.17C227.62 137.24 227.74 137.31 227.86 137.38C235.64 141.76 242.44 147.43 248.07 154.02C248.1 154.06 248.13 154.09 248.16 154.13C248.87 154.96 249.56 155.81 250.23 156.67C250.39 156.88 250.55 157.08 250.71 157.29C251.23 157.97 251.73 158.66 252.22 159.36C252.61 159.9 252.98 160.45 253.35 161C253.6 161.37 253.84 161.74 254.08 162.11C254.57 162.87 255.05 163.65 255.51 164.42C255.62 164.61 255.73 164.79 255.84 164.98C256.36 165.88 256.87 166.78 257.35 167.7C257.41 167.82 257.47 167.94 257.54 168.05C258.03 168.99 258.5 169.93 258.95 170.89C259.03 171.07 259.11 171.25 259.2 171.42C259.6 172.28 259.98 173.15 260.34 174.03C260.5 174.43 260.66 174.82 260.82 175.22C261.07 175.86 261.32 176.51 261.56 177.16C261.84 177.92 262.11 178.69 262.36 179.46C262.45 179.73 262.53 180 262.62 180.28C262.92 181.23 263.2 182.19 263.46 183.15C263.48 183.24 263.51 183.33 263.53 183.41C266.24 193.53 266.86 204.33 265.04 215.16L142.24 280.46Z" fill="#B2B1B0"/>
</g>
<defs>
<filter id="filter0_d_204_1662" x="7.94832" y="31.9" width="373.592" height="373.436" filterUnits="userSpaceOnUse" color-interpolation-filters="sRGB">
<feFlood flood-opacity="0" result="BackgroundImageFix"/>
<feColorMatrix in="SourceAlpha" type="matrix" values="0 0 0 0 0 0 0 0 0 0 0 0 0 0 0 0 0 0 127 0" result="hardAlpha"/>
<feOffset dx="5.67" dy="14.17"/>
<feGaussianBlur stdDeviation="8.5"/>
<feColorMatrix type="matrix" values="0 0 0 0 0.137255 0 0 0 0 0.121569 0 0 0 0 0.12549 0 0 0 0.4 0"/>
<feBlend mode="normal" in2="BackgroundImageFix" result="effect1_dropShadow_204_1662"/>
<feBlend mode="normal" in="SourceGraphic" in2="effect1_dropShadow_204_1662" result="shape"/>
</filter>
<clipPath id="clip0_204_1662">
<rect width="374.17" height="396.85" fill="white"/>
</clipPath>
</defs>
</svg>
