<svg width="100%" height="100%" viewBox="0 0 900 450" fill="none" xmlns="http://www.w3.org/2000/svg">
<g opacity="0.08">
<path d="M195.261 336.5C195.261 333.78 195.641 330.99 195.191 328.35C193.831 320.41 197.241 318.16 204.801 318.69C216.281 319.49 227.171 317.91 231.901 305.15C233.141 301.81 233.401 297.92 233.291 294.31C232.941 282.99 231.161 271.63 246.901 268.07C251.161 267.11 255.211 261.99 249.811 256.11C246.971 253.01 244.861 249.1 242.971 245.28C238.611 236.52 233.111 228.47 231.841 218.11C226.261 172.52 170.751 150.2 128.581 171.82C86.1308 193.58 76.4908 246.35 106.661 280.82C120.381 296.49 127.391 315.12 124.491 336.51" fill="url(#paint0_linear_164_2)"/>
</g>
<g opacity="0.08">
<path d="M499.261 336.5C499.261 333.78 499.641 330.99 499.191 328.35C497.831 320.41 501.241 318.16 508.801 318.69C520.281 319.49 531.171 317.91 535.901 305.15C537.141 301.81 537.401 297.92 537.291 294.31C536.941 282.99 535.161 271.63 550.901 268.07C555.161 267.11 559.211 261.99 553.811 256.11C550.971 253.01 548.861 249.1 546.971 245.28C542.611 236.52 537.111 228.47 535.841 218.11C530.261 172.52 474.751 150.2 432.581 171.82C390.131 193.58 380.491 246.35 410.661 280.82C424.381 296.49 431.391 315.12 428.491 336.51" fill="url(#paint1_linear_164_2)"/>
</g>
<g opacity="0.08">
<path d="M810.261 336.5C810.261 333.78 810.641 330.99 810.191 328.35C808.831 320.41 812.241 318.16 819.801 318.69C831.281 319.49 842.171 317.91 846.901 305.15C848.141 301.81 848.401 297.92 848.291 294.31C847.941 282.99 846.161 271.63 861.901 268.07C866.161 267.11 870.211 261.99 864.811 256.11C861.971 253.01 859.861 249.1 857.971 245.28C853.611 236.52 848.111 228.47 846.841 218.11C841.261 172.52 785.751 150.2 743.581 171.82C701.131 193.58 691.491 246.35 721.661 280.82C735.381 296.49 742.391 315.12 739.491 336.51" fill="url(#paint2_linear_164_2)"/>
</g>
<path d="M168.261 324.5C168.261 321.78 168.641 318.99 168.191 316.35C166.831 308.41 170.241 306.16 177.801 306.69C189.281 307.49 200.171 305.91 204.901 293.15C206.141 289.81 206.401 285.92 206.291 282.31C205.941 270.99 204.161 259.63 219.901 256.07C224.161 255.11 228.211 249.99 222.811 244.11C219.971 241.01 217.861 237.1 215.971 233.28C211.611 224.52 206.111 216.47 204.841 206.11C199.261 160.52 143.751 138.2 101.581 159.82C59.1308 181.58 49.4908 234.35 79.6608 268.82C93.3808 284.49 100.391 303.12 97.4908 324.51" fill="url(#paint3_linear_164_2)"/>
<path d="M473.55 324.5C473.55 321.78 473.93 318.99 473.48 316.35C472.12 308.41 475.53 306.16 483.09 306.69C494.57 307.49 505.46 305.91 510.19 293.15C511.43 289.81 511.69 285.92 511.58 282.31C511.23 270.99 509.45 259.63 525.19 256.07C529.45 255.11 533.5 249.99 528.1 244.11C525.26 241.01 523.15 237.1 521.26 233.28C516.9 224.52 511.4 216.47 510.13 206.11C504.55 160.52 449.04 138.2 406.87 159.82C364.42 181.58 354.78 234.35 384.95 268.82C398.67 284.49 405.68 303.12 402.78 324.51" fill="url(#paint4_linear_164_2)"/>
<path d="M782.841 324.5C782.841 321.78 783.221 318.99 782.771 316.35C781.411 308.41 784.821 306.16 792.381 306.69C803.861 307.49 814.751 305.91 819.481 293.15C820.721 289.81 820.981 285.92 820.871 282.31C820.521 270.99 818.741 259.63 834.481 256.07C838.741 255.11 842.791 249.99 837.391 244.11C834.551 241.01 832.441 237.1 830.551 233.28C826.191 224.52 820.691 216.47 819.421 206.11C813.841 160.52 758.331 138.2 716.161 159.82C673.711 181.58 664.071 234.35 694.241 268.82C707.961 284.49 714.971 303.12 712.071 324.51" fill="url(#paint5_linear_164_2)"/>
<path d="M446.461 180.6C445.181 179.55 443.621 178.8 441.931 178.93C440.351 179.06 439.071 179.82 437.981 180.93C435.591 183.35 433.371 186.14 431.831 189.18C430.521 191.77 430.561 195.03 432.261 197.45C433.121 198.67 434.451 199.86 436.001 199.99C437.551 200.12 439.051 199.09 439.731 197.75C441.151 194.94 439.731 191.74 437.281 190.07C435.931 189.15 434.321 188.63 432.721 188.34C430.941 188.01 429.041 187.86 427.321 188.54C424.391 189.7 422.661 192.53 421.281 195.21C420.531 196.66 419.771 198.24 420.321 199.89C420.771 201.24 421.851 202.23 423.031 202.97C423.661 203.36 424.331 203.67 425.001 203.96C425.671 204.25 426.511 204.66 427.301 204.57C429.081 204.36 429.361 201.82 429.221 200.41C428.861 196.83 426.141 194.29 423.171 192.61C421.531 191.68 419.791 190.93 418.001 190.36C417.121 190.08 416.221 189.84 415.311 189.66C414.401 189.48 413.541 189.39 412.701 189.74C411.911 190.07 411.381 190.73 410.951 191.44C410.461 192.26 410.011 193.1 409.581 193.95C408.691 195.68 407.881 197.44 407.151 199.24C405.751 202.7 404.711 206.48 405.441 210.22C406.031 213.23 407.901 216.26 410.801 217.5C411.631 217.86 412.551 218 413.411 217.66C414.201 217.35 414.771 216.73 415.251 216.05C416.031 214.94 416.571 213.62 416.841 212.29C417.391 209.57 416.961 206.71 415.681 204.26C414.321 201.65 411.681 199.19 408.641 198.91C406.861 198.75 405.321 199.68 404.131 200.92C402.871 202.22 401.781 203.72 400.771 205.21C398.731 208.22 396.571 211.82 396.561 215.57C396.561 218.7 398.291 221.35 400.721 223.19C401.951 224.13 403.321 224.84 404.751 225.42C406.251 226.03 407.901 226.56 409.521 226.65C413.311 226.86 415.491 223.03 416.421 219.87C416.901 218.25 417.221 216.34 416.921 214.66C416.621 212.98 415.011 212.21 413.441 212.93C410.741 214.16 409.681 217.43 410.051 220.19C410.471 223.42 412.761 225.92 415.291 227.79C418.181 229.93 421.551 231.69 425.001 232.74C426.691 233.26 428.591 233.68 430.131 232.52C431.451 231.52 432.141 229.84 432.471 228.26C433.251 224.58 432.181 220.84 430.361 217.64C428.541 214.44 426.071 211.54 423.531 208.9C422.241 207.56 420.911 206.18 419.431 205.05C417.951 203.92 416.181 204.23 415.021 205.7C412.981 208.28 412.861 211.93 413.651 214.98C414.511 218.31 416.371 221.26 418.571 223.86C420.771 226.46 423.451 228.8 426.351 230.67C427.081 231.14 427.831 231.58 428.591 231.99C429.431 232.45 430.311 232.92 431.281 233.03C433.121 233.24 434.491 231.82 435.731 230.68C438.411 228.21 440.851 225.48 443.021 222.55C445.191 219.62 447.321 216.39 448.581 212.91C448.901 212.04 449.151 211.15 449.311 210.24C449.461 209.42 449.621 208.52 449.291 207.72C448.661 206.22 446.821 206.1 445.411 206.05C442.431 205.95 439.271 206.57 436.741 208.2C434.211 209.83 432.471 212.59 432.241 215.72C432.011 218.85 433.271 222.29 435.201 224.86C439.161 230.13 445.821 233.2 452.401 232.79C455.771 232.58 459.091 231.53 461.971 229.75C464.851 227.97 467.381 225.49 468.621 222.34C471.461 215.13 463.621 209.97 457.551 208.66C454.261 207.95 450.671 207.93 447.411 208.83C445.851 209.26 444.321 209.98 443.161 211.14C442.001 212.3 441.231 213.95 440.941 215.6C439.851 221.89 444.221 228.05 450.101 230.04C456.341 232.15 463.561 229.75 467.741 224.79C471.921 219.83 473.581 212.04 471.331 205.64C470.201 202.43 468.101 199.62 465.181 197.84C462.441 196.17 459.111 195.57 455.991 196.42C452.871 197.27 450.331 199.36 449.271 202.34C448.281 205.12 448.801 208.4 450.721 210.66C452.941 213.27 456.761 214.04 460.031 214.04C463.301 214.04 466.871 213.12 469.811 211.39C472.751 209.66 475.111 207.18 476.691 204.22C478.271 201.26 479.161 197.91 478.811 194.66C478.631 193.03 478.101 191.42 476.891 190.24C475.591 188.98 473.771 188.28 472.101 187.68C470.331 187.04 468.481 186.58 466.611 186.34C464.921 186.13 463.121 186.18 461.601 187.02C460.161 187.81 459.241 189.23 458.601 190.7C457.851 192.42 457.271 194.23 456.861 196.06C456.451 197.89 456.181 199.86 456.121 201.78C456.071 203.36 456.371 205.1 457.891 205.91C458.651 206.32 459.501 206.44 460.341 206.59C461.361 206.77 462.371 206.95 463.391 207.13C465.421 207.49 467.461 207.85 469.491 208.21C471.521 208.57 473.561 208.93 475.591 209.29C476.631 209.47 477.671 209.68 478.721 209.84C479.591 209.97 480.491 209.99 481.241 209.45C482.581 208.48 482.801 206.35 483.041 204.84C483.331 203.04 483.551 201.15 483.291 199.33C483.051 197.68 482.211 196.25 480.701 195.48C479.191 194.71 477.461 194.46 475.821 194.24C472.521 193.79 469.021 193.85 465.891 195.11C462.761 196.37 460.421 198.66 458.871 201.58C457.321 204.5 456.491 207.88 456.141 211.18C455.941 213.08 455.981 215.02 456.411 216.88C456.791 218.52 457.491 220.31 459.051 221.15C460.531 221.95 462.431 222.04 464.081 222.17C465.851 222.31 467.621 222.3 469.381 222.07C472.681 221.63 475.951 220.36 478.251 217.88C480.221 215.75 481.571 212.78 481.291 209.83C480.951 206.34 478.431 203.82 475.901 201.65C470.611 197.11 464.131 193.94 457.281 192.61C455.651 192.29 453.971 192.14 452.571 193.21C451.381 194.12 450.731 195.5 450.231 196.87C448.951 200.39 448.521 204.21 448.951 207.92C449.031 208.57 449.621 208.98 450.241 208.66C454.111 206.67 457.481 203.58 459.651 199.79C461.701 196.22 462.721 191.62 460.561 187.87C458.781 184.77 455.631 182.36 452.331 181.07C449.241 179.86 445.731 179.96 443.431 182.61C441.131 185.26 440.461 188.82 440.531 192.12C440.571 193.96 440.921 195.82 441.991 197.36C443.141 199.01 444.941 200.13 447.001 200.07C449.061 200.01 451.001 198.94 452.311 197.41C453.801 195.66 454.531 193.43 454.931 191.2C455.331 188.97 455.661 186.55 455.211 184.26C454.801 182.15 453.551 180.36 451.871 179.05C450.081 177.66 447.921 176.86 445.701 176.45C443.481 176.04 440.891 175.75 438.551 175.98C436.351 176.2 434.401 177.06 433.011 178.81C431.621 180.56 430.801 182.71 430.111 184.8C428.631 189.3 427.981 194.31 428.641 199.02C428.941 201.15 429.661 203.28 431.211 204.82C432.761 206.36 434.751 207.06 436.821 207.26C439.151 207.48 441.471 206.85 443.581 205.92C445.561 205.05 447.481 203.89 449.091 202.44C450.561 201.11 451.811 199.37 452.151 197.38C452.311 196.44 452.301 195.39 451.761 194.56C451.141 193.62 450.121 193.42 449.081 193.31C445.161 192.87 440.991 193.88 437.731 196.13C434.471 198.38 432.311 201.79 431.841 205.75C431.401 209.5 432.571 213.51 435.311 216.17C436.071 216.91 437.001 217.54 438.101 217.51C439.201 217.48 440.211 216.86 441.071 216.18C442.841 214.79 444.281 213.05 445.511 211.18C448.091 207.26 449.951 202.77 451.261 198.28C451.941 195.96 452.451 193.59 452.801 191.19C452.981 189.96 453.121 188.72 453.221 187.47C453.301 186.49 453.591 185.1 452.831 184.31C452.021 183.46 450.861 183.84 449.891 184.13C448.631 184.51 447.371 184.89 446.111 185.27C443.671 186.02 441.211 186.74 438.811 187.61C436.611 188.41 434.431 189.36 432.511 190.73C430.821 191.92 429.361 193.37 428.131 195.02C425.681 198.29 424.261 202.38 424.271 206.48C424.271 208.65 424.681 210.88 426.611 212.16C428.391 213.34 430.851 213.47 432.911 213.6C437.661 213.91 442.511 213.23 447.001 211.63C449.001 210.91 451.171 210.1 452.751 208.62C454.331 207.14 454.821 205.06 454.001 203.07C453.131 200.94 451.211 199.63 449.301 198.5C447.261 197.29 445.111 196.05 442.701 195.85C438.061 195.46 434.671 199.98 433.091 203.8C431.511 207.62 431.021 212.97 433.961 216.37C435.371 217.99 437.381 218.94 439.301 219.81C440.361 220.29 441.491 220.75 442.671 220.48C443.721 220.24 444.551 219.47 445.251 218.7C448.081 215.63 449.471 211.45 449.461 207.31C449.461 202.96 447.861 198.74 445.461 195.15C442.901 191.31 439.471 188.19 435.761 185.49C433.791 184.06 431.741 182.75 429.671 181.48C427.831 180.36 425.491 178.79 423.341 180.08C422.421 180.63 421.781 181.56 421.201 182.44C420.561 183.4 420.001 184.4 419.521 185.44C418.581 187.47 417.911 189.61 417.511 191.81C416.781 195.88 416.751 200.29 418.031 204.25C418.631 206.11 419.531 207.87 420.841 209.34C422.151 210.81 424.111 212.18 426.171 212.34C428.451 212.51 430.451 210.9 431.921 209.35C433.391 207.8 434.561 205.96 435.361 203.96C435.751 202.98 436.051 201.95 436.241 200.91C436.431 199.87 436.511 198.7 435.701 197.9C435.021 197.22 434.001 197.08 433.081 197.17C431.991 197.28 430.911 197.53 429.851 197.79C425.421 198.89 421.191 200.81 417.301 203.18C413.411 205.55 410.131 208.14 407.061 211.21C406.281 211.99 407.491 213.21 408.271 212.42C413.881 206.81 420.881 202.24 428.501 199.93C429.421 199.65 430.351 199.41 431.291 199.2C432.111 199.02 433.071 198.74 433.921 198.86C434.841 199 434.661 199.94 434.521 200.63C434.351 201.54 434.091 202.44 433.751 203.3C433.071 205.05 432.031 206.67 430.751 208.04C429.471 209.41 427.791 210.94 425.831 210.56C424.151 210.23 422.651 208.95 421.631 207.64C420.611 206.33 419.931 204.76 419.481 203.17C418.491 199.66 418.501 195.81 419.141 192.25C419.491 190.31 420.041 188.38 420.841 186.58C421.251 185.66 421.721 184.76 422.251 183.91C422.721 183.15 423.231 182.25 423.961 181.69C424.761 181.08 425.731 181.29 426.581 181.69C427.551 182.13 428.451 182.75 429.351 183.3C431.131 184.4 432.891 185.53 434.601 186.76C440.831 191.24 446.891 197.65 447.641 205.67C447.981 209.27 447.211 212.99 445.181 216C444.691 216.73 444.111 217.42 443.471 218.03C442.701 218.76 441.981 218.98 440.951 218.64C440.021 218.33 439.101 217.85 438.231 217.4C437.411 216.98 436.601 216.51 435.911 215.9C432.921 213.29 433.161 208.77 434.311 205.32C434.941 203.45 435.941 201.68 437.241 200.2C438.471 198.8 440.061 197.56 442.011 197.53C444.121 197.5 446.081 198.61 447.851 199.65C449.501 200.61 451.321 201.62 452.231 203.38C454.271 207.32 448.631 209.27 445.881 210.19C441.841 211.54 437.581 212.12 433.331 211.9C431.511 211.81 429.301 211.75 427.681 210.81C426.061 209.87 425.921 207.81 425.961 206.08C426.041 202.49 427.321 198.99 429.421 196.1C431.721 192.93 434.991 190.86 438.621 189.48C440.681 188.7 442.801 188.07 444.911 187.42C446.011 187.08 447.111 186.74 448.221 186.41C448.771 186.24 449.321 186.08 449.881 185.91C450.321 185.78 450.941 185.45 451.401 185.48C451.501 185.48 451.561 185.47 451.591 185.51C451.671 185.61 451.601 185.98 451.591 186.1C451.561 186.67 451.521 187.23 451.481 187.8C451.391 188.85 451.271 189.9 451.121 190.95C450.801 193.08 450.351 195.19 449.771 197.27C448.641 201.32 447.041 205.26 444.911 208.9C443.921 210.59 442.791 212.2 441.401 213.59C440.731 214.26 440.011 214.93 439.181 215.41C438.271 215.94 437.501 215.86 436.721 215.15C434.291 212.94 433.261 209.57 433.491 206.36C433.721 203.15 435.441 200.01 438.081 197.99C440.721 195.97 444.341 194.84 447.791 194.94C448.441 194.96 449.691 194.88 450.201 195.36C450.751 195.88 450.521 196.94 450.351 197.57C449.881 199.25 448.681 200.59 447.361 201.68C445.871 202.91 444.091 203.91 442.301 204.63C440.511 205.35 438.431 205.82 436.451 205.52C434.681 205.26 432.941 204.45 431.851 202.99C430.761 201.53 430.361 199.62 430.211 197.82C429.861 193.52 430.461 189.14 431.831 185.06C432.421 183.3 433.111 181.44 434.281 179.97C435.511 178.42 437.231 177.76 439.171 177.67C441.251 177.57 443.421 177.76 445.461 178.17C447.371 178.55 449.251 179.2 450.801 180.4C452.351 181.6 453.321 183.16 453.611 185.05C453.911 187.05 453.591 189.2 453.201 191.17C452.831 193.03 452.231 194.99 450.911 196.42C449.761 197.66 448.021 198.59 446.291 198.34C444.651 198.1 443.421 196.8 442.811 195.32C442.231 193.93 442.191 192.39 442.271 190.91C442.411 188.2 443.171 185.07 445.291 183.21C447.411 181.35 450.501 182.03 452.821 183.18C455.531 184.52 458.191 186.7 459.471 189.5C461.031 192.91 459.491 197.04 457.571 199.96C455.541 203.05 452.671 205.53 449.391 207.21L450.681 207.95C450.291 204.6 450.611 201.21 451.671 198C452.061 196.81 452.551 195.41 453.581 194.61C454.771 193.69 456.421 194.19 457.751 194.48C463.661 195.78 469.291 198.46 473.981 202.29C476.121 204.04 478.671 206.13 479.401 208.91C480.041 211.35 479.181 213.94 477.711 215.9C474.081 220.74 467.191 221.11 461.711 220.19C461.021 220.08 460.271 219.95 459.681 219.54C459.091 219.13 458.741 218.47 458.491 217.82C457.911 216.29 457.721 214.63 457.761 213.01C457.821 210.09 458.461 207.09 459.511 204.36C460.501 201.81 462.081 199.37 464.401 197.84C466.721 196.31 469.731 195.7 472.591 195.73C474.041 195.74 475.481 195.9 476.911 196.16C478.201 196.4 479.781 196.63 480.751 197.61C481.721 198.59 481.751 200.24 481.691 201.58C481.621 203.31 481.371 205.04 480.931 206.72C480.811 207.18 480.681 207.8 480.261 208.09C479.641 208.52 478.441 208.08 477.781 207.96C476.031 207.65 474.281 207.34 472.531 207.04C468.951 206.41 465.371 205.78 461.791 205.15C460.581 204.94 458.481 204.96 458.001 203.56C457.811 203 457.821 202.4 457.841 201.82C457.871 200.94 457.941 200.05 458.051 199.18C458.261 197.54 458.621 195.91 459.101 194.33C459.541 192.88 460.051 191.37 460.881 190.08C462.661 187.32 466.131 187.88 468.891 188.55C470.451 188.93 471.991 189.44 473.451 190.11C474.821 190.74 476.071 191.53 476.661 192.97C477.721 195.52 477.061 198.78 476.151 201.28C475.191 203.91 473.551 206.29 471.461 208.14C469.231 210.11 466.451 211.41 463.551 212.01C460.651 212.61 457.481 212.55 454.751 211.45C452.291 210.46 450.631 208.35 450.501 205.67C450.371 202.99 451.671 200.66 453.871 199.25C458.741 196.13 464.991 198.37 468.061 202.92C471.381 207.83 471.371 214.63 468.871 219.89C466.371 225.15 461.551 228.71 455.801 229.07C453.041 229.24 450.281 228.64 447.951 227.13C445.791 225.73 444.021 223.6 443.141 221.18C442.261 218.76 442.141 215.69 443.581 213.37C445.131 210.88 448.351 210.18 451.071 209.97C453.961 209.74 456.881 210.08 459.611 211.06C462.341 212.04 465.011 213.67 466.541 216.09C470.011 221.58 463.621 227.26 459.081 229.38C453.861 231.82 447.701 231.66 442.611 228.97C437.821 226.43 433.481 221.39 433.951 215.65C434.421 209.91 440.331 207.64 445.301 207.79C445.861 207.81 446.431 207.82 446.981 207.96C447.711 208.15 447.801 208.55 447.721 209.28C447.541 210.85 447.001 212.4 446.351 213.83C445.011 216.76 443.181 219.5 441.251 222.07C439.321 224.64 437.251 226.91 434.971 229.06C434.401 229.6 433.821 230.15 433.211 230.65C432.641 231.12 432.021 231.49 431.261 231.35C430.501 231.21 429.751 230.73 429.071 230.35C428.391 229.97 427.751 229.59 427.111 229.17C424.561 227.52 422.241 225.51 420.231 223.24C418.221 220.97 416.651 218.64 415.681 215.9C414.711 213.16 414.451 210.3 415.741 207.77C416.021 207.23 416.341 206.66 416.851 206.3C417.561 205.79 418.181 206.28 418.741 206.77C419.941 207.82 421.101 208.93 422.201 210.08C424.461 212.42 426.631 214.95 428.351 217.72C430.071 220.49 431.221 223.54 430.941 226.78C430.831 228.12 430.441 229.66 429.571 230.72C428.471 232.05 426.861 231.57 425.431 231.13C422.391 230.2 419.481 228.67 416.861 226.87C414.681 225.38 412.491 223.37 411.851 220.71C411.331 218.56 411.881 215.79 413.951 214.63C414.351 214.41 414.891 214.18 415.131 214.7C415.421 215.32 415.281 216.26 415.231 216.9C415.111 218.46 414.681 220.01 413.991 221.41C413.391 222.63 412.611 223.94 411.381 224.62C410.021 225.37 408.361 224.87 406.971 224.45C404.521 223.72 402.091 222.52 400.321 220.63C398.401 218.57 397.861 215.93 398.601 213.22C399.461 210.09 401.391 207.16 403.321 204.58C404.201 203.4 405.171 202.03 406.431 201.22C407.801 200.34 409.291 200.63 410.641 201.4C414.711 203.74 416.421 209.27 414.671 213.57C414.311 214.47 413.591 216.04 412.501 216.18C411.231 216.34 409.831 215 409.071 214.13C407.201 211.96 406.691 208.96 406.981 206.19C407.331 202.86 408.741 199.63 410.171 196.64C410.881 195.16 411.621 193.67 412.481 192.27C412.891 191.61 413.321 191.22 414.131 191.26C414.941 191.3 415.711 191.54 416.471 191.75C419.441 192.56 422.581 193.87 424.901 195.94C425.991 196.91 426.891 198.08 427.301 199.49C427.491 200.16 427.581 200.86 427.511 201.55C427.481 201.87 427.411 202.19 427.301 202.5C427.161 202.9 427.121 202.95 426.711 202.83C424.841 202.28 421.581 200.81 421.841 198.41C421.921 197.71 422.271 197.06 422.581 196.44C422.911 195.79 423.251 195.14 423.621 194.51C424.261 193.42 424.971 192.37 425.891 191.5C426.871 190.57 428.081 189.95 429.441 189.84C430.981 189.72 432.601 190.02 434.061 190.49C436.441 191.25 438.831 193.08 438.521 195.86C438.401 196.91 437.771 197.96 436.701 198.27C435.471 198.62 434.251 197.43 433.621 196.5C432.231 194.4 432.341 191.84 433.501 189.68C434.871 187.12 436.701 184.79 438.691 182.68C439.531 181.79 440.371 180.96 441.621 180.73C442.931 180.49 444.211 181.04 445.221 181.86C446.071 182.56 447.291 181.35 446.431 180.65L446.461 180.6Z" fill="white"/>
<path d="M43.81 116.99V94.9102H52.6C53.24 94.9102 53.89 95.0002 54.55 95.1802C55.23 95.3402 55.86 95.6702 56.44 96.1702C57.02 96.6502 57.48 97.3602 57.82 98.3002C58.18 99.2202 58.36 100.44 58.36 101.96C58.36 103.52 58.17 104.78 57.79 105.74C57.43 106.68 56.95 107.41 56.35 107.93C55.77 108.43 55.14 108.77 54.46 108.95C53.78 109.13 53.12 109.22 52.48 109.22C52.18 109.22 51.74 109.21 51.16 109.19C50.58 109.17 49.96 109.15 49.3 109.13C48.66 109.09 48.06 109.05 47.5 109.01C46.94 108.97 46.51 108.94 46.21 108.92V116.99H43.81ZM46.21 107.09H52.18C52.88 107.09 53.52 106.94 54.1 106.64C54.68 106.34 55.13 105.82 55.45 105.08C55.79 104.34 55.96 103.31 55.96 101.99C55.96 100.69 55.79 99.6902 55.45 98.9902C55.13 98.2702 54.7 97.7702 54.16 97.4902C53.62 97.2102 53.03 97.0702 52.39 97.0702H46.21V107.09ZM66.8955 116.99V97.0702H60.0855V94.9102H76.1055V97.0702H69.2955V116.99H66.8955ZM85.1777 117.17C84.7377 117.17 84.2077 117.15 83.5877 117.11C82.9877 117.09 82.3677 117.05 81.7277 116.99C81.0877 116.95 80.4777 116.9 79.8977 116.84C79.3377 116.78 78.8677 116.71 78.4877 116.63V114.8C78.9877 114.84 79.5977 114.88 80.3177 114.92C81.0377 114.96 81.8077 114.99 82.6277 115.01C83.4677 115.03 84.2877 115.04 85.0877 115.04C85.9877 115.04 86.7977 114.95 87.5177 114.77C88.2377 114.59 88.8077 114.26 89.2277 113.78C89.6677 113.3 89.8877 112.61 89.8877 111.71V110.21C89.8877 109.19 89.6277 108.42 89.1077 107.9C88.5877 107.36 87.7477 107.09 86.5877 107.09H84.2177C82.3977 107.09 80.9677 106.69 79.9277 105.89C78.9077 105.09 78.3977 103.71 78.3977 101.75V100.49C78.3977 98.4102 78.9577 96.9302 80.0777 96.0502C81.1977 95.1702 82.7777 94.7302 84.8177 94.7302C85.4577 94.7302 86.1777 94.7702 86.9777 94.8502C87.7777 94.9102 88.5477 94.9902 89.2877 95.0902C90.0477 95.1702 90.6777 95.2602 91.1777 95.3602V97.1902C90.2977 97.1102 89.2977 97.0402 88.1777 96.9802C87.0777 96.9202 86.0377 96.8902 85.0577 96.8902C84.1577 96.8902 83.3777 97.0002 82.7177 97.2202C82.0577 97.4202 81.5477 97.7902 81.1877 98.3302C80.8477 98.8502 80.6777 99.6002 80.6777 100.58V101.6C80.6777 102.82 80.9977 103.66 81.6377 104.12C82.2777 104.58 83.1677 104.81 84.3077 104.81H86.8577C88.0777 104.81 89.0777 105.03 89.8577 105.47C90.6377 105.91 91.2177 106.52 91.5977 107.3C91.9777 108.06 92.1677 108.94 92.1677 109.94V111.65C92.1677 113.13 91.8477 114.27 91.2077 115.07C90.5877 115.87 89.7477 116.42 88.6877 116.72C87.6477 117.02 86.4777 117.17 85.1777 117.17ZM96.2514 116.99V94.9102H104.981C106.321 94.9102 107.451 95.1602 108.371 95.6602C109.291 96.1402 110.031 96.8502 110.591 97.7902C111.171 98.7302 111.591 99.8902 111.851 101.27C112.111 102.63 112.241 104.19 112.241 105.95C112.241 108.27 111.971 110.25 111.431 111.89C110.891 113.53 110.081 114.79 109.001 115.67C107.921 116.55 106.581 116.99 104.981 116.99H96.2514ZM98.6514 114.86H104.801C105.981 114.86 106.941 114.5 107.681 113.78C108.421 113.04 108.971 112.01 109.331 110.69C109.691 109.35 109.871 107.77 109.871 105.95C109.871 104.31 109.771 102.93 109.571 101.81C109.371 100.67 109.061 99.7502 108.641 99.0502C108.241 98.3502 107.721 97.8502 107.081 97.5502C106.441 97.2302 105.681 97.0702 104.801 97.0702H98.6514V114.86ZM124.376 124.1V100.97H126.296L126.746 102.62C127.106 102.36 127.566 102.09 128.126 101.81C128.706 101.51 129.326 101.26 129.986 101.06C130.666 100.86 131.336 100.76 131.996 100.76C133.036 100.76 133.916 100.99 134.636 101.45C135.376 101.89 135.976 102.49 136.436 103.25C136.896 104.01 137.226 104.88 137.426 105.86C137.626 106.84 137.726 107.87 137.726 108.95C137.726 110.75 137.516 112.27 137.096 113.51C136.696 114.73 136.076 115.65 135.236 116.27C134.396 116.89 133.316 117.2 131.996 117.2C131.096 117.2 130.186 117.06 129.266 116.78C128.366 116.48 127.526 116.11 126.746 115.67V124.1H124.376ZM131.336 115.19C132.096 115.19 132.776 115 133.376 114.62C133.976 114.24 134.456 113.6 134.816 112.7C135.176 111.78 135.356 110.53 135.356 108.95C135.356 107.45 135.166 106.25 134.786 105.35C134.406 104.43 133.916 103.77 133.316 103.37C132.716 102.95 132.056 102.74 131.336 102.74C130.416 102.74 129.566 102.89 128.786 103.19C128.026 103.47 127.346 103.77 126.746 104.09V113.9C127.446 114.28 128.186 114.59 128.966 114.83C129.766 115.07 130.556 115.19 131.336 115.19ZM144.839 117.17C143.659 117.17 142.689 116.82 141.929 116.12C141.169 115.42 140.789 114.43 140.789 113.15V112.01C140.789 110.75 141.199 109.73 142.019 108.95C142.859 108.17 144.119 107.78 145.799 107.78H151.229V105.8C151.229 105.14 151.109 104.58 150.869 104.12C150.649 103.64 150.239 103.27 149.639 103.01C149.059 102.75 148.209 102.62 147.089 102.62H142.109V101.21C142.809 101.09 143.619 100.98 144.539 100.88C145.479 100.78 146.579 100.73 147.839 100.73C149.139 100.71 150.219 100.87 151.079 101.21C151.939 101.55 152.569 102.09 152.969 102.83C153.389 103.55 153.599 104.5 153.599 105.68V116.99H151.769L151.319 115.16C151.239 115.24 150.989 115.38 150.569 115.58C150.169 115.78 149.649 116.01 149.009 116.27C148.389 116.51 147.709 116.72 146.969 116.9C146.249 117.08 145.539 117.17 144.839 117.17ZM145.829 115.4C146.189 115.42 146.599 115.38 147.059 115.28C147.519 115.18 147.989 115.07 148.469 114.95C148.949 114.81 149.389 114.67 149.789 114.53C150.209 114.39 150.549 114.27 150.809 114.17C151.069 114.07 151.209 114.02 151.229 114.02V108.98L146.339 109.19C145.199 109.23 144.379 109.51 143.879 110.03C143.399 110.55 143.159 111.22 143.159 112.04V112.76C143.159 113.4 143.289 113.92 143.549 114.32C143.829 114.7 144.169 114.97 144.569 115.13C144.989 115.29 145.409 115.38 145.829 115.4ZM163.377 116.99C162.337 116.99 161.477 116.82 160.797 116.48C160.117 116.14 159.617 115.59 159.297 114.83C158.977 114.07 158.827 113.06 158.847 111.8L158.937 102.92H156.387V101.39L158.967 100.97L159.357 96.5002H161.187V100.97H165.807V102.92H161.187V111.8C161.187 112.5 161.257 113.06 161.397 113.48C161.557 113.9 161.757 114.22 161.997 114.44C162.257 114.66 162.527 114.82 162.807 114.92C163.087 115 163.357 115.05 163.617 115.07L165.567 115.25V116.99H163.377ZM169.443 98.1202C169.123 98.1202 168.963 97.9602 168.963 97.6402V95.3002C168.963 94.9802 169.123 94.8202 169.443 94.8202H171.123C171.283 94.8202 171.393 94.8702 171.453 94.9702C171.533 95.0502 171.573 95.1602 171.573 95.3002V97.6402C171.573 97.9602 171.423 98.1202 171.123 98.1202H169.443ZM169.083 116.99V100.97H171.453V116.99H169.083ZM182.146 117.17C180.466 117.17 179.136 116.92 178.156 116.42C177.196 115.92 176.506 115.07 176.086 113.87C175.666 112.67 175.456 111.03 175.456 108.95C175.456 106.83 175.666 105.18 176.086 104C176.526 102.8 177.236 101.96 178.216 101.48C179.196 101 180.516 100.76 182.176 100.76C183.596 100.76 184.746 100.92 185.626 101.24C186.526 101.56 187.186 102.11 187.606 102.89C188.046 103.65 188.266 104.71 188.266 106.07C188.266 107.01 188.076 107.77 187.696 108.35C187.336 108.91 186.806 109.32 186.106 109.58C185.426 109.82 184.616 109.94 183.676 109.94H177.826C177.846 111.24 177.986 112.29 178.246 113.09C178.506 113.87 178.976 114.44 179.656 114.8C180.356 115.14 181.376 115.31 182.716 115.31H187.876V116.75C186.956 116.87 186.056 116.97 185.176 117.05C184.296 117.13 183.286 117.17 182.146 117.17ZM177.796 108.38H183.496C184.396 108.38 185.056 108.22 185.476 107.9C185.916 107.56 186.136 106.96 186.136 106.1C186.136 105.18 185.996 104.47 185.716 103.97C185.456 103.45 185.036 103.09 184.456 102.89C183.896 102.67 183.136 102.56 182.176 102.56C181.056 102.56 180.176 102.73 179.536 103.07C178.896 103.39 178.446 103.97 178.186 104.81C177.926 105.65 177.796 106.84 177.796 108.38ZM192.257 116.99V100.97H194.117L194.627 102.74C195.387 102.2 196.277 101.73 197.297 101.33C198.317 100.91 199.377 100.7 200.477 100.7C201.657 100.7 202.607 100.95 203.327 101.45C204.047 101.95 204.577 102.61 204.917 103.43C205.257 104.25 205.427 105.14 205.427 106.1V116.99H203.057V106.37C203.057 105.69 202.917 105.09 202.637 104.57C202.377 104.03 201.997 103.61 201.497 103.31C201.017 103.01 200.417 102.86 199.697 102.86C199.037 102.86 198.417 102.93 197.837 103.07C197.277 103.19 196.737 103.37 196.217 103.61C195.717 103.83 195.187 104.1 194.627 104.42V116.99H192.257ZM215.203 116.99C214.163 116.99 213.303 116.82 212.623 116.48C211.943 116.14 211.443 115.59 211.123 114.83C210.803 114.07 210.653 113.06 210.673 111.8L210.763 102.92H208.213V101.39L210.793 100.97L211.183 96.5002H213.013V100.97H217.633V102.92H213.013V111.8C213.013 112.5 213.083 113.06 213.223 113.48C213.383 113.9 213.583 114.22 213.823 114.44C214.083 114.66 214.353 114.82 214.633 114.92C214.913 115 215.183 115.05 215.443 115.07L217.393 115.25V116.99H215.203Z" fill="#0B5079"/>
<path d="M335.03 116.99L342.59 94.9102H345.65L353.21 116.99H350.75L348.53 110.69H339.65L337.49 116.99H335.03ZM340.25 108.53H347.93L344.12 97.0102L340.25 108.53ZM356.505 116.99V100.97H358.365L358.875 102.74C359.635 102.2 360.525 101.73 361.545 101.33C362.565 100.91 363.625 100.7 364.725 100.7C365.905 100.7 366.855 100.95 367.575 101.45C368.295 101.95 368.825 102.61 369.165 103.43C369.505 104.25 369.675 105.14 369.675 106.1V116.99H367.305V106.37C367.305 105.69 367.165 105.09 366.885 104.57C366.625 104.03 366.245 103.61 365.745 103.31C365.265 103.01 364.665 102.86 363.945 102.86C363.285 102.86 362.665 102.93 362.085 103.07C361.525 103.19 360.985 103.37 360.465 103.61C359.965 103.83 359.435 104.1 358.875 104.42V116.99H356.505ZM383.981 116.99L372.521 100.97H374.951L386.441 116.99H383.981ZM372.521 116.99L378.551 108.32L379.451 110.45L374.921 116.99H372.521ZM380.381 109.7L379.331 107.81L383.981 101L386.441 100.97L380.381 109.7ZM389.706 98.1202C389.386 98.1202 389.226 97.9602 389.226 97.6402V95.3002C389.226 94.9802 389.386 94.8202 389.706 94.8202H391.386C391.546 94.8202 391.656 94.8702 391.716 94.9702C391.796 95.0502 391.836 95.1602 391.836 95.3002V97.6402C391.836 97.9602 391.686 98.1202 391.386 98.1202H389.706ZM389.346 116.99V100.97H391.716V116.99H389.346ZM402.41 117.17C400.73 117.17 399.4 116.92 398.42 116.42C397.46 115.92 396.77 115.07 396.35 113.87C395.93 112.67 395.72 111.03 395.72 108.95C395.72 106.83 395.93 105.18 396.35 104C396.79 102.8 397.5 101.96 398.48 101.48C399.46 101 400.78 100.76 402.44 100.76C403.86 100.76 405.01 100.92 405.89 101.24C406.79 101.56 407.45 102.11 407.87 102.89C408.31 103.65 408.53 104.71 408.53 106.07C408.53 107.01 408.34 107.77 407.96 108.35C407.6 108.91 407.07 109.32 406.37 109.58C405.69 109.82 404.88 109.94 403.94 109.94H398.09C398.11 111.24 398.25 112.29 398.51 113.09C398.77 113.87 399.24 114.44 399.92 114.8C400.62 115.14 401.64 115.31 402.98 115.31H408.14V116.75C407.22 116.87 406.32 116.97 405.44 117.05C404.56 117.13 403.55 117.17 402.41 117.17ZM398.06 108.38H403.76C404.66 108.38 405.32 108.22 405.74 107.9C406.18 107.56 406.4 106.96 406.4 106.1C406.4 105.18 406.26 104.47 405.98 103.97C405.72 103.45 405.3 103.09 404.72 102.89C404.16 102.67 403.4 102.56 402.44 102.56C401.32 102.56 400.44 102.73 399.8 103.07C399.16 103.39 398.71 103.97 398.45 104.81C398.19 105.65 398.06 106.84 398.06 108.38ZM417.83 116.99C416.79 116.99 415.93 116.82 415.25 116.48C414.57 116.14 414.07 115.59 413.75 114.83C413.43 114.07 413.28 113.06 413.3 111.8L413.39 102.92H410.84V101.39L413.42 100.97L413.81 96.5002H415.64V100.97H420.26V102.92H415.64V111.8C415.64 112.5 415.71 113.06 415.85 113.48C416.01 113.9 416.21 114.22 416.45 114.44C416.71 114.66 416.98 114.82 417.26 114.92C417.54 115 417.81 115.05 418.07 115.07L420.02 115.25V116.99H417.83ZM427.826 124.1L429.866 116.99C429.366 116.97 428.846 116.85 428.306 116.63C427.766 116.41 427.266 116.03 426.806 115.49C426.346 114.95 425.966 114.2 425.666 113.24L421.826 100.97H424.316L427.886 112.73C428.106 113.35 428.336 113.81 428.576 114.11C428.836 114.41 429.096 114.62 429.356 114.74C429.616 114.86 429.836 114.93 430.016 114.95C430.216 114.95 430.336 114.95 430.376 114.95L434.486 100.97H436.916L431.066 121.13L429.686 124.1H427.826ZM447.852 124.1V100.97H449.772L450.222 102.62C450.582 102.36 451.042 102.09 451.602 101.81C452.182 101.51 452.802 101.26 453.462 101.06C454.142 100.86 454.812 100.76 455.472 100.76C456.512 100.76 457.392 100.99 458.112 101.45C458.852 101.89 459.452 102.49 459.912 103.25C460.372 104.01 460.702 104.88 460.902 105.86C461.102 106.84 461.202 107.87 461.202 108.95C461.202 110.75 460.992 112.27 460.572 113.51C460.172 114.73 459.552 115.65 458.712 116.27C457.872 116.89 456.792 117.2 455.472 117.2C454.572 117.2 453.662 117.06 452.742 116.78C451.842 116.48 451.002 116.11 450.222 115.67V124.1H447.852ZM454.812 115.19C455.572 115.19 456.252 115 456.852 114.62C457.452 114.24 457.932 113.6 458.292 112.7C458.652 111.78 458.832 110.53 458.832 108.95C458.832 107.45 458.642 106.25 458.262 105.35C457.882 104.43 457.392 103.77 456.792 103.37C456.192 102.95 455.532 102.74 454.812 102.74C453.892 102.74 453.042 102.89 452.262 103.19C451.502 103.47 450.822 103.77 450.222 104.09V113.9C450.922 114.28 451.662 114.59 452.442 114.83C453.242 115.07 454.032 115.19 454.812 115.19ZM468.316 117.17C467.136 117.17 466.166 116.82 465.406 116.12C464.646 115.42 464.266 114.43 464.266 113.15V112.01C464.266 110.75 464.676 109.73 465.496 108.95C466.336 108.17 467.596 107.78 469.276 107.78H474.706V105.8C474.706 105.14 474.586 104.58 474.346 104.12C474.126 103.64 473.716 103.27 473.116 103.01C472.536 102.75 471.686 102.62 470.566 102.62H465.586V101.21C466.286 101.09 467.096 100.98 468.016 100.88C468.956 100.78 470.056 100.73 471.316 100.73C472.616 100.71 473.696 100.87 474.556 101.21C475.416 101.55 476.046 102.09 476.446 102.83C476.866 103.55 477.076 104.5 477.076 105.68V116.99H475.246L474.796 115.16C474.716 115.24 474.466 115.38 474.046 115.58C473.646 115.78 473.126 116.01 472.486 116.27C471.866 116.51 471.186 116.72 470.446 116.9C469.726 117.08 469.016 117.17 468.316 117.17ZM469.306 115.4C469.666 115.42 470.076 115.38 470.536 115.28C470.996 115.18 471.466 115.07 471.946 114.95C472.426 114.81 472.866 114.67 473.266 114.53C473.686 114.39 474.026 114.27 474.286 114.17C474.546 114.07 474.686 114.02 474.706 114.02V108.98L469.816 109.19C468.676 109.23 467.856 109.51 467.356 110.03C466.876 110.55 466.636 111.22 466.636 112.04V112.76C466.636 113.4 466.766 113.92 467.026 114.32C467.306 114.7 467.646 114.97 468.046 115.13C468.466 115.29 468.886 115.38 469.306 115.4ZM486.854 116.99C485.814 116.99 484.954 116.82 484.274 116.48C483.594 116.14 483.094 115.59 482.774 114.83C482.454 114.07 482.304 113.06 482.324 111.8L482.414 102.92H479.864V101.39L482.444 100.97L482.834 96.5002H484.664V100.97H489.284V102.92H484.664V111.8C484.664 112.5 484.734 113.06 484.874 113.48C485.034 113.9 485.234 114.22 485.474 114.44C485.734 114.66 486.004 114.82 486.284 114.92C486.564 115 486.834 115.05 487.094 115.07L489.044 115.25V116.99H486.854ZM492.919 98.1202C492.599 98.1202 492.439 97.9602 492.439 97.6402V95.3002C492.439 94.9802 492.599 94.8202 492.919 94.8202H494.599C494.759 94.8202 494.869 94.8702 494.929 94.9702C495.009 95.0502 495.049 95.1602 495.049 95.3002V97.6402C495.049 97.9602 494.899 98.1202 494.599 98.1202H492.919ZM492.559 116.99V100.97H494.929V116.99H492.559ZM505.623 117.17C503.943 117.17 502.613 116.92 501.633 116.42C500.673 115.92 499.983 115.07 499.563 113.87C499.143 112.67 498.933 111.03 498.933 108.95C498.933 106.83 499.143 105.18 499.563 104C500.003 102.8 500.713 101.96 501.693 101.48C502.673 101 503.993 100.76 505.653 100.76C507.073 100.76 508.223 100.92 509.103 101.24C510.003 101.56 510.663 102.11 511.083 102.89C511.523 103.65 511.743 104.71 511.743 106.07C511.743 107.01 511.553 107.77 511.173 108.35C510.813 108.91 510.283 109.32 509.583 109.58C508.903 109.82 508.093 109.94 507.153 109.94H501.303C501.323 111.24 501.463 112.29 501.723 113.09C501.983 113.87 502.453 114.44 503.133 114.8C503.833 115.14 504.853 115.31 506.193 115.31H511.353V116.75C510.433 116.87 509.533 116.97 508.653 117.05C507.773 117.13 506.763 117.17 505.623 117.17ZM501.273 108.38H506.973C507.873 108.38 508.533 108.22 508.953 107.9C509.393 107.56 509.613 106.96 509.613 106.1C509.613 105.18 509.473 104.47 509.193 103.97C508.933 103.45 508.513 103.09 507.933 102.89C507.373 102.67 506.613 102.56 505.653 102.56C504.533 102.56 503.653 102.73 503.013 103.07C502.373 103.39 501.923 103.97 501.663 104.81C501.403 105.65 501.273 106.84 501.273 108.38ZM515.733 116.99V100.97H517.593L518.103 102.74C518.863 102.2 519.753 101.73 520.773 101.33C521.793 100.91 522.853 100.7 523.953 100.7C525.133 100.7 526.083 100.95 526.803 101.45C527.523 101.95 528.053 102.61 528.393 103.43C528.733 104.25 528.903 105.14 528.903 106.1V116.99H526.533V106.37C526.533 105.69 526.393 105.09 526.113 104.57C525.853 104.03 525.473 103.61 524.973 103.31C524.493 103.01 523.893 102.86 523.173 102.86C522.513 102.86 521.893 102.93 521.313 103.07C520.753 103.19 520.213 103.37 519.693 103.61C519.193 103.83 518.663 104.1 518.103 104.42V116.99H515.733ZM538.68 116.99C537.64 116.99 536.78 116.82 536.1 116.48C535.42 116.14 534.92 115.59 534.6 114.83C534.28 114.07 534.13 113.06 534.15 111.8L534.24 102.92H531.69V101.39L534.27 100.97L534.66 96.5002H536.49V100.97H541.11V102.92H536.49V111.8C536.49 112.5 536.56 113.06 536.7 113.48C536.86 113.9 537.06 114.22 537.3 114.44C537.56 114.66 537.83 114.82 538.11 114.92C538.39 115 538.66 115.05 538.92 115.07L540.87 115.25V116.99H538.68Z" fill="#0B5079"/>
<path d="M665.38 116.99L667.9 94.9102H670.33L676.21 113.99L681.97 94.9102H684.43L687.01 116.99H684.7L682.48 97.6402L682.87 97.7002L677.29 116.99H675.1L669.37 97.7302L669.82 97.6702L667.69 116.99H665.38ZM691.029 116.99V94.9102H699.759C701.099 94.9102 702.229 95.1602 703.149 95.6602C704.069 96.1402 704.809 96.8502 705.369 97.7902C705.949 98.7302 706.369 99.8902 706.629 101.27C706.889 102.63 707.019 104.19 707.019 105.95C707.019 108.27 706.749 110.25 706.209 111.89C705.669 113.53 704.859 114.79 703.779 115.67C702.699 116.55 701.359 116.99 699.759 116.99H691.029ZM693.429 114.86H699.579C700.759 114.86 701.719 114.5 702.459 113.78C703.199 113.04 703.749 112.01 704.109 110.69C704.469 109.35 704.649 107.77 704.649 105.95C704.649 104.31 704.549 102.93 704.349 101.81C704.149 100.67 703.839 99.7502 703.419 99.0502C703.019 98.3502 702.499 97.8502 701.859 97.5502C701.219 97.2302 700.459 97.0702 699.579 97.0702H693.429V114.86ZM711.097 116.99V94.9102H719.827C721.167 94.9102 722.297 95.1602 723.217 95.6602C724.137 96.1402 724.877 96.8502 725.437 97.7902C726.017 98.7302 726.437 99.8902 726.697 101.27C726.957 102.63 727.087 104.19 727.087 105.95C727.087 108.27 726.817 110.25 726.277 111.89C725.737 113.53 724.927 114.79 723.847 115.67C722.767 116.55 721.427 116.99 719.827 116.99H711.097ZM713.497 114.86H719.647C720.827 114.86 721.787 114.5 722.527 113.78C723.267 113.04 723.817 112.01 724.177 110.69C724.537 109.35 724.717 107.77 724.717 105.95C724.717 104.31 724.617 102.93 724.417 101.81C724.217 100.67 723.907 99.7502 723.487 99.0502C723.087 98.3502 722.567 97.8502 721.927 97.5502C721.287 97.2302 720.527 97.0702 719.647 97.0702H713.497V114.86ZM739.221 124.1V100.97H741.141L741.591 102.62C741.951 102.36 742.411 102.09 742.971 101.81C743.551 101.51 744.171 101.26 744.831 101.06C745.511 100.86 746.181 100.76 746.841 100.76C747.881 100.76 748.761 100.99 749.481 101.45C750.221 101.89 750.821 102.49 751.281 103.25C751.741 104.01 752.071 104.88 752.271 105.86C752.471 106.84 752.571 107.87 752.571 108.95C752.571 110.75 752.361 112.27 751.941 113.51C751.541 114.73 750.921 115.65 750.081 116.27C749.241 116.89 748.161 117.2 746.841 117.2C745.941 117.2 745.031 117.06 744.111 116.78C743.211 116.48 742.371 116.11 741.591 115.67V124.1H739.221ZM746.181 115.19C746.941 115.19 747.621 115 748.221 114.62C748.821 114.24 749.301 113.6 749.661 112.7C750.021 111.78 750.201 110.53 750.201 108.95C750.201 107.45 750.011 106.25 749.631 105.35C749.251 104.43 748.761 103.77 748.161 103.37C747.561 102.95 746.901 102.74 746.181 102.74C745.261 102.74 744.411 102.89 743.631 103.19C742.871 103.47 742.191 103.77 741.591 104.09V113.9C742.291 114.28 743.031 114.59 743.811 114.83C744.611 115.07 745.401 115.19 746.181 115.19ZM759.685 117.17C758.505 117.17 757.535 116.82 756.775 116.12C756.015 115.42 755.635 114.43 755.635 113.15V112.01C755.635 110.75 756.045 109.73 756.865 108.95C757.705 108.17 758.965 107.78 760.645 107.78H766.075V105.8C766.075 105.14 765.955 104.58 765.715 104.12C765.495 103.64 765.085 103.27 764.485 103.01C763.905 102.75 763.055 102.62 761.935 102.62H756.955V101.21C757.655 101.09 758.465 100.98 759.385 100.88C760.325 100.78 761.425 100.73 762.685 100.73C763.985 100.71 765.065 100.87 765.925 101.21C766.785 101.55 767.415 102.09 767.815 102.83C768.235 103.55 768.445 104.5 768.445 105.68V116.99H766.615L766.165 115.16C766.085 115.24 765.835 115.38 765.415 115.58C765.015 115.78 764.495 116.01 763.855 116.27C763.235 116.51 762.555 116.72 761.815 116.9C761.095 117.08 760.385 117.17 759.685 117.17ZM760.675 115.4C761.035 115.42 761.445 115.38 761.905 115.28C762.365 115.18 762.835 115.07 763.315 114.95C763.795 114.81 764.235 114.67 764.635 114.53C765.055 114.39 765.395 114.27 765.655 114.17C765.915 114.07 766.055 114.02 766.075 114.02V108.98L761.185 109.19C760.045 109.23 759.225 109.51 758.725 110.03C758.245 110.55 758.005 111.22 758.005 112.04V112.76C758.005 113.4 758.135 113.92 758.395 114.32C758.675 114.7 759.015 114.97 759.415 115.13C759.835 115.29 760.255 115.38 760.675 115.4ZM778.223 116.99C777.183 116.99 776.323 116.82 775.643 116.48C774.963 116.14 774.463 115.59 774.143 114.83C773.823 114.07 773.673 113.06 773.693 111.8L773.783 102.92H771.233V101.39L773.813 100.97L774.203 96.5002H776.033V100.97H780.653V102.92H776.033V111.8C776.033 112.5 776.103 113.06 776.243 113.48C776.403 113.9 776.603 114.22 776.843 114.44C777.103 114.66 777.373 114.82 777.653 114.92C777.933 115 778.203 115.05 778.463 115.07L780.413 115.25V116.99H778.223ZM784.288 98.1202C783.968 98.1202 783.808 97.9602 783.808 97.6402V95.3002C783.808 94.9802 783.968 94.8202 784.288 94.8202H785.968C786.128 94.8202 786.238 94.8702 786.298 94.9702C786.378 95.0502 786.418 95.1602 786.418 95.3002V97.6402C786.418 97.9602 786.268 98.1202 785.968 98.1202H784.288ZM783.928 116.99V100.97H786.298V116.99H783.928ZM796.992 117.17C795.312 117.17 793.982 116.92 793.002 116.42C792.042 115.92 791.352 115.07 790.932 113.87C790.512 112.67 790.302 111.03 790.302 108.95C790.302 106.83 790.512 105.18 790.932 104C791.372 102.8 792.082 101.96 793.062 101.48C794.042 101 795.362 100.76 797.022 100.76C798.442 100.76 799.592 100.92 800.472 101.24C801.372 101.56 802.032 102.11 802.452 102.89C802.892 103.65 803.112 104.71 803.112 106.07C803.112 107.01 802.922 107.77 802.542 108.35C802.182 108.91 801.652 109.32 800.952 109.58C800.272 109.82 799.462 109.94 798.522 109.94H792.672C792.692 111.24 792.832 112.29 793.092 113.09C793.352 113.87 793.822 114.44 794.502 114.8C795.202 115.14 796.222 115.31 797.562 115.31H802.722V116.75C801.802 116.87 800.902 116.97 800.022 117.05C799.142 117.13 798.132 117.17 796.992 117.17ZM792.642 108.38H798.342C799.242 108.38 799.902 108.22 800.322 107.9C800.762 107.56 800.982 106.96 800.982 106.1C800.982 105.18 800.842 104.47 800.562 103.97C800.302 103.45 799.882 103.09 799.302 102.89C798.742 102.67 797.982 102.56 797.022 102.56C795.902 102.56 795.022 102.73 794.382 103.07C793.742 103.39 793.292 103.97 793.032 104.81C792.772 105.65 792.642 106.84 792.642 108.38ZM807.102 116.99V100.97H808.962L809.472 102.74C810.232 102.2 811.122 101.73 812.142 101.33C813.162 100.91 814.222 100.7 815.322 100.7C816.502 100.7 817.452 100.95 818.172 101.45C818.892 101.95 819.422 102.61 819.762 103.43C820.102 104.25 820.272 105.14 820.272 106.1V116.99H817.902V106.37C817.902 105.69 817.762 105.09 817.482 104.57C817.222 104.03 816.842 103.61 816.342 103.31C815.862 103.01 815.262 102.86 814.542 102.86C813.882 102.86 813.262 102.93 812.682 103.07C812.122 103.19 811.582 103.37 811.062 103.61C810.562 103.83 810.032 104.1 809.472 104.42V116.99H807.102ZM830.049 116.99C829.009 116.99 828.149 116.82 827.469 116.48C826.789 116.14 826.289 115.59 825.969 114.83C825.649 114.07 825.499 113.06 825.519 111.8L825.609 102.92H823.059V101.39L825.639 100.97L826.029 96.5002H827.859V100.97H832.479V102.92H827.859V111.8C827.859 112.5 827.929 113.06 828.069 113.48C828.229 113.9 828.429 114.22 828.669 114.44C828.929 114.66 829.199 114.82 829.479 114.92C829.759 115 830.029 115.05 830.289 115.07L832.239 115.25V116.99H830.049Z" fill="#0B5079"/>
<path d="M404.88 390.68L404.52 389.6L405.57 387.77L405.93 388.79L404.88 390.68ZM404.52 415.16V412.31L405.93 412.34V415.16H404.52ZM405.09 412.67C404.65 412.67 404.12 412.65 403.5 412.61C402.9 412.59 402.28 412.55 401.64 412.49C401 412.45 400.39 412.4 399.81 412.34C399.25 412.28 398.78 412.21 398.4 412.13V410.3C398.9 410.34 399.51 410.38 400.23 410.42C400.95 410.46 401.72 410.49 402.54 410.51C403.38 410.53 404.2 410.54 405 410.54C405.9 410.54 406.71 410.45 407.43 410.27C408.15 410.09 408.72 409.76 409.14 409.28C409.58 408.8 409.8 408.11 409.8 407.21V405.71C409.8 404.69 409.54 403.92 409.02 403.4C408.5 402.86 407.66 402.59 406.5 402.59H404.13C402.31 402.59 400.88 402.19 399.84 401.39C398.82 400.59 398.31 399.21 398.31 397.25V395.99C398.31 393.91 398.87 392.43 399.99 391.55C401.11 390.67 402.69 390.23 404.73 390.23C405.37 390.23 406.09 390.27 406.89 390.35C407.69 390.41 408.46 390.49 409.2 390.59C409.96 390.67 410.59 390.76 411.09 390.86V392.69C410.21 392.61 409.21 392.54 408.09 392.48C406.99 392.42 405.95 392.39 404.97 392.39C404.07 392.39 403.29 392.5 402.63 392.72C401.97 392.92 401.46 393.29 401.1 393.83C400.76 394.35 400.59 395.1 400.59 396.08V397.1C400.59 398.32 400.91 399.16 401.55 399.62C402.19 400.08 403.08 400.31 404.22 400.31H406.77C407.99 400.31 408.99 400.53 409.77 400.97C410.55 401.41 411.13 402.02 411.51 402.8C411.89 403.56 412.08 404.44 412.08 405.44V407.15C412.08 408.63 411.76 409.77 411.12 410.57C410.5 411.37 409.66 411.92 408.6 412.22C407.56 412.52 406.39 412.67 405.09 412.67ZM424.091 412.67C422.511 412.67 421.031 412.63 419.651 412.55C418.291 412.49 417.101 412.4 416.081 412.28V410.45H423.311C424.171 410.45 424.941 410.36 425.621 410.18C426.301 410 426.831 409.67 427.211 409.19C427.611 408.69 427.811 407.99 427.811 407.09V405.62C427.811 404.84 427.611 404.22 427.211 403.76C426.831 403.3 426.351 402.97 425.771 402.77C425.191 402.57 424.591 402.46 423.971 402.44L418.301 402.23V400.49L423.881 400.25C424.961 400.21 425.831 399.98 426.491 399.56C427.171 399.12 427.511 398.39 427.511 397.37V395.9C427.511 394.8 427.141 393.96 426.401 393.38C425.681 392.78 424.591 392.48 423.131 392.48H416.831V390.65C417.751 390.53 418.801 390.43 419.981 390.35C421.181 390.27 422.521 390.23 424.001 390.23C425.321 390.25 426.411 390.48 427.271 390.92C428.151 391.34 428.801 391.94 429.221 392.72C429.641 393.48 429.851 394.38 429.851 395.42V397.31C429.851 397.99 429.741 398.58 429.521 399.08C429.321 399.56 429.051 399.96 428.711 400.28C428.391 400.6 428.041 400.85 427.661 401.03C427.301 401.19 426.971 401.3 426.671 401.36C427.011 401.44 427.381 401.59 427.781 401.81C428.181 402.01 428.561 402.29 428.921 402.65C429.301 403.01 429.611 403.46 429.851 404C430.091 404.54 430.211 405.18 430.211 405.92V407.45C430.211 409.15 429.671 410.45 428.591 411.35C427.531 412.23 426.031 412.67 424.091 412.67ZM435.04 414.83C434.84 414.83 434.66 414.81 434.5 414.77C434.36 414.75 434.29 414.74 434.29 414.74V413.99C434.51 413.99 434.67 413.95 434.77 413.87C434.87 413.81 434.92 413.68 434.92 413.48V412.34H434.68C434.56 412.34 434.45 412.3 434.35 412.22C434.25 412.14 434.2 412.02 434.2 411.86V409.7C434.2 409.34 434.36 409.16 434.68 409.16H435.97C436.17 409.16 436.3 409.21 436.36 409.31C436.42 409.41 436.45 409.54 436.45 409.7V413.36C436.45 413.76 436.37 414.07 436.21 414.29C436.07 414.51 435.89 414.65 435.67 414.71C435.47 414.79 435.26 414.83 435.04 414.83ZM446.843 412.64C446.003 412.64 445.073 412.6 444.053 412.52C443.033 412.46 442.133 412.39 441.353 412.31V410.48H446.813C448.533 410.48 449.873 409.83 450.833 408.53C451.793 407.21 452.273 405.21 452.273 402.53C451.673 402.61 451.003 402.68 450.263 402.74C449.543 402.78 448.823 402.81 448.103 402.83C447.383 402.83 446.743 402.83 446.183 402.83C444.843 402.83 443.713 402.68 442.793 402.38C441.893 402.08 441.203 401.59 440.723 400.91C440.263 400.23 440.033 399.33 440.033 398.21V395.12C440.033 393.94 440.263 393 440.723 392.3C441.183 391.6 441.793 391.09 442.553 390.77C443.333 390.45 444.193 390.29 445.133 390.29H448.553C449.493 390.29 450.333 390.46 451.073 390.8C451.833 391.12 452.473 391.69 452.993 392.51C453.533 393.33 453.943 394.46 454.223 395.9C454.503 397.34 454.643 399.18 454.643 401.42C454.643 403.4 454.463 405.1 454.103 406.52C453.763 407.94 453.253 409.1 452.573 410C451.913 410.9 451.103 411.57 450.143 412.01C449.183 412.43 448.083 412.64 446.843 412.64ZM446.723 400.79H452.273C452.273 399.13 452.183 397.76 452.003 396.68C451.823 395.58 451.553 394.73 451.193 394.13C450.853 393.51 450.423 393.08 449.903 392.84C449.403 392.58 448.823 392.45 448.163 392.45H445.583C445.003 392.45 444.463 392.54 443.963 392.72C443.483 392.88 443.093 393.18 442.793 393.62C442.513 394.04 442.373 394.66 442.373 395.48V397.82C442.373 398.66 442.543 399.29 442.883 399.71C443.243 400.13 443.743 400.42 444.383 400.58C445.023 400.72 445.803 400.79 446.723 400.79ZM464.514 412.55C463.454 412.55 462.504 412.37 461.664 412.01C460.844 411.63 460.194 411.06 459.714 410.3C459.254 409.52 459.024 408.52 459.024 407.3V395.6C459.024 394.42 459.254 393.44 459.714 392.66C460.194 391.86 460.844 391.26 461.664 390.86C462.504 390.44 463.454 390.23 464.514 390.23H468.804C470.044 390.23 471.054 390.46 471.834 390.92C472.614 391.36 473.184 391.98 473.544 392.78C473.924 393.58 474.114 394.52 474.114 395.6V407.3C474.114 409.12 473.624 410.45 472.644 411.29C471.684 412.13 470.404 412.55 468.804 412.55H464.514ZM464.964 410.42H468.264C469.484 410.42 470.364 410.12 470.904 409.52C471.444 408.9 471.714 408.06 471.714 407V395.78C471.714 394.64 471.424 393.79 470.844 393.23C470.284 392.67 469.454 392.39 468.354 392.39H464.904C463.824 392.39 462.974 392.69 462.354 393.29C461.734 393.87 461.424 394.7 461.424 395.78V407C461.424 408.14 461.734 409 462.354 409.58C462.994 410.14 463.864 410.42 464.964 410.42ZM484.172 412.55C483.112 412.55 482.162 412.37 481.322 412.01C480.502 411.63 479.852 411.06 479.372 410.3C478.912 409.52 478.682 408.52 478.682 407.3V395.6C478.682 394.42 478.912 393.44 479.372 392.66C479.852 391.86 480.502 391.26 481.322 390.86C482.162 390.44 483.112 390.23 484.172 390.23H488.462C489.702 390.23 490.712 390.46 491.492 390.92C492.272 391.36 492.842 391.98 493.202 392.78C493.582 393.58 493.772 394.52 493.772 395.6V407.3C493.772 409.12 493.282 410.45 492.302 411.29C491.342 412.13 490.062 412.55 488.462 412.55H484.172ZM484.622 410.42H487.922C489.142 410.42 490.022 410.12 490.562 409.52C491.102 408.9 491.372 408.06 491.372 407V395.78C491.372 394.64 491.082 393.79 490.502 393.23C489.942 392.67 489.112 392.39 488.012 392.39H484.562C483.482 392.39 482.632 392.69 482.012 393.29C481.392 393.87 481.082 394.7 481.082 395.78V407C481.082 408.14 481.392 409 482.012 409.58C482.652 410.14 483.522 410.42 484.622 410.42Z" fill="#5A97CB"/>
<path d="M94.8798 390.68L94.5198 389.6L95.5698 387.77L95.9298 388.79L94.8798 390.68ZM94.5198 415.16V412.31L95.9298 412.34V415.16H94.5198ZM95.0898 412.67C94.6498 412.67 94.1198 412.65 93.4998 412.61C92.8998 412.59 92.2798 412.55 91.6398 412.49C90.9998 412.45 90.3898 412.4 89.8098 412.34C89.2498 412.28 88.7798 412.21 88.3998 412.13V410.3C88.8998 410.34 89.5098 410.38 90.2298 410.42C90.9498 410.46 91.7198 410.49 92.5398 410.51C93.3798 410.53 94.1998 410.54 94.9998 410.54C95.8998 410.54 96.7098 410.45 97.4298 410.27C98.1498 410.09 98.7198 409.76 99.1398 409.28C99.5798 408.8 99.7998 408.11 99.7998 407.21V405.71C99.7998 404.69 99.5398 403.92 99.0198 403.4C98.4998 402.86 97.6598 402.59 96.4998 402.59H94.1298C92.3098 402.59 90.8798 402.19 89.8398 401.39C88.8198 400.59 88.3098 399.21 88.3098 397.25V395.99C88.3098 393.91 88.8698 392.43 89.9898 391.55C91.1098 390.67 92.6898 390.23 94.7298 390.23C95.3698 390.23 96.0898 390.27 96.8898 390.35C97.6898 390.41 98.4598 390.49 99.1998 390.59C99.9598 390.67 100.59 390.76 101.09 390.86V392.69C100.21 392.61 99.2098 392.54 98.0898 392.48C96.9898 392.42 95.9498 392.39 94.9698 392.39C94.0698 392.39 93.2898 392.5 92.6298 392.72C91.9698 392.92 91.4598 393.29 91.0998 393.83C90.7598 394.35 90.5898 395.1 90.5898 396.08V397.1C90.5898 398.32 90.9098 399.16 91.5498 399.62C92.1898 400.08 93.0798 400.31 94.2198 400.31H96.7698C97.9898 400.31 98.9898 400.53 99.7698 400.97C100.55 401.41 101.13 402.02 101.51 402.8C101.89 403.56 102.08 404.44 102.08 405.44V407.15C102.08 408.63 101.76 409.77 101.12 410.57C100.5 411.37 99.6598 411.92 98.5998 412.22C97.5598 412.52 96.3898 412.67 95.0898 412.67ZM110.641 412.49V392.54L106.111 393.77V392.24L110.851 390.2H113.041V412.49H110.641ZM124.45 412.64C123.61 412.64 122.68 412.6 121.66 412.52C120.64 412.46 119.74 412.39 118.96 412.31V410.48H124.42C126.14 410.48 127.48 409.83 128.44 408.53C129.4 407.21 129.88 405.21 129.88 402.53C129.28 402.61 128.61 402.68 127.87 402.74C127.15 402.78 126.43 402.81 125.71 402.83C124.99 402.83 124.35 402.83 123.79 402.83C122.45 402.83 121.32 402.68 120.4 402.38C119.5 402.08 118.81 401.59 118.33 400.91C117.87 400.23 117.64 399.33 117.64 398.21V395.12C117.64 393.94 117.87 393 118.33 392.3C118.79 391.6 119.4 391.09 120.16 390.77C120.94 390.45 121.8 390.29 122.74 390.29H126.16C127.1 390.29 127.94 390.46 128.68 390.8C129.44 391.12 130.08 391.69 130.6 392.51C131.14 393.33 131.55 394.46 131.83 395.9C132.11 397.34 132.25 399.18 132.25 401.42C132.25 403.4 132.07 405.1 131.71 406.52C131.37 407.94 130.86 409.1 130.18 410C129.52 410.9 128.71 411.57 127.75 412.01C126.79 412.43 125.69 412.64 124.45 412.64ZM124.33 400.79H129.88C129.88 399.13 129.79 397.76 129.61 396.68C129.43 395.58 129.16 394.73 128.8 394.13C128.46 393.51 128.03 393.08 127.51 392.84C127.01 392.58 126.43 392.45 125.77 392.45H123.19C122.61 392.45 122.07 392.54 121.57 392.72C121.09 392.88 120.7 393.18 120.4 393.62C120.12 394.04 119.98 394.66 119.98 395.48V397.82C119.98 398.66 120.15 399.29 120.49 399.71C120.85 400.13 121.35 400.42 121.99 400.58C122.63 400.72 123.41 400.79 124.33 400.79ZM137.052 414.83C136.852 414.83 136.672 414.81 136.512 414.77C136.372 414.75 136.302 414.74 136.302 414.74V413.99C136.522 413.99 136.682 413.95 136.782 413.87C136.882 413.81 136.932 413.68 136.932 413.48V412.34H136.692C136.572 412.34 136.462 412.3 136.362 412.22C136.262 412.14 136.212 412.02 136.212 411.86V409.7C136.212 409.34 136.372 409.16 136.692 409.16H137.982C138.182 409.16 138.312 409.21 138.372 409.31C138.432 409.41 138.462 409.54 138.462 409.7V413.36C138.462 413.76 138.382 414.07 138.222 414.29C138.082 414.51 137.902 414.65 137.682 414.71C137.482 414.79 137.272 414.83 137.052 414.83ZM148.577 412.58C147.657 412.58 146.817 412.42 146.057 412.1C145.297 411.76 144.657 411.18 144.137 410.36C143.617 409.54 143.207 408.41 142.907 406.97C142.627 405.53 142.487 403.69 142.487 401.45C142.487 399.47 142.657 397.77 142.997 396.35C143.357 394.93 143.877 393.77 144.557 392.87C145.237 391.97 146.057 391.31 147.017 390.89C147.977 390.45 149.077 390.23 150.317 390.23C151.157 390.23 152.087 390.27 153.107 390.35C154.127 390.41 155.027 390.48 155.807 390.56V392.39H150.347C148.647 392.39 147.307 393.05 146.327 394.37C145.367 395.67 144.887 397.66 144.887 400.34C145.487 400.26 146.147 400.2 146.867 400.16C147.607 400.1 148.337 400.07 149.057 400.07C149.777 400.05 150.417 400.04 150.977 400.04C152.297 400.04 153.417 400.19 154.337 400.49C155.257 400.79 155.947 401.28 156.407 401.96C156.887 402.64 157.127 403.54 157.127 404.66V407.75C157.127 408.93 156.897 409.87 156.437 410.57C155.977 411.27 155.357 411.78 154.577 412.1C153.797 412.42 152.937 412.58 151.997 412.58H148.577ZM148.967 410.42H151.547C152.147 410.42 152.687 410.34 153.167 410.18C153.647 410 154.027 409.7 154.307 409.28C154.607 408.84 154.757 408.21 154.757 407.39V405.05C154.757 404.21 154.587 403.58 154.247 403.16C153.907 402.74 153.417 402.46 152.777 402.32C152.137 402.16 151.357 402.08 150.437 402.08H144.887C144.887 403.74 144.977 405.12 145.157 406.22C145.337 407.3 145.597 408.15 145.937 408.77C146.297 409.37 146.727 409.8 147.227 410.06C147.747 410.3 148.327 410.42 148.967 410.42ZM168.349 412.67C166.769 412.67 165.289 412.63 163.909 412.55C162.549 412.49 161.359 412.4 160.339 412.28V410.45H167.569C168.429 410.45 169.199 410.36 169.879 410.18C170.559 410 171.089 409.67 171.469 409.19C171.869 408.69 172.069 407.99 172.069 407.09V405.62C172.069 404.84 171.869 404.22 171.469 403.76C171.089 403.3 170.609 402.97 170.029 402.77C169.449 402.57 168.849 402.46 168.229 402.44L162.559 402.23V400.49L168.139 400.25C169.219 400.21 170.089 399.98 170.749 399.56C171.429 399.12 171.769 398.39 171.769 397.37V395.9C171.769 394.8 171.399 393.96 170.659 393.38C169.939 392.78 168.849 392.48 167.389 392.48H161.089V390.65C162.009 390.53 163.059 390.43 164.239 390.35C165.439 390.27 166.779 390.23 168.259 390.23C169.579 390.25 170.669 390.48 171.529 390.92C172.409 391.34 173.059 391.94 173.479 392.72C173.899 393.48 174.109 394.38 174.109 395.42V397.31C174.109 397.99 173.999 398.58 173.779 399.08C173.579 399.56 173.309 399.96 172.969 400.28C172.649 400.6 172.299 400.85 171.919 401.03C171.559 401.19 171.229 401.3 170.929 401.36C171.269 401.44 171.639 401.59 172.039 401.81C172.439 402.01 172.819 402.29 173.179 402.65C173.559 403.01 173.869 403.46 174.109 404C174.349 404.54 174.469 405.18 174.469 405.92V407.45C174.469 409.15 173.929 410.45 172.849 411.35C171.789 412.23 170.289 412.67 168.349 412.67ZM184.368 412.55C183.308 412.55 182.358 412.37 181.518 412.01C180.698 411.63 180.048 411.06 179.568 410.3C179.108 409.52 178.878 408.52 178.878 407.3V395.6C178.878 394.42 179.108 393.44 179.568 392.66C180.048 391.86 180.698 391.26 181.518 390.86C182.358 390.44 183.308 390.23 184.368 390.23H188.658C189.898 390.23 190.908 390.46 191.688 390.92C192.468 391.36 193.038 391.98 193.398 392.78C193.778 393.58 193.968 394.52 193.968 395.6V407.3C193.968 409.12 193.478 410.45 192.498 411.29C191.538 412.13 190.258 412.55 188.658 412.55H184.368ZM184.818 410.42H188.118C189.338 410.42 190.218 410.12 190.758 409.52C191.298 408.9 191.568 408.06 191.568 407V395.78C191.568 394.64 191.278 393.79 190.698 393.23C190.138 392.67 189.308 392.39 188.208 392.39H184.758C183.678 392.39 182.828 392.69 182.208 393.29C181.588 393.87 181.278 394.7 181.278 395.78V407C181.278 408.14 181.588 409 182.208 409.58C182.848 410.14 183.718 410.42 184.818 410.42Z" fill="#5A97CB"/>
<path d="M714.88 390.68L714.52 389.6L715.57 387.77L715.93 388.79L714.88 390.68ZM714.52 415.16V412.31L715.93 412.34V415.16H714.52ZM715.09 412.67C714.65 412.67 714.12 412.65 713.5 412.61C712.9 412.59 712.28 412.55 711.64 412.49C711 412.45 710.39 412.4 709.81 412.34C709.25 412.28 708.78 412.21 708.4 412.13V410.3C708.9 410.34 709.51 410.38 710.23 410.42C710.95 410.46 711.72 410.49 712.54 410.51C713.38 410.53 714.2 410.54 715 410.54C715.9 410.54 716.71 410.45 717.43 410.27C718.15 410.09 718.72 409.76 719.14 409.28C719.58 408.8 719.8 408.11 719.8 407.21V405.71C719.8 404.69 719.54 403.92 719.02 403.4C718.5 402.86 717.66 402.59 716.5 402.59H714.13C712.31 402.59 710.88 402.19 709.84 401.39C708.82 400.59 708.31 399.21 708.31 397.25V395.99C708.31 393.91 708.87 392.43 709.99 391.55C711.11 390.67 712.69 390.23 714.73 390.23C715.37 390.23 716.09 390.27 716.89 390.35C717.69 390.41 718.46 390.49 719.2 390.59C719.96 390.67 720.59 390.76 721.09 390.86V392.69C720.21 392.61 719.21 392.54 718.09 392.48C716.99 392.42 715.95 392.39 714.97 392.39C714.07 392.39 713.29 392.5 712.63 392.72C711.97 392.92 711.46 393.29 711.1 393.83C710.76 394.35 710.59 395.1 710.59 396.08V397.1C710.59 398.32 710.91 399.16 711.55 399.62C712.19 400.08 713.08 400.31 714.22 400.31H716.77C717.99 400.31 718.99 400.53 719.77 400.97C720.55 401.41 721.13 402.02 721.51 402.8C721.89 403.56 722.08 404.44 722.08 405.44V407.15C722.08 408.63 721.76 409.77 721.12 410.57C720.5 411.37 719.66 411.92 718.6 412.22C717.56 412.52 716.39 412.67 715.09 412.67ZM730.641 412.49V392.54L726.111 393.77V392.24L730.851 390.2H733.041V412.49H730.641ZM743.49 412.55C742.69 412.55 741.96 412.47 741.3 412.31C740.66 412.15 740.1 411.9 739.62 411.56C739.14 411.22 738.77 410.77 738.51 410.21C738.25 409.65 738.12 408.97 738.12 408.17V404.99C738.12 404.27 738.26 403.66 738.54 403.16C738.84 402.64 739.21 402.23 739.65 401.93C740.09 401.61 740.52 401.4 740.94 401.3C740.32 401.02 739.83 400.68 739.47 400.28C739.13 399.88 738.89 399.43 738.75 398.93C738.61 398.43 738.54 397.92 738.54 397.4V394.88C738.54 393.76 738.75 392.87 739.17 392.21C739.61 391.53 740.2 391.04 740.94 390.74C741.68 390.42 742.5 390.26 743.4 390.26H747.54C748.46 390.26 749.26 390.42 749.94 390.74C750.62 391.04 751.15 391.53 751.53 392.21C751.91 392.87 752.1 393.76 752.1 394.88V397.4C752.1 397.74 752.05 398.1 751.95 398.48C751.87 398.86 751.73 399.22 751.53 399.56C751.35 399.9 751.12 400.2 750.84 400.46C750.56 400.72 750.23 400.9 749.85 401C750.49 401.12 751 401.38 751.38 401.78C751.76 402.18 752.04 402.65 752.22 403.19C752.42 403.71 752.52 404.25 752.52 404.81V408.17C752.52 409.23 752.31 410.08 751.89 410.72C751.47 411.36 750.88 411.83 750.12 412.13C749.38 412.41 748.52 412.55 747.54 412.55H743.49ZM743.82 410.51H747.06C748.12 410.51 748.9 410.29 749.4 409.85C749.9 409.39 750.15 408.72 750.15 407.84V405.05C750.15 404.05 749.9 403.34 749.4 402.92C748.92 402.48 748.1 402.26 746.94 402.26H743.82C743.5 402.26 743.15 402.31 742.77 402.41C742.39 402.51 742.02 402.67 741.66 402.89C741.32 403.09 741.04 403.37 740.82 403.73C740.6 404.09 740.49 404.53 740.49 405.05V407.84C740.49 408.82 740.8 409.51 741.42 409.91C742.06 410.31 742.86 410.51 743.82 410.51ZM743.82 400.22H746.91C747.63 400.22 748.19 400.08 748.59 399.8C749.01 399.52 749.31 399.17 749.49 398.75C749.67 398.33 749.76 397.9 749.76 397.46V395.39C749.76 394.23 749.53 393.43 749.07 392.99C748.63 392.53 747.97 392.3 747.09 392.3H743.82C742.78 392.3 742.03 392.54 741.57 393.02C741.11 393.5 740.88 394.29 740.88 395.39V397.46C740.88 398.28 741.11 398.95 741.57 399.47C742.05 399.97 742.8 400.22 743.82 400.22ZM757.638 414.83C757.438 414.83 757.258 414.81 757.098 414.77C756.958 414.75 756.888 414.74 756.888 414.74V413.99C757.108 413.99 757.268 413.95 757.368 413.87C757.468 413.81 757.518 413.68 757.518 413.48V412.34H757.278C757.158 412.34 757.048 412.3 756.948 412.22C756.848 412.14 756.798 412.02 756.798 411.86V409.7C756.798 409.34 756.958 409.16 757.278 409.16H758.568C758.768 409.16 758.898 409.21 758.958 409.31C759.018 409.41 759.048 409.54 759.048 409.7V413.36C759.048 413.76 758.968 414.07 758.808 414.29C758.668 414.51 758.488 414.65 758.268 414.71C758.068 414.79 757.858 414.83 757.638 414.83ZM768.713 412.55C767.653 412.55 766.703 412.37 765.863 412.01C765.043 411.63 764.393 411.06 763.913 410.3C763.453 409.52 763.223 408.52 763.223 407.3V395.6C763.223 394.42 763.453 393.44 763.913 392.66C764.393 391.86 765.043 391.26 765.863 390.86C766.703 390.44 767.653 390.23 768.713 390.23H773.003C774.243 390.23 775.253 390.46 776.033 390.92C776.813 391.36 777.383 391.98 777.743 392.78C778.123 393.58 778.313 394.52 778.313 395.6V407.3C778.313 409.12 777.823 410.45 776.843 411.29C775.883 412.13 774.603 412.55 773.003 412.55H768.713ZM769.163 410.42H772.463C773.683 410.42 774.563 410.12 775.103 409.52C775.643 408.9 775.913 408.06 775.913 407V395.78C775.913 394.64 775.623 393.79 775.043 393.23C774.483 392.67 773.653 392.39 772.553 392.39H769.103C768.023 392.39 767.173 392.69 766.553 393.29C765.933 393.87 765.623 394.7 765.623 395.78V407C765.623 408.14 765.933 409 766.553 409.58C767.193 410.14 768.063 410.42 769.163 410.42ZM784.982 412.49L792.692 392.81H781.592V390.41H794.942L795.722 391.64L787.652 412.49H784.982ZM806.191 412.67C804.611 412.67 803.131 412.63 801.751 412.55C800.391 412.49 799.201 412.4 798.181 412.28V410.45H805.411C806.271 410.45 807.041 410.36 807.721 410.18C808.401 410 808.931 409.67 809.311 409.19C809.711 408.69 809.911 407.99 809.911 407.09V405.62C809.911 404.84 809.711 404.22 809.311 403.76C808.931 403.3 808.451 402.97 807.871 402.77C807.291 402.57 806.691 402.46 806.071 402.44L800.401 402.23V400.49L805.981 400.25C807.061 400.21 807.931 399.98 808.591 399.56C809.271 399.12 809.611 398.39 809.611 397.37V395.9C809.611 394.8 809.241 393.96 808.501 393.38C807.781 392.78 806.691 392.48 805.231 392.48H798.931V390.65C799.851 390.53 800.901 390.43 802.081 390.35C803.281 390.27 804.621 390.23 806.101 390.23C807.421 390.25 808.511 390.48 809.371 390.92C810.251 391.34 810.901 391.94 811.321 392.72C811.741 393.48 811.951 394.38 811.951 395.42V397.31C811.951 397.99 811.841 398.58 811.621 399.08C811.421 399.56 811.151 399.96 810.811 400.28C810.491 400.6 810.141 400.85 809.761 401.03C809.401 401.19 809.071 401.3 808.771 401.36C809.111 401.44 809.481 401.59 809.881 401.81C810.281 402.01 810.661 402.29 811.021 402.65C811.401 403.01 811.711 403.46 811.951 404C812.191 404.54 812.311 405.18 812.311 405.92V407.45C812.311 409.15 811.771 410.45 810.691 411.35C809.631 412.23 808.131 412.67 806.191 412.67Z" fill="#5A97CB"/>
<path d="M116.629 224.38C116.239 224.75 115.849 225.13 115.459 225.49C113.069 227.69 110.679 229.88 108.289 232.08C108.239 232.13 108.199 232.18 108.119 232.26C109.989 233.09 111.829 233.91 113.749 234.76C107.499 237.41 101.329 240.02 95.1491 242.64C95.1391 242.63 95.1291 242.61 95.1191 242.6C98.2391 239.36 101.369 236.13 104.519 232.86L100.269 230.97C100.369 230.86 100.439 230.78 100.509 230.7C103.479 227.62 106.449 224.55 109.419 221.47C109.489 221.4 109.549 221.33 109.609 221.25C111.959 222.29 114.299 223.33 116.649 224.38H116.629Z" fill="white"/>
<path d="M139.091 225.63C138.881 226.13 138.691 226.63 138.471 227.12C137.181 230.1 135.881 233.07 134.591 236.05C134.561 236.11 134.541 236.18 134.511 236.28H140.671C136.031 241.24 131.451 246.13 126.881 251.03C126.861 251.03 126.851 251.01 126.831 251C128.371 246.77 129.911 242.55 131.461 238.29H126.801C126.841 238.15 126.871 238.04 126.911 237.94C128.371 233.92 129.841 229.91 131.301 225.89C131.331 225.8 131.361 225.71 131.381 225.62C133.951 225.62 136.511 225.62 139.081 225.62L139.091 225.63Z" fill="white"/>
<path d="M158.651 217.53C158.801 218.05 158.961 218.56 159.101 219.08C159.951 222.21 160.801 225.34 161.651 228.48C161.671 228.54 161.691 228.61 161.731 228.71L166.541 224.86C166.021 231.63 165.501 238.31 164.991 245C164.971 245 164.951 245 164.941 245C163.501 240.74 162.061 236.48 160.611 232.18L156.971 235.09C156.921 234.95 156.871 234.85 156.841 234.75C155.471 230.7 154.111 226.65 152.741 222.6C152.711 222.51 152.671 222.42 152.631 222.33C154.631 220.73 156.641 219.12 158.641 217.52L158.651 217.53Z" fill="white"/>
<path d="M167.561 204.94C168.071 205.12 168.581 205.3 169.081 205.48C172.121 206.62 175.151 207.77 178.191 208.92C178.251 208.94 178.321 208.96 178.431 208.99C178.331 206.95 178.231 204.93 178.131 202.84C183.311 207.23 188.421 211.56 193.541 215.9C193.541 215.92 193.521 215.93 193.511 215.95C189.211 214.62 184.921 213.29 180.591 211.95L180.821 216.6C180.681 216.56 180.571 216.54 180.471 216.51C176.391 215.24 172.301 213.98 168.221 212.71C168.131 212.68 168.041 212.66 167.941 212.64C167.811 210.08 167.691 207.51 167.561 204.95V204.94Z" fill="white"/>
<path d="M104.441 217.41C103.931 217.23 103.421 217.05 102.921 216.87C99.8809 215.73 96.8509 214.58 93.8109 213.43C93.7509 213.41 93.6809 213.39 93.5709 213.36L93.8709 219.51C88.6909 215.12 83.5809 210.79 78.4609 206.45C78.4609 206.43 78.4809 206.42 78.4909 206.4C82.7909 207.73 87.0809 209.06 91.4109 210.4L91.1809 205.75C91.3209 205.79 91.4309 205.81 91.5309 205.84C95.6109 207.11 99.7009 208.37 103.781 209.64C103.871 209.67 103.961 209.69 104.061 209.71C104.191 212.27 104.311 214.84 104.441 217.4V217.41Z" fill="white"/>
<path d="M152.571 198.92C152.961 198.55 153.351 198.17 153.741 197.81C156.131 195.61 158.521 193.42 160.911 191.22C160.961 191.17 161.001 191.12 161.081 191.04L155.451 188.54C161.701 185.89 167.871 183.28 174.051 180.66C174.061 180.67 174.071 180.69 174.081 180.7C170.961 183.94 167.831 187.17 164.681 190.44C166.101 191.07 167.501 191.69 168.931 192.33C168.831 192.44 168.761 192.52 168.691 192.6C165.721 195.68 162.751 198.75 159.781 201.83C159.711 201.9 159.651 201.97 159.591 202.05C157.241 201.01 154.901 199.97 152.551 198.92H152.571Z" fill="white"/>
<path d="M130.109 194.65C130.319 194.15 130.509 193.65 130.729 193.16C132.019 190.18 133.319 187.21 134.609 184.23C134.639 184.17 134.659 184.1 134.689 184H128.529C133.169 179.04 137.749 174.15 142.319 169.25C142.339 169.25 142.349 169.27 142.369 169.28C140.829 173.51 139.289 177.73 137.739 181.99H142.399C142.359 182.13 142.329 182.24 142.289 182.34C140.829 186.36 139.359 190.37 137.899 194.39C137.869 194.48 137.839 194.57 137.819 194.66C135.249 194.66 132.689 194.66 130.119 194.66L130.109 194.65Z" fill="white"/>
<path d="M110.55 202.75C110.4 202.23 110.24 201.72 110.1 201.2C109.25 198.07 108.4 194.94 107.55 191.8C107.53 191.74 107.51 191.67 107.47 191.57C105.87 192.85 104.3 194.11 102.66 195.42C103.18 188.65 103.7 181.97 104.21 175.28C104.23 175.28 104.25 175.28 104.26 175.28C105.7 179.54 107.14 183.8 108.59 188.1L112.23 185.19C112.28 185.33 112.33 185.43 112.36 185.53C113.73 189.58 115.09 193.63 116.46 197.68C116.49 197.77 116.53 197.86 116.57 197.95C114.57 199.55 112.56 201.16 110.56 202.76L110.55 202.75Z" fill="white"/>
<path d="M701.55 218.05C700.79 206.89 706.72 200.34 717.04 199.35C718.92 193.7 722.82 190.49 728.09 189.14C738.28 170 753.96 168.41 765.91 185.13C779.81 186.48 784.38 191.06 785.35 204.86C786.38 205.51 787.58 206.14 788.63 206.95C792.95 210.3 795.17 214.71 794.17 220.17C793.15 225.76 789.85 229.77 784.23 231.2C778.62 232.63 772.91 231.83 767.21 231.2C769.01 229.09 771.34 229.9 773.43 229.77C775.75 229.62 778.09 229.81 780.41 229.7C786.27 229.41 790.6 226 791.92 220.75C793.21 215.61 790.88 210.6 785.74 207.57C784.91 207.08 784.02 206.69 783.22 206.27C781.83 191.44 776.43 186.06 765.02 188.4C761.17 179.96 754.9 174.89 745.05 176.21C737.68 177.2 732.61 182.5 730.81 190.7C724.91 191.76 719.87 194.16 719.16 201.28C717.47 201.52 715.92 201.61 714.44 201.98C707.42 203.72 702.85 210.15 703.58 217.15C704.28 223.9 709.74 229.18 716.78 229.66C719.92 229.87 723.08 229.7 726.2 230.19C717.05 234.34 706.95 230.69 702.78 222.25C702.04 220.75 701.7 220.64 701.52 218.07L701.55 218.05Z" fill="white"/>
<path d="M749.559 210C752.089 212.84 753.599 215.7 754.809 218.71C755.899 221.43 754.939 223.63 752.689 225.29C750.559 226.86 748.339 226.77 746.279 225.16C744.069 223.43 743.259 221.19 744.399 218.5C745.609 215.65 747.049 212.93 749.559 210ZM749.599 214.25C747.649 215.92 746.879 217.86 746.249 219.82C745.709 221.49 746.519 222.82 747.979 223.7C749.049 224.34 750.189 224.32 751.239 223.65C752.669 222.73 753.419 221.4 752.869 219.72C752.279 217.9 751.509 216.13 749.599 214.26V214.25Z" fill="white"/>
<path d="M736.769 230.98C739.269 233.96 740.739 236.66 741.929 239.52C743.049 242.22 742.229 244.45 740.009 246.17C737.939 247.77 735.719 247.83 733.599 246.25C731.349 244.58 730.409 242.37 731.519 239.66C732.749 236.66 734.229 233.79 736.769 230.98ZM736.749 235.2C734.899 236.94 734.019 238.82 733.419 240.8C732.909 242.49 733.699 243.81 735.149 244.68C736.219 245.32 737.359 245.3 738.409 244.63C739.839 243.71 740.589 242.38 740.039 240.7C739.449 238.88 738.679 237.11 736.739 235.2H736.749Z" fill="white"/>
<path d="M760.04 235.6C762.44 238.44 763.78 240.99 765.01 243.61C766.35 246.48 765.79 248.89 763.35 250.8C761.29 252.42 759.06 252.5 756.94 250.92C754.46 249.08 753.72 246.72 755.02 243.8C756.27 241.01 757.72 238.36 760.04 235.59V235.6ZM759.85 240.05C758.2 241.66 757.43 243.42 756.79 245.21C756.2 246.86 756.83 248.23 758.25 249.21C759.5 250.07 760.79 250.01 761.99 249.12C763.38 248.09 763.96 246.65 763.28 245.07C762.54 243.37 762.08 241.42 759.85 240.06V240.05Z" fill="white"/>
<path d="M736.289 189.32C736.059 189.52 735.829 189.89 735.599 189.89C734.969 189.89 734.719 189.41 734.949 188.87C735.039 188.66 735.559 188.47 735.809 188.55C736.029 188.61 736.129 189.05 736.289 189.33V189.32Z" fill="white"/>
<path d="M739.529 191.43C739.759 191.23 739.989 190.86 740.219 190.86C740.849 190.86 741.099 191.34 740.869 191.88C740.779 192.09 740.259 192.28 740.009 192.2C739.789 192.14 739.689 191.7 739.529 191.42V191.43Z" fill="white"/>
<path d="M767.759 191.58C767.549 191.8 767.359 192.19 767.129 192.21C766.479 192.27 766.189 191.81 766.369 191.24C766.439 191.03 766.949 190.82 767.209 190.87C767.429 190.91 767.569 191.33 767.749 191.58H767.759Z" fill="white"/>
<path d="M744.45 195.08C744.24 195.3 744.05 195.69 743.82 195.71C743.17 195.77 742.88 195.31 743.06 194.74C743.13 194.53 743.64 194.32 743.9 194.37C744.12 194.41 744.26 194.83 744.44 195.08H744.45Z" fill="white"/>
<path d="M767.769 196.45C767.499 196.61 767.189 196.93 766.959 196.88C766.369 196.76 766.199 196.26 766.519 195.78C766.649 195.59 767.189 195.46 767.389 195.58C767.609 195.71 767.649 196.15 767.769 196.45Z" fill="white"/>
<path d="M724.029 198.99C724.229 199.22 724.599 199.45 724.599 199.68C724.599 200.31 724.119 200.56 723.579 200.33C723.369 200.24 723.179 199.72 723.259 199.47C723.319 199.25 723.759 199.15 724.039 198.99H724.029Z" fill="white"/>
<path d="M729.299 202.21C729.049 202.39 728.779 202.73 728.549 202.71C727.939 202.65 727.729 202.16 728.009 201.65C728.129 201.44 728.659 201.27 728.879 201.37C729.099 201.46 729.169 201.92 729.299 202.21Z" fill="white"/>
<path d="M732.799 205.71C732.549 205.89 732.279 206.23 732.049 206.21C731.439 206.15 731.229 205.66 731.509 205.15C731.629 204.94 732.159 204.77 732.379 204.87C732.599 204.96 732.669 205.42 732.799 205.71Z" fill="white"/>
<path d="M782.919 209.07C782.709 209.29 782.519 209.68 782.289 209.7C781.639 209.76 781.349 209.3 781.529 208.73C781.599 208.52 782.109 208.31 782.369 208.36C782.589 208.4 782.729 208.82 782.909 209.07H782.919Z" fill="white"/>
<path d="M779.921 211.81C780.141 212.02 780.531 212.21 780.551 212.44C780.611 213.09 780.151 213.38 779.581 213.2C779.371 213.13 779.161 212.62 779.211 212.36C779.251 212.14 779.671 212 779.921 211.82V211.81Z" fill="white"/>
<defs>
<linearGradient id="paint0_linear_164_2" x1="89.1008" y1="250" x2="252.401" y2="250" gradientUnits="userSpaceOnUse">
<stop stop-color="#8188C0"/>
<stop offset="1" stop-color="#23527A"/>
</linearGradient>
<linearGradient id="paint1_linear_164_2" x1="393.101" y1="-0.000171813" x2="556.401" y2="-0.000171813" gradientUnits="userSpaceOnUse">
<stop stop-color="#8188C0"/>
<stop offset="1" stop-color="#23527A"/>
</linearGradient>
<linearGradient id="paint2_linear_164_2" x1="704.101" y1="-0.000171813" x2="867.401" y2="-0.000171813" gradientUnits="userSpaceOnUse">
<stop stop-color="#8188C0"/>
<stop offset="1" stop-color="#23527A"/>
</linearGradient>
<linearGradient id="paint3_linear_164_2" x1="62.1008" y1="238" x2="225.401" y2="238" gradientUnits="userSpaceOnUse">
<stop stop-color="#8188C0"/>
<stop offset="1" stop-color="#23527A"/>
</linearGradient>
<linearGradient id="paint4_linear_164_2" x1="367.39" y1="238" x2="530.69" y2="238" gradientUnits="userSpaceOnUse">
<stop stop-color="#8188C0"/>
<stop offset="1" stop-color="#23527A"/>
</linearGradient>
<linearGradient id="paint5_linear_164_2" x1="676.681" y1="238" x2="839.981" y2="238" gradientUnits="userSpaceOnUse">
<stop stop-color="#8188C0"/>
<stop offset="1" stop-color="#23527A"/>
</linearGradient>
</defs>
</svg>
