<svg width="100%" height="100%" viewBox="0 0 900 450" fill="none" xmlns="http://www.w3.org/2000/svg">
<g opacity="0.08">
<path d="M195.259 336.5C195.259 333.78 195.639 330.99 195.189 328.35C193.829 320.41 197.239 318.16 204.799 318.69C216.279 319.49 227.169 317.91 231.899 305.15C233.139 301.81 233.399 297.92 233.289 294.31C232.939 282.99 231.159 271.63 246.899 268.07C251.159 267.11 255.209 261.99 249.809 256.11C246.969 253.01 244.859 249.1 242.969 245.28C238.609 236.52 233.109 228.47 231.839 218.11C226.259 172.52 170.749 150.2 128.579 171.82C86.1289 193.58 76.4889 246.35 106.659 280.82C120.379 296.49 127.389 315.12 124.489 336.51" fill="url(#paint0_linear_164_2)"/>
</g>
<g opacity="0.08">
<path d="M499.259 336.5C499.259 333.78 499.639 330.99 499.189 328.35C497.829 320.41 501.239 318.16 508.799 318.69C520.279 319.49 531.169 317.91 535.899 305.15C537.139 301.81 537.399 297.92 537.289 294.31C536.939 282.99 535.159 271.63 550.899 268.07C555.159 267.11 559.209 261.99 553.809 256.11C550.969 253.01 548.859 249.1 546.969 245.28C542.609 236.52 537.109 228.47 535.839 218.11C530.259 172.52 474.749 150.2 432.579 171.82C390.129 193.58 380.489 246.35 410.659 280.82C424.379 296.49 431.389 315.12 428.489 336.51" fill="url(#paint1_linear_164_2)"/>
</g>
<g opacity="0.08">
<path d="M810.259 336.5C810.259 333.78 810.639 330.99 810.189 328.35C808.829 320.41 812.239 318.16 819.799 318.69C831.279 319.49 842.169 317.91 846.899 305.15C848.139 301.81 848.399 297.92 848.289 294.31C847.939 282.99 846.159 271.63 861.899 268.07C866.159 267.11 870.209 261.99 864.809 256.11C861.969 253.01 859.859 249.1 857.969 245.28C853.609 236.52 848.109 228.47 846.839 218.11C841.259 172.52 785.749 150.2 743.579 171.82C701.129 193.58 691.489 246.35 721.659 280.82C735.379 296.49 742.389 315.12 739.489 336.51" fill="url(#paint2_linear_164_2)"/>
</g>
<path d="M168.259 324.5C168.259 321.78 168.639 318.99 168.189 316.35C166.829 308.41 170.239 306.16 177.799 306.69C189.279 307.49 200.169 305.91 204.899 293.15C206.139 289.81 206.399 285.92 206.289 282.31C205.939 270.99 204.159 259.63 219.899 256.07C224.159 255.11 228.209 249.99 222.809 244.11C219.969 241.01 217.859 237.1 215.969 233.28C211.609 224.52 206.109 216.47 204.839 206.11C199.259 160.52 143.749 138.2 101.579 159.82C59.1289 181.58 49.4889 234.35 79.6589 268.82C93.3789 284.49 100.389 303.12 97.4889 324.51" fill="url(#paint3_linear_164_2)"/>
<path d="M473.552 324.5C473.552 321.78 473.932 318.99 473.482 316.35C472.122 308.41 475.532 306.16 483.092 306.69C494.572 307.49 505.462 305.91 510.192 293.15C511.432 289.81 511.692 285.92 511.582 282.31C511.232 270.99 509.452 259.63 525.192 256.07C529.452 255.11 533.502 249.99 528.102 244.11C525.262 241.01 523.152 237.1 521.262 233.28C516.902 224.52 511.402 216.47 510.132 206.11C504.552 160.52 449.042 138.2 406.872 159.82C364.422 181.58 354.782 234.35 384.952 268.82C398.672 284.49 405.682 303.12 402.782 324.51" fill="url(#paint4_linear_164_2)"/>
<path d="M782.841 324.5C782.841 321.78 783.221 318.99 782.771 316.35C781.411 308.41 784.821 306.16 792.381 306.69C803.861 307.49 814.751 305.91 819.481 293.15C820.721 289.81 820.981 285.92 820.871 282.31C820.521 270.99 818.741 259.63 834.481 256.07C838.741 255.11 842.791 249.99 837.391 244.11C834.551 241.01 832.441 237.1 830.551 233.28C826.191 224.52 820.691 216.47 819.421 206.11C813.841 160.52 758.331 138.2 716.161 159.82C673.711 181.58 664.071 234.35 694.241 268.82C707.961 284.49 714.971 303.12 712.071 324.51" fill="url(#paint5_linear_164_2)"/>
<path d="M446.459 180.6C445.179 179.55 443.619 178.8 441.929 178.93C440.349 179.06 439.069 179.82 437.979 180.93C435.589 183.35 433.369 186.14 431.829 189.18C430.519 191.77 430.559 195.03 432.259 197.45C433.119 198.67 434.449 199.86 435.999 199.99C437.549 200.12 439.049 199.09 439.729 197.75C441.149 194.94 439.729 191.74 437.279 190.07C435.929 189.15 434.319 188.63 432.719 188.34C430.939 188.01 429.039 187.86 427.319 188.54C424.389 189.7 422.659 192.53 421.279 195.21C420.529 196.66 419.769 198.24 420.319 199.89C420.769 201.24 421.849 202.23 423.029 202.97C423.659 203.36 424.329 203.67 424.999 203.96C425.669 204.25 426.509 204.66 427.299 204.57C429.079 204.36 429.359 201.82 429.219 200.41C428.859 196.83 426.139 194.29 423.169 192.61C421.529 191.68 419.789 190.93 417.999 190.36C417.119 190.08 416.219 189.84 415.309 189.66C414.399 189.48 413.539 189.39 412.699 189.74C411.909 190.07 411.379 190.73 410.949 191.44C410.459 192.26 410.009 193.1 409.579 193.95C408.689 195.68 407.879 197.44 407.149 199.24C405.749 202.7 404.709 206.48 405.439 210.22C406.029 213.23 407.899 216.26 410.799 217.5C411.629 217.86 412.549 218 413.409 217.66C414.199 217.35 414.769 216.73 415.249 216.05C416.029 214.94 416.569 213.62 416.839 212.29C417.389 209.57 416.959 206.71 415.679 204.26C414.319 201.65 411.679 199.19 408.639 198.91C406.859 198.75 405.319 199.68 404.129 200.92C402.869 202.22 401.779 203.72 400.769 205.21C398.729 208.22 396.569 211.82 396.559 215.57C396.559 218.7 398.289 221.35 400.719 223.19C401.949 224.13 403.319 224.84 404.749 225.42C406.249 226.03 407.899 226.56 409.519 226.65C413.309 226.86 415.489 223.03 416.419 219.87C416.899 218.25 417.219 216.34 416.919 214.66C416.619 212.98 415.009 212.21 413.439 212.93C410.739 214.16 409.679 217.43 410.049 220.19C410.469 223.42 412.759 225.92 415.289 227.79C418.179 229.93 421.549 231.69 424.999 232.74C426.689 233.26 428.589 233.68 430.129 232.52C431.449 231.52 432.139 229.84 432.469 228.26C433.249 224.58 432.179 220.84 430.359 217.64C428.539 214.44 426.069 211.54 423.529 208.9C422.239 207.56 420.909 206.18 419.429 205.05C417.949 203.92 416.179 204.23 415.019 205.7C412.979 208.28 412.859 211.93 413.649 214.98C414.509 218.31 416.369 221.26 418.569 223.86C420.769 226.46 423.449 228.8 426.349 230.67C427.079 231.14 427.829 231.58 428.589 231.99C429.429 232.45 430.309 232.92 431.279 233.03C433.119 233.24 434.489 231.82 435.729 230.68C438.409 228.21 440.849 225.48 443.019 222.55C445.189 219.62 447.319 216.39 448.579 212.91C448.899 212.04 449.149 211.15 449.309 210.24C449.459 209.42 449.619 208.52 449.289 207.72C448.659 206.22 446.819 206.1 445.409 206.05C442.429 205.95 439.269 206.57 436.739 208.2C434.209 209.83 432.469 212.59 432.239 215.72C432.009 218.85 433.269 222.29 435.199 224.86C439.159 230.13 445.819 233.2 452.399 232.79C455.769 232.58 459.089 231.53 461.969 229.75C464.849 227.97 467.379 225.49 468.619 222.34C471.459 215.13 463.619 209.97 457.549 208.66C454.259 207.95 450.669 207.93 447.409 208.83C445.849 209.26 444.319 209.98 443.159 211.14C441.999 212.3 441.229 213.95 440.939 215.6C439.849 221.89 444.219 228.05 450.099 230.04C456.339 232.15 463.559 229.75 467.739 224.79C471.919 219.83 473.579 212.04 471.329 205.64C470.199 202.43 468.099 199.62 465.179 197.84C462.439 196.17 459.109 195.57 455.989 196.42C452.869 197.27 450.329 199.36 449.269 202.34C448.279 205.12 448.799 208.4 450.719 210.66C452.939 213.27 456.759 214.04 460.029 214.04C463.299 214.04 466.869 213.12 469.809 211.39C472.749 209.66 475.109 207.18 476.689 204.22C478.269 201.26 479.159 197.91 478.809 194.66C478.629 193.03 478.099 191.42 476.889 190.24C475.589 188.98 473.769 188.28 472.099 187.68C470.329 187.04 468.479 186.58 466.609 186.34C464.919 186.13 463.119 186.18 461.599 187.02C460.159 187.81 459.239 189.23 458.599 190.7C457.849 192.42 457.269 194.23 456.859 196.06C456.449 197.89 456.179 199.86 456.119 201.78C456.069 203.36 456.369 205.1 457.889 205.91C458.649 206.32 459.499 206.44 460.339 206.59C461.359 206.77 462.369 206.95 463.389 207.13C465.419 207.49 467.459 207.85 469.489 208.21C471.519 208.57 473.559 208.93 475.589 209.29C476.629 209.47 477.669 209.68 478.719 209.84C479.589 209.97 480.489 209.99 481.239 209.45C482.579 208.48 482.799 206.35 483.039 204.84C483.329 203.04 483.549 201.15 483.289 199.33C483.049 197.68 482.209 196.25 480.699 195.48C479.189 194.71 477.459 194.46 475.819 194.24C472.519 193.79 469.019 193.85 465.889 195.11C462.759 196.37 460.419 198.66 458.869 201.58C457.319 204.5 456.489 207.88 456.139 211.18C455.939 213.08 455.979 215.02 456.409 216.88C456.789 218.52 457.489 220.31 459.049 221.15C460.529 221.95 462.429 222.04 464.079 222.17C465.849 222.31 467.619 222.3 469.379 222.07C472.679 221.63 475.949 220.36 478.249 217.88C480.219 215.75 481.569 212.78 481.289 209.83C480.949 206.34 478.429 203.82 475.899 201.65C470.609 197.11 464.129 193.94 457.279 192.61C455.649 192.29 453.969 192.14 452.569 193.21C451.379 194.12 450.729 195.5 450.229 196.87C448.949 200.39 448.519 204.21 448.949 207.92C449.029 208.57 449.619 208.98 450.239 208.66C454.109 206.67 457.479 203.58 459.649 199.79C461.699 196.22 462.719 191.62 460.559 187.87C458.779 184.77 455.629 182.36 452.329 181.07C449.239 179.86 445.729 179.96 443.429 182.61C441.129 185.26 440.459 188.82 440.529 192.12C440.569 193.96 440.919 195.82 441.989 197.36C443.139 199.01 444.939 200.13 446.999 200.07C449.059 200.01 450.999 198.94 452.309 197.41C453.799 195.66 454.529 193.43 454.929 191.2C455.329 188.97 455.659 186.55 455.209 184.26C454.799 182.15 453.549 180.36 451.869 179.05C450.079 177.66 447.919 176.86 445.699 176.45C443.479 176.04 440.889 175.75 438.549 175.98C436.349 176.2 434.399 177.06 433.009 178.81C431.619 180.56 430.799 182.71 430.109 184.8C428.629 189.3 427.979 194.31 428.639 199.02C428.939 201.15 429.659 203.28 431.209 204.82C432.759 206.36 434.749 207.06 436.819 207.26C439.149 207.48 441.469 206.85 443.579 205.92C445.559 205.05 447.479 203.89 449.089 202.44C450.559 201.11 451.809 199.37 452.149 197.38C452.309 196.44 452.299 195.39 451.759 194.56C451.139 193.62 450.119 193.42 449.079 193.31C445.159 192.87 440.989 193.88 437.729 196.13C434.469 198.38 432.309 201.79 431.839 205.75C431.399 209.5 432.569 213.51 435.309 216.17C436.069 216.91 436.999 217.54 438.099 217.51C439.199 217.48 440.209 216.86 441.069 216.18C442.839 214.79 444.279 213.05 445.509 211.18C448.089 207.26 449.949 202.77 451.259 198.28C451.939 195.96 452.449 193.59 452.799 191.19C452.979 189.96 453.119 188.72 453.219 187.47C453.299 186.49 453.589 185.1 452.829 184.31C452.019 183.46 450.859 183.84 449.889 184.13C448.629 184.51 447.369 184.89 446.109 185.27C443.669 186.02 441.209 186.74 438.809 187.61C436.609 188.41 434.429 189.36 432.509 190.73C430.819 191.92 429.359 193.37 428.129 195.02C425.679 198.29 424.259 202.38 424.269 206.48C424.269 208.65 424.679 210.88 426.609 212.16C428.389 213.34 430.849 213.47 432.909 213.6C437.659 213.91 442.509 213.23 446.999 211.63C448.999 210.91 451.169 210.1 452.749 208.62C454.329 207.14 454.819 205.06 453.999 203.07C453.129 200.94 451.209 199.63 449.299 198.5C447.259 197.29 445.109 196.05 442.699 195.85C438.059 195.46 434.669 199.98 433.089 203.8C431.509 207.62 431.019 212.97 433.959 216.37C435.369 217.99 437.379 218.94 439.299 219.81C440.359 220.29 441.489 220.75 442.669 220.48C443.719 220.24 444.549 219.47 445.249 218.7C448.079 215.63 449.469 211.45 449.459 207.31C449.459 202.96 447.859 198.74 445.459 195.15C442.899 191.31 439.469 188.19 435.759 185.49C433.789 184.06 431.739 182.75 429.669 181.48C427.829 180.36 425.489 178.79 423.339 180.08C422.419 180.63 421.779 181.56 421.199 182.44C420.559 183.4 419.999 184.4 419.519 185.44C418.579 187.47 417.909 189.61 417.509 191.81C416.779 195.88 416.749 200.29 418.029 204.25C418.629 206.11 419.529 207.87 420.839 209.34C422.149 210.81 424.109 212.18 426.169 212.34C428.449 212.51 430.449 210.9 431.919 209.35C433.389 207.8 434.559 205.96 435.359 203.96C435.749 202.98 436.049 201.95 436.239 200.91C436.429 199.87 436.509 198.7 435.699 197.9C435.019 197.22 433.999 197.08 433.079 197.17C431.989 197.28 430.909 197.53 429.849 197.79C425.419 198.89 421.189 200.81 417.299 203.18C413.409 205.55 410.129 208.14 407.059 211.21C406.279 211.99 407.489 213.21 408.269 212.42C413.879 206.81 420.879 202.24 428.499 199.93C429.419 199.65 430.349 199.41 431.289 199.2C432.109 199.02 433.069 198.74 433.919 198.86C434.839 199 434.659 199.94 434.519 200.63C434.349 201.54 434.089 202.44 433.749 203.3C433.069 205.05 432.029 206.67 430.749 208.04C429.469 209.41 427.789 210.94 425.829 210.56C424.149 210.23 422.649 208.95 421.629 207.64C420.609 206.33 419.929 204.76 419.479 203.17C418.489 199.66 418.499 195.81 419.139 192.25C419.489 190.31 420.039 188.38 420.839 186.58C421.249 185.66 421.719 184.76 422.249 183.91C422.719 183.15 423.229 182.25 423.959 181.69C424.759 181.08 425.729 181.29 426.579 181.69C427.549 182.13 428.449 182.75 429.349 183.3C431.129 184.4 432.889 185.53 434.599 186.76C440.829 191.24 446.889 197.65 447.639 205.67C447.979 209.27 447.209 212.99 445.179 216C444.689 216.73 444.109 217.42 443.469 218.03C442.699 218.76 441.979 218.98 440.949 218.64C440.019 218.33 439.099 217.85 438.229 217.4C437.409 216.98 436.599 216.51 435.909 215.9C432.919 213.29 433.159 208.77 434.309 205.32C434.939 203.45 435.939 201.68 437.239 200.2C438.469 198.8 440.059 197.56 442.009 197.53C444.119 197.5 446.079 198.61 447.849 199.65C449.499 200.61 451.319 201.62 452.229 203.38C454.269 207.32 448.629 209.27 445.879 210.19C441.839 211.54 437.579 212.12 433.329 211.9C431.509 211.81 429.299 211.75 427.679 210.81C426.059 209.87 425.919 207.81 425.959 206.08C426.039 202.49 427.319 198.99 429.419 196.1C431.719 192.93 434.989 190.86 438.619 189.48C440.679 188.7 442.799 188.07 444.909 187.42C446.009 187.08 447.109 186.74 448.219 186.41C448.769 186.24 449.319 186.08 449.879 185.91C450.319 185.78 450.939 185.45 451.399 185.48C451.499 185.48 451.559 185.47 451.589 185.51C451.669 185.61 451.599 185.98 451.589 186.1C451.559 186.67 451.519 187.23 451.479 187.8C451.389 188.85 451.269 189.9 451.119 190.95C450.799 193.08 450.349 195.19 449.769 197.27C448.639 201.32 447.039 205.26 444.909 208.9C443.919 210.59 442.789 212.2 441.399 213.59C440.729 214.26 440.009 214.93 439.179 215.41C438.269 215.94 437.499 215.86 436.719 215.15C434.289 212.94 433.259 209.57 433.489 206.36C433.719 203.15 435.439 200.01 438.079 197.99C440.719 195.97 444.339 194.84 447.789 194.94C448.439 194.96 449.689 194.88 450.199 195.36C450.749 195.88 450.519 196.94 450.349 197.57C449.879 199.25 448.679 200.59 447.359 201.68C445.869 202.91 444.089 203.91 442.299 204.63C440.509 205.35 438.429 205.82 436.449 205.52C434.679 205.26 432.939 204.45 431.849 202.99C430.759 201.53 430.359 199.62 430.209 197.82C429.859 193.52 430.459 189.14 431.829 185.06C432.419 183.3 433.109 181.44 434.279 179.97C435.509 178.42 437.229 177.76 439.169 177.67C441.249 177.57 443.419 177.76 445.459 178.17C447.369 178.55 449.249 179.2 450.799 180.4C452.349 181.6 453.319 183.16 453.609 185.05C453.909 187.05 453.589 189.2 453.199 191.17C452.829 193.03 452.229 194.99 450.909 196.42C449.759 197.66 448.019 198.59 446.289 198.34C444.649 198.1 443.419 196.8 442.809 195.32C442.229 193.93 442.189 192.39 442.269 190.91C442.409 188.2 443.169 185.07 445.289 183.21C447.409 181.35 450.499 182.03 452.819 183.18C455.529 184.52 458.189 186.7 459.469 189.5C461.029 192.91 459.489 197.04 457.569 199.96C455.539 203.05 452.669 205.53 449.389 207.21L450.679 207.95C450.289 204.6 450.609 201.21 451.669 198C452.059 196.81 452.549 195.41 453.579 194.61C454.769 193.69 456.419 194.19 457.749 194.48C463.659 195.78 469.289 198.46 473.979 202.29C476.119 204.04 478.669 206.13 479.399 208.91C480.039 211.35 479.179 213.94 477.709 215.9C474.079 220.74 467.189 221.11 461.709 220.19C461.019 220.08 460.269 219.95 459.679 219.54C459.089 219.13 458.739 218.47 458.489 217.82C457.909 216.29 457.719 214.63 457.759 213.01C457.819 210.09 458.459 207.09 459.509 204.36C460.499 201.81 462.079 199.37 464.399 197.84C466.719 196.31 469.729 195.7 472.589 195.73C474.039 195.74 475.479 195.9 476.909 196.16C478.199 196.4 479.779 196.63 480.749 197.61C481.719 198.59 481.749 200.24 481.689 201.58C481.619 203.31 481.369 205.04 480.929 206.72C480.809 207.18 480.679 207.8 480.259 208.09C479.639 208.52 478.439 208.08 477.779 207.96C476.029 207.65 474.279 207.34 472.529 207.04C468.949 206.41 465.369 205.78 461.789 205.15C460.579 204.94 458.479 204.96 457.999 203.56C457.809 203 457.819 202.4 457.839 201.82C457.869 200.94 457.939 200.05 458.049 199.18C458.259 197.54 458.619 195.91 459.099 194.33C459.539 192.88 460.049 191.37 460.879 190.08C462.659 187.32 466.129 187.88 468.889 188.55C470.449 188.93 471.989 189.44 473.449 190.11C474.819 190.74 476.069 191.53 476.659 192.97C477.719 195.52 477.059 198.78 476.149 201.28C475.189 203.91 473.549 206.29 471.459 208.14C469.229 210.11 466.449 211.41 463.549 212.01C460.649 212.61 457.479 212.55 454.749 211.45C452.289 210.46 450.629 208.35 450.499 205.67C450.369 202.99 451.669 200.66 453.869 199.25C458.739 196.13 464.989 198.37 468.059 202.92C471.379 207.83 471.369 214.63 468.869 219.89C466.369 225.15 461.549 228.71 455.799 229.07C453.039 229.24 450.279 228.64 447.949 227.13C445.789 225.73 444.019 223.6 443.139 221.18C442.259 218.76 442.139 215.69 443.579 213.37C445.129 210.88 448.349 210.18 451.069 209.97C453.959 209.74 456.879 210.08 459.609 211.06C462.339 212.04 465.009 213.67 466.539 216.09C470.009 221.58 463.619 227.26 459.079 229.38C453.859 231.82 447.699 231.66 442.609 228.97C437.819 226.43 433.479 221.39 433.949 215.65C434.419 209.91 440.329 207.64 445.299 207.79C445.859 207.81 446.429 207.82 446.979 207.96C447.709 208.15 447.799 208.55 447.719 209.28C447.539 210.85 446.999 212.4 446.349 213.83C445.009 216.76 443.179 219.5 441.249 222.07C439.319 224.64 437.249 226.91 434.969 229.06C434.399 229.6 433.819 230.15 433.209 230.65C432.639 231.12 432.019 231.49 431.259 231.35C430.499 231.21 429.749 230.73 429.069 230.35C428.389 229.97 427.749 229.59 427.109 229.17C424.559 227.52 422.239 225.51 420.229 223.24C418.219 220.97 416.649 218.64 415.679 215.9C414.709 213.16 414.449 210.3 415.739 207.77C416.019 207.23 416.339 206.66 416.849 206.3C417.559 205.79 418.179 206.28 418.739 206.77C419.939 207.82 421.099 208.93 422.199 210.08C424.459 212.42 426.629 214.95 428.349 217.72C430.069 220.49 431.219 223.54 430.939 226.78C430.829 228.12 430.439 229.66 429.569 230.72C428.469 232.05 426.859 231.57 425.429 231.13C422.389 230.2 419.479 228.67 416.859 226.87C414.679 225.38 412.489 223.37 411.849 220.71C411.329 218.56 411.879 215.79 413.949 214.63C414.349 214.41 414.889 214.18 415.129 214.7C415.419 215.32 415.279 216.26 415.229 216.9C415.109 218.46 414.679 220.01 413.989 221.41C413.389 222.63 412.609 223.94 411.379 224.62C410.019 225.37 408.359 224.87 406.969 224.45C404.519 223.72 402.089 222.52 400.319 220.63C398.399 218.57 397.859 215.93 398.599 213.22C399.459 210.09 401.389 207.16 403.319 204.58C404.199 203.4 405.169 202.03 406.429 201.22C407.799 200.34 409.289 200.63 410.639 201.4C414.709 203.74 416.419 209.27 414.669 213.57C414.309 214.47 413.589 216.04 412.499 216.18C411.229 216.34 409.829 215 409.069 214.13C407.199 211.96 406.689 208.96 406.979 206.19C407.329 202.86 408.739 199.63 410.169 196.64C410.879 195.16 411.619 193.67 412.479 192.27C412.889 191.61 413.319 191.22 414.129 191.26C414.939 191.3 415.709 191.54 416.469 191.75C419.439 192.56 422.579 193.87 424.899 195.94C425.989 196.91 426.889 198.08 427.299 199.49C427.489 200.16 427.579 200.86 427.509 201.55C427.479 201.87 427.409 202.19 427.299 202.5C427.159 202.9 427.119 202.95 426.709 202.83C424.839 202.28 421.579 200.81 421.839 198.41C421.919 197.71 422.269 197.06 422.579 196.44C422.909 195.79 423.249 195.14 423.619 194.51C424.259 193.42 424.969 192.37 425.889 191.5C426.869 190.57 428.079 189.95 429.439 189.84C430.979 189.72 432.599 190.02 434.059 190.49C436.439 191.25 438.829 193.08 438.519 195.86C438.399 196.91 437.769 197.96 436.699 198.27C435.469 198.62 434.249 197.43 433.619 196.5C432.229 194.4 432.339 191.84 433.499 189.68C434.869 187.12 436.699 184.79 438.689 182.68C439.529 181.79 440.369 180.96 441.619 180.73C442.929 180.49 444.209 181.04 445.219 181.86C446.069 182.56 447.289 181.35 446.429 180.65L446.459 180.6Z" fill="white"/>
<path d="M43.81 116.99V94.9102H52.6C53.24 94.9102 53.89 95.0002 54.55 95.1802C55.23 95.3402 55.86 95.6702 56.44 96.1702C57.02 96.6502 57.48 97.3602 57.82 98.3002C58.18 99.2202 58.36 100.44 58.36 101.96C58.36 103.52 58.17 104.78 57.79 105.74C57.43 106.68 56.95 107.41 56.35 107.93C55.77 108.43 55.14 108.77 54.46 108.95C53.78 109.13 53.12 109.22 52.48 109.22C52.18 109.22 51.74 109.21 51.16 109.19C50.58 109.17 49.96 109.15 49.3 109.13C48.66 109.09 48.06 109.05 47.5 109.01C46.94 108.97 46.51 108.94 46.21 108.92V116.99H43.81ZM46.21 107.09H52.18C52.88 107.09 53.52 106.94 54.1 106.64C54.68 106.34 55.13 105.82 55.45 105.08C55.79 104.34 55.96 103.31 55.96 101.99C55.96 100.69 55.79 99.6902 55.45 98.9902C55.13 98.2702 54.7 97.7702 54.16 97.4902C53.62 97.2102 53.03 97.0702 52.39 97.0702H46.21V107.09ZM66.9248 116.99V97.0702H60.1148V94.9102H76.1348V97.0702H69.3248V116.99H66.9248ZM85.207 117.17C84.767 117.17 84.237 117.15 83.617 117.11C83.017 117.09 82.397 117.05 81.757 116.99C81.117 116.95 80.507 116.9 79.927 116.84C79.367 116.78 78.897 116.71 78.517 116.63V114.8C79.017 114.84 79.627 114.88 80.347 114.92C81.067 114.96 81.837 114.99 82.657 115.01C83.497 115.03 84.317 115.04 85.117 115.04C86.017 115.04 86.827 114.95 87.547 114.77C88.267 114.59 88.837 114.26 89.257 113.78C89.697 113.3 89.917 112.61 89.917 111.71V110.21C89.917 109.19 89.657 108.42 89.137 107.9C88.617 107.36 87.777 107.09 86.617 107.09H84.247C82.427 107.09 80.997 106.69 79.957 105.89C78.937 105.09 78.427 103.71 78.427 101.75V100.49C78.427 98.4102 78.987 96.9302 80.107 96.0502C81.227 95.1702 82.807 94.7302 84.847 94.7302C85.487 94.7302 86.207 94.7702 87.007 94.8502C87.807 94.9102 88.577 94.9902 89.317 95.0902C90.077 95.1702 90.707 95.2602 91.207 95.3602V97.1902C90.327 97.1102 89.327 97.0402 88.207 96.9802C87.107 96.9202 86.067 96.8902 85.087 96.8902C84.187 96.8902 83.407 97.0002 82.747 97.2202C82.087 97.4202 81.577 97.7902 81.217 98.3302C80.877 98.8502 80.707 99.6002 80.707 100.58V101.6C80.707 102.82 81.027 103.66 81.667 104.12C82.307 104.58 83.197 104.81 84.337 104.81H86.887C88.107 104.81 89.107 105.03 89.887 105.47C90.667 105.91 91.247 106.52 91.627 107.3C92.007 108.06 92.197 108.94 92.197 109.94V111.65C92.197 113.13 91.877 114.27 91.237 115.07C90.617 115.87 89.777 116.42 88.717 116.72C87.677 117.02 86.507 117.17 85.207 117.17ZM96.2807 116.99V94.9102H105.011C106.351 94.9102 107.481 95.1602 108.401 95.6602C109.321 96.1402 110.061 96.8502 110.621 97.7902C111.201 98.7302 111.621 99.8902 111.881 101.27C112.141 102.63 112.271 104.19 112.271 105.95C112.271 108.27 112.001 110.25 111.461 111.89C110.921 113.53 110.111 114.79 109.031 115.67C107.951 116.55 106.611 116.99 105.011 116.99H96.2807ZM98.6807 114.86H104.831C106.011 114.86 106.971 114.5 107.711 113.78C108.451 113.04 109.001 112.01 109.361 110.69C109.721 109.35 109.901 107.77 109.901 105.95C109.901 104.31 109.801 102.93 109.601 101.81C109.401 100.67 109.091 99.7502 108.671 99.0502C108.271 98.3502 107.751 97.8502 107.111 97.5502C106.471 97.2302 105.711 97.0702 104.831 97.0702H98.6807V114.86ZM124.405 124.1V100.97H126.325L126.775 102.62C127.135 102.36 127.595 102.09 128.155 101.81C128.735 101.51 129.355 101.26 130.015 101.06C130.695 100.86 131.365 100.76 132.025 100.76C133.065 100.76 133.945 100.99 134.665 101.45C135.405 101.89 136.005 102.49 136.465 103.25C136.925 104.01 137.255 104.88 137.455 105.86C137.655 106.84 137.755 107.87 137.755 108.95C137.755 110.75 137.545 112.27 137.125 113.51C136.725 114.73 136.105 115.65 135.265 116.27C134.425 116.89 133.345 117.2 132.025 117.2C131.125 117.2 130.215 117.06 129.295 116.78C128.395 116.48 127.555 116.11 126.775 115.67V124.1H124.405ZM131.365 115.19C132.125 115.19 132.805 115 133.405 114.62C134.005 114.24 134.485 113.6 134.845 112.7C135.205 111.78 135.385 110.53 135.385 108.95C135.385 107.45 135.195 106.25 134.815 105.35C134.435 104.43 133.945 103.77 133.345 103.37C132.745 102.95 132.085 102.74 131.365 102.74C130.445 102.74 129.595 102.89 128.815 103.19C128.055 103.47 127.375 103.77 126.775 104.09V113.9C127.475 114.28 128.215 114.59 128.995 114.83C129.795 115.07 130.585 115.19 131.365 115.19ZM144.869 117.17C143.689 117.17 142.719 116.82 141.959 116.12C141.199 115.42 140.819 114.43 140.819 113.15V112.01C140.819 110.75 141.229 109.73 142.049 108.95C142.889 108.17 144.149 107.78 145.829 107.78H151.259V105.8C151.259 105.14 151.139 104.58 150.899 104.12C150.679 103.64 150.269 103.27 149.669 103.01C149.089 102.75 148.239 102.62 147.119 102.62H142.139V101.21C142.839 101.09 143.649 100.98 144.569 100.88C145.509 100.78 146.609 100.73 147.869 100.73C149.169 100.71 150.249 100.87 151.109 101.21C151.969 101.55 152.599 102.09 152.999 102.83C153.419 103.55 153.629 104.5 153.629 105.68V116.99H151.799L151.349 115.16C151.269 115.24 151.019 115.38 150.599 115.58C150.199 115.78 149.679 116.01 149.039 116.27C148.419 116.51 147.739 116.72 146.999 116.9C146.279 117.08 145.569 117.17 144.869 117.17ZM145.859 115.4C146.219 115.42 146.629 115.38 147.089 115.28C147.549 115.18 148.019 115.07 148.499 114.95C148.979 114.81 149.419 114.67 149.819 114.53C150.239 114.39 150.579 114.27 150.839 114.17C151.099 114.07 151.239 114.02 151.259 114.02V108.98L146.369 109.19C145.229 109.23 144.409 109.51 143.909 110.03C143.429 110.55 143.189 111.22 143.189 112.04V112.76C143.189 113.4 143.319 113.92 143.579 114.32C143.859 114.7 144.199 114.97 144.599 115.13C145.019 115.29 145.439 115.38 145.859 115.4ZM163.406 116.99C162.366 116.99 161.506 116.82 160.826 116.48C160.146 116.14 159.646 115.59 159.326 114.83C159.006 114.07 158.856 113.06 158.876 111.8L158.966 102.92H156.416V101.39L158.996 100.97L159.386 96.5002H161.216V100.97H165.836V102.92H161.216V111.8C161.216 112.5 161.286 113.06 161.426 113.48C161.586 113.9 161.786 114.22 162.026 114.44C162.286 114.66 162.556 114.82 162.836 114.92C163.116 115 163.386 115.05 163.646 115.07L165.596 115.25V116.99H163.406ZM169.472 98.1202C169.152 98.1202 168.992 97.9602 168.992 97.6402V95.3002C168.992 94.9802 169.152 94.8202 169.472 94.8202H171.152C171.312 94.8202 171.422 94.8702 171.482 94.9702C171.562 95.0502 171.602 95.1602 171.602 95.3002V97.6402C171.602 97.9602 171.452 98.1202 171.152 98.1202H169.472ZM169.112 116.99V100.97H171.482V116.99H169.112ZM182.175 117.17C180.495 117.17 179.165 116.92 178.185 116.42C177.225 115.92 176.535 115.07 176.115 113.87C175.695 112.67 175.485 111.03 175.485 108.95C175.485 106.83 175.695 105.18 176.115 104C176.555 102.8 177.265 101.96 178.245 101.48C179.225 101 180.545 100.76 182.205 100.76C183.625 100.76 184.775 100.92 185.655 101.24C186.555 101.56 187.215 102.11 187.635 102.89C188.075 103.65 188.295 104.71 188.295 106.07C188.295 107.01 188.105 107.77 187.725 108.35C187.365 108.91 186.835 109.32 186.135 109.58C185.455 109.82 184.645 109.94 183.705 109.94H177.855C177.875 111.24 178.015 112.29 178.275 113.09C178.535 113.87 179.005 114.44 179.685 114.8C180.385 115.14 181.405 115.31 182.745 115.31H187.905V116.75C186.985 116.87 186.085 116.97 185.205 117.05C184.325 117.13 183.315 117.17 182.175 117.17ZM177.825 108.38H183.525C184.425 108.38 185.085 108.22 185.505 107.9C185.945 107.56 186.165 106.96 186.165 106.1C186.165 105.18 186.025 104.47 185.745 103.97C185.485 103.45 185.065 103.09 184.485 102.89C183.925 102.67 183.165 102.56 182.205 102.56C181.085 102.56 180.205 102.73 179.565 103.07C178.925 103.39 178.475 103.97 178.215 104.81C177.955 105.65 177.825 106.84 177.825 108.38ZM192.286 116.99V100.97H194.146L194.656 102.74C195.416 102.2 196.306 101.73 197.326 101.33C198.346 100.91 199.406 100.7 200.506 100.7C201.686 100.7 202.636 100.95 203.356 101.45C204.076 101.95 204.606 102.61 204.946 103.43C205.286 104.25 205.456 105.14 205.456 106.1V116.99H203.086V106.37C203.086 105.69 202.946 105.09 202.666 104.57C202.406 104.03 202.026 103.61 201.526 103.31C201.046 103.01 200.446 102.86 199.726 102.86C199.066 102.86 198.446 102.93 197.866 103.07C197.306 103.19 196.766 103.37 196.246 103.61C195.746 103.83 195.216 104.1 194.656 104.42V116.99H192.286ZM215.233 116.99C214.193 116.99 213.333 116.82 212.653 116.48C211.973 116.14 211.473 115.59 211.153 114.83C210.833 114.07 210.683 113.06 210.703 111.8L210.793 102.92H208.243V101.39L210.823 100.97L211.213 96.5002H213.043V100.97H217.663V102.92H213.043V111.8C213.043 112.5 213.113 113.06 213.253 113.48C213.413 113.9 213.613 114.22 213.853 114.44C214.113 114.66 214.383 114.82 214.663 114.92C214.943 115 215.213 115.05 215.473 115.07L217.423 115.25V116.99H215.233Z" fill="#0B5079"/>
<path d="M335.032 116.99L342.592 94.9102H345.652L353.212 116.99H350.752L348.532 110.69H339.652L337.492 116.99H335.032ZM340.252 108.53H347.932L344.122 97.0102L340.252 108.53ZM356.507 116.99V100.97H358.367L358.877 102.74C359.637 102.2 360.527 101.73 361.547 101.33C362.567 100.91 363.627 100.7 364.727 100.7C365.907 100.7 366.857 100.95 367.577 101.45C368.297 101.95 368.827 102.61 369.167 103.43C369.507 104.25 369.677 105.14 369.677 106.1V116.99H367.307V106.37C367.307 105.69 367.167 105.09 366.887 104.57C366.627 104.03 366.247 103.61 365.747 103.31C365.267 103.01 364.667 102.86 363.947 102.86C363.287 102.86 362.667 102.93 362.087 103.07C361.527 103.19 360.987 103.37 360.467 103.61C359.967 103.83 359.437 104.1 358.877 104.42V116.99H356.507ZM383.983 116.99L372.523 100.97H374.953L386.443 116.99H383.983ZM372.523 116.99L378.553 108.32L379.453 110.45L374.923 116.99H372.523ZM380.383 109.7L379.333 107.81L383.983 101L386.443 100.97L380.383 109.7ZM389.708 98.1202C389.388 98.1202 389.228 97.9602 389.228 97.6402V95.3002C389.228 94.9802 389.388 94.8202 389.708 94.8202H391.388C391.548 94.8202 391.658 94.8702 391.718 94.9702C391.798 95.0502 391.838 95.1602 391.838 95.3002V97.6402C391.838 97.9602 391.688 98.1202 391.388 98.1202H389.708ZM389.348 116.99V100.97H391.718V116.99H389.348ZM402.412 117.17C400.732 117.17 399.402 116.92 398.422 116.42C397.462 115.92 396.772 115.07 396.352 113.87C395.932 112.67 395.722 111.03 395.722 108.95C395.722 106.83 395.932 105.18 396.352 104C396.792 102.8 397.502 101.96 398.482 101.48C399.462 101 400.782 100.76 402.442 100.76C403.862 100.76 405.012 100.92 405.892 101.24C406.792 101.56 407.452 102.11 407.872 102.89C408.312 103.65 408.532 104.71 408.532 106.07C408.532 107.01 408.342 107.77 407.962 108.35C407.602 108.91 407.072 109.32 406.372 109.58C405.692 109.82 404.882 109.94 403.942 109.94H398.092C398.112 111.24 398.252 112.29 398.512 113.09C398.772 113.87 399.242 114.44 399.922 114.8C400.622 115.14 401.642 115.31 402.982 115.31H408.142V116.75C407.222 116.87 406.322 116.97 405.442 117.05C404.562 117.13 403.552 117.17 402.412 117.17ZM398.062 108.38H403.762C404.662 108.38 405.322 108.22 405.742 107.9C406.182 107.56 406.402 106.96 406.402 106.1C406.402 105.18 406.262 104.47 405.982 103.97C405.722 103.45 405.302 103.09 404.722 102.89C404.162 102.67 403.402 102.56 402.442 102.56C401.322 102.56 400.442 102.73 399.802 103.07C399.162 103.39 398.712 103.97 398.452 104.81C398.192 105.65 398.062 106.84 398.062 108.38ZM417.832 116.99C416.792 116.99 415.932 116.82 415.252 116.48C414.572 116.14 414.072 115.59 413.752 114.83C413.432 114.07 413.282 113.06 413.302 111.8L413.392 102.92H410.842V101.39L413.422 100.97L413.812 96.5002H415.642V100.97H420.262V102.92H415.642V111.8C415.642 112.5 415.712 113.06 415.852 113.48C416.012 113.9 416.212 114.22 416.452 114.44C416.712 114.66 416.982 114.82 417.262 114.92C417.542 115 417.812 115.05 418.072 115.07L420.022 115.25V116.99H417.832ZM427.828 124.1L429.868 116.99C429.368 116.97 428.848 116.85 428.308 116.63C427.768 116.41 427.268 116.03 426.808 115.49C426.348 114.95 425.968 114.2 425.668 113.24L421.828 100.97H424.318L427.888 112.73C428.108 113.35 428.338 113.81 428.578 114.11C428.838 114.41 429.098 114.62 429.358 114.74C429.618 114.86 429.838 114.93 430.018 114.95C430.218 114.95 430.338 114.95 430.378 114.95L434.488 100.97H436.918L431.068 121.13L429.688 124.1H427.828ZM447.854 124.1V100.97H449.774L450.224 102.62C450.584 102.36 451.044 102.09 451.604 101.81C452.184 101.51 452.804 101.26 453.464 101.06C454.144 100.86 454.814 100.76 455.474 100.76C456.514 100.76 457.394 100.99 458.114 101.45C458.854 101.89 459.454 102.49 459.914 103.25C460.374 104.01 460.704 104.88 460.904 105.86C461.104 106.84 461.204 107.87 461.204 108.95C461.204 110.75 460.994 112.27 460.574 113.51C460.174 114.73 459.554 115.65 458.714 116.27C457.874 116.89 456.794 117.2 455.474 117.2C454.574 117.2 453.664 117.06 452.744 116.78C451.844 116.48 451.004 116.11 450.224 115.67V124.1H447.854ZM454.814 115.19C455.574 115.19 456.254 115 456.854 114.62C457.454 114.24 457.934 113.6 458.294 112.7C458.654 111.78 458.834 110.53 458.834 108.95C458.834 107.45 458.644 106.25 458.264 105.35C457.884 104.43 457.394 103.77 456.794 103.37C456.194 102.95 455.534 102.74 454.814 102.74C453.894 102.74 453.044 102.89 452.264 103.19C451.504 103.47 450.824 103.77 450.224 104.09V113.9C450.924 114.28 451.664 114.59 452.444 114.83C453.244 115.07 454.034 115.19 454.814 115.19ZM468.318 117.17C467.138 117.17 466.168 116.82 465.408 116.12C464.648 115.42 464.268 114.43 464.268 113.15V112.01C464.268 110.75 464.678 109.73 465.498 108.95C466.338 108.17 467.598 107.78 469.278 107.78H474.708V105.8C474.708 105.14 474.588 104.58 474.348 104.12C474.128 103.64 473.718 103.27 473.118 103.01C472.538 102.75 471.688 102.62 470.568 102.62H465.588V101.21C466.288 101.09 467.098 100.98 468.018 100.88C468.958 100.78 470.058 100.73 471.318 100.73C472.618 100.71 473.698 100.87 474.558 101.21C475.418 101.55 476.048 102.09 476.448 102.83C476.868 103.55 477.078 104.5 477.078 105.68V116.99H475.248L474.798 115.16C474.718 115.24 474.468 115.38 474.048 115.58C473.648 115.78 473.128 116.01 472.488 116.27C471.868 116.51 471.188 116.72 470.448 116.9C469.728 117.08 469.018 117.17 468.318 117.17ZM469.308 115.4C469.668 115.42 470.078 115.38 470.538 115.28C470.998 115.18 471.468 115.07 471.948 114.95C472.428 114.81 472.868 114.67 473.268 114.53C473.688 114.39 474.028 114.27 474.288 114.17C474.548 114.07 474.688 114.02 474.708 114.02V108.98L469.818 109.19C468.678 109.23 467.858 109.51 467.358 110.03C466.878 110.55 466.638 111.22 466.638 112.04V112.76C466.638 113.4 466.768 113.92 467.028 114.32C467.308 114.7 467.648 114.97 468.048 115.13C468.468 115.29 468.888 115.38 469.308 115.4ZM486.856 116.99C485.816 116.99 484.956 116.82 484.276 116.48C483.596 116.14 483.096 115.59 482.776 114.83C482.456 114.07 482.306 113.06 482.326 111.8L482.416 102.92H479.866V101.39L482.446 100.97L482.836 96.5002H484.666V100.97H489.286V102.92H484.666V111.8C484.666 112.5 484.736 113.06 484.876 113.48C485.036 113.9 485.236 114.22 485.476 114.44C485.736 114.66 486.006 114.82 486.286 114.92C486.566 115 486.836 115.05 487.096 115.07L489.046 115.25V116.99H486.856ZM492.921 98.1202C492.601 98.1202 492.441 97.9602 492.441 97.6402V95.3002C492.441 94.9802 492.601 94.8202 492.921 94.8202H494.601C494.761 94.8202 494.871 94.8702 494.931 94.9702C495.011 95.0502 495.051 95.1602 495.051 95.3002V97.6402C495.051 97.9602 494.901 98.1202 494.601 98.1202H492.921ZM492.561 116.99V100.97H494.931V116.99H492.561ZM505.625 117.17C503.945 117.17 502.615 116.92 501.635 116.42C500.675 115.92 499.985 115.07 499.565 113.87C499.145 112.67 498.935 111.03 498.935 108.95C498.935 106.83 499.145 105.18 499.565 104C500.005 102.8 500.715 101.96 501.695 101.48C502.675 101 503.995 100.76 505.655 100.76C507.075 100.76 508.225 100.92 509.105 101.24C510.005 101.56 510.665 102.11 511.085 102.89C511.525 103.65 511.745 104.71 511.745 106.07C511.745 107.01 511.555 107.77 511.175 108.35C510.815 108.91 510.285 109.32 509.585 109.58C508.905 109.82 508.095 109.94 507.155 109.94H501.305C501.325 111.24 501.465 112.29 501.725 113.09C501.985 113.87 502.455 114.44 503.135 114.8C503.835 115.14 504.855 115.31 506.195 115.31H511.355V116.75C510.435 116.87 509.535 116.97 508.655 117.05C507.775 117.13 506.765 117.17 505.625 117.17ZM501.275 108.38H506.975C507.875 108.38 508.535 108.22 508.955 107.9C509.395 107.56 509.615 106.96 509.615 106.1C509.615 105.18 509.475 104.47 509.195 103.97C508.935 103.45 508.515 103.09 507.935 102.89C507.375 102.67 506.615 102.56 505.655 102.56C504.535 102.56 503.655 102.73 503.015 103.07C502.375 103.39 501.925 103.97 501.665 104.81C501.405 105.65 501.275 106.84 501.275 108.38ZM515.735 116.99V100.97H517.595L518.105 102.74C518.865 102.2 519.755 101.73 520.775 101.33C521.795 100.91 522.855 100.7 523.955 100.7C525.135 100.7 526.085 100.95 526.805 101.45C527.525 101.95 528.055 102.61 528.395 103.43C528.735 104.25 528.905 105.14 528.905 106.1V116.99H526.535V106.37C526.535 105.69 526.395 105.09 526.115 104.57C525.855 104.03 525.475 103.61 524.975 103.31C524.495 103.01 523.895 102.86 523.175 102.86C522.515 102.86 521.895 102.93 521.315 103.07C520.755 103.19 520.215 103.37 519.695 103.61C519.195 103.83 518.665 104.1 518.105 104.42V116.99H515.735ZM538.682 116.99C537.642 116.99 536.782 116.82 536.102 116.48C535.422 116.14 534.922 115.59 534.602 114.83C534.282 114.07 534.132 113.06 534.152 111.8L534.242 102.92H531.692V101.39L534.272 100.97L534.662 96.5002H536.492V100.97H541.112V102.92H536.492V111.8C536.492 112.5 536.562 113.06 536.702 113.48C536.862 113.9 537.062 114.22 537.302 114.44C537.562 114.66 537.832 114.82 538.112 114.92C538.392 115 538.662 115.05 538.922 115.07L540.872 115.25V116.99H538.682Z" fill="#0B5079"/>
<path d="M665.382 116.99L667.902 94.9102H670.332L676.212 113.99L681.972 94.9102H684.432L687.012 116.99H684.702L682.482 97.6402L682.872 97.7002L677.292 116.99H675.102L669.372 97.7302L669.822 97.6702L667.692 116.99H665.382ZM691.031 116.99V94.9102H699.761C701.101 94.9102 702.231 95.1602 703.151 95.6602C704.071 96.1402 704.811 96.8502 705.371 97.7902C705.951 98.7302 706.371 99.8902 706.631 101.27C706.891 102.63 707.021 104.19 707.021 105.95C707.021 108.27 706.751 110.25 706.211 111.89C705.671 113.53 704.861 114.79 703.781 115.67C702.701 116.55 701.361 116.99 699.761 116.99H691.031ZM693.431 114.86H699.581C700.761 114.86 701.721 114.5 702.461 113.78C703.201 113.04 703.751 112.01 704.111 110.69C704.471 109.35 704.651 107.77 704.651 105.95C704.651 104.31 704.551 102.93 704.351 101.81C704.151 100.67 703.841 99.7502 703.421 99.0502C703.021 98.3502 702.501 97.8502 701.861 97.5502C701.221 97.2302 700.461 97.0702 699.581 97.0702H693.431V114.86ZM711.099 116.99V94.9102H719.829C721.169 94.9102 722.299 95.1602 723.219 95.6602C724.139 96.1402 724.879 96.8502 725.439 97.7902C726.019 98.7302 726.439 99.8902 726.699 101.27C726.959 102.63 727.089 104.19 727.089 105.95C727.089 108.27 726.819 110.25 726.279 111.89C725.739 113.53 724.929 114.79 723.849 115.67C722.769 116.55 721.429 116.99 719.829 116.99H711.099ZM713.499 114.86H719.649C720.829 114.86 721.789 114.5 722.529 113.78C723.269 113.04 723.819 112.01 724.179 110.69C724.539 109.35 724.719 107.77 724.719 105.95C724.719 104.31 724.619 102.93 724.419 101.81C724.219 100.67 723.909 99.7502 723.489 99.0502C723.089 98.3502 722.569 97.8502 721.929 97.5502C721.289 97.2302 720.529 97.0702 719.649 97.0702H713.499V114.86ZM739.223 124.1V100.97H741.143L741.593 102.62C741.953 102.36 742.413 102.09 742.973 101.81C743.553 101.51 744.173 101.26 744.833 101.06C745.513 100.86 746.183 100.76 746.843 100.76C747.883 100.76 748.763 100.99 749.483 101.45C750.223 101.89 750.823 102.49 751.283 103.25C751.743 104.01 752.073 104.88 752.273 105.86C752.473 106.84 752.573 107.87 752.573 108.95C752.573 110.75 752.363 112.27 751.943 113.51C751.543 114.73 750.923 115.65 750.083 116.27C749.243 116.89 748.163 117.2 746.843 117.2C745.943 117.2 745.033 117.06 744.113 116.78C743.213 116.48 742.373 116.11 741.593 115.67V124.1H739.223ZM746.183 115.19C746.943 115.19 747.623 115 748.223 114.62C748.823 114.24 749.303 113.6 749.663 112.7C750.023 111.78 750.203 110.53 750.203 108.95C750.203 107.45 750.013 106.25 749.633 105.35C749.253 104.43 748.763 103.77 748.163 103.37C747.563 102.95 746.903 102.74 746.183 102.74C745.263 102.74 744.413 102.89 743.633 103.19C742.873 103.47 742.193 103.77 741.593 104.09V113.9C742.293 114.28 743.033 114.59 743.813 114.83C744.613 115.07 745.403 115.19 746.183 115.19ZM759.687 117.17C758.507 117.17 757.537 116.82 756.777 116.12C756.017 115.42 755.637 114.43 755.637 113.15V112.01C755.637 110.75 756.047 109.73 756.867 108.95C757.707 108.17 758.967 107.78 760.647 107.78H766.077V105.8C766.077 105.14 765.957 104.58 765.717 104.12C765.497 103.64 765.087 103.27 764.487 103.01C763.907 102.75 763.057 102.62 761.937 102.62H756.957V101.21C757.657 101.09 758.467 100.98 759.387 100.88C760.327 100.78 761.427 100.73 762.687 100.73C763.987 100.71 765.067 100.87 765.927 101.21C766.787 101.55 767.417 102.09 767.817 102.83C768.237 103.55 768.447 104.5 768.447 105.68V116.99H766.617L766.167 115.16C766.087 115.24 765.837 115.38 765.417 115.58C765.017 115.78 764.497 116.01 763.857 116.27C763.237 116.51 762.557 116.72 761.817 116.9C761.097 117.08 760.387 117.17 759.687 117.17ZM760.677 115.4C761.037 115.42 761.447 115.38 761.907 115.28C762.367 115.18 762.837 115.07 763.317 114.95C763.797 114.81 764.237 114.67 764.637 114.53C765.057 114.39 765.397 114.27 765.657 114.17C765.917 114.07 766.057 114.02 766.077 114.02V108.98L761.187 109.19C760.047 109.23 759.227 109.51 758.727 110.03C758.247 110.55 758.007 111.22 758.007 112.04V112.76C758.007 113.4 758.137 113.92 758.397 114.32C758.677 114.7 759.017 114.97 759.417 115.13C759.837 115.29 760.257 115.38 760.677 115.4ZM778.225 116.99C777.185 116.99 776.325 116.82 775.645 116.48C774.965 116.14 774.465 115.59 774.145 114.83C773.825 114.07 773.675 113.06 773.695 111.8L773.785 102.92H771.235V101.39L773.815 100.97L774.205 96.5002H776.035V100.97H780.655V102.92H776.035V111.8C776.035 112.5 776.105 113.06 776.245 113.48C776.405 113.9 776.605 114.22 776.845 114.44C777.105 114.66 777.375 114.82 777.655 114.92C777.935 115 778.205 115.05 778.465 115.07L780.415 115.25V116.99H778.225ZM784.29 98.1202C783.97 98.1202 783.81 97.9602 783.81 97.6402V95.3002C783.81 94.9802 783.97 94.8202 784.29 94.8202H785.97C786.13 94.8202 786.24 94.8702 786.3 94.9702C786.38 95.0502 786.42 95.1602 786.42 95.3002V97.6402C786.42 97.9602 786.27 98.1202 785.97 98.1202H784.29ZM783.93 116.99V100.97H786.3V116.99H783.93ZM796.994 117.17C795.314 117.17 793.984 116.92 793.004 116.42C792.044 115.92 791.354 115.07 790.934 113.87C790.514 112.67 790.304 111.03 790.304 108.95C790.304 106.83 790.514 105.18 790.934 104C791.374 102.8 792.084 101.96 793.064 101.48C794.044 101 795.364 100.76 797.024 100.76C798.444 100.76 799.594 100.92 800.474 101.24C801.374 101.56 802.034 102.11 802.454 102.89C802.894 103.65 803.114 104.71 803.114 106.07C803.114 107.01 802.924 107.77 802.544 108.35C802.184 108.91 801.654 109.32 800.954 109.58C800.274 109.82 799.464 109.94 798.524 109.94H792.674C792.694 111.24 792.834 112.29 793.094 113.09C793.354 113.87 793.824 114.44 794.504 114.8C795.204 115.14 796.224 115.31 797.564 115.31H802.724V116.75C801.804 116.87 800.904 116.97 800.024 117.05C799.144 117.13 798.134 117.17 796.994 117.17ZM792.644 108.38H798.344C799.244 108.38 799.904 108.22 800.324 107.9C800.764 107.56 800.984 106.96 800.984 106.1C800.984 105.18 800.844 104.47 800.564 103.97C800.304 103.45 799.884 103.09 799.304 102.89C798.744 102.67 797.984 102.56 797.024 102.56C795.904 102.56 795.024 102.73 794.384 103.07C793.744 103.39 793.294 103.97 793.034 104.81C792.774 105.65 792.644 106.84 792.644 108.38ZM807.104 116.99V100.97H808.964L809.474 102.74C810.234 102.2 811.124 101.73 812.144 101.33C813.164 100.91 814.224 100.7 815.324 100.7C816.504 100.7 817.454 100.95 818.174 101.45C818.894 101.95 819.424 102.61 819.764 103.43C820.104 104.25 820.274 105.14 820.274 106.1V116.99H817.904V106.37C817.904 105.69 817.764 105.09 817.484 104.57C817.224 104.03 816.844 103.61 816.344 103.31C815.864 103.01 815.264 102.86 814.544 102.86C813.884 102.86 813.264 102.93 812.684 103.07C812.124 103.19 811.584 103.37 811.064 103.61C810.564 103.83 810.034 104.1 809.474 104.42V116.99H807.104ZM830.051 116.99C829.011 116.99 828.151 116.82 827.471 116.48C826.791 116.14 826.291 115.59 825.971 114.83C825.651 114.07 825.501 113.06 825.521 111.8L825.611 102.92H823.061V101.39L825.641 100.97L826.031 96.5002H827.861V100.97H832.481V102.92H827.861V111.8C827.861 112.5 827.931 113.06 828.071 113.48C828.231 113.9 828.431 114.22 828.671 114.44C828.931 114.66 829.201 114.82 829.481 114.92C829.761 115 830.031 115.05 830.291 115.07L832.241 115.25V116.99H830.051Z" fill="#0B5079"/>
<path d="M404.882 390.68L404.522 389.6L405.572 387.77L405.932 388.79L404.882 390.68ZM404.522 415.16V412.31L405.932 412.34V415.16H404.522ZM405.092 412.67C404.652 412.67 404.122 412.65 403.502 412.61C402.902 412.59 402.282 412.55 401.642 412.49C401.002 412.45 400.392 412.4 399.812 412.34C399.252 412.28 398.782 412.21 398.402 412.13V410.3C398.902 410.34 399.512 410.38 400.232 410.42C400.952 410.46 401.722 410.49 402.542 410.51C403.382 410.53 404.202 410.54 405.002 410.54C405.902 410.54 406.712 410.45 407.432 410.27C408.152 410.09 408.722 409.76 409.142 409.28C409.582 408.8 409.802 408.11 409.802 407.21V405.71C409.802 404.69 409.542 403.92 409.022 403.4C408.502 402.86 407.662 402.59 406.502 402.59H404.132C402.312 402.59 400.882 402.19 399.842 401.39C398.822 400.59 398.312 399.21 398.312 397.25V395.99C398.312 393.91 398.872 392.43 399.992 391.55C401.112 390.67 402.692 390.23 404.732 390.23C405.372 390.23 406.092 390.27 406.892 390.35C407.692 390.41 408.462 390.49 409.202 390.59C409.962 390.67 410.592 390.76 411.092 390.86V392.69C410.212 392.61 409.212 392.54 408.092 392.48C406.992 392.42 405.952 392.39 404.972 392.39C404.072 392.39 403.292 392.5 402.632 392.72C401.972 392.92 401.462 393.29 401.102 393.83C400.762 394.35 400.592 395.1 400.592 396.08V397.1C400.592 398.32 400.912 399.16 401.552 399.62C402.192 400.08 403.082 400.31 404.222 400.31H406.772C407.992 400.31 408.992 400.53 409.772 400.97C410.552 401.41 411.132 402.02 411.512 402.8C411.892 403.56 412.082 404.44 412.082 405.44V407.15C412.082 408.63 411.762 409.77 411.122 410.57C410.502 411.37 409.662 411.92 408.602 412.22C407.562 412.52 406.392 412.67 405.092 412.67ZM424.093 412.67C422.513 412.67 421.033 412.63 419.653 412.55C418.293 412.49 417.103 412.4 416.083 412.28V410.45H423.313C424.173 410.45 424.943 410.36 425.623 410.18C426.303 410 426.833 409.67 427.213 409.19C427.613 408.69 427.813 407.99 427.813 407.09V405.62C427.813 404.84 427.613 404.22 427.213 403.76C426.833 403.3 426.353 402.97 425.773 402.77C425.193 402.57 424.593 402.46 423.973 402.44L418.303 402.23V400.49L423.883 400.25C424.963 400.21 425.833 399.98 426.493 399.56C427.173 399.12 427.513 398.39 427.513 397.37V395.9C427.513 394.8 427.143 393.96 426.403 393.38C425.683 392.78 424.593 392.48 423.133 392.48H416.833V390.65C417.753 390.53 418.803 390.43 419.983 390.35C421.183 390.27 422.523 390.23 424.003 390.23C425.323 390.25 426.413 390.48 427.273 390.92C428.153 391.34 428.803 391.94 429.223 392.72C429.643 393.48 429.853 394.38 429.853 395.42V397.31C429.853 397.99 429.743 398.58 429.523 399.08C429.323 399.56 429.053 399.96 428.713 400.28C428.393 400.6 428.043 400.85 427.663 401.03C427.303 401.19 426.973 401.3 426.673 401.36C427.013 401.44 427.383 401.59 427.783 401.81C428.183 402.01 428.563 402.29 428.923 402.65C429.303 403.01 429.613 403.46 429.853 404C430.093 404.54 430.213 405.18 430.213 405.92V407.45C430.213 409.15 429.673 410.45 428.593 411.35C427.533 412.23 426.033 412.67 424.093 412.67ZM435.042 414.83C434.842 414.83 434.662 414.81 434.502 414.77C434.362 414.75 434.292 414.74 434.292 414.74V413.99C434.512 413.99 434.672 413.95 434.772 413.87C434.872 413.81 434.922 413.68 434.922 413.48V412.34H434.682C434.562 412.34 434.452 412.3 434.352 412.22C434.252 412.14 434.202 412.02 434.202 411.86V409.7C434.202 409.34 434.362 409.16 434.682 409.16H435.972C436.172 409.16 436.302 409.21 436.362 409.31C436.422 409.41 436.452 409.54 436.452 409.7V413.36C436.452 413.76 436.372 414.07 436.212 414.29C436.072 414.51 435.892 414.65 435.672 414.71C435.472 414.79 435.262 414.83 435.042 414.83ZM446.845 412.64C446.005 412.64 445.075 412.6 444.055 412.52C443.035 412.46 442.135 412.39 441.355 412.31V410.48H446.815C448.535 410.48 449.875 409.83 450.835 408.53C451.795 407.21 452.275 405.21 452.275 402.53C451.675 402.61 451.005 402.68 450.265 402.74C449.545 402.78 448.825 402.81 448.105 402.83C447.385 402.83 446.745 402.83 446.185 402.83C444.845 402.83 443.715 402.68 442.795 402.38C441.895 402.08 441.205 401.59 440.725 400.91C440.265 400.23 440.035 399.33 440.035 398.21V395.12C440.035 393.94 440.265 393 440.725 392.3C441.185 391.6 441.795 391.09 442.555 390.77C443.335 390.45 444.195 390.29 445.135 390.29H448.555C449.495 390.29 450.335 390.46 451.075 390.8C451.835 391.12 452.475 391.69 452.995 392.51C453.535 393.33 453.945 394.46 454.225 395.9C454.505 397.34 454.645 399.18 454.645 401.42C454.645 403.4 454.465 405.1 454.105 406.52C453.765 407.94 453.255 409.1 452.575 410C451.915 410.9 451.105 411.57 450.145 412.01C449.185 412.43 448.085 412.64 446.845 412.64ZM446.725 400.79H452.275C452.275 399.13 452.185 397.76 452.005 396.68C451.825 395.58 451.555 394.73 451.195 394.13C450.855 393.51 450.425 393.08 449.905 392.84C449.405 392.58 448.825 392.45 448.165 392.45H445.585C445.005 392.45 444.465 392.54 443.965 392.72C443.485 392.88 443.095 393.18 442.795 393.62C442.515 394.04 442.375 394.66 442.375 395.48V397.82C442.375 398.66 442.545 399.29 442.885 399.71C443.245 400.13 443.745 400.42 444.385 400.58C445.025 400.72 445.805 400.79 446.725 400.79ZM464.516 412.55C463.456 412.55 462.506 412.37 461.666 412.01C460.846 411.63 460.196 411.06 459.716 410.3C459.256 409.52 459.026 408.52 459.026 407.3V395.6C459.026 394.42 459.256 393.44 459.716 392.66C460.196 391.86 460.846 391.26 461.666 390.86C462.506 390.44 463.456 390.23 464.516 390.23H468.806C470.046 390.23 471.056 390.46 471.836 390.92C472.616 391.36 473.186 391.98 473.546 392.78C473.926 393.58 474.116 394.52 474.116 395.6V407.3C474.116 409.12 473.626 410.45 472.646 411.29C471.686 412.13 470.406 412.55 468.806 412.55H464.516ZM464.966 410.42H468.266C469.486 410.42 470.366 410.12 470.906 409.52C471.446 408.9 471.716 408.06 471.716 407V395.78C471.716 394.64 471.426 393.79 470.846 393.23C470.286 392.67 469.456 392.39 468.356 392.39H464.906C463.826 392.39 462.976 392.69 462.356 393.29C461.736 393.87 461.426 394.7 461.426 395.78V407C461.426 408.14 461.736 409 462.356 409.58C462.996 410.14 463.866 410.42 464.966 410.42ZM484.174 412.55C483.114 412.55 482.164 412.37 481.324 412.01C480.504 411.63 479.854 411.06 479.374 410.3C478.914 409.52 478.684 408.52 478.684 407.3V395.6C478.684 394.42 478.914 393.44 479.374 392.66C479.854 391.86 480.504 391.26 481.324 390.86C482.164 390.44 483.114 390.23 484.174 390.23H488.464C489.704 390.23 490.714 390.46 491.494 390.92C492.274 391.36 492.844 391.98 493.204 392.78C493.584 393.58 493.774 394.52 493.774 395.6V407.3C493.774 409.12 493.284 410.45 492.304 411.29C491.344 412.13 490.064 412.55 488.464 412.55H484.174ZM484.624 410.42H487.924C489.144 410.42 490.024 410.12 490.564 409.52C491.104 408.9 491.374 408.06 491.374 407V395.78C491.374 394.64 491.084 393.79 490.504 393.23C489.944 392.67 489.114 392.39 488.014 392.39H484.564C483.484 392.39 482.634 392.69 482.014 393.29C481.394 393.87 481.084 394.7 481.084 395.78V407C481.084 408.14 481.394 409 482.014 409.58C482.654 410.14 483.524 410.42 484.624 410.42Z" fill="#5A97CB"/>
<path d="M94.8817 390.68L94.5217 389.6L95.5717 387.77L95.9317 388.79L94.8817 390.68ZM94.5217 415.16V412.31L95.9317 412.34V415.16H94.5217ZM95.0917 412.67C94.6517 412.67 94.1217 412.65 93.5017 412.61C92.9017 412.59 92.2817 412.55 91.6417 412.49C91.0017 412.45 90.3917 412.4 89.8117 412.34C89.2517 412.28 88.7817 412.21 88.4017 412.13V410.3C88.9017 410.34 89.5117 410.38 90.2317 410.42C90.9517 410.46 91.7217 410.49 92.5417 410.51C93.3817 410.53 94.2017 410.54 95.0017 410.54C95.9017 410.54 96.7117 410.45 97.4317 410.27C98.1517 410.09 98.7217 409.76 99.1417 409.28C99.5817 408.8 99.8017 408.11 99.8017 407.21V405.71C99.8017 404.69 99.5417 403.92 99.0217 403.4C98.5017 402.86 97.6617 402.59 96.5017 402.59H94.1317C92.3117 402.59 90.8817 402.19 89.8417 401.39C88.8217 400.59 88.3117 399.21 88.3117 397.25V395.99C88.3117 393.91 88.8717 392.43 89.9917 391.55C91.1117 390.67 92.6917 390.23 94.7317 390.23C95.3717 390.23 96.0917 390.27 96.8917 390.35C97.6917 390.41 98.4617 390.49 99.2017 390.59C99.9617 390.67 100.592 390.76 101.092 390.86V392.69C100.212 392.61 99.2117 392.54 98.0917 392.48C96.9917 392.42 95.9517 392.39 94.9717 392.39C94.0717 392.39 93.2917 392.5 92.6317 392.72C91.9717 392.92 91.4617 393.29 91.1017 393.83C90.7617 394.35 90.5917 395.1 90.5917 396.08V397.1C90.5917 398.32 90.9117 399.16 91.5517 399.62C92.1917 400.08 93.0817 400.31 94.2217 400.31H96.7717C97.9917 400.31 98.9917 400.53 99.7717 400.97C100.552 401.41 101.132 402.02 101.512 402.8C101.892 403.56 102.082 404.44 102.082 405.44V407.15C102.082 408.63 101.762 409.77 101.122 410.57C100.502 411.37 99.6617 411.92 98.6017 412.22C97.5617 412.52 96.3917 412.67 95.0917 412.67ZM114.093 412.67C112.513 412.67 111.033 412.63 109.653 412.55C108.293 412.49 107.103 412.4 106.083 412.28V410.45H113.313C114.173 410.45 114.943 410.36 115.623 410.18C116.303 410 116.833 409.67 117.213 409.19C117.613 408.69 117.813 407.99 117.813 407.09V405.62C117.813 404.84 117.613 404.22 117.213 403.76C116.833 403.3 116.353 402.97 115.773 402.77C115.193 402.57 114.593 402.46 113.973 402.44L108.303 402.23V400.49L113.883 400.25C114.963 400.21 115.833 399.98 116.493 399.56C117.173 399.12 117.513 398.39 117.513 397.37V395.9C117.513 394.8 117.143 393.96 116.403 393.38C115.683 392.78 114.593 392.48 113.133 392.48H106.833V390.65C107.753 390.53 108.803 390.43 109.983 390.35C111.183 390.27 112.523 390.23 114.003 390.23C115.323 390.25 116.413 390.48 117.273 390.92C118.153 391.34 118.803 391.94 119.223 392.72C119.643 393.48 119.853 394.38 119.853 395.42V397.31C119.853 397.99 119.743 398.58 119.523 399.08C119.323 399.56 119.053 399.96 118.713 400.28C118.393 400.6 118.043 400.85 117.663 401.03C117.303 401.19 116.973 401.3 116.673 401.36C117.013 401.44 117.383 401.59 117.783 401.81C118.183 402.01 118.563 402.29 118.923 402.65C119.303 403.01 119.613 403.46 119.853 404C120.093 404.54 120.213 405.18 120.213 405.92V407.45C120.213 409.15 119.673 410.45 118.593 411.35C117.533 412.23 116.033 412.67 114.093 412.67ZM125.042 414.83C124.842 414.83 124.662 414.81 124.502 414.77C124.362 414.75 124.292 414.74 124.292 414.74V413.99C124.512 413.99 124.672 413.95 124.772 413.87C124.872 413.81 124.922 413.68 124.922 413.48V412.34H124.682C124.562 412.34 124.452 412.3 124.352 412.22C124.252 412.14 124.202 412.02 124.202 411.86V409.7C124.202 409.34 124.362 409.16 124.682 409.16H125.972C126.172 409.16 126.302 409.21 126.362 409.31C126.422 409.41 126.452 409.54 126.452 409.7V413.36C126.452 413.76 126.372 414.07 126.212 414.29C126.072 414.51 125.892 414.65 125.672 414.71C125.472 414.79 125.262 414.83 125.042 414.83ZM136.845 412.64C136.005 412.64 135.075 412.6 134.055 412.52C133.035 412.46 132.135 412.39 131.355 412.31V410.48H136.815C138.535 410.48 139.875 409.83 140.835 408.53C141.795 407.21 142.275 405.21 142.275 402.53C141.675 402.61 141.005 402.68 140.265 402.74C139.545 402.78 138.825 402.81 138.105 402.83C137.385 402.83 136.745 402.83 136.185 402.83C134.845 402.83 133.715 402.68 132.795 402.38C131.895 402.08 131.205 401.59 130.725 400.91C130.265 400.23 130.035 399.33 130.035 398.21V395.12C130.035 393.94 130.265 393 130.725 392.3C131.185 391.6 131.795 391.09 132.555 390.77C133.335 390.45 134.195 390.29 135.135 390.29H138.555C139.495 390.29 140.335 390.46 141.075 390.8C141.835 391.12 142.475 391.69 142.995 392.51C143.535 393.33 143.945 394.46 144.225 395.9C144.505 397.34 144.645 399.18 144.645 401.42C144.645 403.4 144.465 405.1 144.105 406.52C143.765 407.94 143.255 409.1 142.575 410C141.915 410.9 141.105 411.57 140.145 412.01C139.185 412.43 138.085 412.64 136.845 412.64ZM136.725 400.79H142.275C142.275 399.13 142.185 397.76 142.005 396.68C141.825 395.58 141.555 394.73 141.195 394.13C140.855 393.51 140.425 393.08 139.905 392.84C139.405 392.58 138.825 392.45 138.165 392.45H135.585C135.005 392.45 134.465 392.54 133.965 392.72C133.485 392.88 133.095 393.18 132.795 393.62C132.515 394.04 132.375 394.66 132.375 395.48V397.82C132.375 398.66 132.545 399.29 132.885 399.71C133.245 400.13 133.745 400.42 134.385 400.58C135.025 400.72 135.805 400.79 136.725 400.79ZM154.516 412.55C153.456 412.55 152.506 412.37 151.666 412.01C150.846 411.63 150.196 411.06 149.716 410.3C149.256 409.52 149.026 408.52 149.026 407.3V395.6C149.026 394.42 149.256 393.44 149.716 392.66C150.196 391.86 150.846 391.26 151.666 390.86C152.506 390.44 153.456 390.23 154.516 390.23H158.806C160.046 390.23 161.056 390.46 161.836 390.92C162.616 391.36 163.186 391.98 163.546 392.78C163.926 393.58 164.116 394.52 164.116 395.6V407.3C164.116 409.12 163.626 410.45 162.646 411.29C161.686 412.13 160.406 412.55 158.806 412.55H154.516ZM154.966 410.42H158.266C159.486 410.42 160.366 410.12 160.906 409.52C161.446 408.9 161.716 408.06 161.716 407V395.78C161.716 394.64 161.426 393.79 160.846 393.23C160.286 392.67 159.456 392.39 158.356 392.39H154.906C153.826 392.39 152.976 392.69 152.356 393.29C151.736 393.87 151.426 394.7 151.426 395.78V407C151.426 408.14 151.736 409 152.356 409.58C152.996 410.14 153.866 410.42 154.966 410.42ZM174.174 412.55C173.114 412.55 172.164 412.37 171.324 412.01C170.504 411.63 169.854 411.06 169.374 410.3C168.914 409.52 168.684 408.52 168.684 407.3V395.6C168.684 394.42 168.914 393.44 169.374 392.66C169.854 391.86 170.504 391.26 171.324 390.86C172.164 390.44 173.114 390.23 174.174 390.23H178.464C179.704 390.23 180.714 390.46 181.494 390.92C182.274 391.36 182.844 391.98 183.204 392.78C183.584 393.58 183.774 394.52 183.774 395.6V407.3C183.774 409.12 183.284 410.45 182.304 411.29C181.344 412.13 180.064 412.55 178.464 412.55H174.174ZM174.624 410.42H177.924C179.144 410.42 180.024 410.12 180.564 409.52C181.104 408.9 181.374 408.06 181.374 407V395.78C181.374 394.64 181.084 393.79 180.504 393.23C179.944 392.67 179.114 392.39 178.014 392.39H174.564C173.484 392.39 172.634 392.69 172.014 393.29C171.394 393.87 171.084 394.7 171.084 395.78V407C171.084 408.14 171.394 409 172.014 409.58C172.654 410.14 173.524 410.42 174.624 410.42Z" fill="#5A97CB"/>
<path d="M714.882 390.68L714.522 389.6L715.572 387.77L715.932 388.79L714.882 390.68ZM714.522 415.16V412.31L715.932 412.34V415.16H714.522ZM715.092 412.67C714.652 412.67 714.122 412.65 713.502 412.61C712.902 412.59 712.282 412.55 711.642 412.49C711.002 412.45 710.392 412.4 709.812 412.34C709.252 412.28 708.782 412.21 708.402 412.13V410.3C708.902 410.34 709.512 410.38 710.232 410.42C710.952 410.46 711.722 410.49 712.542 410.51C713.382 410.53 714.202 410.54 715.002 410.54C715.902 410.54 716.712 410.45 717.432 410.27C718.152 410.09 718.722 409.76 719.142 409.28C719.582 408.8 719.802 408.11 719.802 407.21V405.71C719.802 404.69 719.542 403.92 719.022 403.4C718.502 402.86 717.662 402.59 716.502 402.59H714.132C712.312 402.59 710.882 402.19 709.842 401.39C708.822 400.59 708.312 399.21 708.312 397.25V395.99C708.312 393.91 708.872 392.43 709.992 391.55C711.112 390.67 712.692 390.23 714.732 390.23C715.372 390.23 716.092 390.27 716.892 390.35C717.692 390.41 718.462 390.49 719.202 390.59C719.962 390.67 720.592 390.76 721.092 390.86V392.69C720.212 392.61 719.212 392.54 718.092 392.48C716.992 392.42 715.952 392.39 714.972 392.39C714.072 392.39 713.292 392.5 712.632 392.72C711.972 392.92 711.462 393.29 711.102 393.83C710.762 394.35 710.592 395.1 710.592 396.08V397.1C710.592 398.32 710.912 399.16 711.552 399.62C712.192 400.08 713.082 400.31 714.222 400.31H716.772C717.992 400.31 718.992 400.53 719.772 400.97C720.552 401.41 721.132 402.02 721.512 402.8C721.892 403.56 722.082 404.44 722.082 405.44V407.15C722.082 408.63 721.762 409.77 721.122 410.57C720.502 411.37 719.662 411.92 718.602 412.22C717.562 412.52 716.392 412.67 715.092 412.67ZM734.093 412.67C732.513 412.67 731.033 412.63 729.653 412.55C728.293 412.49 727.103 412.4 726.083 412.28V410.45H733.313C734.173 410.45 734.943 410.36 735.623 410.18C736.303 410 736.833 409.67 737.213 409.19C737.613 408.69 737.813 407.99 737.813 407.09V405.62C737.813 404.84 737.613 404.22 737.213 403.76C736.833 403.3 736.353 402.97 735.773 402.77C735.193 402.57 734.593 402.46 733.973 402.44L728.303 402.23V400.49L733.883 400.25C734.963 400.21 735.833 399.98 736.493 399.56C737.173 399.12 737.513 398.39 737.513 397.37V395.9C737.513 394.8 737.143 393.96 736.403 393.38C735.683 392.78 734.593 392.48 733.133 392.48H726.833V390.65C727.753 390.53 728.803 390.43 729.983 390.35C731.183 390.27 732.523 390.23 734.003 390.23C735.323 390.25 736.413 390.48 737.273 390.92C738.153 391.34 738.803 391.94 739.223 392.72C739.643 393.48 739.853 394.38 739.853 395.42V397.31C739.853 397.99 739.743 398.58 739.523 399.08C739.323 399.56 739.053 399.96 738.713 400.28C738.393 400.6 738.043 400.85 737.663 401.03C737.303 401.19 736.973 401.3 736.673 401.36C737.013 401.44 737.383 401.59 737.783 401.81C738.183 402.01 738.563 402.29 738.923 402.65C739.303 403.01 739.613 403.46 739.853 404C740.093 404.54 740.213 405.18 740.213 405.92V407.45C740.213 409.15 739.673 410.45 738.593 411.35C737.533 412.23 736.033 412.67 734.093 412.67ZM745.042 414.83C744.842 414.83 744.662 414.81 744.502 414.77C744.362 414.75 744.292 414.74 744.292 414.74V413.99C744.512 413.99 744.672 413.95 744.772 413.87C744.872 413.81 744.922 413.68 744.922 413.48V412.34H744.682C744.562 412.34 744.452 412.3 744.352 412.22C744.252 412.14 744.202 412.02 744.202 411.86V409.7C744.202 409.34 744.362 409.16 744.682 409.16H745.972C746.172 409.16 746.302 409.21 746.362 409.31C746.422 409.41 746.452 409.54 746.452 409.7V413.36C746.452 413.76 746.372 414.07 746.212 414.29C746.072 414.51 745.892 414.65 745.672 414.71C745.472 414.79 745.262 414.83 745.042 414.83ZM756.845 412.64C756.005 412.64 755.075 412.6 754.055 412.52C753.035 412.46 752.135 412.39 751.355 412.31V410.48H756.815C758.535 410.48 759.875 409.83 760.835 408.53C761.795 407.21 762.275 405.21 762.275 402.53C761.675 402.61 761.005 402.68 760.265 402.74C759.545 402.78 758.825 402.81 758.105 402.83C757.385 402.83 756.745 402.83 756.185 402.83C754.845 402.83 753.715 402.68 752.795 402.38C751.895 402.08 751.205 401.59 750.725 400.91C750.265 400.23 750.035 399.33 750.035 398.21V395.12C750.035 393.94 750.265 393 750.725 392.3C751.185 391.6 751.795 391.09 752.555 390.77C753.335 390.45 754.195 390.29 755.135 390.29H758.555C759.495 390.29 760.335 390.46 761.075 390.8C761.835 391.12 762.475 391.69 762.995 392.51C763.535 393.33 763.945 394.46 764.225 395.9C764.505 397.34 764.645 399.18 764.645 401.42C764.645 403.4 764.465 405.1 764.105 406.52C763.765 407.94 763.255 409.1 762.575 410C761.915 410.9 761.105 411.57 760.145 412.01C759.185 412.43 758.085 412.64 756.845 412.64ZM756.725 400.79H762.275C762.275 399.13 762.185 397.76 762.005 396.68C761.825 395.58 761.555 394.73 761.195 394.13C760.855 393.51 760.425 393.08 759.905 392.84C759.405 392.58 758.825 392.45 758.165 392.45H755.585C755.005 392.45 754.465 392.54 753.965 392.72C753.485 392.88 753.095 393.18 752.795 393.62C752.515 394.04 752.375 394.66 752.375 395.48V397.82C752.375 398.66 752.545 399.29 752.885 399.71C753.245 400.13 753.745 400.42 754.385 400.58C755.025 400.72 755.805 400.79 756.725 400.79ZM774.516 412.55C773.456 412.55 772.506 412.37 771.666 412.01C770.846 411.63 770.196 411.06 769.716 410.3C769.256 409.52 769.026 408.52 769.026 407.3V395.6C769.026 394.42 769.256 393.44 769.716 392.66C770.196 391.86 770.846 391.26 771.666 390.86C772.506 390.44 773.456 390.23 774.516 390.23H778.806C780.046 390.23 781.056 390.46 781.836 390.92C782.616 391.36 783.186 391.98 783.546 392.78C783.926 393.58 784.116 394.52 784.116 395.6V407.3C784.116 409.12 783.626 410.45 782.646 411.29C781.686 412.13 780.406 412.55 778.806 412.55H774.516ZM774.966 410.42H778.266C779.486 410.42 780.366 410.12 780.906 409.52C781.446 408.9 781.716 408.06 781.716 407V395.78C781.716 394.64 781.426 393.79 780.846 393.23C780.286 392.67 779.456 392.39 778.356 392.39H774.906C773.826 392.39 772.976 392.69 772.356 393.29C771.736 393.87 771.426 394.7 771.426 395.78V407C771.426 408.14 771.736 409 772.356 409.58C772.996 410.14 773.866 410.42 774.966 410.42ZM794.174 412.55C793.114 412.55 792.164 412.37 791.324 412.01C790.504 411.63 789.854 411.06 789.374 410.3C788.914 409.52 788.684 408.52 788.684 407.3V395.6C788.684 394.42 788.914 393.44 789.374 392.66C789.854 391.86 790.504 391.26 791.324 390.86C792.164 390.44 793.114 390.23 794.174 390.23H798.464C799.704 390.23 800.714 390.46 801.494 390.92C802.274 391.36 802.844 391.98 803.204 392.78C803.584 393.58 803.774 394.52 803.774 395.6V407.3C803.774 409.12 803.284 410.45 802.304 411.29C801.344 412.13 800.064 412.55 798.464 412.55H794.174ZM794.624 410.42H797.924C799.144 410.42 800.024 410.12 800.564 409.52C801.104 408.9 801.374 408.06 801.374 407V395.78C801.374 394.64 801.084 393.79 800.504 393.23C799.944 392.67 799.114 392.39 798.014 392.39H794.564C793.484 392.39 792.634 392.69 792.014 393.29C791.394 393.87 791.084 394.7 791.084 395.78V407C791.084 408.14 791.394 409 792.014 409.58C792.654 410.14 793.524 410.42 794.624 410.42Z" fill="#5A97CB"/>
<path d="M116.631 224.38C116.241 224.75 115.851 225.13 115.461 225.49C113.071 227.69 110.681 229.88 108.291 232.08C108.241 232.13 108.201 232.18 108.121 232.26C109.991 233.09 111.831 233.91 113.751 234.76C107.501 237.41 101.331 240.02 95.1511 242.64C95.1411 242.63 95.1311 242.61 95.1211 242.6C98.2411 239.36 101.371 236.13 104.521 232.86L100.271 230.97C100.371 230.86 100.441 230.78 100.511 230.7C103.481 227.62 106.451 224.55 109.421 221.47C109.491 221.4 109.551 221.33 109.611 221.25C111.961 222.29 114.301 223.33 116.651 224.38H116.631Z" fill="white"/>
<path d="M139.091 225.629C138.881 226.129 138.691 226.629 138.471 227.119C137.181 230.099 135.881 233.069 134.591 236.049C134.561 236.109 134.541 236.179 134.511 236.279H140.671C136.031 241.239 131.451 246.129 126.881 251.029C126.861 251.029 126.851 251.009 126.831 250.999C128.371 246.769 129.911 242.549 131.461 238.289H126.801C126.841 238.149 126.871 238.039 126.911 237.939C128.371 233.919 129.841 229.909 131.301 225.889C131.331 225.799 131.361 225.709 131.381 225.619C133.951 225.619 136.511 225.619 139.081 225.619L139.091 225.629Z" fill="white"/>
<path d="M158.649 217.53C158.799 218.05 158.959 218.56 159.099 219.08C159.949 222.21 160.799 225.34 161.649 228.48C161.669 228.54 161.689 228.61 161.729 228.71L166.539 224.86C166.019 231.63 165.499 238.31 164.989 245C164.969 245 164.949 245 164.939 245C163.499 240.74 162.059 236.48 160.609 232.18L156.969 235.09C156.919 234.95 156.869 234.85 156.839 234.75C155.469 230.7 154.109 226.65 152.739 222.6C152.709 222.51 152.669 222.42 152.629 222.33C154.629 220.73 156.639 219.12 158.639 217.52L158.649 217.53Z" fill="white"/>
<path d="M167.559 204.94C168.069 205.12 168.579 205.3 169.079 205.48C172.119 206.62 175.149 207.77 178.189 208.92C178.249 208.94 178.319 208.96 178.429 208.99C178.329 206.95 178.229 204.93 178.129 202.84C183.309 207.23 188.419 211.56 193.539 215.9C193.539 215.92 193.519 215.93 193.509 215.95C189.209 214.62 184.919 213.29 180.589 211.95L180.819 216.6C180.679 216.56 180.569 216.54 180.469 216.51C176.389 215.24 172.299 213.98 168.219 212.71C168.129 212.68 168.039 212.66 167.939 212.64C167.809 210.08 167.689 207.51 167.559 204.95V204.94Z" fill="white"/>
<path d="M104.441 217.41C103.931 217.23 103.421 217.05 102.921 216.87C99.8809 215.73 96.8509 214.58 93.8109 213.43C93.7509 213.41 93.6809 213.39 93.5709 213.36L93.8709 219.51C88.6909 215.12 83.5809 210.79 78.4609 206.45C78.4609 206.43 78.4809 206.42 78.4909 206.4C82.7909 207.73 87.0809 209.06 91.4109 210.4L91.1809 205.75C91.3209 205.79 91.4309 205.81 91.5309 205.84C95.6109 207.11 99.7009 208.37 103.781 209.64C103.871 209.67 103.961 209.69 104.061 209.71C104.191 212.27 104.311 214.84 104.441 217.4V217.41Z" fill="white"/>
<path d="M152.571 198.92C152.961 198.55 153.351 198.17 153.741 197.81C156.131 195.61 158.521 193.42 160.911 191.22C160.961 191.17 161.001 191.12 161.081 191.04L155.451 188.54C161.701 185.89 167.871 183.28 174.051 180.66C174.061 180.67 174.071 180.69 174.081 180.7C170.961 183.94 167.831 187.17 164.681 190.44C166.101 191.07 167.501 191.69 168.931 192.33C168.831 192.44 168.761 192.52 168.691 192.6C165.721 195.68 162.751 198.75 159.781 201.83C159.711 201.9 159.651 201.97 159.591 202.05C157.241 201.01 154.901 199.97 152.551 198.92H152.571Z" fill="white"/>
<path d="M130.111 194.65C130.321 194.15 130.511 193.65 130.731 193.16C132.021 190.18 133.321 187.21 134.611 184.23C134.641 184.17 134.661 184.1 134.691 184H128.531C133.171 179.04 137.751 174.15 142.321 169.25C142.341 169.25 142.351 169.27 142.371 169.28C140.831 173.51 139.291 177.73 137.741 181.99H142.401C142.361 182.13 142.331 182.24 142.291 182.34C140.831 186.36 139.361 190.37 137.901 194.39C137.871 194.48 137.841 194.57 137.821 194.66C135.251 194.66 132.691 194.66 130.121 194.66L130.111 194.65Z" fill="white"/>
<path d="M110.55 202.749C110.4 202.229 110.24 201.719 110.1 201.199C109.25 198.069 108.4 194.939 107.55 191.799C107.53 191.739 107.51 191.669 107.47 191.569C105.87 192.849 104.3 194.109 102.66 195.419C103.18 188.649 103.7 181.969 104.21 175.279C104.23 175.279 104.25 175.279 104.26 175.279C105.7 179.539 107.14 183.799 108.59 188.099L112.23 185.189C112.28 185.329 112.33 185.429 112.36 185.529C113.73 189.579 115.09 193.629 116.46 197.679C116.49 197.769 116.53 197.859 116.57 197.949C114.57 199.549 112.56 201.159 110.56 202.759L110.55 202.749Z" fill="white"/>
<path d="M701.55 218.05C700.79 206.89 706.72 200.34 717.04 199.35C718.92 193.7 722.82 190.49 728.09 189.14C738.28 170 753.96 168.41 765.91 185.13C779.81 186.48 784.38 191.06 785.35 204.86C786.38 205.51 787.58 206.14 788.63 206.95C792.95 210.3 795.17 214.71 794.17 220.17C793.15 225.76 789.85 229.77 784.23 231.2C778.62 232.63 772.91 231.83 767.21 231.2C769.01 229.09 771.34 229.9 773.43 229.77C775.75 229.62 778.09 229.81 780.41 229.7C786.27 229.41 790.6 226 791.92 220.75C793.21 215.61 790.88 210.6 785.74 207.57C784.91 207.08 784.02 206.69 783.22 206.27C781.83 191.44 776.43 186.06 765.02 188.4C761.17 179.96 754.9 174.89 745.05 176.21C737.68 177.2 732.61 182.5 730.81 190.7C724.91 191.76 719.87 194.16 719.16 201.28C717.47 201.52 715.92 201.61 714.44 201.98C707.42 203.72 702.85 210.15 703.58 217.15C704.28 223.9 709.74 229.18 716.78 229.66C719.92 229.87 723.08 229.7 726.2 230.19C717.05 234.34 706.95 230.69 702.78 222.25C702.04 220.75 701.7 220.64 701.52 218.07L701.55 218.05Z" fill="white"/>
<path d="M749.561 210C752.091 212.84 753.601 215.7 754.811 218.71C755.901 221.43 754.941 223.63 752.691 225.29C750.561 226.86 748.341 226.77 746.281 225.16C744.071 223.43 743.261 221.19 744.401 218.5C745.611 215.65 747.051 212.93 749.561 210ZM749.601 214.25C747.651 215.92 746.881 217.86 746.251 219.82C745.711 221.49 746.521 222.82 747.981 223.7C749.051 224.34 750.191 224.32 751.241 223.65C752.671 222.73 753.421 221.4 752.871 219.72C752.281 217.9 751.511 216.13 749.601 214.26V214.25Z" fill="white"/>
<path d="M736.771 230.98C739.271 233.96 740.741 236.66 741.931 239.52C743.051 242.22 742.231 244.45 740.011 246.17C737.941 247.77 735.721 247.83 733.601 246.25C731.351 244.58 730.411 242.37 731.521 239.66C732.751 236.66 734.231 233.79 736.771 230.98ZM736.751 235.2C734.901 236.94 734.021 238.82 733.421 240.8C732.911 242.49 733.701 243.81 735.151 244.68C736.221 245.32 737.361 245.3 738.411 244.63C739.841 243.71 740.591 242.38 740.041 240.7C739.451 238.88 738.681 237.11 736.741 235.2H736.751Z" fill="white"/>
<path d="M760.038 235.6C762.438 238.44 763.778 240.99 765.008 243.61C766.348 246.48 765.788 248.89 763.348 250.8C761.288 252.42 759.058 252.5 756.938 250.92C754.458 249.08 753.718 246.72 755.018 243.8C756.268 241.01 757.718 238.36 760.038 235.59V235.6ZM759.848 240.05C758.198 241.66 757.428 243.42 756.788 245.21C756.198 246.86 756.828 248.23 758.248 249.21C759.498 250.07 760.788 250.01 761.988 249.12C763.378 248.09 763.958 246.65 763.278 245.07C762.538 243.37 762.078 241.42 759.848 240.06V240.05Z" fill="white"/>
<path d="M736.291 189.32C736.061 189.52 735.831 189.89 735.601 189.89C734.971 189.89 734.721 189.41 734.951 188.87C735.041 188.66 735.561 188.47 735.811 188.55C736.031 188.61 736.131 189.05 736.291 189.33V189.32Z" fill="white"/>
<path d="M739.531 191.429C739.761 191.229 739.991 190.859 740.221 190.859C740.851 190.859 741.101 191.339 740.871 191.879C740.781 192.089 740.261 192.279 740.011 192.199C739.791 192.139 739.691 191.699 739.531 191.419V191.429Z" fill="white"/>
<path d="M767.759 191.581C767.549 191.801 767.359 192.191 767.129 192.211C766.479 192.271 766.189 191.811 766.369 191.241C766.439 191.031 766.949 190.821 767.209 190.871C767.429 190.911 767.569 191.331 767.749 191.581H767.759Z" fill="white"/>
<path d="M744.45 195.081C744.24 195.301 744.05 195.691 743.82 195.711C743.17 195.771 742.88 195.311 743.06 194.741C743.13 194.531 743.64 194.321 743.9 194.371C744.12 194.411 744.26 194.831 744.44 195.081H744.45Z" fill="white"/>
<path d="M767.769 196.449C767.499 196.609 767.189 196.929 766.959 196.879C766.369 196.759 766.199 196.259 766.519 195.779C766.649 195.589 767.189 195.459 767.389 195.579C767.609 195.709 767.649 196.149 767.769 196.449Z" fill="white"/>
<path d="M724.031 198.99C724.231 199.22 724.601 199.45 724.601 199.68C724.601 200.31 724.121 200.56 723.581 200.33C723.371 200.24 723.181 199.72 723.261 199.47C723.321 199.25 723.761 199.15 724.041 198.99H724.031Z" fill="white"/>
<path d="M729.299 202.209C729.049 202.389 728.779 202.729 728.549 202.709C727.939 202.649 727.729 202.159 728.009 201.649C728.129 201.439 728.659 201.269 728.879 201.369C729.099 201.459 729.169 201.919 729.299 202.209Z" fill="white"/>
<path d="M732.799 205.709C732.549 205.889 732.279 206.229 732.049 206.209C731.439 206.149 731.229 205.659 731.509 205.149C731.629 204.939 732.159 204.769 732.379 204.869C732.599 204.959 732.669 205.419 732.799 205.709Z" fill="white"/>
<path d="M782.919 209.069C782.709 209.289 782.519 209.679 782.289 209.699C781.639 209.759 781.349 209.299 781.529 208.729C781.599 208.519 782.109 208.309 782.369 208.359C782.589 208.399 782.729 208.819 782.909 209.069H782.919Z" fill="white"/>
<path d="M779.921 211.811C780.141 212.021 780.531 212.211 780.551 212.441C780.611 213.091 780.151 213.381 779.581 213.201C779.371 213.131 779.161 212.621 779.211 212.361C779.251 212.141 779.671 212.001 779.921 211.821V211.811Z" fill="white"/>
<defs>
<linearGradient id="paint0_linear_164_2" x1="89.0989" y1="250" x2="252.399" y2="250" gradientUnits="userSpaceOnUse">
<stop stop-color="#8188C0"/>
<stop offset="1" stop-color="#23527A"/>
</linearGradient>
<linearGradient id="paint1_linear_164_2" x1="393.099" y1="0.000316468" x2="556.399" y2="0.000316468" gradientUnits="userSpaceOnUse">
<stop stop-color="#8188C0"/>
<stop offset="1" stop-color="#23527A"/>
</linearGradient>
<linearGradient id="paint2_linear_164_2" x1="704.099" y1="0.000316468" x2="867.399" y2="0.000316468" gradientUnits="userSpaceOnUse">
<stop stop-color="#8188C0"/>
<stop offset="1" stop-color="#23527A"/>
</linearGradient>
<linearGradient id="paint3_linear_164_2" x1="62.0989" y1="238" x2="225.399" y2="238" gradientUnits="userSpaceOnUse">
<stop stop-color="#8188C0"/>
<stop offset="1" stop-color="#23527A"/>
</linearGradient>
<linearGradient id="paint4_linear_164_2" x1="367.392" y1="238" x2="530.692" y2="238" gradientUnits="userSpaceOnUse">
<stop stop-color="#8188C0"/>
<stop offset="1" stop-color="#23527A"/>
</linearGradient>
<linearGradient id="paint5_linear_164_2" x1="676.681" y1="238" x2="839.981" y2="238" gradientUnits="userSpaceOnUse">
<stop stop-color="#8188C0"/>
<stop offset="1" stop-color="#23527A"/>
</linearGradient>
</defs>
</svg>
