<svg width="375" height="397" viewBox="0 0 375 397" fill="none" xmlns="http://www.w3.org/2000/svg">
<g clip-path="url(#clip0_204_1506)">
<path d="M51.3604 24.73H161.54L172.25 39.11" stroke="#4F4E4E" stroke-miterlimit="10"/>
<path d="M56.6419 9.46588L56.5819 8.52988L57.5299 8.24188L57.5899 9.17788L56.6419 9.46588ZM56.5819 19.1979V18.0099L57.5899 18.0219V19.1979H56.5819ZM57.0739 18.2019C56.8419 18.2019 56.6019 18.1939 56.3539 18.1779C56.1139 18.1699 55.8659 18.1539 55.6099 18.1299C55.3619 18.0979 55.1259 18.0659 54.9019 18.0339C54.6779 17.9939 54.4739 17.9499 54.2899 17.9019V16.4979C54.5299 16.5219 54.8019 16.5419 55.1059 16.5579C55.4099 16.5739 55.7259 16.5859 56.0539 16.5939C56.3819 16.6019 56.6939 16.6059 56.9899 16.6059C57.2939 16.6059 57.5539 16.5819 57.7699 16.5339C57.9939 16.4779 58.1659 16.3859 58.2859 16.2579C58.4059 16.1219 58.4659 15.9379 58.4659 15.7059V15.3819C58.4659 15.1179 58.3859 14.9179 58.2259 14.7819C58.0739 14.6379 57.8539 14.5659 57.5659 14.5659H56.8099C55.9619 14.5659 55.3099 14.3819 54.8539 14.0139C54.4059 13.6379 54.1819 13.0019 54.1819 12.1059V11.6739C54.1819 10.8099 54.4299 10.1779 54.9259 9.77788C55.4219 9.37788 56.1299 9.17788 57.0499 9.17788C57.3779 9.17788 57.7019 9.19388 58.0219 9.22588C58.3499 9.25788 58.6619 9.29788 58.9579 9.34588C59.2619 9.38588 59.5219 9.42988 59.7379 9.47788V10.8819C59.3699 10.8579 58.9579 10.8339 58.5019 10.8099C58.0539 10.7859 57.6379 10.7739 57.2539 10.7739C56.9819 10.7739 56.7379 10.8019 56.5219 10.8579C56.3139 10.9059 56.1539 11.0019 56.0419 11.1459C55.9299 11.2899 55.8739 11.4939 55.8739 11.7579V11.9979C55.8739 12.3099 55.9619 12.5339 56.1379 12.6699C56.3139 12.8059 56.5739 12.8739 56.9179 12.8739H57.7939C58.3299 12.8739 58.7699 12.9739 59.1139 13.1739C59.4659 13.3659 59.7259 13.6339 59.8939 13.9779C60.0699 14.3219 60.1579 14.7139 60.1579 15.1539V15.6579C60.1579 16.3539 60.0259 16.8859 59.7619 17.2539C59.5059 17.6219 59.1459 17.8739 58.6819 18.0099C58.2259 18.1379 57.6899 18.2019 57.0739 18.2019ZM62.8864 18.1299V10.8699L61.3144 11.0739V9.93388L63.0784 9.16588H64.6624V18.1299H62.8864ZM66.2952 18.1419C66.1352 18.1419 66.0552 18.0619 66.0552 17.9019V16.6779C66.0552 16.5099 66.1352 16.4259 66.2952 16.4259H67.3272C67.5032 16.4259 67.5912 16.5099 67.5912 16.6779V17.9019C67.5912 17.9979 67.5632 18.0619 67.5072 18.0939C67.4592 18.1259 67.3992 18.1419 67.3272 18.1419H66.2952ZM68.7717 18.1299V16.7019L71.7357 13.7619C71.9757 13.5299 72.1717 13.3139 72.3237 13.1139C72.4757 12.9139 72.5877 12.7179 72.6597 12.5259C72.7397 12.3259 72.7797 12.1139 72.7797 11.8899C72.7797 11.6739 72.7357 11.4899 72.6477 11.3379C72.5677 11.1779 72.4317 11.0579 72.2397 10.9779C72.0557 10.8979 71.7997 10.8579 71.4717 10.8579H68.9757V9.46588C69.3597 9.39388 69.7837 9.32988 70.2477 9.27388C70.7197 9.20988 71.2437 9.17788 71.8197 9.17788C72.5157 9.17788 73.0597 9.27388 73.4517 9.46588C73.8517 9.65788 74.1357 9.93388 74.3037 10.2939C74.4717 10.6539 74.5557 11.0899 74.5557 11.6019C74.5557 12.0019 74.4997 12.3659 74.3877 12.6939C74.2837 13.0219 74.1277 13.3379 73.9197 13.6419C73.7117 13.9379 73.4477 14.2379 73.1277 14.5419L71.1357 16.5219H74.8317V18.1299H68.7717ZM81.2127 20.6499C80.8207 20.1539 80.4607 19.6019 80.1327 18.9939C79.8047 18.3939 79.5407 17.7019 79.3407 16.9179C79.1407 16.1339 79.0407 15.2339 79.0407 14.2179C79.0407 13.2419 79.1447 12.3659 79.3527 11.5899C79.5607 10.8059 79.8287 10.1019 80.1567 9.47788C80.4847 8.84588 80.8367 8.28988 81.2127 7.80988H82.7967C82.4527 8.37788 82.1287 8.98988 81.8247 9.64588C81.5287 10.3019 81.2847 11.0099 81.0927 11.7699C80.9087 12.5219 80.8167 13.3379 80.8167 14.2179C80.8167 15.0899 80.8967 15.8859 81.0567 16.6059C81.2247 17.3259 81.4567 18.0099 81.7527 18.6579C82.0487 19.3139 82.3967 19.9779 82.7967 20.6499H81.2127ZM83.5374 18.1299V16.7019L86.5014 13.7619C86.7414 13.5299 86.9374 13.3139 87.0894 13.1139C87.2414 12.9139 87.3534 12.7179 87.4254 12.5259C87.5054 12.3259 87.5454 12.1139 87.5454 11.8899C87.5454 11.6739 87.5014 11.4899 87.4134 11.3379C87.3334 11.1779 87.1974 11.0579 87.0054 10.9779C86.8214 10.8979 86.5654 10.8579 86.2374 10.8579H83.7414V9.46588C84.1254 9.39388 84.5494 9.32988 85.0134 9.27388C85.4854 9.20988 86.0094 9.17788 86.5854 9.17788C87.2814 9.17788 87.8254 9.27388 88.2174 9.46588C88.6174 9.65788 88.9014 9.93388 89.0694 10.2939C89.2374 10.6539 89.3214 11.0899 89.3214 11.6019C89.3214 12.0019 89.2654 12.3659 89.1534 12.6939C89.0494 13.0219 88.8934 13.3379 88.6854 13.6419C88.4774 13.9379 88.2134 14.2379 87.8934 14.5419L85.9014 16.5219H89.5974V18.1299H83.5374ZM90.9046 18.1419C90.7446 18.1419 90.6646 18.0619 90.6646 17.9019V16.6779C90.6646 16.5099 90.7446 16.4259 90.9046 16.4259H91.9366C92.1126 16.4259 92.2006 16.5099 92.2006 16.6779V17.9019C92.2006 17.9979 92.1726 18.0619 92.1166 18.0939C92.0686 18.1259 92.0086 18.1419 91.9366 18.1419H90.9046ZM96.1771 18.1899C95.7851 18.1899 95.3891 18.1739 94.9891 18.1419C94.5971 18.1099 94.2411 18.0619 93.9211 17.9979V16.5939H96.0091C96.6091 16.5939 97.0491 16.4099 97.3291 16.0419C97.6091 15.6659 97.7491 15.1139 97.7491 14.3859C97.5731 14.4419 97.3771 14.4859 97.1611 14.5179C96.9531 14.5499 96.7331 14.5699 96.5011 14.5779C96.2691 14.5859 96.0171 14.5899 95.7451 14.5899C95.1611 14.5899 94.6971 14.5099 94.3531 14.3499C94.0091 14.1819 93.7611 13.9459 93.6091 13.6419C93.4651 13.3379 93.3931 12.9739 93.3931 12.5499V11.2779C93.3931 10.7819 93.4851 10.3819 93.6691 10.0779C93.8531 9.76588 94.1091 9.54188 94.4371 9.40588C94.7731 9.26188 95.1571 9.18988 95.5891 9.18988H96.8731C97.3051 9.18988 97.6851 9.25788 98.0131 9.39388C98.3491 9.52188 98.6291 9.74588 98.8531 10.0659C99.0771 10.3859 99.2451 10.8339 99.3571 11.4099C99.4771 11.9779 99.5371 12.6979 99.5371 13.5699C99.5371 14.4339 99.4611 15.1659 99.3091 15.7659C99.1571 16.3579 98.9371 16.8339 98.6491 17.1939C98.3611 17.5459 98.0091 17.8019 97.5931 17.9619C97.1771 18.1139 96.7051 18.1899 96.1771 18.1899ZM96.2491 13.0779H97.7491C97.7491 12.6219 97.7251 12.2459 97.6771 11.9499C97.6291 11.6539 97.5531 11.4219 97.4491 11.2539C97.3531 11.0779 97.2291 10.9579 97.0771 10.8939C96.9251 10.8219 96.7411 10.7859 96.5251 10.7859H95.9851C95.8171 10.7859 95.6691 10.8139 95.5411 10.8699C95.4211 10.9259 95.3291 11.0139 95.2651 11.1339C95.2011 11.2539 95.1691 11.4219 95.1691 11.6379V12.2139C95.1691 12.4459 95.2051 12.6259 95.2771 12.7539C95.3571 12.8739 95.4771 12.9579 95.6371 13.0059C95.7971 13.0539 96.0011 13.0779 96.2491 13.0779ZM102.578 18.1299L107.978 9.34588H109.13L103.802 18.1299H102.578ZM102.122 13.9419C101.538 13.9419 101.122 13.8059 100.874 13.5339C100.634 13.2619 100.514 12.8699 100.514 12.3579V10.9299C100.514 10.4179 100.634 10.0259 100.874 9.75388C101.114 9.48188 101.538 9.34588 102.146 9.34588H103.358C103.95 9.34588 104.366 9.48188 104.606 9.75388C104.846 10.0259 104.966 10.4179 104.966 10.9299V12.3579C104.966 12.8699 104.846 13.2619 104.606 13.5339C104.366 13.8059 103.942 13.9419 103.334 13.9419H102.122ZM102.338 12.7899H103.118C103.39 12.7899 103.574 12.7339 103.67 12.6219C103.774 12.5019 103.826 12.3259 103.826 12.0939V11.1939C103.826 10.9219 103.774 10.7379 103.67 10.6419C103.566 10.5459 103.39 10.4979 103.142 10.4979H102.362C102.146 10.4979 101.974 10.5419 101.846 10.6299C101.726 10.7099 101.666 10.8979 101.666 11.1939V12.0939C101.666 12.3259 101.71 12.5019 101.798 12.6219C101.894 12.7339 102.074 12.7899 102.338 12.7899ZM108.446 18.0939C107.862 18.0939 107.45 17.9579 107.21 17.6859C106.97 17.4139 106.85 17.0219 106.85 16.5099V15.0819C106.85 14.5699 106.966 14.1779 107.198 13.9059C107.438 13.6339 107.862 13.4979 108.47 13.4979H109.694C110.286 13.4979 110.702 13.6339 110.942 13.9059C111.182 14.1779 111.302 14.5699 111.302 15.0819V16.5099C111.302 17.0219 111.182 17.4139 110.942 17.6859C110.702 17.9579 110.278 18.0939 109.67 18.0939H108.446ZM108.674 16.9419H109.442C109.722 16.9419 109.91 16.8859 110.006 16.7739C110.11 16.6539 110.162 16.4779 110.162 16.2459V15.3459C110.162 15.0739 110.106 14.8899 109.994 14.7939C109.89 14.6979 109.714 14.6499 109.466 14.6499H108.698C108.482 14.6499 108.31 14.6939 108.182 14.7819C108.054 14.8619 107.99 15.0499 107.99 15.3459V16.2459C107.99 16.4779 108.034 16.6539 108.122 16.7739C108.218 16.8859 108.402 16.9419 108.674 16.9419ZM111.865 20.6499C112.225 20.0659 112.553 19.4459 112.849 18.7899C113.153 18.1419 113.393 17.4419 113.569 16.6899C113.753 15.9379 113.845 15.1179 113.845 14.2299C113.845 13.3579 113.765 12.5659 113.605 11.8539C113.453 11.1419 113.229 10.4579 112.933 9.80188C112.637 9.14588 112.281 8.48188 111.865 7.80988H113.461C113.861 8.30588 114.225 8.85788 114.553 9.46588C114.881 10.0739 115.141 10.7659 115.333 11.5419C115.533 12.3179 115.633 13.2139 115.633 14.2299C115.633 15.2059 115.529 16.0859 115.321 16.8699C115.121 17.6459 114.857 18.3419 114.529 18.9579C114.201 19.5819 113.845 20.1459 113.461 20.6499H111.865Z" fill="#4F4E4E"/>
<g filter="url(#filter0_d_204_1506)">
<path d="M189.299 204.3L156.939 37.84C167.599 35.77 178.429 34.72 189.299 34.72V204.29V204.3Z" fill="#5FFFD1"/>
<path d="M189.3 204.3L80.2998 74.4001C103.26 55.1401 127.53 43.5601 156.94 37.8401L189.3 204.3Z" fill="#62C4C4"/>
<path d="M189.3 204.3L19.96 195.43C22.53 146.42 42.71 105.95 80.3 74.3999L189.3 204.3Z" fill="#3D91BE"/>
<path d="M189.3 204.3L38.2098 281.28C24.0898 253.58 18.3298 226.47 19.9598 195.42L189.3 204.29V204.3Z" fill="#24448E"/>
<path d="M189.25 203.73L358.18 188.95C366.34 282.25 297.33 364.49 204.03 372.66C133.03 378.87 70.5202 344.22 38.1602 280.72L189.25 203.74V203.73Z" fill="#162065"/>
<path d="M189.3 204.3V34.73C277.71 34.73 350.52 101.45 358.23 189.52L189.3 204.3Z" fill="#01072D"/>
</g>
<path d="M275.14 108.59C275.53 108.99 275.72 109.53 275.72 110.19V110.75C275.72 111.6 275.5 112.2 275.07 112.56C274.64 112.92 274.01 113.12 273.2 113.17V114.18H272.35V113.17C271.94 113.15 271.52 113.12 271.08 113.08C270.64 113.04 270.28 112.98 269.99 112.92V111.76C270.71 111.82 271.6 111.86 272.67 111.86C273.21 111.86 273.61 111.78 273.89 111.63C274.17 111.48 274.3 111.2 274.3 110.8V110.38C274.3 110.07 274.21 109.83 274.04 109.66C273.87 109.49 273.6 109.41 273.26 109.41H272.43C271.59 109.41 270.96 109.23 270.54 108.86C270.12 108.49 269.91 107.9 269.91 107.07V106.61C269.91 105.82 270.12 105.23 270.54 104.83C270.96 104.44 271.58 104.22 272.41 104.18L272.35 103.68L273.11 103.22L273.21 103.96L272.84 104.18C273.24 104.18 273.66 104.22 274.11 104.27C274.56 104.32 274.96 104.38 275.31 104.46V105.62C274.23 105.55 273.41 105.51 272.85 105.51C272.35 105.51 271.97 105.59 271.72 105.76C271.47 105.93 271.34 106.23 271.34 106.67V106.97C271.34 107.33 271.44 107.59 271.63 107.75C271.83 107.91 272.12 107.99 272.52 107.99H273.44C274.18 107.99 274.75 108.19 275.14 108.6V108.59Z" fill="white"/>
<path d="M278.699 105.59L277.029 105.89V104.94L278.849 104.16H280.179V113.1H278.689V105.59H278.699Z" fill="white"/>
<path d="M282.379 112.58C281.979 112.2 281.779 111.65 281.779 110.92V106.47C281.779 105.73 281.979 105.17 282.389 104.77C282.799 104.37 283.359 104.18 284.069 104.18H285.879C286.609 104.18 287.159 104.38 287.519 104.78C287.889 105.18 288.069 105.74 288.069 106.47V110.92C288.069 111.65 287.879 112.2 287.489 112.58C287.099 112.96 286.559 113.15 285.859 113.15H284.049C283.329 113.15 282.769 112.96 282.369 112.58H282.379ZM285.489 111.81C286.229 111.81 286.609 111.44 286.609 110.71V106.62C286.609 105.88 286.259 105.52 285.549 105.52H284.359C284.009 105.52 283.739 105.61 283.549 105.8C283.359 105.99 283.269 106.26 283.269 106.62V110.71C283.269 111.08 283.369 111.35 283.559 111.54C283.759 111.72 284.039 111.82 284.409 111.82H285.489V111.81Z" fill="white"/>
<path d="M289.59 113.06C289.59 113.06 289.52 112.97 289.52 112.9V111.76C289.52 111.61 289.6 111.53 289.75 111.53H290.6C290.75 111.53 290.83 111.61 290.83 111.76V112.9C290.83 113.04 290.75 113.12 290.6 113.12H289.75C289.69 113.12 289.63 113.1 289.59 113.06Z" fill="white"/>
<path d="M292.75 105.59L291.08 105.89V104.94L292.9 104.16H294.23V113.1H292.74V105.59H292.75Z" fill="white"/>
<path d="M261.28 127.14C260.91 126.13 260.72 124.95 260.72 123.59C260.72 122.23 260.91 121.14 261.3 120.1C261.68 119.06 262.2 118.09 262.85 117.18H264.19C263.57 118.21 263.09 119.24 262.74 120.27C262.39 121.3 262.21 122.4 262.21 123.59C262.21 124.78 262.37 125.88 262.7 126.87C263.03 127.85 263.52 128.91 264.19 130.03H262.85C262.18 129.12 261.66 128.16 261.28 127.14Z" fill="white"/>
<path d="M264.989 126.3L268.059 123.29C268.469 122.9 268.759 122.54 268.939 122.22C269.119 121.9 269.209 121.55 269.209 121.16C269.209 120.77 269.099 120.48 268.869 120.28C268.639 120.08 268.249 119.97 267.689 119.97H265.229V118.81C265.749 118.74 266.219 118.68 266.639 118.64C267.059 118.6 267.509 118.57 267.989 118.57C268.969 118.57 269.669 118.77 270.079 119.17C270.489 119.57 270.699 120.16 270.699 120.93C270.699 121.51 270.579 122.04 270.349 122.5C270.119 122.96 269.739 123.45 269.219 123.96L266.979 126.16H270.999V127.5H264.999V126.3H264.989Z" fill="white"/>
<path d="M271.949 127.36V126.17H274.729C275.259 126.17 275.649 126.1 275.899 125.95C276.149 125.81 276.279 125.54 276.279 125.16V124.72C276.279 124.38 276.159 124.12 275.919 123.96C275.679 123.8 275.369 123.71 274.979 123.7L272.769 123.6V122.47L274.919 122.36C275.329 122.34 275.639 122.27 275.849 122.13C276.059 121.99 276.169 121.77 276.169 121.46V121.05C276.169 120.68 276.049 120.41 275.799 120.23C275.549 120.05 275.169 119.97 274.649 119.97H272.169V118.78C273.309 118.62 274.329 118.55 275.239 118.56C276.019 118.56 276.609 118.76 277.019 119.12C277.429 119.49 277.639 120.02 277.639 120.7V121.38C277.639 121.84 277.529 122.2 277.299 122.47C277.079 122.74 276.799 122.92 276.459 123.02C276.799 123.12 277.109 123.33 277.369 123.66C277.629 123.99 277.769 124.4 277.769 124.9V125.42C277.769 126.11 277.549 126.64 277.109 127.01C276.669 127.38 276.049 127.57 275.259 127.57C274.009 127.57 272.899 127.5 271.939 127.35L271.949 127.36Z" fill="white"/>
<path d="M279.19 127.45C279.19 127.45 279.12 127.36 279.12 127.29V126.15C279.12 126 279.2 125.92 279.35 125.92H280.2C280.35 125.92 280.43 126 280.43 126.15V127.29C280.43 127.43 280.35 127.51 280.2 127.51H279.35C279.29 127.51 279.23 127.49 279.19 127.45Z" fill="white"/>
<path d="M282.95 127.17C282.58 126.91 282.29 126.47 282.1 125.83C281.9 125.19 281.81 124.3 281.81 123.15C281.81 121.53 282.09 120.36 282.64 119.65C283.19 118.94 284.01 118.58 285.09 118.58C285.92 118.58 286.67 118.64 287.32 118.75V119.91H285.2C283.94 119.91 283.3 120.76 283.3 122.47C283.81 122.35 284.53 122.29 285.46 122.29C286.29 122.29 286.9 122.45 287.28 122.78C287.66 123.11 287.85 123.6 287.85 124.26V125.52C287.85 126.22 287.66 126.74 287.27 127.07C286.89 127.4 286.37 127.56 285.71 127.56H284.39C283.81 127.56 283.33 127.43 282.96 127.18L282.95 127.17ZM285.38 126.22C285.69 126.22 285.93 126.14 286.11 125.99C286.28 125.84 286.37 125.59 286.37 125.23V124.52C286.37 124.14 286.27 123.88 286.06 123.74C285.86 123.6 285.52 123.54 285.06 123.54H283.3C283.3 124.24 283.35 124.78 283.45 125.17C283.55 125.56 283.7 125.83 283.9 125.99C284.1 126.15 284.36 126.22 284.68 126.22H285.39H285.38Z" fill="white"/>
<path d="M289.28 122.92C289.04 122.66 288.91 122.27 288.91 121.74V120.29C288.91 119.75 289.03 119.36 289.28 119.1C289.52 118.84 289.94 118.72 290.52 118.72H291.73C292.3 118.72 292.71 118.85 292.95 119.11C293.2 119.37 293.32 119.76 293.32 120.29V121.74C293.32 122.27 293.2 122.66 292.95 122.92C292.7 123.18 292.29 123.31 291.7 123.31H290.49C289.92 123.31 289.52 123.18 289.27 122.92H289.28ZM291.54 122.35C291.85 122.35 292.07 122.29 292.19 122.16C292.31 122.03 292.37 121.82 292.37 121.52V120.49C292.37 120.19 292.31 119.97 292.2 119.85C292.08 119.73 291.87 119.67 291.57 119.67H290.71C290.42 119.67 290.21 119.73 290.08 119.84C289.95 119.95 289.88 120.17 289.88 120.49V121.52C289.88 121.82 289.94 122.03 290.05 122.16C290.17 122.29 290.38 122.35 290.68 122.35H291.54ZM296.38 118.71H297.36L292.03 127.49H291.01L296.37 118.71H296.38ZM295.51 127.07C295.27 126.81 295.14 126.42 295.14 125.89V124.44C295.14 123.9 295.26 123.51 295.51 123.25C295.75 122.99 296.17 122.87 296.75 122.87H297.97C298.54 122.87 298.95 123 299.19 123.26C299.43 123.52 299.56 123.91 299.56 124.44V125.89C299.56 126.42 299.44 126.81 299.19 127.07C298.94 127.33 298.53 127.46 297.94 127.46H296.72C296.15 127.46 295.75 127.33 295.5 127.07H295.51ZM297.76 126.5C298.07 126.5 298.29 126.44 298.42 126.31C298.55 126.18 298.61 125.97 298.61 125.67V124.64C298.61 124.34 298.55 124.12 298.42 124C298.3 123.88 298.08 123.82 297.78 123.82H296.93C296.64 123.82 296.43 123.88 296.3 123.99C296.17 124.1 296.1 124.32 296.1 124.64V125.67C296.1 125.97 296.16 126.18 296.27 126.31C296.39 126.44 296.6 126.5 296.9 126.5H297.75H297.76Z" fill="white"/>
<path d="M301.67 126.93C302.01 125.91 302.19 124.8 302.19 123.6C302.19 122.4 302.03 121.3 301.71 120.32C301.39 119.34 300.89 118.3 300.22 117.18H301.55C302.23 118.09 302.75 119.05 303.12 120.06C303.49 121.07 303.67 122.25 303.67 123.6C303.67 124.95 303.48 126.07 303.11 127.1C302.73 128.13 302.21 129.1 301.55 130.02H300.22C300.84 128.98 301.33 127.95 301.67 126.93Z" fill="white"/>
<path d="M209.389 312.59C209.779 312.99 209.969 313.53 209.969 314.19V314.75C209.969 315.6 209.749 316.2 209.319 316.56C208.889 316.92 208.259 317.12 207.449 317.17V318.18H206.599V317.17C206.189 317.15 205.769 317.12 205.329 317.08C204.889 317.04 204.529 316.98 204.239 316.92V315.76C204.959 315.82 205.849 315.86 206.919 315.86C207.459 315.86 207.859 315.78 208.139 315.63C208.419 315.48 208.549 315.2 208.549 314.8V314.38C208.549 314.07 208.459 313.83 208.289 313.66C208.119 313.49 207.849 313.41 207.509 313.41H206.679C205.839 313.41 205.209 313.23 204.789 312.86C204.369 312.49 204.159 311.9 204.159 311.07V310.61C204.159 309.82 204.369 309.23 204.789 308.83C205.209 308.44 205.829 308.22 206.659 308.18L206.599 307.68L207.359 307.22L207.459 307.96L207.089 308.18C207.489 308.18 207.909 308.22 208.359 308.27C208.809 308.32 209.209 308.38 209.559 308.46V309.62C208.479 309.55 207.659 309.51 207.099 309.51C206.599 309.51 206.219 309.59 205.969 309.76C205.719 309.93 205.589 310.23 205.589 310.67V310.97C205.589 311.33 205.689 311.59 205.879 311.75C206.079 311.91 206.369 311.99 206.769 311.99H207.689C208.429 311.99 208.999 312.19 209.389 312.6V312.59Z" fill="white"/>
<path d="M212.949 309.6L211.279 309.9V308.95L213.099 308.17H214.429V317.11H212.939V309.6H212.949Z" fill="white"/>
<path d="M216.079 315.29V314.05C216.079 313.69 216.179 313.38 216.379 313.11C216.579 312.84 216.829 312.68 217.119 312.61C216.779 312.44 216.549 312.23 216.429 311.98C216.309 311.73 216.259 311.42 216.259 311.05V310.03C216.259 309.4 216.449 308.93 216.819 308.63C217.189 308.33 217.679 308.18 218.289 308.18H219.959C220.559 308.18 221.039 308.33 221.389 308.62C221.749 308.92 221.919 309.38 221.919 310.02V311.04C221.919 311.33 221.849 311.62 221.709 311.92C221.569 312.22 221.359 312.4 221.089 312.46C221.439 312.54 221.699 312.73 221.849 313.02C222.009 313.32 222.079 313.64 222.079 313.99V315.27C222.079 315.95 221.889 316.43 221.519 316.72C221.149 317.01 220.629 317.15 219.969 317.15H218.349C216.829 317.15 216.069 316.53 216.069 315.28L216.079 315.29ZM219.639 315.89C219.989 315.89 220.239 315.82 220.379 315.68C220.519 315.54 220.599 315.32 220.599 315.03V314.13C220.599 313.82 220.519 313.59 220.369 313.45C220.209 313.31 219.959 313.23 219.619 313.23H218.599C218.339 313.23 218.099 313.31 217.889 313.46C217.679 313.61 217.569 313.84 217.569 314.13V315.03C217.569 315.33 217.659 315.55 217.829 315.69C218.009 315.83 218.259 315.89 218.599 315.89H219.639ZM219.599 311.95C220.179 311.95 220.459 311.65 220.459 311.04V310.38C220.459 310.03 220.389 309.78 220.259 309.65C220.129 309.52 219.919 309.45 219.639 309.45H218.599C218.279 309.45 218.049 309.52 217.919 309.66C217.779 309.8 217.719 310.04 217.719 310.39V311.05C217.719 311.36 217.789 311.59 217.929 311.74C218.069 311.89 218.299 311.96 218.609 311.96H219.619L219.599 311.95Z" fill="white"/>
<path d="M223.639 317.06C223.639 317.06 223.569 316.97 223.569 316.9V315.76C223.569 315.61 223.649 315.53 223.799 315.53H224.649C224.799 315.53 224.879 315.61 224.879 315.76V316.9C224.879 317.04 224.799 317.12 224.649 317.12H223.799C223.739 317.12 223.679 317.1 223.639 317.06Z" fill="white"/>
<path d="M226.34 315.29V314.05C226.34 313.69 226.44 313.38 226.64 313.11C226.84 312.84 227.09 312.68 227.38 312.61C227.04 312.44 226.81 312.23 226.69 311.98C226.57 311.73 226.52 311.42 226.52 311.05V310.03C226.52 309.4 226.71 308.93 227.08 308.63C227.45 308.33 227.94 308.18 228.55 308.18H230.22C230.82 308.18 231.3 308.33 231.65 308.62C232.01 308.92 232.18 309.38 232.18 310.02V311.04C232.18 311.33 232.11 311.62 231.97 311.92C231.83 312.22 231.62 312.4 231.35 312.46C231.7 312.54 231.96 312.73 232.11 313.02C232.27 313.32 232.34 313.64 232.34 313.99V315.27C232.34 315.95 232.15 316.43 231.78 316.72C231.41 317.01 230.89 317.15 230.23 317.15H228.61C227.09 317.15 226.33 316.53 226.33 315.28L226.34 315.29ZM229.9 315.89C230.25 315.89 230.5 315.82 230.64 315.68C230.78 315.54 230.86 315.32 230.86 315.03V314.13C230.86 313.82 230.78 313.59 230.63 313.45C230.47 313.31 230.22 313.23 229.88 313.23H228.86C228.6 313.23 228.36 313.31 228.15 313.46C227.94 313.61 227.83 313.84 227.83 314.13V315.03C227.83 315.33 227.92 315.55 228.09 315.69C228.27 315.83 228.52 315.89 228.86 315.89H229.9ZM229.86 311.95C230.44 311.95 230.72 311.65 230.72 311.04V310.38C230.72 310.03 230.65 309.78 230.52 309.65C230.39 309.52 230.18 309.45 229.9 309.45H228.86C228.54 309.45 228.31 309.52 228.18 309.66C228.04 309.8 227.98 310.04 227.98 310.39V311.05C227.98 311.36 228.05 311.59 228.19 311.74C228.33 311.89 228.56 311.96 228.87 311.96H229.88L229.86 311.95Z" fill="white"/>
<path d="M196.91 331.14C196.54 330.13 196.35 328.95 196.35 327.59C196.35 326.23 196.54 325.14 196.93 324.1C197.31 323.06 197.83 322.09 198.48 321.18H199.82C199.2 322.21 198.72 323.24 198.37 324.27C198.02 325.3 197.84 326.4 197.84 327.59C197.84 328.78 198 329.88 198.33 330.87C198.66 331.85 199.15 332.91 199.82 334.03H198.48C197.81 333.12 197.29 332.16 196.91 331.14Z" fill="white"/>
<path d="M204.609 329.49H200.609L200.319 328.76L203.359 322.65H204.879L202.069 328.23H204.599V326.27L204.899 325.32H206.079V328.22H207.099V329.24L206.079 329.48V331.48H204.599V329.48L204.609 329.49Z" fill="white"/>
<path d="M211.92 329.49H207.92L207.63 328.76L210.67 322.65H212.19L209.38 328.23H211.91V326.27L212.21 325.32H213.39V328.22H214.41V329.24L213.39 329.48V331.48H211.91V329.48L211.92 329.49Z" fill="white"/>
<path d="M215.42 331.46C215.42 331.46 215.35 331.37 215.35 331.3V330.16C215.35 330.01 215.43 329.93 215.58 329.93H216.43C216.58 329.93 216.66 330.01 216.66 330.16V331.3C216.66 331.44 216.58 331.52 216.43 331.52H215.58C215.52 331.52 215.46 331.5 215.42 331.46Z" fill="white"/>
<path d="M218.68 330.99C218.28 330.61 218.08 330.06 218.08 329.33V324.88C218.08 324.14 218.28 323.58 218.69 323.18C219.1 322.78 219.66 322.59 220.37 322.59H222.18C222.91 322.59 223.46 322.79 223.82 323.19C224.19 323.59 224.37 324.15 224.37 324.88V329.33C224.37 330.06 224.18 330.61 223.79 330.99C223.4 331.37 222.86 331.56 222.16 331.56H220.35C219.63 331.56 219.07 331.37 218.67 330.99H218.68ZM221.79 330.22C222.53 330.22 222.91 329.85 222.91 329.12V325.03C222.91 324.29 222.56 323.93 221.85 323.93H220.66C220.31 323.93 220.04 324.02 219.85 324.21C219.66 324.4 219.57 324.67 219.57 325.03V329.12C219.57 329.49 219.67 329.76 219.86 329.95C220.06 330.13 220.34 330.23 220.71 330.23H221.79V330.22Z" fill="white"/>
<path d="M225.96 326.93C225.72 326.67 225.59 326.28 225.59 325.75V324.3C225.59 323.76 225.71 323.37 225.96 323.11C226.2 322.85 226.62 322.73 227.2 322.73H228.41C228.98 322.73 229.39 322.86 229.63 323.12C229.88 323.38 230 323.77 230 324.3V325.75C230 326.28 229.88 326.67 229.63 326.93C229.38 327.19 228.97 327.32 228.38 327.32H227.17C226.6 327.32 226.2 327.19 225.95 326.93H225.96ZM228.22 326.36C228.53 326.36 228.75 326.3 228.87 326.17C228.99 326.04 229.05 325.83 229.05 325.53V324.5C229.05 324.2 228.99 323.98 228.88 323.86C228.76 323.74 228.55 323.68 228.25 323.68H227.39C227.1 323.68 226.89 323.74 226.76 323.85C226.63 323.96 226.56 324.18 226.56 324.5V325.53C226.56 325.83 226.62 326.04 226.73 326.17C226.85 326.3 227.06 326.36 227.36 326.36H228.22ZM233.06 322.72H234.04L228.71 331.5H227.69L233.05 322.72H233.06ZM232.19 331.08C231.95 330.82 231.82 330.43 231.82 329.9V328.45C231.82 327.91 231.94 327.52 232.19 327.26C232.43 327 232.85 326.88 233.43 326.88H234.65C235.22 326.88 235.63 327.01 235.87 327.27C236.11 327.53 236.24 327.92 236.24 328.45V329.9C236.24 330.43 236.12 330.82 235.87 331.08C235.62 331.34 235.21 331.47 234.62 331.47H233.4C232.83 331.47 232.43 331.34 232.18 331.08H232.19ZM234.44 330.51C234.75 330.51 234.97 330.45 235.1 330.32C235.23 330.2 235.29 329.98 235.29 329.68V328.65C235.29 328.35 235.23 328.13 235.1 328.01C234.97 327.89 234.76 327.83 234.46 327.83H233.61C233.32 327.83 233.11 327.89 232.98 328C232.85 328.11 232.78 328.33 232.78 328.65V329.68C232.78 329.98 232.84 330.19 232.95 330.32C233.07 330.45 233.28 330.51 233.58 330.51H234.43H234.44Z" fill="white"/>
<path d="M238.349 330.94C238.689 329.92 238.869 328.81 238.869 327.61C238.869 326.41 238.709 325.31 238.389 324.33C238.069 323.35 237.569 322.31 236.899 321.19H238.229C238.909 322.1 239.429 323.06 239.799 324.07C240.169 325.08 240.349 326.26 240.349 327.61C240.349 328.96 240.159 330.08 239.789 331.11C239.409 332.14 238.889 333.11 238.229 334.03H236.899C237.519 332.99 238.009 331.96 238.349 330.94Z" fill="white"/>
<path d="M60.3696 220.37C60.7596 220.77 60.9496 221.31 60.9496 221.97V222.53C60.9496 223.38 60.7296 223.98 60.2996 224.34C59.8696 224.7 59.2396 224.9 58.4296 224.95V225.96H57.5797V224.95C57.1697 224.93 56.7497 224.9 56.3097 224.86C55.8697 224.82 55.5097 224.76 55.2197 224.7V223.54C55.9397 223.6 56.8297 223.64 57.8997 223.64C58.4397 223.64 58.8396 223.56 59.1196 223.41C59.3996 223.26 59.5296 222.98 59.5296 222.58V222.16C59.5296 221.85 59.4396 221.61 59.2696 221.44C59.0996 221.27 58.8297 221.19 58.4897 221.19H57.6596C56.8196 221.19 56.1896 221.01 55.7696 220.64C55.3496 220.27 55.1396 219.68 55.1396 218.85V218.39C55.1396 217.6 55.3496 217.01 55.7696 216.61C56.1896 216.22 56.8096 216 57.6396 215.96L57.5797 215.46L58.3396 215L58.4396 215.74L58.0696 215.96C58.4696 215.96 58.8896 216 59.3396 216.05C59.7896 216.1 60.1897 216.16 60.5396 216.24V217.4C59.4597 217.33 58.6397 217.29 58.0797 217.29C57.5797 217.29 57.1996 217.37 56.9496 217.54C56.6996 217.71 56.5696 218.01 56.5696 218.45V218.75C56.5696 219.11 56.6696 219.37 56.8596 219.53C57.0496 219.69 57.3496 219.77 57.7496 219.77H58.6696C59.4096 219.77 59.9796 219.97 60.3696 220.38V220.37Z" fill="white"/>
<path d="M62.3196 224.74V223.55H65.0996C65.6296 223.55 66.0196 223.48 66.2696 223.33C66.5196 223.19 66.6496 222.92 66.6496 222.54V222.1C66.6496 221.76 66.5296 221.5 66.2896 221.34C66.0496 221.18 65.7396 221.09 65.3496 221.08L63.1396 220.98V219.85L65.2896 219.74C65.6996 219.72 66.0096 219.65 66.2196 219.51C66.4296 219.37 66.5396 219.15 66.5396 218.84V218.43C66.5396 218.06 66.4196 217.79 66.1696 217.61C65.9296 217.43 65.5496 217.35 65.0196 217.35H62.5396V216.16C63.6796 216 64.6996 215.93 65.6096 215.94C66.3896 215.94 66.9796 216.14 67.3896 216.5C67.7996 216.87 68.0096 217.4 68.0096 218.08V218.76C68.0096 219.22 67.8996 219.58 67.6696 219.85C67.4496 220.12 67.1696 220.3 66.8296 220.4C67.1696 220.5 67.4796 220.71 67.7396 221.04C67.9996 221.37 68.1396 221.78 68.1396 222.28V222.8C68.1396 223.49 67.9196 224.02 67.4796 224.39C67.0396 224.76 66.4196 224.95 65.6296 224.95C64.3796 224.95 63.2696 224.88 62.3096 224.73L62.3196 224.74Z" fill="white"/>
<path d="M69.5602 224.84C69.5602 224.84 69.4902 224.75 69.4902 224.68V223.54C69.4902 223.39 69.5702 223.31 69.7202 223.31H70.5702C70.7202 223.31 70.8002 223.39 70.8002 223.54V224.68C70.8002 224.82 70.7202 224.9 70.5702 224.9H69.7202C69.6602 224.9 69.6002 224.88 69.5602 224.84Z" fill="white"/>
<path d="M72.29 224.78V223.62H75.4C75.85 223.62 76.19 223.51 76.41 223.29C76.64 223.07 76.75 222.79 76.75 222.46V221.72C76.75 221.38 76.66 221.12 76.47 220.94C76.29 220.76 76.01 220.66 75.63 220.66H74.85C74.55 220.66 74.32 220.72 74.16 220.85C74 220.98 73.89 221.17 73.84 221.44H72.44L72.69 216.04H77.91V217.37H73.97L73.85 219.88C73.97 219.74 74.14 219.62 74.37 219.53C74.59 219.44 74.85 219.4 75.15 219.4H76.15C76.82 219.4 77.34 219.59 77.7 219.97C78.06 220.35 78.24 220.84 78.24 221.45V222.76C78.24 224.22 77.27 224.96 75.34 224.96C74.37 224.96 73.36 224.9 72.29 224.79V224.78Z" fill="white"/>
<path d="M49.1899 238.92C48.8199 237.91 48.6299 236.73 48.6299 235.37C48.6299 234.01 48.8199 232.92 49.2099 231.88C49.5899 230.84 50.1099 229.87 50.7599 228.96H52.0999C51.4799 229.99 50.9999 231.02 50.6499 232.05C50.2999 233.08 50.1199 234.18 50.1199 235.37C50.1199 236.56 50.2799 237.66 50.6099 238.65C50.9399 239.63 51.4299 240.69 52.0999 241.81H50.7599C50.0899 240.9 49.5699 239.94 49.1899 238.92Z" fill="white"/>
<path d="M53.1096 237.46V236.22C53.1096 235.86 53.2096 235.55 53.4096 235.28C53.6096 235.01 53.8596 234.85 54.1496 234.78C53.8096 234.61 53.5796 234.4 53.4596 234.15C53.3396 233.9 53.2896 233.59 53.2896 233.22V232.2C53.2896 231.57 53.4796 231.1 53.8496 230.8C54.2196 230.5 54.7096 230.35 55.3196 230.35H56.9896C57.5896 230.35 58.0696 230.5 58.4196 230.79C58.7796 231.09 58.9496 231.55 58.9496 232.19V233.21C58.9496 233.5 58.8796 233.79 58.7396 234.09C58.5996 234.39 58.3896 234.57 58.1196 234.63C58.4696 234.71 58.7296 234.9 58.8796 235.19C59.0296 235.48 59.1096 235.81 59.1096 236.16V237.44C59.1096 238.12 58.9196 238.6 58.5496 238.89C58.1696 239.17 57.6596 239.32 56.9996 239.32H55.3796C53.8596 239.32 53.0996 238.7 53.0996 237.45L53.1096 237.46ZM56.6696 238.06C57.0196 238.06 57.2696 237.99 57.4096 237.85C57.5496 237.71 57.6296 237.49 57.6296 237.2V236.3C57.6296 235.99 57.5496 235.76 57.3996 235.62C57.2396 235.48 56.9896 235.4 56.6496 235.4H55.6296C55.3696 235.4 55.1296 235.48 54.9196 235.63C54.7096 235.78 54.5996 236.01 54.5996 236.3V237.2C54.5996 237.5 54.6896 237.72 54.8596 237.86C55.0296 238 55.2896 238.06 55.6296 238.06H56.6696ZM56.6296 234.12C57.2096 234.12 57.4896 233.82 57.4896 233.21V232.55C57.4896 232.2 57.4196 231.95 57.2896 231.82C57.1496 231.68 56.9496 231.62 56.6696 231.62H55.6296C55.3096 231.62 55.0796 231.69 54.9496 231.83C54.8196 231.97 54.7496 232.21 54.7496 232.56V233.22C54.7496 233.53 54.8196 233.76 54.9596 233.91C55.0996 234.06 55.3296 234.13 55.6396 234.13H56.6496L56.6296 234.12Z" fill="white"/>
<path d="M60.6598 239.24C60.6598 239.24 60.5898 239.15 60.5898 239.08V237.94C60.5898 237.79 60.6698 237.71 60.8198 237.71H61.6698C61.8198 237.71 61.8998 237.79 61.8998 237.94V239.08C61.8998 239.22 61.8198 239.3 61.6698 239.3H60.8198C60.7598 239.3 60.6998 239.28 60.6598 239.24Z" fill="white"/>
<path d="M63.0598 239.14V237.95H65.8398C66.3698 237.95 66.7598 237.88 67.0098 237.73C67.2598 237.59 67.3898 237.32 67.3898 236.94V236.5C67.3898 236.16 67.2698 235.9 67.0298 235.74C66.7898 235.58 66.4798 235.49 66.0898 235.48L63.8798 235.38V234.25L66.0298 234.14C66.4398 234.12 66.7498 234.05 66.9598 233.91C67.1698 233.77 67.2798 233.55 67.2798 233.24V232.83C67.2798 232.46 67.1598 232.19 66.9098 232.01C66.6598 231.83 66.2798 231.75 65.7598 231.75H63.2798V230.56C64.4198 230.4 65.4398 230.33 66.3498 230.34C67.1298 230.34 67.7198 230.54 68.1298 230.9C68.5398 231.27 68.7498 231.8 68.7498 232.48V233.16C68.7498 233.62 68.6398 233.98 68.4098 234.25C68.1898 234.52 67.9098 234.7 67.5698 234.8C67.9098 234.9 68.2198 235.11 68.4798 235.44C68.7398 235.77 68.8798 236.18 68.8798 236.68V237.2C68.8798 237.89 68.6598 238.42 68.2198 238.79C67.7798 239.16 67.1598 239.35 66.3698 239.35C65.1198 239.35 64.0098 239.28 63.0498 239.13L63.0598 239.14Z" fill="white"/>
<path d="M70.37 234.71C70.13 234.45 70 234.06 70 233.53V232.08C70 231.54 70.12 231.15 70.37 230.89C70.61 230.63 71.03 230.51 71.61 230.51H72.82C73.39 230.51 73.8 230.64 74.04 230.9C74.29 231.16 74.41 231.55 74.41 232.08V233.53C74.41 234.06 74.29 234.45 74.04 234.71C73.79 234.97 73.38 235.1 72.79 235.1H71.58C71.01 235.1 70.61 234.97 70.36 234.71H70.37ZM72.63 234.14C72.94 234.14 73.16 234.08 73.28 233.95C73.4 233.82 73.46 233.61 73.46 233.31V232.28C73.46 231.98 73.4 231.76 73.29 231.64C73.17 231.52 72.96 231.46 72.66 231.46H71.8C71.51 231.46 71.3 231.52 71.17 231.63C71.04 231.74 70.97 231.96 70.97 232.28V233.31C70.97 233.61 71.03 233.82 71.14 233.95C71.26 234.08 71.47 234.14 71.77 234.14H72.63ZM77.47 230.5H78.45L73.12 239.28H72.1L77.46 230.5H77.47ZM76.6 238.86C76.36 238.6 76.23 238.21 76.23 237.68V236.23C76.23 235.69 76.35 235.3 76.6 235.04C76.85 234.78 77.26 234.66 77.84 234.66H79.06C79.63 234.66 80.04 234.79 80.28 235.05C80.52 235.31 80.65 235.7 80.65 236.23V237.68C80.65 238.21 80.53 238.6 80.28 238.86C80.03 239.12 79.62 239.25 79.03 239.25H77.81C77.24 239.25 76.84 239.12 76.59 238.86H76.6ZM78.85 238.29C79.16 238.29 79.38 238.23 79.51 238.1C79.64 237.97 79.7 237.76 79.7 237.46V236.43C79.7 236.13 79.64 235.91 79.51 235.79C79.38 235.67 79.17 235.61 78.87 235.61H78.02C77.73 235.61 77.52 235.67 77.39 235.78C77.26 235.89 77.19 236.11 77.19 236.43V237.46C77.19 237.76 77.25 237.97 77.36 238.1C77.48 238.23 77.69 238.29 77.99 238.29H78.84H78.85Z" fill="white"/>
<path d="M82.7596 238.72C83.0996 237.7 83.2796 236.59 83.2796 235.39C83.2796 234.19 83.1196 233.09 82.7996 232.11C82.4796 231.13 81.9796 230.09 81.3096 228.97H82.6396C83.3196 229.88 83.8396 230.84 84.2096 231.85C84.5796 232.86 84.7596 234.04 84.7596 235.39C84.7596 236.74 84.5696 237.86 84.1996 238.89C83.8196 239.92 83.2996 240.89 82.6396 241.81H81.3096C81.9296 240.77 82.4196 239.74 82.7596 238.72Z" fill="white"/>
<path d="M70.5103 148.05C70.9003 148.45 71.0903 148.99 71.0903 149.65V150.21C71.0903 151.06 70.8803 151.66 70.4403 152.02C70.0103 152.38 69.3803 152.58 68.5703 152.63V153.64H67.7203V152.63C67.3103 152.61 66.8903 152.58 66.4503 152.54C66.0103 152.5 65.6503 152.44 65.3603 152.38V151.22C66.0803 151.28 66.9703 151.32 68.0403 151.32C68.5803 151.32 68.9803 151.24 69.2603 151.09C69.5403 150.94 69.6703 150.66 69.6703 150.26V149.84C69.6703 149.53 69.5803 149.29 69.4103 149.12C69.2403 148.95 68.9703 148.87 68.6303 148.87H67.8003C66.9603 148.87 66.3303 148.69 65.9103 148.32C65.4903 147.95 65.2803 147.36 65.2803 146.53V146.07C65.2803 145.28 65.4903 144.69 65.9103 144.29C66.3303 143.9 66.9503 143.68 67.7803 143.64L67.7203 143.14L68.4803 142.68L68.5803 143.42L68.2103 143.64C68.6103 143.64 69.0303 143.68 69.4803 143.73C69.9303 143.78 70.3303 143.84 70.6803 143.92V145.08C69.6003 145.01 68.7803 144.97 68.2203 144.97C67.7203 144.97 67.3403 145.05 67.0903 145.22C66.8403 145.39 66.7103 145.69 66.7103 146.13V146.43C66.7103 146.79 66.8103 147.05 67.0003 147.21C67.2003 147.37 67.4903 147.45 67.8903 147.45H68.8103C69.5503 147.45 70.1203 147.65 70.5103 148.06V148.05Z" fill="white"/>
<path d="M72.79 152.46V151.3H75.9C76.35 151.3 76.69 151.19 76.91 150.97C77.14 150.75 77.25 150.47 77.25 150.14V149.4C77.25 149.06 77.16 148.8 76.97 148.62C76.79 148.44 76.51 148.34 76.13 148.34H75.35C75.05 148.34 74.82 148.4 74.66 148.53C74.5 148.66 74.39 148.85 74.34 149.12H72.94L73.19 143.72H78.41V145.05H74.47L74.35 147.56C74.47 147.42 74.64 147.3 74.87 147.21C75.09 147.12 75.35 147.08 75.65 147.08H76.65C77.32 147.08 77.84 147.27 78.2 147.65C78.56 148.03 78.74 148.52 78.74 149.13V150.44C78.74 151.9 77.77 152.64 75.84 152.64C74.87 152.64 73.86 152.58 72.79 152.47V152.46Z" fill="white"/>
<path d="M80.1198 152.52C80.1198 152.52 80.0498 152.43 80.0498 152.36V151.22C80.0498 151.07 80.1298 150.99 80.2798 150.99H81.1298C81.2798 150.99 81.3598 151.07 81.3598 151.22V152.36C81.3598 152.5 81.2798 152.58 81.1298 152.58H80.2798C80.2198 152.58 80.1598 152.56 80.1198 152.52Z" fill="white"/>
<path d="M83.8705 152.23C83.5005 151.97 83.2105 151.53 83.0205 150.89C82.8205 150.25 82.7305 149.36 82.7305 148.21C82.7305 146.59 83.0105 145.42 83.5605 144.71C84.1105 144 84.9305 143.64 86.0105 143.64C86.8405 143.64 87.5905 143.7 88.2405 143.81V144.97H86.1205C84.8605 144.97 84.2205 145.82 84.2205 147.53C84.7305 147.41 85.4505 147.35 86.3805 147.35C87.2105 147.35 87.8205 147.51 88.2005 147.84C88.5805 148.17 88.7705 148.66 88.7705 149.32V150.58C88.7705 151.28 88.5805 151.8 88.1905 152.13C87.8105 152.46 87.2905 152.62 86.6305 152.62H85.3105C84.7305 152.62 84.2505 152.49 83.8805 152.24L83.8705 152.23ZM86.3005 151.28C86.6105 151.28 86.8505 151.2 87.0305 151.05C87.2005 150.9 87.2905 150.65 87.2905 150.29V149.58C87.2905 149.2 87.1905 148.94 86.9805 148.8C86.7805 148.66 86.4405 148.6 85.9805 148.6H84.2205C84.2205 149.3 84.2705 149.84 84.3705 150.23C84.4705 150.62 84.6205 150.89 84.8205 151.05C85.0205 151.21 85.2805 151.28 85.6005 151.28H86.3105H86.3005Z" fill="white"/>
<path d="M59.31 166.6C58.94 165.59 58.75 164.41 58.75 163.05C58.75 161.69 58.94 160.6 59.33 159.56C59.71 158.52 60.23 157.55 60.88 156.64H62.22C61.6 157.67 61.12 158.7 60.77 159.73C60.42 160.76 60.24 161.86 60.24 163.05C60.24 164.24 60.4 165.34 60.73 166.33C61.06 167.31 61.55 168.37 62.22 169.49H60.88C60.21 168.58 59.69 167.62 59.31 166.6Z" fill="white"/>
<path d="M64.5196 159.45L62.8496 159.75V158.8L64.6696 158.02H65.9996V166.96H64.5096V159.45H64.5196Z" fill="white"/>
<path d="M67.3401 166.82V165.63H70.1201C70.6501 165.63 71.0401 165.56 71.2901 165.41C71.5401 165.27 71.6701 165 71.6701 164.62V164.18C71.6701 163.84 71.5501 163.58 71.3101 163.42C71.0701 163.26 70.7601 163.17 70.3701 163.16L68.1601 163.06V161.93L70.3101 161.82C70.7201 161.8 71.0301 161.73 71.2401 161.59C71.4501 161.45 71.5601 161.23 71.5601 160.92V160.51C71.5601 160.14 71.4401 159.87 71.1901 159.69C70.9401 159.51 70.5601 159.43 70.0401 159.43H67.5601V158.24C68.7001 158.08 69.7201 158.01 70.6301 158.02C71.4101 158.02 72.0001 158.22 72.4101 158.58C72.8201 158.95 73.0301 159.48 73.0301 160.16V160.84C73.0301 161.3 72.9201 161.66 72.6901 161.93C72.4701 162.2 72.1901 162.38 71.8501 162.48C72.1901 162.58 72.5001 162.79 72.7601 163.12C73.0201 163.45 73.1601 163.86 73.1601 164.36V164.88C73.1601 165.57 72.9401 166.1 72.5001 166.47C72.0601 166.84 71.4401 167.03 70.6501 167.03C69.4001 167.03 68.2901 166.96 67.3301 166.81L67.3401 166.82Z" fill="white"/>
<path d="M74.5895 166.92C74.5895 166.92 74.5195 166.83 74.5195 166.76V165.62C74.5195 165.47 74.5995 165.39 74.7495 165.39H75.5995C75.7495 165.39 75.8295 165.47 75.8295 165.62V166.76C75.8295 166.9 75.7495 166.98 75.5995 166.98H74.7495C74.6895 166.98 74.6295 166.96 74.5895 166.92Z" fill="white"/>
<path d="M77.7501 159.45L76.0801 159.75V158.8L77.9001 158.02H79.2301V166.96H77.7401V159.45H77.7501Z" fill="white"/>
<path d="M80.91 162.39C80.67 162.13 80.54 161.74 80.54 161.21V159.76C80.54 159.22 80.66 158.83 80.91 158.57C81.15 158.31 81.57 158.19 82.15 158.19H83.36C83.93 158.19 84.34 158.32 84.58 158.58C84.83 158.84 84.95 159.23 84.95 159.76V161.21C84.95 161.74 84.83 162.13 84.58 162.39C84.33 162.65 83.92 162.78 83.33 162.78H82.12C81.55 162.78 81.15 162.65 80.9 162.39H80.91ZM83.17 161.82C83.48 161.82 83.7 161.76 83.82 161.63C83.94 161.51 84 161.29 84 160.99V159.96C84 159.66 83.94 159.44 83.83 159.32C83.71 159.2 83.5 159.14 83.2 159.14H82.34C82.05 159.14 81.84 159.2 81.71 159.31C81.58 159.42 81.51 159.64 81.51 159.96V160.99C81.51 161.29 81.57 161.5 81.68 161.63C81.79 161.76 82.01 161.82 82.31 161.82H83.17ZM88.01 158.18H88.99L83.66 166.96H82.64L88 158.18H88.01ZM87.14 166.54C86.9 166.28 86.77 165.89 86.77 165.36V163.91C86.77 163.37 86.89 162.98 87.14 162.72C87.39 162.46 87.8 162.34 88.38 162.34H89.6C90.17 162.34 90.58 162.47 90.82 162.73C91.06 162.99 91.19 163.38 91.19 163.91V165.36C91.19 165.89 91.07 166.28 90.82 166.54C90.57 166.8 90.16 166.93 89.57 166.93H88.35C87.78 166.93 87.38 166.8 87.13 166.54H87.14ZM89.39 165.97C89.7 165.97 89.92 165.91 90.05 165.78C90.18 165.65 90.24 165.44 90.24 165.14V164.11C90.24 163.81 90.18 163.59 90.05 163.47C89.92 163.35 89.71 163.29 89.41 163.29H88.56C88.27 163.29 88.06 163.35 87.93 163.46C87.8 163.57 87.73 163.79 87.73 164.11V165.14C87.73 165.44 87.79 165.65 87.9 165.78C88.02 165.91 88.23 165.97 88.53 165.97H89.38H89.39Z" fill="white"/>
<path d="M93.2996 166.39C93.6396 165.37 93.8196 164.26 93.8196 163.06C93.8196 161.86 93.6596 160.76 93.3396 159.78C93.0196 158.8 92.5196 157.76 91.8496 156.64H93.1796C93.8596 157.55 94.3796 158.51 94.7496 159.52C95.1196 160.53 95.2996 161.71 95.2996 163.06C95.2996 164.41 95.1096 165.53 94.7396 166.56C94.3596 167.59 93.8396 168.56 93.1796 169.48H91.8496C92.4696 168.44 92.9596 167.41 93.2996 166.39Z" fill="white"/>
<path d="M132.3 85.4701C132.69 85.8701 132.88 86.4101 132.88 87.0701V87.6301C132.88 88.4801 132.66 89.0801 132.23 89.4401C131.8 89.8001 131.17 90.0001 130.36 90.0501V91.0601H129.51V90.0501C129.1 90.0301 128.68 90.0001 128.24 89.9601C127.8 89.9201 127.44 89.8601 127.15 89.8001V88.6401C127.87 88.7001 128.76 88.7401 129.83 88.7401C130.37 88.7401 130.77 88.6601 131.05 88.5101C131.33 88.3601 131.46 88.0801 131.46 87.6801V87.2601C131.46 86.9501 131.37 86.7101 131.2 86.5401C131.03 86.3701 130.76 86.2901 130.42 86.2901H129.59C128.75 86.2901 128.12 86.1101 127.7 85.7401C127.28 85.3701 127.07 84.7801 127.07 83.9501V83.4901C127.07 82.7001 127.28 82.1101 127.7 81.7101C128.12 81.3201 128.74 81.1001 129.57 81.0601L129.51 80.5601L130.27 80.1001L130.37 80.8401L130 81.0601C130.4 81.0601 130.82 81.1001 131.27 81.1501C131.72 81.2001 132.12 81.2601 132.47 81.3401V82.5001C131.39 82.4301 130.57 82.3901 130.01 82.3901C129.51 82.3901 129.13 82.4701 128.88 82.6401C128.63 82.8101 128.5 83.1101 128.5 83.5501V83.8501C128.5 84.2101 128.6 84.4701 128.79 84.6301C128.99 84.7901 129.28 84.8701 129.68 84.8701H130.6C131.34 84.8701 131.91 85.0701 132.3 85.4801V85.4701Z" fill="white"/>
<path d="M134.25 89.85V88.66H137.03C137.56 88.66 137.95 88.59 138.2 88.44C138.45 88.3 138.58 88.03 138.58 87.65V87.21C138.58 86.87 138.46 86.61 138.22 86.45C137.98 86.29 137.67 86.2 137.28 86.19L135.07 86.09V84.96L137.22 84.85C137.63 84.83 137.94 84.76 138.15 84.62C138.36 84.48 138.47 84.26 138.47 83.95V83.54C138.47 83.17 138.35 82.9 138.1 82.72C137.86 82.54 137.47 82.46 136.95 82.46H134.47V81.27C135.61 81.11 136.63 81.04 137.54 81.05C138.32 81.05 138.91 81.25 139.32 81.61C139.73 81.98 139.94 82.51 139.94 83.19V83.87C139.94 84.33 139.83 84.69 139.6 84.96C139.38 85.23 139.1 85.41 138.76 85.51C139.1 85.61 139.41 85.82 139.67 86.15C139.93 86.48 140.07 86.89 140.07 87.39V87.91C140.07 88.6 139.85 89.13 139.41 89.5C138.97 89.87 138.35 90.06 137.56 90.06C136.31 90.06 135.2 89.99 134.24 89.84L134.25 89.85Z" fill="white"/>
<path d="M141.5 89.9402C141.5 89.9402 141.43 89.8502 141.43 89.7802V88.6402C141.43 88.4902 141.51 88.4102 141.66 88.4102H142.51C142.66 88.4102 142.74 88.4902 142.74 88.6402V89.7802C142.74 89.9202 142.66 90.0002 142.51 90.0002H141.66C141.6 90.0002 141.54 89.9802 141.5 89.9402Z" fill="white"/>
<path d="M147.98 87.9801H143.98L143.69 87.2501L146.73 81.1401H148.25L145.44 86.7201H147.97V84.7601L148.27 83.8101H149.45V86.7101H150.47V87.7301L149.45 87.9701V89.9701H147.97V87.9701L147.98 87.9801Z" fill="white"/>
<path d="M120.68 104.02C120.31 103.01 120.12 101.83 120.12 100.47C120.12 99.1101 120.31 98.0201 120.7 96.9801C121.08 95.9401 121.6 94.9701 122.25 94.0601H123.59C122.97 95.0901 122.49 96.1201 122.14 97.1501C121.79 98.1801 121.61 99.2801 121.61 100.47C121.61 101.66 121.77 102.76 122.1 103.75C122.43 104.73 122.92 105.79 123.59 106.91H122.25C121.58 106 121.06 105.04 120.68 104.02Z" fill="white"/>
<path d="M124.59 102.57V101.33C124.59 100.97 124.69 100.66 124.89 100.39C125.09 100.12 125.34 99.9602 125.63 99.8902C125.29 99.7202 125.06 99.5102 124.94 99.2602C124.82 99.0102 124.77 98.7002 124.77 98.3302V97.3102C124.77 96.6802 124.96 96.2102 125.33 95.9102C125.7 95.6102 126.19 95.4602 126.8 95.4602H128.47C129.07 95.4602 129.55 95.6102 129.9 95.9002C130.26 96.2002 130.43 96.6602 130.43 97.3002V98.3202C130.43 98.6102 130.36 98.9002 130.22 99.2002C130.08 99.5002 129.87 99.6802 129.6 99.7402C129.95 99.8202 130.21 100.01 130.36 100.3C130.51 100.59 130.59 100.92 130.59 101.27V102.55C130.59 103.23 130.4 103.71 130.03 104C129.65 104.28 129.14 104.43 128.48 104.43H126.86C125.34 104.43 124.58 103.81 124.58 102.56L124.59 102.57ZM128.15 103.17C128.5 103.17 128.75 103.1 128.89 102.96C129.03 102.82 129.11 102.6 129.11 102.31V101.41C129.11 101.1 129.03 100.87 128.88 100.73C128.72 100.59 128.47 100.51 128.13 100.51H127.11C126.85 100.51 126.61 100.59 126.4 100.74C126.19 100.89 126.08 101.12 126.08 101.41V102.31C126.08 102.61 126.17 102.83 126.34 102.97C126.51 103.11 126.77 103.17 127.11 103.17H128.15ZM128.11 99.2302C128.69 99.2302 128.97 98.9302 128.97 98.3202V97.6602C128.97 97.3102 128.9 97.0602 128.77 96.9302C128.63 96.7902 128.43 96.7302 128.15 96.7302H127.11C126.79 96.7302 126.56 96.8002 126.43 96.9402C126.3 97.0802 126.23 97.3202 126.23 97.6702V98.3302C126.23 98.6402 126.3 98.8702 126.44 99.0202C126.58 99.1702 126.81 99.2402 127.12 99.2402H128.13L128.11 99.2302Z" fill="white"/>
<path d="M132.15 104.34C132.15 104.34 132.08 104.25 132.08 104.18V103.04C132.08 102.89 132.16 102.81 132.31 102.81H133.16C133.31 102.81 133.39 102.89 133.39 103.04V104.18C133.39 104.32 133.31 104.4 133.16 104.4H132.31C132.25 104.4 132.19 104.38 132.15 104.34Z" fill="white"/>
<path d="M135.411 103.87C135.011 103.49 134.811 102.94 134.811 102.21V97.7602C134.811 97.0202 135.011 96.4602 135.421 96.0602C135.831 95.6602 136.391 95.4702 137.101 95.4702H138.911C139.641 95.4702 140.191 95.6702 140.551 96.0702C140.921 96.4702 141.101 97.0302 141.101 97.7602V102.21C141.101 102.94 140.911 103.49 140.521 103.87C140.131 104.25 139.591 104.44 138.891 104.44H137.081C136.361 104.44 135.801 104.25 135.401 103.87H135.411ZM138.521 103.1C139.261 103.1 139.641 102.73 139.641 102V97.9102C139.641 97.1702 139.291 96.8102 138.581 96.8102H137.391C137.041 96.8102 136.771 96.9002 136.581 97.0902C136.391 97.2802 136.301 97.5502 136.301 97.9102V102C136.301 102.37 136.401 102.64 136.591 102.83C136.791 103.01 137.071 103.11 137.441 103.11H138.521V103.1Z" fill="white"/>
<path d="M142.681 99.8101C142.441 99.5501 142.311 99.1601 142.311 98.6301V97.1801C142.311 96.6401 142.431 96.2501 142.681 95.9901C142.921 95.7301 143.341 95.6101 143.921 95.6101H145.131C145.701 95.6101 146.111 95.7401 146.351 96.0001C146.601 96.2601 146.721 96.6501 146.721 97.1801V98.6301C146.721 99.1601 146.601 99.5501 146.351 99.8101C146.101 100.07 145.691 100.2 145.101 100.2H143.891C143.321 100.2 142.921 100.07 142.671 99.8101H142.681ZM144.941 99.2401C145.251 99.2401 145.471 99.1801 145.591 99.0501C145.711 98.9301 145.771 98.7101 145.771 98.4101V97.3801C145.771 97.0801 145.711 96.8601 145.601 96.7401C145.481 96.6201 145.271 96.5601 144.971 96.5601H144.111C143.821 96.5601 143.611 96.6201 143.481 96.7301C143.351 96.8401 143.281 97.0601 143.281 97.3801V98.4101C143.281 98.7101 143.341 98.9201 143.451 99.0501C143.561 99.1801 143.781 99.2401 144.081 99.2401H144.941ZM149.781 95.6001H150.761L145.431 104.38H144.411L149.771 95.6001H149.781ZM148.911 103.96C148.671 103.7 148.541 103.31 148.541 102.78V101.33C148.541 100.79 148.661 100.4 148.911 100.14C149.161 99.8801 149.571 99.7601 150.151 99.7601H151.371C151.941 99.7601 152.351 99.8901 152.591 100.15C152.841 100.41 152.961 100.8 152.961 101.33V102.78C152.961 103.31 152.841 103.7 152.591 103.96C152.341 104.22 151.931 104.35 151.341 104.35H150.121C149.551 104.35 149.151 104.22 148.901 103.96H148.911ZM151.161 103.39C151.471 103.39 151.691 103.33 151.821 103.2C151.951 103.07 152.011 102.86 152.011 102.56V101.53C152.011 101.23 151.951 101.01 151.821 100.89C151.691 100.77 151.481 100.71 151.181 100.71H150.331C150.041 100.71 149.831 100.77 149.701 100.88C149.571 100.99 149.501 101.21 149.501 101.53V102.56C149.501 102.86 149.561 103.07 149.671 103.2C149.791 103.33 150.001 103.39 150.301 103.39H151.151H151.161Z" fill="white"/>
<path d="M155.07 103.82C155.41 102.8 155.59 101.69 155.59 100.49C155.59 99.2901 155.43 98.1901 155.11 97.2101C154.79 96.2301 154.29 95.1901 153.62 94.0701H154.95C155.63 94.9801 156.15 95.9401 156.52 96.9501C156.89 97.9601 157.07 99.1401 157.07 100.49C157.07 101.84 156.88 102.96 156.51 103.99C156.13 105.02 155.61 105.99 154.95 106.91H153.62C154.24 105.87 154.73 104.84 155.07 103.82Z" fill="white"/>
<path d="M191.05 273.35C230.782 273.35 262.99 241.141 262.99 201.41C262.99 161.679 230.782 129.47 191.05 129.47C151.319 129.47 119.11 161.679 119.11 201.41C119.11 241.141 151.319 273.35 191.05 273.35Z" fill="white"/>
<path d="M191.05 126.32C149.58 126.32 115.96 159.94 115.96 201.41C115.96 242.88 149.58 276.5 191.05 276.5C232.52 276.5 266.14 242.88 266.14 201.41C266.14 159.94 232.52 126.32 191.05 126.32ZM191.05 272.74C151.65 272.74 119.72 240.8 119.72 201.41C119.72 162.02 151.66 130.08 191.05 130.08C230.44 130.08 262.38 162.02 262.38 201.41C262.38 240.8 230.44 272.74 191.05 272.74Z" fill="#B2B1B0"/>
<path d="M174.053 173.53V163.211H170.602V160.95H180.037V163.211H176.569V173.53H174.053ZM184.34 173.615C183.592 173.615 182.952 173.541 182.419 173.394C181.886 173.235 181.45 172.975 181.11 172.612C180.781 172.249 180.538 171.768 180.379 171.167C180.232 170.566 180.158 169.824 180.158 168.94C180.158 168.011 180.232 167.246 180.379 166.645C180.538 166.033 180.781 165.557 181.11 165.217C181.45 164.866 181.886 164.622 182.419 164.486C182.963 164.339 183.603 164.265 184.34 164.265C185.099 164.265 185.745 164.339 186.278 164.486C186.811 164.633 187.241 164.883 187.57 165.234C187.91 165.574 188.154 166.05 188.301 166.662C188.46 167.263 188.539 168.022 188.539 168.94C188.539 169.847 188.465 170.606 188.318 171.218C188.171 171.819 187.933 172.295 187.604 172.646C187.275 172.997 186.839 173.247 186.295 173.394C185.762 173.541 185.111 173.615 184.34 173.615ZM184.34 171.609C184.646 171.609 184.901 171.581 185.105 171.524C185.32 171.467 185.49 171.354 185.615 171.184C185.751 171.003 185.853 170.731 185.921 170.368C185.989 170.005 186.023 169.529 186.023 168.94C186.023 168.339 185.989 167.863 185.921 167.512C185.853 167.149 185.751 166.883 185.615 166.713C185.49 166.532 185.32 166.413 185.105 166.356C184.901 166.299 184.646 166.271 184.34 166.271C184.045 166.271 183.79 166.299 183.575 166.356C183.371 166.413 183.201 166.532 183.065 166.713C182.929 166.883 182.827 167.149 182.759 167.512C182.702 167.863 182.674 168.339 182.674 168.94C182.674 169.529 182.702 170.005 182.759 170.368C182.827 170.731 182.929 171.003 183.065 171.184C183.201 171.354 183.371 171.467 183.575 171.524C183.79 171.581 184.045 171.609 184.34 171.609ZM193.676 173.53C192.974 173.53 192.401 173.428 191.959 173.224C191.529 173.02 191.217 172.68 191.024 172.204C190.832 171.728 190.747 171.088 190.769 170.283L190.854 166.424H189.426V164.809L190.939 164.401L191.279 161.851H193.268V164.401H195.41V166.424H193.268V170.266C193.268 170.515 193.291 170.719 193.336 170.878C193.382 171.037 193.444 171.167 193.523 171.269C193.614 171.36 193.716 171.428 193.829 171.473C193.943 171.518 194.056 171.547 194.169 171.558L195.325 171.66V173.53H193.676ZM198.754 173.632C198.062 173.632 197.501 173.428 197.071 173.02C196.64 172.612 196.425 172.045 196.425 171.32V170.504C196.425 169.813 196.668 169.246 197.156 168.804C197.643 168.351 198.402 168.124 199.434 168.124H201.763V167.495C201.763 167.212 201.712 166.979 201.61 166.798C201.508 166.605 201.315 166.469 201.032 166.39C200.76 166.299 200.34 166.254 199.774 166.254H197.037V164.792C197.479 164.656 197.989 164.537 198.567 164.435C199.156 164.333 199.864 164.282 200.692 164.282C201.451 164.282 202.097 164.373 202.63 164.554C203.174 164.735 203.582 165.047 203.854 165.489C204.137 165.931 204.279 166.543 204.279 167.325V173.53H202.29L201.882 172.561C201.802 172.652 201.666 172.754 201.474 172.867C201.281 172.98 201.043 173.099 200.76 173.224C200.488 173.337 200.176 173.434 199.825 173.513C199.485 173.592 199.128 173.632 198.754 173.632ZM200.029 171.881C200.142 171.881 200.267 171.87 200.403 171.847C200.55 171.813 200.697 171.779 200.845 171.745C201.003 171.7 201.145 171.66 201.27 171.626C201.406 171.581 201.513 171.541 201.593 171.507C201.683 171.473 201.74 171.45 201.763 171.439V169.314L200.233 169.416C199.791 169.45 199.462 169.563 199.247 169.756C199.043 169.949 198.941 170.209 198.941 170.538V170.912C198.941 171.139 198.986 171.326 199.077 171.473C199.179 171.62 199.309 171.728 199.468 171.796C199.638 171.853 199.825 171.881 200.029 171.881ZM209.018 173.564C208.372 173.564 207.834 173.462 207.403 173.258C206.984 173.043 206.672 172.72 206.468 172.289C206.264 171.847 206.162 171.28 206.162 170.589V160.559H208.678V170.215C208.678 170.555 208.712 170.827 208.78 171.031C208.848 171.224 208.95 171.365 209.086 171.456C209.234 171.547 209.415 171.609 209.63 171.643L210.327 171.745V173.564H209.018Z" fill="#4F4E4E"/>
<path d="M186.4 190.938V188.898H194.016V190.938H186.4ZM186.4 186.858V184.818H194.016V186.858H186.4Z" fill="#4F4E4E"/>
<path d="M172.557 202.056L172.472 200.73L173.815 200.322L173.9 201.648L172.557 202.056ZM172.472 215.843V214.16L173.9 214.177V215.843H172.472ZM173.169 214.432C172.84 214.432 172.5 214.421 172.149 214.398C171.809 214.387 171.458 214.364 171.095 214.33C170.744 214.285 170.409 214.239 170.092 214.194C169.775 214.137 169.486 214.075 169.225 214.007V212.018C169.565 212.052 169.95 212.08 170.381 212.103C170.812 212.126 171.259 212.143 171.724 212.154C172.189 212.165 172.631 212.171 173.05 212.171C173.481 212.171 173.849 212.137 174.155 212.069C174.472 211.99 174.716 211.859 174.886 211.678C175.056 211.485 175.141 211.225 175.141 210.896V210.437C175.141 210.063 175.028 209.78 174.801 209.587C174.586 209.383 174.274 209.281 173.866 209.281H172.795C171.594 209.281 170.67 209.02 170.024 208.499C169.389 207.966 169.072 207.065 169.072 205.796V205.184C169.072 203.96 169.423 203.065 170.126 202.498C170.829 201.931 171.832 201.648 173.135 201.648C173.6 201.648 174.059 201.671 174.512 201.716C174.977 201.761 175.419 201.818 175.838 201.886C176.269 201.943 176.637 202.005 176.943 202.073V204.062C176.422 204.028 175.838 203.994 175.192 203.96C174.557 203.926 173.968 203.909 173.424 203.909C173.039 203.909 172.693 203.949 172.387 204.028C172.092 204.096 171.866 204.232 171.707 204.436C171.548 204.64 171.469 204.929 171.469 205.303V205.643C171.469 206.085 171.594 206.402 171.843 206.595C172.092 206.788 172.461 206.884 172.948 206.884H174.189C174.948 206.884 175.572 207.026 176.059 207.309C176.558 207.581 176.926 207.961 177.164 208.448C177.413 208.935 177.538 209.491 177.538 210.114V210.828C177.538 211.814 177.351 212.568 176.977 213.089C176.614 213.61 176.104 213.967 175.447 214.16C174.801 214.341 174.042 214.432 173.169 214.432ZM185.024 214.313V211.661H179.516L179.04 210.471L183.12 201.75H185.687L182.032 209.519H185.024V207.071L185.517 205.626H187.54V209.519H188.832V211.253L187.54 211.661V214.313H185.024ZM189.957 214.33V212.307L194.156 208.142C194.496 207.813 194.773 207.507 194.989 207.224C195.204 206.941 195.363 206.663 195.465 206.391C195.578 206.108 195.635 205.807 195.635 205.49C195.635 205.184 195.572 204.923 195.448 204.708C195.334 204.481 195.142 204.311 194.87 204.198C194.609 204.085 194.246 204.028 193.782 204.028H190.246V202.056C190.79 201.954 191.39 201.863 192.048 201.784C192.716 201.693 193.459 201.648 194.275 201.648C195.261 201.648 196.031 201.784 196.587 202.056C197.153 202.328 197.556 202.719 197.794 203.229C198.032 203.739 198.151 204.357 198.151 205.082C198.151 205.649 198.071 206.164 197.913 206.629C197.765 207.094 197.544 207.541 197.25 207.972C196.955 208.391 196.581 208.816 196.128 209.247L193.306 212.052H198.542V214.33H189.957ZM200.394 214.347C200.167 214.347 200.054 214.234 200.054 214.007V212.273C200.054 212.035 200.167 211.916 200.394 211.916H201.856C202.105 211.916 202.23 212.035 202.23 212.273V214.007C202.23 214.143 202.19 214.234 202.111 214.279C202.043 214.324 201.958 214.347 201.856 214.347H200.394ZM205.126 214.33L208.866 204.266H203.511V201.75H211.45L212.113 202.821L207.948 214.33H205.126Z" fill="#4F4E4E"/>
<path d="M166.638 234.73V222.15H171.585C172.831 222.15 173.738 222.439 174.305 223.017C174.883 223.584 175.172 224.394 175.172 225.448C175.172 225.947 175.098 226.389 174.951 226.774C174.815 227.148 174.616 227.46 174.356 227.709C174.095 227.947 173.783 228.111 173.421 228.202C173.693 228.27 173.953 228.378 174.203 228.525C174.463 228.672 174.696 228.871 174.9 229.12C175.115 229.369 175.279 229.675 175.393 230.038C175.517 230.389 175.58 230.797 175.58 231.262C175.58 232.112 175.432 232.792 175.138 233.302C174.854 233.812 174.429 234.18 173.863 234.407C173.307 234.622 172.622 234.73 171.806 234.73H166.638ZM169.154 232.469H171.738C172.032 232.469 172.287 232.412 172.503 232.299C172.718 232.186 172.882 232.01 172.996 231.772C173.12 231.534 173.183 231.217 173.183 230.82C173.183 230.491 173.12 230.214 172.996 229.987C172.871 229.76 172.701 229.585 172.486 229.46C172.27 229.335 172.021 229.273 171.738 229.273H169.154V232.469ZM169.154 227.335H171.602C171.964 227.335 172.248 227.205 172.452 226.944C172.667 226.672 172.775 226.321 172.775 225.89C172.786 225.335 172.673 224.949 172.435 224.734C172.197 224.519 171.908 224.411 171.568 224.411H169.154V227.335ZM177.483 224.258C177.245 224.258 177.126 224.145 177.126 223.918V222.252C177.126 222.014 177.245 221.895 177.483 221.895H179.421C179.523 221.895 179.602 221.929 179.659 221.997C179.716 222.065 179.744 222.15 179.744 222.252V223.918C179.744 224.145 179.636 224.258 179.421 224.258H177.483ZM177.177 234.73V225.601H179.693V234.73H177.177ZM184.482 234.764C183.836 234.764 183.298 234.662 182.867 234.458C182.448 234.243 182.136 233.92 181.932 233.489C181.728 233.047 181.626 232.48 181.626 231.789V221.759H184.142V231.415C184.142 231.755 184.176 232.027 184.244 232.231C184.312 232.424 184.414 232.565 184.55 232.656C184.698 232.747 184.879 232.809 185.094 232.843L185.791 232.945V234.764H184.482ZM189.811 234.764C189.165 234.764 188.627 234.662 188.196 234.458C187.777 234.243 187.465 233.92 187.261 233.489C187.057 233.047 186.955 232.48 186.955 231.789V221.759H189.471V231.415C189.471 231.755 189.505 232.027 189.573 232.231C189.641 232.424 189.743 232.565 189.879 232.656C190.027 232.747 190.208 232.809 190.423 232.843L191.12 232.945V234.764H189.811ZM192.59 224.258C192.352 224.258 192.233 224.145 192.233 223.918V222.252C192.233 222.014 192.352 221.895 192.59 221.895H194.528C194.63 221.895 194.71 221.929 194.766 221.997C194.823 222.065 194.851 222.15 194.851 222.252V223.918C194.851 224.145 194.744 224.258 194.528 224.258H192.59ZM192.284 234.73V225.601H194.8V234.73H192.284ZM200.644 234.815C199.896 234.815 199.255 234.741 198.723 234.594C198.19 234.435 197.754 234.175 197.414 233.812C197.085 233.449 196.841 232.968 196.683 232.367C196.535 231.766 196.462 231.024 196.462 230.14C196.462 229.211 196.535 228.446 196.683 227.845C196.841 227.233 197.085 226.757 197.414 226.417C197.754 226.066 198.19 225.822 198.723 225.686C199.267 225.539 199.907 225.465 200.644 225.465C201.403 225.465 202.049 225.539 202.582 225.686C203.114 225.833 203.545 226.083 203.874 226.434C204.214 226.774 204.457 227.25 204.605 227.862C204.763 228.463 204.843 229.222 204.843 230.14C204.843 231.047 204.769 231.806 204.622 232.418C204.474 233.019 204.236 233.495 203.908 233.846C203.579 234.197 203.143 234.447 202.599 234.594C202.066 234.741 201.414 234.815 200.644 234.815ZM200.644 232.809C200.95 232.809 201.205 232.781 201.409 232.724C201.624 232.667 201.794 232.554 201.919 232.384C202.055 232.203 202.157 231.931 202.225 231.568C202.293 231.205 202.327 230.729 202.327 230.14C202.327 229.539 202.293 229.063 202.225 228.712C202.157 228.349 202.055 228.083 201.919 227.913C201.794 227.732 201.624 227.613 201.409 227.556C201.205 227.499 200.95 227.471 200.644 227.471C200.349 227.471 200.094 227.499 199.879 227.556C199.675 227.613 199.505 227.732 199.369 227.913C199.233 228.083 199.131 228.349 199.063 228.712C199.006 229.063 198.978 229.539 198.978 230.14C198.978 230.729 199.006 231.205 199.063 231.568C199.131 231.931 199.233 232.203 199.369 232.384C199.505 232.554 199.675 232.667 199.879 232.724C200.094 232.781 200.349 232.809 200.644 232.809ZM206.512 234.73V225.601H208.586L209.028 226.536C209.368 226.253 209.793 226.003 210.303 225.788C210.824 225.561 211.357 225.448 211.901 225.448C212.649 225.448 213.227 225.595 213.635 225.89C214.043 226.185 214.326 226.581 214.485 227.08C214.655 227.567 214.74 228.111 214.74 228.712V234.73H212.224V229.035C212.224 228.74 212.167 228.497 212.054 228.304C211.952 228.111 211.805 227.964 211.612 227.862C211.419 227.76 211.187 227.709 210.915 227.709C210.677 227.709 210.445 227.737 210.218 227.794C210.003 227.851 209.793 227.93 209.589 228.032C209.396 228.134 209.209 228.253 209.028 228.389V234.73H206.512Z" fill="#4F4E4E"/>
<path opacity="0.6" d="M220.01 274.91C220.43 274.74 220.86 274.57 221.28 274.4C222.2 274.02 223.11 273.62 224.02 273.2C224.21 273.11 224.4 273.02 224.59 272.93C225.59 272.46 226.59 271.97 227.57 271.45C227.7 271.38 227.83 271.32 227.95 271.25C228.91 270.74 229.86 270.21 230.8 269.67C231 269.55 231.2 269.44 231.4 269.32C232.22 268.83 224.27 272.52 223.41 272.94C213.95 277.51 224.71 272.91 225.1 272.65C225.68 272.26 233.32 268.53 236.04 266.99C239.74 264.89 244.74 259.32 245.46 258.77C245.25 258.94 245.67 258.61 245.46 258.77C244.58 259.52 246.37 258.06 245.46 258.77C245.42 258.8 245.5 258.74 245.46 258.77C247.47 257.05 246.3 257.94 248.16 255.99C252.62 251.32 256.39 246.25 259.48 240.91C259.55 240.8 259.61 240.68 259.68 240.57C260.08 239.86 260.47 239.15 260.85 238.44C260.94 238.27 261.03 238.11 261.12 237.94C261.48 237.25 261.83 236.55 262.17 235.84C262.36 235.45 262.54 235.06 262.73 234.66C262.89 234.32 263.04 233.98 263.19 233.64C263.57 232.78 263.94 231.91 264.3 231.03C264.36 230.88 264.42 230.73 264.49 230.57C265.19 228.79 265.84 226.97 266.42 225.12C266.44 225.05 266.46 224.99 266.48 224.92C266.67 224.31 266.85 223.69 267.03 223.07C267.04 223.03 267.05 222.99 267.06 222.95C267.33 222.01 267.57 221.07 267.8 220.13C267.86 219.88 267.91 219.64 267.97 219.39C268.14 218.69 268.29 217.98 268.44 217.28C268.54 216.81 268.63 216.34 268.71 215.87C268.8 215.41 268.88 214.95 268.96 214.49C269.07 213.8 269.18 213.12 269.28 212.43C270.5 203.84 270.27 195.3 268.76 187.08C268.61 186.24 268.43 185.39 268.25 184.55C268.2 184.32 268.15 184.09 268.1 183.85C267.95 183.21 267.8 182.57 267.64 181.93C267.53 181.49 267.42 181.06 267.3 180.62C267.18 180.19 267.06 179.77 266.94 179.34C266.75 178.7 266.56 178.07 266.36 177.43C266.29 177.21 266.22 176.99 266.14 176.77C265.87 175.95 265.59 175.13 265.29 174.32C265.29 174.3 265.28 174.29 265.27 174.27C265.27 174.27 261.62 165.78 259.96 162.85C258.54 160.34 253.15 152.51 253.15 152.51C253.07 152.41 252.99 152.31 252.91 152.21C252.48 151.67 252.04 151.13 251.6 150.6C251.3 150.24 250.99 149.89 250.69 149.53C250.38 149.17 250.06 148.81 249.74 148.46C249.26 147.93 248.77 147.4 248.27 146.88C248.1 146.7 251.77 150.78 251.6 150.6C250.93 149.91 254.17 134.25 254.17 134.25C254.14 134.22 239.59 139.02 239.56 138.99C237.61 137.13 241.64 140.61 239.56 138.99C239.51 138.95 239.46 138.91 239.41 138.87C238.46 138.14 237.51 137.43 236.54 136.75C236.41 136.66 236.27 136.56 236.14 136.47C235.13 135.77 234.11 135.09 233.08 134.44C233.05 134.42 233.02 134.4 232.99 134.38C231.98 133.74 230.95 133.14 229.92 132.56C229.51 132.33 229.09 132.11 228.67 131.88C228.09 131.57 227.51 131.26 226.93 130.96C226.36 130.67 225.78 130.38 225.19 130.1C224.79 129.91 224.38 129.72 223.97 129.53C223.28 129.21 222.58 128.9 221.88 128.6C221.69 128.52 221.5 128.44 221.3 128.37C218.55 127.23 215.71 126.23 212.77 125.4C212.72 125.39 212.68 125.37 212.64 125.36C212.07 125.2 211.5 125.05 210.93 124.9C210.16 124.7 209.4 124.51 208.63 124.34C208.23 124.25 207.83 124.16 207.42 124.08C206.46 123.88 205.51 123.69 204.54 123.52C204.38 123.49 204.22 123.47 204.06 123.44C199.98 122.76 192.44 122.51 186.04 122.62L180.52 110.64L176.82 123.56C175.77 123.73 174.99 123.87 170.64 125.03C170.55 125.05 170.46 125.08 170.37 125.1C169.36 125.37 168.35 125.68 167.34 125.99C167.06 126.08 166.77 126.17 166.49 126.26C165.67 126.53 164.87 126.81 164.06 127.11C163.38 127.36 162.71 127.61 162.03 127.88C161.61 128.05 161.19 128.22 160.77 128.39L150.65 120.36C150.46 120.45 149.93 133.61 149.93 133.61C148.88 134.16 147 135.6 147 135.6C145.45 136.7 140.68 140.46 139.8 141.21C139.76 141.24 139.73 141.27 139.69 141.3C137.68 143.02 135.27 145.07 133.3 146.92C132.06 148.08 128.5 152.39 127.06 154.15C126.98 154.24 124.86 157.8 124.8 157.9C124.41 158.58 124.29 158.53 123.92 159.23C123.81 159.44 123.37 160.13 123.26 160.33L110.34 161.43C110.28 161.65 117.98 171.01 117.79 171.42C117.65 171.73 117.76 171.5 117.62 171.81C117.18 172.8 118.05 171 117.64 172.01C117.63 172.04 117.19 173.04 117.17 173.08C116.93 173.69 116.74 174.23 116.51 174.85C116.51 174.86 116.07 176.22 116.07 176.23C115.39 178.09 115.57 177.76 115.02 179.69C115 179.74 114.99 179.8 114.98 179.85C114.72 180.77 114.48 181.69 114.25 182.61C114.2 182.83 114.15 183.04 114.1 183.26C113.93 183.98 113.77 184.71 113.62 185.43C113.53 185.85 113.45 186.26 113.37 186.68C113.28 187.18 113.19 187.68 113.1 188.17C112.99 188.8 112.89 189.42 112.8 190.05C112.78 190.18 112.76 190.31 112.74 190.44C112.74 190.44 112.15 199.64 112.15 203.56C112.15 207.48 113.32 215.88 113.32 215.88C113.48 216.75 113.66 217.61 113.85 218.48C113.89 218.65 113.92 218.81 113.96 218.98C114.11 219.63 113.15 214.79 113.31 215.43C113.41 215.83 103.32 225.74 103.43 226.14C103.54 226.55 117.12 228.94 117.23 229.34C117.41 229.97 115.46 224.59 115.66 225.22C115.71 225.39 115.77 225.55 115.82 225.72C116.09 226.56 116.37 227.39 116.67 228.21C119.55 236.22 123.76 243.85 129.3 250.75C129.7 251.25 130.11 251.75 130.52 252.24C130.84 252.62 131.17 253 131.5 253.38C131.78 253.7 132.07 254.03 132.36 254.35C132.85 254.9 133.35 255.44 133.87 255.97C134.02 256.13 134.18 256.3 134.34 256.46C135 257.14 135.75 257.74 136.37 258.48C138.96 261.56 146.58 268.45 151.66 270.88C151.66 270.88 159.03 274.41 161.53 275.33C164.51 276.43 172.91 278.6 173.56 278.72C174.34 278.86 173.74 278.72 173.74 278.72C174.14 278.81 175.84 279.08 176.24 279.16C177.2 279.36 181.42 279.73 182.39 279.9C182.55 279.93 182.71 279.96 182.87 279.98C189.54 280.7 193.27 280.53 200.62 280.03L214.04 291.16C214.13 291.14 218.92 275.36 219.01 275.33M142.28 279.05L265.11 213.76C265.08 213.91 265.06 214.07 265.03 214.22C264.87 215.13 264.69 216.04 264.5 216.95C264.42 217.33 264.34 217.72 264.25 218.1C264.08 218.83 263.9 219.56 263.71 220.29C263.57 220.83 263.42 221.37 263.27 221.91C263.27 221.92 263.27 221.93 263.27 221.94C263.16 222.33 263.04 222.72 262.92 223.1C262.67 223.91 262.42 224.72 262.15 225.53C262.04 225.85 261.92 226.17 261.81 226.5C261.52 227.32 261.22 228.14 260.9 228.95C260.68 229.51 260.45 230.07 260.22 230.62C260 231.14 259.77 231.66 259.54 232.18C259.2 232.95 258.85 233.71 258.48 234.45C258.35 234.73 258.2 235 258.07 235.27C257.62 236.16 257.16 237.04 256.68 237.91C256.61 238.03 256.54 238.15 256.47 238.28C252.09 246.06 246.42 252.86 239.83 258.49C239.79 258.52 239.76 258.55 239.72 258.58C238.89 259.29 238.04 259.98 237.17 260.65C236.96 260.81 236.76 260.97 236.55 261.13C235.87 261.65 235.18 262.15 234.48 262.64C233.94 263.03 233.39 263.4 232.83 263.77C232.46 264.02 232.09 264.26 231.72 264.5C230.95 264.99 230.18 265.47 229.4 265.94C229.22 266.05 229.03 266.16 228.85 266.27C227.95 266.79 227.05 267.3 226.13 267.78C226.01 267.84 225.89 267.9 225.77 267.97C224.83 268.46 223.89 268.93 222.94 269.38C222.76 269.46 222.58 269.55 222.4 269.63C221.54 270.03 220.67 270.41 219.79 270.77C219.39 270.94 218.99 271.1 218.59 271.25C217.95 271.5 217.31 271.75 216.66 271.98C215.9 272.26 215.13 272.53 214.35 272.78C214.08 272.87 213.81 272.95 213.54 273.04C212.59 273.34 211.63 273.62 210.67 273.89C210.58 273.91 210.5 273.94 210.41 273.96C200.29 276.67 189.49 277.29 178.66 275.47C178.51 275.44 178.35 275.42 178.2 275.39C177.29 275.23 176.38 275.05 175.47 274.86C175.09 274.78 174.71 274.7 174.32 274.61C173.59 274.44 172.86 274.26 172.13 274.07C171.59 273.93 171.05 273.78 170.51 273.63C170.5 273.63 170.49 273.63 170.48 273.63C170.08 273.52 169.68 273.39 169.29 273.27C168.49 273.03 167.69 272.78 166.89 272.51C166.56 272.4 166.24 272.28 165.91 272.17C165.09 271.88 164.28 271.58 163.47 271.26C162.91 271.04 162.35 270.81 161.79 270.58C161.27 270.36 160.75 270.13 160.23 269.9C159.46 269.56 158.7 269.21 157.95 268.84C157.68 268.71 157.4 268.57 157.13 268.43C156.24 267.98 155.36 267.52 154.49 267.04C154.37 266.97 154.25 266.9 154.13 266.84C146.35 262.46 139.54 256.79 133.92 250.19C133.89 250.15 133.86 250.12 133.83 250.08C133.12 249.25 132.43 248.4 131.76 247.53C131.6 247.33 131.44 247.12 131.29 246.92C130.77 246.24 130.27 245.54 129.77 244.84C129.38 244.3 129.01 243.75 128.64 243.2C128.39 242.83 128.15 242.46 127.91 242.09C127.42 241.32 126.94 240.55 126.47 239.77C126.36 239.59 126.25 239.4 126.14 239.22C125.62 238.32 125.11 237.42 124.63 236.5C124.57 236.38 124.51 236.26 124.45 236.15C123.96 235.21 123.49 234.27 123.04 233.31C122.96 233.13 122.88 232.95 122.79 232.78C122.39 231.92 122.01 231.05 121.65 230.17C121.49 229.77 121.33 229.38 121.17 228.98C120.92 228.34 120.67 227.7 120.44 227.05C120.16 226.29 119.89 225.52 119.64 224.74C119.55 224.47 119.47 224.2 119.38 223.93C119.08 222.98 118.8 222.02 118.53 221.06C118.51 220.97 118.48 220.89 118.46 220.8C115.75 210.68 115.13 199.88 116.95 189.05C116.98 188.9 117 188.74 117.03 188.59C117.19 187.68 117.37 186.77 117.56 185.86C117.64 185.48 117.72 185.1 117.81 184.72C117.98 183.99 118.16 183.26 118.35 182.53C118.49 181.99 118.64 181.45 118.79 180.91C118.79 180.9 118.79 180.89 118.79 180.88C118.91 180.47 119.03 180.07 119.15 179.67C119.39 178.87 119.64 178.08 119.91 177.29C120.02 176.96 120.14 176.63 120.26 176.3C120.55 175.49 120.85 174.68 121.16 173.88C121.38 173.31 121.62 172.74 121.85 172.18C122.07 171.67 122.29 171.15 122.52 170.64C122.86 169.87 123.22 169.11 123.58 168.36C123.71 168.09 123.85 167.82 123.99 167.54C124.44 166.65 124.9 165.77 125.39 164.9C125.46 164.78 125.53 164.66 125.59 164.54C129.97 156.76 135.64 149.95 142.24 144.33C142.27 144.3 142.31 144.27 142.34 144.24C143.18 143.53 144.03 142.84 144.89 142.17C145.09 142.01 145.29 141.86 145.49 141.7C146.18 141.18 146.87 140.67 147.58 140.17C148.12 139.79 148.67 139.41 149.22 139.04C149.59 138.79 149.96 138.55 150.34 138.3C151.1 137.81 151.87 137.33 152.64 136.87C152.83 136.76 153.02 136.64 153.21 136.53C154.1 136.01 155 135.51 155.91 135.03C156.03 134.97 156.15 134.9 156.27 134.84C157.2 134.35 158.15 133.88 159.1 133.44C159.28 133.35 159.47 133.27 159.65 133.18C160.51 132.79 161.37 132.41 162.24 132.04C162.64 131.87 163.04 131.71 163.45 131.55C164.09 131.3 164.72 131.05 165.37 130.82C166.14 130.54 166.91 130.27 167.68 130.01C167.95 129.92 168.22 129.84 168.49 129.76C169.44 129.46 170.4 129.17 171.37 128.91C171.45 128.89 171.54 128.87 171.62 128.84C181.74 126.13 192.54 125.5 203.38 127.33C203.53 127.36 203.69 127.38 203.84 127.41C204.75 127.57 205.66 127.75 206.57 127.94C206.95 128.02 207.33 128.1 207.71 128.19C208.44 128.36 209.17 128.54 209.9 128.73C210.44 128.87 210.98 129.02 211.52 129.17C211.53 129.17 211.54 129.17 211.55 129.17C211.95 129.28 212.35 129.41 212.74 129.53C213.54 129.77 214.34 130.02 215.14 130.29C215.47 130.4 215.79 130.52 216.12 130.63C216.94 130.92 217.75 131.22 218.56 131.54C219.12 131.76 219.68 131.99 220.24 132.22C220.76 132.44 221.28 132.67 221.8 132.9C222.57 133.24 223.33 133.59 224.08 133.96C224.35 134.09 224.63 134.23 224.9 134.37C225.79 134.82 226.67 135.28 227.54 135.76C227.66 135.83 227.78 135.9 227.9 135.97C235.68 140.35 242.48 146.02 248.11 152.61C248.14 152.65 248.17 152.68 248.2 152.72C248.91 153.55 249.6 154.4 250.27 155.26C250.43 155.47 250.59 155.67 250.75 155.88C251.27 156.56 251.77 157.25 252.26 157.95C252.65 158.49 253.02 159.04 253.39 159.59C253.64 159.96 253.88 160.33 254.12 160.7C254.61 161.46 255.09 162.24 255.55 163.01C255.66 163.2 255.77 163.38 255.88 163.57C256.4 164.47 256.91 165.37 257.39 166.29C257.45 166.41 257.51 166.53 257.58 166.64C258.07 167.58 258.54 168.52 258.99 169.48C259.07 169.66 259.15 169.84 259.24 170.01C259.64 170.87 260.02 171.74 260.38 172.62C260.54 173.02 260.7 173.41 260.86 173.81C261.11 174.45 261.36 175.1 261.6 175.75C261.88 176.51 262.15 177.28 262.4 178.05C262.49 178.32 262.57 178.59 262.66 178.87C262.96 179.82 263.24 180.78 263.5 181.74C263.52 181.83 263.55 181.92 263.57 182C266.28 192.12 266.9 202.92 265.08 213.75L142.28 279.05Z" fill="#B2B1B0"/>
</g>
<defs>
<filter id="filter0_d_204_1506" x="8.36141" y="31.89" width="373.144" height="372.653" filterUnits="userSpaceOnUse" color-interpolation-filters="sRGB">
<feFlood flood-opacity="0" result="BackgroundImageFix"/>
<feColorMatrix in="SourceAlpha" type="matrix" values="0 0 0 0 0 0 0 0 0 0 0 0 0 0 0 0 0 0 127 0" result="hardAlpha"/>
<feOffset dx="5.67" dy="14.17"/>
<feGaussianBlur stdDeviation="8.5"/>
<feColorMatrix type="matrix" values="0 0 0 0 0.137255 0 0 0 0 0.121569 0 0 0 0 0.12549 0 0 0 0.4 0"/>
<feBlend mode="normal" in2="BackgroundImageFix" result="effect1_dropShadow_204_1506"/>
<feBlend mode="normal" in="SourceGraphic" in2="effect1_dropShadow_204_1506" result="shape"/>
</filter>
<clipPath id="clip0_204_1506">
<rect width="374.17" height="396.85" fill="white"/>
</clipPath>
</defs>
</svg>
