<?xml version="1.0" encoding="UTF-8"?>
<svg id="Layer_3" data-name="Layer 3" xmlns="http://www.w3.org/2000/svg" viewBox="0 0 137.98 141.69">
  <defs>
    <style>
      .cls-1, .cls-2 {
        fill: none;
        stroke: #fff;
      }

      .cls-1, .cls-2, .cls-3 {
        stroke-miterlimit: 10;
      }

      .cls-4 {
        fill: #5a97cb;
      }

      .cls-4, .cls-5 {
        stroke-width: 0px;
      }

      .cls-2 {
        stroke-width: 2px;
      }

      .cls-5, .cls-3 {
        fill: #fff;
      }

      .cls-3 {
        stroke: #005178;
        stroke-width: 6px;
      }
    </style>
  </defs>
  <g>
    <circle class="cls-3" cx="69.99" cy="71.33" r="55.41"/>
    <circle class="cls-4" cx="69.99" cy="71.33" r="48.69"/>
  </g>
  <path class="cls-2" d="m79.68,99.49c0-1,.14-2.02-.03-2.99-.5-2.91.75-3.73,3.52-3.54,4.2.29,8.19-.29,9.92-4.96.45-1.22.55-2.65.51-3.97-.13-4.15-.78-8.3,4.98-9.61,1.56-.35,3.04-2.23,1.07-4.38-1.04-1.14-1.81-2.57-2.51-3.96-1.59-3.21-3.61-6.15-4.08-9.95-2.04-16.69-22.36-24.86-37.8-16.95-15.54,7.97-19.07,27.28-8.02,39.9,5.02,5.74,7.59,12.56,6.53,20.39"/>
  <g>
    <path class="cls-1" d="m67.84,45.93l-7.87,13.64c-.94,1.64.24,3.68,2.13,3.68h15.75c1.89,0,3.07-2.04,2.13-3.68l-7.87-13.64c-.94-1.64-3.31-1.64-4.25,0Z"/>
    <g>
      <rect class="cls-5" x="68.68" y="49.46" width="2.56" height="7.18" rx="1.28" ry="1.28"/>
      <circle class="cls-5" cx="69.96" cy="59.21" r="1.28"/>
    </g>
  </g>
</svg>