<?xml version="1.0" encoding="UTF-8"?>
<svg id="Layer_1" data-name="Layer 1" xmlns="http://www.w3.org/2000/svg" viewBox="0 0 120 120" width="100%" height="100%">
  <g>
    <circle cx="60" cy="60" r="55.41" style="fill: #fff; stroke: #005178; stroke-miterlimit: 10; stroke-width: 6px;"/>
    <circle cx="60" cy="60" r="48.69" style="fill: #5a97cb; stroke-width: 0px;"/>
    <circle cx="60" cy="60" r="55.41" style="fill: #fff; stroke: #005178; stroke-miterlimit: 10; stroke-width: 6px;"/>
    <circle cx="60" cy="60" r="48.69" style="fill: #5a97cb; stroke-width: 0px;"/>
  </g>
  <g>
    <path d="m64.22,55.14s2.09,4.43,2.8,5.38c.79,1.04,1.58,1.87,3.19,3.61,1.24,1.35,2.42,1.67,4.02,1.31,3.49-.78,6.99-1.54,10.48-2.34,1.91-.44,3.41-2.65,3-4.32-.5-2.02-2.32-2.91-4.66-2.34-2.38.59-4.75,1.18-7.16,1.63-.8.15-1.66.26-2.37-.76-1.4-2.04-3.02-8.39-3.7-9.6-1.27-2.25-2.7-3.69-4.94-4.67-1.11-.49-2.59-.61-3.78-.34-4.03.9-7.99,2.08-11.99,3.09-1.64.42-2.95,1.15-3.83,2.67-2.69,4.62-5.44,9.2-8.13,13.82-1.14,1.96-.49,4.22.99,5.14,1.62,1.01,3.82.27,4.98-1.66,2.17-3.6,4.57-7.09,6.4-10.86,1.06-2.19,2.16-2.02,3.32-2.31.62-.16,2.26-.3,2.26-.3-.33,1.83-.61,3.67-1.01,5.49-.79,3.56-1.65,7.1-2.48,10.65l-1.91,3.83c-.69,1.16-1.39,2.33-2.08,3.49-.89,1.51-2.16,2.6-3.65,3.51-2.58,1.56-5.12,3.18-7.65,4.83-.62.4-1.24.9-1.64,1.5-.55.83-.93,1.65-.41,2.83,1,2.27,2.94,3.21,5.03,1.96,3.31-1.99,6.55-4.09,9.83-6.13,1.55-.97,2.78-2.18,3.68-3.81.99-1.79,2.27-3.41,3.27-5.19.66-1.16,1.55-1.14,2.52-.8,2.62.92,5.2,1.98,7.83,2.87,1.4.48,1.85,1.5,1.97,2.77.07.71-.04,1.44-.06,2.16-.08,2.66-.23,5.32-.23,7.98,0,1.64,1.32,2.93,2.8,2.99,2.1.1,3.01-.62,3.32-2.66.11-.77.17-1.55.17-2.33.02-4.1-.06-8.21.04-12.31.05-2.03-.63-3.46-3.01-4.2-2.63-.82-5.16-1.95-7.86-3,.53-2.2,1.01-4.24,1.54-6.27.21-.79.74-2.33,1.02-3.11" style="fill: none; stroke: #fff; stroke-linecap: round; stroke-linejoin: round; stroke-width: 2px;"/>
    <circle cx="72.19" cy="36.26" r="5.98" style="fill: none; stroke: #fff; stroke-linecap: round; stroke-linejoin: round; stroke-width: 2px;"/>
  </g>
  <line x1="56.09" y1="34.25" x2="33.92" y2="34.25" style="fill: none; stroke: #fff; stroke-linecap: round; stroke-linejoin: round; stroke-width: 2px;"/>
  <line x1="39.36" y1="44.52" x2="25.67" y2="44.52" style="fill: none; stroke: #fff; stroke-linecap: round; stroke-linejoin: round; stroke-width: 2px;"/>
  <line x1="33.17" y1="54.78" x2="21.17" y2="54.78" style="fill: none; stroke: #fff; stroke-linecap: round; stroke-linejoin: round; stroke-width: 2px;"/>
  <line x1="29.52" y1="65.05" x2="22.62" y2="65.05" style="fill: none; stroke: #fff; stroke-linecap: round; stroke-linejoin: round; stroke-width: 2px;"/>
  <line x1="37.53" y1="75.31" x2="26.42" y2="75.31" style="fill: none; stroke: #fff; stroke-linecap: round; stroke-linejoin: round; stroke-width: 2px;"/>
</svg>