<?xml version="1.0" encoding="UTF-8"?>
<svg id="Layer_1" data-name="Layer 1" xmlns="http://www.w3.org/2000/svg" viewBox="0 0 120 120" width="100%" height="100%">
  <g>
    <g>
      <circle cx="60" cy="60" r="55.41" style="fill: #fff; stroke: #005178; stroke-miterlimit: 10; stroke-width: 6px;"/>
      <circle cx="60" cy="60" r="48.69" style="fill: #5a97cb; stroke-width: 0px;"/>
    </g>
    <path d="m68.47,89.9c0-.94.13-1.9-.02-2.82-.47-2.75.71-3.52,3.32-3.34,3.97.28,7.73-.27,9.37-4.68.43-1.15.52-2.5.48-3.75-.12-3.91-.74-7.84,4.71-9.07,1.47-.33,2.87-2.1,1.01-4.14-.98-1.07-1.71-2.42-2.37-3.74-1.51-3.03-3.41-5.81-3.85-9.39-1.93-15.76-21.12-23.48-35.7-16-14.68,7.52-18.01,25.77-7.58,37.68,4.74,5.42,7.17,11.86,6.16,19.25" style="fill: none; stroke: #fff; stroke-linecap: round; stroke-miterlimit: 10; stroke-width: 2px;"/>
    <path d="m55.41,58.73l-.56-8.42c-.11-1.64-.16-2.82-.16-3.53,0-.97.25-1.73.76-2.28s1.18-.82,2.01-.82c1.01,0,1.68.35,2.02,1.05s.51,1.7.51,3.01c0,.77-.04,1.56-.12,2.36l-.76,8.67c-.08,1.03-.26,1.82-.53,2.37s-.71.83-1.34.83-1.07-.27-1.32-.8-.42-1.34-.53-2.43Zm1.95,11.57c-.71,0-1.34-.23-1.87-.69s-.8-1.11-.8-1.94c0-.73.25-1.34.76-1.85s1.13-.76,1.87-.76,1.37.25,1.89.76.78,1.13.78,1.85c0,.82-.26,1.46-.79,1.93s-1.14.7-1.85.7Z" style="fill: none; stroke: #fff; stroke-miterlimit: 10;"/>
  </g>
  <path d="m51.79,45.83c-4.16,2.05-7.03,6.32-7.03,11.27s2.87,9.22,7.03,11.27" style="fill: none; stroke: #fff; stroke-linecap: round; stroke-miterlimit: 10;"/>
  <path d="m64.23,67.63c3.43-2.25,5.7-6.11,5.7-10.52s-2.27-8.27-5.7-10.52" style="fill: none; stroke: #fff; stroke-linecap: round; stroke-miterlimit: 10;"/>
</svg>