<svg width="76" height="76" viewBox="0 0 76 76" fill="none" xmlns="http://www.w3.org/2000/svg">
<path d="M18.4993 42.47C18.2593 40.77 18.2693 39.11 18.4993 37.38C18.0693 37.38 17.6493 37.38 17.2293 37.38C15.3193 37.36 13.8493 36.2 13.4493 34.34C13.3393 33.82 13.3693 33.26 13.3693 32.72C13.3693 31.91 13.2993 31.07 13.4393 30.28C13.7793 28.42 15.3093 27.22 17.2693 27.18C17.7093 27.18 18.1493 27.18 18.5893 27.18C18.3593 25.47 18.3393 23.82 18.5893 22.11C18.1193 22.11 17.6593 22.11 17.1893 22.11C15.5293 22.1 14.1393 21.12 13.5693 19.57C13.5193 19.44 13.4593 19.3 13.4493 19.16C13.3393 17.54 13.0993 15.9 13.6293 14.32C14.1093 12.9 15.5193 11.93 17.0193 11.91C18.7493 11.89 20.4793 11.9 22.2093 11.9C29.7993 11.9 37.3993 11.9 44.9893 11.9C46.6793 11.9 47.9393 12.63 48.6493 14.18C48.8493 14.61 48.9493 15.11 48.9693 15.58C49.0193 16.54 48.9993 17.5 48.9693 18.45C48.9693 18.79 48.8793 19.13 48.8193 19.53C49.2993 19.53 49.7593 19.53 50.2293 19.53C52.0193 19.56 53.4393 20.65 53.9393 22.36C53.9793 22.48 54.0093 22.61 54.0093 22.74C54.0093 23.97 54.0993 25.2 54.0093 26.42C53.8693 28.23 52.2493 29.68 50.4293 29.73C49.9093 29.74 49.3793 29.73 48.8793 29.73C48.9193 30.55 48.9393 31.31 48.9993 32.08C48.9993 32.16 49.2693 32.29 49.4093 32.29C51.3693 32.32 53.2793 32.67 55.1093 33.37C60.3793 35.4 64.0393 39.07 65.8593 44.42C69.0293 53.73 64.0793 63.74 54.7993 67C47.5793 69.53 39.3593 67.02 34.7993 60.86C34.5193 60.48 34.2293 60.32 33.7493 60.32C28.2593 60.34 22.7693 60.34 17.2793 60.32C15.3493 60.32 13.8693 59.15 13.4293 57.29C13.3593 57.02 13.3593 56.72 13.3493 56.44C13.3493 55.64 13.3493 54.84 13.3493 54.04C13.3293 52.76 13.8393 51.74 14.8293 50.95C15.0493 50.77 15.0493 50.64 14.9693 50.38C14.8093 49.87 14.6793 49.33 14.6393 48.8C14.5893 47.96 14.6093 47.11 14.6293 46.27C14.6793 44.17 16.1393 42.64 18.2393 42.49C18.3093 42.49 18.3793 42.47 18.4893 42.46L18.4993 42.47ZM64.2893 50.13C64.2793 41.7 57.4693 34.87 49.0593 34.86C40.6393 34.86 33.7293 41.73 33.7493 50.11C33.7693 58.61 40.5593 65.42 49.0193 65.42C57.4493 65.42 64.2993 58.56 64.2793 50.13H64.2893ZM36.2793 27.18C40.8493 27.18 45.4293 27.18 49.9993 27.18C51.1093 27.18 51.5493 26.73 51.5493 25.61C51.5493 24.94 51.5493 24.27 51.5493 23.59C51.5493 22.58 51.0693 22.1 50.0393 22.1C47.9493 22.1 45.8693 22.1 43.7793 22.1C36.6793 22.1 29.5693 22.1 22.4693 22.1C21.4693 22.1 20.9993 22.57 20.9893 23.56C20.9893 24.23 20.9893 24.9 20.9893 25.58C20.9893 26.75 21.4093 27.17 22.5893 27.17C27.1493 27.17 31.7093 27.17 36.2693 27.17L36.2793 27.18ZM31.1293 19.54C35.7293 19.54 40.3393 19.54 44.9393 19.54C45.9893 19.54 46.4393 19.1 46.4393 18.07C46.4393 17.36 46.4393 16.64 46.4393 15.93C46.4393 14.94 45.9893 14.48 44.9993 14.48C35.7793 14.48 26.5493 14.48 17.3293 14.48C16.3793 14.48 15.9193 14.95 15.9093 15.91C15.9093 16.6 15.9093 17.28 15.9093 17.97C15.9093 19.13 16.3293 19.55 17.4793 19.55C22.0293 19.55 26.5693 19.55 31.1193 19.55L31.1293 19.54ZM31.2193 29.75C26.5993 29.75 21.9793 29.75 17.3693 29.75C16.4193 29.75 15.9393 30.22 15.9293 31.17C15.9193 31.87 15.9293 32.57 15.9293 33.27C15.9293 34.37 16.3593 34.81 17.4593 34.81C24.7893 34.81 32.1293 34.81 39.4593 34.81C39.7193 34.81 39.9993 34.74 40.2293 34.61C41.8393 33.68 43.5693 33.07 45.3793 32.69C46.4593 32.46 46.4693 32.46 46.4593 31.33C46.4593 30.19 46.0193 29.76 44.8693 29.76C40.3193 29.76 35.7793 29.76 31.2293 29.76L31.2193 29.75ZM32.9193 57.78C32.1593 56.19 31.7493 54.6 31.4393 52.99C31.3893 52.73 31.2093 52.71 30.9893 52.71C26.4293 52.71 21.8693 52.71 17.2993 52.71C16.3893 52.71 15.9393 53.18 15.9293 54.09C15.9193 54.79 15.9293 55.49 15.9293 56.19C15.9293 57.35 16.3493 57.77 17.4993 57.77C22.4493 57.77 27.3993 57.77 32.3493 57.77H32.9193V57.78ZM31.8093 45.08C31.7293 45.08 31.6293 45.05 31.5393 45.05C27.2393 45.05 22.9393 45.05 18.6393 45.05C17.6693 45.05 17.2093 45.54 17.1893 46.52C17.1793 47.23 17.1893 47.95 17.1893 48.66C17.1993 49.67 17.6893 50.14 18.7093 50.14C22.7093 50.14 26.7093 50.14 30.7093 50.14C30.8593 50.14 31.0093 50.12 31.0893 50.12C31.3393 48.41 31.5693 46.77 31.8193 45.07L31.8093 45.08ZM36.4593 37.43C36.3393 37.4 36.3093 37.39 36.2793 37.39C31.6093 37.39 26.9393 37.39 22.2593 37.39C21.4093 37.39 20.9193 37.92 20.9093 38.78C20.8993 39.49 20.9093 40.21 20.9093 40.92C20.9093 42.02 21.3793 42.49 22.4693 42.49C25.7993 42.49 29.1293 42.49 32.4593 42.49C32.7893 42.49 32.9793 42.4 33.1393 42.1C33.9593 40.52 34.9693 39.07 36.1993 37.78C36.2893 37.68 36.3593 37.56 36.4693 37.41L36.4593 37.43Z" fill="#0B5079" stroke="#0B5079" stroke-miterlimit="10"/>
<path d="M61.76 50.1399C61.72 56.1899 57.41 61.4899 51.55 62.6499C44.93 63.9599 38.53 60.0199 36.72 53.4899C36.52 52.7499 36.41 51.9799 36.32 51.2199C36.22 50.4499 36.69 49.8499 37.38 49.7599C38.13 49.6599 38.75 50.1299 38.83 50.9299C39.03 52.7999 39.6 54.5399 40.73 56.0499C43.09 59.1999 46.24 60.6599 50.16 60.2299C54.46 59.7599 57.78 56.7799 58.88 52.5999C60.25 47.3799 57.04 41.7799 51.81 40.3499C50.9 40.0999 49.93 40.0499 48.98 39.9399C48.4 39.8699 47.97 39.5799 47.79 39.0499C47.62 38.5399 47.77 37.9799 48.21 37.6699C48.42 37.5199 48.71 37.3999 48.96 37.3999C55.09 37.4299 60.28 41.7099 61.47 47.7099C61.63 48.5099 61.66 49.3299 61.75 50.1299L61.76 50.1399Z" fill="#0B5079" stroke="#0B5079" stroke-miterlimit="10"/>
<path d="M50.2903 50.1598C50.2903 51.4498 50.3003 52.7298 50.2903 54.0198C50.2903 54.5998 49.8703 55.0798 49.3303 55.1898C48.7203 55.3198 48.1303 55.0598 47.9003 54.5198C47.8103 54.2998 47.7603 54.0498 47.7603 53.8098C47.7503 51.3498 47.7603 48.8898 47.7603 46.4298C47.7603 45.8398 47.9703 45.3498 48.5503 45.1298C49.0503 44.9398 49.5803 44.9798 49.9203 45.4198C50.1303 45.6898 50.2703 46.0798 50.2903 46.4198C50.3303 47.6598 50.3103 48.9098 50.3103 50.1498L50.2903 50.1598Z" fill="#0B5079" stroke="#0B5079" stroke-miterlimit="10"/>
<path d="M42.9109 39.1499C43.6109 39.1499 44.1709 39.6899 44.1909 40.3799C44.2109 41.0999 43.4109 41.8799 42.6509 41.8799C41.9609 41.8799 41.3809 41.2799 41.3809 40.5899C41.3809 39.8499 42.1209 39.1599 42.9109 39.1599V39.1499Z" fill="#0B5079" stroke="#0B5079" stroke-miterlimit="10"/>
</svg>
