<svg width="151" height="178" viewBox="0 0 151 178" fill="none" xmlns="http://www.w3.org/2000/svg">
<path opacity="0.24" d="M54.1906 104.19H108.541C110.081 104.19 111.331 102.99 111.331 101.5V74.6102C111.331 58.7302 97.8406 45.7402 81.3606 45.7402C64.8806 45.7402 51.3906 58.7302 51.3906 74.6102V101.5C51.3906 102.99 52.6406 104.19 54.1806 104.19H54.1906Z" fill="#005178"/>
<path opacity="0.24" d="M106.43 140.26H122.2V124.49C122.2 115.78 115.14 108.72 106.43 108.72H56.5298C47.8198 108.72 40.7598 115.78 40.7598 124.49V140.26H106.43Z" fill="#005178"/>
<path d="M74.7395 37.4502C58.2595 37.4502 44.7695 50.4402 44.7695 66.3202V93.2102C44.7695 94.7002 46.0195 95.9002 47.5595 95.9002H101.91C103.45 95.9002 104.7 94.7002 104.7 93.2102V66.3202C104.7 50.4402 91.2095 37.4502 74.7295 37.4502H74.7395Z" fill="#005178"/>
<path d="M115.571 116.2C115.571 107.49 108.511 100.43 99.8009 100.43H49.9009C41.1909 100.43 34.1309 107.49 34.1309 116.2V131.97H115.571" fill="#005178"/>
<path d="M75.1304 89.21C87.96 89.21 98.3604 78.8096 98.3604 65.98C98.3604 53.1504 87.96 42.75 75.1304 42.75C62.3008 42.75 51.9004 53.1504 51.9004 65.98C51.9004 78.8096 62.3008 89.21 75.1304 89.21Z" fill="white"/>
<path d="M62.5293 44.8499C72.2893 57.3699 84.9893 60.9999 100.269 59.6499L96.8493 47.8099L78.7693 38.1899L65.2893 41.8899L62.5293 44.8499Z" fill="#005178"/>
<path d="M72.1492 44.8501C66.4092 57.3701 58.9392 61.0001 49.9492 59.6501L51.9592 47.8101L63.2692 41.8901H70.5192L72.1392 44.8501H72.1492Z" fill="#005178"/>
</svg>
