<?xml version="1.0" encoding="UTF-8"?>
<svg id="Layer_1" data-name="Layer 1" xmlns="http://www.w3.org/2000/svg" viewBox="0 0 120 120" width="100%" height="100%">
  <g>
    <g>
      <circle cx="60" cy="60" r="55.41" style="fill: #fff; stroke: #005178; stroke-miterlimit: 10; stroke-width: 6px;"/>
      <circle cx="60" cy="60" r="48.69" style="fill: #5a97cb; stroke-width: 0px;"/>
    </g>
    <path d="m68.47,89.9c0-.94.13-1.9-.02-2.82-.47-2.75.71-3.52,3.32-3.34,3.97.28,7.73-.27,9.37-4.68.43-1.15.52-2.5.48-3.75-.12-3.91-.74-7.84,4.71-9.07,1.47-.33,2.87-2.1,1.01-4.14-.98-1.07-1.71-2.42-2.37-3.74-1.51-3.03-3.41-5.81-3.85-9.39-1.93-15.76-21.12-23.48-35.7-16-14.68,7.52-18.01,25.77-7.58,37.68,4.74,5.42,7.17,11.86,6.16,19.25" style="fill: none; stroke: #fff; stroke-linecap: round; stroke-miterlimit: 10; stroke-width: 2px;"/>
  </g>
  <g>
    <path d="m63.26,56.27c0,2.1-1.09,3.95-2.73,5.01-.49.32-1.04.57-1.62.74-.52.14-1.06.22-1.62.22-.72,0-1.4-.13-2.03-.36-.39-.14-.75-.31-1.1-.53-1.7-1.05-2.83-2.93-2.83-5.08,0-1.23.83-3.4,1.87-5.62.4-.85.83-1.71,1.26-2.53,1.44-2.79,2.83-5.13,2.83-5.13,0,0,1.28,2.15,2.65,4.78.47.89.94,1.83,1.38,2.77,1.07,2.27,1.93,4.49,1.93,5.74Z" style="fill: none; stroke: #fff; stroke-linecap: round; stroke-linejoin: round;"/>
    <path d="m54.16,61.35c-2.04-.03-4.01-1.1-5.09-2.99-.82-1.42-1.19-5.04-1.35-8.3-.16-3.27-.12-6.18-.12-6.18,0,0,3.61,2.01,6.87,4.24-.43.82-.86,1.68-1.26,2.53-1.04,2.23-1.87,4.39-1.87,5.62,0,2.15,1.13,4.03,2.83,5.08Z" style="fill: none; stroke: #fff; stroke-linecap: round; stroke-linejoin: round;"/>
    <path d="m55.26,61.88c-1.73.88-3.86.89-5.68-.16-2.85-1.65-8.51-11.81-8.51-11.81,0,0,3.19-.05,6.65.14.16,3.26.53,6.88,1.35,8.3,1.09,1.89,3.06,2.96,5.09,2.99.35.21.72.39,1.1.53Z" style="fill: none; stroke: #fff; stroke-linecap: round; stroke-linejoin: round;"/>
    <path d="m66.19,50.06c-.16,3.26-.53,6.88-1.35,8.3-.95,1.65-2.57,2.67-4.31,2.92,1.65-1.06,2.73-2.9,2.73-5.01,0-1.25-.86-3.47-1.93-5.74-.44-.94-.91-1.88-1.38-2.77,3.12-2.08,6.35-3.89,6.35-3.89,0,0,.04,2.91-.11,6.18Z" style="fill: none; stroke: #fff; stroke-linecap: round; stroke-linejoin: round;"/>
    <path d="m72.84,49.91s-5.67,10.16-8.52,11.81c-1.72.99-3.72,1.04-5.4.29.58-.16,1.12-.41,1.62-.74,1.74-.25,3.36-1.27,4.31-2.92.82-1.42,1.19-5.04,1.35-8.3,3.46-.19,6.65-.14,6.65-.14Z" style="fill: none; stroke: #fff; stroke-linecap: round; stroke-linejoin: round;"/>
  </g>
</svg>