<?xml version="1.0" encoding="UTF-8"?>
<svg id="Layer_1" data-name="Layer 1" xmlns="http://www.w3.org/2000/svg" viewBox="0 0 120 120" width="100%" height="100%">
  <g>
    <circle cx="60" cy="60" r="55.41" style="fill: #fff; stroke: #005178; stroke-miterlimit: 10; stroke-width: 6px;"/>
    <circle cx="60" cy="60" r="48.69" style="fill: #5a97cb; stroke-width: 0px;"/>
    <circle cx="60" cy="60" r="55.41" style="fill: #fff; stroke: #005178; stroke-miterlimit: 10; stroke-width: 6px;"/>
    <circle cx="60" cy="60" r="48.69" style="fill: #5a97cb; stroke-width: 0px;"/>
  </g>
  <circle cx="58.61" cy="36.9" r="6.43" style="fill: none; stroke: #e7e6e6; stroke-miterlimit: 10; stroke-width: 1.5px;"/>
  <path d="m76.55,31.34c-1.1-.8-2.63-.49-3.43.61l-9.37,13.78-7.78,1.16-12.99-10.47c-1.04-.86-2.63-.67-3.43.37-.86,1.04-.67,2.63.37,3.43l13.48,10.96,2.27,15.5c0,.06,0,.12.06.25l1.78,7.72-11.33,3.37c-1.53.43-2.39,2.08-1.9,3.55.37,1.23,1.53,2.02,2.76,2.02.25,0,.55-.06.8-.12l13.91-4.17c1.47-.43,2.33-1.9,1.96-3.37l-1.78-7.84,3.31-.49,5.39,6.86-6.43,10.23c-.86,1.35-.43,3.12.92,3.98.49.31.98.43,1.53.43.98,0,1.9-.49,2.45-1.35l7.47-11.88c.67-1.04.55-2.33-.18-3.31l-6.8-8.7-2.21-14.76,9.8-14.33c.8-1.1.55-2.63-.61-3.43Z" style="fill: none; stroke: #e7e6e6; stroke-miterlimit: 10; stroke-width: 1.5px;"/>
  <path d="m80.9,57.49h0c-.11,0-.22-.05-.29-.12-.08-.08-.12-.19-.11-.3v-.1s0-.05,0-.06c0-1.2-.29-7.17-5.37-7.17-.23,0-.41-.18-.41-.41s.18-.41.41-.41c5.08,0,5.36-5.97,5.37-7.17v-.15c0-.11.04-.22.11-.3.15-.16.44-.16.59,0,.08.08.12.19.12.3v.1s0,0,0,0c0,0,0,.01,0,.02,0,0,0,.02,0,.03,0,1.2.29,7.17,5.37,7.17.23,0,.41.18.41.41s-.18.41-.41.41c-5.08,0-5.36,5.97-5.37,7.17h0s0,.02,0,.03c0,0,0,.02,0,.03v.1c0,.11-.04.22-.11.3-.08.08-.18.12-.29.12Zm-3.49-8.15c2.06.82,3.03,2.75,3.49,4.48.46-1.73,1.44-3.66,3.49-4.48-2.06-.82-3.03-2.75-3.49-4.48-.46,1.73-1.44,3.66-3.49,4.48Z" style="fill: #fff; stroke: #fff; stroke-miterlimit: 10; stroke-width: .5px;"/>
  <path d="m27.26,54.69h0c-.09,0-.17-.04-.24-.11-.06-.07-.09-.16-.09-.26v-.09s0-.04,0-.05c0-1.05-.23-6.28-4.3-6.28-.18,0-.33-.16-.33-.36s.15-.36.33-.36c4.07,0,4.3-5.23,4.3-6.28v-.14c0-.1.03-.19.09-.26.12-.14.35-.14.47,0,.06.07.1.16.09.26v.09s0,0,0,0c0,0,0,.01,0,.02,0,0,0,.02,0,.02,0,1.05.23,6.28,4.3,6.28.18,0,.33.16.33.36s-.15.36-.33.36c-4.07,0-4.3,5.23-4.3,6.28h0s0,.02,0,.02c0,0,0,.02,0,.02v.09c0,.1-.03.19-.09.26-.06.07-.15.11-.24.11Zm-2.8-7.14c1.65.72,2.43,2.41,2.8,3.93.37-1.52,1.15-3.21,2.8-3.93-1.65-.72-2.43-2.41-2.8-3.93-.37,1.52-1.15,3.21-2.8,3.93Z" style="fill: #fff; stroke: #fff; stroke-miterlimit: 10; stroke-width: .5px;"/>
  <path d="m40.38,72.36h0c-.09,0-.19-.04-.25-.11-.07-.07-.1-.16-.1-.25v-.08s0-.04,0-.05c0-1.02-.24-6.12-4.58-6.12-.19,0-.35-.16-.35-.35s.16-.35.35-.35c4.34,0,4.58-5.1,4.58-6.12v-.13c0-.09.03-.19.1-.25.13-.14.37-.14.5,0,.07.07.1.16.1.25v.08s0,0,0,0c0,0,0,.01,0,.02,0,0,0,.02,0,.02,0,1.02.24,6.12,4.58,6.12.19,0,.35.16.35.35s-.16.35-.35.35c-4.34,0-4.58,5.1-4.58,6.12h0s0,.02,0,.02c0,0,0,.02,0,.02v.08c0,.09-.03.19-.1.25-.07.07-.16.11-.25.11Zm-2.98-6.96c1.76.7,2.59,2.35,2.98,3.83.39-1.48,1.23-3.12,2.98-3.83-1.76-.7-2.59-2.35-2.98-3.83-.39,1.48-1.23,3.12-2.98,3.83Z" style="fill: #fff; stroke: #fff; stroke-miterlimit: 10; stroke-width: .5px;"/>
  <path d="m92.17,73.41h0c-.09,0-.17-.04-.24-.11-.06-.07-.09-.16-.09-.26v-.09s0-.04,0-.05c0-1.05-.23-6.28-4.3-6.28-.18,0-.33-.16-.33-.36s.15-.36.33-.36c4.07,0,4.3-5.23,4.3-6.28v-.14c0-.1.03-.19.09-.26.12-.14.35-.14.47,0,.06.07.1.16.09.26v.09s0,0,0,0c0,0,0,.01,0,.02,0,0,0,.02,0,.02,0,1.05.23,6.28,4.3,6.28.18,0,.33.16.33.36s-.15.36-.33.36c-4.07,0-4.3,5.23-4.3,6.28h0s0,.02,0,.02c0,0,0,.02,0,.02v.09c0,.1-.03.19-.09.26-.06.07-.15.11-.24.11Zm-2.8-7.14c1.65.72,2.43,2.41,2.8,3.93.37-1.52,1.15-3.21,2.8-3.93-1.65-.72-2.43-2.41-2.8-3.93-.37,1.52-1.15,3.21-2.8,3.93Z" style="fill: #fff; stroke: #fff; stroke-miterlimit: 10; stroke-width: .5px;"/>
  <g>
    <path d="m23.81,73.97v.88c0,.28-.22.5-.5.5s-.5-.22-.5-.5v-.88c0-.28.22-.5.5-.5s.5.22.5.5Z" style="fill: #fff; stroke-width: 0px;"/>
    <path d="m22.8,72.01v-.88c0-.28.22-.5.5-.5s.5.22.5.5v.88c0,.28-.22.5-.5.5s-.5-.22-.5-.5Z" style="fill: #fff; stroke-width: 0px;"/>
    <path d="m22.8,73.01c0,.28-.22.5-.5.5h-.89c-.28,0-.5-.22-.5-.5s.22-.5.5-.5h.89c.28,0,.5.22.5.5Z" style="fill: #fff; stroke-width: 0px;"/>
    <path d="m25.15,73.51h-.88c-.28,0-.5-.22-.5-.5s.22-.5.5-.5h.88c.28,0,.5.22.5.5s-.22.5-.5.5h0Z" style="fill: #fff; stroke-width: 0px;"/>
  </g>
  <g>
    <path d="m98.7,52.46v.88c0,.28-.22.5-.5.5s-.5-.22-.5-.5v-.88c0-.28.22-.5.5-.5s.5.22.5.5Z" style="fill: #fff; stroke-width: 0px;"/>
    <path d="m97.7,50.5v-.88c0-.28.22-.5.5-.5s.5.22.5.5v.88c0,.28-.22.5-.5.5s-.5-.22-.5-.5Z" style="fill: #fff; stroke-width: 0px;"/>
    <path d="m97.7,51.5c0,.28-.22.5-.5.5h-.89c-.28,0-.5-.22-.5-.5s.22-.5.5-.5h.89c.28,0,.5.22.5.5Z" style="fill: #fff; stroke-width: 0px;"/>
    <path d="m100.04,52h-.88c-.28,0-.5-.22-.5-.5s.22-.5.5-.5h.88c.28,0,.5.22.5.5s-.22.5-.5.5h0Z" style="fill: #fff; stroke-width: 0px;"/>
  </g>
  <g>
    <path d="m88.91,82.84v.88c0,.28-.22.5-.5.5s-.5-.22-.5-.5v-.88c0-.28.22-.5.5-.5s.5.22.5.5Z" style="fill: #fff; stroke-width: 0px;"/>
    <path d="m87.91,80.88v-.88c0-.28.22-.5.5-.5s.5.22.5.5v.88c0,.28-.22.5-.5.5s-.5-.22-.5-.5Z" style="fill: #fff; stroke-width: 0px;"/>
    <path d="m87.91,81.88c0,.28-.22.5-.5.5h-.89c-.28,0-.5-.22-.5-.5s.22-.5.5-.5h.89c.28,0,.5.22.5.5Z" style="fill: #fff; stroke-width: 0px;"/>
    <path d="m90.25,82.38h-.88c-.28,0-.5-.22-.5-.5s.22-.5.5-.5h.88c.28,0,.5.22.5.5s-.22.5-.5.5h0Z" style="fill: #fff; stroke-width: 0px;"/>
  </g>
  <g>
    <path d="m43.89,25.95v.88c0,.28-.22.5-.5.5s-.5-.22-.5-.5v-.88c0-.28.22-.5.5-.5s.5.22.5.5Z" style="fill: #fff; stroke-width: 0px;"/>
    <path d="m42.89,23.99v-.88c0-.28.22-.5.5-.5s.5.22.5.5v.88c0,.28-.22.5-.5.5s-.5-.22-.5-.5Z" style="fill: #fff; stroke-width: 0px;"/>
    <path d="m42.89,24.99c0,.28-.22.5-.5.5h-.89c-.28,0-.5-.22-.5-.5s.22-.5.5-.5h.89c.28,0,.5.22.5.5Z" style="fill: #fff; stroke-width: 0px;"/>
    <path d="m45.23,25.49h-.88c-.28,0-.5-.22-.5-.5s.22-.5.5-.5h.88c.28,0,.5.22.5.5s-.22.5-.5.5h0Z" style="fill: #fff; stroke-width: 0px;"/>
  </g>
  <g>
    <path d="m67.93,21.23v.88c0,.28-.22.5-.5.5s-.5-.22-.5-.5v-.88c0-.28.22-.5.5-.5s.5.22.5.5Z" style="fill: #fff; stroke-width: 0px;"/>
    <path d="m66.93,19.27v-.88c0-.28.22-.5.5-.5s.5.22.5.5v.88c0,.28-.22.5-.5.5s-.5-.22-.5-.5Z" style="fill: #fff; stroke-width: 0px;"/>
    <path d="m66.93,20.27c0,.28-.22.5-.5.5h-.89c-.28,0-.5-.22-.5-.5s.22-.5.5-.5h.89c.28,0,.5.22.5.5Z" style="fill: #fff; stroke-width: 0px;"/>
    <path d="m69.27,20.77h-.88c-.28,0-.5-.22-.5-.5s.22-.5.5-.5h.88c.28,0,.5.22.5.5s-.22.5-.5.5h0Z" style="fill: #fff; stroke-width: 0px;"/>
  </g>
</svg>