<?xml version="1.0" encoding="UTF-8"?>
<svg id="Layer_1" data-name="Layer 1" xmlns="http://www.w3.org/2000/svg" viewBox="0 0 120 120" width="100%" height="100%">
  <g>
    <circle cx="60" cy="60" r="55.41" style="fill: #fff; stroke: #005178; stroke-miterlimit: 10; stroke-width: 6px;"/>
    <circle cx="60" cy="60" r="48.69" style="fill: #5a97cb; stroke-width: 0px;"/>
    <circle cx="60" cy="60" r="55.41" style="fill: #fff; stroke: #005178; stroke-miterlimit: 10; stroke-width: 6px;"/>
    <circle cx="60" cy="60" r="48.69" style="fill: #5a97cb; stroke-width: 0px;"/>
  </g>
  <path d="m70.15,87.72c0-.94.13-1.9-.02-2.82-.47-2.75.71-3.52,3.32-3.34,3.97.28,7.73-.27,9.37-4.68.43-1.15.52-2.5.48-3.75-.12-3.91-.74-7.84,4.71-9.07,1.47-.33,2.87-2.1,1.01-4.14-.98-1.07-1.71-2.42-2.37-3.74-1.51-3.03-3.41-5.81-3.85-9.39-1.93-15.76-21.12-23.48-35.7-16-14.68,7.52-18.01,25.77-7.58,37.68,4.74,5.42,7.17,11.86,6.16,19.25" style="fill: none; stroke: #fff; stroke-linecap: round; stroke-miterlimit: 10; stroke-width: 2px;"/>
  <g>
    <path d="m68.47,48.33h-6.45v-6.12c0-.46-.38-.84-.84-.84h-4.19c-.46,0-.84.38-.84.84v6.12h-6.45c-.46,0-.84.38-.84.84v4.19c0,.46.38.84.84.84h6.45v6.12c0,.46.38.84.84.84h4.19c.46,0,.84-.38.84-.84v-6.12h6.45c.46,0,.84-.38.84-.84v-4.19c0-.46-.38-.84-.84-.84Zm-.84,4.19h-6.45c-.46,0-.84.38-.84.84v6.12h-2.51v-6.12c0-.46-.38-.84-.84-.84h-6.45v-2.51h6.45c.46,0,.84-.38.84-.84v-6.12h2.51v6.12c0,.46.38.84.84.84h6.45v2.51Z" style="fill: #fff; stroke-width: 0px;"/>
    <path d="m59.09,33.58c-9.75,0-17.67,7.92-17.67,17.67s7.93,17.67,17.67,17.67,17.67-7.93,17.67-17.67-7.92-17.67-17.67-17.67Zm0,33.67c-8.82,0-16-7.18-16-16s7.18-16,16-16,16,7.18,16,16-7.18,16-16,16Z" style="fill: #fff; stroke-width: 0px;"/>
  </g>
</svg>