<?xml version="1.0" encoding="UTF-8"?>
<svg id="Layer_1" data-name="Layer 1" xmlns="http://www.w3.org/2000/svg" viewBox="0 0 120 120" width="100%" height="100%">
  <g>
    <circle cx="60" cy="60" r="55.41" style="fill: #fff; stroke: #005178; stroke-miterlimit: 10; stroke-width: 6px;"/>
    <circle cx="60" cy="60" r="55.41" style="fill: #fff; stroke: #005178; stroke-miterlimit: 10; stroke-width: 6px;"/>
    <circle cx="60.12" cy="60.07" r="48.69" style="fill: #5a97cb; stroke-width: 0px;"/>
  </g>
  <g>
    <path d="m59.98,40.72c1.99,0,3.62,1.64,3.62,3.62s-1.64,3.62-3.62,3.62-3.62-1.64-3.62-3.62,1.64-3.62,3.62-3.62m0-1.19c-2.65,0-4.82,2.17-4.82,4.82s2.17,4.82,4.82,4.82,4.82-2.17,4.82-4.82c.04-2.65-2.17-4.82-4.82-4.82h0Z" style="fill: #fff; stroke: #fff; stroke-miterlimit: 10; stroke-width: .25px;"/>
    <path d="m64.97,52.4c1.37,0,2.52,1.15,2.52,2.52v9.11c0,1.15-.8,2.17-1.9,2.48-.53.13-.88.62-.88,1.15v10.03c0,.88-.71,1.59-1.59,1.59h-6.28c-.88,0-1.59-.71-1.59-1.59v-10.03c0-.53-.35-1.02-.88-1.15-1.11-.27-1.9-1.28-1.9-2.48v-9.11c0-1.37,1.15-2.52,2.52-2.52h9.99m0-1.19h-9.99c-2.03,0-3.71,1.68-3.71,3.71v9.11c0,1.72,1.19,3.18,2.83,3.62v10.03c0,1.55,1.24,2.78,2.78,2.78h6.23c1.55,0,2.78-1.24,2.78-2.78v-10.03c1.64-.4,2.83-1.86,2.83-3.62v-9.11c-.04-2.03-1.72-3.71-3.76-3.71h0Z" style="fill: #fff; stroke: #fff; stroke-miterlimit: 10; stroke-width: .25px;"/>
  </g>
  <g>
    <path d="m24.01,44.5c-2.06,4.75-3.19,9.99-3.19,15.5s1.14,10.75,3.2,15.5m71.91,0c2.05-4.75,3.19-9.99,3.19-15.5s-1.13-10.75-3.19-15.5m-51.44,51.47c4.74,2.05,9.98,3.18,15.47,3.18s10.77-1.14,15.53-3.2m0-71.89c-4.76-2.07-10.01-3.21-15.53-3.21s-10.73,1.13-15.47,3.18" style="fill: none; stroke: #fff; stroke-linecap: round; stroke-miterlimit: 10; stroke-width: 1.5px;"/>
    <g>
      <line x1="20.83" y1="60" x2="33.72" y2="60" style="fill: none; stroke: #fff; stroke-linecap: round; stroke-miterlimit: 10; stroke-width: 1.5px;"/>
      <polyline points="28.51 54.17 34.33 60 28.51 65.82" style="fill: none; stroke: #fff; stroke-linecap: round; stroke-linejoin: round; stroke-width: 1.5px;"/>
    </g>
    <g>
      <line x1="60.06" y1="97.55" x2="60.06" y2="86.48" style="fill: none; stroke: #fff; stroke-linecap: round; stroke-miterlimit: 10; stroke-width: 1.5px;"/>
      <polyline points="54.22 91.7 60.05 85.87 65.87 91.7" style="fill: none; stroke: #fff; stroke-linecap: round; stroke-linejoin: round; stroke-width: 1.5px;"/>
    </g>
    <g>
      <line x1="98.61" y1="60.15" x2="86.53" y2="60.15" style="fill: none; stroke: #fff; stroke-linecap: round; stroke-miterlimit: 10; stroke-width: 1.5px;"/>
      <polyline points="91.75 65.98 85.92 60.15 91.75 54.33" style="fill: none; stroke: #fff; stroke-linecap: round; stroke-linejoin: round; stroke-width: 1.5px;"/>
    </g>
    <g>
      <line x1="60.2" y1="21.4" x2="60.2" y2="33.67" style="fill: none; stroke: #fff; stroke-linecap: round; stroke-miterlimit: 10; stroke-width: 1.5px;"/>
      <polyline points="66.03 28.45 60.21 34.28 54.38 28.45" style="fill: none; stroke: #fff; stroke-linecap: round; stroke-linejoin: round; stroke-width: 1.5px;"/>
    </g>
  </g>
  <path d="m60.06,56.67c-1.07-1.07-2.82-1.07-3.89,0s-1.07,2.82,0,3.89l3.89,3.89,3.89-3.89c1.07-1.07,1.07-2.82,0-3.89-1.07-1.07-2.82-1.07-3.89,0Z" style="fill: none; stroke: #fff; stroke-miterlimit: 10;"/>
</svg>