<?xml version="1.0" encoding="UTF-8"?>
<svg id="Layer_16" data-name="Layer 16" xmlns="http://www.w3.org/2000/svg" viewBox="0 0 137.98 141.69">
  <g>
    <circle cx="70.55" cy="71.33" r="55.41" style="fill: #fff; stroke: #005178; stroke-miterlimit: 10; stroke-width: 6px;"/>
    <circle cx="70.55" cy="71.33" r="48.69" style="fill: #5a97cb; stroke-width: 0px;"/>
  </g>
  <path d="m85.47,54.12c-.31-.2-.4-.62-.2-.93l2.71-4.19c.06-.09.14-.17.24-.22.33-.18.74-.06.92.27l.9,1.65,2.25-3.65s.03-.05.05-.08c.22-.3.64-.38.94-.16s.38.64.16.94l-2.86,4.66c-.06.1-.15.18-.25.24-.33.18-.74.06-.92-.27l-.92-1.69-2.11,3.24c-.12.19-.34.31-.57.31-.12,0-.24-.04-.35-.11Z" style="fill: #fff; stroke-width: 0px;"/>
  <path d="m64.32,49.12c-.31.2-.73.11-.93-.2l-2.74-4.16c-.06-.09-.1-.2-.11-.31-.03-.37.24-.7.62-.73l1.87-.15-2.43-3.53s-.04-.05-.05-.07c-.19-.32-.09-.74.24-.93s.74-.09.93.24l3.11,4.5c.07.1.1.21.12.32.03.37-.24.7-.61.73l-1.92.16,2.11,3.23c.13.19.15.43.05.64-.05.11-.14.21-.24.27Z" style="fill: #fff; stroke-width: 0px;"/>
  <path d="m75.09,48.93c-.36-.09-.59-.45-.5-.81l1.11-4.86c.03-.11.08-.21.15-.29.25-.28.67-.31.95-.06l1.41,1.24.86-4.2s.01-.06.02-.09c.1-.36.47-.57.83-.47s.57.47.47.83l-1.09,5.36c-.02.11-.08.22-.15.31-.25.28-.67.31-.95.07l-1.44-1.27-.87,3.76c-.05.22-.21.41-.43.48-.12.04-.24.04-.37.01Z" style="fill: #fff; stroke-width: 0px;"/>
  <path d="m54.33,55.11c-.2.31-.62.4-.93.2l-4.19-2.71c-.09-.06-.17-.14-.22-.24-.18-.33-.06-.74.27-.92l1.65-.9-3.65-2.25s-.05-.03-.08-.05c-.3-.22-.38-.64-.16-.94s.64-.38.94-.16l4.66,2.86c.1.06.18.15.24.25.18.33.06.74-.27.92l-1.69.92,3.24,2.11c.19.12.31.34.31.57,0,.12-.04.24-.11.35Z" style="fill: #fff; stroke-width: 0px;"/>
  <path d="m79.23,103.72c0-.8.11-1.61-.02-2.39-.4-2.33.6-2.98,2.81-2.83,3.36.24,6.55-.23,7.94-3.96.36-.98.44-2.12.41-3.18-.1-3.32-.62-6.64,3.99-7.69,1.25-.28,2.43-1.78.85-3.5-.83-.91-1.45-2.05-2-3.17-1.28-2.57-2.89-4.92-3.26-7.96-1.64-13.35-17.89-19.89-30.24-13.56-12.43,6.37-15.25,21.83-6.42,31.92,4.02,4.59,6.07,10.04,5.22,16.31" style="fill: none; stroke: #fff; stroke-miterlimit: 10; stroke-width: 1.6px;"/>
</svg>