<?xml version="1.0" encoding="UTF-8"?>
<svg id="Layer_1" data-name="Layer 1" xmlns="http://www.w3.org/2000/svg" viewBox="0 0 120 120" width="100%" height="100%">
  <g>
    <circle cx="60" cy="60" r="55.41" style="fill: #fff; stroke: #005178; stroke-miterlimit: 10; stroke-width: 6px;"/>
    <circle cx="60" cy="60" r="48.69" style="fill: #5a97cb; stroke-width: 0px;"/>
    <circle cx="60" cy="60" r="55.41" style="fill: #fff; stroke: #005178; stroke-miterlimit: 10; stroke-width: 6px;"/>
    <circle cx="60" cy="60" r="48.69" style="fill: #5a97cb; stroke-width: 0px;"/>
  </g>
  <g>
    <g>
      <rect x="38.75" y="80.89" width="14.44" height="7.62" rx="1.34" ry="1.34" style="fill: none; stroke: #fff; stroke-linecap: round; stroke-linejoin: round; stroke-width: 2px;"/>
      <circle cx="62.89" cy="34.71" r="4.88" style="fill: none; stroke: #fff; stroke-linecap: round; stroke-linejoin: round; stroke-width: 2px;"/>
      <path d="m55.46,49.6c-2.6,3.97-3.69,9.74-3.69,9.74-2.79,1.14-7.67,4.32-8.98,6.59-1.31,2.27-1.17,7.71.45,11.71,1.15,2.82,2.63,3.15,4.08,3.07,1.04-.06,3.09-.76,2.03-3.86-1.5-4.38-2.24-8.13-1.45-9.04s5.06-3.01,6.93-3.01,2.67,6.14,2.9,8.47c.23,2.33,1.36,16.09,6.25,14.95,0,0,2.84.34,1.42-4.21s-3.07-13.19-2.39-21.54c.68-8.36,4.49-12.79,4.49-12.79,0,0,3.13,2.84,2.33,4.6-.8,1.76-6.42,3.44-6.2,5.83.23,2.39,2.33,2.19,3.13,1.73s6.66-3.06,7.22-6.76c.42-2.78-.23-7.62-5.74-10.91s-12.24-.23-13.71.74c-1.48.97-6.01,3.24-2.54,12.16" style="fill: none; stroke: #fff; stroke-linecap: round; stroke-linejoin: round; stroke-width: 2px;"/>
    </g>
    <line x1="43.13" y1="57.19" x2="36.34" y2="59.01" style="fill: none; stroke: #fff; stroke-linecap: round; stroke-linejoin: round; stroke-width: 2px;"/>
    <line x1="83.76" y1="48.03" x2="76.96" y2="49.85" style="fill: none; stroke: #fff; stroke-linecap: round; stroke-linejoin: round; stroke-width: 2px;"/>
    <line x1="77.41" y1="37.03" x2="72.43" y2="42" style="fill: none; stroke: #fff; stroke-linecap: round; stroke-linejoin: round; stroke-width: 2px;"/>
    <line x1="72.43" y1="66.77" x2="77.41" y2="71.75" style="fill: none; stroke: #fff; stroke-linecap: round; stroke-linejoin: round; stroke-width: 2px;"/>
    <line x1="41.76" y1="38.11" x2="47.33" y2="42.4" style="fill: none; stroke: #fff; stroke-linecap: round; stroke-linejoin: round; stroke-width: 2px;"/>
    <line x1="76.96" y1="58.92" x2="83.76" y2="60.74" style="fill: none; stroke: #fff; stroke-linecap: round; stroke-linejoin: round; stroke-width: 2px;"/>
    <line x1="36.24" y1="47.89" x2="43.23" y2="48.71" style="fill: none; stroke: #fff; stroke-linecap: round; stroke-linejoin: round; stroke-width: 2px;"/>
  </g>
</svg>