<?xml version="1.0" encoding="UTF-8"?>
<svg id="Layer_20" data-name="Layer 20" xmlns="http://www.w3.org/2000/svg" viewBox="0 0 297.94 196.12">
  <g>
    <g>
      <circle cx="208.48" cy="79.69" r="55.41" style="fill: #fff; stroke: #005178; stroke-miterlimit: 10; stroke-width: 6px;"/>
      <circle cx="208.48" cy="79.69" r="48.69" style="fill: #5a97cb; stroke-width: 0px;"/>
    </g>
    <path d="m218.22,107.9c0-1,.14-2.02-.03-2.99-.5-2.91.75-3.73,3.52-3.54,4.2.29,8.19-.29,9.92-4.96.45-1.22.55-2.65.51-3.97-.13-4.15-.78-8.3,4.98-9.61,1.56-.35,3.04-2.23,1.07-4.38-1.04-1.14-1.81-2.57-2.51-3.96-1.59-3.21-3.61-6.15-4.08-9.95-2.04-16.69-22.36-24.86-37.8-16.95-15.54,7.97-19.07,27.28-8.02,39.9,5.02,5.74,7.59,12.56,6.53,20.39" style="fill: none; stroke: #fff; stroke-miterlimit: 10; stroke-width: 2px;"/>
    <text transform="translate(200.48 69.11)" style="fill: #fff; font-family: Calibri-Bold, Calibri; font-size: 15.53px; font-weight: 700;"><tspan x="0" y="0">?</tspan></text>
    <path d="m218.81,60.39c-.25-.57-.62-1.09-1.11-1.54-1.8-1.64-4.54-1.61-6.3.02-.65-.54-1.4-.97-2.22-1.24-.9-2.71-3.46-4.66-6.47-4.66-3.77,0-6.82,3.05-6.82,6.82-3.77,0-6.82,3.05-6.82,6.82s3.05,6.82,6.82,6.82c1.74,0,3.32-.65,4.52-1.72.83,1.52,2.47,2.52,4.31,2.44,1.94-.09,3.55-1.36,4.18-3.08.78.79,1.88,1.26,3.07,1.2,1.22-.06,2.28-.64,2.99-1.52.49.11,1,.17,1.53.14,3.08-.14,5.45-2.75,5.31-5.83-.09-2.05-1.28-3.78-2.98-4.67Z" style="fill: none; stroke: #fff; stroke-miterlimit: 10;"/>
  </g>
  <text transform="translate(58 66.28)" style="fill: #005178; font-family: Exo-Bold, &apos;Exo Bold&apos;; font-size: 38px; font-weight: 700;"><tspan x="0" y="0">1.55x</tspan></text>
  <text transform="translate(38.72 85.12)" style="fill: #005178; font-family: Exo-Regular, &apos;Exo Regular&apos;; font-size: 14px;"><tspan x="0" y="0">inc</tspan><tspan x="17.32" y="0" style="letter-spacing: 0em;">r</tspan><tspan x="21.76" y="0">eased </tspan><tspan x="58.94" y="0" style="letter-spacing: 0em;">r</tspan><tspan x="63.57" y="0">isk </tspan><tspan x="0" y="16.8">of de</tspan><tspan x="29.65" y="16.8" style="letter-spacing: 0em;">v</tspan><tspan x="36.24" y="16.8">eloping</tspan></text>
  <g>
    <rect x="38.72" y="108.88" width="106.19" height="27.61" style="fill: #5a97cb; stroke-width: 0px;"/>
    <text transform="translate(43.3 130.19)" style="fill: #fff; font-family: Exo-Medium, &apos;Exo Medium&apos;; font-size: 23px; font-weight: 500;"><tspan x="0" y="0">DIMENTIA</tspan></text>
  </g>
  <text transform="translate(38.72 152.6)" style="fill: #005178; font-family: Exo-Regular, &apos;Exo Regular&apos;; font-size: 15px;"><tspan x="0" y="0">if dia</tspan><tspan x="30.27" y="0" style="letter-spacing: 0em;">g</tspan><tspan x="38.56" y="0">nosed with P</tspan><tspan x="119.22" y="0" style="letter-spacing: 0em;">T</tspan><tspan x="126.58" y="0">SD [12]</tspan></text>
  <path d="m47.27,37.68l-8.55,10.42h5.35v20.06h6.55v-20.06h5.23s-8.56-10.4-8.57-10.42Z" style="fill: #5a97cb; stroke-width: 0px;"/>
</svg>