<svg width="76" height="76" viewBox="0 0 76 76" fill="none" xmlns="http://www.w3.org/2000/svg">
<path d="M42.5702 62.8299L15.2402 35.5099L15.7202 32.6699L24.0802 24.2999L26.8702 23.8799L54.2002 51.1999L42.5702 62.8299Z" stroke="#0B5079" stroke-width="5" stroke-miterlimit="10" stroke-linecap="round"/>
<path d="M23.796 24.5817L18.7402 19.5259L10.8913 27.3748L15.9472 32.4306L23.796 24.5817Z" stroke="#0B5079" stroke-width="5" stroke-miterlimit="10" stroke-linecap="round"/>
<path d="M52.8702 66.8001L45.7402 60.6701L51.0302 55.3701L58.1702 61.5101L52.8702 66.8001Z" stroke="#0B5079" stroke-width="4.17" stroke-miterlimit="10" stroke-linecap="round"/>
<path d="M40.1094 65.2902L56.1794 49.2202" stroke="#0B5079" stroke-width="5" stroke-miterlimit="10" stroke-linecap="round"/>
<path d="M49.6309 69.89L60.7909 58.73" stroke="#0B5079" stroke-width="5" stroke-miterlimit="10" stroke-linecap="round"/>
<path d="M14.5602 23.14L6.66016 15.25" stroke="#0B5079" stroke-width="5" stroke-miterlimit="10" stroke-linecap="round"/>
<path d="M20.0898 40.3599L23.2598 37.1899" stroke="#0B5079" stroke-width="5" stroke-miterlimit="10" stroke-linecap="round"/>
<path d="M31.8809 52.15L35.0509 48.98" stroke="#0B5079" stroke-width="5" stroke-miterlimit="10" stroke-linecap="round"/>
<path d="M38.5 58.7701L41.67 55.6001" stroke="#0B5079" stroke-width="5" stroke-miterlimit="10" stroke-linecap="round"/>
<path d="M49.8749 10.6639C46.7507 7.53975 41.6853 7.53975 38.5612 10.6639C35.437 13.7881 35.437 18.8535 38.5612 21.9777L52.7033 36.1198C55.8275 39.244 60.8928 39.244 64.017 36.1198C67.1412 32.9956 67.1412 27.9303 64.017 24.8061L49.8749 10.6639Z" stroke="#0B5079" stroke-width="5" stroke-miterlimit="10" stroke-linecap="round"/>
<path d="M45.6309 29.0502L56.9409 17.7402" stroke="#0B5079" stroke-width="5" stroke-miterlimit="10" stroke-linecap="round"/>
</svg>
