<svg width="76" height="76" viewBox="0 0 76 76" fill="none" xmlns="http://www.w3.org/2000/svg">
<path d="M18.2765 43.5459V40.6743H25.599V43.5459H18.2765ZM32.6251 49.1695C31.7636 49.1695 30.9979 49.0418 30.3278 48.7866C29.6737 48.5154 29.1234 48.0607 28.6767 47.4226C28.23 46.7685 27.8949 45.8751 27.6716 44.7424C27.4483 43.6097 27.3366 42.1739 27.3366 40.435C27.3366 38.6961 27.4802 37.2364 27.7673 36.0558C28.0704 34.8753 28.5092 33.926 29.0835 33.2081C29.6737 32.4902 30.3757 31.9797 31.1893 31.6766C32.0189 31.3576 32.9601 31.198 34.0131 31.198C34.7948 31.198 35.5845 31.2299 36.3821 31.2937C37.1798 31.3576 37.8977 31.4533 38.5358 31.5809V34.3807H34.3481C33.1516 34.3807 32.2741 34.7556 31.7158 35.5054C31.1574 36.2393 30.8782 37.3321 30.8782 38.7838C31.2611 38.6722 31.652 38.5924 32.0508 38.5445C32.4656 38.4807 32.9043 38.4408 33.3669 38.4249C33.8455 38.393 34.3481 38.377 34.8745 38.377C36.0391 38.377 36.9644 38.5445 37.6504 38.8796C38.3524 39.1986 38.8469 39.6692 39.1341 40.2914C39.4372 40.8977 39.5887 41.6156 39.5887 42.4451V44.9817C39.5887 45.9868 39.3973 46.7924 39.0144 47.3986C38.6475 48.0049 38.129 48.4516 37.459 48.7387C36.8049 49.0259 36.0551 49.1695 35.2096 49.1695H32.6251ZM33.343 45.9868H34.3959C34.7469 45.9868 35.042 45.9309 35.2813 45.8193C35.5206 45.7076 35.7041 45.5241 35.8317 45.2689C35.9753 45.0136 36.0471 44.6866 36.0471 44.2877V43.1152C36.0471 42.6525 35.9673 42.3015 35.8078 42.0622C35.6642 41.807 35.4329 41.6315 35.1138 41.5358C34.7948 41.4401 34.388 41.3922 33.8934 41.3922H30.8782C30.8782 42.3015 30.9261 43.0593 31.0218 43.6656C31.1175 44.2558 31.2691 44.7185 31.4765 45.0535C31.6839 45.3885 31.9391 45.6278 32.2422 45.7714C32.5453 45.915 32.9123 45.9868 33.343 45.9868ZM48.1658 49.1695C47.1926 49.1695 46.1716 49.1296 45.1027 49.0498C44.0339 48.97 43.0208 48.8823 42.0636 48.7866V45.9868H48.3094C48.8837 45.9868 49.3304 45.891 49.6494 45.6996C49.9845 45.5082 50.2158 45.2609 50.3434 44.9578C50.487 44.6387 50.5588 44.3117 50.5588 43.9766V42.7562C50.5588 42.1978 50.4152 41.7591 50.128 41.4401C49.8568 41.105 49.3942 40.9375 48.7401 40.9375H47.3522C46.8257 40.9375 46.4269 41.0492 46.1557 41.2726C45.9004 41.4799 45.7329 41.807 45.6531 42.2537H42.3029L42.8055 31.3416H53.4304V34.5243H45.8446L45.6531 38.736C45.8924 38.4807 46.2195 38.2893 46.6343 38.1617C47.065 38.0181 47.5436 37.9463 48.0701 37.9463H50.0084C50.9337 37.9463 51.6994 38.1297 52.3057 38.4967C52.9119 38.8636 53.3666 39.3661 53.6697 40.0043C53.9728 40.6264 54.1243 41.3284 54.1243 42.1101V44.7185C54.1243 45.7554 53.893 46.601 53.4304 47.2551C52.9677 47.9091 52.2977 48.3957 51.4203 48.7148C50.5428 49.0179 49.458 49.1695 48.1658 49.1695Z" fill="#0B5079"/>
<path d="M66.2208 38.92C66.2208 54.23 53.8108 66.63 38.5108 66.63C23.2108 66.63 10.8008 54.22 10.8008 38.92C10.8008 23.62 23.2108 11.21 38.5108 11.21" stroke="#0B5079" stroke-width="5" stroke-miterlimit="10" stroke-linecap="round"/>
<path d="M35.1801 5.32031L44.9001 11.9703L34.8301 17.7503" stroke="#0B5079" stroke-width="5" stroke-linecap="round" stroke-linejoin="round"/>
</svg>
