<svg width="76" height="76" viewBox="0 0 76 76" fill="none" xmlns="http://www.w3.org/2000/svg">
<path d="M38.2892 67.4299C37.7492 67.4299 37.2192 67.2299 36.7992 66.8099L13.4892 43.5299C6.26922 36.2799 6.26922 24.4899 13.4892 17.2399C20.2692 10.4599 30.9792 10.0199 38.2892 15.8899C45.5692 10.0199 56.3092 10.4599 63.0892 17.2399C70.3392 24.4899 70.3392 36.2699 63.0892 43.5299L39.7792 66.8399C39.3592 67.2599 38.8192 67.4599 38.2892 67.4599V67.4299ZM26.6492 16.0399C22.9692 16.0399 19.2792 17.4399 16.4992 20.2299C10.8992 25.8299 10.8992 34.9399 16.4992 40.5299L38.2892 62.3199L60.0792 40.5299C65.6792 34.9299 65.6792 25.8199 60.0792 20.2299C54.4792 14.6299 45.3692 14.6299 39.7792 20.2299C38.9692 21.0399 37.6192 21.0399 36.7992 20.2299C33.9892 17.4199 30.3292 16.0399 26.6492 16.0399Z" fill="#0B5079" stroke="#0B5079" stroke-width="0.75" stroke-miterlimit="10" stroke-linecap="round"/>
<path d="M38.2892 52.9799C37.8392 52.9799 37.3592 52.8399 36.9692 52.5299C36.0692 51.7999 35.8992 50.4799 36.6292 49.5799L40.9892 44.1499L32.6892 37.0399C32.1792 36.5899 31.8992 35.9399 31.9592 35.2699C32.0192 34.5999 32.3792 33.9999 32.9392 33.6399L42.2692 27.7899L36.5292 19.7799C35.8592 18.8199 36.0792 17.4999 37.0092 16.8299C37.9692 16.1599 39.2892 16.3799 39.9592 17.3099L46.9892 27.1499C47.3292 27.6299 47.4692 28.2199 47.3592 28.7799C47.2492 29.3399 46.9092 29.8499 46.3992 30.1599L37.5992 35.6699L45.2792 42.2499C46.1492 42.9799 46.2592 44.2699 45.5592 45.1699L39.9392 52.1999C39.5192 52.7399 38.8992 52.9899 38.2792 52.9899L38.2892 52.9799Z" fill="#0B5079" stroke="#0B5079" stroke-width="0.75" stroke-miterlimit="10" stroke-linecap="round"/>
</svg>
