<?xml version="1.0" encoding="UTF-8"?>
<svg id="Layer_1" data-name="Layer 1" xmlns="http://www.w3.org/2000/svg" viewBox="0 0 120 120" width="100%" height="100%">
  <g>
    <circle cx="60" cy="60" r="55.41" style="fill: #fff; stroke: #005178; stroke-miterlimit: 10; stroke-width: 6px;"/>
    <circle cx="60" cy="60" r="48.69" style="fill: #5a97cb; stroke-width: 0px;"/>
    <circle cx="60" cy="60" r="55.41" style="fill: #fff; stroke: #005178; stroke-miterlimit: 10; stroke-width: 6px;"/>
    <circle cx="60" cy="60" r="48.69" style="fill: #5a97cb; stroke-width: 0px;"/>
  </g>
  <path d="m81.61,42.07c3.82,0,6.85-.58,6.85-1.37,0-.43-.94-.79-2.38-1.01l-.79-2.45c-.22-.65-.79-1.08-1.51-1.08h-4.33c-.65,0-1.3.43-1.51,1.08l-.79,2.45c-1.44.22-2.38.65-2.38,1.01,0,.79,3.1,1.37,6.85,1.37Z" style="fill: #fff; stroke-width: 0px;"/>
  <path d="m34.31,48.19c1.91,0,3.47,1.57,3.47,3.47s-1.57,3.47-3.47,3.47-3.47-1.57-3.47-3.47,1.57-3.47,3.47-3.47m0-1.14c-2.54,0-4.62,2.08-4.62,4.62s2.08,4.62,4.62,4.62,4.62-2.08,4.62-4.62c.04-2.54-2.08-4.62-4.62-4.62h0Z" style="fill: #fff; stroke: #fff; stroke-miterlimit: 10; stroke-width: .75px;"/>
  <path d="m81.65,46.97c-1.76,0-3.3-1.08-3.77-2.64-.09-.3-.14-.6-.14-.91,0-.04.01-.05.06-.05.12,0,.24,0,.36,0,.07,0,.07,0,.07.06.01.62.21,1.18.58,1.69.51.68,1.2,1.12,2.07,1.31.35.08.71.09,1.07.07.57-.04,1.09-.21,1.57-.5.77-.47,1.27-1.12,1.47-1.95.05-.21.08-.42.08-.64,0-.04.01-.05.05-.05.13,0,.25,0,.38,0,.05,0,.05.01.05.05,0,.59-.16,1.14-.47,1.66-.45.76-1.12,1.3-1.99,1.63-.32.12-.65.2-1,.23-.15.01-.3.02-.45.03Z" style="fill: #fff; stroke: #fff; stroke-miterlimit: 10; stroke-width: 1.25px;"/>
  <g>
    <rect x="48.42" y="36.54" width="15.26" height="15.26" rx="7.63" ry="7.63" style="fill: none; stroke: #fff; stroke-linecap: round; stroke-linejoin: round; stroke-width: 2px;"/>
    <circle cx="55.86" cy="43.85" r="1.25" style="fill: #fff; stroke-width: 0px;"/>
    <polyline points="53.06 42.36 55.86 43.85 59.4 40.74" style="fill: none; stroke: #fff; stroke-linecap: round; stroke-miterlimit: 10;"/>
  </g>
  <path d="m86.55,50.75c1.35,0,2.48,1.13,2.48,2.48v8.98c0,1.13-.78,2.14-1.87,2.44-.52.13-.87.61-.87,1.13v9.89c0,.87-.7,1.57-1.57,1.57h-6.19c-.87,0-1.57-.7-1.57-1.57v-9.89c0-.52-.35-1-.87-1.13-1.09-.26-1.87-1.26-1.87-2.44v-8.98c0-1.35,1.13-2.48,2.48-2.48h9.85m0-1.18h-9.85c-2,0-3.66,1.66-3.66,3.66v8.98c0,1.7,1.18,3.14,2.79,3.57v9.89c0,1.53,1.22,2.75,2.75,2.75h6.14c1.53,0,2.75-1.22,2.75-2.75v-9.89c1.61-.39,2.79-1.83,2.79-3.57v-8.98c-.04-2-1.7-3.66-3.7-3.66h0Z" style="fill: #fff; stroke: #fff; stroke-miterlimit: 10; stroke-width: .75px;"/>
  <path d="m37.55,59.4c.89,0,1.64.75,1.64,1.64v5.93c0,.75-.52,1.41-1.24,1.61-.35.09-.58.4-.58.75v6.54c0,.58-.46,1.04-1.04,1.04h-4.09c-.58,0-1.04-.46-1.04-1.04v-6.54c0-.35-.23-.66-.58-.75-.72-.17-1.24-.84-1.24-1.61v-5.93c0-.89.75-1.64,1.64-1.64h6.51m0-.78h-6.51c-1.32,0-2.42,1.09-2.42,2.42v5.93c0,1.12.78,2.07,1.84,2.36v6.54c0,1.01.81,1.81,1.81,1.81h4.06c1.01,0,1.81-.81,1.81-1.81v-6.54c1.07-.26,1.84-1.21,1.84-2.36v-5.93c-.03-1.32-1.12-2.42-2.45-2.42h0Z" style="fill: #fff; stroke: #fff; stroke-miterlimit: 10;"/>
  <g>
    <line x1="49.36" y1="63.14" x2="65.25" y2="63.2" style="fill: none; stroke: #fff; stroke-linecap: round; stroke-linejoin: round; stroke-width: 2px;"/>
    <polyline points="61.91 66.82 65.68 63.08 61.9 59.27" style="fill: none; stroke: #fff; stroke-linecap: round; stroke-linejoin: round; stroke-width: 2px;"/>
  </g>
</svg>