<?xml version="1.0" encoding="UTF-8"?>
<svg id="Layer_1" data-name="Layer 1" xmlns="http://www.w3.org/2000/svg" viewBox="0 0 120 120" width="100%" height="100%">
  <g>
    <circle cx="60" cy="60" r="55.41" style="fill: #fff; stroke: #005178; stroke-miterlimit: 10; stroke-width: 6px;"/>
    <circle cx="60" cy="60" r="55.41" style="fill: #fff; stroke: #005178; stroke-miterlimit: 10; stroke-width: 6px;"/>
    <circle cx="60" cy="60" r="48.69" style="fill: #5a97cb; stroke-width: 0px;"/>
  </g>
  <g>
    <polygon points="45.9 52.24 45.9 39.4 56.36 39.4 56.36 52.24 51.13 48.05 45.9 52.24" style="fill: none; stroke: #fff; stroke-linecap: round; stroke-linejoin: round; stroke-width: 2px;"/>
    <path d="m51.13,70.24h-10.84c-3.49,0-6.32-2.83-6.32-6.32h0c0-3.49,2.83-6.32,6.32-6.32h16.45" style="fill: none; stroke: #fff; stroke-linecap: round; stroke-linejoin: round; stroke-width: 2px;"/>
    <path d="m40.29,57.6c-3.49,0-6.32-2.83-6.32-6.32h0c0-3.49,2.83-6.32,6.32-6.32h5.61" style="fill: none; stroke: #fff; stroke-linecap: round; stroke-linejoin: round; stroke-width: 2px;"/>
    <path d="m40.29,45.01c-3.49,0-6.32-2.83-6.32-6.32h0c0-3.49,2.83-6.32,6.32-6.32h38.77" style="fill: none; stroke: #fff; stroke-linecap: round; stroke-linejoin: round; stroke-width: 2px;"/>
    <line x1="56.36" y1="45.01" x2="79.06" y2="45.01" style="fill: none; stroke: #fff; stroke-linecap: round; stroke-linejoin: round; stroke-width: 2px;"/>
    <path d="m67.71,68.3s.96,1.73,3.6,1.73c2.45,0,3.36-1.73,3.36-1.73" style="fill: none; stroke: #fff; stroke-linecap: round; stroke-linejoin: round; stroke-width: 2px;"/>
    <path d="m71.31,70.03s-1.41-10.11,6.72-13.4" style="fill: none; stroke: #fff; stroke-linecap: round; stroke-linejoin: round; stroke-width: 2px;"/>
    <path d="m78.48,61.66s7.55,1.03,7.55,10.32-5.16,13.22-5.16,13.22c0,0-5.23,5.61-9.68-.39,0,0-4.9,5.74-9.29.84-4.39-4.9-6.52-10.85-5.39-16.49,1.13-5.64,5.99-7.24,7.64-7.51,3.03-.48,5.69,1.01,7.48,2.82" style="fill: none; stroke: #fff; stroke-linecap: round; stroke-linejoin: round; stroke-width: 2px;"/>
    <path d="m72.83,52.59h0c0,5.06-4.11,9.18-9.18,9.18h0c0-5.06,4.11-9.18,9.18-9.18Z" transform="translate(-2.32 111.46) rotate(-77.53)" style="fill: none; stroke: #fff; stroke-linecap: round; stroke-linejoin: round; stroke-width: 2px;"/>
  </g>
</svg>