<?xml version="1.0" encoding="UTF-8"?>
<svg id="Layer_1" data-name="Layer 1" xmlns="http://www.w3.org/2000/svg" viewBox="0 0 120 120" width="100%" height="100%">
  <g>
    <circle cx="60" cy="60" r="55.41" style="fill: #fff; stroke: #005178; stroke-miterlimit: 10; stroke-width: 6px;"/>
    <circle cx="60" cy="60" r="48.69" style="fill: #5a97cb; stroke-width: 0px;"/>
    <circle cx="60" cy="60" r="55.41" style="fill: #fff; stroke: #005178; stroke-miterlimit: 10; stroke-width: 6px;"/>
    <circle cx="60" cy="60" r="48.69" style="fill: #5a97cb; stroke-width: 0px;"/>
  </g>
  <path d="m77.51,34.9c.41,0,.63.25.66.74.02.36.03.72.03,1.09,0,5.21,0,10.42,0,15.63,0,5.18.02,10.35-.01,15.53,0,1.75-.18,3.49-.98,5.1-1.53,3.1-4.56,4.96-7.81,4.96-.66,0-1.33-.08-2-.24-4.09-.97-6.85-4.52-6.78-8.72.07-4.06,2.95-7.54,6.99-8.34.63-.12,1.25-.19,1.86-.19,1.71,0,3.33.5,4.84,1.52.34.23.59.36.76.36.26,0,.35-.28.35-.89.03-4.09.03-8.18,0-12.26,0-.74-.19-1.05-.73-1.05-.19,0-.43.04-.71.11-3.52.87-7.04,1.75-10.56,2.64-4.35,1.1-8.69,2.2-13.04,3.31-1.6.41-1.65.46-1.65,2.15,0,6.66.02,13.32-.02,19.98-.02,3.55-1.67,6.2-4.81,7.83-1.24.64-2.57.95-3.88.95-2.62,0-5.21-1.22-6.96-3.45-2.53-3.2-2.38-7.89.34-11.04,1.69-1.96,4.13-3,6.59-3,1.44,0,2.89.35,4.21,1.09.26.14.5.32.76.46.19.11.35.34.57.34.06,0,.13-.02.2-.07.29-.18.22-.53.22-.82,0-3.2,0-6.4,0-9.59,0-4.85,0-9.69,0-14.54,0-1.57.07-1.66,1.55-2.03,9.59-2.43,19.17-4.86,28.76-7.29.32-.08.64-.16.96-.23.1-.02.19-.03.27-.03m0-2h0c-.22,0-.45.02-.68.07-.35.07-.7.16-1.04.24l-28.76,7.29c-2.37.6-3.05,1.49-3.06,3.97,0,3.16,0,6.32,0,9.48v5.66c0,2.25,0,4.5,0,6.75-1.26-.5-2.61-.76-3.97-.76-3.12,0-6.08,1.35-8.11,3.69-3.37,3.9-3.54,9.61-.4,13.59,2.11,2.68,5.22,4.21,8.54,4.21,1.66,0,3.32-.41,4.81-1.18,3.82-1.99,5.86-5.3,5.88-9.59.03-4.56.02-9.18.02-13.66,0-2.11,0-4.22,0-6.33,0-.05,0-.11,0-.18.05-.01.1-.03.14-.04l3.77-.96c3.09-.78,6.17-1.57,9.26-2.35,3.17-.8,6.34-1.6,9.52-2.38.01,2.88.02,5.83,0,8.8-1.26-.52-2.59-.78-3.97-.78-.73,0-1.49.08-2.25.23-4.98.99-8.52,5.21-8.6,10.27-.09,5.11,3.33,9.51,8.32,10.7.81.19,1.64.29,2.47.29,4.07,0,7.75-2.33,9.6-6.07,1.04-2.1,1.18-4.29,1.19-5.98.02-3.69.02-7.44.01-11.07v-4.47c0-5.21,0-10.42,0-15.63,0-.35,0-.78-.03-1.21-.09-1.54-1.18-2.62-2.65-2.62h0Z" style="fill: #fff; stroke-width: 0px;"/>
</svg>