<?xml version="1.0" encoding="UTF-8"?>
<svg id="Layer_19" data-name="Layer 19" xmlns="http://www.w3.org/2000/svg" viewBox="0 0 297.94 196.12">
  <defs>
    <style>
      .cls-1 {
        letter-spacing: -.04em;
      }

      .cls-2 {
        letter-spacing: .02em;
      }

      .cls-3 {
        fill: #5a97cb;
      }

      .cls-3, .cls-4 {
        stroke-width: 0px;
      }

      .cls-5 {
        letter-spacing: -.09em;
      }

      .cls-6 {
        letter-spacing: 0em;
      }

      .cls-7 {
        fill: none;
        stroke: #fff;
        stroke-width: 2px;
      }

      .cls-7, .cls-8 {
        stroke-miterlimit: 10;
      }

      .cls-4, .cls-8, .cls-9 {
        fill: #fff;
      }

      .cls-10 {
        font-family: Exo-Bold, Exo;
        font-size: 23px;
        font-weight: 700;
      }

      .cls-10, .cls-11, .cls-12 {
        fill: #005178;
      }

      .cls-11 {
        font-size: 14px;
      }

      .cls-11, .cls-12 {
        font-family: Exo-Regular, Exo;
      }

      .cls-13 {
        letter-spacing: -.07em;
      }

      .cls-12 {
        font-size: 15px;
      }

      .cls-8 {
        stroke: #005178;
        stroke-width: 6px;
      }

      .cls-14 {
        letter-spacing: -.02em;
      }

      .cls-9 {
        font-family: Exo-Medium, Exo;
        font-size: 26px;
        font-weight: 500;
      }
    </style>
  </defs>
  <text class="cls-10" transform="translate(62.87 58.92)"><tspan x="0" y="0">2.</tspan><tspan class="cls-2" x="18.86" y="0">4</tspan><tspan class="cls-1" x="33.56" y="0">-</tspan><tspan class="cls-5" x="40.69" y="0">7</tspan><tspan class="cls-13" x="51.36" y="0">.</tspan><tspan x="55.13" y="0">1x</tspan></text>
  <text class="cls-11" transform="translate(55.21 78.5)"><tspan x="0" y="0">increased risk </tspan><tspan x="0" y="16.8">of d</tspan><tspan class="cls-6" x="25.06" y="16.8">e</tspan><tspan class="cls-14" x="32.5" y="16.8">v</tspan><tspan x="39.72" y="16.8">eloping</tspan></text>
  <g>
    <rect class="cls-3" x="27.65" y="102.95" width="119.41" height="34.16"/>
    <text class="cls-9" transform="translate(33.79 130.15)"><tspan x="0" y="0">ANXIETY</tspan></text>
  </g>
  <text class="cls-12" transform="translate(27.38 153.54)"><tspan x="0" y="0">if diagnosed with PTSD [9]</tspan></text>
  <path class="cls-3" d="m41.76,39.34l-16.47,20.07h10.31v38.64h12.61v-38.64h10.07s-16.48-20.04-16.51-20.07Z"/>
  <g>
    <g>
      <circle class="cls-8" cx="210.88" cy="78.85" r="55.41"/>
      <circle class="cls-3" cx="210.88" cy="78.85" r="48.69"/>
    </g>
    <path class="cls-7" d="m221.29,105.36c0-1,.14-2.02-.03-2.99-.5-2.91.75-3.73,3.52-3.54,4.2.29,8.19-.29,9.92-4.96.45-1.22.55-2.65.51-3.97-.13-4.15-.78-8.3,4.98-9.61,1.56-.35,3.04-2.23,1.07-4.38-1.04-1.14-1.81-2.57-2.51-3.96-1.59-3.21-3.61-6.15-4.08-9.95-2.04-16.69-22.36-24.86-37.8-16.95-15.54,7.97-19.07,27.28-8.02,39.9,5.02,5.74,7.59,12.56,6.53,20.39"/>
    <path class="cls-4" d="m212.83,53.99c-1.47-.55-2.8-1.61-4.42-1.67-1.32-.05-2.48.62-2.98,1.85-1.07,2.65,1.23,4.84,3.47,5.79,1.46.61,3.88.82,4.5,2.5.68,1.85-.79,3.54-2.27,4.42-1.56.92-3.43,1.45-5.15,2-.92.3-1.86.57-2.83.64-.75.05-1.57-.14-2.31.05-2.73.69-.87,4.28.6,5.31.83.58,2.08,1.08,2.98.35s.78-2.13.61-3.17c-.45-2.75-1.98-5.32-4.14-7.08-1.07-.87-2.4-1.28-3.46-2.11-1.21-.94-.61-2.2.47-2.96,1.01-.71,2.14-.76,3.18-.08,1.37.9,2.31,2.07,3.9,2.67,1.5.56,3.15.68,4.72.35,1.83-.39,3.27-1.65,5.06-2.14s4.38-.8,5.73.73c.23.26.64.21.88,0,1.4-1.22,2.94-2.86,2.33-4.89-.52-1.71-2.38-2.1-3.94-2.15-.94-.03-2.04.08-2.9-.39-1.38-.76-.66-2.26-.79-3.5-.21-2.01-2.42-2.72-4.16-2.87-1.95-.17-4.18.44-5.53,1.93-1.49,1.64-1.18,3.88-.41,5.78.85,2.1,2.05,4.08,3.79,5.57,1.62,1.39,3.62,2.38,5.01,4.04.95,1.14,1.75,3.2.07,4.13-1.13.63-2.64.88-3.89,1.12-1.33.25-3.12.67-4.27-.29-1.04-.87-1.33-2.3-1.34-3.59,0-2.35.75-4.75-.17-7.02-.73-1.78-2.33-3.03-4.09-3.72-2.06-.81-4.59-1.15-6.79-1.04-2.07.1-3.97.88-5.15,2.65-2.12,3.17-.91,7.76,2.33,9.67,1.68.99,3.8,1.19,5.66.62.82-.25,1.55-.66,2.23-1.17.95-.71,1.63-.33,2.39.44.52.53,1,1.1,1.42,1.71.72,1.05,1.6,2.4,1.47,3.73-.16,1.59-1.65,2.5-3.05,2.89-1.28.36-2.64.48-3.96.49-.56,0-1.41.11-1.93-.11-1.17-.5-.63-1.92-.2-2.65,1.27-2.14,4.05-2.91,6.27-3.57,2.01-.6,4.09-1.2,5.78-2.49s3.3-3.4,4.23-5.4c.42-.92.72-1.91.7-2.93-.03-1.26-.87-2.52-.67-3.76s1.58-2.22,2.54-2.87c1.08-.73,2.35-1.26,3.68-1.23,2.35.04,4.28,1.92,5.11,4,1.01,2.55.69,5.69-.15,8.25-.17.51-.41,1.26-.87,1.61-.93.72-1.66.33-2.38-.38-.91-.89-1.52-2.03-2.18-3.1-1.18-1.92-2.53-3.8-4.28-5.24-1.89-1.55-4.19-2.3-6.31-3.45-1.86-1.01-3.73-2.24-5.95-2.01-2.02.22-3.07,1.58-3.69,3.39-.4,1.18-.79,2.18-1.68,3.09-.86.87-1.89,1.54-2.82,2.33-1.48,1.27-2.8,3.05-2.44,5.11.14.82.57,1.5,1.17,2.07.55.52,2.02,1.18,2.17,1.97.13.7-.55.75-.96.71-.2-.02-.36-.05-.57-.05-.35,0-.7.08-1.02.22-.84.35-1.49,1.07-1.79,1.92-.59,1.65-.22,3.79,1.52,4.5s3.66.47,5.27-.25c1.88-.85,3.07-2.37,3.85-4.24.46-1.1.79-2.26,1.35-3.32s1.39-1.92,2.18-2.8c.6-.67,1.21-1.35,1.68-2.11.21-.35.4-.71.55-1.1.25-.64.3-2.15,1.1-2.35s.45-1.41-.33-1.21-1.23.71-1.49,1.46c-.23.65-.27,1.31-.56,1.94s-.68,1.15-1.1,1.65c-1.35,1.63-2.78,2.99-3.62,4.99-.93,2.22-1.49,4.56-3.78,5.77-2.03,1.08-6.39,1.27-5.54-2.2.2-.83.83-1.55,1.73-1.62.55-.04,1.04.18,1.6.08.7-.13,1.25-.6,1.32-1.33.18-1.85-1.9-2.59-2.9-3.73-2.12-2.44,1.2-4.96,2.93-6.33.84-.66,1.66-1.35,2.27-2.23s.87-1.94,1.24-2.95c1.18-3.22,4.44-2.1,6.71-.83s4.68,2.03,6.68,3.53c1.97,1.47,3.37,3.53,4.64,5.6.93,1.53,2.26,4.04,4.29,4.23,1.88.18,2.9-1.83,3.33-3.35.66-2.36.97-4.96.41-7.37-.85-3.69-4.21-6.81-8.17-5.95-2,.44-3.94,1.8-5.22,3.37-1.64,2.03.13,3.89-.1,6.1-.26,2.45-2.35,5.14-4.2,6.65-1.9,1.55-4.4,2.04-6.68,2.77-1.96.63-4,1.46-5.36,3.07-.98,1.16-1.85,3.32-.63,4.62.62.66,1.54.71,2.4.75,1.26.05,2.52-.03,3.77-.22,1.96-.3,4.05-1.05,5.01-2.93,1.02-1.99-.11-4.17-1.25-5.83-.85-1.24-2.43-3.56-4.2-3.29-1,.15-1.74,1.11-2.64,1.51-1.23.54-2.63.66-3.93.31-2.31-.61-3.97-2.75-4.15-5.12-.2-2.7,1.54-4.99,4.23-5.37,2.43-.35,5.57.06,7.76,1.18,2.58,1.32,3.24,3.6,3,6.34-.19,2.2-.58,4.56.71,6.53,1.2,1.82,3.13,1.98,5.13,1.69,1.89-.27,4.91-.59,6.23-2.18,1.25-1.5.62-3.59-.45-4.99-1.34-1.75-3.31-2.79-5-4.16-1.94-1.58-3.42-3.86-4.12-6.27-.46-1.58-.3-3.15,1.13-4.16,1.13-.79,2.6-1.09,3.96-.96.7.07,1.48.25,2.1.6.74.42.87,1.11.81,1.89-.06.92-.2,1.86.3,2.69.95,1.59,3.04,1.52,4.65,1.58,1.03.03,2.5.17,2.79,1.4.34,1.47-1.09,2.66-2.06,3.51h.88c-1.74-1.97-5.07-1.67-7.34-.93-1.39.45-2.56,1.39-3.95,1.84-1.54.5-3.26.43-4.77-.16-2.44-.95-3.93-3.99-6.9-3.02-2.04.66-4.07,3.25-2.23,5.16.84.87,2.09,1.24,3.08,1.88,1.34.87,2.47,2.08,3.28,3.46.74,1.25,1.27,2.72,1.37,4.18.07.96-.39,1.64-1.52,1.03-.75-.4-1.34-1.23-1.56-2.04-.39-1.43,1.07-1.14,1.92-1.16.64,0,1.28-.1,1.9-.23,1.7-.35,3.4-1.02,5.02-1.63,2.28-.86,4.81-2.35,5.14-5.02.14-1.12-.17-2.34-.98-3.16-1.21-1.23-3.23-1.37-4.74-2.09s-3.77-2.8-2.14-4.56c1.46-1.59,4.11.54,5.6,1.09.75.28,1.08-.93.33-1.21h0Z"/>
  </g>
</svg>