<?xml version="1.0" encoding="UTF-8"?>
<svg id="Layer_10" data-name="Layer 10" xmlns="http://www.w3.org/2000/svg" viewBox="0 0 137.98 141.69">
  <g>
    <circle cx="71.07" cy="71.33" r="55.41" style="fill: #fff; stroke: #005178; stroke-miterlimit: 10; stroke-width: 6px;"/>
    <circle cx="71.07" cy="71.33" r="48.69" style="fill: #5a97cb; stroke-width: 0px;"/>
  </g>
  <path d="m73.2,103.32c0-1,.14-2.02-.03-2.99-.5-2.91.75-3.73,3.52-3.54,4.2.29,8.19-.29,9.92-4.96.45-1.22.55-2.65.51-3.97-.13-4.15-.78-8.3,4.98-9.61,1.56-.35,3.04-2.23,1.07-4.38-1.04-1.14-1.81-2.57-2.51-3.96-1.59-3.21-3.61-6.15-4.08-9.95-2.04-16.69-22.36-24.86-37.8-16.95-15.54,7.97-19.07,27.28-8.02,39.9,5.02,5.74,7.59,12.56,6.53,20.39" style="fill: none; stroke: #fff; stroke-miterlimit: 10; stroke-width: 2px;"/>
  <polyline points="82.44 38.47 86.42 38.47 82.42 42.67 86.51 42.67" style="fill: none; stroke: #fff; stroke-linecap: round; stroke-linejoin: round;"/>
  <polyline points="86.64 46.31 90.62 46.31 86.62 50.51 90.71 50.51" style="fill: none; stroke: #fff; stroke-linecap: round; stroke-linejoin: round;"/>
  <polyline points="89.47 32.8 93.45 32.8 89.46 37 93.54 37" style="fill: none; stroke: #fff; stroke-linecap: round; stroke-linejoin: round;"/>
</svg>