<?xml version="1.0" encoding="UTF-8"?>
<svg id="Layer_1" data-name="Layer 1" xmlns="http://www.w3.org/2000/svg" viewBox="0 0 650 200">
  <path d="m49.35,79h554.16v81.09c0,10.99-8.92,19.91-19.91,19.91H69.25c-10.99,0-19.91-8.92-19.91-19.91v-81.09h0Z" style="fill: #c1daed; opacity: .5; stroke-width: 0px;"/>
  <path d="m603.13,73.65H48.98v-30.9c0-10.95,7.64-19.83,17.07-19.83h520.03c9.42,0,17.07,8.88,17.07,19.83v30.9Z" style="fill: #005178; stroke-width: 0px;"/>
  <text transform="translate(156.85 59.78)" style="fill: #fff; font-family: Exo-SemiBold, Exo; font-size: 26px; font-weight: 600;"><tspan x="0" y="0">Other t</tspan><tspan x="85.02" y="0" style="letter-spacing: -.02em;">r</tspan><tspan x="95.39" y="0">auma types in PTSD</tspan></text>
  <rect x="106.56" y="102.4" width="12.88" height="49.6" style="fill: #005178; stroke-width: 0px;"/>
  <path d="m273.53,121.03c-.8.14-1.49.24-2.16.39-1.73.39-3.2,1.3-4.6,2.35-1.9,1.43-3.81,2.85-5.7,4.29-.44.34-.82.76-1.29,1.2-.13-.32-.25-.62-.36-.91-.75-1.87-2.07-3.22-3.83-4.18-.32-.17-.63-.46-.79-.78-1.95-3.79-3.83-7.62-5.81-11.4-1.27-2.43-2.66-4.8-4-7.2-.08-.14-.15-.27-.22-.41-.2-.39-.07-.57.35-.5.71.12,1.42.26,2.12.4,1.87.38,3.74.75,5.61,1.15.5.11.66-.06.71-.54.28-2.56.58-5.11.88-7.67.02-.18.14-.34.21-.51.18.1.39.15.52.29,1.7,1.83,3.38,3.67,5.07,5.51q.58.63,1.14.03c1.66-1.81,3.32-3.62,5-5.41.16-.17.39-.28.59-.42.09.24.25.47.27.72.27,2.26.52,4.53.78,6.8.02.21.07.42.08.64.01.55.25.67.79.55,2.46-.52,4.92-1.01,7.39-1.49.21-.04.44.03.66.05-.06.21-.07.45-.18.64-1.21,2.18-2.44,4.35-3.66,6.52-.36.64-.34.69.31.99,2.25,1.03,4.5,2.05,6.74,3.09.21.1.38.29.58.44-.18.15-.35.35-.55.45-2.24,1.05-4.48,2.08-6.73,3.12-.7.33-.71.34-.34,1.02.13.23.25.47.42.79Z" style="fill: #5a97cb; stroke-width: 0px;"/>
  <path d="m245.66,148.06c-1.63,0-3.14.03-4.66-.02-.57-.02-1.01-.4-1.21-.96-.69-1.94-.95-3.93-.76-5.98.04-.43.24-.54.65-.53,1.75.02,3.51.01,5.26,0,1.3,0,1.92-.54,2.33-1.77.57-1.74,1.22-3.45,1.87-5.16.06-.17.36-.33.57-.35,2.39-.24,4.77-.49,7.16-.65,4.86-.31,9.73-.59,14.6-.84,3.33-.17,6.66-.26,9.99-.41.49-.02.62.14.62.62,0,5.15,0,10.3.03,15.44,0,.46-.09.65-.6.65-6.08-.02-12.17-.01-18.25-.01-.15,0-.3-.02-.54-.04.69-3.69-.24-6.83-3.21-9.19-1.71-1.36-3.72-1.96-5.9-1.79-2.72.2-4.92,1.42-6.53,3.63-1.6,2.19-1.94,4.66-1.41,7.37Zm27.99-10.51h0c1.11-.06,2.22-.13,3.32-.21.81-.06,1.36-.63,1.34-1.34-.02-.75-.63-1.3-1.46-1.26-1.48.08-2.96.19-4.43.32-.71.06-1.18.61-1.16,1.3.02.71.53,1.23,1.28,1.24.37,0,.74-.03,1.11-.05Z" style="fill: #005178; stroke-width: 0px;"/>
  <path d="m257.28,129.96c-.32.05-.52.1-.73.12-3.47.32-6.95.62-10.42.97-1.34.13-2.66.41-3.99.56-.59.07-1.19-.02-1.78-.02-3.57,0-7.14-.01-10.7,0-1.4,0-2.33.96-2.36,2.36-.01.84-.02,1.68,0,2.52.03,1.38.96,2.3,2.34,2.31,2.11.01,4.21,0,6.32,0,.23,0,.46,0,.71,0-.13,1.48-.25,2.89-.38,4.37-.14,0-.33.03-.52.03-6.22,0-12.44,0-18.66,0-2.28,0-4.16-1.64-4.51-3.89-.01-.09,0-.19,0-.35.26-.01.51-.04.75-.04,3.24,0,6.47,0,9.71,0,2.12,0,2.72-.6,2.71-2.7-.02-2.6-1.55-4.62-4.06-5.26-.5-.13-1.04-.14-1.57-.15-2.3-.01-4.6-.02-6.9,0-.51,0-.68-.1-.55-.66.5-2.25,2.56-4.05,4.89-4.21.17-.01.35-.02.53-.02,11.23,0,22.46,0,33.69,0,2.08,0,3.72.89,4.84,2.67.25.4.4.86.64,1.37Z" style="fill: #005178; stroke-width: 0px;"/>
  <path d="m218.23,123.24c.48-.9.91-1.7,1.34-2.51,1.01-1.89,2.03-3.78,3.02-5.68.52-.99,1.32-1.44,2.41-1.44,6.67,0,13.34,0,20.01,0,1.1,0,1.89.47,2.41,1.45,1.33,2.53,2.69,5.05,4.04,7.58.09.17.15.34.26.59h-33.48Z" style="fill: #005178; stroke-width: 0px;"/>
  <path d="m254.2,152c-3.43,0-6.19-2.72-6.21-6.13-.03-3.42,2.76-6.22,6.19-6.22,3.41,0,6.16,2.75,6.18,6.17.01,3.4-2.75,6.18-6.15,6.18Z" style="fill: #005178; stroke-width: 0px;"/>
  <path d="m263.78,129.59c.26-.27.38-.43.54-.55,1.59-1.25,3.18-2.51,4.79-3.73,1.37-1.05,2.96-1.55,4.67-1.62,2.57-.1,5.14-.16,7.71-.27.5-.02.63.15.62.63-.03,1.38-.03,2.77,0,4.15.01.47-.16.58-.6.6-5.24.21-10.47.44-15.71.67-.61.03-1.23.07-2.02.12Z" style="fill: #005178; stroke-width: 0px;"/>
  <path d="m212.55,136.23c0-.84-.02-1.65.02-2.47,0-.13.24-.36.38-.36,2.59-.02,5.18-.05,7.76.02,1.35.04,2.38,1.15,2.46,2.38.02.34-.06.5-.43.5-3.31-.01-6.62,0-9.92-.01-.05,0-.11-.03-.26-.06Z" style="fill: #005178; stroke-width: 0px;"/>
  <path d="m215.34,145.8c2.35,0,4.59,0,6.82,0,.38,0,.5.13.51.51.05,1.84-.95,2.89-2.79,2.9-.66,0-1.32,0-1.99,0-1.51-.02-2.52-1.02-2.55-2.53,0-.33,0-.65,0-.87Z" style="fill: #005178; stroke-width: 0px;"/>
  <path d="m246.34,133.68c-.51,1.4-.97,2.72-1.46,4.02-.05.13-.26.27-.39.27-1.52.01-3.03,0-4.55-.01-.03,0-.06-.04-.17-.11.38-1.2.79-2.41,1.8-3.28.27-.23.71-.3,1.08-.37.94-.17,1.88-.31,2.82-.45.26-.04.53-.04.88-.07Z" style="fill: #005178; stroke-width: 0px;"/>
  <path d="m212.62,125.36c-.55-.54-1.11-1.02-1.58-1.58-.67-.8-.57-2.02.17-2.76.75-.75,1.99-.84,2.81-.15.5.42.95.92,1.41,1.39.08.09.18.28.14.34-.3.5-.59,1.03-.98,1.46-.25.27-.67.38-.99.59-.33.21-.63.46-.98.72Z" style="fill: #005178; stroke-width: 0px;"/>
  <path d="m238.48,134.2c-.31.66-.54,1.21-.82,1.73-.07.13-.31.24-.47.24-2.28.02-4.56,0-6.84.01-.35,0-.47-.13-.49-.48-.08-1.5-.09-1.5,1.38-1.5,2.16,0,4.32,0,6.49,0h.75Z" style="fill: #005178; stroke-width: 0px;"/>
  <rect x="106.56" y="102.4" width="12.88" height="49.6" transform="translate(240.21 14.2) rotate(90)" style="fill: #005178; stroke-width: 0px;"/>
  <path d="m393.7,147.85c-6.62,0-12.3-.48-17.94-1.48-1.17-.21-2.34-.41-3.5-.63-1.04-.19-1.84-.72-2.41-1.64-.16-.25-.52-.44-.82-.53-3.42-1.05-6.69-2.44-9.61-4.54-2.61-1.88-4.73-4.17-5.74-7.31-.65-2.03-.65-4.11-.51-6.2.12-1.73.46-3.4,1.28-4.95,1.27-2.4,3.3-3.62,5.96-3.84,2.61-.22,5.09.41,7.48,1.38,1.34.55,2.65,1.19,3.93,1.86.51.27.96.32,1.51.17,3.67-.98,6.84-2.86,9.82-5.16,1.94-1.5,4.02-2.81,6.28-3.82,2.16-.97,4.29-1.03,6.48-.09,2.79,1.2,5.25,2.93,7.64,4.75,2.64,2.01,5.55,3.45,8.74,4.34.53.15.96.09,1.45-.18,2.72-1.5,5.55-2.72,8.65-3.17,1.62-.23,3.23-.23,4.8.31,2.33.8,3.78,2.48,4.52,4.76.99,3.04,1.12,6.17.36,9.27-.78,3.2-2.84,5.58-5.42,7.52-3.03,2.29-6.45,3.77-10.05,4.86-.49.15-.85.34-1.13.82-.47.81-1.27,1.18-2.17,1.37-6.76,1.38-13.58,2.14-19.6,2.11Zm22.34-7.1c.18,0,.27.02.34,0,3.53-1.14,6.86-2.66,9.68-5.13,1.67-1.46,2.96-3.2,3.42-5.4.44-2.1.44-4.25-.04-6.34-.78-3.41-2.57-4.69-6.05-4.4-2.66.22-5.06,1.25-7.41,2.43-.11.06-.19.31-.17.47.05.59.21,1.17.21,1.75.02,5.28.01,10.56.01,15.84v.78Zm-46.37-18.77c-1.9-1.19-6.24-2.76-8.82-2.54-2.33.19-3.85,1.35-4.49,3.6-.24.84-.38,1.72-.47,2.59-.45,4.15.68,7.68,4.06,10.35,1.94,1.54,4.06,2.75,6.34,3.69,1.01.41,2.05.77,3.2,1.2v-.86c0-5,0-9.99,0-14.99,0-.99.11-1.98.17-3.04Zm23.18-.78c-1.75.19-3.51.3-5.24.6-4.18.73-8.03,2.34-11.68,4.47-.89.52-1.17,1.24-.75,1.98.44.76,1.17.87,2.13.37,1.32-.7,2.63-1.42,3.99-2.02,6.7-2.94,13.55-3.39,20.51-1,2.31.79,4.49,1.87,6.59,3.11.74.44,1.52.24,1.93-.42.41-.66.21-1.47-.53-1.91-5.22-3.13-10.79-5.08-16.96-5.19Zm-1.01,12.98c4.82-.12,8.73-.21,12.64-.33,1.57-.05,3.15-.13,4.72-.24.94-.07,1.47-.78,1.3-1.64-.14-.69-.7-1.08-1.58-1.04-2.8.11-5.6.26-8.41.33-7.27.19-14.53.13-21.79-.25-.8-.04-1.6-.09-2.39-.08-.91.01-1.51.83-1.28,1.69.15.6.63.97,1.45,1,5.42.21,10.84.39,15.35.56Zm.85,6.63c0-.07,0-.13,0-.2,1.15,0,2.29.05,3.44,0,4.33-.21,8.66-.45,12.99-.71.98-.06,1.46-.67,1.38-1.51-.08-.78-.7-1.23-1.65-1.17-2.33.15-4.65.33-6.98.46-7.18.41-14.36.32-21.53-.2-1.31-.09-2.61-.21-3.92-.28-.77-.04-1.34.47-1.41,1.17-.08.76.37,1.35,1.13,1.49.3.05.61.1.91.12,5.21.28,10.42.55,15.63.82Z" style="fill: #005178; stroke-width: 0px;"/>
  <path d="m536.99,106.02c2.67.03,5.28.21,7.84.82,1.07.26,2.12.59,3.07,1.16.77.46,1.29,1.06,1.41,2.01.25,2,.57,4,.87,6,.29,1.95.58,3.89.87,5.84.34,2.28.67,4.56,1.01,6.84.17,1.17.33,2.33.53,3.49.08.43-.04.67-.41.87-1.02.55-2.12.83-3.24,1.04-3.51.68-7.07.85-10.63.94-.29,0-.39-.09-.38-.38,0-1.53,0-3.06,0-4.59,0-.26.07-.38.36-.44,2.38-.5,4.15-1.78,5.03-4.1,1.34-3.49-.28-7.63-3.97-8.89-3.74-1.27-8.05.78-8.85,5.07-.51,2.74.58,5.5,2.95,6.95.73.45,1.61.68,2.44.96.26.09.35.18.35.44,0,1.53-.01,3.06,0,4.59,0,.32-.12.39-.41.38-3.53-.06-7.05-.22-10.52-.85-1.14-.21-2.24-.6-3.36-.92-.36-.1-.48-.32-.42-.73.36-2.28.69-4.56,1.03-6.84.37-2.48.73-4.97,1.09-7.45.33-2.27.67-4.53,1.01-6.8.08-.54.18-1.07.23-1.61.06-.63.39-1.09.85-1.47.91-.74,2.01-1.12,3.12-1.42,2.68-.72,5.43-.9,8.15-.94Z" style="fill: #5a97cb; stroke-width: 0px;"/>
  <path d="m519.39,137.9c.26.13.43.22.6.3,1.88.92,3.88,1.43,5.93,1.77,4.27.71,8.58.87,12.9.79,3.01-.06,6.01-.22,8.98-.7,2.32-.38,4.6-.91,6.69-2.03.05-.03.12-.04.23-.08.01.18.03.33.03.48,0,1.98-.02,3.97.01,5.95,0,.59-.21,1-.71,1.22-.79.34-1.59.7-2.42.91-2.99.78-6.06,1.07-9.14,1.3-2.94.22-5.88.26-8.82.12-3.78-.19-7.55-.51-11.23-1.43-.82-.2-1.6-.57-2.38-.92-.47-.21-.68-.61-.67-1.16.03-2,.01-3.99.01-5.99v-.52Z" style="fill: #005178; stroke-width: 0px;"/>
  <path d="m537.06,139.18c-2.7-.17-5.41-.28-8.1-.54-2.56-.25-5.11-.68-7.53-1.62-.44-.17-.87-.41-1.27-.66-.4-.25-.42-.47-.2-.88.14-.25.28-.5.41-.75.1-.21.23-.23.44-.15,3.01,1.23,6.18,1.68,9.38,2,3.66.37,7.32.43,10.98.2,3.4-.21,6.79-.59,10.06-1.62.68-.21,1.33-.5,1.98-.78.22-.09.33-.06.44.14.17.32.35.64.52.96.22.41.18.72-.25.94-.72.37-1.47.72-2.24.97-1.94.63-3.95.95-5.96,1.2-2.87.37-5.75.49-8.64.49,0,.04,0,.07,0,.11Z" style="fill: #005178; stroke-width: 0px;"/>
  <path d="m536.21,125.31c0,.75,0,1.5,0,2.25,0,.32-.11.38-.4.31-2.24-.55-3.78-2.55-3.74-4.87.04-2.45,1.61-4.42,3.91-4.91,3.29-.69,6.29,1.89,6.1,5.25-.12,2.12-1.71,4.03-3.76,4.54-.32.08-.41-.03-.41-.34.01-1.48,0-2.95,0-4.43,0-.58-.28-.9-.77-.94-.53-.04-.91.27-.92.81-.02.78,0,1.55,0,2.33,0,0,0,0,0,0Z" style="fill: #5a97cb; stroke-width: 0px;"/>
  <path d="m537.93,100.19c0,.47.01.93,0,1.4-.02.6-.34.93-.87.93-.5,0-.84-.34-.84-.91-.02-.98-.02-1.97,0-2.95,0-.55.38-.9.87-.9.48,0,.82.35.84.88.02.52,0,1.04,0,1.55,0,0,0,0,0,0Z" style="fill: #005178; stroke-width: 0px;"/>
  <path d="m519.42,113.06c-.05.71-.67,1.16-1.26.85-.94-.49-1.86-1.02-2.77-1.57-.43-.26-.51-.74-.26-1.15.24-.39.7-.56,1.11-.33.93.51,1.85,1.04,2.75,1.6.19.12.29.4.43.6Z" style="fill: #005178; stroke-width: 0px;"/>
  <path d="m526.45,104.7c-.01.45-.23.71-.59.84-.36.13-.73.08-.94-.26-.57-.94-1.13-1.89-1.65-2.86-.22-.4-.02-.85.37-1.06.4-.22.86-.16,1.1.23.57.93,1.1,1.88,1.63,2.82.05.1.05.22.07.29Z" style="fill: #005178; stroke-width: 0px;"/>
  <path d="m547.69,104.64c.03-.08.09-.29.19-.46.45-.8.91-1.6,1.37-2.39.3-.52.79-.68,1.24-.43.44.25.56.77.27,1.29-.48.84-.96,1.69-1.46,2.52-.23.39-.6.52-1,.4-.36-.1-.6-.42-.61-.93Z" style="fill: #005178; stroke-width: 0px;"/>
  <path d="m555.69,114.01c-.46,0-.76-.24-.87-.61-.12-.4,0-.76.4-1,.78-.47,1.57-.91,2.35-1.36.1-.06.2-.12.3-.17.43-.2.93-.05,1.15.34.22.39.13.89-.27,1.13-.9.55-1.83,1.07-2.75,1.6-.11.06-.25.06-.31.08Z" style="fill: #005178; stroke-width: 0px;"/>
  <path d="m514.97,125.61c-.48,0-.96.01-1.44,0-.6-.02-.92-.34-.92-.87,0-.53.33-.84.94-.85.96-.01,1.92,0,2.87,0,.57,0,.91.32.92.83.02.53-.32.87-.9.89-.49.02-.98,0-1.47,0Z" style="fill: #005178; stroke-width: 0px;"/>
  <path d="m559.14,123.89c.49,0,.98-.01,1.47,0,.57.02.89.33.89.86,0,.52-.31.85-.89.86-.98.02-1.97.02-2.95,0-.57,0-.9-.35-.9-.86,0-.52.34-.85.93-.87.03,0,.05,0,.08,0,.45,0,.91,0,1.36,0h0Z" style="fill: #005178; stroke-width: 0px;"/>
  <g>
    <line x1="144" y1="127" x2="149.76" y2="127" style="fill: none; stroke: #005178; stroke-miterlimit: 10; stroke-width: 3.84px;"/>
    <line x1="159.66" y1="127" x2="194.29" y2="127" style="fill: none; stroke: #005178; stroke-dasharray: 0 0 9.9 9.9; stroke-miterlimit: 10; stroke-width: 3.84px;"/>
    <line x1="199.24" y1="127" x2="205" y2="127" style="fill: none; stroke: #005178; stroke-miterlimit: 10; stroke-width: 3.84px;"/>
  </g>
  <g>
    <line x1="287" y1="127" x2="292.76" y2="127" style="fill: none; stroke: #005178; stroke-miterlimit: 10; stroke-width: 3.84px;"/>
    <line x1="302.66" y1="127" x2="337.29" y2="127" style="fill: none; stroke: #005178; stroke-dasharray: 0 0 9.9 9.9; stroke-miterlimit: 10; stroke-width: 3.84px;"/>
    <line x1="342.24" y1="127" x2="348" y2="127" style="fill: none; stroke: #005178; stroke-miterlimit: 10; stroke-width: 3.84px;"/>
  </g>
  <g>
    <line x1="442" y1="127" x2="447.76" y2="127" style="fill: none; stroke: #005178; stroke-miterlimit: 10; stroke-width: 3.84px;"/>
    <line x1="457.66" y1="127" x2="492.29" y2="127" style="fill: none; stroke: #005178; stroke-dasharray: 0 0 9.9 9.9; stroke-miterlimit: 10; stroke-width: 3.84px;"/>
    <line x1="497.24" y1="127" x2="503" y2="127" style="fill: none; stroke: #005178; stroke-miterlimit: 10; stroke-width: 3.84px;"/>
  </g>
</svg>