<?xml version="1.0" encoding="UTF-8"?>
<svg id="Layer_1" data-name="Layer 1" xmlns="http://www.w3.org/2000/svg" viewBox="0 0 120 120" width="100%" height="100%">
  <g>
    <circle cx="60" cy="60" r="55.41" style="fill: #fff; stroke: #005178; stroke-miterlimit: 10; stroke-width: 6px;"/>
    <circle cx="60" cy="60" r="48.69" style="fill: #5a97cb; stroke-width: 0px;"/>
  </g>
  <path d="m72.68,57.72v18.92c0,1.44-1.17,2.61-2.61,2.61h-26.44l-4.78,6.18-4.78-6.18h-4.81c-1.44,0-2.6-1.17-2.6-2.61v-18.92c0-1.44,1.16-2.6,2.6-2.6h40.81c1.44,0,2.61,1.16,2.61,2.6Z" style="fill: none; stroke: #fff; stroke-miterlimit: 10; stroke-width: 2px;"/>
  <path d="m81.61,41.16v6.66h-28.71c-1.44,0-2.61,1.17-2.61,2.61v4.69h-14.7v-13.96c0-1.44,1.17-2.61,2.61-2.61h40.81c1.44,0,2.6,1.17,2.6,2.61Z" style="fill: none; stroke: #fff; stroke-miterlimit: 10; stroke-width: 2px;"/>
  <path d="m96.31,50.43v18.92c0,1.44-1.16,2.6-2.6,2.6h-4.81l-4.79,6.18-4.78-6.18h-6.65v-14.23c0-1.39-1.09-2.52-2.46-2.59-.05-.01-.1-.01-.15-.01h-19.78v-4.69c0-1.44,1.17-2.61,2.61-2.61h40.81c1.44,0,2.6,1.17,2.6,2.61Z" style="fill: none; stroke: #fff; stroke-miterlimit: 10; stroke-width: 2px;"/>
  <path d="m45.59,63.75c0-.56.18-1.12.54-1.69.36-.57.88-1.04,1.56-1.42s1.49-.56,2.4-.56c.85,0,1.6.16,2.25.47.65.31,1.15.74,1.51,1.28s.53,1.12.53,1.76c0,.5-.1.93-.3,1.31s-.44.7-.72.97c-.28.27-.78.73-1.5,1.38-.2.18-.36.34-.48.48-.12.14-.21.26-.27.38-.06.11-.1.23-.14.34-.03.12-.08.32-.15.6-.11.61-.46.91-1.05.91-.3,0-.56-.1-.77-.3s-.31-.5-.31-.89c0-.49.08-.92.23-1.28.15-.36.35-.68.61-.95.25-.27.59-.6,1.02-.97.38-.33.65-.58.81-.74.17-.17.31-.35.42-.56s.17-.43.17-.67c0-.47-.17-.86-.52-1.19s-.8-.48-1.35-.48c-.64,0-1.12.16-1.42.49-.3.32-.56.8-.77,1.44-.2.66-.58.99-1.13.99-.33,0-.6-.12-.83-.35-.23-.23-.34-.48-.34-.75Zm4.29,10.63c-.36,0-.67-.12-.94-.35-.27-.23-.4-.56-.4-.97,0-.37.13-.68.39-.93s.57-.38.95-.38.68.13.93.38.38.56.38.93c0,.41-.13.73-.4.97s-.57.35-.91.35Z" style="fill: none; stroke: #fff; stroke-miterlimit: 10; stroke-width: .75px;"/>
  <path d="m32.58,63.75c0-.56.18-1.12.54-1.69.36-.57.88-1.04,1.56-1.42s1.49-.56,2.4-.56c.85,0,1.6.16,2.25.47.65.31,1.15.74,1.51,1.28s.53,1.12.53,1.76c0,.5-.1.93-.3,1.31s-.44.7-.72.97c-.28.27-.78.73-1.5,1.38-.2.18-.36.34-.48.48-.12.14-.21.26-.27.38-.06.11-.1.23-.14.34-.03.12-.08.32-.15.6-.11.61-.46.91-1.05.91-.3,0-.56-.1-.77-.3s-.31-.5-.31-.89c0-.49.08-.92.23-1.28.15-.36.35-.68.61-.95.25-.27.59-.6,1.02-.97.38-.33.65-.58.81-.74.17-.17.31-.35.42-.56s.17-.43.17-.67c0-.47-.17-.86-.52-1.19s-.8-.48-1.35-.48c-.64,0-1.12.16-1.42.49-.3.32-.56.8-.77,1.44-.2.66-.58.99-1.13.99-.33,0-.6-.12-.83-.35-.23-.23-.34-.48-.34-.75Zm4.29,10.63c-.36,0-.67-.12-.94-.35-.27-.23-.4-.56-.4-.97,0-.37.13-.68.39-.93s.57-.38.95-.38.68.13.93.38.38.56.38.93c0,.41-.13.73-.4.97s-.57.35-.91.35Z" style="fill: none; stroke: #fff; stroke-miterlimit: 10; stroke-width: .75px;"/>
  <path d="m84.95,64.9c-.25-.25-.56-.37-.93-.37s-.69.12-.95.37c-.26.26-.39.57-.39.93,0,.42.14.75.4.98.27.23.58.34.94.34s.65-.11.91-.35c.27-.23.4-.55.4-.97,0-.36-.13-.67-.38-.93Zm3.04-10.3c-.36-.54-.86-.97-1.51-1.28-.65-.32-1.4-.47-2.25-.47-.91,0-1.71.18-2.4.56-.68.37-1.21.85-1.56,1.42-.36.57-.54,1.13-.54,1.69,0,.27.11.52.34.75.22.23.5.35.83.35.56,0,.93-.33,1.13-.99.21-.64.47-1.12.78-1.44.3-.33.78-.49,1.42-.49.55,0,1,.16,1.35.48.35.33.52.72.52,1.19,0,.24-.05.46-.17.67-.11.2-.25.39-.42.56-.17.16-.44.41-.81.74-.43.37-.77.7-1.02.97-.26.27-.46.59-.61.95-.15.36-.23.79-.23,1.28,0,.39.11.69.31.89.21.2.47.3.77.3.59,0,.94-.31,1.05-.92.06-.29.11-.49.14-.6.04-.11.08-.23.14-.34.06-.12.15-.24.27-.38s.28-.3.48-.48c.72-.64,1.22-1.1,1.5-1.38.27-.27.51-.59.72-.97.2-.37.3-.81.3-1.31,0-.63-.18-1.22-.53-1.75Z" style="fill: none; stroke: #fff; stroke-miterlimit: 10; stroke-width: .75px;"/>
  <path d="m75.33,54.6c-.35-.54-.85-.97-1.5-1.28-.65-.32-1.4-.47-2.25-.47-.92,0-1.72.18-2.4.56-.69.37-1.21.85-1.57,1.42-.06.1-.11.19-.16.29h2.62s.1,0,.15.01h.01c.31-.3.75-.43,1.35-.43.55,0,1,.16,1.35.48.34.33.52.72.52,1.19,0,.11-.01.22-.04.33-.03.11-.07.23-.13.34-.12.2-.26.39-.42.56-.05.05-.11.1-.18.17v2.96c.04-.08.11-.15.18-.24.12-.14.28-.3.48-.48.1-.09.19-.17.28-.25.57-.51.98-.89,1.22-1.13.28-.27.52-.59.72-.97.2-.37.31-.81.31-1.31,0-.63-.18-1.22-.54-1.75Z" style="fill: none; stroke: #fff; stroke-miterlimit: 10; stroke-width: .75px;"/>
  <path d="m58.6,63.75c0-.56.18-1.12.54-1.69.36-.57.88-1.04,1.56-1.42s1.49-.56,2.4-.56c.85,0,1.6.16,2.25.47.65.31,1.15.74,1.51,1.28s.53,1.12.53,1.76c0,.5-.1.93-.3,1.31s-.44.7-.72.97c-.28.27-.78.73-1.5,1.38-.2.18-.36.34-.48.48-.12.14-.21.26-.27.38-.06.11-.1.23-.14.34-.03.12-.08.32-.15.6-.11.61-.46.91-1.05.91-.3,0-.56-.1-.77-.3s-.31-.5-.31-.89c0-.49.08-.92.23-1.28.15-.36.35-.68.61-.95.25-.27.59-.6,1.02-.97.38-.33.65-.58.81-.74.17-.17.31-.35.42-.56s.17-.43.17-.67c0-.47-.17-.86-.52-1.19s-.8-.48-1.35-.48c-.64,0-1.12.16-1.42.49-.3.32-.56.8-.77,1.44-.2.66-.58.99-1.13.99-.33,0-.6-.12-.83-.35-.23-.23-.34-.48-.34-.75Zm4.29,10.63c-.36,0-.67-.12-.94-.35-.27-.23-.4-.56-.4-.97,0-.37.13-.68.39-.93s.57-.38.95-.38.68.13.93.38.38.56.38.93c0,.41-.13.73-.4.97s-.57.35-.91.35Z" style="fill: none; stroke: #fff; stroke-miterlimit: 10; stroke-width: .75px;"/>
  <path d="m62.68,54.53c-.35-.54-.86-.97-1.51-1.28-.65-.32-1.4-.47-2.25-.47-.91,0-1.71.18-2.4.56-.68.37-1.2.85-1.56,1.42-.08.12-.14.24-.2.36h2.74c.3-.33.78-.49,1.42-.49.55,0,1,.16,1.35.49h2.71c-.07-.2-.17-.4-.3-.59Z" style="fill: none; stroke: #fff; stroke-miterlimit: 10; stroke-width: .75px;"/>
</svg>