<svg width="170" height="167" viewBox="0 0 170 167" fill="none" xmlns="http://www.w3.org/2000/svg">
<g clip-path="url(#clip0_200_412)">
<g opacity="0.15">
<path d="M57.13 48.7399C62.6 49.1799 67.46 44.9399 67.5 39.2299C67.91 34.2499 63.74 29.3799 58.69 28.9799C53.13 28.5299 47.95 32.4499 47.69 38.4699C47.46 43.7699 51.09 48.2499 57.13 48.7299V48.7399Z" fill="#005178"/>
<path d="M84.9698 88.8097C84.9098 88.6097 84.8498 88.4197 84.7898 88.2197C84.5598 87.4397 84.3198 86.6697 84.0898 85.8897C83.6498 84.3797 83.2198 82.8597 82.7798 81.3397C82.3398 79.8197 81.8998 78.3097 81.4698 76.7897C80.7598 74.2897 80.0698 71.7797 79.3498 69.2897C79.3498 69.2897 79.3298 69.2097 79.3198 69.1697C79.2698 68.9897 79.2098 68.8097 79.1598 68.6197C78.5398 66.5597 77.8498 64.5197 77.3298 62.4397C76.6498 59.6997 75.4098 57.3097 73.4498 55.2697C71.0698 52.7797 68.2598 51.4397 64.7498 51.4997C62.3898 51.5397 60.0298 51.5597 57.6798 51.5597C55.3198 51.5597 52.9598 51.5397 50.6098 51.4897C49.9998 51.4797 49.4198 51.5097 48.8598 51.5697C47.1798 51.7697 45.7098 52.2997 44.3998 53.1097C42.8698 54.0597 41.5798 55.3797 40.4398 56.9697C40.2798 57.1997 40.1198 57.4297 39.9598 57.6697C39.5698 58.2797 39.2398 58.9097 38.9598 59.5597C38.6798 60.2097 38.4398 60.8897 38.2198 61.5697C38.1098 61.9097 38.0098 62.2497 37.9098 62.5997C37.6098 63.6297 37.3298 64.6697 37.0098 65.6897C36.7298 66.5597 36.5298 67.4697 36.3098 68.3597C36.2298 68.6597 36.1598 68.9497 36.0698 69.2497C35.9298 69.7097 35.7798 70.1697 35.6298 70.6197C35.3798 71.3697 35.1298 72.1197 34.8998 72.8797C34.8498 73.0497 34.8098 73.2097 34.7598 73.3797C34.3698 74.7397 34.0198 76.1097 33.6198 77.4597C32.9698 79.6397 32.2498 81.7897 31.6098 83.9697C31.3898 84.7297 31.1798 85.4997 30.9798 86.2697C30.7798 87.0497 30.5698 87.8197 30.3498 88.5997C30.2498 88.9597 30.1398 89.3297 30.0298 89.6897C29.9198 90.0397 29.8298 90.3897 29.7898 90.7297C29.7398 91.0697 29.7398 91.3897 29.7798 91.7097C29.8398 92.1897 30.0098 92.6397 30.3098 93.0597C30.4098 93.1997 30.5298 93.3397 30.6598 93.4797C31.0498 93.8797 31.4698 94.1997 31.9298 94.4397C32.6898 94.8397 33.5498 94.9897 34.5098 94.7997C35.0998 94.6797 35.5898 94.4797 35.9998 94.1797C36.6798 93.6897 37.1098 92.9497 37.3498 91.9997C37.5498 91.2197 37.8098 90.4597 38.0398 89.6997C38.1298 89.3997 38.2198 89.1097 38.3098 88.8097C39.6798 84.2997 41.0598 79.7997 42.4098 75.2897C43.3698 72.0797 44.2998 68.8497 45.2598 65.6397C45.2798 65.5797 45.2998 65.5197 45.3298 65.4597C45.4198 65.2697 45.5598 65.0697 45.6798 65.0597C45.9898 65.0297 46.2998 65.0197 46.6198 65.0197C46.9398 65.0197 47.2598 65.0297 47.5998 65.0297C47.5598 65.3697 47.5598 65.5497 47.5098 65.7297C47.5098 65.7397 47.5098 65.7597 47.4998 65.7697C46.2898 69.8797 45.0898 73.9997 43.8698 78.1097C43.2098 80.3197 42.5398 82.5297 41.8698 84.7397C41.4598 86.0997 41.0498 87.4597 40.6398 88.8097C40.4598 89.4197 40.2698 90.0197 40.0898 90.6297C40.0898 90.6297 40.0898 90.6297 40.0898 90.6397C39.9598 91.0697 39.8398 91.4897 39.7098 91.9197C38.0298 97.6097 36.3598 103.3 34.6898 108.99C34.6498 109.14 34.5998 109.3 34.5498 109.45C34.5098 109.58 34.4798 109.69 34.4598 109.78C34.4198 109.92 34.3998 110.04 34.4098 110.12C34.4098 110.16 34.4298 110.2 34.4498 110.23C34.5398 110.35 34.7798 110.35 35.2498 110.35C37.0898 110.34 38.9198 110.33 40.7598 110.32C42.6298 110.32 44.4998 110.34 46.3698 110.32C46.5298 110.32 46.6598 110.32 46.7698 110.35C47.0998 110.43 47.2198 110.65 47.2198 111.13C47.2198 112.86 47.2198 114.58 47.2198 116.31C47.2198 120.6 47.2198 124.88 47.2198 129.17C47.2198 129.22 47.2198 129.27 47.2198 129.32V129.38C47.2198 130.67 47.2198 131.95 47.2298 133.24C47.2498 137.1 47.2698 140.96 47.1898 144.82C47.1898 145.09 47.2098 145.35 47.2498 145.61C47.2598 145.68 47.2798 145.75 47.2898 145.82C47.3298 146.02 47.3898 146.22 47.4598 146.41C47.4798 146.46 47.4898 146.5 47.5098 146.55C47.5998 146.78 47.7198 146.99 47.8498 147.2C47.8798 147.25 47.9098 147.29 47.9398 147.33C48.0498 147.49 48.1798 147.65 48.3098 147.8C48.3498 147.84 48.3898 147.89 48.4298 147.93C48.5998 148.11 48.7898 148.27 48.9798 148.42C48.9798 148.42 48.9998 148.43 49.0098 148.44C49.1998 148.58 49.3998 148.7 49.6098 148.81C49.6598 148.84 49.7098 148.86 49.7598 148.89C49.9698 148.99 50.1898 149.09 50.4098 149.16C50.4198 149.16 50.4298 149.17 50.4498 149.17C50.6898 149.25 50.9398 149.31 51.1898 149.35C51.2098 149.35 51.2198 149.35 51.2398 149.36H51.2798C51.7898 149.44 52.3098 149.45 52.8298 149.36C52.8998 149.35 52.9698 149.33 53.0398 149.31C53.1598 149.28 53.2798 149.26 53.3898 149.23C53.5498 149.18 53.6998 149.12 53.8498 149.06C53.8798 149.05 53.9098 149.04 53.9498 149.02C54.3998 148.82 54.7898 148.57 55.1198 148.29C55.3998 148.05 55.6298 147.77 55.8198 147.48C55.9698 147.26 56.0998 147.02 56.1998 146.77C56.4298 146.18 56.5398 145.52 56.5398 144.8C56.5398 139.59 56.5398 134.39 56.5398 129.18C56.5398 123.4 56.5398 117.62 56.5398 111.84C56.5398 111.2 56.5198 110.84 56.5698 110.62C56.5798 110.57 56.6098 110.53 56.6298 110.49C56.6398 110.47 56.6498 110.44 56.6698 110.43C56.6898 110.41 56.7298 110.4 56.7598 110.39C56.8398 110.36 56.9398 110.34 57.0998 110.34C57.3198 110.34 57.6098 110.34 58.0198 110.34C58.6898 110.31 58.9498 110.48 58.9498 111.22C58.9298 122.3 58.9698 133.39 58.9098 144.47C58.9098 144.61 58.9098 144.76 58.9098 144.9C58.9098 145.19 58.9398 145.46 58.9698 145.72C58.9798 145.79 58.9998 145.86 59.0098 145.94C59.0498 146.15 59.0998 146.35 59.1698 146.54C59.1898 146.59 59.1998 146.64 59.2198 146.69C59.3098 146.92 59.4098 147.13 59.5298 147.33C59.5598 147.37 59.5798 147.41 59.6098 147.45C59.7098 147.61 59.8298 147.76 59.9498 147.91C59.9898 147.95 60.0198 148 60.0598 148.04C60.3698 148.38 60.7398 148.65 61.1398 148.87C61.1798 148.89 61.2298 148.92 61.2698 148.94C61.4498 149.03 61.6398 149.11 61.8398 149.17C61.8698 149.17 61.8898 149.19 61.9098 149.2C62.1398 149.27 62.3698 149.32 62.5998 149.36C62.6098 149.36 62.6198 149.36 62.6298 149.36H62.6598C63.1398 149.43 63.6298 149.43 64.1298 149.36C64.2898 149.34 64.4498 149.3 64.6198 149.26C64.6498 149.26 64.6798 149.25 64.7098 149.24C64.8998 149.19 65.0898 149.13 65.2798 149.05C65.5298 148.95 65.7698 148.84 65.9898 148.72C67.2998 148 67.9798 146.89 68.1398 145.28C68.1698 145.01 68.1798 144.73 68.1798 144.43C68.1798 139.34 68.1798 134.25 68.1798 129.17C68.1798 123.24 68.1798 117.32 68.1798 111.39C68.1798 110.33 68.1798 110.33 69.2498 110.33C71.9798 110.33 74.7198 110.33 77.4498 110.33C78.3898 110.33 79.3298 110.33 80.2598 110.33C80.3498 110.33 80.4398 110.33 80.5098 110.31C80.7398 110.26 80.8598 110.13 80.7498 109.77C80.2498 108.11 79.7598 106.45 79.2698 104.79C78.2998 101.55 77.3198 98.3197 76.3598 95.0797C75.7398 92.9897 75.1398 90.8997 74.5198 88.8097C74.2598 87.9197 73.9898 87.0197 73.7298 86.1297C73.7298 86.1197 73.7298 86.0997 73.7198 86.0897C73.3598 84.8897 72.9798 83.6997 72.6098 82.4997C72.2398 81.2997 71.8598 80.1097 71.4998 78.9097C70.7198 76.2797 69.9998 73.6297 69.2398 70.9997C69.0798 70.4397 68.9098 69.8697 68.7498 69.2997C68.7098 69.1597 68.6698 69.0097 68.6198 68.8697C68.5998 68.7897 68.5798 68.7197 68.5498 68.6397C68.5198 68.5497 68.4998 68.4497 68.4698 68.3597C68.1598 67.2797 67.8398 66.1797 67.5098 65.0497C67.9798 65.0297 68.3798 65.0497 68.7598 64.9897C69.3598 64.8997 69.6998 65.0797 69.8998 65.4997C69.9698 65.6397 70.0198 65.8097 70.0598 65.9997C70.1798 66.5697 70.3298 67.1297 70.4898 67.6897C70.5698 67.9697 70.6598 68.2397 70.7398 68.5197C70.7498 68.5597 70.7698 68.6097 70.7798 68.6497C70.8498 68.8697 70.9198 69.0797 70.9798 69.2997C70.9798 69.2997 70.9798 69.2997 70.9798 69.3097C70.9798 69.3097 70.9898 69.3597 70.9998 69.3797C71.4798 70.9097 71.9898 72.4397 72.4898 73.9697C72.9898 75.4997 73.4798 77.0297 73.9398 78.5697C73.9398 78.5797 73.9398 78.5997 73.9498 78.6097C74.5898 80.7497 75.1998 82.8997 75.8098 85.0497C76.1698 86.3097 76.5298 87.5697 76.8898 88.8397C77.2098 89.9697 77.5298 91.0897 77.8498 92.2197C77.9998 92.7297 78.2198 93.1797 78.5098 93.5597C78.7998 93.9397 79.1498 94.2497 79.5398 94.4697C80.1298 94.8097 80.8298 94.9697 81.5698 94.9097C81.8198 94.8897 82.0698 94.8497 82.3198 94.7797C83.1698 94.5597 83.8798 94.1597 84.3998 93.6397C85.2698 92.7797 85.6398 91.5797 85.3098 90.2897C85.1898 89.7997 85.0498 89.3197 84.9098 88.8297L84.9698 88.8097Z" fill="#005178"/>
<path d="M126.929 48.7497C132.489 48.7097 136.839 44.4997 136.769 38.8897C136.769 33.4097 132.339 28.9397 126.929 28.9497C121.329 28.9497 117.059 33.2697 117.069 38.8897C117.069 44.6397 121.249 48.7897 126.939 48.7497H126.929Z" fill="#005178"/>
<path d="M150.24 61.1597C150.09 60.5197 149.89 59.8797 149.64 59.2597C149.39 58.6397 149.08 58.0297 148.73 57.4497C146.97 54.5297 144.04 52.1897 140.39 51.4797C139.66 51.3397 138.91 51.2597 138.12 51.2597C134.34 51.2397 130.56 51.2197 126.78 51.2197C123 51.2197 119.22 51.2297 115.44 51.2797C114.57 51.2897 113.72 51.3897 112.91 51.5797C112.1 51.7597 111.32 52.0297 110.57 52.3597C109.09 53.0297 107.77 53.9797 106.66 55.1397C106.11 55.7197 105.61 56.3397 105.17 57.0097C103.86 59.0097 103.1 61.3697 103.08 63.8097C103.07 65.4197 103.06 67.0297 103.06 68.6397C103.06 68.7397 103.06 68.8497 103.06 68.9497C103.06 69.0697 103.06 69.1897 103.06 69.3097C103.05 72.5797 103.05 75.8397 103.05 79.1097C103.05 84.3297 103.07 89.5497 103.07 94.7697C103.07 95.9297 103.44 96.9597 104.09 97.7197C104.74 98.4797 105.68 98.9897 106.82 99.1197C107.38 99.1797 107.93 99.1797 108.45 99.0897C108.97 98.9997 109.44 98.8397 109.86 98.5997C110.28 98.3497 110.64 98.0197 110.93 97.5997C111.22 97.1797 111.42 96.6697 111.53 96.0597C111.59 95.7397 111.63 95.4197 111.66 95.0897C111.72 94.4397 111.72 93.7797 111.72 93.1297C111.72 92.7997 111.72 92.4697 111.72 92.1497C111.72 91.0397 111.72 89.9397 111.73 88.8297C111.74 84.9197 111.73 81.0197 111.73 77.1097C111.73 74.4997 111.71 71.8997 111.73 69.2897C111.73 68.9097 111.73 68.5397 111.73 68.1597V68.1297C111.73 67.4097 111.76 67.2597 112.35 67.2197C112.55 67.2097 112.81 67.1997 113.15 67.1997C113.8 67.1897 113.91 67.4897 113.92 67.8597C113.92 67.9897 113.92 68.1197 113.92 68.2497C113.92 68.4497 113.92 68.6497 113.92 68.8497C113.92 71.8397 113.92 74.8297 113.92 77.8097C113.92 81.4797 113.92 85.1497 113.92 88.8197C113.92 95.5497 113.92 102.28 113.92 109C113.92 109.65 113.92 110.31 113.92 110.96C113.92 112.07 113.92 113.17 113.92 114.28V114.88C113.92 119.65 113.92 124.42 113.92 129.19C113.92 134.08 113.92 138.98 113.92 143.87C113.92 144.81 114.17 145.66 114.65 146.42C114.81 146.67 114.99 146.92 115.2 147.15C115.37 147.34 115.55 147.52 115.73 147.69C115.78 147.74 115.84 147.79 115.9 147.84C116.04 147.96 116.17 148.08 116.32 148.18C116.38 148.22 116.43 148.27 116.49 148.31C116.68 148.45 116.88 148.58 117.08 148.69C117.08 148.69 117.1 148.69 117.11 148.7C117.3 148.81 117.5 148.9 117.71 148.98C117.78 149.01 117.84 149.03 117.91 149.05C118.07 149.11 118.23 149.15 118.39 149.2C118.46 149.22 118.53 149.24 118.6 149.25C118.82 149.3 119.05 149.34 119.29 149.36C119.62 149.39 119.97 149.38 120.32 149.36H120.41C120.6 149.34 120.79 149.32 120.99 149.29C121.58 149.2 122.16 148.99 122.7 148.69C123.24 148.4 123.74 148.01 124.16 147.57C124.37 147.35 124.57 147.11 124.74 146.86C125.26 146.11 125.58 145.25 125.59 144.36C125.6 143.34 125.6 142.31 125.61 141.29C125.62 139.24 125.63 137.19 125.63 135.14C125.63 134.12 125.63 133.09 125.63 132.07C125.63 131.11 125.63 130.14 125.63 129.18C125.63 122.45 125.63 115.72 125.63 109C125.63 106.42 125.63 103.84 125.63 101.26C125.63 101.19 125.63 101.11 125.63 101.04C125.63 100.37 125.6 99.9697 125.66 99.7197C125.68 99.6397 125.71 99.5797 125.75 99.5297C125.82 99.4597 125.93 99.4197 126.08 99.3997C126.23 99.3797 126.41 99.3697 126.67 99.3697C126.84 99.3697 127.05 99.3697 127.28 99.3697C127.45 99.3697 127.58 99.3897 127.69 99.4197C127.9 99.4797 128.01 99.6097 128.05 99.8197C128.07 99.9297 128.08 100.05 128.08 100.2C128.08 103.13 128.08 106.05 128.08 108.98C128.08 115.71 128.08 122.44 128.08 129.16C128.08 133.79 128.08 138.42 128.08 143.04C128.08 143.76 128.11 144.5 128.31 145.18C128.38 145.44 128.48 145.69 128.58 145.92C128.61 145.99 128.64 146.06 128.67 146.12C128.75 146.3 128.85 146.47 128.95 146.63C128.98 146.69 129.02 146.75 129.05 146.8C129.19 147.01 129.33 147.21 129.49 147.4C129.51 147.42 129.53 147.44 129.55 147.46C129.7 147.62 129.85 147.78 130.01 147.92C130.06 147.96 130.11 148.01 130.16 148.05C130.31 148.18 130.47 148.3 130.64 148.41C130.68 148.44 130.72 148.47 130.76 148.49C130.97 148.62 131.18 148.74 131.4 148.85C131.43 148.87 131.47 148.88 131.5 148.89C131.69 148.98 131.89 149.05 132.09 149.12C132.15 149.14 132.2 149.16 132.26 149.17C132.47 149.23 132.68 149.28 132.9 149.32C132.92 149.32 132.94 149.33 132.96 149.33C133.55 149.42 134.16 149.43 134.77 149.33C134.94 149.3 135.12 149.26 135.29 149.22C135.32 149.22 135.35 149.21 135.38 149.2C135.58 149.14 135.79 149.08 135.99 149C136.61 148.76 137.14 148.45 137.6 148.08C138.29 147.53 138.79 146.85 139.13 146.06C139.47 145.27 139.63 144.37 139.63 143.38C139.63 138.64 139.63 133.89 139.63 129.15C139.63 122.42 139.63 115.69 139.63 108.97C139.63 107.95 139.63 106.94 139.63 105.92H139.62V105.42C139.62 92.9597 139.62 80.5097 139.62 68.0497C139.62 67.7897 139.67 67.3297 139.75 67.3097C140.35 67.2197 140.96 67.1597 141.56 67.2297C141.69 67.2497 141.85 67.7997 141.85 68.0997C141.85 70.2697 141.85 72.4497 141.85 74.6197C141.85 79.3397 141.85 84.0497 141.85 88.7697C141.85 90.8297 141.85 92.8897 141.86 94.9497C141.86 96.9897 142.94 98.2497 144.37 98.7997C144.85 98.9797 145.36 99.0797 145.88 99.1097C146.58 99.1397 147.3 99.0297 147.97 98.7897C148.42 98.6297 148.8 98.4097 149.12 98.1397C149.44 97.8697 149.69 97.5597 149.89 97.1997C150.29 96.4997 150.46 95.6497 150.46 94.7497C150.46 92.7497 150.46 90.7597 150.46 88.7597C150.46 87.5497 150.46 86.3397 150.45 85.1297C150.44 81.7797 150.42 78.4197 150.41 75.0697C150.41 72.9097 150.43 70.7497 150.45 68.5797C150.46 67.0697 150.47 65.5697 150.47 64.0597C150.47 63.0797 150.38 62.0697 150.16 61.1097L150.24 61.1597Z" fill="#005178"/>
</g>
<g opacity="0.15">
<path d="M57.13 48.7399C62.6 49.1799 67.46 44.9399 67.5 39.2299C67.91 34.2499 63.74 29.3799 58.69 28.9799C53.13 28.5299 47.95 32.4499 47.69 38.4699C47.46 43.7699 51.09 48.2499 57.13 48.7299V48.7399Z" fill="#005178"/>
<path d="M84.9698 88.8097C84.9098 88.6097 84.8498 88.4197 84.7898 88.2197C84.5598 87.4397 84.3198 86.6697 84.0898 85.8897C83.6498 84.3797 83.2198 82.8597 82.7798 81.3397C82.3398 79.8197 81.8998 78.3097 81.4698 76.7897C80.7598 74.2897 80.0698 71.7797 79.3498 69.2897C79.3498 69.2897 79.3298 69.2097 79.3198 69.1697C79.2698 68.9897 79.2098 68.8097 79.1598 68.6197C78.5398 66.5597 77.8498 64.5197 77.3298 62.4397C76.6498 59.6997 75.4098 57.3097 73.4498 55.2697C71.0698 52.7797 68.2598 51.4397 64.7498 51.4997C62.3898 51.5397 60.0298 51.5597 57.6798 51.5597C55.3198 51.5597 52.9598 51.5397 50.6098 51.4897C49.9998 51.4797 49.4198 51.5097 48.8598 51.5697C47.1798 51.7697 45.7098 52.2997 44.3998 53.1097C42.8698 54.0597 41.5798 55.3797 40.4398 56.9697C40.2798 57.1997 40.1198 57.4297 39.9598 57.6697C39.5698 58.2797 39.2398 58.9097 38.9598 59.5597C38.6798 60.2097 38.4398 60.8897 38.2198 61.5697C38.1098 61.9097 38.0098 62.2497 37.9098 62.5997C37.6098 63.6297 37.3298 64.6697 37.0098 65.6897C36.7298 66.5597 36.5298 67.4697 36.3098 68.3597C36.2298 68.6597 36.1598 68.9497 36.0698 69.2497C35.9298 69.7097 35.7798 70.1697 35.6298 70.6197C35.3798 71.3697 35.1298 72.1197 34.8998 72.8797C34.8498 73.0497 34.8098 73.2097 34.7598 73.3797C34.3698 74.7397 34.0198 76.1097 33.6198 77.4597C32.9698 79.6397 32.2498 81.7897 31.6098 83.9697C31.3898 84.7297 31.1798 85.4997 30.9798 86.2697C30.7798 87.0497 30.5698 87.8197 30.3498 88.5997C30.2498 88.9597 30.1398 89.3297 30.0298 89.6897C29.9198 90.0397 29.8298 90.3897 29.7898 90.7297C29.7398 91.0697 29.7398 91.3897 29.7798 91.7097C29.8398 92.1897 30.0098 92.6397 30.3098 93.0597C30.4098 93.1997 30.5298 93.3397 30.6598 93.4797C31.0498 93.8797 31.4698 94.1997 31.9298 94.4397C32.6898 94.8397 33.5498 94.9897 34.5098 94.7997C35.0998 94.6797 35.5898 94.4797 35.9998 94.1797C36.6798 93.6897 37.1098 92.9497 37.3498 91.9997C37.5498 91.2197 37.8098 90.4597 38.0398 89.6997C38.1298 89.3997 38.2198 89.1097 38.3098 88.8097C39.6798 84.2997 41.0598 79.7997 42.4098 75.2897C43.3698 72.0797 44.2998 68.8497 45.2598 65.6397C45.2798 65.5797 45.2998 65.5197 45.3298 65.4597C45.4198 65.2697 45.5598 65.0697 45.6798 65.0597C45.9898 65.0297 46.2998 65.0197 46.6198 65.0197C46.9398 65.0197 47.2598 65.0297 47.5998 65.0297C47.5598 65.3697 47.5598 65.5497 47.5098 65.7297C47.5098 65.7397 47.5098 65.7597 47.4998 65.7697C46.2898 69.8797 45.0898 73.9997 43.8698 78.1097C43.2098 80.3197 42.5398 82.5297 41.8698 84.7397C41.4598 86.0997 41.0498 87.4597 40.6398 88.8097C40.4598 89.4197 40.2698 90.0197 40.0898 90.6297C40.0898 90.6297 40.0898 90.6297 40.0898 90.6397C39.9598 91.0697 39.8398 91.4897 39.7098 91.9197C38.0298 97.6097 36.3598 103.3 34.6898 108.99C34.6498 109.14 34.5998 109.3 34.5498 109.45C34.5098 109.58 34.4798 109.69 34.4598 109.78C34.4198 109.92 34.3998 110.04 34.4098 110.12C34.4098 110.16 34.4298 110.2 34.4498 110.23C34.5398 110.35 34.7798 110.35 35.2498 110.35C37.0898 110.34 38.9198 110.33 40.7598 110.32C42.6298 110.32 44.4998 110.34 46.3698 110.32C46.5298 110.32 46.6598 110.32 46.7698 110.35C47.0998 110.43 47.2198 110.65 47.2198 111.13C47.2198 112.86 47.2198 114.58 47.2198 116.31C47.2198 120.6 47.2198 124.88 47.2198 129.17C47.2198 129.22 47.2198 129.27 47.2198 129.32V129.38C47.2198 130.67 47.2198 131.95 47.2298 133.24C47.2498 137.1 47.2698 140.96 47.1898 144.82C47.1898 145.09 47.2098 145.35 47.2498 145.61C47.2598 145.68 47.2798 145.75 47.2898 145.82C47.3298 146.02 47.3898 146.22 47.4598 146.41C47.4798 146.46 47.4898 146.5 47.5098 146.55C47.5998 146.78 47.7198 146.99 47.8498 147.2C47.8798 147.25 47.9098 147.29 47.9398 147.33C48.0498 147.49 48.1798 147.65 48.3098 147.8C48.3498 147.84 48.3898 147.89 48.4298 147.93C48.5998 148.11 48.7898 148.27 48.9798 148.42C48.9798 148.42 48.9998 148.43 49.0098 148.44C49.1998 148.58 49.3998 148.7 49.6098 148.81C49.6598 148.84 49.7098 148.86 49.7598 148.89C49.9698 148.99 50.1898 149.09 50.4098 149.16C50.4198 149.16 50.4298 149.17 50.4498 149.17C50.6898 149.25 50.9398 149.31 51.1898 149.35C51.2098 149.35 51.2198 149.35 51.2398 149.36H51.2798C51.7898 149.44 52.3098 149.45 52.8298 149.36C52.8998 149.35 52.9698 149.33 53.0398 149.31C53.1598 149.28 53.2798 149.26 53.3898 149.23C53.5498 149.18 53.6998 149.12 53.8498 149.06C53.8798 149.05 53.9098 149.04 53.9498 149.02C54.3998 148.82 54.7898 148.57 55.1198 148.29C55.3998 148.05 55.6298 147.77 55.8198 147.48C55.9698 147.26 56.0998 147.02 56.1998 146.77C56.4298 146.18 56.5398 145.52 56.5398 144.8C56.5398 139.59 56.5398 134.39 56.5398 129.18C56.5398 123.4 56.5398 117.62 56.5398 111.84C56.5398 111.2 56.5198 110.84 56.5698 110.62C56.5798 110.57 56.6098 110.53 56.6298 110.49C56.6398 110.47 56.6498 110.44 56.6698 110.43C56.6898 110.41 56.7298 110.4 56.7598 110.39C56.8398 110.36 56.9398 110.34 57.0998 110.34C57.3198 110.34 57.6098 110.34 58.0198 110.34C58.6898 110.31 58.9498 110.48 58.9498 111.22C58.9298 122.3 58.9698 133.39 58.9098 144.47C58.9098 144.61 58.9098 144.76 58.9098 144.9C58.9098 145.19 58.9398 145.46 58.9698 145.72C58.9798 145.79 58.9998 145.86 59.0098 145.94C59.0498 146.15 59.0998 146.35 59.1698 146.54C59.1898 146.59 59.1998 146.64 59.2198 146.69C59.3098 146.92 59.4098 147.13 59.5298 147.33C59.5598 147.37 59.5798 147.41 59.6098 147.45C59.7098 147.61 59.8298 147.76 59.9498 147.91C59.9898 147.95 60.0198 148 60.0598 148.04C60.3698 148.38 60.7398 148.65 61.1398 148.87C61.1798 148.89 61.2298 148.92 61.2698 148.94C61.4498 149.03 61.6398 149.11 61.8398 149.17C61.8698 149.17 61.8898 149.19 61.9098 149.2C62.1398 149.27 62.3698 149.32 62.5998 149.36C62.6098 149.36 62.6198 149.36 62.6298 149.36H62.6598C63.1398 149.43 63.6298 149.43 64.1298 149.36C64.2898 149.34 64.4498 149.3 64.6198 149.26C64.6498 149.26 64.6798 149.25 64.7098 149.24C64.8998 149.19 65.0898 149.13 65.2798 149.05C65.5298 148.95 65.7698 148.84 65.9898 148.72C67.2998 148 67.9798 146.89 68.1398 145.28C68.1698 145.01 68.1798 144.73 68.1798 144.43C68.1798 139.34 68.1798 134.25 68.1798 129.17C68.1798 123.24 68.1798 117.32 68.1798 111.39C68.1798 110.33 68.1798 110.33 69.2498 110.33C71.9798 110.33 74.7198 110.33 77.4498 110.33C78.3898 110.33 79.3298 110.33 80.2598 110.33C80.3498 110.33 80.4398 110.33 80.5098 110.31C80.7398 110.26 80.8598 110.13 80.7498 109.77C80.2498 108.11 79.7598 106.45 79.2698 104.79C78.2998 101.55 77.3198 98.3197 76.3598 95.0797C75.7398 92.9897 75.1398 90.8997 74.5198 88.8097C74.2598 87.9197 73.9898 87.0197 73.7298 86.1297C73.7298 86.1197 73.7298 86.0997 73.7198 86.0897C73.3598 84.8897 72.9798 83.6997 72.6098 82.4997C72.2398 81.2997 71.8598 80.1097 71.4998 78.9097C70.7198 76.2797 69.9998 73.6297 69.2398 70.9997C69.0798 70.4397 68.9098 69.8697 68.7498 69.2997C68.7098 69.1597 68.6698 69.0097 68.6198 68.8697C68.5998 68.7897 68.5798 68.7197 68.5498 68.6397C68.5198 68.5497 68.4998 68.4497 68.4698 68.3597C68.1598 67.2797 67.8398 66.1797 67.5098 65.0497C67.9798 65.0297 68.3798 65.0497 68.7598 64.9897C69.3598 64.8997 69.6998 65.0797 69.8998 65.4997C69.9698 65.6397 70.0198 65.8097 70.0598 65.9997C70.1798 66.5697 70.3298 67.1297 70.4898 67.6897C70.5698 67.9697 70.6598 68.2397 70.7398 68.5197C70.7498 68.5597 70.7698 68.6097 70.7798 68.6497C70.8498 68.8697 70.9198 69.0797 70.9798 69.2997C70.9798 69.2997 70.9798 69.2997 70.9798 69.3097C70.9798 69.3097 70.9898 69.3597 70.9998 69.3797C71.4798 70.9097 71.9898 72.4397 72.4898 73.9697C72.9898 75.4997 73.4798 77.0297 73.9398 78.5697C73.9398 78.5797 73.9398 78.5997 73.9498 78.6097C74.5898 80.7497 75.1998 82.8997 75.8098 85.0497C76.1698 86.3097 76.5298 87.5697 76.8898 88.8397C77.2098 89.9697 77.5298 91.0897 77.8498 92.2197C77.9998 92.7297 78.2198 93.1797 78.5098 93.5597C78.7998 93.9397 79.1498 94.2497 79.5398 94.4697C80.1298 94.8097 80.8298 94.9697 81.5698 94.9097C81.8198 94.8897 82.0698 94.8497 82.3198 94.7797C83.1698 94.5597 83.8798 94.1597 84.3998 93.6397C85.2698 92.7797 85.6398 91.5797 85.3098 90.2897C85.1898 89.7997 85.0498 89.3197 84.9098 88.8297L84.9698 88.8097Z" fill="#005178"/>
<path d="M126.929 48.7497C132.489 48.7097 136.839 44.4997 136.769 38.8897C136.769 33.4097 132.339 28.9397 126.929 28.9497C121.329 28.9497 117.059 33.2697 117.069 38.8897C117.069 44.6397 121.249 48.7897 126.939 48.7497H126.929Z" fill="#005178"/>
<path d="M150.24 61.1597C150.09 60.5197 149.89 59.8797 149.64 59.2597C149.39 58.6397 149.08 58.0297 148.73 57.4497C146.97 54.5297 144.04 52.1897 140.39 51.4797C139.66 51.3397 138.91 51.2597 138.12 51.2597C134.34 51.2397 130.56 51.2197 126.78 51.2197C123 51.2197 119.22 51.2297 115.44 51.2797C114.57 51.2897 113.72 51.3897 112.91 51.5797C112.1 51.7597 111.32 52.0297 110.57 52.3597C109.09 53.0297 107.77 53.9797 106.66 55.1397C106.11 55.7197 105.61 56.3397 105.17 57.0097C103.86 59.0097 103.1 61.3697 103.08 63.8097C103.07 65.4197 103.06 67.0297 103.06 68.6397C103.06 68.7397 103.06 68.8497 103.06 68.9497C103.06 69.0697 103.06 69.1897 103.06 69.3097C103.05 72.5797 103.05 75.8397 103.05 79.1097C103.05 84.3297 103.07 89.5497 103.07 94.7697C103.07 95.9297 103.44 96.9597 104.09 97.7197C104.74 98.4797 105.68 98.9897 106.82 99.1197C107.38 99.1797 107.93 99.1797 108.45 99.0897C108.97 98.9997 109.44 98.8397 109.86 98.5997C110.28 98.3497 110.64 98.0197 110.93 97.5997C111.22 97.1797 111.42 96.6697 111.53 96.0597C111.59 95.7397 111.63 95.4197 111.66 95.0897C111.72 94.4397 111.72 93.7797 111.72 93.1297C111.72 92.7997 111.72 92.4697 111.72 92.1497C111.72 91.0397 111.72 89.9397 111.73 88.8297C111.74 84.9197 111.73 81.0197 111.73 77.1097C111.73 74.4997 111.71 71.8997 111.73 69.2897C111.73 68.9097 111.73 68.5397 111.73 68.1597V68.1297C111.73 67.4097 111.76 67.2597 112.35 67.2197C112.55 67.2097 112.81 67.1997 113.15 67.1997C113.8 67.1897 113.91 67.4897 113.92 67.8597C113.92 67.9897 113.92 68.1197 113.92 68.2497C113.92 68.4497 113.92 68.6497 113.92 68.8497C113.92 71.8397 113.92 74.8297 113.92 77.8097C113.92 81.4797 113.92 85.1497 113.92 88.8197C113.92 95.5497 113.92 102.28 113.92 109C113.92 109.65 113.92 110.31 113.92 110.96C113.92 112.07 113.92 113.17 113.92 114.28V114.88C113.92 119.65 113.92 124.42 113.92 129.19C113.92 134.08 113.92 138.98 113.92 143.87C113.92 144.81 114.17 145.66 114.65 146.42C114.81 146.67 114.99 146.92 115.2 147.15C115.37 147.34 115.55 147.52 115.73 147.69C115.78 147.74 115.84 147.79 115.9 147.84C116.04 147.96 116.17 148.08 116.32 148.18C116.38 148.22 116.43 148.27 116.49 148.31C116.68 148.45 116.88 148.58 117.08 148.69C117.08 148.69 117.1 148.69 117.11 148.7C117.3 148.81 117.5 148.9 117.71 148.98C117.78 149.01 117.84 149.03 117.91 149.05C118.07 149.11 118.23 149.15 118.39 149.2C118.46 149.22 118.53 149.24 118.6 149.25C118.82 149.3 119.05 149.34 119.29 149.36C119.62 149.39 119.97 149.38 120.32 149.36H120.41C120.6 149.34 120.79 149.32 120.99 149.29C121.58 149.2 122.16 148.99 122.7 148.69C123.24 148.4 123.74 148.01 124.16 147.57C124.37 147.35 124.57 147.11 124.74 146.86C125.26 146.11 125.58 145.25 125.59 144.36C125.6 143.34 125.6 142.31 125.61 141.29C125.62 139.24 125.63 137.19 125.63 135.14C125.63 134.12 125.63 133.09 125.63 132.07C125.63 131.11 125.63 130.14 125.63 129.18C125.63 122.45 125.63 115.72 125.63 109C125.63 106.42 125.63 103.84 125.63 101.26C125.63 101.19 125.63 101.11 125.63 101.04C125.63 100.37 125.6 99.9697 125.66 99.7197C125.68 99.6397 125.71 99.5797 125.75 99.5297C125.82 99.4597 125.93 99.4197 126.08 99.3997C126.23 99.3797 126.41 99.3697 126.67 99.3697C126.84 99.3697 127.05 99.3697 127.28 99.3697C127.45 99.3697 127.58 99.3897 127.69 99.4197C127.9 99.4797 128.01 99.6097 128.05 99.8197C128.07 99.9297 128.08 100.05 128.08 100.2C128.08 103.13 128.08 106.05 128.08 108.98C128.08 115.71 128.08 122.44 128.08 129.16C128.08 133.79 128.08 138.42 128.08 143.04C128.08 143.76 128.11 144.5 128.31 145.18C128.38 145.44 128.48 145.69 128.58 145.92C128.61 145.99 128.64 146.06 128.67 146.12C128.75 146.3 128.85 146.47 128.95 146.63C128.98 146.69 129.02 146.75 129.05 146.8C129.19 147.01 129.33 147.21 129.49 147.4C129.51 147.42 129.53 147.44 129.55 147.46C129.7 147.62 129.85 147.78 130.01 147.92C130.06 147.96 130.11 148.01 130.16 148.05C130.31 148.18 130.47 148.3 130.64 148.41C130.68 148.44 130.72 148.47 130.76 148.49C130.97 148.62 131.18 148.74 131.4 148.85C131.43 148.87 131.47 148.88 131.5 148.89C131.69 148.98 131.89 149.05 132.09 149.12C132.15 149.14 132.2 149.16 132.26 149.17C132.47 149.23 132.68 149.28 132.9 149.32C132.92 149.32 132.94 149.33 132.96 149.33C133.55 149.42 134.16 149.43 134.77 149.33C134.94 149.3 135.12 149.26 135.29 149.22C135.32 149.22 135.35 149.21 135.38 149.2C135.58 149.14 135.79 149.08 135.99 149C136.61 148.76 137.14 148.45 137.6 148.08C138.29 147.53 138.79 146.85 139.13 146.06C139.47 145.27 139.63 144.37 139.63 143.38C139.63 138.64 139.63 133.89 139.63 129.15C139.63 122.42 139.63 115.69 139.63 108.97C139.63 107.95 139.63 106.94 139.63 105.92H139.62V105.42C139.62 92.9597 139.62 80.5097 139.62 68.0497C139.62 67.7897 139.67 67.3297 139.75 67.3097C140.35 67.2197 140.96 67.1597 141.56 67.2297C141.69 67.2497 141.85 67.7997 141.85 68.0997C141.85 70.2697 141.85 72.4497 141.85 74.6197C141.85 79.3397 141.85 84.0497 141.85 88.7697C141.85 90.8297 141.85 92.8897 141.86 94.9497C141.86 96.9897 142.94 98.2497 144.37 98.7997C144.85 98.9797 145.36 99.0797 145.88 99.1097C146.58 99.1397 147.3 99.0297 147.97 98.7897C148.42 98.6297 148.8 98.4097 149.12 98.1397C149.44 97.8697 149.69 97.5597 149.89 97.1997C150.29 96.4997 150.46 95.6497 150.46 94.7497C150.46 92.7497 150.46 90.7597 150.46 88.7597C150.46 87.5497 150.46 86.3397 150.45 85.1297C150.44 81.7797 150.42 78.4197 150.41 75.0697C150.41 72.9097 150.43 70.7497 150.45 68.5797C150.46 67.0697 150.47 65.5697 150.47 64.0597C150.47 63.0797 150.38 62.0697 150.16 61.1097L150.24 61.1597Z" fill="#005178"/>
</g>
<path d="M134.98 100.36C134.98 112.85 134.98 125.33 134.98 137.82C134.98 140.46 133.8 142.46 131.34 143.43C128.19 144.68 124.59 143.01 123.63 139.61C123.44 138.93 123.41 138.18 123.4 137.47C123.39 123.19 123.39 108.9 123.4 94.6199C123.4 94.0199 123.27 93.7899 122.6 93.7799C120.71 93.7499 120.94 93.66 120.94 95.44C120.94 105.78 120.94 116.13 120.94 126.47C120.94 130.57 120.97 134.67 120.91 138.77C120.88 141.13 118.66 143.32 116.31 143.7C113.93 144.08 112.07 143.3 110.53 141.55C109.7 140.61 109.25 139.52 109.25 138.27C109.25 128.41 109.25 118.55 109.25 108.69C109.25 96.53 109.25 84.37 109.25 72.21C109.25 69.02 109.25 65.8399 109.25 62.6499C109.25 62.1099 109.35 61.5799 108.48 61.5899C107.12 61.6199 107.07 61.57 107.06 62.53C107.04 65.52 107.06 68.5199 107.06 71.5099C107.06 76.5199 107.06 81.5299 107.04 86.5399C107.04 87.8499 107.08 89.1799 106.85 90.4499C106.41 92.8799 104.4 93.7599 102.14 93.5099C99.86 93.2499 98.38 91.49 98.38 89.16C98.38 78.84 98.32 68.53 98.4 58.21C98.45 51.7 103.76 45.7699 110.75 45.6799C118.31 45.5799 125.86 45.62 133.42 45.66C139.67 45.69 144.35 50.43 145.54 55.57C145.76 56.53 145.84 57.53 145.85 58.52C145.86 62.19 145.79 65.86 145.8 69.53C145.8 76.09 145.87 82.65 145.85 89.21C145.85 91 145.16 92.6 143.35 93.24C140.65 94.2 137.24 93.0199 137.23 89.3999C137.21 80.4499 137.23 71.5 137.21 62.55C137.21 62.25 137.05 61.6899 136.92 61.6799C136.33 61.6099 135.71 61.6699 135.11 61.7599C135.03 61.7699 134.98 62.24 134.98 62.5C134.98 75.12 134.98 87.74 134.98 100.36Z" fill="black"/>
<path d="M62.8396 59.4501C63.4396 61.5101 64.0096 63.4501 64.5696 65.4001C65.3296 68.0401 66.0496 70.6801 66.8296 73.3101C67.5396 75.7101 68.3296 78.0902 69.0496 80.4902C69.9496 83.4902 70.8096 86.4902 71.6996 89.4902C72.6596 92.7302 73.6396 95.9601 74.6096 99.2001C75.1096 100.86 75.5896 102.52 76.0896 104.18C76.2396 104.66 75.9596 104.74 75.5896 104.74C74.6496 104.74 73.7096 104.74 72.7796 104.74C70.0496 104.74 67.3096 104.74 64.5796 104.74C63.5196 104.74 63.5096 104.74 63.5096 105.8C63.5096 116.81 63.5096 127.83 63.5096 138.84C63.5096 141.21 62.6496 142.66 60.6096 143.45C57.6496 144.6 54.1896 142.98 54.2096 139.29C54.2696 128.06 54.2196 116.83 54.2496 105.61C54.2496 104.86 53.9996 104.7 53.3196 104.73C51.6896 104.79 51.8396 104.44 51.8396 106.24C51.8396 117.23 51.8396 128.21 51.8396 139.2C51.8396 141.13 51.0596 142.61 49.2396 143.42C46.2796 144.74 42.3896 142.67 42.4596 139.23C42.5596 134.09 42.4896 128.94 42.4896 123.8C42.4896 117.72 42.4796 111.63 42.4896 105.55C42.4896 104.9 42.2696 104.72 41.6496 104.73C39.7796 104.76 37.9096 104.73 36.0396 104.73C34.1996 104.73 32.3696 104.74 30.5296 104.76C29.5996 104.76 29.5696 104.73 29.8296 103.85C31.6696 97.5802 33.5096 91.3101 35.3596 85.0401C36.5996 80.8501 37.8896 76.6801 39.1396 72.5001C40.3696 68.3801 41.5696 64.2501 42.7796 60.1201C42.8296 59.9501 42.8296 59.7601 42.8696 59.4201C42.1996 59.4201 41.5696 59.3801 40.9496 59.4501C40.7896 59.4701 40.5896 59.8101 40.5296 60.0401C39.5696 63.2501 38.6496 66.4801 37.6796 69.6901C36.2396 74.5001 34.7696 79.2902 33.3096 84.1002C33.0796 84.8702 32.8196 85.6301 32.6196 86.4001C32.2396 87.9201 31.3596 88.8901 29.7796 89.2001C28.2396 89.5001 26.9696 88.9301 25.9296 87.8801C24.8596 86.8001 24.8496 85.5001 25.2996 84.0901C25.8996 82.2101 26.3296 80.2701 26.8896 78.3701C27.5296 76.1901 28.2496 74.0401 28.8996 71.8601C29.3496 70.3401 29.7296 68.8001 30.1796 67.2801C30.5396 66.0601 30.9896 64.8701 31.3496 63.6501C31.6996 62.4701 31.9196 61.2601 32.2896 60.0901C33.1596 57.3801 33.6696 54.5002 35.2496 52.0702C37.7296 48.2502 41.0396 45.7901 45.8896 45.8901C50.5996 45.9901 55.3196 45.9801 60.0396 45.8901C63.5496 45.8301 66.3596 47.1702 68.7396 49.6602C70.6896 51.7102 71.9296 54.0901 72.6196 56.8301C73.1796 59.1001 73.9596 61.3101 74.6096 63.5601C75.3496 66.1001 76.0396 68.6401 76.7596 71.1801C77.6296 74.2101 78.4996 77.2401 79.3796 80.2701C79.7996 81.7301 80.2796 83.1801 80.6496 84.6501C81.1696 86.7201 79.9196 88.5401 77.6596 89.1401C75.6196 89.6801 73.7696 88.6202 73.1796 86.5702C71.8796 82.0202 70.6196 77.4601 69.2696 72.9301C68.3496 69.8501 67.3096 66.8101 66.3396 63.7501C65.9896 62.6301 65.6396 61.5101 65.3896 60.3701C65.2196 59.6001 64.8996 59.2401 64.0896 59.3601C63.7096 59.4201 63.3196 59.4001 62.8396 59.4201V59.4501Z" fill="black"/>
<path d="M53.9703 23.3901C48.4103 22.9401 43.2303 26.86 42.9703 32.88C42.7403 38.18 46.3703 42.6601 52.4103 43.1401C57.8803 43.5801 62.7403 39.34 62.7803 33.63C63.1903 28.65 59.0203 23.78 53.9703 23.38V23.3901Z" fill="#DB3535"/>
<path d="M74.6001 63.5899C73.9501 61.3399 73.1701 59.1299 72.6101 56.8599C71.9301 54.1199 70.6901 51.7299 68.7301 49.6899C66.3501 47.1999 63.5401 45.8599 60.0301 45.9199C55.3201 45.9999 50.6001 46.0099 45.8801 45.9199C41.0301 45.8199 37.7201 48.2899 35.2401 52.0999C33.6601 54.5199 33.1601 57.3999 32.2801 60.1199C31.9001 61.2899 31.6801 62.4999 31.3401 63.6799C31.3401 63.6899 31.3401 63.7099 31.3301 63.7199H39.4301C39.7901 62.4999 40.1401 61.2799 40.5101 60.0699C40.5801 59.8399 40.7701 59.4999 40.9301 59.4799C41.5501 59.4099 42.1801 59.4499 42.8501 59.4499C42.8101 59.7899 42.8101 59.9699 42.7601 60.1499C42.4101 61.3399 42.0601 62.5299 41.7101 63.7199H64.0701C63.6701 62.3299 63.2601 60.9299 62.8301 59.4699C63.3001 59.4499 63.7001 59.4699 64.0801 59.4099C64.8901 59.2899 65.2101 59.6499 65.3801 60.4199C65.6201 61.5399 65.9601 62.6399 66.3001 63.7299H74.6201C74.6201 63.7299 74.6001 63.6499 74.5901 63.6099L74.6001 63.5899Z" fill="#EF9F48"/>
<path d="M33.5596 83.22C34.9296 78.71 36.3096 74.21 37.6596 69.7C38.3296 67.48 38.9696 65.26 39.6196 63.04H31.5096C31.4596 63.25 31.3996 63.46 31.3396 63.66C30.9796 64.88 30.5296 66.07 30.1696 67.29C29.7196 68.81 29.3396 70.35 28.8896 71.87C28.2396 74.05 27.5196 76.2001 26.8796 78.3801C26.4096 79.9801 26.0296 81.61 25.5596 83.22H33.5596Z" fill="#F2E061"/>
<path d="M66.3296 63.78C67.2996 66.84 68.3496 69.8801 69.2596 72.9601C70.2796 76.3701 71.2396 79.8 72.2096 83.22H80.2396C79.9596 82.24 79.6496 81.28 79.3696 80.3C78.4896 77.27 77.6196 74.2401 76.7496 71.2101C76.0296 68.6701 75.3296 66.12 74.5996 63.59C74.5496 63.41 74.4896 63.23 74.4396 63.04H66.0996C66.1796 63.29 66.2496 63.53 66.3296 63.78Z" fill="#F2E061"/>
<path d="M69.0396 80.4998C68.3196 78.0998 67.5296 75.7198 66.8196 73.3198C66.0396 70.6898 65.3196 68.0398 64.5596 65.4098C64.3396 64.6298 64.1096 63.8398 63.8796 63.0498H41.9096C40.9796 66.2098 40.0596 69.3698 39.1196 72.5298C38.0496 76.0998 36.9596 79.6698 35.8896 83.2398H69.8496C69.5796 82.3298 69.3096 81.4198 69.0396 80.5098V80.4998Z" fill="#F2E061"/>
<path d="M74.5897 99.21C73.6197 95.97 72.6397 92.74 71.6797 89.5C71.0597 87.41 70.4597 85.32 69.8397 83.23H35.8797C35.6997 83.84 35.5097 84.45 35.3297 85.06C33.5197 91.17 31.7297 97.29 29.9297 103.41H75.8297C75.4097 102.01 74.9997 100.61 74.5797 99.21H74.5897Z" fill="#3DA032"/>
<path d="M73.1797 86.6002C73.7597 88.6402 75.6197 89.7102 77.6597 89.1702C79.9297 88.5702 81.1697 86.7502 80.6497 84.6802C80.5297 84.1902 80.3897 83.7102 80.2497 83.2202H72.2197C72.5397 84.3502 72.8597 85.4702 73.1797 86.6002Z" fill="#3DA032"/>
<path d="M29.7696 89.2102C31.3496 88.9002 32.2196 87.9202 32.6096 86.4102C32.8096 85.6302 33.0696 84.8702 33.2996 84.1102C33.3896 83.8102 33.4796 83.5202 33.5696 83.2202H25.5696C25.4796 83.5102 25.3996 83.8102 25.2996 84.1002C24.8496 85.5102 24.8596 86.8102 25.9296 87.8902C26.9696 88.9402 28.2296 89.5102 29.7796 89.2102H29.7696Z" fill="#3DA032"/>
<path d="M29.8097 103.87C29.5497 104.75 29.5797 104.79 30.5097 104.78C32.3497 104.77 34.1797 104.76 36.0197 104.75C37.8897 104.75 39.7597 104.77 41.6297 104.75C42.2497 104.74 42.4797 104.92 42.4697 105.57C42.4497 111.58 42.4697 117.59 42.4697 123.6H51.8297C51.8297 117.82 51.8297 112.04 51.8297 106.26C51.8297 104.46 51.6797 104.81 53.3097 104.75C53.9797 104.72 54.2397 104.89 54.2397 105.63C54.2297 111.62 54.2397 117.61 54.2397 123.6H63.5097C63.5097 117.67 63.5097 111.75 63.5097 105.82C63.5097 104.76 63.5097 104.76 64.5797 104.76C67.3097 104.76 70.0497 104.76 72.7797 104.76C73.7197 104.76 74.6597 104.76 75.5897 104.76C75.9597 104.76 76.2297 104.68 76.0897 104.2C76.0097 103.94 75.9397 103.68 75.8597 103.42H29.9597C29.9097 103.57 29.8697 103.73 29.8197 103.88L29.8097 103.87Z" fill="#29BBEF"/>
<path d="M54.1993 139.31C54.1893 141.9 55.8892 143.47 57.9292 143.77H59.4393C59.8293 143.71 60.2193 143.61 60.5993 143.46C62.6393 142.67 63.4993 141.22 63.4993 138.85C63.4993 133.76 63.4993 128.67 63.4993 123.59H54.2293C54.2293 128.83 54.2293 134.07 54.1993 139.31Z" fill="#9719A5"/>
<path d="M49.2197 143.43C51.0397 142.62 51.8197 141.14 51.8197 139.21C51.8197 134 51.8197 128.8 51.8197 123.59H42.4597C42.4597 123.66 42.4597 123.73 42.4597 123.8C42.4597 128.95 42.5297 134.09 42.4297 139.23C42.3797 141.67 44.3097 143.42 46.4897 143.76H48.0797C48.4597 143.7 48.8397 143.59 49.2097 143.42L49.2197 143.43Z" fill="#9719A5"/>
<path d="M122.2 23.3701C116.6 23.3701 112.33 27.6901 112.34 33.3101C112.34 39.0601 116.52 43.2101 122.21 43.1701C127.77 43.1301 132.12 38.9201 132.05 33.3101C132.05 27.8301 127.62 23.3601 122.2 23.3701Z" fill="#DB3535"/>
<path d="M133.41 45.66C125.85 45.62 118.29 45.5799 110.74 45.6799C103.75 45.7699 98.4404 51.7 98.3904 58.21C98.3804 60.04 98.3704 61.88 98.3604 63.71H107.04C107.04 63.32 107.04 62.92 107.04 62.53C107.04 61.57 107.1 61.6199 108.46 61.5899C109.33 61.5699 109.23 62.1099 109.23 62.6499C109.23 62.9999 109.23 63.35 109.23 63.71H134.98C134.98 63.31 134.98 62.9 134.98 62.5C134.98 62.24 135.03 61.7799 135.11 61.7599C135.71 61.6699 136.32 61.6099 136.92 61.6799C137.05 61.6999 137.21 62.25 137.21 62.55C137.21 62.93 137.21 63.3199 137.21 63.6999H145.82C145.83 61.9699 145.85 60.2399 145.84 58.5099C145.84 57.5299 145.75 56.5199 145.53 55.5599C144.35 50.4099 139.66 45.6799 133.41 45.6499V45.66Z" fill="#EF9F48"/>
<path d="M109.23 63.0396C109.23 66.0996 109.23 69.1496 109.23 72.2096C109.23 75.8796 109.23 79.5496 109.23 83.2196H134.98C134.98 76.4896 134.98 69.7596 134.98 63.0396H109.23Z" fill="#F2E061"/>
<path d="M145.78 69.5296C145.78 67.3696 145.8 65.2096 145.82 63.0396H137.2C137.21 69.7696 137.2 76.4996 137.2 83.2196H145.82C145.81 78.6496 145.78 74.0896 145.77 69.5196L145.78 69.5296Z" fill="#F2E061"/>
<path d="M107.04 63.0398H98.3605C98.3405 69.7698 98.3605 76.4998 98.3605 83.2198H107.03C107.04 79.3098 107.03 75.4098 107.03 71.4998C107.03 68.6798 107.01 65.8598 107.03 63.0298L107.04 63.0398Z" fill="#F2E061"/>
<path d="M134.98 103.41C134.98 102.39 134.98 101.38 134.98 100.36H134.97C134.97 94.6502 134.97 88.9402 134.97 83.2202H109.22C109.22 89.9502 109.22 96.6802 109.22 103.4H120.93C120.93 100.75 120.93 98.0902 120.93 95.4402C120.93 93.6602 120.7 93.7502 122.59 93.7802C123.26 93.7802 123.39 94.0202 123.39 94.6202C123.39 97.5502 123.39 100.47 123.39 103.4H134.97L134.98 103.41Z" fill="#3DA032"/>
<path d="M137.22 89.4002C137.22 93.0202 140.63 94.2002 143.34 93.2402C145.15 92.6002 145.83 91.0002 145.84 89.2102C145.84 87.2102 145.84 85.2202 145.84 83.2202H137.22C137.22 85.2802 137.22 87.3402 137.23 89.4002H137.22Z" fill="#3DA032"/>
<path d="M98.3701 89.1602C98.3701 91.4902 99.8401 93.2502 102.13 93.5102C104.39 93.7702 106.4 92.8902 106.84 90.4502C107.07 89.1802 107.03 87.8402 107.03 86.5402C107.03 85.4302 107.03 84.3302 107.04 83.2202H98.3701C98.3701 85.2002 98.3701 87.1802 98.3701 89.1602Z" fill="#3DA032"/>
<path d="M123.4 123.59H134.98C134.98 116.86 134.98 110.13 134.98 103.41H123.4C123.4 110.14 123.4 116.87 123.4 123.59Z" fill="#29BBEF"/>
<path d="M109.23 103.41C109.23 105.17 109.23 106.93 109.23 108.69C109.23 113.66 109.23 118.62 109.23 123.59H120.94C120.94 116.86 120.94 110.13 120.94 103.41H109.23Z" fill="#29BBEF"/>
<path d="M123.4 123.59C123.4 128.22 123.4 132.85 123.4 137.47C123.4 138.19 123.43 138.93 123.63 139.61C124.28 141.92 126.15 143.43 128.28 143.77H130.11C130.52 143.7 130.94 143.59 131.34 143.43C133.8 142.46 134.98 140.46 134.98 137.82C134.98 133.08 134.98 128.33 134.98 123.59H123.4Z" fill="#9719A5"/>
<path d="M116.29 143.7C118.65 143.33 120.86 141.13 120.89 138.77C120.95 134.67 120.92 130.57 120.92 126.47C120.92 125.51 120.92 124.54 120.92 123.58H109.21C109.21 128.47 109.21 133.37 109.21 138.26C109.21 139.51 109.66 140.61 110.49 141.54C111.65 142.85 112.98 143.61 114.57 143.76H115.69C115.88 143.74 116.07 143.72 116.27 143.69L116.29 143.7Z" fill="#9719A5"/>
</g>
<defs>
<clipPath id="clip0_200_412">
<rect width="170" height="167" fill="white"/>
</clipPath>
</defs>
</svg>
