<?xml version="1.0" encoding="UTF-8"?>
<svg id="Layer_1" data-name="Layer 1" xmlns="http://www.w3.org/2000/svg" viewBox="0 0 120 120" width="100%" height="100%">
  <g>
    <circle cx="60" cy="60" r="55.41" style="fill: #fff; stroke: #005178; stroke-miterlimit: 10; stroke-width: 6px;"/>
    <circle cx="60" cy="60" r="48.69" style="fill: #5a97cb; stroke-width: 0px;"/>
    <circle cx="60" cy="60" r="55.41" style="fill: #fff; stroke: #005178; stroke-miterlimit: 10; stroke-width: 6px;"/>
    <circle cx="60" cy="60" r="48.69" style="fill: #5a97cb; stroke-width: 0px;"/>
  </g>
  <g>
    <circle cx="60.34" cy="54.94" r="1.17" style="fill: #fff; stroke-width: 0px;"/>
    <g>
      <g>
        <path d="m73.84,77.64l-4.52-4.52c-.36-.36-.94-.36-1.29,0l-1.29,1.29c-.71.71-1.87.71-2.59,0s-.71-1.87,0-2.59l1.29-1.29c.36-.36.36-.94,0-1.29l-4.52-4.52c-.36-.36-.94-.36-1.29,0l-3.88,3.88-.65-.65c-1.43-1.43-3.75-1.43-5.17,0-1.43,1.43-1.43,3.75,0,5.17l.65.65-3.88,3.88c-.36.36-.36.94,0,1.29l12.93,12.93c.36.36.94.36,1.29,0l12.93-12.93c.36-.36.36-.94,0-1.29Zm-13.57,12.28l-11.64-11.64,3.88-3.88c.36-.36.36-.94,0-1.29l-1.29-1.29c-.71-.71-.71-1.87,0-2.59s1.87-.71,2.59,0l1.29,1.29c.36.36.94.36,1.29,0l3.88-3.88,3.23,3.23-.65.65c-1.43,1.43-1.43,3.75,0,5.17,1.43,1.43,3.75,1.43,5.17,0l.65-.65,3.23,3.23-11.64,11.64Z" style="fill: #fff; stroke-width: 0px;"/>
        <path d="m26.01,58.24l12.93,12.93c.36.36.94.36,1.29,0l4.52-4.52c.36-.36.36-.94,0-1.29l-1.29-1.29c-.71-.71-.71-1.87,0-2.59s1.87-.71,2.59,0l1.29,1.29c.36.36.94.36,1.29,0l4.52-4.52c.36-.36.36-.94,0-1.29l-3.88-3.88.65-.65c1.43-1.43,1.43-3.75,0-5.17-1.43-1.43-3.75-1.43-5.17,0l-.65.65-3.88-3.88c-.36-.36-.94-.36-1.29,0l-12.93,12.93c-.36.36-.36.94,0,1.29Zm13.57-12.28l3.88,3.88c.36.36.94.36,1.29,0l1.29-1.29c.71-.71,1.87-.71,2.59,0,.71.71.71,1.87,0,2.59l-1.29,1.29c-.36.36-.36.94,0,1.29l3.88,3.88-3.23,3.23-.65-.65c-1.43-1.43-3.75-1.43-5.17,0-1.43,1.43-1.43,3.75,0,5.17l.65.65-3.23,3.23-11.64-11.64,11.64-11.64Z" style="fill: #fff; stroke-width: 0px;"/>
        <path d="m75.25,49.84l1.29,1.29c.71.71.71,1.87,0,2.59s-1.87.71-2.59,0l-1.29-1.29c-.36-.36-.94-.36-1.29,0l-4.52,4.52c-.36.36-.36.94,0,1.29l3.88,3.88-.65.65c-1.43,1.43-1.43,3.75,0,5.17,1.43,1.43,3.75,1.43,5.17,0l.65-.65,3.88,3.88c.36.36.94.36,1.29,0l12.93-12.93c.36-.36.36-.94,0-1.29l-12.93-12.93c-.36-.36-.94-.36-1.29,0l-4.52,4.52c-.36.36-.36.94,0,1.29Zm5.17-3.88l11.64,11.64-11.64,11.64-3.88-3.88c-.36-.36-.94-.36-1.29,0l-1.29,1.29c-.71.71-1.87.71-2.59,0s-.71-1.87,0-2.59l1.29-1.29c.36-.36.36-.94,0-1.29l-3.88-3.88,3.23-3.23.65.65c1.43,1.43,3.75,1.43,5.17,0s1.43-3.75,0-5.17l-.65-.65,3.23-3.23Z" style="fill: #fff; stroke-width: 0px;"/>
      </g>
      <path d="m60.24,51.53c-.12-1.68.25-3.27,2.15-4.55,6.78-5.18-4.34-11.58-6.4-3.45" style="fill: none; stroke: #fff; stroke-linecap: round; stroke-linejoin: round; stroke-width: 2px;"/>
      <line x1="60.34" y1="33.72" x2="60.34" y2="27.31" style="fill: none; stroke: #fff; stroke-linecap: round; stroke-linejoin: round; stroke-width: 2px;"/>
      <line x1="67.37" y1="38.25" x2="71.9" y2="33.72" style="fill: none; stroke: #fff; stroke-linecap: round; stroke-linejoin: round; stroke-width: 2px;"/>
      <line x1="53.48" y1="38.25" x2="48.95" y2="33.72" style="fill: none; stroke: #fff; stroke-linecap: round; stroke-linejoin: round; stroke-width: 2px;"/>
    </g>
  </g>
</svg>