<svg width="745" height="293" viewBox="0 0 745 293" fill="none" xmlns="http://www.w3.org/2000/svg">
<path opacity="0.24" d="M157.769 270.36C223.21 270.36 276.259 217.31 276.259 151.87C276.259 86.4296 223.21 33.3799 157.769 33.3799C92.3291 33.3799 39.2793 86.4296 39.2793 151.87C39.2793 217.31 92.3291 270.36 157.769 270.36Z" fill="#005178"/>
<path d="M140.87 22.4998C205.9 22.3598 259.14 75.5698 259.29 140.83C259.44 206.45 206.6 259.27 140.61 259.46C75.6904 259.65 22.1503 206.11 22.2403 141.09C22.3303 75.7298 75.4404 22.6398 140.88 22.4998H140.87ZM60.0503 129.53C59.7203 129.58 59.3903 129.64 59.0503 129.69C59.0503 126.32 56.9903 124.9 54.2303 124.76C50.6903 124.58 47.1203 124.84 43.5603 124.9C37.2903 125.01 33.8503 129.29 35.1003 135.46C35.2703 136.28 35.6903 137.07 35.7503 137.89C35.9103 139.98 35.9903 142.04 38.5103 142.8C41.0103 143.55 42.6203 142.29 44.1203 140.55C45.7103 138.71 47.5403 138.02 49.9403 139.66C48.6603 142.23 47.4203 144.71 45.9803 147.61C47.5403 147.79 48.3403 148 49.1303 147.97C54.8003 147.72 54.6404 147.84 54.9903 153.56C55.1103 155.51 56.6103 158.21 58.2503 159.02C60.1203 159.95 63.7403 160.14 65.0403 158.95C69.4003 154.96 73.9104 154.13 79.2603 156.04C80.0303 156.32 80.9303 156.35 81.7603 156.31C86.5303 156.08 89.9803 158.36 92.9604 161.82C93.7403 162.73 95.0804 163.65 96.1904 163.68C99.9704 163.81 101.82 165.88 102.81 169.21C103.66 172.07 105.75 173.15 108.61 173.84C114.08 175.15 119.54 176.68 124.77 178.71C131.13 181.17 131.78 183.84 127.73 189.34C125.25 192.71 123.16 195.99 123.69 200.49C124.34 205.96 122.64 210.03 116.7 211.72C112.98 212.78 110.98 215.48 110.32 219.58C109.8 222.78 108.84 226.67 106.64 228.69C102.31 232.68 99.3104 238.42 93.0504 240.16C92.2704 240.38 91.5804 240.93 90.5504 241.49C121.63 258.26 166.55 259.29 203.09 235.01C239.57 210.77 254.23 170.31 252.9 143.67C250.08 145.59 247.48 147.47 244.77 149.2C241.98 150.98 239.22 153.01 235.61 152.35C232.83 142.34 226.93 134.83 218.88 128.8C218.62 129.69 218.56 130.48 218.9 131.02C223.84 138.84 228.71 146.7 233.87 154.38C235.58 156.92 238.47 157.17 241.4 156.31C242.91 155.87 244.49 155.63 246.82 155.13C244.58 161.56 241.47 166.79 236.89 169.98C228.89 175.55 226.44 181.99 229.36 191.23C230.85 195.95 228.61 199.69 224.17 202.38C222.25 203.54 220.8 205.95 219.83 208.1C218 212.14 216.72 216.42 215.12 220.56C214.79 221.43 214.21 222.47 213.45 222.86C209.02 225.14 204.62 227.56 199.98 229.3C197.44 230.25 195.17 228.76 193.82 226.13C192.31 223.18 189.85 220.54 189.06 217.45C187.4 210.92 185.25 204.08 185.75 197.56C186.22 191.48 186.08 186 182.97 181.02C180.77 177.5 179.48 174.34 180.97 170.26C181.23 169.54 180.19 167.52 179.61 167.46C175.91 167.07 175.17 165.43 177.64 161.73C171.45 163.2 166.12 164.57 160.74 165.7C156.73 166.54 152.92 166.28 149.55 163.36C143.78 158.36 139.12 152.98 140.97 144.54C141.15 143.74 141.01 142.86 140.95 142.02C140.6 137.16 142.63 133.42 146.24 130.34C148.16 128.71 150.44 127.23 151.74 125.17C158.39 114.66 169.24 114.4 179.77 113.42C182.38 113.18 183.67 114.63 183.16 117.57C182.97 118.64 183.63 120.63 184.42 120.96C187.9 122.4 191.58 123.39 195.34 124.59C195.63 119.23 195.68 119.2 200.48 120.09C204.86 120.9 209.22 121.9 213.63 122.31C215.21 122.45 217.71 121.53 218.41 120.31C219.34 118.68 218.93 116.28 219.1 114.21C217.41 114.16 215.72 114.09 214.03 114.06C213.68 114.06 213.32 114.18 212.97 114.25C208.99 115.01 205.21 112.28 205.32 108.34C205.37 106.69 205.42 105.14 203.67 105.4C202.39 105.6 200.86 107.01 200.28 108.27C199.7 109.54 200.15 111.29 200.15 113.53C198.75 112.46 197.44 111.9 196.85 110.92C195.62 108.88 194.65 106.66 193.8 104.43C192.51 101.05 190.09 99.1698 186.5 98.4598C187.16 100.27 188.05 101.92 189.34 103.13C191.83 105.45 191.57 107.6 190.43 108.96C187.36 106.43 184.18 104.05 181.3 101.36C178.57 98.8098 175.7 100.42 172.85 100.54C170.29 100.65 170.84 102.63 170.5 104.19C170.34 104.91 169.6 105.52 169.08 106.14C167.94 107.51 166.65 108.77 165.65 110.24C163.92 112.8 156.99 114.99 154.33 113.47C153.58 113.04 152.92 111.85 152.83 110.95C152.2 104.55 154.98 101.32 161.32 101.18C163.5 101.13 164.78 100.38 164.04 98.2398C163.17 95.7298 161.78 93.3898 160.48 90.6998C165.42 91.0398 168.53 87.4598 171.76 83.7298C173.43 81.7998 175.95 80.5698 178.2 79.1998C178.93 78.7498 180 78.7598 180.92 78.7298C184.79 78.5798 188.67 78.6698 192.51 78.2798C193.55 78.1698 195.04 76.8498 195.31 75.8298C196.54 71.0898 197.94 66.6298 203.93 65.3198C200.59 63.1398 195.99 67.5898 194.97 62.5298C194.4 59.7298 195.75 56.5498 196.24 53.4498C193.51 53.3398 191.06 54.0298 190.46 57.5298C190.13 59.4998 190.06 61.5398 189.54 63.4498C188.59 66.9698 187.58 70.4998 186.22 73.8798C185.53 75.6098 183.92 75.4698 182.78 73.9998C181.63 72.5098 180.62 70.8998 180.03 70.0498C177.23 70.2598 174.74 71.1498 172.96 70.3898C171.19 69.6298 172.07 63.6598 173.89 61.4098C174.27 60.9398 174.78 60.5798 175.13 60.0998C179.9 53.3098 184.66 46.5098 190.13 38.6898C178.77 35.2398 168.37 32.0798 157.84 28.8798C156.45 32.5898 155.42 35.3898 154.35 38.1798C153.1 41.4598 150.58 42.7598 147.2 43.3898C140.3 44.6798 134.46 47.7698 131.17 54.4498C129.68 57.4698 128.12 60.4598 126.5 63.3998C125.59 65.0498 124.39 65.5798 122.76 64.0398C117.93 59.4598 115.03 46.5198 117.47 40.3098C118.64 37.3298 119.91 34.3298 118.21 30.3798C112.71 32.0598 107.35 33.7198 101.97 35.3298C99.0804 36.1898 99.3004 37.8598 101.07 39.4998C102.55 40.8598 104.4 41.8098 106.26 43.0498C103.98 45.4798 102.87 46.6498 101.81 47.7798C100.39 46.9198 99.3004 46.2598 97.3704 45.0898C98.3204 47.5598 99.6004 49.2598 99.4104 50.7898C99.1704 52.7998 97.7803 54.6698 96.8803 56.5998C95.6003 55.8698 93.9503 55.4198 93.1303 54.3498C91.1203 51.7298 89.3603 49.0898 85.4303 49.5598C84.6303 49.6598 83.7403 48.9998 82.7304 48.6198C85.8904 45.9698 88.7903 43.5298 91.7003 41.0898C91.4803 40.8298 91.2604 40.5698 91.0404 40.2998C81.3604 43.9198 63.3203 57.5798 57.9703 65.2298C61.4703 67.7198 64.9604 70.2098 68.5103 72.7298C67.0803 76.3498 68.2403 79.3698 72.4804 81.0598C70.3904 75.3098 74.4803 72.6798 77.6003 69.5398C77.6803 69.4598 77.7703 69.3498 77.7903 69.2398C78.5303 65.1798 79.3103 61.1298 79.9703 57.0598C80.1303 56.0898 79.9003 55.0498 79.8403 53.9898C85.2703 54.4298 89.0904 57.4598 89.8604 61.2498C90.1604 62.7398 91.1404 64.0998 91.8004 65.5098C92.9704 64.6698 94.1404 63.8298 95.3304 63.0098C95.5004 62.8898 95.7803 62.9398 96.2003 62.8898C96.5004 63.5898 97.0504 64.3198 97.1104 65.0898C97.4804 69.6598 99.6704 73.1198 102.87 76.3198C104 77.4498 104.38 79.7998 104.3 81.5498C104.18 84.0798 104.05 86.2098 106.46 87.8998C107.45 88.5898 107.86 90.1298 109.06 92.1998C105.25 91.6098 102.52 91.1898 99.4903 90.7198C100.6 88.4698 101.43 86.7998 102.12 85.4098H89.4203C91.7703 88.1798 89.0904 94.5398 95.8004 93.5598C93.3304 95.2898 90.8503 97.0198 88.2703 98.8198C87.6003 97.5398 87.2104 96.7998 86.5603 95.5598C81.0303 99.5398 75.9304 103.38 73.1903 109.43C71.3004 113.59 68.6703 116.76 64.3103 118.34C61.4803 119.36 60.0603 121.21 60.3603 124.38C60.5203 126.1 60.1803 127.87 60.0703 129.61L60.0503 129.53ZM28.6203 146.94C25.8403 172.99 53.6404 223.55 76.1903 232.46C76.6003 223.53 77.0403 214.81 77.3603 206.09C77.4303 204.08 76.2504 203.17 74.2603 202.36C71.3603 201.18 68.0904 199.68 66.2603 197.32C60.8803 190.39 58.8903 182.03 58.1903 173.41C58.0903 172.18 59.1503 170 60.1203 169.7C63.5203 168.64 63.4403 166.08 63.7803 163.49C59.467 162.81 55.6837 160.773 52.4303 157.38C51.3503 156.25 50.3403 154.98 49.0703 154.11C45.8503 151.92 42.7203 149.33 39.1403 148.02C36.0103 146.87 32.3203 147.25 28.6303 146.93L28.6203 146.94ZM243.14 91.5398C235.32 94.4098 234.55 96.7798 237.91 102.86C238.62 104.14 238.09 106.06 238.48 107.59C238.87 109.13 239.31 111.08 240.43 111.89C241.64 112.77 243.66 112.53 245.33 112.79C245.61 110.77 246.58 108.53 246.01 106.78C245.13 104.06 243.09 101.73 241.8 99.1098C241.41 98.3198 241.76 97.0898 241.95 96.0898C242.19 94.7998 242.61 93.5398 243.15 91.5398H243.14ZM207.24 104.76C211.99 104.76 216.23 104.09 220.14 104.96C223.68 105.74 225.57 104.8 227.98 101.3C224.38 99.8998 221.15 97.7298 217.87 97.6298C214.96 97.5498 212.9 97.2098 211.29 94.6798C210.93 94.6798 210.57 94.6798 210.22 94.6898C209.22 98.0698 208.23 101.44 207.25 104.76H207.24ZM253.72 131.07C249.41 128.24 245.44 125.64 240.82 122.61C240.28 127.3 242.47 129.43 244.94 131.33C247.53 133.33 250.28 134.06 253.72 131.07Z" fill="#005178"/>
<path d="M60.0506 129.53C60.1606 127.78 60.5006 126.02 60.3406 124.3C60.0406 121.12 61.4606 119.28 64.2906 118.26C68.6506 116.68 71.2906 113.51 73.1706 109.35C75.9106 103.3 81.0206 99.4598 86.5406 95.4798C87.1906 96.7198 87.5806 97.4498 88.2506 98.7398C90.8406 96.9298 93.3106 95.2098 95.7806 93.4798C89.0706 94.4598 91.7506 88.0998 89.4006 85.3298H102.101C101.411 86.7198 100.591 88.3898 99.4706 90.6398C102.501 91.1098 105.231 91.5298 109.041 92.1198C107.841 90.0498 107.431 88.5198 106.441 87.8198C104.031 86.1298 104.161 83.9998 104.281 81.4698C104.361 79.7198 103.981 77.3698 102.851 76.2398C99.6506 73.0498 97.4606 69.5798 97.0906 65.0098C97.0306 64.2398 96.4806 63.5198 96.1806 62.8098C95.7606 62.8598 95.4806 62.8098 95.3106 62.9298C94.1206 63.7398 92.9506 64.5898 91.7806 65.4298C91.1106 64.0098 90.1406 62.6598 89.8406 61.1698C89.0706 57.3798 85.2406 54.3598 79.8206 53.9098C79.8806 54.9698 80.1106 56.0098 79.9506 56.9798C79.2906 61.0498 78.5106 65.1098 77.7706 69.1598C77.7506 69.2698 77.6606 69.3798 77.5806 69.4598C74.4606 72.5898 70.3806 75.2298 72.4606 80.9798C68.2206 79.2898 67.0506 76.2798 68.4906 72.6498C64.9406 70.1198 61.4406 67.6398 57.9506 65.1498C63.3006 57.4998 81.3406 43.8398 91.0206 40.2198C91.2406 40.4798 91.4606 40.7398 91.6806 41.0098C88.7706 43.4498 85.8706 45.8898 82.7106 48.5398C83.7306 48.9098 84.6206 49.5798 85.4106 49.4798C89.3506 49.0098 91.1006 51.6398 93.1106 54.2698C93.9406 55.3498 95.5906 55.7898 96.8606 56.5198C97.7606 54.5898 99.1406 52.7198 99.3906 50.7098C99.5706 49.1798 98.3006 47.4798 97.3506 45.0098C99.2806 46.1798 100.361 46.8398 101.791 47.6998C102.851 46.5698 103.961 45.3898 106.241 42.9698C104.391 41.7298 102.531 40.7798 101.051 39.4198C99.2806 37.7898 99.0606 36.1198 101.951 35.2498C107.331 33.6398 112.691 31.9798 118.191 30.2998C119.891 34.2398 118.621 37.2498 117.451 40.2298C115.011 46.4398 117.901 59.3898 122.741 63.9598C124.371 65.5098 125.571 64.9698 126.481 63.3198C128.111 60.3698 129.671 57.3898 131.151 54.3698C134.441 47.6898 140.281 44.5998 147.181 43.3098C150.561 42.6798 153.081 41.3698 154.331 38.0998C155.401 35.3098 156.431 32.5098 157.821 28.7998C168.351 31.9998 178.741 35.1598 190.111 38.6098C184.641 46.4298 179.881 53.2298 175.111 60.0198C174.771 60.5098 174.251 60.8698 173.871 61.3298C172.051 63.5798 171.161 69.5598 172.941 70.3098C174.721 71.0698 177.211 70.1798 180.011 69.9698C180.601 70.8198 181.601 72.4298 182.761 73.9198C183.901 75.3898 185.511 75.5298 186.201 73.7998C187.561 70.4198 188.571 66.8898 189.521 63.3698C190.041 61.4498 190.111 59.4198 190.441 57.4498C191.031 53.9498 193.491 53.2598 196.221 53.3698C195.731 56.4598 194.381 59.6498 194.951 62.4498C195.971 67.5098 200.571 63.0598 203.911 65.2398C197.921 66.5498 196.521 71.0098 195.291 75.7498C195.021 76.7798 193.531 78.0998 192.491 78.1998C188.651 78.5898 184.761 78.4998 180.901 78.6498C179.981 78.6898 178.911 78.6798 178.181 79.1198C175.941 80.4898 173.411 81.7198 171.741 83.6498C168.511 87.3898 165.411 90.9598 160.461 90.6198C161.761 93.3198 163.151 95.6498 164.021 98.1598C164.761 100.3 163.491 101.05 161.301 101.1C154.961 101.25 152.181 104.48 152.811 110.87C152.901 111.77 153.561 112.96 154.311 113.39C156.971 114.91 163.901 112.72 165.631 110.16C166.621 108.69 167.921 107.43 169.061 106.06C169.581 105.44 170.321 104.83 170.481 104.11C170.821 102.55 170.281 100.57 172.831 100.46C175.681 100.34 178.551 98.7198 181.281 101.28C184.161 103.98 187.341 106.35 190.411 108.88C191.551 107.52 191.811 105.38 189.321 103.05C188.021 101.84 187.141 100.18 186.481 98.3798C190.071 99.0898 192.491 100.97 193.781 104.35C194.631 106.58 195.611 108.8 196.831 110.84C197.421 111.82 198.721 112.38 200.131 113.45C200.131 111.21 199.681 109.46 200.261 108.19C200.841 106.93 202.361 105.51 203.651 105.32C205.401 105.05 205.351 106.61 205.301 108.26C205.191 112.2 208.971 114.94 212.951 114.17C213.301 114.1 213.661 113.97 214.011 113.98C215.701 114.01 217.391 114.08 219.081 114.13C218.911 116.2 219.331 118.6 218.391 120.23C217.691 121.45 215.201 122.38 213.611 122.23C209.191 121.83 204.831 120.82 200.461 120.01C195.661 119.13 195.601 119.15 195.321 124.51C191.561 123.31 187.881 122.32 184.401 120.88C183.611 120.55 182.961 118.56 183.141 117.49C183.661 114.55 182.361 113.09 179.751 113.34C169.221 114.32 158.381 114.58 151.721 125.09C150.421 127.15 148.141 128.63 146.221 130.26C142.601 133.34 140.571 137.08 140.931 141.94C140.991 142.78 141.121 143.66 140.951 144.46C139.101 152.9 143.761 158.28 149.531 163.28C152.901 166.2 156.721 166.47 160.721 165.62C166.101 164.49 171.431 163.12 177.621 161.65C175.151 165.34 175.891 166.99 179.591 167.38C180.171 167.44 181.211 169.46 180.951 170.18C179.461 174.26 180.751 177.42 182.951 180.94C186.061 185.92 186.201 191.4 185.731 197.48C185.221 204 187.371 210.84 189.041 217.37C189.831 220.46 192.291 223.11 193.801 226.05C195.151 228.68 197.421 230.18 199.961 229.22C204.611 227.48 209.011 225.06 213.431 222.78C214.191 222.39 214.761 221.35 215.101 220.48C216.701 216.34 217.991 212.06 219.811 208.02C220.781 205.87 222.231 203.46 224.151 202.3C228.591 199.61 230.831 195.86 229.341 191.15C226.421 181.91 228.881 175.47 236.871 169.9C241.451 166.71 244.561 161.48 246.801 155.05C244.461 155.55 242.891 155.78 241.381 156.23C238.451 157.09 235.561 156.84 233.851 154.3C228.691 146.63 223.811 138.76 218.881 130.94C218.541 130.4 218.601 129.61 218.861 128.72C226.901 134.75 232.811 142.27 235.591 152.27C239.201 152.93 241.961 150.89 244.751 149.12C247.461 147.4 250.071 145.52 252.881 143.59C254.201 170.23 239.551 210.7 203.071 234.93C166.531 259.21 121.611 258.18 90.5306 241.41C91.5506 240.86 92.2406 240.3 93.0306 240.08C99.2906 238.33 102.281 232.59 106.621 228.61C108.821 226.59 109.781 222.7 110.301 219.5C110.971 215.39 112.971 212.69 116.681 211.64C122.611 209.95 124.321 205.88 123.671 200.41C123.131 195.91 125.221 192.63 127.711 189.26C131.761 183.76 131.121 181.09 124.751 178.63C119.511 176.6 114.051 175.07 108.591 173.76C105.731 173.07 103.641 172 102.791 169.13C101.801 165.8 99.9506 163.73 96.1706 163.6C95.0606 163.56 93.7206 162.64 92.9406 161.74C89.9606 158.28 86.5106 156 81.7406 156.23C80.9106 156.27 80.0106 156.23 79.2406 155.96C73.8906 154.05 69.3806 154.88 65.0206 158.87C63.7206 160.06 60.1006 159.87 58.2306 158.94C56.5906 158.12 55.0906 155.43 54.9706 153.48C54.6206 147.76 54.7806 147.63 49.1106 147.89C48.3206 147.93 47.5206 147.72 45.9606 147.53C47.4106 144.63 48.6406 142.15 49.9206 139.58C47.5306 137.94 45.6906 138.63 44.1006 140.47C42.6006 142.21 40.9806 143.48 38.4906 142.72C35.9706 141.96 35.8906 139.9 35.7306 137.81C35.6706 136.99 35.2406 136.2 35.0806 135.38C33.8306 129.21 37.2706 124.93 43.5406 124.82C47.1006 124.76 50.6706 124.5 54.2106 124.68C56.9706 124.82 59.0206 126.24 59.0306 129.61C59.3606 129.56 59.6906 129.5 60.0306 129.45L60.0506 129.53ZM159.311 86.9798C162.381 87.3898 165.241 87.1798 166.661 84.8998C167.391 83.7298 166.241 81.2398 165.641 79.4498C164.851 77.0998 163.901 74.7798 162.741 72.5898C162.191 71.5498 161.071 70.7398 160.041 70.0798C159.841 69.9498 158.431 70.9398 158.371 71.5098C158.251 72.5398 158.371 73.9898 159.011 74.6498C161.881 77.5498 162.411 80.4998 160.091 83.9598C159.611 84.6698 159.621 85.7098 159.311 86.9898V86.9798ZM152.071 82.5598C156.461 83.3598 158.341 82.2198 158.421 79.2798C158.441 78.6598 158.151 77.7598 157.701 77.4898C157.281 77.2298 156.211 77.4098 155.861 77.7998C154.621 79.1398 153.571 80.6498 152.081 82.5598H152.071Z" fill="#266F9B"/>
<path d="M28.6203 146.94C32.3103 147.26 36.0003 146.88 39.1303 148.03C42.7103 149.34 45.8403 151.93 49.0603 154.12C50.3303 154.99 51.3403 156.26 52.4203 157.39C55.6803 160.777 59.4637 162.814 63.7703 163.5C63.4403 166.09 63.5103 168.65 60.1103 169.71C59.1403 170.01 58.0803 172.19 58.1803 173.42C58.8803 182.04 60.8703 190.4 66.2503 197.33C68.0803 199.69 71.3503 201.19 74.2503 202.37C76.2503 203.18 77.4303 204.1 77.3503 206.1C77.0303 214.82 76.5803 223.54 76.1803 232.47C53.6303 223.56 25.8203 173 28.6103 146.95L28.6203 146.94Z" fill="#266F9B"/>
<path d="M243.141 91.54C242.601 93.54 242.181 94.8 241.941 96.09C241.751 97.09 241.4 98.31 241.79 99.11C243.08 101.73 245.121 104.06 246.001 106.78C246.571 108.53 245.601 110.77 245.321 112.79C243.651 112.54 241.641 112.77 240.421 111.89C239.301 111.08 238.861 109.13 238.471 107.59C238.081 106.05 238.61 104.14 237.9 102.86C234.54 96.78 235.311 94.41 243.131 91.54H243.141Z" fill="#266F9B"/>
<path d="M207.24 104.76C208.22 101.44 209.22 98.0702 210.21 94.6902C210.57 94.6902 210.93 94.6902 211.28 94.6802C212.89 97.2102 214.95 97.5502 217.86 97.6302C221.14 97.7202 224.37 99.8902 227.97 101.3C225.56 104.8 223.67 105.75 220.13 104.96C216.23 104.1 211.99 104.76 207.23 104.76H207.24Z" fill="#266F9B"/>
<path d="M253.721 131.07C250.281 134.06 247.531 133.33 244.941 131.33C242.481 129.43 240.281 127.3 240.821 122.61C245.441 125.64 249.411 128.24 253.721 131.07Z" fill="#266F9B"/>
<path d="M159.311 86.9899C159.621 85.7099 159.611 84.6699 160.091 83.9599C162.411 80.4999 161.881 77.5499 159.011 74.6499C158.361 73.9999 158.251 72.5399 158.371 71.5099C158.431 70.9499 159.841 69.9499 160.041 70.0799C161.071 70.7399 162.191 71.5499 162.741 72.5899C163.901 74.7799 164.851 77.0999 165.641 79.4499C166.241 81.2399 167.391 83.7299 166.661 84.8999C165.241 87.1799 162.371 87.3899 159.311 86.9799V86.9899Z" fill="#005178"/>
<path d="M152.071 82.5702C153.561 80.6602 154.611 79.1502 155.851 77.8102C156.201 77.4302 157.271 77.2502 157.691 77.5002C158.141 77.7802 158.431 78.6802 158.411 79.2902C158.331 82.2202 156.451 83.3702 152.061 82.5702H152.071Z" fill="#005178"/>
<path d="M97.8008 156.11V149.87H84.8408L83.7208 147.07L93.3208 126.55H99.3608L90.7608 144.83H97.8008V139.07L98.9608 135.67H103.721V144.83H106.761V148.91L103.721 149.87V156.11H97.8008ZM109.228 146.95V142.15H121.468V146.95H109.228ZM127.601 156.15V131.95L122.361 132.63V128.83L128.241 126.27H133.521V156.15H127.601ZM145.964 156.31C144.311 156.31 142.897 156.03 141.724 155.47C140.577 154.884 139.697 154.017 139.084 152.87C138.497 151.724 138.204 150.324 138.204 148.67V134.27C138.204 132.537 138.511 131.084 139.124 129.91C139.737 128.71 140.631 127.817 141.804 127.23C143.004 126.617 144.404 126.31 146.004 126.31H152.164C153.844 126.31 155.231 126.63 156.324 127.27C157.444 127.884 158.284 128.79 158.844 129.99C159.404 131.164 159.684 132.59 159.684 134.27V148.67C159.684 151.15 159.017 153.044 157.684 154.35C156.377 155.657 154.537 156.31 152.164 156.31H145.964ZM147.364 150.99H150.564C151.657 150.99 152.457 150.724 152.964 150.19C153.497 149.657 153.764 148.857 153.764 147.79V134.83C153.764 133.657 153.497 132.83 152.964 132.35C152.431 131.87 151.711 131.63 150.804 131.63H147.164C146.177 131.63 145.417 131.897 144.884 132.43C144.377 132.964 144.124 133.764 144.124 134.83V147.75C144.124 148.87 144.404 149.697 144.964 150.23C145.524 150.737 146.324 150.99 147.364 150.99ZM170.102 156.15L188.102 126.87H191.942L174.182 156.15H170.102ZM168.582 142.19C166.636 142.19 165.249 141.737 164.422 140.83C163.622 139.924 163.222 138.617 163.222 136.91V132.15C163.222 130.444 163.622 129.137 164.422 128.23C165.222 127.324 166.636 126.87 168.662 126.87H172.702C174.676 126.87 176.062 127.324 176.862 128.23C177.662 129.137 178.062 130.444 178.062 132.15V136.91C178.062 138.617 177.662 139.924 176.862 140.83C176.062 141.737 174.649 142.19 172.622 142.19H168.582ZM169.302 138.35H171.902C172.809 138.35 173.422 138.164 173.742 137.79C174.089 137.39 174.262 136.804 174.262 136.03V133.03C174.262 132.124 174.089 131.51 173.742 131.19C173.396 130.87 172.809 130.71 171.982 130.71H169.382C168.662 130.71 168.089 130.857 167.662 131.15C167.262 131.417 167.062 132.044 167.062 133.03V136.03C167.062 136.804 167.209 137.39 167.502 137.79C167.822 138.164 168.422 138.35 169.302 138.35ZM189.662 156.03C187.716 156.03 186.342 155.577 185.542 154.67C184.742 153.764 184.342 152.457 184.342 150.75V145.99C184.342 144.284 184.729 142.977 185.502 142.07C186.302 141.164 187.716 140.71 189.742 140.71H193.822C195.796 140.71 197.182 141.164 197.982 142.07C198.782 142.977 199.182 144.284 199.182 145.99V150.75C199.182 152.457 198.782 153.764 197.982 154.67C197.182 155.577 195.769 156.03 193.742 156.03H189.662ZM190.422 152.19H192.982C193.916 152.19 194.542 152.004 194.862 151.63C195.209 151.23 195.382 150.644 195.382 149.87V146.87C195.382 145.964 195.196 145.35 194.822 145.03C194.476 144.71 193.889 144.55 193.062 144.55H190.502C189.782 144.55 189.209 144.697 188.782 144.99C188.356 145.257 188.142 145.884 188.142 146.87V149.87C188.142 150.644 188.289 151.23 188.582 151.63C188.902 152.004 189.516 152.19 190.422 152.19Z" fill="white"/>
<path opacity="0.24" d="M485.849 268.95C485.969 266.85 485.019 265.18 484.009 263.52C483.269 262.31 482.649 261.03 483.189 259.51C483.449 258.78 483.089 258.23 482.449 257.86C481.929 257.55 481.419 257.2 480.879 256.93C480.029 256.51 479.739 255.8 479.879 254.94C480.019 254.05 479.669 253.47 478.919 253.1C477.249 252.27 476.359 251.02 476.139 249.08C475.889 246.93 474.549 245.17 473.339 243.43C471.949 241.43 470.439 239.5 469.019 237.59C466.919 237.37 464.819 237.18 462.719 236.93C460.869 236.71 459.509 237.49 458.469 238.92C457.469 240.29 456.549 241.71 455.589 243.11C455.379 243.41 455.179 243.72 454.889 244.15C453.409 243.3 451.939 242.58 450.589 241.66C448.179 240.03 445.839 238.27 443.459 236.58C442.669 236.02 442.329 235.35 442.389 234.33C442.529 232.07 442.099 229.86 440.879 227.95C439.979 226.54 438.809 225.28 437.649 224.07C436.479 222.85 435.139 221.8 433.929 220.62C432.489 219.23 431.439 217.57 430.689 215.65C428.569 215.45 426.459 215.28 424.359 215.03C422.679 214.82 421.009 214.53 419.339 214.23C417.959 213.98 417.069 214.46 416.699 215.82C416.509 216.5 416.459 217.21 416.319 218.09C414.839 217.97 413.339 217.94 411.869 217.73C408.039 217.19 404.219 216.57 400.389 215.99C398.109 215.64 395.819 215.31 393.549 214.95C393.139 214.89 392.719 214.75 392.369 214.54C389.279 212.66 386.219 210.73 383.119 208.86C380.019 206.99 376.919 205.14 373.769 203.36C371.929 202.32 370.019 201.39 368.099 200.5C367.169 200.07 366.589 199.48 366.239 198.52C365.589 196.74 365.209 196.47 363.309 196.54C360.349 196.65 357.499 195.91 354.589 195.63C352.049 195.39 349.529 195.08 346.999 194.79C346.819 194.77 346.639 194.72 346.389 194.67C346.349 194.28 346.289 193.92 346.289 193.55C346.279 191.94 346.289 190.34 346.279 188.73C346.269 186.16 344.859 184.2 343.379 182.3C342.499 181.18 341.779 179.98 341.319 178.46H338.079C335.649 174.27 332.159 171.81 327.319 171.14C327.369 170.56 327.389 170.06 327.469 169.57C327.989 166.27 327.619 163.05 326.459 159.96C325.619 157.72 324.479 155.6 323.539 153.4C323.269 152.77 323.119 152.06 323.109 151.38C323.089 150.44 323.249 149.5 323.339 148.56C323.479 146.95 323.229 145.46 322.139 144.19C321.229 143.13 321.129 141.76 321.699 139.67C320.889 139.29 320.749 138.51 320.679 137.69C320.649 137.31 320.619 136.94 320.599 136.56C320.539 135.6 320.339 134.74 319.319 134.69C319.049 133.5 318.779 132.47 318.579 131.43C318.449 130.76 318.419 130.07 318.329 129.24C317.709 128.49 316.949 127.59 316.199 126.67C315.669 126.02 315.439 125.3 315.659 124.44C316.119 122.66 316.639 120.89 316.939 119.09C317.169 117.71 317.189 116.27 317.119 114.87C317.079 114.16 316.779 113.36 316.359 112.79C315.379 111.47 315.459 110.22 316.179 108.84C316.879 107.51 317.469 106.13 318.129 104.78C319.639 101.71 320.619 98.46 321.169 95.12C321.499 93.13 321.669 91.05 321.439 89.06C321.099 86.18 322.299 84.25 324.469 82.68C324.659 82.54 324.869 82.43 325.059 82.29C325.939 81.62 326.479 80.85 326.659 79.66C327.189 76.11 328.579 72.89 330.859 70.07C331.119 69.75 331.279 69.22 331.249 68.81C331.139 67.23 331.539 65.83 332.399 64.52C333.029 63.57 333.109 62.49 333.079 61.39C333.049 60.29 333.279 59.95 334.329 59.69C335.099 59.51 335.899 59.45 336.739 59.33C336.539 58.7 336.029 58.73 335.539 58.7C335.089 58.67 334.629 58.63 334.029 58.58C335.419 55.37 334.949 52.17 334.819 48.98C334.699 46.15 334.499 43.32 335.019 40.5C335.089 40.13 335.169 39.76 335.269 39.4C335.319 39.23 335.419 39.06 335.549 38.77C336.239 38.97 336.929 39.1 337.559 39.37C339.509 40.2 341.429 41.11 343.379 41.93C344.889 42.56 346.429 43.1 347.979 43.69C348.559 42.89 348.489 42.15 348.439 41.4C348.369 40.36 348.299 39.33 348.289 38.29C348.289 37.87 348.419 37.46 348.499 37.04C348.619 36.39 349.009 36.2 349.629 36.33C351.289 36.69 352.959 36.99 354.609 37.39C358.779 38.39 362.949 39.41 367.109 40.46C370.809 41.39 374.479 42.44 378.189 43.31C379.509 43.62 380.909 43.66 382.269 43.67C383.189 43.68 383.889 43.94 384.539 44.58C385.509 45.53 385.539 45.5 386.549 44.8C388.129 45.42 389.649 46.03 391.189 46.6C391.719 46.8 392.269 46.92 392.819 47.03C397.289 48 401.739 49.05 406.229 49.9C412.109 51.01 418.019 52.03 423.979 52.66C429.659 53.26 435.309 54.12 440.979 54.76C446.419 55.38 451.869 55.88 457.329 56.39C461.469 56.78 465.599 57.14 469.749 57.45C475.819 57.9 481.899 58.27 487.979 58.72C497.549 59.44 507.139 59.4 516.729 59.53C516.959 59.53 517.179 59.49 517.549 59.45V56.43C519.089 56 519.959 56.35 520.319 57.65C520.689 59 520.879 60.4 521.189 61.96C521.419 62.01 521.819 62.09 522.219 62.18C523.129 62.4 524.039 62.62 524.949 62.84C526.569 63.25 528.199 63.63 529.659 62.38C530.129 61.97 530.659 62.1 531.129 62.3C533.149 63.18 535.179 64.06 537.169 65C538.269 65.52 539.309 66.19 540.409 66.72C541.659 67.32 542.279 67.23 543.129 66.18C543.809 65.34 544.799 65.23 545.539 66.07C546.249 66.87 546.939 67.25 547.969 66.52C548.269 66.31 548.859 66.41 549.289 66.49C550.759 66.76 552.219 67.08 553.769 67.4C553.659 67.52 553.509 67.81 553.279 67.92C551.769 68.68 550.309 69.63 548.719 70.1C546.059 70.89 544.109 72.59 542.269 74.48C540.919 75.86 539.679 77.34 538.399 78.77C538.249 78.94 538.129 79.13 537.909 79.42C539.579 79.56 540.959 79.16 542.239 78.46C543.619 77.71 545.089 77.32 546.549 76.94C547.239 78.15 546.449 79.07 546.219 80.11C547.129 80.5 547.979 80.22 548.669 79.86C550.079 79.12 551.389 78.18 552.769 77.38C553.939 76.71 555.109 75.99 556.369 75.53C557.409 75.15 558.189 74.6 558.829 73.75C559.109 73.38 559.449 73.04 559.699 72.65C560.569 71.29 561.839 71.09 563.499 71.34C562.699 73.11 561.939 74.79 561.079 76.66C561.549 76.63 561.899 76.66 562.219 76.58C562.629 76.48 563.009 76.25 563.419 76.16C564.589 75.88 565.169 76.12 565.839 77.1C566.049 77.41 566.229 77.75 566.459 78.04C567.969 79.99 571.729 80.22 573.429 78.45C574.299 77.54 575.139 76.96 576.589 77.19C577.619 77.36 578.799 76.87 579.869 76.54C580.789 76.26 581.669 75.81 582.649 75.39C582.729 75.87 582.749 76.2 582.829 76.51C583.019 77.23 583.379 77.81 584.149 78.04C585.189 78.35 586.219 78.68 587.259 78.97C588.629 79.36 589.349 80.11 589.439 81.25C589.479 81.79 589.329 82.14 588.759 82.31C585.489 83.26 582.229 84.24 578.759 83.79C577.309 83.6 576.039 83.83 575.089 85.05C575.029 85.12 574.949 85.18 574.879 85.24C573.599 86.41 573.399 86.43 571.829 85.52C571.349 86.18 570.849 86.83 570.379 87.52C569.239 89.19 567.879 90.72 567.289 92.71C567.139 93.23 566.829 93.77 567.419 94.32C567.989 94 568.179 93.4 568.539 92.94C568.819 92.58 569.109 92.16 569.499 91.96C569.809 91.8 570.319 91.81 570.629 91.96C570.779 92.03 570.779 92.64 570.689 92.96C570.279 94.31 569.799 95.64 569.359 96.98C568.239 100.37 567.889 103.9 567.729 107.43C567.599 110.26 567.739 113.1 567.649 115.93C567.599 117.4 568.119 118.66 568.859 119.78C569.859 121.3 571.109 122.66 572.249 124.09C572.599 124.52 572.999 124.56 573.509 124.39C574.709 124 575.479 123.19 576.049 122.09C576.909 120.41 576.979 118.56 577.339 116.76C577.779 114.57 577.319 112.66 576.359 110.67C575.489 108.86 575.069 106.83 575.039 104.77C575.019 103.1 575.539 101.64 576.839 100.41C575.799 98.92 575.789 97.25 576.219 95.57C576.489 94.52 576.959 93.55 577.849 92.84C578.719 92.14 578.919 92.12 579.719 92.93C580.279 93.5 580.899 93.84 581.879 93.59C581.789 92.89 581.699 92.21 581.609 91.52C581.389 89.78 581.609 89.41 583.399 88.67C583.069 87.83 582.739 86.99 582.369 86.04C584.129 84.84 586.159 84.99 588.159 85.67C590.469 86.45 592.619 87.71 595.179 87.9C595.179 88.41 595.099 88.85 595.199 89.23C595.399 89.99 595.549 90.83 595.999 91.43C596.889 92.61 597.239 93.84 596.929 95.27C596.479 97.31 595.769 99.22 594.259 100.77C593.799 101.24 593.439 101.94 593.329 102.59C593.169 103.5 593.849 103.89 594.679 103.43C595.019 103.24 595.309 102.88 595.529 102.54C595.949 101.91 596.269 101.22 596.689 100.6C597.439 99.49 598.999 99.3 600.029 100.17C600.349 100.44 600.699 100.72 600.919 101.08C602.079 103 603.529 104.76 604.309 106.91C604.759 108.13 604.589 109.32 604.399 110.54C604.229 111.6 603.329 112.03 602.639 112.64C602.349 112.9 601.949 113.24 601.929 113.57C601.779 116.14 600.659 118.26 599.009 120.15C598.949 120.22 598.919 120.32 598.869 120.41C598.899 121.12 599.459 121.32 600.009 121.46C601.739 121.93 603.469 122.38 605.199 122.81C605.449 122.87 605.769 122.81 606.019 122.72C607.419 122.17 608.859 121.68 610.199 121C612.089 120.05 613.659 118.72 614.399 116.56C615.759 117 616.789 116.51 617.809 115.72C620.029 113.98 622.349 112.36 624.559 110.61C625.399 109.95 626.079 109.08 626.759 108.25C627.449 107.41 627.309 105.86 626.569 104.8C626.219 104.3 625.849 103.8 625.609 103.25C625.329 102.64 625.409 102.05 626.129 101.71C626.339 101.61 626.509 101.43 626.729 101.35C629.939 100.09 633.169 99.14 636.629 100.36C636.959 100.48 637.389 100.45 637.729 100.35C641.709 99.11 643.099 97.12 643.729 93.18C643.909 92.07 643.779 90.92 643.809 89.79C643.819 89.38 643.759 88.89 643.959 88.56C644.999 86.78 646.219 85.09 647.159 83.26C648.149 81.34 649.839 80.71 651.709 80.33C654.569 79.74 657.459 79.29 660.319 78.67C662.009 78.3 663.669 77.81 665.219 76.93C666.219 76.36 667.379 76.05 668.489 75.71C668.719 75.64 669.079 75.92 669.359 76.06C670.439 76.59 670.919 76.29 670.949 75.06C670.999 72.78 671.069 72.62 673.229 72.02C674.219 71.75 674.769 71.16 675.099 70.29C675.269 69.85 675.389 69.39 675.469 68.93C675.649 67.88 675.989 66.93 677.119 66.27C676.259 64.78 676.649 63.26 676.849 61.71C676.949 60.9 676.719 60.05 676.679 59.22C676.649 58.67 676.609 58.1 676.729 57.57C677.349 55.04 678.499 52.73 679.699 50.34C680.069 50.37 680.449 50.37 680.799 50.44C683.329 51 683.989 50.78 685.619 48.77C686.889 49.36 688.189 49.95 689.479 50.55C689.499 50.51 689.519 50.47 689.549 50.43C689.579 50.46 689.629 50.49 689.639 50.53C690.589 53.39 691.739 56.2 692.419 59.12C692.929 61.31 693.949 62.9 695.789 64.05C696.659 64.59 697.159 65.38 697.199 66.37C697.239 67.23 697.739 67.5 698.409 67.69C698.549 67.73 698.689 67.74 698.829 67.77C700.559 68.08 700.879 68.74 699.939 70.24C699.619 70.75 699.189 71.23 698.729 71.62C697.549 72.62 696.629 73.76 696.329 75.3C695.399 75.7 694.649 75.41 693.879 74.97C692.449 74.15 691.909 74.41 691.539 76.05C691.269 77.25 690.989 77.38 689.189 77.1C688.739 78.68 689.249 80.34 688.889 81.98C688.459 82.08 688.029 82.11 687.649 82.27C687.189 82.47 686.659 82.7 686.379 83.08C685.579 84.17 684.669 84.95 683.149 84.79C683.089 85.89 683.129 86.93 682.969 87.94C682.559 90.64 682.119 93.34 681.579 96.02C681.359 97.12 681.659 97.84 682.509 98.46C683.609 99.26 684.689 100.09 685.809 100.87C687.399 101.97 687.599 102.67 686.869 104.45C686.539 105.26 686.349 106.14 686.059 107.08C685.089 107.37 684.129 107.04 683.199 106.53C683.119 106.49 683.069 106.39 682.989 106.34C682.389 105.98 681.779 105.4 681.059 105.72C680.329 106.04 680.569 106.87 680.529 107.51C680.459 108.95 680.469 108.94 679.059 109.26C676.269 109.88 673.729 111.1 671.209 112.39C669.629 113.2 668.059 114.04 666.389 114.91C666.809 115.46 667.339 115.65 667.889 115.56C668.759 115.42 669.639 115.22 670.459 114.91C672.029 114.33 673.579 113.87 675.369 114.36C675.349 115.54 674.669 116.22 673.819 116.73C673.099 117.17 672.309 117.51 671.529 117.84C670.539 118.26 669.699 118.86 669.239 119.84C668.919 120.52 668.429 120.66 667.759 120.64C666.679 120.61 665.589 120.64 664.389 120.64C665.709 123.93 665.579 127.28 665.539 130.62C665.539 131.43 665.249 132.03 664.719 132.64C663.769 133.74 662.949 134.93 661.989 136.19C660.939 136.23 660.489 135.21 659.859 134.52C659.379 134 658.939 133.48 658.069 133.34C658.189 135.99 659.839 137.19 662.059 137.99C662.059 140.73 662.079 143.45 662.039 146.18C662.039 146.77 661.919 147.42 661.169 147.76C660.609 147.32 660.089 146.74 659.429 146.45C658.819 146.18 658.059 146.22 657.499 146.13C656.799 145.45 656.209 144.73 655.479 144.21C654.769 143.7 653.909 143.41 653.009 142.97C654.089 141.32 653.839 139.67 653.009 138.03C652.349 136.72 652.089 135.37 652.699 133.9C651.069 133.27 650.959 135.11 649.729 135.35C651.029 137.11 651.039 139.08 651.279 140.98C651.479 142.54 652.149 143.73 653.659 144.5C652.459 146.22 653.389 147.53 654.399 148.85C655.029 149.68 655.129 150.05 655.249 151.4C654.849 151.47 654.439 151.53 653.889 151.62C654.609 152.87 655.229 154.1 656.229 155.11C657.339 156.23 658.779 156.12 660.339 156.17C660.259 158.64 661.179 161.04 660.189 163.46C659.739 164.56 659.769 164.53 658.589 164.67C657.659 164.78 656.729 165 655.849 165.3C655.449 165.44 655.079 165.84 654.849 166.21C654.739 166.38 654.899 166.88 655.089 167.05C655.259 167.2 655.719 167.2 655.929 167.07C656.399 166.77 656.799 166.36 657.219 165.98C657.929 165.34 658.689 165.23 659.719 165.8C659.399 166.52 659.099 167.21 658.789 167.93C659.469 168.32 659.929 168.14 660.249 167.56C660.379 167.32 660.399 167.02 660.489 166.75C661.009 165.24 661.319 165.11 662.919 165.76C663.539 167.5 661.659 168.78 662.199 170.63H655.969C655.939 170.72 655.909 170.81 655.879 170.9C656.149 171.09 656.419 171.28 656.709 171.46C657.809 172.16 658.029 172.88 657.519 174.09C657.499 174.13 657.479 174.18 657.459 174.22C657.046 175.167 657.299 175.837 658.219 176.23C658.339 176.28 658.449 176.39 658.579 176.48C658.699 177.3 658.219 177.71 657.539 177.91C657.139 178.03 656.699 178.15 656.289 178.1C655.199 177.98 654.599 178.55 654.229 179.44C653.899 180.22 653.539 180.84 652.499 180.79C652.229 180.78 651.889 181.28 651.639 181.6C651.149 182.22 650.769 182.96 650.199 183.5C648.889 184.74 647.909 186.11 647.829 187.98C647.269 188.09 646.779 188.2 646.269 188.27C644.619 188.51 643.959 189.9 643.049 191C641.879 192.42 641.109 194.01 641.219 195.91C641.269 196.78 640.599 197.2 640.129 197.63C638.039 199.53 636.009 201.48 634.459 203.97C633.689 203.43 632.989 202.94 632.109 202.32C631.689 203.38 631.299 204.27 630.969 205.17C630.389 206.73 629.689 208.2 628.439 209.34C628.089 209.66 627.979 210.02 628.149 210.48C628.819 212.32 628.189 213.78 626.849 215.06C625.809 216.06 625.829 216.63 626.819 217.63C626.919 217.73 627.019 217.83 627.129 217.93C628.149 218.94 628.149 219.01 627.129 220.06C628.049 221.99 628.929 223.97 629.929 225.88C631.259 228.42 632.679 230.91 634.059 233.42C635.509 236.05 636.999 238.66 638.419 241.31C639.629 243.55 640.819 245.8 641.929 248.08C643.289 250.87 644.559 253.7 645.859 256.51C646.029 256.89 646.219 257.3 646.239 257.71C646.479 261.21 645.699 264.52 644.629 267.83C644.089 269.51 642.949 270.14 641.559 270.68C641.299 270.78 640.999 270.84 640.729 270.81C639.129 270.64 636.569 269.67 636.409 267.25C636.329 266.05 635.729 265.62 634.719 265.41C633.749 265.21 632.779 265 631.819 264.74C631.379 264.62 630.979 264.34 630.449 264.08C630.769 262.28 629.889 260.93 628.789 259.65C628.459 259.27 628.199 258.76 628.109 258.28C627.919 257.29 627.319 256.83 626.409 256.63C625.999 256.54 625.589 256.4 625.169 256.33C623.549 256.05 622.759 255.02 622.499 253.47C622.209 251.69 622.259 249.98 623.669 248.49C621.449 247.11 621.179 244.96 620.929 242.79C620.849 242.09 620.789 241.37 620.599 240.69C620.219 239.3 619.589 238.1 618.139 237.48C616.369 236.72 615.119 235.26 613.739 233.98C612.209 232.57 610.589 231.3 608.719 230.38C607.539 229.8 606.369 229.77 605.299 230.71C604.029 231.82 602.699 232.86 601.439 234C600.229 235.09 598.959 235.08 597.899 233.86C597.589 233.51 597.249 233.15 597.059 232.73C596.269 230.99 594.779 230.46 593.039 230.35C591.669 230.26 590.309 230.21 588.939 230.12C587.269 230.01 585.649 229.75 584.449 228.37C583.259 229.12 582.149 229.82 581.049 230.52C580.769 230.7 580.509 230.89 580.219 231.05C579.059 231.71 577.999 231.59 577.089 230.62C576.579 230.08 576.149 229.46 575.709 228.85C575.569 228.66 575.499 228.43 575.279 227.98C574.619 229.06 574.179 229.76 573.759 230.47C573.189 231.45 572.939 231.62 571.849 231.35C569.279 230.71 567.019 231.68 564.759 232.67C564.459 232.8 564.179 232.99 563.879 233.1C562.379 233.62 561.639 233.31 560.909 231.91C559.959 232.09 558.999 232.27 558.039 232.44C558.209 233.36 559.019 234.1 560.159 234.23C560.949 234.32 561.759 234.29 562.569 234.32C562.989 234.34 563.419 234.34 563.839 234.42C564.319 234.51 564.989 234.42 565.119 235.08C565.249 235.75 565.059 236.4 564.519 236.88C564.279 237.09 564.009 237.25 563.699 237.47C564.989 239.08 566.889 239.69 568.439 240.82C568.209 241.82 567.509 242.12 566.669 242.19C564.529 242.37 562.679 241.69 561.139 240.2C561.049 240.23 560.939 240.22 560.899 240.28C558.919 242.7 556.269 242.57 553.619 242.06C550.839 241.53 548.479 240.25 546.649 237.39C545.449 237.33 544.439 237.94 543.639 238.69C542.519 239.75 541.289 239.93 539.869 239.84C537.049 239.67 534.389 238.85 531.839 237.74C531.069 237.4 530.529 237.42 529.889 237.85C528.879 238.53 527.829 239.16 526.839 239.88C525.219 241.07 523.609 240.95 521.889 239.91C521.299 241.07 520.789 242.27 520.109 243.37C519.199 244.85 518.189 246.26 517.169 247.66C516.979 247.91 516.519 248.12 516.199 248.1C515.049 248.02 514.049 248.4 513.109 248.95C511.969 249.62 510.829 249.78 509.599 249.23C509.389 249.14 509.089 249.22 508.509 249.22C508.919 249.79 509.139 250.17 509.429 250.48C509.769 250.84 510.159 251.18 509.819 251.68C509.449 252.22 508.849 252.27 508.289 252.05C507.819 251.87 507.409 251.56 506.869 251.24C506.269 253.24 504.819 254.42 503.369 255.63C502.339 256.49 501.589 257.59 501.709 259.13C500.879 259.17 500.139 259.21 499.349 259.25C499.109 260.46 499.369 261.54 499.769 262.61C500.059 263.4 500.439 264.19 500.589 265.01C500.709 265.72 500.719 266.54 500.469 267.21C500.219 267.89 500.289 268.36 500.699 268.88C501.609 270.05 501.899 271.42 501.859 272.87C501.819 274.36 501.149 274.82 499.749 274.3C498.689 273.91 497.629 273.5 496.609 273.02C495.549 272.52 494.459 272.36 493.309 272.39C492.949 272.39 492.469 272.41 492.239 272.2C490.489 270.67 488.349 269.93 486.229 269.14C486.139 269.11 486.059 269.05 485.869 268.95H485.849Z" fill="#005178"/>
<path d="M475.169 254.98C475.289 252.88 474.339 251.21 473.329 249.55C472.589 248.34 471.969 247.06 472.509 245.54C472.769 244.81 472.409 244.26 471.769 243.89C471.249 243.58 470.739 243.23 470.199 242.96C469.349 242.54 469.059 241.83 469.199 240.97C469.339 240.08 468.989 239.5 468.239 239.13C466.569 238.3 465.679 237.05 465.459 235.11C465.209 232.96 463.869 231.2 462.659 229.46C461.269 227.46 459.759 225.53 458.339 223.62C456.239 223.4 454.139 223.21 452.039 222.96C450.189 222.74 448.829 223.52 447.789 224.95C446.789 226.32 445.869 227.74 444.909 229.14C444.699 229.44 444.499 229.75 444.209 230.18C442.729 229.33 441.259 228.61 439.909 227.69C437.499 226.06 435.159 224.3 432.779 222.61C431.989 222.05 431.649 221.38 431.709 220.36C431.849 218.1 431.419 215.89 430.199 213.98C429.299 212.57 428.129 211.31 426.969 210.1C425.799 208.88 424.459 207.83 423.249 206.65C421.809 205.26 420.759 203.6 420.009 201.68C417.889 201.48 415.779 201.31 413.679 201.06C411.999 200.85 410.329 200.56 408.659 200.26C407.279 200.01 406.389 200.49 406.019 201.85C405.829 202.53 405.779 203.24 405.639 204.12C404.159 204 402.659 203.97 401.189 203.76C397.359 203.22 393.539 202.6 389.709 202.02C387.429 201.67 385.139 201.34 382.869 200.98C382.459 200.92 382.039 200.78 381.689 200.57C378.599 198.69 375.539 196.76 372.439 194.89C369.339 193.02 366.239 191.17 363.089 189.39C361.249 188.35 359.339 187.42 357.419 186.53C356.489 186.1 355.909 185.51 355.559 184.55C354.909 182.77 354.529 182.5 352.629 182.57C349.669 182.68 346.819 181.94 343.909 181.66C341.369 181.42 338.849 181.11 336.319 180.82C336.139 180.8 335.959 180.75 335.709 180.7C335.669 180.31 335.609 179.95 335.609 179.58C335.599 177.97 335.609 176.37 335.599 174.76C335.589 172.19 334.179 170.23 332.699 168.33C331.819 167.21 331.099 166.01 330.639 164.49H327.399C324.969 160.3 321.479 157.84 316.639 157.17C316.689 156.59 316.709 156.09 316.789 155.6C317.309 152.3 316.939 149.08 315.779 145.99C314.939 143.75 313.799 141.63 312.859 139.43C312.589 138.8 312.439 138.09 312.429 137.41C312.409 136.47 312.569 135.53 312.659 134.59C312.799 132.98 312.549 131.49 311.459 130.22C310.549 129.16 310.449 127.79 311.019 125.7C310.209 125.32 310.069 124.54 309.999 123.72C309.969 123.34 309.939 122.97 309.919 122.59C309.859 121.63 309.659 120.77 308.639 120.72C308.369 119.53 308.099 118.5 307.899 117.46C307.769 116.79 307.739 116.1 307.649 115.27C307.029 114.52 306.269 113.62 305.519 112.7C304.989 112.05 304.759 111.33 304.979 110.47C305.439 108.69 305.959 106.92 306.259 105.12C306.489 103.74 306.509 102.3 306.439 100.9C306.399 100.19 306.099 99.3898 305.679 98.8198C304.699 97.4998 304.779 96.2498 305.499 94.8698C306.199 93.5398 306.789 92.1598 307.449 90.8098C308.959 87.7398 309.939 84.4898 310.489 81.1498C310.819 79.1598 310.989 77.0798 310.759 75.0898C310.419 72.2098 311.619 70.2798 313.789 68.7098C313.979 68.5698 314.189 68.4598 314.379 68.3198C315.259 67.6498 315.799 66.8798 315.979 65.6898C316.509 62.1398 317.899 58.9198 320.179 56.0998C320.439 55.7798 320.599 55.2498 320.569 54.8398C320.459 53.2598 320.859 51.8598 321.719 50.5498C322.349 49.5998 322.429 48.5198 322.399 47.4198C322.369 46.3198 322.599 45.9798 323.649 45.7198C324.419 45.5398 325.219 45.4798 326.059 45.3598C325.859 44.7298 325.349 44.7598 324.859 44.7298C324.409 44.6998 323.949 44.6598 323.349 44.6098C324.739 41.3998 324.269 38.1998 324.139 35.0098C324.019 32.1798 323.819 29.3498 324.339 26.5298C324.409 26.1598 324.489 25.7898 324.589 25.4298C324.639 25.2598 324.739 25.0898 324.869 24.7998C325.559 24.9998 326.249 25.1298 326.879 25.3998C328.829 26.2298 330.749 27.1398 332.699 27.9598C334.209 28.5898 335.749 29.1298 337.299 29.7198C337.879 28.9198 337.809 28.1798 337.759 27.4298C337.689 26.3898 337.619 25.3598 337.609 24.3198C337.609 23.8998 337.739 23.4898 337.819 23.0698C337.939 22.4198 338.329 22.2298 338.949 22.3598C340.609 22.7198 342.279 23.0198 343.929 23.4198C348.099 24.4198 352.269 25.4398 356.429 26.4898C360.129 27.4198 363.799 28.4698 367.509 29.3398C368.829 29.6498 370.229 29.6898 371.589 29.6998C372.509 29.7098 373.209 29.9698 373.859 30.6098C374.829 31.5598 374.859 31.5298 375.869 30.8298C377.449 31.4498 378.969 32.0598 380.509 32.6298C381.039 32.8298 381.589 32.9498 382.139 33.0598C386.609 34.0298 391.059 35.0798 395.549 35.9298C401.429 37.0398 407.339 38.0598 413.299 38.6898C418.979 39.2898 424.629 40.1498 430.299 40.7898C435.739 41.4098 441.189 41.9098 446.649 42.4198C450.789 42.8098 454.919 43.1698 459.069 43.4798C465.139 43.9298 471.219 44.2998 477.299 44.7498C486.869 45.4698 496.459 45.4298 506.049 45.5598C506.279 45.5598 506.499 45.5198 506.869 45.4798V42.4598C508.409 42.0298 509.279 42.3798 509.639 43.6798C510.009 45.0298 510.199 46.4298 510.509 47.9898C510.739 48.0398 511.139 48.1198 511.539 48.2098C512.449 48.4298 513.359 48.6498 514.27 48.8698C515.889 49.2798 517.519 49.6598 518.979 48.4098C519.449 47.9998 519.979 48.1298 520.449 48.3298C522.469 49.2098 524.499 50.0898 526.489 51.0298C527.589 51.5498 528.629 52.2198 529.729 52.7498C530.979 53.3498 531.599 53.2598 532.449 52.2098C533.129 51.3698 534.119 51.2598 534.859 52.0998C535.569 52.8998 536.259 53.2798 537.289 52.5498C537.589 52.3398 538.179 52.4398 538.609 52.5198C540.079 52.7898 541.54 53.1098 543.09 53.4298C542.98 53.5498 542.829 53.8398 542.599 53.9498C541.089 54.7098 539.629 55.6598 538.039 56.1298C535.379 56.9198 533.43 58.6198 531.59 60.5098C530.24 61.8898 528.999 63.3698 527.719 64.7998C527.569 64.9698 527.449 65.1598 527.229 65.4498C528.899 65.5898 530.279 65.1898 531.559 64.4898C532.939 63.7398 534.409 63.3498 535.869 62.9698C536.559 64.1798 535.769 65.0998 535.539 66.1398C536.449 66.5298 537.299 66.2498 537.989 65.8898C539.399 65.1498 540.71 64.2098 542.09 63.4098C543.26 62.7398 544.429 62.0198 545.689 61.5598C546.729 61.1798 547.51 60.6298 548.15 59.7798C548.43 59.4098 548.77 59.0698 549.02 58.6798C549.889 57.3198 551.159 57.1198 552.819 57.3698C552.019 59.1398 551.26 60.8198 550.4 62.6898C550.87 62.6598 551.219 62.6898 551.539 62.6098C551.949 62.5098 552.329 62.2798 552.739 62.1898C553.909 61.9098 554.489 62.1498 555.159 63.1298C555.369 63.4398 555.55 63.7798 555.78 64.0698C557.29 66.0198 561.049 66.2498 562.749 64.4798C563.619 63.5698 564.459 62.9898 565.909 63.2198C566.939 63.3898 568.119 62.8998 569.189 62.5698C570.109 62.2898 570.989 61.8398 571.969 61.4198C572.049 61.8998 572.07 62.2298 572.15 62.5398C572.34 63.2598 572.699 63.8398 573.469 64.0698C574.509 64.3798 575.539 64.7098 576.579 64.9998C577.949 65.3898 578.669 66.1398 578.759 67.2798C578.799 67.8198 578.65 68.1698 578.079 68.3398C574.81 69.2898 571.549 70.2698 568.079 69.8198C566.629 69.6298 565.359 69.8598 564.409 71.0798C564.349 71.1498 564.27 71.2098 564.199 71.2698C562.919 72.4398 562.72 72.4598 561.15 71.5498C560.67 72.2098 560.169 72.8598 559.699 73.5498C558.559 75.2198 557.199 76.7498 556.609 78.7398C556.459 79.2598 556.149 79.7998 556.739 80.3498C557.309 80.0298 557.499 79.4298 557.859 78.9698C558.139 78.6098 558.429 78.1898 558.819 77.9898C559.129 77.8298 559.639 77.8398 559.949 77.9898C560.099 78.0598 560.099 78.6698 560.009 78.9898C559.599 80.3398 559.119 81.6698 558.679 83.0098C557.559 86.3998 557.209 89.9298 557.049 93.4598C556.919 96.2898 557.059 99.1298 556.969 101.96C556.919 103.43 557.439 104.69 558.179 105.81C559.179 107.33 560.429 108.69 561.569 110.12C561.919 110.55 562.319 110.59 562.829 110.42C564.03 110.03 564.799 109.22 565.369 108.12C566.229 106.44 566.299 104.59 566.659 102.79C567.099 100.6 566.639 98.6898 565.679 96.6998C564.809 94.8898 564.389 92.8598 564.359 90.7998C564.339 89.1298 564.859 87.6698 566.159 86.4398C565.119 84.9498 565.109 83.2798 565.539 81.5998C565.809 80.5498 566.279 79.5798 567.169 78.8698C568.039 78.1698 568.239 78.1498 569.039 78.9598C569.599 79.5298 570.219 79.8698 571.199 79.6198C571.109 78.9198 571.019 78.2398 570.929 77.5498C570.709 75.8098 570.929 75.4398 572.719 74.6998C572.389 73.8598 572.059 73.0198 571.689 72.0698C573.449 70.8698 575.479 71.0198 577.479 71.6998C579.789 72.4798 581.939 73.7398 584.499 73.9298C584.499 74.4398 584.419 74.8798 584.52 75.2598C584.72 76.0198 584.869 76.8598 585.319 77.4598C586.21 78.6398 586.559 79.8698 586.249 81.2998C585.799 83.3398 585.09 85.2498 583.579 86.7998C583.12 87.2698 582.759 87.9698 582.65 88.6198C582.49 89.5298 583.169 89.9198 583.999 89.4598C584.339 89.2698 584.629 88.9098 584.849 88.5698C585.269 87.9398 585.589 87.2498 586.009 86.6298C586.759 85.5198 588.319 85.3298 589.349 86.1998C589.669 86.4698 590.019 86.7498 590.239 87.1098C591.399 89.0298 592.849 90.7898 593.629 92.9398C594.079 94.1598 593.909 95.3498 593.719 96.5698C593.549 97.6298 592.65 98.0598 591.96 98.6698C591.669 98.9298 591.269 99.2698 591.249 99.5998C591.099 102.17 589.979 104.29 588.329 106.18C588.27 106.25 588.239 106.35 588.189 106.44C588.219 107.15 588.78 107.35 589.329 107.49C591.06 107.96 592.789 108.41 594.52 108.84C594.77 108.9 595.09 108.84 595.34 108.75C596.74 108.2 598.18 107.71 599.52 107.03C601.41 106.08 602.979 104.75 603.719 102.59C605.079 103.03 606.109 102.54 607.129 101.75C609.349 100.01 611.669 98.3898 613.879 96.6398C614.719 95.9798 615.4 95.1098 616.079 94.2798C616.77 93.4398 616.629 91.8898 615.889 90.8298C615.539 90.3298 615.169 89.8298 614.929 89.2798C614.649 88.6698 614.729 88.0798 615.449 87.7398C615.659 87.6398 615.829 87.4598 616.049 87.3798C619.259 86.1198 622.49 85.1698 625.949 86.3898C626.279 86.5098 626.709 86.4798 627.049 86.3798C631.029 85.1398 632.419 83.1498 633.049 79.2098C633.229 78.0998 633.099 76.9498 633.129 75.8198C633.139 75.4098 633.079 74.9198 633.28 74.5898C634.32 72.8098 635.539 71.1198 636.479 69.2898C637.469 67.3698 639.16 66.7398 641.03 66.3598C643.889 65.7698 646.78 65.3198 649.639 64.6998C651.329 64.3298 652.989 63.8398 654.539 62.9598C655.539 62.3898 656.699 62.0798 657.809 61.7398C658.039 61.6698 658.399 61.9498 658.679 62.0898C659.759 62.6198 660.24 62.3198 660.27 61.0898C660.319 58.8098 660.389 58.6498 662.549 58.0498C663.539 57.7798 664.089 57.1898 664.419 56.3198C664.589 55.8798 664.709 55.4198 664.789 54.9598C664.969 53.9098 665.309 52.9598 666.439 52.2998C665.579 50.8098 665.969 49.2898 666.169 47.7398C666.269 46.9298 666.039 46.0798 665.999 45.2498C665.969 44.6998 665.929 44.1298 666.049 43.5998C666.669 41.0698 667.819 38.7598 669.02 36.3698C669.389 36.3998 669.769 36.3998 670.119 36.4698C672.649 37.0298 673.309 36.8098 674.939 34.7998C676.209 35.3898 677.509 35.9798 678.799 36.5798C678.819 36.5398 678.839 36.4998 678.869 36.4598C678.899 36.4898 678.949 36.5198 678.96 36.5598C679.91 39.4198 681.059 42.2298 681.739 45.1498C682.249 47.3398 683.269 48.9298 685.109 50.0798C685.979 50.6198 686.479 51.4098 686.52 52.3998C686.56 53.2598 687.059 53.5298 687.729 53.7198C687.869 53.7598 688.009 53.7698 688.15 53.7998C689.88 54.1098 690.199 54.7698 689.259 56.2698C688.939 56.7798 688.509 57.2598 688.049 57.6498C686.869 58.6498 685.949 59.7898 685.65 61.3298C684.72 61.7298 683.969 61.4398 683.199 60.9998C681.77 60.1798 681.229 60.4398 680.859 62.0798C680.589 63.2798 680.309 63.4098 678.509 63.1298C678.059 64.7098 678.569 66.3698 678.21 68.0098C677.78 68.1098 677.349 68.1398 676.969 68.2998C676.509 68.4998 675.979 68.7298 675.699 69.1098C674.9 70.1998 673.989 70.9798 672.469 70.8198C672.409 71.9198 672.449 72.9598 672.289 73.9698C671.879 76.6698 671.44 79.3698 670.9 82.0498C670.68 83.1498 670.979 83.8698 671.829 84.4898C672.93 85.2898 674.009 86.1198 675.129 86.8998C676.719 87.9998 676.919 88.6998 676.189 90.4798C675.859 91.2898 675.669 92.1698 675.379 93.1098C674.409 93.3998 673.449 93.0698 672.52 92.5598C672.44 92.5198 672.389 92.4198 672.309 92.3698C671.709 92.0098 671.099 91.4298 670.379 91.7498C669.649 92.0698 669.889 92.8998 669.849 93.5398C669.779 94.9798 669.789 94.9698 668.379 95.2898C665.589 95.9098 663.049 97.1298 660.53 98.4198C658.95 99.2298 657.38 100.07 655.71 100.94C656.13 101.49 656.66 101.68 657.21 101.59C658.079 101.45 658.96 101.25 659.78 100.94C661.35 100.36 662.899 99.8998 664.689 100.39C664.669 101.57 663.99 102.25 663.139 102.76C662.419 103.2 661.629 103.54 660.849 103.87C659.859 104.29 659.019 104.89 658.559 105.87C658.239 106.55 657.75 106.69 657.079 106.67C656 106.64 654.91 106.67 653.71 106.67C655.03 109.96 654.899 113.31 654.859 116.65C654.859 117.46 654.569 118.06 654.039 118.67C653.089 119.77 652.269 120.96 651.309 122.22C650.259 122.26 649.809 121.24 649.179 120.55C648.699 120.03 648.259 119.51 647.389 119.37C647.509 122.02 649.159 123.22 651.379 124.02C651.379 126.76 651.399 129.48 651.359 132.21C651.359 132.8 651.239 133.45 650.489 133.79C649.929 133.35 649.409 132.77 648.749 132.48C648.139 132.21 647.379 132.25 646.819 132.16C646.119 131.48 645.529 130.76 644.799 130.24C644.089 129.73 643.229 129.44 642.329 129C643.409 127.35 643.159 125.7 642.329 124.06C641.669 122.75 641.41 121.4 642.02 119.93C640.389 119.3 640.279 121.14 639.049 121.38C640.349 123.14 640.359 125.11 640.599 127.01C640.799 128.57 641.469 129.76 642.979 130.53C641.779 132.25 642.709 133.56 643.719 134.88C644.349 135.71 644.449 136.08 644.569 137.43C644.169 137.5 643.759 137.56 643.21 137.65C643.93 138.9 644.549 140.13 645.549 141.14C646.659 142.26 648.099 142.15 649.659 142.2C649.579 144.67 650.499 147.07 649.509 149.49C649.059 150.59 649.089 150.56 647.909 150.7C646.979 150.81 646.049 151.03 645.169 151.33C644.769 151.47 644.399 151.87 644.169 152.24C644.059 152.41 644.219 152.91 644.409 153.08C644.579 153.23 645.039 153.23 645.249 153.1C645.719 152.8 646.119 152.39 646.539 152.01C647.249 151.37 648.009 151.26 649.039 151.83C648.719 152.55 648.419 153.24 648.109 153.96C648.789 154.35 649.249 154.17 649.569 153.59C649.699 153.35 649.719 153.05 649.809 152.78C650.329 151.27 650.639 151.14 652.239 151.79C652.859 153.53 650.979 154.81 651.52 156.66H645.289C645.259 156.75 645.229 156.84 645.199 156.93C645.469 157.12 645.74 157.31 646.03 157.49C647.13 158.19 647.35 158.91 646.84 160.12C646.82 160.16 646.799 160.21 646.78 160.25C646.366 161.196 646.619 161.866 647.539 162.26C647.659 162.31 647.77 162.42 647.9 162.51C648.02 163.33 647.539 163.74 646.859 163.94C646.459 164.06 646.019 164.18 645.609 164.13C644.519 164.01 643.919 164.58 643.549 165.47C643.219 166.25 642.859 166.87 641.819 166.82C641.549 166.81 641.21 167.31 640.96 167.63C640.47 168.25 640.09 168.99 639.52 169.53C638.21 170.77 637.229 172.14 637.15 174.01C636.59 174.12 636.1 174.23 635.59 174.3C633.94 174.54 633.279 175.93 632.369 177.03C631.199 178.45 630.429 180.04 630.539 181.94C630.589 182.81 629.919 183.23 629.449 183.66C627.359 185.56 625.329 187.51 623.78 190C623.01 189.46 622.309 188.97 621.429 188.35C621.009 189.41 620.619 190.3 620.289 191.2C619.709 192.76 619.009 194.23 617.759 195.37C617.409 195.69 617.299 196.05 617.469 196.51C618.139 198.35 617.509 199.81 616.169 201.09C615.129 202.09 615.15 202.66 616.139 203.66C616.24 203.76 616.34 203.86 616.449 203.96C617.469 204.97 617.469 205.04 616.449 206.09C617.37 208.02 618.249 210 619.249 211.91C620.579 214.45 621.999 216.94 623.379 219.45C624.829 222.08 626.319 224.69 627.739 227.34C628.949 229.58 630.139 231.83 631.249 234.11C632.609 236.9 633.879 239.73 635.179 242.54C635.349 242.92 635.539 243.33 635.559 243.74C635.799 247.24 635.02 250.55 633.949 253.86C633.409 255.54 632.27 256.17 630.879 256.71C630.619 256.81 630.319 256.87 630.049 256.84C628.449 256.67 625.889 255.7 625.729 253.28C625.649 252.08 625.049 251.65 624.039 251.44C623.069 251.24 622.099 251.03 621.139 250.77C620.699 250.65 620.299 250.37 619.77 250.11C620.09 248.31 619.209 246.96 618.109 245.68C617.779 245.3 617.519 244.79 617.429 244.31C617.239 243.32 616.639 242.86 615.729 242.66C615.319 242.57 614.909 242.43 614.489 242.36C612.869 242.08 612.079 241.05 611.819 239.5C611.529 237.72 611.579 236.01 612.989 234.52C610.769 233.14 610.499 230.99 610.249 228.82C610.169 228.12 610.109 227.4 609.919 226.72C609.539 225.33 608.91 224.13 607.46 223.51C605.69 222.75 604.439 221.29 603.059 220.01C601.529 218.6 599.909 217.33 598.039 216.41C596.859 215.83 595.689 215.8 594.619 216.74C593.349 217.85 592.02 218.89 590.759 220.03C589.549 221.12 588.279 221.11 587.219 219.89C586.909 219.54 586.569 219.18 586.379 218.76C585.589 217.02 584.099 216.49 582.359 216.38C580.989 216.29 579.629 216.24 578.259 216.15C576.589 216.04 574.97 215.78 573.77 214.4C572.579 215.15 571.469 215.85 570.369 216.55C570.089 216.73 569.829 216.92 569.539 217.08C568.379 217.74 567.319 217.62 566.409 216.65C565.899 216.11 565.47 215.49 565.03 214.88C564.889 214.69 564.819 214.46 564.599 214.01C563.939 215.09 563.5 215.79 563.079 216.5C562.509 217.48 562.259 217.65 561.169 217.38C558.599 216.74 556.339 217.71 554.079 218.7C553.779 218.83 553.499 219.02 553.199 219.13C551.699 219.65 550.959 219.34 550.229 217.94C549.279 218.12 548.319 218.3 547.359 218.47C547.529 219.39 548.339 220.13 549.479 220.26C550.269 220.35 551.079 220.32 551.889 220.35C552.309 220.37 552.739 220.37 553.159 220.45C553.639 220.54 554.309 220.45 554.439 221.11C554.569 221.78 554.38 222.43 553.84 222.91C553.6 223.12 553.329 223.28 553.02 223.5C554.309 225.11 556.209 225.72 557.759 226.85C557.529 227.85 556.829 228.15 555.989 228.22C553.849 228.4 551.999 227.72 550.46 226.23C550.37 226.26 550.259 226.25 550.219 226.31C548.239 228.73 545.589 228.6 542.939 228.09C540.159 227.56 537.799 226.28 535.969 223.42C534.769 223.36 533.76 223.97 532.96 224.72C531.84 225.78 530.609 225.96 529.189 225.87C526.369 225.7 523.709 224.88 521.159 223.77C520.389 223.43 519.85 223.45 519.21 223.88C518.2 224.56 517.149 225.19 516.159 225.91C514.539 227.1 512.929 226.98 511.209 225.94C510.619 227.1 510.109 228.3 509.429 229.4C508.519 230.88 507.509 232.29 506.489 233.69C506.299 233.94 505.839 234.15 505.519 234.13C504.369 234.05 503.369 234.43 502.429 234.98C501.289 235.65 500.149 235.81 498.919 235.26C498.709 235.17 498.409 235.25 497.829 235.25C498.239 235.82 498.459 236.2 498.749 236.51C499.089 236.87 499.479 237.21 499.139 237.71C498.77 238.25 498.169 238.3 497.609 238.08C497.139 237.9 496.729 237.59 496.189 237.27C495.589 239.27 494.139 240.45 492.689 241.66C491.659 242.52 490.909 243.62 491.029 245.16C490.199 245.2 489.459 245.24 488.669 245.28C488.429 246.49 488.689 247.57 489.089 248.64C489.379 249.43 489.759 250.22 489.909 251.04C490.029 251.75 490.039 252.57 489.789 253.24C489.539 253.92 489.609 254.39 490.019 254.91C490.929 256.08 491.219 257.45 491.179 258.9C491.139 260.39 490.469 260.85 489.069 260.33C488.009 259.94 486.949 259.53 485.929 259.05C484.869 258.55 483.779 258.39 482.629 258.42C482.269 258.42 481.789 258.44 481.559 258.23C479.809 256.7 477.669 255.96 475.549 255.17C475.459 255.14 475.379 255.08 475.189 254.98H475.169Z" fill="#005178"/>
<path d="M443.829 156.09L452.629 132.41H440.029V126.49H458.709L460.269 129.01L450.469 156.09H443.829ZM460.927 146.89V142.09H473.167V146.89H460.927ZM479.3 156.09V131.89L474.06 132.57V128.77L479.94 126.21H485.22V156.09H479.3ZM497.663 156.25C496.01 156.25 494.596 155.97 493.423 155.41C492.276 154.823 491.396 153.957 490.783 152.81C490.196 151.663 489.903 150.263 489.903 148.61V134.21C489.903 132.477 490.21 131.023 490.823 129.85C491.436 128.65 492.33 127.757 493.503 127.17C494.703 126.557 496.103 126.25 497.703 126.25H503.863C505.543 126.25 506.93 126.57 508.023 127.21C509.143 127.823 509.983 128.73 510.543 129.93C511.103 131.103 511.383 132.53 511.383 134.21V148.61C511.383 151.09 510.716 152.983 509.383 154.29C508.076 155.597 506.236 156.25 503.863 156.25H497.663ZM499.063 150.93H502.263C503.356 150.93 504.156 150.663 504.663 150.13C505.196 149.597 505.463 148.797 505.463 147.73V134.77C505.463 133.597 505.196 132.77 504.663 132.29C504.13 131.81 503.41 131.57 502.503 131.57H498.863C497.876 131.57 497.116 131.837 496.583 132.37C496.076 132.903 495.823 133.703 495.823 134.77V147.69C495.823 148.81 496.103 149.637 496.663 150.17C497.223 150.677 498.023 150.93 499.063 150.93ZM521.802 156.09L539.802 126.81H543.642L525.882 156.09H521.802ZM520.282 142.13C518.335 142.13 516.948 141.677 516.122 140.77C515.322 139.863 514.922 138.557 514.922 136.85V132.09C514.922 130.383 515.322 129.077 516.122 128.17C516.922 127.263 518.335 126.81 520.362 126.81H524.402C526.375 126.81 527.762 127.263 528.562 128.17C529.362 129.077 529.762 130.383 529.762 132.09V136.85C529.762 138.557 529.362 139.863 528.562 140.77C527.762 141.677 526.348 142.13 524.322 142.13H520.282ZM521.002 138.29H523.602C524.508 138.29 525.122 138.103 525.442 137.73C525.788 137.33 525.962 136.743 525.962 135.97V132.97C525.962 132.063 525.788 131.45 525.442 131.13C525.095 130.81 524.508 130.65 523.682 130.65H521.082C520.362 130.65 519.788 130.797 519.362 131.09C518.962 131.357 518.762 131.983 518.762 132.97V135.97C518.762 136.743 518.908 137.33 519.202 137.73C519.522 138.103 520.122 138.29 521.002 138.29ZM541.362 155.97C539.415 155.97 538.042 155.517 537.242 154.61C536.442 153.703 536.042 152.397 536.042 150.69V145.93C536.042 144.223 536.428 142.917 537.202 142.01C538.002 141.103 539.415 140.65 541.442 140.65H545.522C547.495 140.65 548.882 141.103 549.682 142.01C550.482 142.917 550.882 144.223 550.882 145.93V150.69C550.882 152.397 550.482 153.703 549.682 154.61C548.882 155.517 547.468 155.97 545.442 155.97H541.362ZM542.122 152.13H544.682C545.615 152.13 546.242 151.943 546.562 151.57C546.908 151.17 547.082 150.583 547.082 149.81V146.81C547.082 145.903 546.895 145.29 546.522 144.97C546.175 144.65 545.588 144.49 544.762 144.49H542.202C541.482 144.49 540.908 144.637 540.482 144.93C540.055 145.197 539.842 145.823 539.842 146.81V149.81C539.842 150.583 539.988 151.17 540.282 151.57C540.602 151.943 541.215 152.13 542.122 152.13Z" fill="white"/>
<path d="M92.3001 240.5C91.7901 240.77 91.2601 241.13 90.5801 241.5C119.1 256.89 159.26 259 193.91 240.5H92.3001Z" fill="#5FBBFF"/>
<path d="M92.6309 240.5H88.6309L90.5709 241.5L92.6309 240.5Z" fill="#AE00FF"/>
<path d="M555.95 228.22C556.59 228.17 557.15 227.98 557.48 227.46H552.1C553.25 228.08 554.54 228.34 555.95 228.22Z" fill="#5FBBFF"/>
<path d="M610.22 228.8C610.46 230.97 610.74 233.13 612.96 234.5C611.55 235.99 611.49 237.69 611.79 239.48C612.05 241.03 612.84 242.07 614.46 242.34C614.88 242.41 615.28 242.54 615.7 242.64C616.61 242.84 617.21 243.31 617.4 244.29C617.49 244.78 617.76 245.28 618.09 245.66C619.19 246.95 620.06 248.3 619.75 250.09C620.28 250.35 620.68 250.63 621.12 250.75C622.07 251.02 623.05 251.22 624.02 251.42C625.03 251.63 625.63 252.06 625.71 253.26C625.88 255.68 628.43 256.65 630.04 256.82C630.31 256.85 630.61 256.79 630.87 256.69C632.26 256.14 633.4 255.52 633.94 253.84C635.01 250.52 635.79 247.21 635.55 243.72C635.52 243.31 635.34 242.9 635.17 242.52C633.87 239.7 632.6 236.87 631.24 234.09C630.15 231.85 628.98 229.65 627.8 227.45H610.07C610.14 227.89 610.2 228.34 610.25 228.79L610.22 228.8Z" fill="#5FBBFF"/>
<path d="M498.901 235.26C500.131 235.8 501.271 235.64 502.411 234.98C503.351 234.43 504.351 234.05 505.501 234.13C505.821 234.15 506.281 233.95 506.471 233.69C507.491 232.29 508.501 230.87 509.411 229.4C509.791 228.78 510.121 228.12 510.441 227.46H461.211C461.701 228.12 462.191 228.77 462.661 229.45C463.871 231.19 465.221 232.95 465.461 235.1C465.681 237.05 466.571 238.29 468.241 239.12C468.991 239.49 469.341 240.07 469.201 240.96C469.061 241.82 469.351 242.53 470.201 242.95C470.741 243.22 471.251 243.57 471.771 243.88C472.411 244.26 472.771 244.8 472.511 245.53C471.971 247.05 472.591 248.32 473.331 249.54C474.341 251.21 475.291 252.87 475.171 254.97C475.371 255.07 475.441 255.13 475.531 255.16C477.651 255.94 479.791 256.68 481.541 258.22C481.771 258.43 482.251 258.42 482.611 258.41C483.761 258.38 484.861 258.54 485.921 259.04C486.941 259.52 488.001 259.92 489.061 260.32C490.461 260.84 491.141 260.38 491.171 258.89C491.211 257.44 490.911 256.07 490.011 254.9C489.601 254.37 489.531 253.91 489.781 253.23C490.021 252.57 490.021 251.74 489.901 251.03C489.761 250.21 489.381 249.42 489.081 248.63C488.691 247.56 488.421 246.49 488.661 245.27C489.461 245.23 490.191 245.19 491.021 245.15C490.891 243.62 491.651 242.52 492.681 241.65C494.131 240.44 495.581 239.26 496.181 237.26C496.721 237.57 497.131 237.88 497.601 238.07C498.161 238.29 498.761 238.24 499.131 237.7C499.471 237.2 499.081 236.85 498.741 236.5C498.451 236.19 498.231 235.81 497.821 235.24C498.401 235.24 498.691 235.16 498.911 235.25L498.901 235.26Z" fill="#5FBBFF"/>
<path d="M542.891 228.09C545.011 228.5 547.141 228.66 548.921 227.46H540.711C541.401 227.73 542.131 227.94 542.891 228.09Z" fill="#5FBBFF"/>
<path d="M444.9 229.13C445.28 228.58 445.65 228.02 446.02 227.46H439.57C439.68 227.53 439.78 227.61 439.89 227.68C441.24 228.59 442.71 229.32 444.19 230.17C444.48 229.73 444.69 229.43 444.89 229.13H444.9Z" fill="#5FBBFF"/>
</svg>
