<svg width="75" height="75" viewBox="0 0 75 75" fill="none" xmlns="http://www.w3.org/2000/svg">
<path d="M39.7895 41.2305C39.4495 41.5205 34.6595 44.6405 34.3195 44.9305C33.2295 45.8905 33.4395 47.9605 34.4095 49.1005C35.6695 50.5805 36.8595 52.1505 37.3695 54.0905" stroke="#0B5079" stroke-width="3" stroke-miterlimit="10" stroke-linecap="round"/>
<path d="M37.3696 54.0901C38.1896 56.8501 38.7596 60.0001 38.9596 62.1601C39.0796 63.5201 40.1496 64.4901 41.4096 64.3601C42.5596 64.2401 43.4696 63.0301 43.3696 61.7901C43.1296 59.0301 42.9796 55.0601 42.7496 52.1901C42.7296 51.9101 42.6496 51.6401 42.5196 51.4001L40.6096 47.6601C40.4896 47.4201 40.5496 47.1301 40.7596 46.9601L46.1096 42.7801C46.3296 42.6101 46.4696 42.3401 46.4796 42.0601C46.5196 41.2901 46.5496 40.6001 46.5496 40.0301C46.5596 38.7601 45.6896 38.2301 44.8196 37.7201C44.2396 37.3801 37.1596 36.1801 33.5196 35.5701C32.3396 35.3701 31.2396 36.1901 31.0696 37.3701C30.9096 38.5101 31.6896 39.5801 32.8296 39.7701L41.5996 41.2301" stroke="#0B5079" stroke-width="3" stroke-miterlimit="10" stroke-linecap="round"/>
<path d="M33.9393 49.0801C33.6093 50.1801 33.5793 51.0701 33.2593 52.3801C32.7193 54.5301 31.6093 56.3701 30.3993 58.1301C29.7693 59.0501 29.1593 59.9901 28.5693 60.9401C27.8893 62.0401 28.0893 63.1701 29.0493 63.8701C30.0993 64.6301 31.2193 64.6001 31.9593 63.4801C33.6893 60.8601 36.4793 57.2201 37.3693 54.0801" stroke="#0B5079" stroke-width="3" stroke-miterlimit="10" stroke-linecap="round"/>
<path d="M51.1094 38.4297C53.1804 38.4297 54.8594 36.7508 54.8594 34.6797C54.8594 32.6086 53.1804 30.9297 51.1094 30.9297C49.0383 30.9297 47.3594 32.6086 47.3594 34.6797C47.3594 36.7508 49.0383 38.4297 51.1094 38.4297Z" stroke="#0B5079" stroke-width="3" stroke-miterlimit="10" stroke-linecap="round"/>
<path d="M28.919 43.05C22.039 41.44 16.139 35.03 20.949 28.42C25.759 21.81 24.689 13.07 32.979 13.41C40.499 13.72 46.489 19.5 47.299 26.75" stroke="#0B5079" stroke-width="3" stroke-miterlimit="10" stroke-linecap="round"/>
<path d="M32.4609 12.7596L33.2509 5.38965L20.9609 9.77965L27.9109 14.9296" stroke="#0B5079" stroke-width="3" stroke-miterlimit="10" stroke-linecap="round"/>
<path d="M37.7508 23.9698C37.3608 23.3698 37.0308 22.8498 36.6008 22.1798C36.2208 22.9498 35.9108 23.5298 35.6708 24.1498C35.6208 24.2798 35.8308 24.5698 35.9808 24.7198C36.7908 25.4998 37.5008 26.3298 37.4308 27.5498C37.3308 29.2798 35.9008 30.5798 34.0308 30.3698C32.9308 30.2398 32.3208 30.4598 32.0308 31.5198C32.0208 31.5698 31.9508 31.6098 31.8508 31.7198C31.4308 31.5198 30.9908 31.3298 30.5808 31.0798C30.4808 31.0198 30.4308 30.6798 30.5008 30.5898C31.1308 29.7598 30.8608 29.1998 30.1008 28.5898C29.6008 28.1798 29.2908 27.5298 28.9508 26.9598C28.8708 26.8298 28.9308 26.4798 29.0408 26.3998C29.4908 26.0598 29.9908 25.7798 30.4508 25.4898C30.9508 26.1498 31.4108 26.7598 31.9808 27.4998C32.4108 26.6198 32.7608 25.9498 33.0508 25.2598C33.1008 25.1298 32.9808 24.8898 32.8708 24.7498C32.6208 24.4298 32.3008 24.1598 32.0608 23.8398C30.8308 22.2298 31.6708 19.8498 33.6708 19.4298C34.2508 19.3098 34.8808 19.4198 35.4908 19.3798C35.6908 19.3698 35.8708 19.2198 36.0608 19.1298C36.0908 19.1198 36.1008 19.0598 36.1208 19.0198C36.7408 17.8298 36.7308 17.8398 37.8908 18.4898C38.2008 18.6598 38.2708 18.8598 38.0808 19.1198C37.5308 19.8698 37.6208 20.4298 38.3808 21.0298C38.8508 21.3998 39.1208 22.0398 39.4208 22.5898C39.4908 22.7198 39.3908 23.0898 39.2608 23.1698C38.7808 23.4698 38.2608 23.6998 37.7508 23.9598V23.9698ZM33.7508 28.0998C34.3708 28.1998 34.7408 27.9198 34.9508 27.4498C35.1408 27.0398 34.9708 26.6798 34.6008 26.3598L33.7508 28.1098V28.0998ZM34.1008 22.9998L34.7808 21.5998C33.9208 21.7798 33.6508 22.3398 34.1008 22.9998Z" fill="#0B5079"/>
</svg>
