<?xml version="1.0" encoding="UTF-8"?>
<svg id="Layer_1" data-name="Layer 1" xmlns="http://www.w3.org/2000/svg" viewBox="0 0 120 120" width="100%" height="100%">
  <g>
    <circle cx="60" cy="60" r="55.41" style="fill: #fff; stroke: #005178; stroke-miterlimit: 10; stroke-width: 6px;"/>
    <circle cx="60" cy="60" r="48.69" style="fill: #5a97cb; stroke-width: 0px;"/>
    <circle cx="60" cy="60" r="55.41" style="fill: #fff; stroke: #005178; stroke-miterlimit: 10; stroke-width: 6px;"/>
    <circle cx="60" cy="60" r="48.69" style="fill: #5a97cb; stroke-width: 0px;"/>
  </g>
  <g>
    <path d="m62.78,48.13c-3.1-5.2-10.37-8.84-18.85-8.84-11.29,0-20.44,6.47-20.44,14.46,0,2.52.91,4.89,2.52,6.95.23.29-2.32,10.56-2.06,10.84" style="fill: none; stroke: #fff; stroke-miterlimit: 10; stroke-width: 2.5px;"/>
    <path d="m23.63,71.27c.53.24,10.51-4.83,11.07-4.63,2.77,1,5.91,1.56,9.24,1.56,11.29,0,20.44-6.47,20.44-14.46,0-1.99-.57-3.89-1.6-5.61" style="fill: none; stroke: #fff; stroke-miterlimit: 10; stroke-width: 2.5px;"/>
    <circle cx="36.88" cy="53.74" r="1.36" style="fill: #fff; stroke-width: 0px;"/>
    <circle cx="43.52" cy="53.74" r="1.36" style="fill: #fff; stroke-width: 0px;"/>
    <circle cx="50.17" cy="53.74" r="1.36" style="fill: #fff; stroke-width: 0px;"/>
  </g>
  <g>
    <path d="m63.74,50.17c2.87-1.09,6.15-1.7,9.64-1.7,11.29,0,20.44,6.47,20.44,14.46,0,2.52-.91,4.89-2.52,6.95-.23.29,2.32,10.56,2.06,10.84" style="fill: none; stroke: #fff; stroke-miterlimit: 10; stroke-width: 2.5px;"/>
    <path d="m93.69,80.45c-.53.24-10.51-4.83-11.07-4.63-2.77,1-5.91,1.56-9.24,1.56-9.36,0-17.25-4.45-19.68-10.52" style="fill: none; stroke: #fff; stroke-miterlimit: 10; stroke-width: 2.5px;"/>
    <circle cx="80.44" cy="62.92" r="1.36" style="fill: #fff; stroke-width: 0px;"/>
    <circle cx="73.79" cy="62.92" r="1.36" style="fill: #fff; stroke-width: 0px;"/>
    <circle cx="67.15" cy="62.92" r="1.36" style="fill: #fff; stroke-width: 0px;"/>
  </g>
</svg>