<svg width="550" height="60" viewBox="0 0 550 60" fill="none" xmlns="http://www.w3.org/2000/svg">
<path d="M62.909 37.4496C60.139 37.4696 57.449 37.6396 54.779 37.4796C51.459 37.2796 49.639 35.1796 49.609 31.8696C49.589 30.1296 49.569 28.3896 49.609 26.6596C49.689 23.8196 51.209 21.7496 54.039 21.3996C56.729 21.0596 59.489 21.1096 62.199 21.2996C64.819 21.4796 66.499 23.1996 67.239 25.6596C67.749 27.3396 68.109 29.0996 68.259 30.8496C68.559 34.3096 68.559 37.7796 67.749 41.2096C66.649 45.8496 64.199 48.0796 59.479 48.6796C57.359 48.9496 52.659 48.6096 51.159 48.0596C51.159 47.7296 51.159 47.3696 51.159 46.9996C51.159 46.0496 51.159 45.0896 51.159 43.9696C52.199 43.9696 53.139 43.9696 54.089 43.9696C55.199 43.9696 56.309 43.9996 57.419 43.9696C60.779 43.8596 62.579 42.1596 62.899 38.8096C62.949 38.2996 62.899 37.7896 62.899 37.4696L62.909 37.4496ZM59.939 33.1596C59.939 33.1596 59.939 33.1096 59.939 33.0796C60.719 33.0796 61.499 33.1296 62.269 33.0496C62.519 33.0196 62.959 32.6396 62.939 32.4596C62.779 30.9296 62.619 29.3896 62.269 27.8896C61.989 26.6996 61.009 26.0896 59.809 25.9896C58.889 25.9096 57.959 25.9196 57.039 25.9896C55.879 26.0596 55.149 26.7096 55.059 27.8496C54.969 28.9396 54.999 30.0496 55.059 31.1496C55.109 32.1796 55.769 32.7696 56.739 32.9096C57.799 33.0596 58.869 33.0896 59.929 33.1696L59.939 33.1596Z" fill="#005178"/>
<path d="M35.4895 38.1698H38.3695C38.3695 39.3498 38.4195 40.4098 38.3295 41.4598C38.3095 41.7198 37.8295 42.0298 37.5095 42.1498C35.5495 42.8498 35.5495 42.8298 35.5495 44.9298V48.5298C33.8795 48.5298 32.2695 48.5598 30.6595 48.4898C30.4795 48.4898 30.1895 47.9098 30.1795 47.5998C30.1295 46.0598 30.1595 44.5098 30.1595 42.8398C29.6795 42.8198 29.2895 42.7798 28.8995 42.7798C25.8295 42.7798 22.7595 42.7798 19.6995 42.7798C17.8495 42.7798 16.7595 41.0598 17.5495 39.3598C19.6995 34.7498 21.8695 30.1398 24.0295 25.5198C24.5795 24.3498 25.0995 23.1698 25.6895 22.0198C25.8295 21.7398 26.1595 21.3698 26.4195 21.3598C28.0395 21.2998 29.6595 21.3298 31.4995 21.3298C28.8495 26.9798 26.2795 32.4598 23.6295 38.0998H30.1695C30.1695 36.8898 30.0695 35.7398 30.1995 34.6198C30.3595 33.2098 30.6795 31.8098 31.0195 30.4298C31.0895 30.1598 31.5495 29.8098 31.8495 29.7898C33.0295 29.7198 34.2095 29.7598 35.5195 29.7598V38.1698H35.4895Z" fill="#005178"/>
<path d="M85.0697 28.6897C85.0697 29.7597 85.1297 30.8397 85.0597 31.8997C84.9197 33.9697 83.7397 35.3397 81.6797 35.4897C79.4797 35.6497 77.2497 35.6597 75.0497 35.4997C72.9397 35.3497 71.7197 34.0597 71.6097 31.9697C71.4897 29.7197 71.4997 27.4597 71.6097 25.2097C71.6997 23.3297 72.7897 21.9797 74.6597 21.8097C77.1097 21.5897 79.5997 21.5997 82.0397 21.8097C83.8997 21.9797 84.9197 23.3397 85.0497 25.2397C85.1297 26.3797 85.0597 27.5297 85.0597 28.6797L85.0697 28.6897ZM75.0097 28.5097C75.0097 29.0997 74.9797 29.6897 75.0097 30.2797C75.0897 31.6197 75.5997 32.1197 76.9297 32.1897C77.2197 32.2097 77.5197 32.1897 77.8097 32.1897C81.6297 32.1897 81.7297 32.0897 81.7297 28.3197C81.7297 25.3097 81.4697 25.0497 78.4697 25.0497C75.0797 25.0497 74.9797 25.1497 74.9897 28.4997L75.0097 28.5097Z" fill="#005178"/>
<path d="M104.609 41.4203C104.609 42.4903 104.659 43.5703 104.599 44.6403C104.469 46.8303 103.149 48.2503 100.959 48.3603C98.8991 48.4703 96.8191 48.4603 94.7491 48.3603C92.6091 48.2603 91.2391 46.8903 91.1391 44.7403C91.0291 42.5303 91.0291 40.3003 91.1391 38.0903C91.2391 35.9403 92.6191 34.5903 94.7591 34.4803C96.8291 34.3803 98.8991 34.3803 100.969 34.4803C103.109 34.5803 104.439 35.9603 104.589 38.1003C104.669 39.2003 104.599 40.3203 104.599 41.4303L104.609 41.4203ZM101.269 41.4203C101.269 40.9003 101.299 40.3903 101.269 39.8703C101.179 38.4103 100.669 37.9103 99.1891 37.8803C98.2691 37.8603 97.3391 37.8503 96.4191 37.8803C95.1291 37.9303 94.6891 38.3103 94.5391 39.5703C94.4591 40.2603 94.4291 40.9703 94.4291 41.6603C94.4291 44.6403 94.7291 44.9503 97.7091 44.9503C101.089 44.9503 101.279 44.7703 101.269 41.4103V41.4203Z" fill="#005178"/>
<path d="M97.9699 21.5799C95.8099 25.1399 93.7899 28.4799 91.7599 31.8199C88.5799 37.0599 85.3799 42.2799 82.2399 47.5499C81.7499 48.3699 81.2399 48.6999 80.3099 48.5999C79.5899 48.5199 78.8499 48.5799 77.9199 48.5799C78.2199 48.0699 78.4199 47.6999 78.6499 47.3399C83.6599 39.1899 88.6899 31.0599 93.6399 22.8799C94.2699 21.8499 94.9099 21.3899 96.0799 21.5599C96.6199 21.6399 97.1799 21.5699 97.9599 21.5699L97.9699 21.5799Z" fill="#005178"/>
<path d="M41.1597 45.5701C41.1797 42.6501 40.8597 42.9501 43.7497 42.9401C43.9297 42.9401 44.1197 42.9401 44.2997 42.9401C45.7497 42.9401 45.7997 42.9901 45.8097 44.4301C45.8097 45.3501 45.7897 46.2801 45.8097 47.2001C45.8297 47.8901 45.5597 48.2301 44.8397 48.2001C44.0697 48.1701 43.2797 48.1401 42.5097 48.2001C41.3997 48.3101 41.0397 47.8101 41.1497 46.7801C41.1897 46.3801 41.1497 45.9701 41.1497 45.5601L41.1597 45.5701Z" fill="#005178"/>
<path d="M144.27 35.29H123.48C119.85 35.29 116.91 38.23 116.91 41.86V48.43H150.85V41.86C150.85 38.23 147.91 35.29 144.28 35.29H144.27Z" fill="#5A97CB"/>
<path d="M133.991 30.6198C139.337 30.6198 143.671 26.2859 143.671 20.9398C143.671 15.5936 139.337 11.2598 133.991 11.2598C128.644 11.2598 124.311 15.5936 124.311 20.9398C124.311 26.2859 128.644 30.6198 133.991 30.6198Z" fill="#5A97CB"/>
<path d="M187.2 35.29H166.41C162.78 35.29 159.84 38.23 159.84 41.86V48.43H193.78V41.86C193.78 38.23 190.84 35.29 187.21 35.29H187.2Z" fill="#5A97CB"/>
<path d="M176.92 30.6198C182.266 30.6198 186.6 26.2859 186.6 20.9398C186.6 15.5936 182.266 11.2598 176.92 11.2598C171.574 11.2598 167.24 15.5936 167.24 20.9398C167.24 26.2859 171.574 30.6198 176.92 30.6198Z" fill="#5A97CB"/>
<path d="M230.13 35.29H209.34C205.71 35.29 202.77 38.23 202.77 41.86V48.43H236.71V41.86C236.71 38.23 233.77 35.29 230.14 35.29H230.13Z" fill="#5A97CB"/>
<path d="M219.85 30.6198C225.196 30.6198 229.53 26.2859 229.53 20.9398C229.53 15.5936 225.196 11.2598 219.85 11.2598C214.504 11.2598 210.17 15.5936 210.17 20.9398C210.17 26.2859 214.504 30.6198 219.85 30.6198Z" fill="#5A97CB"/>
<path d="M273.059 35.29H252.269C248.639 35.29 245.699 38.23 245.699 41.86V48.43H279.639V41.86C279.639 38.23 276.699 35.29 273.069 35.29H273.059Z" fill="#5A97CB"/>
<path d="M262.78 30.6198C268.126 30.6198 272.46 26.2859 272.46 20.9398C272.46 15.5936 268.126 11.2598 262.78 11.2598C257.433 11.2598 253.1 15.5936 253.1 20.9398C253.1 26.2859 257.433 30.6198 262.78 30.6198Z" fill="#5A97CB"/>
<path d="M315.991 35.29H295.201C291.571 35.29 288.631 38.23 288.631 41.86V48.43H322.571V41.86C322.571 38.23 319.631 35.29 316.001 35.29H315.991Z" fill="#5A97CB"/>
<path d="M305.711 30.6198C311.057 30.6198 315.391 26.2859 315.391 20.9398C315.391 15.5936 311.057 11.2598 305.711 11.2598C300.365 11.2598 296.031 15.5936 296.031 20.9398C296.031 26.2859 300.365 30.6198 305.711 30.6198Z" fill="#5A97CB"/>
<path d="M358.921 35.29H338.131C334.501 35.29 331.561 38.23 331.561 41.86V48.43H365.501V41.86C365.501 38.23 362.561 35.29 358.931 35.29H358.921Z" fill="#5A97CB"/>
<path d="M348.641 30.6198C353.987 30.6198 358.321 26.2859 358.321 20.9398C358.321 15.5936 353.987 11.2598 348.641 11.2598C343.295 11.2598 338.961 15.5936 338.961 20.9398C338.961 26.2859 343.295 30.6198 348.641 30.6198Z" fill="#5A97CB"/>
<path d="M401.85 35.29H381.06C377.43 35.29 374.49 38.23 374.49 41.86V48.43H408.43V41.86C408.43 38.23 405.49 35.29 401.86 35.29H401.85Z" fill="#5A97CB"/>
<path d="M391.58 30.6198C396.927 30.6198 401.26 26.2859 401.26 20.9398C401.26 15.5936 396.927 11.2598 391.58 11.2598C386.234 11.2598 381.9 15.5936 381.9 20.9398C381.9 26.2859 386.234 30.6198 391.58 30.6198Z" fill="#5A97CB"/>
<path d="M444.78 35.29H423.99C420.36 35.29 417.42 38.23 417.42 41.86V48.43H451.36V41.86C451.36 38.23 448.42 35.29 444.79 35.29H444.78Z" fill="#5A97CB"/>
<path d="M434.51 30.6198C439.856 30.6198 444.19 26.2859 444.19 20.9398C444.19 15.5936 439.856 11.2598 434.51 11.2598C429.164 11.2598 424.83 15.5936 424.83 20.9398C424.83 26.2859 429.164 30.6198 434.51 30.6198Z" fill="#5A97CB"/>
<path d="M487.719 35.29H466.929C463.299 35.29 460.359 38.23 460.359 41.86V48.43H494.299V41.86C494.299 38.23 491.359 35.29 487.729 35.29H487.719Z" fill="#5A97CB"/>
<path d="M477.44 30.6198C482.786 30.6198 487.12 26.2859 487.12 20.9398C487.12 15.5936 482.786 11.2598 477.44 11.2598C472.094 11.2598 467.76 15.5936 467.76 20.9398C467.76 26.2859 472.094 30.6198 477.44 30.6198Z" fill="#5A97CB"/>
<path d="M530.649 35.29H509.859C506.229 35.29 503.289 38.23 503.289 41.86V48.43H537.229V41.86C537.229 38.23 534.289 35.29 530.659 35.29H530.649Z" fill="#5A97CB"/>
<path d="M520.369 30.6198C525.716 30.6198 530.049 26.2859 530.049 20.9398C530.049 15.5936 525.716 11.2598 520.369 11.2598C515.023 11.2598 510.689 15.5936 510.689 20.9398C510.689 26.2859 515.023 30.6198 520.369 30.6198Z" fill="#5A97CB"/>
<path d="M133.131 11.2998C128.181 11.7298 124.301 15.8798 124.301 20.9398C124.301 25.9998 128.181 30.1398 133.131 30.5798V11.2998Z" fill="#005178"/>
<path d="M133.13 35.29H123.47C119.84 35.29 116.9 38.23 116.9 41.86V48.43H133.13V35.29Z" fill="#005178"/>
<path d="M17.6309 52.9502H133.131" stroke="#005178" stroke-width="1.84" stroke-miterlimit="10" stroke-linecap="round"/>
</svg>
