<?xml version="1.0" encoding="UTF-8"?>
<svg id="Layer_1" data-name="Layer 1" xmlns="http://www.w3.org/2000/svg" viewBox="0 0 120 120" width="100%" height="100%">
  <circle cx="60" cy="60" r="55.41" style="fill: #fff; stroke: #005178; stroke-miterlimit: 10; stroke-width: 6px;"/>
  <circle cx="60" cy="60" r="48.69" style="fill: #5a97cb; stroke-width: 0px;"/>
  <g>
    <path d="m92.03,41.14c0-.52-.1-1.03-.32-1.5-.42-.9-1.38-2.07-3.49-2.07,0,0-.09,0-.24.01-1.86.17-3.27,1.75-3.27,3.62v1.38c-1.81-.51-3,.16-3.75.98-.7.77-1.06,1.8-1.06,2.84v8.93h.01s-.08.1-.11.15l-9.77,9.66s-3.18,3.11-2.77,10.82v11.86s-.3,1.8,1.53,1.57h8.08s1.83.15,1.57-2.06v-8.52c0-.34.15-.66.41-.87l8.66-7.03c1.82-1.48,3.23-3.41,3.96-5.63.31-.94.54-2.01.59-3.17l-.04-20.98Zm-8.98,3.98c.69-.47,1.38-.03,1.64.18v8.55c0,.1-.09.17-.18.15-.34-.08-1.14-.23-2.03-.11v-7.62c0-.45.2-.89.57-1.14Zm6.5,17.34c.07,1.28-.39,2.51-.93,3.49-.6,1.08-1.42,2.03-2.36,2.83l-9.96,8.37c-.2.17-.32.42-.32.69l.07,8.88c0,.11-.09.21-.2.21h-6.02c-.11,0-.21-.09-.2-.2.01-1.49.07-10.57.07-10.57-.22-7.3,2.25-9.43,2.25-9.43l9.35-9.24c.42-.42.96-.72,1.54-.82.98-.17,1.4.28,1.56.8.19.61,0,1.28-.44,1.75l-3.77,4.08c-.21.22-.37.49-.46.78-.33,1.06.14,1.36.68,1.4.59.04,1.16-.21,1.57-.63l3.7-3.8c1.48-1.46,1.54-2.95,1.45-3.7-.06-.48-.1-.96-.1-1.44v-14.25c0-.38.14-.74.4-1.02.53-.56,1.02-.56,1.4-.38.5.23.79.77.78,1.32l-.1,19.23c0,.55.04,1.1.07,1.65Z" style="fill: #fff; stroke-width: 0px;"/>
    <path d="m27.94,62.5c.05,1.16.27,2.22.59,3.17.74,2.22,2.15,4.16,3.96,5.63l8.66,7.03c.26.21.41.53.41.87v8.52c-.26,2.21,1.57,2.06,1.57,2.06h8.08c1.83.22,1.53-1.57,1.53-1.57v-11.86c.41-7.71-2.77-10.82-2.77-10.82l-9.77-9.66c-.04-.05-.08-.1-.11-.15h.01s0-8.93,0-8.93c0-1.04-.35-2.07-1.06-2.84-.75-.82-1.94-1.49-3.75-.98v-1.38c0-1.87-1.41-3.46-3.27-3.62-.15-.01-.24-.01-.24-.01-2.11,0-3.07,1.17-3.49,2.07-.22.47-.32.98-.32,1.5l-.04,20.98Zm9.58-15.87v7.62c-.89-.12-1.68.03-2.03.11-.09.02-.18-.05-.18-.15v-8.55c.26-.21.95-.65,1.64-.18.37.25.57.69.57,1.14Zm-7,14.55l-.1-19.23c0-.55.28-1.09.78-1.32.38-.18.87-.19,1.4.38.26.27.4.64.4,1.02v14.25c0,.48-.04.96-.1,1.44-.09.75-.04,2.24,1.45,3.7l3.7,3.8c.41.42.98.67,1.57.63.54-.04,1.01-.34.68-1.4-.09-.29-.25-.56-.46-.78l-3.77-4.08c-.44-.47-.63-1.14-.44-1.75.16-.52.57-.97,1.56-.8.59.1,1.12.41,1.54.82l9.35,9.24s2.47,2.13,2.25,9.43c0,0,.06,9.09.07,10.57,0,.11-.09.2-.2.2h-6.02c-.11,0-.21-.09-.2-.21l.07-8.88c0-.27-.11-.52-.32-.69l-9.96-8.37c-.95-.8-1.76-1.75-2.36-2.83-.54-.98-1-2.21-.93-3.49.03-.55.07-1.1.07-1.65Z" style="fill: #fff; stroke-width: 0px;"/>
    <path d="m74.4,40.41c-.18-.15-.29-.37-.29-.6.1-5.73-4.08-6.46-5.34-6.55-.22-.02-.43-.12-.56-.3-2.86-4.02-6.19-2.67-7.55-1.84-.39.24-.88.23-1.26-.01-3.76-2.41-6.62.65-7.51,1.79-.2.25-.48.43-.79.49-4.97.97-5.32,4.73-5.28,6.13.01.34-.11.68-.34.93-6.1,6.57-1.56,11.68-.11,13.02.25.23.4.55.42.89.33,5.56,3.9,6.33,5.41,6.4.41.02.79.23,1.01.57,2.43,3.64,5.8,2.28,7.21,1.46.41-.24.92-.23,1.33.02,3.82,2.38,6.75-.75,7.55-1.76.14-.18.35-.28.58-.28,5.11.04,5.36-5.42,5.34-6.82,0-.21.09-.41.25-.56,7.07-6.56,1.37-11.82-.06-12.96Zm-15.5,18.08c-.61,3.34-3.48,2.1-4.54,1.51-.38-.21-.45-.74-.12-1.04.56-.51,1.75-.55,1.75-.55,2.77-.45.9-2.02.9-2.02-2.23-1.36-4.35.8-5.02,1.6-.15.18-.39.26-.62.22-1.88-.31-2.6-1.59-2.88-2.56-.15-.53-.11-1.09.04-1.62.29-1.02-.44-1.79-.95-2.2-.43-.34-.83-.7-1.17-1.13-3.84-4.96.93-8.46.93-8.46,1.42-.9,1.2-2.1,1.2-2.1v-1.45c0-.45.15-.88.43-1.23,1.59-2,2.87-1.82,3.61-1.41.41.23.61.71.55,1.18-.12.89.19,1.28.52,1.45.33.16.72.1,1.02-.11,1.9-1.31.73-3.2.04-4.05-.22-.27-.18-.67.09-.89,2.26-1.92,3.35-.58,3.85.69.27.68.38,1.41.38,2.14v22.01Zm15.28-8.18c-.42.59-.97,1.07-1.57,1.48-.54.37-1.26,1.14-.94,2.56.11.49.14.99.02,1.48-.27,1.03-1.13,2.47-3.83,2.37,0,0-1.05,0-.9-1.35.04-.32.03-.65-.06-.96-.14-.48-.46-1-1.21-.77-.6.19-1.03.71-1.16,1.32-.19.88-.27,2.32.88,3.28.22.18.19.52-.06.65-1.14.58-3.62,1.52-3.93-1.17l-.15-23.15s-.3-5.09,3.79-2.79c0,0,2.02.83.72,1.78-.45.33-1,.48-1.56.46-.71-.03-1.87.08-1.76,1.15,0,0-.35,1.75,2.89,1.4,0,0,1.58-.04,2.88-1.82.23-.31.63-.45,1-.35.96.27,2.56,1.1,2.5,3.7,0,.28-.06.57-.11.85-.07.37-.03,1.14,1.12,1.8.51.29.96.68,1.3,1.16.95,1.33,2.23,3.99.13,6.94Z" style="fill: #fff; stroke-width: 0px;"/>
    <path d="m52.92,46.96c-.48.22-1.54.83-.92,1.66.3.4.41.94.16,1.38-.21.38-.66.64-1.6.32-.34-.12-.62-.38-.76-.71-.47-1.12-1.22-3.85,2.09-4.99.23-.08.48-.1.72-.04.67.16,1.91.66.74,2.04-.12.14-.27.25-.43.33Z" style="fill: #fff; stroke-width: 0px;"/>
    <path d="m66.97,47.01c.48.22,1.54.83.92,1.66-.3.4-.41.94-.16,1.38.21.38.66.64,1.6.32.34-.12.62-.38.76-.71.47-1.12,1.22-3.85-2.09-4.99-.23-.08-.48-.1-.72-.04-.67.16-1.91.66-.74,2.04.12.14.27.25.43.33Z" style="fill: #fff; stroke-width: 0px;"/>
  </g>
</svg>