<?xml version="1.0" encoding="UTF-8"?>
<svg id="Layer_18" data-name="Layer 18" xmlns="http://www.w3.org/2000/svg" viewBox="0 0 297.94 196.12">
  <text transform="translate(62.87 57.7)" style="fill: #005178; font-family: Exo-Bold, &apos;Exo Bold&apos;; font-size: 23px; font-weight: 700;"><tspan x="0" y="0">27-53%</tspan></text>
  <text transform="translate(55.21 77.75)" style="fill: #005178; font-family: Exo-Regular, &apos;Exo Regular&apos;; font-size: 14px;"><tspan x="0" y="0">inc</tspan><tspan x="17.32" y="0" style="letter-spacing: 0em;">r</tspan><tspan x="21.76" y="0">eased </tspan><tspan x="58.94" y="0" style="letter-spacing: 0em;">r</tspan><tspan x="63.57" y="0">isk </tspan><tspan x="0" y="16.8">of de</tspan><tspan x="29.65" y="16.8" style="letter-spacing: 0em;">v</tspan><tspan x="36.24" y="16.8">eloping</tspan></text>
  <g>
    <rect x="27.65" y="102.95" width="119.41" height="34.16" style="fill: #5a97cb; stroke-width: 0px;"/>
    <text transform="translate(30.26 116.01)" style="fill: #fff; font-family: Exo-Medium, &apos;Exo Medium&apos;; font-size: 13px; font-weight: 500;"><tspan x="0" y="0" style="letter-spacing: 0em;">C</tspan><tspan x="7.59" y="0">ARDIOM</tspan><tspan x="53.72" y="0" style="letter-spacing: .02em;">E</tspan><tspan x="60.32" y="0" style="letter-spacing: -.07em;">T</tspan><tspan x="65.81" y="0">ABOLIC</tspan><tspan x="0" y="15.6">DISORDERS</tspan></text>
  </g>
  <text transform="translate(27.38 152.75)" style="fill: #005178; font-family: Exo-Regular, &apos;Exo Regular&apos;; font-size: 15px;"><tspan x="0" y="0">if dia</tspan><tspan x="30.27" y="0" style="letter-spacing: 0em;">g</tspan><tspan x="38.56" y="0">nosed with P</tspan><tspan x="119.22" y="0" style="letter-spacing: 0em;">T</tspan><tspan x="126.58" y="0">SD [11]</tspan></text>
  <path d="m41.76,39.34l-16.47,20.07h10.31v38.64h12.61v-38.64h10.07s-16.48-20.04-16.51-20.07Z" style="fill: #5a97cb; stroke-width: 0px;"/>
  <g>
    <g>
      <circle cx="210.52" cy="79.02" r="55.41" style="fill: #fff; stroke: #005178; stroke-miterlimit: 10; stroke-width: 6px;"/>
      <circle cx="210.52" cy="79.02" r="48.69" style="fill: #5a97cb; stroke-width: 0px;"/>
    </g>
    <g>
      <path d="m224.69,56.51c-10.59,0-14.17,9.4-14.17,9.4,0,0-3.57-9.4-14.17-9.4s-16.97,10.1-16.97,18.42c0,13.95,31.13,35.2,31.13,35.2,0,0,31.13-21.25,31.13-35.2,0-8.32-6.38-18.42-16.97-18.42Z" style="fill: none; stroke: #fff; stroke-miterlimit: 10; stroke-width: 3px;"/>
      <polyline points="181.75 83.05 194.47 83.05 200.06 71.01 207.96 89.81 211.58 78.64 221.18 78.64" style="fill: none; stroke: #fff; stroke-linecap: round; stroke-miterlimit: 10; stroke-width: 2px;"/>
      <text transform="translate(223.87 82.82)" style="fill: #fff; font-family: Exo-SemiBold, &apos;Exo SemiBold&apos;; font-size: 18.68px; font-weight: 600;"><tspan x="0" y="0">!</tspan></text>
    </g>
  </g>
</svg>