<?xml version="1.0" encoding="UTF-8"?>
<svg id="Layer_1" data-name="Layer 1" xmlns="http://www.w3.org/2000/svg" viewBox="0 0 120 120" width="100%" height="100%">
  <g>
    <circle cx="60" cy="60" r="55.41" style="fill: #fff; stroke: #005178; stroke-miterlimit: 10; stroke-width: 6px;"/>
    <circle cx="60" cy="60" r="48.69" style="fill: #5a97cb; stroke-width: 0px;"/>
    <circle cx="60" cy="60" r="55.41" style="fill: #fff; stroke: #005178; stroke-miterlimit: 10; stroke-width: 6px;"/>
    <circle cx="60" cy="60" r="48.69" style="fill: #5a97cb; stroke-width: 0px;"/>
  </g>
  <g>
    <path d="m94.83,78.42c0,3.66-2.89,6.63-6.44,6.63h-37.21c-3.56,0-6.44-2.97-6.44-6.63,0-.93.19-1.82.53-2.63h49.04c.34.81.53,1.69.53,2.63Z" style="fill: none; stroke: #fff; stroke-linecap: round; stroke-linejoin: round; stroke-width: 2px;"/>
    <path d="m46.7,75.67s-2.95-9.72,7.4-10.18c0,0-.12-4.34,3.59-5.78,3.7-1.45,6.88-.12,6.88-.12,0,0,3.1-4.88,8.54-4.13,5.44.75,7.27,5.15,6.52,9.6" style="fill: none; stroke: #fff; stroke-linecap: round; stroke-linejoin: round; stroke-width: 2px;"/>
    <path d="m55.38,75.73s-1.5-6.94,3.82-9.49c5.32-2.55,13.83-6.19,18.51.64,2.05,2.99,1.1,6.52-.12,8.79" style="fill: none; stroke: #fff; stroke-linecap: round; stroke-linejoin: round; stroke-width: 2px;"/>
    <path d="m78.95,71.22l7.1-2.11c.28,1.77,1.82,3.12,3.67,3.12,2.05,0,3.72-1.66,3.72-3.72s-1.59-3.64-3.58-3.71c.86-.68,1.41-1.73,1.41-2.91,0-2.05-1.66-3.72-3.72-3.72s-3.72,1.66-3.72,3.72c0,.73.21,1.42.58,1.99l-7.29,2.19" style="fill: none; stroke: #fff; stroke-linecap: round; stroke-linejoin: round; stroke-width: 2px;"/>
    <path d="m32.36,52.22v-7.85c0-1.85,1.5-3.36,3.36-3.36s3.36,1.5,3.36,3.36v12.09" style="fill: none; stroke: #fff; stroke-linecap: round; stroke-linejoin: round; stroke-width: 2px;"/>
    <path d="m45.97,44.74c0-5.78-1.16-6.48-3.55-6.48-1.85,0-3.36,1.5-3.36,3.36v2.16" style="fill: none; stroke: #fff; stroke-linecap: round; stroke-linejoin: round; stroke-width: 2px;"/>
    <path d="m45.97,57.66v-12.61c0-1.85,1.5-3.36,3.36-3.36s3.36,1.5,3.36,3.36v11.07" style="fill: none; stroke: #fff; stroke-linecap: round; stroke-linejoin: round; stroke-width: 2px;"/>
    <path d="m59.41,59.07v-11.26c0-1.85-1.5-3.36-3.36-3.36s-3.36,1.5-3.36,3.36v8.5" style="fill: none; stroke: #fff; stroke-linecap: round; stroke-linejoin: round; stroke-width: 2px;"/>
    <path d="m32.76,70.64c2.4,0,4.34-1.94,4.34-4.34s-1.94-4.34-4.34-4.34l-.06-7.78c0-2.03-1.64-3.67-3.67-3.67s-3.67,1.64-3.67,3.67v8.84c0,6.29.48,19.78,20.27,19.78" style="fill: none; stroke: #fff; stroke-linecap: round; stroke-linejoin: round; stroke-width: 2px;"/>
    <polyline points="68.62 42.24 72.44 46.06 76.18 42.33" style="fill: none; stroke: #fff; stroke-linecap: round; stroke-linejoin: round; stroke-width: 2px;"/>
    <circle cx="72.45" cy="41.37" r="9.95" style="fill: none; stroke: #fff; stroke-linecap: round; stroke-linejoin: round; stroke-width: 2px;"/>
    <line x1="72.3" y1="45.54" x2="72.3" y2="37" style="fill: none; stroke: #fff; stroke-linecap: round; stroke-linejoin: round; stroke-width: 2px;"/>
  </g>
</svg>