<?xml version="1.0" encoding="UTF-8"?>
<svg id="Layer_1" data-name="Layer 1" xmlns="http://www.w3.org/2000/svg" viewBox="0 0 120 120" width="100%" height="100%">
  <g>
    <circle cx="60" cy="60" r="55.41" style="fill: #fff; stroke: #005178; stroke-miterlimit: 10; stroke-width: 6px;"/>
    <circle cx="60" cy="60" r="48.69" style="fill: #5a97cb; stroke-width: 0px;"/>
    <circle cx="60" cy="60" r="55.41" style="fill: #fff; stroke: #005178; stroke-miterlimit: 10; stroke-width: 6px;"/>
    <circle cx="60" cy="60" r="48.69" style="fill: #5a97cb; stroke-width: 0px;"/>
  </g>
  <path d="m68.47,90.26c0-.94.13-1.9-.02-2.82-.47-2.75.71-3.52,3.32-3.34,3.97.28,7.73-.27,9.37-4.68.43-1.15.52-2.5.48-3.75-.12-3.91-.74-7.84,4.71-9.07,1.47-.33,2.87-2.1,1.01-4.14-.98-1.07-1.71-2.42-2.37-3.74-1.51-3.03-3.41-5.81-3.85-9.39-1.93-15.76-21.12-23.48-35.7-16-14.68,7.52-18.01,25.77-7.58,37.68,4.74,5.42,7.17,11.86,6.16,19.25" style="fill: none; stroke: #fff; stroke-linecap: round; stroke-miterlimit: 10; stroke-width: 2px;"/>
  <g>
    <g>
      <path d="m41.06,54.56c0-1.72.27-3.37.78-4.92" style="fill: none; stroke: #fff; stroke-linecap: round; stroke-miterlimit: 10;"/>
      <path d="m42.62,47.68c2.57-5.35,8.04-9.05,14.37-9.05,6.71,0,12.45,4.15,14.79,10.02" style="fill: none; stroke: #fff; stroke-dasharray: 0 0 10.53 2.11; stroke-linecap: round; stroke-miterlimit: 10;"/>
      <path d="m72.14,49.63c.5,1.55.78,3.2.78,4.92" style="fill: none; stroke: #fff; stroke-linecap: round; stroke-miterlimit: 10;"/>
    </g>
    <g>
      <line x1="43.45" y1="54.56" x2="43.45" y2="54.56" style="fill: none; stroke: #fff; stroke-linecap: round; stroke-miterlimit: 10;"/>
      <path d="m43.6,52.54c.98-6.52,6.6-11.52,13.39-11.52,7.14,0,12.98,5.52,13.5,12.52" style="fill: none; stroke: #fff; stroke-dasharray: 0 0 0 2.02; stroke-linecap: round; stroke-miterlimit: 10;"/>
      <line x1="70.52" y1="54.56" x2="70.52" y2="54.56" style="fill: none; stroke: #fff; stroke-linecap: round; stroke-miterlimit: 10;"/>
    </g>
    <circle cx="56.99" cy="55.07" r="2.52" style="fill: none; stroke: #fff; stroke-linecap: round; stroke-miterlimit: 10;"/>
    <line x1="56.99" y1="55.07" x2="65.31" y2="39.44" style="fill: none; stroke: #fff; stroke-linecap: round; stroke-miterlimit: 10;"/>
    <line x1="67.84" y1="48.97" x2="72.29" y2="46.2" style="fill: none; stroke: #fff; stroke-linecap: round; stroke-miterlimit: 10;"/>
    <line x1="74.44" y1="55.07" x2="68.74" y2="55.07" style="fill: none; stroke: #fff; stroke-linecap: round; stroke-miterlimit: 10;"/>
  </g>
</svg>