<?xml version="1.0" encoding="UTF-8"?>
<svg id="Layer_1" data-name="Layer 1" xmlns="http://www.w3.org/2000/svg" viewBox="0 0 120 120" width="100%" height="100%">
  <g>
    <circle cx="60" cy="60" r="55.41" style="fill: #fff; stroke: #005178; stroke-miterlimit: 10; stroke-width: 6px;"/>
    <circle cx="60" cy="60" r="48.69" style="fill: #5a97cb; stroke-width: 0px;"/>
    <circle cx="43.34" cy="43.09" r="13.66" style="fill: none; stroke: #fff; stroke-linecap: round; stroke-linejoin: round; stroke-width: 2px;"/>
    <g>
      <line x1="43.34" y1="75.76" x2="43.34" y2="57.57" style="fill: none; stroke: #fff; stroke-linecap: round; stroke-linejoin: round; stroke-width: 2px;"/>
      <polygon points="51.43 69.2 49.98 67.85 43.34 75 36.69 67.85 35.24 69.2 43.34 77.91 51.43 69.2" style="fill: #fff; stroke-width: 0px;"/>
    </g>
    <g>
      <circle cx="74.62" cy="62.43" r="13.66" style="fill: none; stroke: #fff; stroke-linecap: round; stroke-linejoin: round; stroke-width: 2px;"/>
      <line x1="74.62" y1="93.22" x2="74.62" y2="76.91" style="fill: none; stroke: #fff; stroke-linecap: round; stroke-linejoin: round; stroke-width: 2px;"/>
      <line x1="68.73" y1="89.7" x2="80.5" y2="89.7" style="fill: none; stroke: #fff; stroke-linecap: round; stroke-linejoin: round; stroke-width: 2px;"/>
    </g>
    <circle cx="60" cy="60" r="55.41" style="fill: #fff; stroke: #005178; stroke-miterlimit: 10; stroke-width: 6px;"/>
    <circle cx="60" cy="60" r="48.69" style="fill: #5a97cb; stroke-width: 0px;"/>
  </g>
  <path d="m74.46,37.83c-10.59,0-14.17,9.4-14.17,9.4,0,0-3.57-9.4-14.17-9.4s-16.97,10.1-16.97,18.42c0,13.95,31.13,35.2,31.13,35.2,0,0,31.13-21.25,31.13-35.2,0-8.32-6.38-18.42-16.97-18.42Z" style="fill: none; stroke: #fff; stroke-miterlimit: 10; stroke-width: 3px;"/>
  <path d="m54.99,54.94c-2.21,0-4.01,1.8-4.01,4.01s1.8,4.01,4.01,4.01,4.01-1.8,4.01-4.01-1.8-4.01-4.01-4.01Zm2.51,4.37h.65c-.17,1.46-1.33,2.63-2.79,2.8v-.67c0-.23-.18-.41-.41-.41s-.41.18-.41.41v.66c-1.43-.2-2.55-1.35-2.72-2.79h.58c.23,0,.41-.18.41-.41s-.18-.41-.41-.41h-.57c.2-1.39,1.3-2.48,2.69-2.68l-.02.55c0,.23.17.42.4.43.23,0,.42-.17.42-.4l.02-.58c1.43.16,2.58,1.28,2.78,2.7h-.64c-.23,0-.41.18-.41.41s.18.41.41.41Zm-2.29-.72c.18.14.22.4.08.58-.08.11-.2.16-.33.16-.09,0-.17-.03-.25-.08l-1.43-1.09c-.18-.14-.22-.4-.08-.58.14-.18.4-.22.58-.08l1.43,1.09Zm18.46,1.54c0-1.73-.75-3.29-1.94-4.07l-.29-2.09c-.05-.33-.32-.57-.65-.57h-1.43c-.33,0-.6.24-.65.56l-.31,2.11c-1.18.78-1.92,2.35-1.92,4.06,0,1.94.95,3.59,2.29,4.26-.08.08-.14.18-.14.3v1.28c0,.23.18.41.41.41h.38v7.93c0,2.55-1.37,3.68-4.44,3.68-3.23,0-4.87-1.24-4.87-3.68v-9.26h2.26c.36,0,.66-.3.66-.66v-1.04l1.91-.06c.36-.01.64-.3.64-.66v-11.34c0-.18-.07-.34-.19-.47-.12-.12-.29-.19-.47-.19h-4.01s-.04.01-.06.02c-.02,0-.04,0-.07,0l-13.22,2.19c-.06,0-.12.03-.17.05-.09.04-.17.1-.23.18-.06.07-.11.16-.13.26-.02.06-.02.12-.02.18v10.88c0,.36.3.66.66.66h1.81v9.26c0,1.75,0,5,3.92,5s3.8-3.25,3.8-5v-9.26h1.6v9.26c0,3.18,2.26,5,6.19,5,4.76,0,5.76-2.72,5.76-5v-7.93h.38c.23,0,.41-.18.41-.41v-1.28c0-.12-.06-.23-.14-.3,1.34-.67,2.29-2.33,2.29-4.26Zm-9.43,1.88l-1.23.04v-8.53c0-.36-.3-.66-.66-.66h-.87v-.87h2.77s0,10.02,0,10.02Zm-3.59-9.97v.82h-4.96l4.96-.82Zm-4.8,22.29c0,2.82-.58,3.68-2.48,3.68s-2.59-.86-2.59-3.68v-9.26h5.08v9.26h0Zm-7.55-10.58v-9.57h13.39v9.57h-13.39Zm21.77-.35c-1.24,0-2.28-1.49-2.28-3.26,0-1.33.59-2.55,1.46-3.04.04-.02.08-.05.12-.09l.08-.07c.11-.1.19-.24.21-.39l.27-1.82h.29l.25,1.79c.02.12.07.24.15.34l.06.07c.05.06.12.11.19.15.89.48,1.49,1.71,1.49,3.05,0,1.77-1.05,3.26-2.28,3.26Z" style="fill: #fff; stroke-width: 0px;"/>
</svg>