<?xml version="1.0" encoding="UTF-8"?>
<svg id="Layer_1" data-name="Layer 1" xmlns="http://www.w3.org/2000/svg" viewBox="0 0 120 120" width="100%" height="100%">
  <g>
    <circle cx="60.28" cy="60" r="55.41" style="fill: #fff; stroke: #005178; stroke-miterlimit: 10; stroke-width: 6px;"/>
    <circle cx="60.28" cy="60" r="48.69" style="fill: #5a97cb; stroke-width: 0px;"/>
  </g>
  <path d="m72.36,46.05c-1.3-2.85-2.54-5.55-3.82-8.36,1.58-1.64,3.55-2.74,5.34-4.25,3.24,1.22,6.39,2.58,9.69,3.88.52,2.18.82,4.41,1.08,6.76-2.82,1.3-5.71,2.21-8.62,3.44.27.23.45.43.67.55,5.26,3.05,8.52,7.61,9.84,13.49,1.42,6.3-.04,12.07-3.99,17.1-3.13,3.98-7.26,6.47-12.3,7.47-3.17.63-6.26.49-9.34-.4-.51-.15-.95-.11-1.45.03-1.88.53-3.81.91-5.77.77-8.34-.58-14.55-4.46-18.26-12.06-1.68-3.44-2.28-7.16-1.77-10.92.92-6.83,4.38-12.08,10.38-15.59.17-.1.33-.21.63-.4-1.32-.52-2.5-.98-3.69-1.44-1.36-.52-2.72-1.02-4.07-1.55-.43-.16-.9-.3-.97-1.11.28-1.8.6-3.84.93-5.93.39-.22.73-.46,1.1-.62,2.73-1.12,5.46-2.22,8.19-3.32.07-.03.16-.03.43-.07,1.84,1.08,3.54,2.59,5.44,3.98-1.18,2.94-2.58,5.65-3.83,8.56,1.26-.23,2.38-.54,3.51-.63,1.53-.12,3.07-.15,4.6-.05,1.06.07,2.11.38,3.16.64.59.15,1.15.11,1.7-.05,1.81-.52,3.65-.72,5.53-.7,1.59.01,3.13.27,4.67.64.27.06.54.07.98.12Zm-12.11,5.05c-5.73,2.22-9.87,8.17-9.89,14.77-.02,6.31,3.88,12.53,9.9,14.81,5.53-2.13,9.84-7.35,9.97-14.63.11-6.09-3.32-12.35-9.98-14.94Zm-6.86,30.8c-4.8-4.19-7.5-9.4-7.56-15.85-.06-6.5,2.61-11.79,7.52-16.13-7.11.21-14.24,5.62-15.16,14.22-1.02,9.63,6.26,17.5,15.2,17.75Zm13.68.02c9.74-.37,16.82-9.26,15.16-18.84-.75-4.33-3.05-7.76-6.65-10.3-2.45-1.74-6.13-2.9-8.02-2.56,4.77,4.24,7.28,9.59,7.19,15.93-.08,6.31-2.68,11.62-7.69,15.77Zm-11.11-31.98c-8.57,5.6-10.93,16.65-6.29,25.12,4.87,8.9,15.72,12.32,24.7,8.16,9.11-4.21,13.48-14.56,9.85-24.18-3.53-9.35-13.44-13.66-21.16-11.78,2.11,1.17,1.29,1.08,3.72,1.09.74,0,1.49.11,2.22.23,4.28.74,7.9,2.66,10.77,5.96,2.88,3.31,4.2,7.22,4.25,11.54.03,2.25-.5,4.44-1.36,6.53-2.93,7.09-10.63,11.78-18.31,10.73-3.83-.52-7.22-1.96-9.98-4.65-4.39-4.27-6.26-9.49-5.32-15.6.56-3.63,2.15-6.77,4.72-9.42,1.24-1.28,2.64-2.33,4.36-3.35-.86-.16-1.5-.27-2.18-.4Zm21.13-13.61c-1.08-.43-2.02-.8-2.96-1.18-1.04.83-2.13,1.48-3.08,2.47,1.03.42,1.94.79,2.87,1.17,1.02-.79,2.03-1.57,3.18-2.46Zm-33.61.01c1.13.87,2.13,1.64,3.16,2.44.98-.4,1.92-.78,2.98-1.21-1.16-.88-2.18-1.64-3.23-2.43-.91.38-1.82.75-2.92,1.2Zm-5.23,2.14c-.2,1.34-.38,2.54-.59,3.95,1.1-.46,2-.83,2.82-1.18.19-1.37.36-2.58.54-3.93-.98.41-1.85.77-2.77,1.15Zm41.25-1.15c.24,1.5.45,2.75.66,4.05.93.18,1.64.79,2.72.84-.22-1.35-.42-2.6-.62-3.8-.92-.36-1.72-.68-2.76-1.09Zm-33.76,3.47c-1.15.47-2.2.89-3.11,1.27,1.1,1.09,2.16,2.14,3.11,3.08v-4.35Zm29.16.02v4.53c1.1-1.12,2.1-2.13,3.18-3.23-1.11-.45-2.06-.84-3.18-1.3Zm-1.65-.61c-.67-.4-1.33-.67-2.25-.84.77,1.7,1.46,3.23,2.25,4.98v-4.14Zm-23.73-.73c-.07-.06-.14-.12-.2-.18-.63.28-1.26.55-1.88.83v3.89c.75-1.63,1.42-3.09,2.09-4.54Zm30.33,3.36c-.95.95-1.71,1.72-2.47,2.48,1.39-.53,2.83-1.08,4.45-1.7-.82-.32-1.49-.58-1.98-.78Zm-37.73-2.25c1.05-.43,1.93-.78,2.89-1.17-.84-.63-1.58-1.18-2.46-1.84-.15,1.05-.28,1.95-.43,3.02Zm33.41-1.15c1.05.41,1.86.72,2.87,1.12-.15-1.08-.27-1.96-.41-2.99-.84.64-1.58,1.2-2.46,1.87Zm-36.78,4.18c1.66.63,3.03,1.16,4.4,1.68-.64-.99-1.39-1.82-2.33-2.51-.64.25-1.23.49-2.07.83Z" style="fill: #fff; stroke-width: 0px;"/>
</svg>