<svg width="75" height="75" viewBox="0 0 75 75" fill="none" xmlns="http://www.w3.org/2000/svg">
<path d="M41.9702 50.3096H21.2802C17.6702 50.3096 14.7402 53.2396 14.7402 56.8496V63.3896H48.5202V56.8496C48.5202 53.2396 45.5902 50.3096 41.9802 50.3096H41.9702Z" stroke="#0B5079" stroke-width="3" stroke-miterlimit="10" stroke-linecap="round"/>
<path d="M31.7394 45.6604C37.0579 45.6604 41.3694 41.3489 41.3694 36.0304C41.3694 30.7119 37.0579 26.4004 31.7394 26.4004C26.4209 26.4004 22.1094 30.7119 22.1094 36.0304C22.1094 41.3489 26.4209 45.6604 31.7394 45.6604Z" stroke="#0B5079" stroke-width="3" stroke-miterlimit="10" stroke-linecap="round"/>
<path d="M38.5098 21.9004C41.1598 17.9804 45.6498 15.4004 50.7398 15.4004C58.8898 15.4004 65.4898 22.0004 65.4898 30.1504C65.4898 38.3004 58.8898 44.9004 50.7398 44.9004C48.5898 44.9004 46.5598 44.4404 44.7198 43.6204" stroke="#0B5079" stroke-width="3" stroke-miterlimit="10" stroke-linecap="round"/>
<path d="M50.7891 22.8896V30.8896L56.2891 36.3896" stroke="#0B5079" stroke-width="3" stroke-miterlimit="10" stroke-linecap="round"/>
<path d="M29.6491 21.8896L31.8791 19.3896L25.1891 18.3896L32.4391 15.6396L23.2891 13.3896L33.7891 11.3896" stroke="#0B5079" stroke-width="2" stroke-linecap="round" stroke-linejoin="round"/>
</svg>
