<?xml version="1.0" encoding="UTF-8"?>
<svg id="Layer_1" data-name="Layer 1" xmlns="http://www.w3.org/2000/svg" viewBox="0 0 120 120" width="100%" height="100%">
  <g>
    <circle cx="60" cy="60" r="55.41" style="fill: #fff; stroke: #005178; stroke-miterlimit: 10; stroke-width: 6px;"/>
    <circle cx="60" cy="60" r="48.69" style="fill: #5a97cb; stroke-width: 0px;"/>
    <circle cx="60" cy="60" r="55.41" style="fill: #fff; stroke: #005178; stroke-miterlimit: 10; stroke-width: 6px;"/>
    <circle cx="60" cy="60" r="48.69" style="fill: #5a97cb; stroke-width: 0px;"/>
  </g>
  <path d="m68.35,52.65v4.15c-.1,0-.2,0-.29,0-1.07,0-2.15,0-3.22,0-.63,0-1.14.43-1.32,1.03-.17.59.05,1.23.56,1.58.26.18.55.26.86.26,1.02,0,2.03,0,3.05,0,.09,0,.17,0,.26,0-.24,3.22-3.1,7.07-7.75,7.35-4.89.29-8.41-3.5-8.78-7.35.09,0,.17,0,.26,0,.94,0,1.89,0,2.83,0,.72,0,1.33-.56,1.41-1.25.08-.74-.37-1.41-1.09-1.58-.15-.04-.32-.04-.48-.04-.9,0-1.81,0-2.71,0h-.28v-4.14c.08,0,.17-.01.25-.01.95,0,1.9,0,2.86,0,.65,0,1.17-.38,1.38-.96.2-.56.04-1.17-.4-1.57-.29-.26-.64-.37-1.02-.36-.93,0-1.86,0-2.78,0-.09,0-.18,0-.28,0v-4.15c.1,0,.19,0,.29,0,.94,0,1.87.01,2.81,0,1.08-.02,1.76-1.01,1.38-1.97-.22-.54-.73-.9-1.32-.9-.96,0-1.92,0-2.88,0-.09,0-.17,0-.3,0-.03-3.06,1.08-5.56,3.6-7.27,2.92-1.99,6.03-2.1,9.07-.3,2.81,1.67,4.07,4.28,4.07,7.57-.11,0-.2,0-.29,0-1.06,0-2.13,0-3.19,0-.71,0-1.32.54-1.41,1.22-.09.75.34,1.42,1.06,1.6.17.04.35.05.53.05.99,0,1.98,0,2.98,0,.09,0,.19,0,.3,0v4.15c-.1,0-.19,0-.27,0-1.05,0-2.1,0-3.15,0-.64,0-1.17.39-1.38.96-.2.56-.03,1.19.43,1.58.29.25.63.35,1.01.35,1.02,0,2.05,0,3.07,0,.09,0,.18,0,.29,0Z" style="fill: #fff; stroke-width: 0px;"/>
  <path d="m58.79,81.78v-9.2c-.54-.09-1.08-.16-1.62-.27-5.53-1.14-9.83-5.49-10.9-11.02-.16-.85-.21-1.73-.26-2.59-.04-.72.49-1.26,1.17-1.26.69,0,1.17.52,1.2,1.25.21,4.97,2.56,8.57,7.09,10.61,4.7,2.12,10.42.61,13.6-3.45,1.65-2.1,2.49-4.49,2.53-7.16.01-.73.5-1.25,1.19-1.25.69,0,1.19.54,1.18,1.28-.02,6.35-4.49,12.01-10.67,13.49-.69.16-1.39.26-2.11.39v9.18c.11,0,.2,0,.3,0,1.2,0,2.4,0,3.61,0,.66,0,1.11.34,1.25.93.15.63-.26,1.28-.89,1.42-.13.03-.26.04-.38.04-3.39,0-6.78,0-10.16,0-.49,0-.89-.16-1.14-.59-.45-.75.05-1.72.92-1.78.44-.03.89-.01,1.33-.01.83,0,1.66,0,2.49,0h.28Z" style="fill: #fff; stroke-width: 0px;"/>
</svg>