<svg width="552" height="147" viewBox="0 0 552 147" fill="none" xmlns="http://www.w3.org/2000/svg">
<path d="M518.931 14.9502H307.331C293.413 14.9502 282.131 26.2326 282.131 40.1502V111.75C282.131 125.668 293.413 136.95 307.331 136.95H518.931C532.848 136.95 544.131 125.668 544.131 111.75V40.1502C544.131 26.2326 532.848 14.9502 518.931 14.9502Z" fill="white"/>
<g opacity="0.15">
<path d="M397.741 73.6902C409.821 73.6902 419.611 63.9002 419.611 51.8202C419.611 39.7402 409.821 29.9502 397.741 29.9502C385.661 29.9502 375.871 39.7402 375.871 51.8202C375.871 63.9002 385.661 73.6902 397.741 73.6902Z" fill="black"/>
<path d="M343.741 83.6902C355.821 83.6902 365.611 73.9002 365.611 61.8202C365.611 49.7402 355.821 39.9502 343.741 39.9502C331.661 39.9502 321.871 49.7402 321.871 61.8202C321.871 73.9002 331.661 83.6902 343.741 83.6902Z" fill="black"/>
<path d="M521.961 84.25H474.981C468.481 84.25 462.971 88.43 460.961 94.25H434.991C432.981 88.43 427.471 84.25 420.971 84.25H373.991C367.491 84.25 361.981 88.43 359.971 94.25H319.991C311.791 94.25 305.141 100.9 305.141 109.1V123.95H381.821V113.95H410.141V123.95H486.821V113.95H536.821V99.1C536.821 90.9 530.171 84.25 521.971 84.25H521.961Z" fill="black"/>
<path d="M498.741 73.6902C510.821 73.6902 520.611 63.9002 520.611 51.8202C520.611 39.7402 510.821 29.9502 498.741 29.9502C486.661 29.9502 476.871 39.7402 476.871 51.8202C476.871 63.9002 486.661 73.6902 498.741 73.6902Z" fill="black"/>
<path d="M448.741 83.6902C460.821 83.6902 470.611 73.9002 470.611 61.8202C470.611 49.7402 460.821 39.9502 448.741 39.9502C436.661 39.9502 426.871 49.7402 426.871 61.8202C426.871 73.9002 436.661 83.6902 448.741 83.6902Z" fill="black"/>
</g>
<path d="M413.961 81.25H366.981C358.781 81.25 352.131 87.9 352.131 96.1V110.95H428.811V96.1C428.811 87.9 422.161 81.25 413.961 81.25Z" fill="#FFCEA6"/>
<path d="M390.741 70.6902C402.82 70.6902 412.611 60.8987 412.611 48.8202C412.611 36.7417 402.82 26.9502 390.741 26.9502C378.663 26.9502 368.871 36.7417 368.871 48.8202C368.871 60.8987 378.663 70.6902 390.741 70.6902Z" fill="#FFCEA6"/>
<path d="M363.37 86.9502H309.59C300.2 86.9502 292.59 95.4602 292.59 105.95V124.95H380.37V105.95C380.37 95.4602 372.76 86.9502 363.37 86.9502Z" fill="white"/>
<path d="M9.02745 38.9199V26.3399H13.9745C15.2211 26.3399 16.1278 26.6289 16.6945 27.2069C17.2725 27.7736 17.5615 28.5839 17.5615 29.6379C17.5615 30.1366 17.4878 30.5786 17.3405 30.9639C17.2045 31.3379 17.0061 31.6496 16.7455 31.8989C16.4848 32.1369 16.1731 32.3013 15.8105 32.3919C16.0825 32.4599 16.3431 32.5676 16.5925 32.7149C16.8531 32.8623 17.0855 33.0606 17.2895 33.3099C17.5048 33.5593 17.6691 33.8653 17.7825 34.2279C17.9071 34.5793 17.9695 34.9873 17.9695 35.4519C17.9695 36.3019 17.8221 36.9819 17.5275 37.4919C17.2441 38.0019 16.8191 38.3703 16.2525 38.5969C15.6971 38.8123 15.0115 38.9199 14.1955 38.9199H9.02745ZM11.5435 36.6589H14.1275C14.4221 36.6589 14.6771 36.6023 14.8925 36.4889C15.1078 36.3756 15.2721 36.1999 15.3855 35.9619C15.5101 35.7239 15.5725 35.4066 15.5725 35.0099C15.5725 34.6813 15.5101 34.4036 15.3855 34.1769C15.2608 33.9503 15.0908 33.7746 14.8755 33.6499C14.6601 33.5253 14.4108 33.4629 14.1275 33.4629H11.5435V36.6589ZM11.5435 31.5249H13.9915C14.3541 31.5249 14.6375 31.3946 14.8415 31.1339C15.0568 30.8619 15.1645 30.5106 15.1645 30.0799C15.1758 29.5246 15.0625 29.1393 14.8245 28.9239C14.5865 28.7086 14.2975 28.6009 13.9575 28.6009H11.5435V31.5249ZM22.4227 38.9539C21.7767 38.9539 21.2383 38.8519 20.8077 38.6479C20.3883 38.4326 20.0767 38.1096 19.8727 37.6789C19.6687 37.2369 19.5667 36.6703 19.5667 35.9789V25.9489H22.0827V35.6049C22.0827 35.9449 22.1167 36.2169 22.1847 36.4209C22.2527 36.6136 22.3547 36.7553 22.4907 36.8459C22.638 36.9366 22.8193 36.9989 23.0347 37.0329L23.7317 37.1349V38.9539H22.4227ZM26.8338 39.0219C26.1424 39.0219 25.5814 38.8179 25.1508 38.4099C24.7201 38.0019 24.5048 37.4353 24.5048 36.7099V35.8939C24.5048 35.2026 24.7484 34.6359 25.2358 34.1939C25.7231 33.7406 26.4824 33.5139 27.5138 33.5139H29.8428V32.8849C29.8428 32.6016 29.7918 32.3693 29.6898 32.1879C29.5878 31.9953 29.3951 31.8593 29.1118 31.7799C28.8398 31.6893 28.4204 31.6439 27.8538 31.6439H25.1168V30.1819C25.5588 30.0459 26.0688 29.9269 26.6468 29.8249C27.2361 29.7229 27.9444 29.6719 28.7718 29.6719C29.5311 29.6719 30.1771 29.7626 30.7098 29.9439C31.2538 30.1253 31.6618 30.4369 31.9338 30.8789C32.2171 31.3209 32.3588 31.9329 32.3588 32.7149V38.9199H30.3698L29.9618 37.9509C29.8824 38.0416 29.7464 38.1436 29.5538 38.2569C29.3611 38.3703 29.1231 38.4893 28.8398 38.6139C28.5678 38.7273 28.2561 38.8236 27.9048 38.9029C27.5648 38.9823 27.2078 39.0219 26.8338 39.0219ZM28.1088 37.2709C28.2221 37.2709 28.3468 37.2596 28.4828 37.2369C28.6301 37.2029 28.7774 37.1689 28.9248 37.1349C29.0834 37.0896 29.2251 37.0499 29.3498 37.0159C29.4858 36.9706 29.5934 36.9309 29.6728 36.8969C29.7634 36.8629 29.8201 36.8403 29.8428 36.8289V34.7039L28.3128 34.8059C27.8708 34.8399 27.5421 34.9533 27.3268 35.1459C27.1228 35.3386 27.0208 35.5993 27.0208 35.9279V36.3019C27.0208 36.5286 27.0661 36.7156 27.1568 36.8629C27.2588 37.0103 27.3891 37.1179 27.5478 37.1859C27.7178 37.2426 27.9048 37.2709 28.1088 37.2709ZM37.7954 39.0219C37.2401 39.0219 36.7244 38.9483 36.2484 38.8009C35.7838 38.6536 35.3814 38.4099 35.0414 38.0699C34.7014 37.7186 34.4351 37.2483 34.2424 36.6589C34.0611 36.0583 33.9704 35.3046 33.9704 34.3979C33.9704 33.4686 34.0554 32.6979 34.2254 32.0859C34.3954 31.4739 34.6448 30.9923 34.9734 30.6409C35.3134 30.2783 35.7271 30.0233 36.2144 29.8759C36.7018 29.7286 37.2514 29.6549 37.8634 29.6549C38.4188 29.6549 38.9458 29.6889 39.4444 29.7569C39.9544 29.8136 40.4871 29.9213 41.0424 30.0799V31.5249H38.6454C38.1241 31.5249 37.7048 31.6043 37.3874 31.7629C37.0701 31.9103 36.8378 32.1936 36.6904 32.6129C36.5544 33.0209 36.4864 33.6103 36.4864 34.3809C36.4864 35.1403 36.5544 35.7183 36.6904 36.1149C36.8378 36.5116 37.0701 36.7779 37.3874 36.9139C37.7161 37.0499 38.1468 37.1179 38.6794 37.1179H41.1784V38.5459C40.8951 38.6366 40.5664 38.7216 40.1924 38.8009C39.8184 38.8689 39.4218 38.9199 39.0024 38.9539C38.5944 38.9993 38.1921 39.0219 37.7954 39.0219ZM42.5764 38.9199V25.9489H45.0924V32.9529H46.1634L48.1694 29.7909H50.7194L48.0334 34.0919L50.9914 38.9199H48.4414L46.1294 35.2309H45.0924V38.9199H42.5764ZM59.7043 38.9879C59.2737 38.9879 58.8543 38.9483 58.4463 38.8689C58.0497 38.7896 57.6927 38.6536 57.3753 38.4609C57.0693 38.2569 56.8257 37.9793 56.6443 37.6279C56.4743 37.2653 56.3893 36.8063 56.3893 36.2509V34.5339C56.3893 34.2053 56.446 33.9049 56.5593 33.6329C56.6727 33.3496 56.8313 33.1059 57.0353 32.9019C57.2507 32.6979 57.5 32.5676 57.7833 32.5109C57.432 32.3409 57.1713 32.1426 57.0013 31.9159C56.8427 31.6779 56.7407 31.4229 56.6953 31.1509C56.6613 30.8789 56.6443 30.5956 56.6443 30.3009V28.8729C56.6443 28.2269 56.7747 27.7113 57.0353 27.3259C57.3073 26.9406 57.67 26.6629 58.1233 26.4929C58.5767 26.3229 59.064 26.2379 59.5853 26.2379H61.9653C62.5093 26.2379 62.9967 26.3229 63.4273 26.4929C63.858 26.6629 64.2037 26.9406 64.4643 27.3259C64.725 27.7113 64.8553 28.2269 64.8553 28.8729V30.3009C64.8553 30.4483 64.8383 30.6239 64.8043 30.8279C64.7703 31.0319 64.708 31.2416 64.6173 31.4569C64.538 31.6723 64.4247 31.8536 64.2773 32.0009C64.13 32.1483 63.9487 32.2503 63.7333 32.3069C64.1187 32.3863 64.4077 32.5563 64.6003 32.8169C64.793 33.0663 64.9233 33.3439 64.9913 33.6499C65.0593 33.9559 65.0933 34.2336 65.0933 34.4829V36.2509C65.0933 36.9989 64.9517 37.5713 64.6683 37.9679C64.3963 38.3533 64.028 38.6196 63.5633 38.7669C63.0987 38.9143 62.5773 38.9879 61.9993 38.9879H59.7043ZM60.1463 36.8629H61.4043C61.869 36.8629 62.1807 36.7723 62.3393 36.5909C62.498 36.3983 62.5773 36.1319 62.5773 35.7919V34.6699C62.5773 34.3073 62.481 34.0353 62.2883 33.8539C62.107 33.6613 61.8123 33.5649 61.4043 33.5649H60.1293C59.982 33.5649 59.8347 33.5876 59.6873 33.6329C59.54 33.6783 59.4097 33.7463 59.2963 33.8369C59.183 33.9276 59.0867 34.0466 59.0073 34.1939C58.9393 34.3299 58.9053 34.4886 58.9053 34.6699V35.7919C58.9053 36.1773 59.013 36.4549 59.2283 36.6249C59.4437 36.7836 59.7497 36.8629 60.1463 36.8629ZM60.1293 31.4229H61.3703C61.6537 31.4229 61.8633 31.3719 61.9993 31.2699C62.1467 31.1679 62.2487 31.0319 62.3053 30.8619C62.362 30.6806 62.3903 30.4823 62.3903 30.2669V29.4679C62.3903 29.0146 62.2997 28.7199 62.1183 28.5839C61.937 28.4479 61.699 28.3799 61.4043 28.3799H60.1463C59.7837 28.3799 59.5173 28.4536 59.3473 28.6009C59.1773 28.7483 59.0923 29.0373 59.0923 29.4679V30.2669C59.0923 30.6976 59.1717 30.9979 59.3303 31.1679C59.5003 31.3379 59.7667 31.4229 60.1293 31.4229ZM67.3361 38.9369C67.1095 38.9369 66.9961 38.8236 66.9961 38.5969V36.8629C66.9961 36.6249 67.1095 36.5059 67.3361 36.5059H68.7981C69.0475 36.5059 69.1721 36.6249 69.1721 36.8629V38.5969C69.1721 38.7329 69.1325 38.8236 69.0531 38.8689C68.9851 38.9143 68.9001 38.9369 68.7981 38.9369H67.3361ZM72.0685 38.9199L75.8085 28.8559H70.4535V26.3399H78.3925L79.0555 27.4109L74.8905 38.9199H72.0685ZM82.9606 38.9199L90.6106 26.4759H92.2426L84.6946 38.9199H82.9606ZM82.3146 32.9869C81.4873 32.9869 80.8979 32.7943 80.5466 32.4089C80.2066 32.0236 80.0366 31.4683 80.0366 30.7429V28.7199C80.0366 27.9946 80.2066 27.4393 80.5466 27.0539C80.8866 26.6686 81.4873 26.4759 82.3486 26.4759H84.0656C84.9043 26.4759 85.4936 26.6686 85.8336 27.0539C86.1736 27.4393 86.3436 27.9946 86.3436 28.7199V30.7429C86.3436 31.4683 86.1736 32.0236 85.8336 32.4089C85.4936 32.7943 84.8929 32.9869 84.0316 32.9869H82.3146ZM82.6206 31.3549H83.7256C84.1109 31.3549 84.3716 31.2756 84.5076 31.1169C84.6549 30.9469 84.7286 30.6976 84.7286 30.3689V29.0939C84.7286 28.7086 84.6549 28.4479 84.5076 28.3119C84.3603 28.1759 84.1109 28.1079 83.7596 28.1079H82.6546C82.3486 28.1079 82.1049 28.1703 81.9236 28.2949C81.7536 28.4083 81.6686 28.6746 81.6686 29.0939V30.3689C81.6686 30.6976 81.7309 30.9469 81.8556 31.1169C81.9916 31.2756 82.2466 31.3549 82.6206 31.3549ZM91.2736 38.8689C90.4463 38.8689 89.8626 38.6763 89.5226 38.2909C89.1826 37.9056 89.0126 37.3503 89.0126 36.6249V34.6019C89.0126 33.8766 89.1769 33.3213 89.5056 32.9359C89.8456 32.5506 90.4463 32.3579 91.3076 32.3579H93.0416C93.8803 32.3579 94.4696 32.5506 94.8096 32.9359C95.1496 33.3213 95.3196 33.8766 95.3196 34.6019V36.6249C95.3196 37.3503 95.1496 37.9056 94.8096 38.2909C94.4696 38.6763 93.8689 38.8689 93.0076 38.8689H91.2736ZM91.5966 37.2369H92.6846C93.0813 37.2369 93.3476 37.1576 93.4836 36.9989C93.6309 36.8289 93.7046 36.5796 93.7046 36.2509V34.9759C93.7046 34.5906 93.6253 34.3299 93.4666 34.1939C93.3193 34.0579 93.0699 33.9899 92.7186 33.9899H91.6306C91.3246 33.9899 91.0809 34.0523 90.8996 34.1769C90.7183 34.2903 90.6276 34.5566 90.6276 34.9759V36.2509C90.6276 36.5796 90.6899 36.8289 90.8146 36.9989C90.9506 37.1576 91.2113 37.2369 91.5966 37.2369Z" fill="#005178"/>
<path d="M11.2375 67.9199L8.22845 55.3399H10.8295L12.8525 64.2139L15.2155 55.3399H17.5275L19.8735 64.2139L21.8965 55.3399H24.4975L21.4885 67.9199H18.9215L16.3715 59.0459L13.8045 67.9199H11.2375ZM25.759 67.9199V54.9659H28.275V59.7259C28.6037 59.4539 29.0287 59.2046 29.55 58.9779C30.0827 58.7513 30.6267 58.6379 31.182 58.6379C31.8734 58.6379 32.423 58.7739 32.831 59.0459C33.239 59.3179 33.5337 59.6976 33.715 60.1849C33.8964 60.6723 33.987 61.2389 33.987 61.8849V67.9199H31.471V62.2079C31.471 61.9133 31.4144 61.6696 31.301 61.4769C31.1877 61.2843 31.0347 61.1426 30.842 61.0519C30.6494 60.9499 30.4227 60.8989 30.162 60.8989C29.924 60.8989 29.6917 60.9329 29.465 61.0009C29.2497 61.0576 29.04 61.1369 28.836 61.2389C28.6434 61.3409 28.4564 61.4543 28.275 61.5789V67.9199H25.759ZM36.1754 57.4479C35.9374 57.4479 35.8184 57.3346 35.8184 57.1079V55.4419C35.8184 55.2039 35.9374 55.0849 36.1754 55.0849H38.1134C38.2154 55.0849 38.2947 55.1189 38.3514 55.1869C38.4081 55.2549 38.4364 55.3399 38.4364 55.4419V57.1079C38.4364 57.3346 38.3287 57.4479 38.1134 57.4479H36.1754ZM35.8694 67.9199V58.7909H38.3854V67.9199H35.8694ZM43.7866 67.9199C43.0839 67.9199 42.5116 67.8179 42.0696 67.6139C41.6389 67.4099 41.3273 67.0699 41.1346 66.5939C40.9419 66.1179 40.8569 65.4776 40.8796 64.6729L40.9646 60.8139H39.5366V59.1989L41.0496 58.7909L41.3896 56.2409H43.3786V58.7909H45.5206V60.8139H43.3786V64.6559C43.3786 64.9053 43.4013 65.1093 43.4466 65.2679C43.4919 65.4266 43.5543 65.5569 43.6336 65.6589C43.7243 65.7496 43.8263 65.8176 43.9396 65.8629C44.0529 65.9083 44.1663 65.9366 44.2796 65.9479L45.4356 66.0499V67.9199H43.7866ZM50.768 68.0049C49.7594 68.0049 48.9547 67.8746 48.354 67.6139C47.7534 67.3419 47.317 66.8659 47.045 66.1859C46.7844 65.5059 46.654 64.5653 46.654 63.3639C46.654 62.1286 46.7787 61.1709 47.028 60.4909C47.2774 59.8109 47.6967 59.3349 48.286 59.0629C48.8754 58.7909 49.6744 58.6549 50.683 58.6549C51.5897 58.6549 52.315 58.7456 52.859 58.9269C53.403 59.1083 53.794 59.4256 54.032 59.8789C54.2814 60.3323 54.406 60.9726 54.406 61.7999C54.406 62.4119 54.2814 62.8993 54.032 63.2619C53.794 63.6133 53.454 63.8683 53.012 64.0269C52.57 64.1743 52.0487 64.2479 51.448 64.2479H49.153C49.1757 64.7126 49.2437 65.0866 49.357 65.3699C49.4817 65.6419 49.7027 65.8403 50.02 65.9649C50.3487 66.0783 50.819 66.1349 51.431 66.1349H54.1V67.6139C53.658 67.7046 53.1707 67.7953 52.638 67.8859C52.1167 67.9653 51.4934 68.0049 50.768 68.0049ZM49.119 62.7519H51.193C51.533 62.7519 51.7824 62.6839 51.941 62.5479C52.0997 62.4119 52.179 62.1683 52.179 61.8169C52.179 61.4883 52.128 61.2276 52.026 61.0349C51.924 60.8309 51.7654 60.6893 51.55 60.6099C51.3347 60.5193 51.0457 60.4739 50.683 60.4739C50.2977 60.4739 49.9917 60.5419 49.765 60.6779C49.5384 60.8026 49.374 61.0293 49.272 61.3579C49.17 61.6866 49.119 62.1513 49.119 62.7519ZM61.4767 67.9199L65.2167 57.8559H59.8617V55.3399H67.8007L68.4637 56.4109L64.2987 67.9199H61.4767ZM68.6144 67.9369C68.3878 67.9369 68.2744 67.8236 68.2744 67.5969V65.8629C68.2744 65.6249 68.3878 65.5059 68.6144 65.5059H70.0764C70.3258 65.5059 70.4504 65.6249 70.4504 65.8629V67.5969C70.4504 67.7329 70.4108 67.8236 70.3314 67.8689C70.2634 67.9143 70.1784 67.9369 70.0764 67.9369H68.6144ZM77.7158 67.9029V65.2509H72.2078L71.7318 64.0609L75.8118 55.3399H78.3788L74.7238 63.1089H77.7158V60.6609L78.2088 59.2159H80.2318V63.1089H81.5238V64.8429L80.2318 65.2509V67.9029H77.7158ZM85.3512 67.9199L93.0012 55.4759H94.6332L87.0852 67.9199H85.3512ZM84.7052 61.9869C83.8779 61.9869 83.2885 61.7943 82.9372 61.4089C82.5972 61.0236 82.4272 60.4683 82.4272 59.7429V57.7199C82.4272 56.9946 82.5972 56.4393 82.9372 56.0539C83.2772 55.6686 83.8779 55.4759 84.7392 55.4759H86.4562C87.2949 55.4759 87.8842 55.6686 88.2242 56.0539C88.5642 56.4393 88.7342 56.9946 88.7342 57.7199V59.7429C88.7342 60.4683 88.5642 61.0236 88.2242 61.4089C87.8842 61.7943 87.2835 61.9869 86.4222 61.9869H84.7052ZM85.0112 60.3549H86.1162C86.5015 60.3549 86.7622 60.2756 86.8982 60.1169C87.0455 59.9469 87.1192 59.6976 87.1192 59.3689V58.0939C87.1192 57.7086 87.0455 57.4479 86.8982 57.3119C86.7509 57.1759 86.5015 57.1079 86.1502 57.1079H85.0452C84.7392 57.1079 84.4955 57.1703 84.3142 57.2949C84.1442 57.4083 84.0592 57.6746 84.0592 58.0939V59.3689C84.0592 59.6976 84.1215 59.9469 84.2462 60.1169C84.3822 60.2756 84.6372 60.3549 85.0112 60.3549ZM93.6642 67.8689C92.8369 67.8689 92.2532 67.6763 91.9132 67.2909C91.5732 66.9056 91.4032 66.3503 91.4032 65.6249V63.6019C91.4032 62.8766 91.5675 62.3213 91.8962 61.9359C92.2362 61.5506 92.8369 61.3579 93.6982 61.3579H95.4322C96.2709 61.3579 96.8602 61.5506 97.2002 61.9359C97.5402 62.3213 97.7102 62.8766 97.7102 63.6019V65.6249C97.7102 66.3503 97.5402 66.9056 97.2002 67.2909C96.8602 67.6763 96.2595 67.8689 95.3982 67.8689H93.6642ZM93.9872 66.2369H95.0752C95.4719 66.2369 95.7382 66.1576 95.8742 65.9989C96.0215 65.8289 96.0952 65.5796 96.0952 65.2509V63.9759C96.0952 63.5906 96.0159 63.3299 95.8572 63.1939C95.7099 63.0579 95.4605 62.9899 95.1092 62.9899H94.0212C93.7152 62.9899 93.4715 63.0523 93.2902 63.1769C93.1089 63.2903 93.0182 63.5566 93.0182 63.9759V65.2509C93.0182 65.5796 93.0805 65.8289 93.2052 65.9989C93.3412 66.1576 93.6019 66.2369 93.9872 66.2369Z" fill="#005178"/>
<path d="M9.02745 96.9199V84.3399H11.5435V89.5759H16.2865V84.3399H18.8195V96.9199H16.2865V91.8369H11.5435V96.9199H9.02745ZM21.1676 86.4479C20.9296 86.4479 20.8106 86.3346 20.8106 86.1079V84.4419C20.8106 84.2039 20.9296 84.0849 21.1676 84.0849H23.1056C23.2076 84.0849 23.2869 84.1189 23.3436 84.1869C23.4002 84.2549 23.4286 84.3399 23.4286 84.4419V86.1079C23.4286 86.3346 23.3209 86.4479 23.1056 86.4479H21.1676ZM20.8616 96.9199V87.7909H23.3776V96.9199H20.8616ZM28.6258 97.0219C28.3425 97.0219 28.0365 97.0106 27.7078 96.9879C27.3791 96.9766 27.0505 96.9539 26.7218 96.9199C26.3931 96.8859 26.0871 96.8463 25.8038 96.8009C25.5205 96.7443 25.2825 96.6819 25.0898 96.6139V95.1349H29.1358C29.3738 95.1349 29.5665 95.1179 29.7138 95.0839C29.8725 95.0386 29.9858 94.9649 30.0538 94.8629C30.1331 94.7496 30.1728 94.5909 30.1728 94.3869V94.0979C30.1728 93.8713 30.0991 93.6956 29.9518 93.5709C29.8045 93.4463 29.5325 93.3839 29.1358 93.3839H27.7078C27.1865 93.3839 26.7161 93.3046 26.2968 93.1459C25.8775 92.9873 25.5431 92.7266 25.2938 92.3639C25.0558 92.0013 24.9368 91.5139 24.9368 90.9019V90.3749C24.9368 89.7969 25.0501 89.3096 25.2768 88.9129C25.5035 88.5163 25.8831 88.2159 26.4158 88.0119C26.9485 87.8079 27.6795 87.7059 28.6088 87.7059C28.9828 87.7059 29.3795 87.7286 29.7988 87.7739C30.2295 87.8079 30.6318 87.8589 31.0058 87.9269C31.3911 87.9836 31.6971 88.0516 31.9238 88.1309V89.6099H28.0988C27.7701 89.6099 27.5208 89.6666 27.3508 89.7799C27.1808 89.8819 27.0958 90.0803 27.0958 90.3749V90.6469C27.0958 90.8509 27.1355 91.0039 27.2148 91.1059C27.2941 91.1966 27.4131 91.2646 27.5718 91.3099C27.7418 91.3439 27.9515 91.3609 28.2008 91.3609H29.6628C30.5921 91.3609 31.2665 91.5763 31.6858 92.0069C32.1165 92.4263 32.3318 93.0099 32.3318 93.7579V94.5739C32.3318 95.1859 32.1845 95.6733 31.8898 96.0359C31.6065 96.3873 31.1871 96.6423 30.6318 96.8009C30.0878 96.9483 29.4191 97.0219 28.6258 97.0219ZM33.8938 100.949V87.7909H36.0018L36.4098 88.6579C36.6251 88.4879 36.8631 88.3293 37.1238 88.1819C37.3845 88.0233 37.6678 87.8986 37.9738 87.8079C38.2798 87.7059 38.6028 87.6549 38.9428 87.6549C39.4981 87.6549 39.9798 87.7626 40.3878 87.9779C40.8071 88.1933 41.1471 88.5049 41.4078 88.9129C41.6685 89.3209 41.8611 89.8196 41.9858 90.4089C42.1105 90.9869 42.1728 91.6386 42.1728 92.3639C42.1728 93.3386 42.0765 94.1773 41.8838 94.8799C41.6911 95.5826 41.3568 96.1209 40.8808 96.4949C40.4161 96.8576 39.7701 97.0389 38.9428 97.0389C38.5121 97.0389 38.0701 96.9879 37.6168 96.8859C37.1748 96.7839 36.7725 96.6366 36.4098 96.4439V100.949H33.8938ZM38.1268 94.9649C38.3875 94.9649 38.6368 94.8969 38.8748 94.7609C39.1128 94.6136 39.2998 94.3529 39.4358 93.9789C39.5831 93.6049 39.6568 93.0666 39.6568 92.3639C39.6568 91.6839 39.5888 91.1513 39.4528 90.7659C39.3281 90.3693 39.1525 90.0916 38.9258 89.9329C38.6991 89.7629 38.4328 89.6779 38.1268 89.6779C37.7755 89.6779 37.4525 89.7346 37.1578 89.8479C36.8631 89.9613 36.6138 90.0746 36.4098 90.1879V94.5229C36.6365 94.6589 36.9028 94.7666 37.2088 94.8459C37.5148 94.9253 37.8208 94.9649 38.1268 94.9649ZM45.7761 97.0219C45.0848 97.0219 44.5238 96.8179 44.0931 96.4099C43.6625 96.0019 43.4471 95.4353 43.4471 94.7099V93.8939C43.4471 93.2026 43.6908 92.6359 44.1781 92.1939C44.6655 91.7406 45.4248 91.5139 46.4561 91.5139H48.7851V90.8849C48.7851 90.6016 48.7341 90.3693 48.6321 90.1879C48.5301 89.9953 48.3375 89.8593 48.0541 89.7799C47.7821 89.6893 47.3628 89.6439 46.7961 89.6439H44.0591V88.1819C44.5011 88.0459 45.0111 87.9269 45.5891 87.8249C46.1785 87.7229 46.8868 87.6719 47.7141 87.6719C48.4735 87.6719 49.1195 87.7626 49.6521 87.9439C50.1961 88.1253 50.6041 88.4369 50.8761 88.8789C51.1595 89.3209 51.3011 89.9329 51.3011 90.7149V96.9199H49.3121L48.9041 95.9509C48.8248 96.0416 48.6888 96.1436 48.4961 96.2569C48.3035 96.3703 48.0655 96.4893 47.7821 96.6139C47.5101 96.7273 47.1985 96.8236 46.8471 96.9029C46.5071 96.9823 46.1501 97.0219 45.7761 97.0219ZM47.0511 95.2709C47.1645 95.2709 47.2891 95.2596 47.4251 95.2369C47.5725 95.2029 47.7198 95.1689 47.8671 95.1349C48.0258 95.0896 48.1675 95.0499 48.2921 95.0159C48.4281 94.9706 48.5358 94.9309 48.6151 94.8969C48.7058 94.8629 48.7625 94.8403 48.7851 94.8289V92.7039L47.2551 92.8059C46.8131 92.8399 46.4845 92.9533 46.2691 93.1459C46.0651 93.3386 45.9631 93.5993 45.9631 93.9279V94.3019C45.9631 94.5286 46.0085 94.7156 46.0991 94.8629C46.2011 95.0103 46.3315 95.1179 46.4901 95.1859C46.6601 95.2426 46.8471 95.2709 47.0511 95.2709ZM53.1848 96.9199V87.7909H55.2588L55.7008 88.7259C56.0408 88.4426 56.4658 88.1933 56.9758 87.9779C57.4972 87.7513 58.0298 87.6379 58.5738 87.6379C59.3218 87.6379 59.8998 87.7853 60.3078 88.0799C60.7158 88.3746 60.9992 88.7713 61.1578 89.2699C61.3278 89.7573 61.4128 90.3013 61.4128 90.9019V96.9199H58.8968V91.2249C58.8968 90.9303 58.8402 90.6866 58.7268 90.4939C58.6248 90.3013 58.4775 90.1539 58.2848 90.0519C58.0922 89.9499 57.8598 89.8989 57.5878 89.8989C57.3498 89.8989 57.1175 89.9273 56.8908 89.9839C56.6755 90.0406 56.4658 90.1199 56.2618 90.2219C56.0692 90.3239 55.8822 90.4429 55.7008 90.5789V96.9199H53.1848ZM63.6012 86.4479C63.3632 86.4479 63.2442 86.3346 63.2442 86.1079V84.4419C63.2442 84.2039 63.3632 84.0849 63.6012 84.0849H65.5392C65.6412 84.0849 65.7205 84.1189 65.7772 84.1869C65.8338 84.2549 65.8622 84.3399 65.8622 84.4419V86.1079C65.8622 86.3346 65.7545 86.4479 65.5392 86.4479H63.6012ZM63.2952 96.9199V87.7909H65.8112V96.9199H63.2952ZM71.2974 97.0219C70.7421 97.0219 70.2264 96.9483 69.7504 96.8009C69.2857 96.6536 68.8834 96.4099 68.5434 96.0699C68.2034 95.7186 67.9371 95.2483 67.7444 94.6589C67.5631 94.0583 67.4724 93.3046 67.4724 92.3979C67.4724 91.4686 67.5574 90.6979 67.7274 90.0859C67.8974 89.4739 68.1467 88.9923 68.4754 88.6409C68.8154 88.2783 69.2291 88.0233 69.7164 87.8759C70.2037 87.7286 70.7534 87.6549 71.3654 87.6549C71.9207 87.6549 72.4477 87.6889 72.9464 87.7569C73.4564 87.8136 73.9891 87.9213 74.5444 88.0799V89.5249H72.1474C71.6261 89.5249 71.2067 89.6043 70.8894 89.7629C70.5721 89.9103 70.3397 90.1936 70.1924 90.6129C70.0564 91.0209 69.9884 91.6103 69.9884 92.3809C69.9884 93.1403 70.0564 93.7183 70.1924 94.1149C70.3397 94.5116 70.5721 94.7779 70.8894 94.9139C71.2181 95.0499 71.6487 95.1179 72.1814 95.1179H74.6804V96.5459C74.3971 96.6366 74.0684 96.7216 73.6944 96.8009C73.3204 96.8689 72.9237 96.9199 72.5044 96.9539C72.0964 96.9993 71.6941 97.0219 71.2974 97.0219ZM81.4982 96.9199L85.2382 86.8559H79.8832V84.3399H87.8222L88.4852 85.4109L84.3202 96.9199H81.4982ZM88.6359 96.9369C88.4093 96.9369 88.2959 96.8236 88.2959 96.5969V94.8629C88.2959 94.6249 88.4093 94.5059 88.6359 94.5059H90.0979C90.3473 94.5059 90.4719 94.6249 90.4719 94.8629V96.5969C90.4719 96.7329 90.4323 96.8236 90.3529 96.8689C90.2849 96.9143 90.1999 96.9369 90.0979 96.9369H88.6359ZM95.5953 96.9879C94.8926 96.9879 94.292 96.8689 93.7933 96.6309C93.306 96.3816 92.932 96.0133 92.6713 95.5259C92.422 95.0386 92.2973 94.4436 92.2973 93.7409V87.6209C92.2973 86.8843 92.4276 86.2666 92.6883 85.7679C92.949 85.2579 93.3286 84.8783 93.8273 84.6289C94.3373 84.3683 94.9323 84.2379 95.6123 84.2379H98.2303C98.9443 84.2379 99.5336 84.3739 99.9983 84.6459C100.474 84.9066 100.831 85.2919 101.069 85.8019C101.307 86.3006 101.426 86.9069 101.426 87.6209V93.7409C101.426 94.7949 101.143 95.5996 100.576 96.1549C100.021 96.7103 99.239 96.9879 98.2303 96.9879H95.5953ZM96.1903 94.7269H97.5503C98.015 94.7269 98.355 94.6136 98.5703 94.3869C98.797 94.1603 98.9103 93.8203 98.9103 93.3669V87.8589C98.9103 87.3603 98.797 87.0089 98.5703 86.8049C98.3436 86.6009 98.0376 86.4989 97.6523 86.4989H96.1053C95.686 86.4989 95.363 86.6123 95.1363 86.8389C94.921 87.0656 94.8133 87.4056 94.8133 87.8589V93.3499C94.8133 93.8259 94.9323 94.1773 95.1703 94.4039C95.4083 94.6193 95.7483 94.7269 96.1903 94.7269ZM105.854 96.9199L113.504 84.4759H115.136L107.588 96.9199H105.854ZM105.208 90.9869C104.381 90.9869 103.791 90.7943 103.44 90.4089C103.1 90.0236 102.93 89.4683 102.93 88.7429V86.7199C102.93 85.9946 103.1 85.4393 103.44 85.0539C103.78 84.6686 104.381 84.4759 105.242 84.4759H106.959C107.798 84.4759 108.387 84.6686 108.727 85.0539C109.067 85.4393 109.237 85.9946 109.237 86.7199V88.7429C109.237 89.4683 109.067 90.0236 108.727 90.4089C108.387 90.7943 107.786 90.9869 106.925 90.9869H105.208ZM105.514 89.3549H106.619C107.004 89.3549 107.265 89.2756 107.401 89.1169C107.548 88.9469 107.622 88.6976 107.622 88.3689V87.0939C107.622 86.7086 107.548 86.4479 107.401 86.3119C107.254 86.1759 107.004 86.1079 106.653 86.1079H105.548C105.242 86.1079 104.998 86.1703 104.817 86.2949C104.647 86.4083 104.562 86.6746 104.562 87.0939V88.3689C104.562 88.6976 104.624 88.9469 104.749 89.1169C104.885 89.2756 105.14 89.3549 105.514 89.3549ZM114.167 96.8689C113.34 96.8689 112.756 96.6763 112.416 96.2909C112.076 95.9056 111.906 95.3503 111.906 94.6249V92.6019C111.906 91.8766 112.07 91.3213 112.399 90.9359C112.739 90.5506 113.34 90.3579 114.201 90.3579H115.935C116.774 90.3579 117.363 90.5506 117.703 90.9359C118.043 91.3213 118.213 91.8766 118.213 92.6019V94.6249C118.213 95.3503 118.043 95.9056 117.703 96.2909C117.363 96.6763 116.762 96.8689 115.901 96.8689H114.167ZM114.49 95.2369H115.578C115.975 95.2369 116.241 95.1576 116.377 94.9989C116.524 94.8289 116.598 94.5796 116.598 94.2509V92.9759C116.598 92.5906 116.519 92.3299 116.36 92.1939C116.213 92.0579 115.963 91.9899 115.612 91.9899H114.524C114.218 91.9899 113.974 92.0523 113.793 92.1769C113.612 92.2903 113.521 92.5566 113.521 92.9759V94.2509C113.521 94.5796 113.583 94.8289 113.708 94.9989C113.844 95.1576 114.105 95.2369 114.49 95.2369Z" fill="#005178"/>
<path d="M8.22845 125.92L12.1725 113.34H15.3515L19.2955 125.92H16.6775L15.8785 123.285H11.5945L10.8125 125.92H8.22845ZM12.1895 121.024H15.2835L13.7365 115.499L12.1895 121.024ZM23.8611 126.022C23.5778 126.022 23.2718 126.011 22.9431 125.988C22.6145 125.977 22.2858 125.954 21.9571 125.92C21.6285 125.886 21.3225 125.846 21.0391 125.801C20.7558 125.744 20.5178 125.682 20.3251 125.614V124.135H24.3711C24.6091 124.135 24.8018 124.118 24.9491 124.084C25.1078 124.039 25.2211 123.965 25.2891 123.863C25.3685 123.75 25.4081 123.591 25.4081 123.387V123.098C25.4081 122.871 25.3345 122.696 25.1871 122.571C25.0398 122.446 24.7678 122.384 24.3711 122.384H22.9431C22.4218 122.384 21.9515 122.305 21.5321 122.146C21.1128 121.987 20.7785 121.727 20.5291 121.364C20.2911 121.001 20.1721 120.514 20.1721 119.902V119.375C20.1721 118.797 20.2855 118.31 20.5121 117.913C20.7388 117.516 21.1185 117.216 21.6511 117.012C22.1838 116.808 22.9148 116.706 23.8441 116.706C24.2181 116.706 24.6148 116.729 25.0341 116.774C25.4648 116.808 25.8671 116.859 26.2411 116.927C26.6265 116.984 26.9325 117.052 27.1591 117.131V118.61H23.3341C23.0055 118.61 22.7561 118.667 22.5861 118.78C22.4161 118.882 22.3311 119.08 22.3311 119.375V119.647C22.3311 119.851 22.3708 120.004 22.4501 120.106C22.5295 120.197 22.6485 120.265 22.8071 120.31C22.9771 120.344 23.1868 120.361 23.4361 120.361H24.8981C25.8275 120.361 26.5018 120.576 26.9211 121.007C27.3518 121.426 27.5671 122.01 27.5671 122.758V123.574C27.5671 124.186 27.4198 124.673 27.1251 125.036C26.8418 125.387 26.4225 125.642 25.8671 125.801C25.3231 125.948 24.6545 126.022 23.8611 126.022ZM29.4352 115.448C29.1972 115.448 29.0782 115.335 29.0782 115.108V113.442C29.0782 113.204 29.1972 113.085 29.4352 113.085H31.3732C31.4752 113.085 31.5545 113.119 31.6112 113.187C31.6678 113.255 31.6962 113.34 31.6962 113.442V115.108C31.6962 115.335 31.5885 115.448 31.3732 115.448H29.4352ZM29.1292 125.92V116.791H31.6452V125.92H29.1292ZM35.5164 126.022C34.825 126.022 34.264 125.818 33.8334 125.41C33.4027 125.002 33.1874 124.435 33.1874 123.71V122.894C33.1874 122.203 33.431 121.636 33.9184 121.194C34.4057 120.741 35.165 120.514 36.1964 120.514H38.5254V119.885C38.5254 119.602 38.4744 119.369 38.3724 119.188C38.2704 118.995 38.0777 118.859 37.7944 118.78C37.5224 118.689 37.103 118.644 36.5364 118.644H33.7994V117.182C34.2414 117.046 34.7514 116.927 35.3294 116.825C35.9187 116.723 36.627 116.672 37.4544 116.672C38.2137 116.672 38.8597 116.763 39.3924 116.944C39.9364 117.125 40.3444 117.437 40.6164 117.879C40.8997 118.321 41.0414 118.933 41.0414 119.715V125.92H39.0524L38.6444 124.951C38.565 125.042 38.429 125.144 38.2364 125.257C38.0437 125.37 37.8057 125.489 37.5224 125.614C37.2504 125.727 36.9387 125.824 36.5874 125.903C36.2474 125.982 35.8904 126.022 35.5164 126.022ZM36.7914 124.271C36.9047 124.271 37.0294 124.26 37.1654 124.237C37.3127 124.203 37.46 124.169 37.6074 124.135C37.766 124.09 37.9077 124.05 38.0324 124.016C38.1684 123.971 38.276 123.931 38.3554 123.897C38.446 123.863 38.5027 123.84 38.5254 123.829V121.704L36.9954 121.806C36.5534 121.84 36.2247 121.953 36.0094 122.146C35.8054 122.339 35.7034 122.599 35.7034 122.928V123.302C35.7034 123.529 35.7487 123.716 35.8394 123.863C35.9414 124.01 36.0717 124.118 36.2304 124.186C36.4004 124.243 36.5874 124.271 36.7914 124.271ZM42.9251 125.92V116.791H44.9991L45.4411 117.726C45.7811 117.443 46.2061 117.193 46.7161 116.978C47.2374 116.751 47.7701 116.638 48.3141 116.638C49.0621 116.638 49.6401 116.785 50.0481 117.08C50.4561 117.375 50.7394 117.771 50.8981 118.27C51.0681 118.757 51.1531 119.301 51.1531 119.902V125.92H48.6371V120.225C48.6371 119.93 48.5804 119.687 48.4671 119.494C48.3651 119.301 48.2177 119.154 48.0251 119.052C47.8324 118.95 47.6001 118.899 47.3281 118.899C47.0901 118.899 46.8577 118.927 46.6311 118.984C46.4157 119.041 46.2061 119.12 46.0021 119.222C45.8094 119.324 45.6224 119.443 45.4411 119.579V125.92H42.9251ZM62.8242 125.903V123.251H57.3162L56.8402 122.061L60.9202 113.34H63.4872L59.8322 121.109H62.8242V118.661L63.3172 117.216H65.3402V121.109H66.6322V122.843L65.3402 123.251V125.903H62.8242ZM68.2326 125.937C68.0059 125.937 67.8926 125.824 67.8926 125.597V123.863C67.8926 123.625 68.0059 123.506 68.2326 123.506H69.6946C69.9439 123.506 70.0686 123.625 70.0686 123.863V125.597C70.0686 125.733 70.0289 125.824 69.9496 125.869C69.8816 125.914 69.7966 125.937 69.6946 125.937H68.2326ZM75.192 125.988C74.4893 125.988 73.8887 125.869 73.39 125.631C72.9027 125.382 72.5287 125.013 72.268 124.526C72.0187 124.039 71.894 123.444 71.894 122.741V116.621C71.894 115.884 72.0243 115.267 72.285 114.768C72.5457 114.258 72.9253 113.878 73.424 113.629C73.934 113.368 74.529 113.238 75.209 113.238H77.827C78.541 113.238 79.1303 113.374 79.595 113.646C80.071 113.907 80.428 114.292 80.666 114.802C80.904 115.301 81.023 115.907 81.023 116.621V122.741C81.023 123.795 80.7397 124.6 80.173 125.155C79.6177 125.71 78.8357 125.988 77.827 125.988H75.192ZM75.787 123.727H77.147C77.6117 123.727 77.9517 123.614 78.167 123.387C78.3937 123.16 78.507 122.82 78.507 122.367V116.859C78.507 116.36 78.3937 116.009 78.167 115.805C77.9403 115.601 77.6343 115.499 77.249 115.499H75.702C75.2827 115.499 74.9597 115.612 74.733 115.839C74.5177 116.066 74.41 116.406 74.41 116.859V122.35C74.41 122.826 74.529 123.177 74.767 123.404C75.005 123.619 75.345 123.727 75.787 123.727ZM85.4508 125.92L93.1008 113.476H94.7328L87.1848 125.92H85.4508ZM84.8048 119.987C83.9775 119.987 83.3882 119.794 83.0368 119.409C82.6968 119.024 82.5268 118.468 82.5268 117.743V115.72C82.5268 114.995 82.6968 114.439 83.0368 114.054C83.3768 113.669 83.9775 113.476 84.8388 113.476H86.5558C87.3945 113.476 87.9838 113.669 88.3238 114.054C88.6638 114.439 88.8338 114.995 88.8338 115.72V117.743C88.8338 118.468 88.6638 119.024 88.3238 119.409C87.9838 119.794 87.3832 119.987 86.5218 119.987H84.8048ZM85.1108 118.355H86.2158C86.6012 118.355 86.8618 118.276 86.9978 118.117C87.1452 117.947 87.2188 117.698 87.2188 117.369V116.094C87.2188 115.709 87.1452 115.448 86.9978 115.312C86.8505 115.176 86.6012 115.108 86.2498 115.108H85.1448C84.8388 115.108 84.5952 115.17 84.4138 115.295C84.2438 115.408 84.1588 115.675 84.1588 116.094V117.369C84.1588 117.698 84.2212 117.947 84.3458 118.117C84.4818 118.276 84.7368 118.355 85.1108 118.355ZM93.7638 125.869C92.9365 125.869 92.3528 125.676 92.0128 125.291C91.6728 124.906 91.5028 124.35 91.5028 123.625V121.602C91.5028 120.877 91.6672 120.321 91.9958 119.936C92.3358 119.551 92.9365 119.358 93.7978 119.358H95.5318C96.3705 119.358 96.9598 119.551 97.2998 119.936C97.6398 120.321 97.8098 120.877 97.8098 121.602V123.625C97.8098 124.35 97.6398 124.906 97.2998 125.291C96.9598 125.676 96.3592 125.869 95.4978 125.869H93.7638ZM94.0868 124.237H95.1748C95.5715 124.237 95.8378 124.158 95.9738 123.999C96.1212 123.829 96.1948 123.58 96.1948 123.251V121.976C96.1948 121.591 96.1155 121.33 95.9568 121.194C95.8095 121.058 95.5602 120.99 95.2088 120.99H94.1208C93.8148 120.99 93.5712 121.052 93.3898 121.177C93.2085 121.29 93.1178 121.557 93.1178 121.976V123.251C93.1178 123.58 93.1802 123.829 93.3048 123.999C93.4408 124.158 93.7015 124.237 94.0868 124.237Z" fill="#005178"/>
<path d="M359.961 91.25H312.981C304.781 91.25 298.131 97.9 298.131 106.1V120.95H374.811V106.1C374.811 97.9 368.161 91.25 359.961 91.25Z" fill="#7A4D3B"/>
<path d="M336.739 80.6902C348.818 80.6902 358.609 70.8987 358.609 58.8202C358.609 46.7417 348.818 36.9502 336.739 36.9502C324.661 36.9502 314.869 46.7417 314.869 58.8202C314.869 70.8987 324.661 80.6902 336.739 80.6902Z" fill="#7A4D3B"/>
<path d="M514.961 81.25H467.981C459.781 81.25 453.131 87.9 453.131 96.1V110.95H529.811V96.1C529.811 87.9 523.161 81.25 514.961 81.25Z" fill="#F9D9A5"/>
<path d="M491.741 70.6902C503.82 70.6902 513.611 60.8987 513.611 48.8202C513.611 36.7417 503.82 26.9502 491.741 26.9502C479.663 26.9502 469.871 36.7417 469.871 48.8202C469.871 60.8987 479.663 70.6902 491.741 70.6902Z" fill="#F9D9A5"/>
<path d="M468.37 86.9502H414.59C405.2 86.9502 397.59 95.4602 397.59 105.95V124.95H485.37V105.95C485.37 95.4602 477.76 86.9502 468.37 86.9502Z" fill="white"/>
<path d="M464.961 91.25H417.981C409.781 91.25 403.131 97.9 403.131 106.1V120.95H479.811V106.1C479.811 97.9 473.161 91.25 464.961 91.25Z" fill="#DB8C67"/>
<path d="M441.739 80.6902C453.818 80.6902 463.609 70.8987 463.609 58.8202C463.609 46.7417 453.818 36.9502 441.739 36.9502C429.661 36.9502 419.869 46.7417 419.869 58.8202C419.869 70.8987 429.661 80.6902 441.739 80.6902Z" fill="#DB8C67"/>
<path d="M146.131 38.9404V24.9404H132.131V38.9404H146.131Z" fill="#7A4D3B"/>
<path d="M160.131 38.9404V24.9404H146.131V38.9404H160.131Z" fill="#7A4D3B"/>
<path d="M174.131 38.9404V24.9404H160.131V38.9404H174.131Z" fill="#7A4D3B"/>
<path d="M188.131 38.9404V24.9404H174.131V38.9404H188.131Z" fill="#7A4D3B"/>
<path d="M202.131 38.9404V24.9404H188.131V38.9404H202.131Z" fill="#7A4D3B"/>
<path d="M216.131 38.9404V24.9404H202.131V38.9404H216.131Z" fill="#7A4D3B"/>
<path d="M230.131 38.9404V24.9404H216.131V38.9404H230.131Z" fill="#7A4D3B"/>
<path d="M244.131 38.9404V24.9404H230.131V38.9404H244.131Z" fill="#7A4D3B"/>
<path d="M254.131 38.9404V24.9404L132.131 24.9404V38.9404L254.131 38.9404Z" fill="#7A4D3B"/>
<path d="M146.131 67.9404V53.9404H132.131V67.9404H146.131Z" fill="#FFCEA6"/>
<path d="M160.131 67.9404V53.9404H146.131V67.9404H160.131Z" fill="#FFCEA6"/>
<path d="M174.131 67.9404V53.9404H160.131V67.9404H174.131Z" fill="#FFCEA6"/>
<path d="M188.131 67.9404V53.9404H174.131V67.9404H188.131Z" fill="#FFCEA6"/>
<path d="M202.131 67.9404V53.9404H188.131V67.9404H202.131Z" fill="#FFCEA6"/>
<path d="M216.131 67.9404V53.9404H202.131V67.9404H216.131Z" fill="#FFCEA6"/>
<path d="M230.131 67.9404V53.9404H216.131V67.9404H230.131Z" fill="#FFCEA6"/>
<path d="M235.131 67.9404V53.9404L132.131 53.9404V67.9404H235.131Z" fill="#FFCEA6"/>
<path d="M146.131 97.9404V83.9404H132.131V97.9404H146.131Z" fill="#DB8C67"/>
<path d="M160.131 97.9404V83.9404H146.131V97.9404H160.131Z" fill="#DB8C67"/>
<path d="M174.131 97.9404V83.9404H160.131V97.9404H174.131Z" fill="#DB8C67"/>
<path d="M188.131 97.9404V83.9404H174.131V97.9404H188.131Z" fill="#DB8C67"/>
<path d="M202.131 97.9404V83.9404H188.131V97.9404H202.131Z" fill="#DB8C67"/>
<path d="M216.131 97.9404V83.9404H202.131V97.9404H216.131Z" fill="#DB8C67"/>
<path d="M230.131 97.9404V83.9404H132.131V97.9404H230.131Z" fill="#DB8C67"/>
<path d="M146.131 124.94V110.94H132.131V124.94H146.131Z" fill="#F9D9A5"/>
<path d="M160.131 124.94V110.94H146.131V124.94H160.131Z" fill="#F9D9A5"/>
<path d="M174.131 124.94V110.94H160.131V124.94H174.131Z" fill="#F9D9A5"/>
<path d="M188.131 124.94V110.94H132.131V124.94H188.131Z" fill="#F9D9A5"/>
</svg>
