<svg width="506" height="130" viewBox="0 0 506 130" fill="none" xmlns="http://www.w3.org/2000/svg">
<g clip-path="url(#clip0_225_158)">
<path d="M48.4406 43.4004H35.5605V93.0004H48.4406V43.4004Z" fill="#005178"/>
<path d="M202.53 62.03C201.73 62.17 201.04 62.27 200.37 62.42C198.64 62.81 197.17 63.72 195.77 64.77C193.87 66.2 191.96 67.62 190.07 69.06C189.63 69.4 189.25 69.82 188.78 70.26C188.65 69.94 188.53 69.64 188.42 69.35C187.67 67.48 186.35 66.13 184.59 65.17C184.27 65 183.96 64.71 183.8 64.39C181.85 60.6 179.97 56.77 177.99 52.99C176.72 50.56 175.33 48.19 173.99 45.79C173.91 45.65 173.84 45.52 173.77 45.38C173.57 44.99 173.7 44.81 174.12 44.88C174.83 45 175.54 45.14 176.24 45.28C178.11 45.66 179.98 46.03 181.85 46.43C182.35 46.54 182.51 46.37 182.56 45.89C182.84 43.33 183.14 40.78 183.44 38.22C183.46 38.04 183.58 37.88 183.65 37.71C183.83 37.81 184.04 37.86 184.17 38C185.87 39.83 187.55 41.67 189.24 43.51C189.626 43.93 190.006 43.94 190.38 43.54C192.04 41.73 193.7 39.92 195.38 38.13C195.54 37.96 195.77 37.85 195.97 37.71C196.06 37.95 196.22 38.18 196.24 38.43C196.51 40.69 196.76 42.96 197.02 45.23C197.04 45.44 197.09 45.65 197.1 45.87C197.11 46.42 197.35 46.54 197.89 46.42C200.35 45.9 202.81 45.41 205.28 44.93C205.49 44.89 205.72 44.96 205.94 44.98C205.88 45.19 205.87 45.43 205.76 45.62C204.55 47.8 203.32 49.97 202.1 52.14C201.74 52.78 201.76 52.83 202.41 53.13C204.66 54.16 206.91 55.18 209.15 56.22C209.36 56.32 209.53 56.51 209.73 56.66C209.55 56.81 209.38 57.01 209.18 57.11C206.94 58.16 204.7 59.19 202.45 60.23C201.75 60.56 201.74 60.57 202.11 61.25C202.24 61.48 202.36 61.72 202.53 62.04V62.03Z" fill="#5A97CB"/>
<path d="M174.659 89.0603C173.029 89.0603 171.519 89.0903 169.999 89.0403C169.429 89.0203 168.989 88.6403 168.789 88.0803C168.099 86.1403 167.839 84.1503 168.029 82.1003C168.069 81.6703 168.269 81.5603 168.679 81.5703C170.429 81.5903 172.189 81.5803 173.939 81.5703C175.239 81.5703 175.859 81.0303 176.269 79.8003C176.839 78.0603 177.489 76.3503 178.139 74.6403C178.199 74.4703 178.499 74.3103 178.709 74.2903C181.099 74.0503 183.479 73.8003 185.869 73.6403C190.729 73.3303 195.599 73.0503 200.469 72.8003C203.799 72.6303 207.129 72.5403 210.459 72.3903C210.949 72.3703 211.079 72.5303 211.079 73.0103C211.079 78.1603 211.079 83.3103 211.109 88.4503C211.109 88.9103 211.019 89.1003 210.509 89.1003C204.429 89.0803 198.339 89.0903 192.259 89.0903C192.109 89.0903 191.959 89.0703 191.719 89.0503C192.409 85.3603 191.479 82.2203 188.509 79.8603C186.799 78.5003 184.789 77.9003 182.609 78.0703C179.889 78.2703 177.689 79.4903 176.079 81.7003C174.479 83.8903 174.139 86.3603 174.669 89.0703L174.659 89.0603ZM202.649 78.5503C203.759 78.4903 204.869 78.4203 205.969 78.3403C206.779 78.2803 207.329 77.7103 207.309 77.0003C207.289 76.2503 206.679 75.7003 205.849 75.7403C204.369 75.8203 202.889 75.9303 201.419 76.0603C200.709 76.1203 200.239 76.6703 200.259 77.3603C200.279 78.0703 200.789 78.5903 201.539 78.6003C201.909 78.6003 202.279 78.5703 202.649 78.5503Z" fill="#005178"/>
<path d="M186.28 70.9604C185.96 71.0104 185.76 71.0604 185.55 71.0804C182.08 71.4004 178.6 71.7004 175.13 72.0504C173.79 72.1804 172.47 72.4604 171.14 72.6104C170.55 72.6804 169.95 72.5904 169.36 72.5904C165.79 72.5904 162.22 72.5804 158.66 72.5904C157.26 72.5904 156.33 73.5504 156.3 74.9504C156.29 75.7904 156.28 76.6304 156.3 77.4704C156.33 78.8504 157.26 79.7704 158.64 79.7804C160.75 79.7904 162.85 79.7804 164.96 79.7804C165.19 79.7804 165.42 79.7804 165.67 79.7804C165.54 81.2604 165.42 82.6704 165.29 84.1504C165.15 84.1504 164.96 84.1804 164.77 84.1804C158.55 84.1804 152.33 84.1804 146.11 84.1804C143.83 84.1804 141.95 82.5404 141.6 80.2904C141.59 80.2004 141.6 80.1004 141.6 79.9404C141.86 79.9304 142.11 79.9004 142.35 79.9004C145.59 79.9004 148.82 79.9004 152.06 79.9004C154.18 79.9004 154.78 79.3004 154.77 77.2004C154.75 74.6004 153.22 72.5804 150.71 71.9404C150.21 71.8104 149.67 71.8004 149.14 71.7904C146.84 71.7804 144.54 71.7704 142.24 71.7904C141.73 71.7904 141.56 71.6904 141.69 71.1304C142.19 68.8804 144.25 67.0804 146.58 66.9204C146.75 66.9104 146.93 66.9004 147.11 66.9004C158.34 66.9004 169.57 66.9004 180.8 66.9004C182.88 66.9004 184.52 67.7904 185.64 69.5704C185.89 69.9704 186.04 70.4304 186.28 70.9404V70.9604Z" fill="#005178"/>
<path d="M147.23 64.2403C147.71 63.3403 148.14 62.5404 148.57 61.7304C149.58 59.8404 150.6 57.9504 151.59 56.0504C152.11 55.0604 152.91 54.6104 154 54.6104C160.67 54.6104 167.34 54.6104 174.01 54.6104C175.11 54.6104 175.9 55.0803 176.42 56.0603C177.75 58.5903 179.11 61.1104 180.46 63.6404C180.55 63.8104 180.61 63.9804 180.72 64.2304H147.24L147.23 64.2403Z" fill="#005178"/>
<path d="M183.2 93.0004C179.77 93.0004 177.01 90.2804 176.99 86.8704C176.96 83.4504 179.75 80.6504 183.18 80.6504C186.59 80.6504 189.34 83.4004 189.36 86.8204C189.37 90.2204 186.61 93.0004 183.21 93.0004H183.2Z" fill="#005178"/>
<path d="M192.779 70.5895C193.039 70.3195 193.159 70.1595 193.319 70.0395C194.909 68.7895 196.499 67.5295 198.109 66.3095C199.479 65.2595 201.069 64.7595 202.779 64.6895C205.349 64.5895 207.919 64.5295 210.489 64.4195C210.989 64.3995 211.119 64.5695 211.109 65.0495C211.079 66.4295 211.079 67.8195 211.109 69.1995C211.119 69.6695 210.949 69.7795 210.509 69.7995C205.269 70.0095 200.039 70.2395 194.799 70.4695C194.189 70.4995 193.569 70.5395 192.779 70.5895Z" fill="#005178"/>
<path d="M141.55 77.2298C141.55 76.3898 141.53 75.5798 141.57 74.7598C141.57 74.6298 141.81 74.3998 141.95 74.3998C144.54 74.3798 147.13 74.3498 149.71 74.4198C151.06 74.4598 152.09 75.5698 152.17 76.7998C152.19 77.1398 152.11 77.2998 151.74 77.2998C148.43 77.2898 145.12 77.2998 141.82 77.2898C141.77 77.2898 141.71 77.2598 141.56 77.2298H141.55Z" fill="#005178"/>
<path d="M144.34 86.7998C146.69 86.7998 148.93 86.7998 151.16 86.7998C151.54 86.7998 151.66 86.9298 151.67 87.3098C151.72 89.1498 150.72 90.1998 148.88 90.2098C148.22 90.2098 147.56 90.2098 146.89 90.2098C145.38 90.1898 144.37 89.1898 144.34 87.6798C144.34 87.3498 144.34 87.0298 144.34 86.8098V86.7998Z" fill="#005178"/>
<path d="M175.34 74.6797C174.83 76.0797 174.37 77.3997 173.88 78.6997C173.83 78.8297 173.62 78.9697 173.49 78.9697C171.97 78.9797 170.46 78.9697 168.94 78.9597C168.91 78.9597 168.88 78.9197 168.77 78.8497C169.15 77.6497 169.56 76.4397 170.57 75.5697C170.84 75.3397 171.28 75.2697 171.65 75.1997C172.59 75.0297 173.53 74.8897 174.47 74.7497C174.73 74.7097 175 74.7097 175.35 74.6797H175.34Z" fill="#005178"/>
<path d="M141.62 66.3601C141.07 65.8201 140.51 65.3401 140.04 64.7801C139.37 63.9801 139.47 62.7601 140.21 62.0201C140.96 61.2701 142.2 61.1801 143.02 61.8701C143.52 62.2901 143.97 62.7901 144.43 63.2601C144.51 63.3501 144.61 63.5401 144.57 63.6001C144.27 64.1001 143.98 64.6301 143.59 65.0601C143.34 65.3301 142.92 65.4401 142.6 65.6501C142.27 65.8601 141.97 66.1101 141.62 66.3701V66.3601Z" fill="#005178"/>
<path d="M167.48 75.2002C167.17 75.8602 166.94 76.4102 166.66 76.9302C166.59 77.0602 166.35 77.1702 166.19 77.1702C163.91 77.1902 161.63 77.1702 159.35 77.1802C159 77.1802 158.88 77.0502 158.86 76.7002C158.78 75.2002 158.77 75.2002 160.24 75.2002C162.4 75.2002 164.56 75.2002 166.73 75.2002H167.48Z" fill="#005178"/>
<path d="M66.8105 74.6398V61.7598H17.2105V74.6398H66.8105Z" fill="#005178"/>
<path d="M322.7 88.8498C316.08 88.8498 310.4 88.3698 304.76 87.3698C303.59 87.1598 302.42 86.9598 301.26 86.7398C300.22 86.5498 299.42 86.0198 298.85 85.0998C298.69 84.8498 298.33 84.6598 298.03 84.5698C294.61 83.5198 291.34 82.1298 288.42 80.0298C285.81 78.1498 283.69 75.8598 282.68 72.7198C282.03 70.6898 282.03 68.6098 282.17 66.5198C282.29 64.7898 282.63 63.1198 283.45 61.5698C284.72 59.1698 286.75 57.9498 289.41 57.7298C292.02 57.5098 294.5 58.1398 296.89 59.1098C298.23 59.6598 299.54 60.2998 300.82 60.9698C301.33 61.2398 301.78 61.2898 302.33 61.1398C306 60.1598 309.17 58.2798 312.15 55.9798C314.09 54.4798 316.17 53.1698 318.43 52.1598C320.59 51.1898 322.72 51.1298 324.91 52.0698C327.7 53.2698 330.16 54.9998 332.55 56.8198C335.19 58.8298 338.1 60.2698 341.29 61.1598C341.82 61.3098 342.25 61.2498 342.74 60.9798C345.46 59.4798 348.29 58.2598 351.39 57.8098C353.01 57.5798 354.62 57.5798 356.19 58.1198C358.52 58.9198 359.97 60.5998 360.71 62.8798C361.7 65.9198 361.83 69.0498 361.07 72.1498C360.29 75.3498 358.23 77.7298 355.65 79.6698C352.62 81.9598 349.2 83.4398 345.6 84.5298C345.11 84.6798 344.75 84.8698 344.47 85.3498C344 86.1598 343.2 86.5298 342.3 86.7198C335.54 88.0998 328.72 88.8598 322.7 88.8298V88.8498ZM345.04 81.7498C345.22 81.7498 345.31 81.7698 345.38 81.7498C348.91 80.6098 352.24 79.0898 355.06 76.6198C356.73 75.1598 358.02 73.4198 358.48 71.2198C358.92 69.1198 358.92 66.9698 358.44 64.8798C357.66 61.4698 355.87 60.1898 352.39 60.4798C349.73 60.6998 347.33 61.7298 344.98 62.9098C344.87 62.9698 344.79 63.2198 344.81 63.3798C344.86 63.9698 345.02 64.5498 345.02 65.1298C345.04 70.4098 345.03 75.6898 345.03 80.9698V81.7498H345.04ZM298.67 62.9798C296.77 61.7898 292.43 60.2198 289.85 60.4398C287.52 60.6298 286 61.7898 285.36 64.0398C285.12 64.8798 284.98 65.7598 284.89 66.6298C284.44 70.7798 285.57 74.3098 288.95 76.9798C290.89 78.5198 293.01 79.7298 295.29 80.6698C296.3 81.0798 297.34 81.4398 298.49 81.8698V81.0098C298.49 76.0098 298.49 71.0198 298.49 66.0198C298.49 65.0298 298.6 64.0398 298.66 62.9798H298.67ZM321.85 62.1998C320.1 62.3898 318.34 62.4998 316.61 62.7998C312.43 63.5298 308.58 65.1398 304.93 67.2698C304.04 67.7898 303.76 68.5098 304.18 69.2498C304.62 70.0098 305.35 70.1198 306.31 69.6198C307.63 68.9198 308.94 68.1998 310.3 67.5998C317 64.6598 323.85 64.2098 330.81 66.5998C333.12 67.3898 335.3 68.4698 337.4 69.7098C338.14 70.1498 338.92 69.9498 339.33 69.2898C339.74 68.6298 339.54 67.8198 338.8 67.3798C333.58 64.2498 328.01 62.2998 321.84 62.1898L321.85 62.1998ZM320.84 75.1798C325.66 75.0598 329.57 74.9698 333.48 74.8498C335.05 74.7998 336.63 74.7198 338.2 74.6098C339.14 74.5398 339.67 73.8298 339.5 72.9698C339.36 72.2798 338.8 71.8898 337.92 71.9298C335.12 72.0398 332.32 72.1898 329.51 72.2598C322.24 72.4498 314.98 72.3898 307.72 72.0098C306.92 71.9698 306.12 71.9198 305.33 71.9298C304.42 71.9398 303.82 72.7598 304.05 73.6198C304.2 74.2198 304.68 74.5898 305.5 74.6198C310.92 74.8298 316.34 75.0098 320.85 75.1798H320.84ZM321.69 81.8098C321.69 81.7398 321.69 81.6798 321.69 81.6098C322.84 81.6098 323.98 81.6598 325.13 81.6098C329.46 81.3998 333.79 81.1598 338.12 80.8998C339.1 80.8398 339.58 80.2298 339.5 79.3898C339.42 78.6098 338.8 78.1598 337.85 78.2198C335.52 78.3698 333.2 78.5498 330.87 78.6798C323.69 79.0898 316.51 78.9998 309.34 78.4798C308.03 78.3898 306.73 78.2698 305.42 78.1998C304.65 78.1598 304.08 78.6698 304.01 79.3698C303.93 80.1298 304.38 80.7198 305.14 80.8598C305.44 80.9098 305.75 80.9598 306.05 80.9798C311.26 81.2598 316.47 81.5298 321.68 81.7998L321.69 81.8098Z" fill="#005178"/>
<path d="M465.99 47.0202C468.66 47.0502 471.27 47.2302 473.83 47.8402C474.9 48.1002 475.95 48.4302 476.9 49.0002C477.67 49.4602 478.19 50.0602 478.31 51.0102C478.56 53.0102 478.88 55.0102 479.18 57.0102C479.47 58.9602 479.76 60.9002 480.05 62.8502C480.39 65.1302 480.72 67.4102 481.06 69.6902C481.23 70.8602 481.39 72.0202 481.59 73.1802C481.67 73.6102 481.55 73.8502 481.18 74.0502C480.16 74.6002 479.06 74.8802 477.94 75.0902C474.43 75.7702 470.87 75.9402 467.31 76.0302C467.02 76.0302 466.92 75.9402 466.93 75.6502C466.93 74.1202 466.93 72.5902 466.93 71.0602C466.93 70.8002 467 70.6802 467.29 70.6202C469.67 70.1202 471.44 68.8402 472.32 66.5202C473.66 63.0302 472.04 58.8902 468.35 57.6302C464.61 56.3602 460.3 58.4102 459.5 62.7002C458.99 65.4402 460.08 68.2002 462.45 69.6502C463.18 70.1002 464.06 70.3302 464.89 70.6102C465.15 70.7002 465.24 70.7902 465.24 71.0502C465.24 72.5802 465.23 74.1102 465.24 75.6402C465.24 75.9602 465.12 76.0302 464.83 76.0202C461.3 75.9602 457.78 75.8002 454.31 75.1702C453.17 74.9602 452.07 74.5702 450.95 74.2502C450.59 74.1502 450.47 73.9302 450.53 73.5202C450.89 71.2402 451.22 68.9602 451.56 66.6802C451.93 64.2002 452.29 61.7102 452.65 59.2302C452.98 56.9602 453.32 54.7002 453.66 52.4302C453.74 51.8902 453.84 51.3602 453.89 50.8202C453.95 50.1902 454.28 49.7302 454.74 49.3502C455.65 48.6102 456.75 48.2302 457.86 47.9302C460.54 47.2102 463.29 47.0302 466.01 46.9902L465.99 47.0202Z" fill="#5A97CB"/>
<path d="M448.391 78.9004C448.651 79.0304 448.821 79.1204 448.991 79.2004C450.871 80.1204 452.871 80.6304 454.921 80.9704C459.191 81.6804 463.501 81.8404 467.821 81.7604C470.831 81.7004 473.831 81.5404 476.801 81.0604C479.121 80.6804 481.401 80.1504 483.491 79.0304C483.541 79.0004 483.611 78.9904 483.721 78.9504C483.731 79.1304 483.751 79.2804 483.751 79.4304C483.751 81.4104 483.731 83.4004 483.761 85.3804C483.761 85.9704 483.551 86.3804 483.051 86.6004C482.261 86.9404 481.461 87.3004 480.631 87.5104C477.641 88.2904 474.571 88.5804 471.491 88.8104C468.551 89.0304 465.611 89.0704 462.671 88.9304C458.891 88.7404 455.121 88.4204 451.441 87.5004C450.621 87.3004 449.841 86.9304 449.061 86.5804C448.591 86.3704 448.381 85.9704 448.391 85.4204C448.421 83.4204 448.401 81.4304 448.401 79.4304V78.9104L448.391 78.9004Z" fill="#005178"/>
<path d="M466.06 80.1803C463.36 80.0103 460.65 79.9003 457.96 79.6403C455.4 79.3903 452.85 78.9603 450.43 78.0203C449.99 77.8503 449.56 77.6103 449.16 77.3603C448.76 77.1103 448.74 76.8903 448.96 76.4803C449.1 76.2303 449.24 75.9803 449.37 75.7303C449.47 75.5203 449.6 75.5003 449.81 75.5803C452.82 76.8103 455.99 77.2603 459.19 77.5803C462.85 77.9503 466.51 78.0103 470.17 77.7803C473.57 77.5703 476.96 77.1903 480.23 76.1603C480.91 75.9503 481.56 75.6603 482.21 75.3803C482.43 75.2903 482.54 75.3203 482.65 75.5203C482.82 75.8403 483 76.1603 483.17 76.4803C483.39 76.8903 483.35 77.2003 482.92 77.4203C482.2 77.7903 481.45 78.1403 480.68 78.3903C478.74 79.0203 476.73 79.3403 474.72 79.5903C471.85 79.9603 468.97 80.0803 466.08 80.0803C466.08 80.1203 466.08 80.1503 466.08 80.1903L466.06 80.1803Z" fill="#005178"/>
<path d="M465.209 66.3099C465.209 67.0599 465.209 67.8099 465.209 68.5599C465.209 68.8799 465.099 68.9399 464.809 68.8699C462.569 68.3199 461.029 66.3199 461.069 63.9999C461.109 61.5499 462.679 59.5799 464.979 59.0899C468.269 58.3999 471.269 60.9799 471.079 64.3399C470.959 66.4599 469.369 68.3699 467.319 68.8799C466.999 68.9599 466.909 68.8499 466.909 68.5399C466.919 67.0599 466.909 65.5899 466.909 64.1099C466.909 63.5299 466.629 63.2099 466.139 63.1699C465.609 63.1299 465.229 63.4399 465.219 63.9799C465.199 64.7599 465.219 65.5299 465.219 66.3099H465.209Z" fill="#5A97CB"/>
<path d="M466.93 41.1898C466.93 41.6598 466.94 42.1198 466.93 42.5898C466.91 43.1898 466.59 43.5198 466.06 43.5198C465.56 43.5198 465.22 43.1798 465.22 42.6098C465.2 41.6298 465.2 40.6398 465.22 39.6598C465.22 39.1098 465.6 38.7598 466.09 38.7598C466.57 38.7598 466.91 39.1098 466.93 39.6398C466.95 40.1598 466.93 40.6798 466.93 41.1898Z" fill="#005178"/>
<path d="M448.419 54.0598C448.369 54.7698 447.749 55.2198 447.159 54.9098C446.219 54.4198 445.299 53.8898 444.389 53.3398C443.959 53.0798 443.879 52.5998 444.129 52.1898C444.369 51.7998 444.829 51.6298 445.239 51.8598C446.169 52.3698 447.089 52.8998 447.989 53.4598C448.179 53.5798 448.279 53.8598 448.419 54.0598Z" fill="#005178"/>
<path d="M455.451 45.7002C455.441 46.1502 455.221 46.4102 454.861 46.5402C454.501 46.6702 454.131 46.6202 453.921 46.2802C453.351 45.3402 452.791 44.3902 452.271 43.4202C452.051 43.0202 452.251 42.5702 452.641 42.3602C453.041 42.1402 453.501 42.2002 453.741 42.5902C454.311 43.5202 454.841 44.4702 455.371 45.4102C455.421 45.5102 455.421 45.6302 455.441 45.7002H455.451Z" fill="#005178"/>
<path d="M476.689 45.6399C476.719 45.5599 476.779 45.3499 476.879 45.1799C477.329 44.3799 477.789 43.5799 478.249 42.7899C478.549 42.2699 479.039 42.1099 479.489 42.3599C479.929 42.6099 480.049 43.1299 479.759 43.6499C479.279 44.4899 478.799 45.3399 478.299 46.1699C478.069 46.5599 477.699 46.6899 477.299 46.5699C476.939 46.4699 476.699 46.1499 476.689 45.6399Z" fill="#005178"/>
<path d="M484.69 55.0097C484.23 55.0097 483.93 54.7697 483.82 54.3997C483.7 53.9997 483.82 53.6397 484.22 53.3997C485 52.9297 485.79 52.4897 486.57 52.0397C486.67 51.9797 486.77 51.9197 486.87 51.8697C487.3 51.6697 487.8 51.8197 488.02 52.2097C488.24 52.5997 488.15 53.0997 487.75 53.3397C486.85 53.8897 485.92 54.4097 485 54.9397C484.89 54.9997 484.75 54.9997 484.69 55.0197V55.0097Z" fill="#005178"/>
<path d="M443.969 66.6102C443.489 66.6102 443.009 66.6202 442.529 66.6102C441.929 66.5902 441.609 66.2702 441.609 65.7402C441.609 65.2102 441.939 64.9002 442.549 64.8902C443.509 64.8802 444.469 64.8902 445.419 64.8902C445.989 64.8902 446.329 65.2102 446.339 65.7202C446.359 66.2502 446.019 66.5902 445.439 66.6102C444.949 66.6302 444.459 66.6102 443.969 66.6102Z" fill="#005178"/>
<path d="M488.14 64.8899C488.63 64.8899 489.12 64.8799 489.61 64.8899C490.18 64.9099 490.5 65.2199 490.5 65.7499C490.5 66.2699 490.19 66.5999 489.61 66.6099C488.63 66.6299 487.64 66.6299 486.66 66.6099C486.09 66.6099 485.76 66.2599 485.76 65.7499C485.76 65.2299 486.1 64.8999 486.69 64.8799C486.72 64.8799 486.74 64.8799 486.77 64.8799C487.22 64.8799 487.68 64.8799 488.13 64.8799L488.14 64.8899Z" fill="#005178"/>
<path d="M73 68H78.76" stroke="#005178" stroke-width="3.84" stroke-miterlimit="10"/>
<path d="M88.6602 68H123.29" stroke="#005178" stroke-width="3.84" stroke-miterlimit="10"/>
<path d="M128.24 68H134" stroke="#005178" stroke-width="3.84" stroke-miterlimit="10"/>
<path d="M216 68H221.76" stroke="#005178" stroke-width="3.84" stroke-miterlimit="10"/>
<path d="M231.66 68H266.29" stroke="#005178" stroke-width="3.84" stroke-miterlimit="10"/>
<path d="M271.24 68H277" stroke="#005178" stroke-width="3.84" stroke-miterlimit="10"/>
<path d="M371 68H376.76" stroke="#005178" stroke-width="3.84" stroke-miterlimit="10"/>
<path d="M386.66 68H421.29" stroke="#005178" stroke-width="3.84" stroke-miterlimit="10"/>
<path d="M426.24 68H432" stroke="#005178" stroke-width="3.84" stroke-miterlimit="10"/>
</g>
<defs>
<clipPath id="clip0_225_158">
<rect width="506" height="130" fill="white"/>
</clipPath>
</defs>
</svg>
