<?xml version="1.0" encoding="UTF-8"?>
<svg id="Layer_1" data-name="Layer 1" xmlns="http://www.w3.org/2000/svg" viewBox="0 0 120 120" width="100%" height="100%">
  <g>
    <circle cx="60" cy="60" r="55.41" style="fill: #fff; stroke: #005178; stroke-miterlimit: 10; stroke-width: 6px;"/>
    <circle cx="60" cy="60" r="48.69" style="fill: #5a97cb; stroke-width: 0px;"/>
  </g>
  <g>
    <g>
      <g>
        <path d="m64.16,37.99h-2.25c1.36.71,2.29,2.13,2.29,3.75,0,2.32-1.91,4.23-4.23,4.23s-4.22-1.91-4.22-4.23c0-1.62.93-3.04,2.28-3.75h-2.23c-.9.99-1.45,2.31-1.45,3.75,0,3.09,2.53,5.62,5.62,5.62s5.62-2.53,5.62-5.62c.03-1.44-.52-2.76-1.43-3.75Z" style="fill: #fff; stroke: #fff; stroke-miterlimit: 10; stroke-width: .5px;"/>
        <path d="m65.8,49.75h-11.65c-2.37,0-4.33,1.96-4.33,4.33v10.62c0,2.01,1.39,3.71,3.3,4.23v11.7c0,1.81,1.44,3.25,3.25,3.25h7.26c1.81,0,3.25-1.44,3.25-3.25v-11.7c1.91-.46,3.3-2.17,3.3-4.23v-10.62c-.05-2.37-2.01-4.33-4.38-4.33Zm2.94,14.95c0,1.34-.93,2.53-2.22,2.89-.62.15-1.03.72-1.03,1.34v11.7c0,1.03-.82,1.86-1.86,1.86h-7.32c-1.03,0-1.85-.83-1.85-1.86v-11.7c0-.62-.42-1.19-1.03-1.34-1.29-.31-2.22-1.5-2.22-2.89v-10.62c0-1.6,1.34-2.94,2.94-2.94h11.65c1.6,0,2.94,1.34,2.94,2.94v10.62Z" style="fill: #fff; stroke: #fff; stroke-miterlimit: 10; stroke-width: .5px;"/>
      </g>
      <line x1="55.75" y1="50.94" x2="55.75" y2="61.39" style="fill: none; stroke: #fff; stroke-linecap: round; stroke-miterlimit: 10;"/>
      <line x1="63.48" y1="50.1" x2="63.48" y2="53.75" style="fill: none; stroke: #fff; stroke-linecap: round; stroke-miterlimit: 10;"/>
      <polyline points="60.41 57.5 60.41 54.27 66.55 54.27 66.55 57.5" style="fill: none; stroke: #fff; stroke-linecap: round; stroke-linejoin: round;"/>
    </g>
    <g>
      <line x1="39.96" y1="47.36" x2="39.96" y2="75.69" style="fill: none; stroke: #fff; stroke-linecap: round; stroke-miterlimit: 10;"/>
      <polyline points="43.34 72.77 39.96 76.15 36.58 72.77" style="fill: none; stroke: #fff; stroke-linecap: round; stroke-linejoin: round;"/>
    </g>
    <g>
      <line x1="80.04" y1="47.36" x2="80.04" y2="75.69" style="fill: none; stroke: #fff; stroke-linecap: round; stroke-miterlimit: 10;"/>
      <polyline points="83.42 72.77 80.04 76.15 76.66 72.77" style="fill: none; stroke: #fff; stroke-linecap: round; stroke-linejoin: round;"/>
    </g>
    <g>
      <line x1="60" y1="36.31" x2="60" y2="33.99" style="fill: none; stroke: #fff; stroke-linecap: round; stroke-linejoin: round; stroke-width: .5px;"/>
      <line x1="61.16" y1="35.15" x2="58.84" y2="35.15" style="fill: none; stroke: #fff; stroke-linecap: round; stroke-linejoin: round; stroke-width: .5px;"/>
    </g>
    <polygon points="64.79 33.76 64.79 37.99 55.21 37.99 55.21 33.76 60 31.47 64.79 33.76" style="fill: none; stroke: #fff; stroke-linecap: round; stroke-linejoin: round; stroke-width: 1.25px;"/>
  </g>
</svg>