<?xml version="1.0" encoding="UTF-8"?>
<svg id="Layer_1" data-name="Layer 1" xmlns="http://www.w3.org/2000/svg" viewBox="0 0 120 120" width="100%" height="100%">
  <circle cx="60" cy="60" r="55.41" style="fill: #fff; stroke: #005178; stroke-miterlimit: 10; stroke-width: 6px;"/>
  <circle cx="60" cy="60" r="48.69" style="fill: #5a97cb; stroke-width: 0px;"/>
  <path d="m47.36,85.32v-7.26h-.69s.03-18.42.03-18.42c-.02-7.43,4.36-14.05,10.41-15.46.68-.16,1.28-.23,1.81-.23-.21-.62-.32-1.28-.32-1.97,0-3.63,3.12-6.57,6.97-6.57s6.98,2.94,6.98,6.57-3.12,6.57-6.98,6.57c-1.17,0-2.27-.27-3.24-.75.84,3.31,2,6.71-.19,9.96l.08.81,6.06,6.2c.94.96.92,2.5-.04,3.44-.96.94-2.5.92-3.44-.04l-3.95-4.04c.04,1.53.23,3.09.51,4.46l1.81,9.32h-1s1.06,6.81,1.06,6.81c.08.49.04.97-.09,1.42h-6.22c-.04-.13-.07-.27-.09-.42l-1.21-7.74-1.77.02v7.33c0,.28-.04.55-.1.81h-6.28c-.07-.26-.1-.53-.1-.81Zm22.83-18.21c-.22-.06-.35-.28-.29-.49.12-.46.07-.96-.2-1.48-.27-.53-.78-1.08-1.57-1.63-.18-.13-.23-.38-.1-.56.13-.18.38-.23.56-.1.87.6,1.48,1.25,1.83,1.92.36.68.44,1.38.27,2.06-.06.22-.28.35-.49.29Zm1.6-1.74c-.03-.81-.44-1.69-1.55-2.6-.17-.14-.2-.4-.06-.57.14-.17.4-.2.57-.06,1.25,1.02,1.8,2.1,1.85,3.19,0,.22-.16.41-.39.42-.22,0-.41-.16-.42-.39Zm-23-18.23c-.19-.11-.26-.36-.14-.56,1.2-2.01,3.17-3.43,5.6-4.44.21-.09.44.01.53.22.09.21-.01.44-.22.53-2.33.97-4.14,2.29-5.22,4.11-.11.19-.36.26-.56.14Zm-.8-2.68c-.18-.14-.21-.39-.07-.57.99-1.28,2.32-2.28,3.9-3.08.2-.1.44-.02.54.18.1.2.02.44-.18.54-1.5.76-2.73,1.69-3.63,2.85-.14.18-.39.21-.57.07Zm24.55-6.81c-1-1.44-2.15-2.46-3.52-2.92-.21-.07-.33-.3-.25-.51.07-.21.3-.33.51-.26,1.59.54,2.87,1.7,3.93,3.22.13.18.08.44-.1.56-.18.13-.44.08-.56-.1Z" marker-end="none" marker-start="none" style="fill: #fff; fill-rule: evenodd; stroke-width: 0px;"/>
</svg>