<?xml version="1.0" encoding="UTF-8"?>
<svg id="Layer_5" data-name="Layer 5" xmlns="http://www.w3.org/2000/svg" viewBox="0 0 137.98 141.69">
  <g>
    <circle cx="72.3" cy="71.27" r="55.41" style="fill: #fff; stroke: #005178; stroke-miterlimit: 10; stroke-width: 6px;"/>
    <circle cx="72.3" cy="71.27" r="48.69" style="fill: #5a97cb; stroke-width: 0px;"/>
  </g>
  <path d="m89.96,37.94c-.34-.77-.84-1.48-1.51-2.08-2.44-2.22-6.15-2.17-8.53.02-.88-.74-1.89-1.31-3-1.68-1.22-3.66-4.67-6.31-8.75-6.31-5.1,0-9.23,4.13-9.23,9.23-5.1,0-9.23,4.13-9.23,9.23s4.13,9.23,9.23,9.23c2.35,0,4.49-.88,6.11-2.33,1.12,2.06,3.34,3.41,5.83,3.29,2.63-.12,4.81-1.84,5.65-4.17,1.06,1.06,2.54,1.7,4.16,1.62,1.64-.08,3.08-.87,4.04-2.06.66.15,1.35.23,2.06.19,4.16-.19,7.37-3.72,7.18-7.88-.13-2.77-1.74-5.11-4.02-6.32Z" style="fill: none; stroke: #fff; stroke-miterlimit: 10;"/>
  <path d="m77.69,99.37c4.24-.17,8.47-.52,12.67-1.03l3.5.94c1.35.34,2.76,0,3.77-1.01s1.42-2.43,1.01-3.77l-.88-3.37c1.28-6.67,1.28-13.75-.13-20.89l1.01-3.84c.34-1.35,0-2.76-1.01-3.77-.94-1.01-2.36-1.42-3.71-1.01h0s-4.18,1.15-4.18,1.15c-11.73-1.35-23.86-1.35-35.65,0l-4.25-1.15c-1.35-.34-2.76,0-3.77,1.01s-1.42,2.43-1.01,3.77l.94,3.57c-1.35,6.74-1.28,13.75.07,20.82l-1.01,3.71c-.34,1.35,0,2.76,1.01,3.77s2.43,1.35,3.77,1.01l3.44-.94c3.36.41,6.73.71,10.12.9" style="fill: none; stroke: #fff; stroke-miterlimit: 10;"/>
  <g>
    <path d="m61.9,106.99l1.92-7.54c.56-4.11-.79-7.69-3.43-10.7-5.8-6.62-3.95-16.77,4.21-20.95,8.1-4.15,18.77.13,19.84,8.9.24,1.99,1.3,3.54,2.14,5.22.36.73.77,1.48,1.32,2.08,1.04,1.13.26,2.11-.56,2.3-3.02.68-2.68,2.87-2.62,5.04.02.69-.03,1.44-.27,2.08-.91,2.45-3,2.76-5.21,2.6-1.45-.1-2.11.33-1.85,1.86.09.51.01,1.04.01,1.57,0,0-.5,4.59.99,7.07" style="fill: none; stroke: #fff; stroke-miterlimit: 10; stroke-width: 1.05px;"/>
    <path d="m80.32,79.51c-1.39.62-2.72-.59-3.82-1.29,1.39.22,2.36,1.34,3.82,1.29h0Z" style="fill: #fff; stroke-width: 0px;"/>
  </g>
  <path d="m78.49,46.43c-1.28-1.18-2.92-3.15-4.03-4.96.94-.83,1.48-2.09,1.3-3.48-.23-1.78-1.68-3.2-3.46-3.4-2.38-.27-4.4,1.59-4.4,3.92,0,1.07.43,2.05,1.12,2.76-.81,2.41-2.54,4.24-3.79,5.31-.69.6-.88,1.62-.38,2.38.14.21.31.36.55.36.8,0,.8-1.66,1.6-1.66s.8,1.66,1.6,1.66.8-1.66,1.6-1.66.8,1.66,1.6,1.66h.13c.8,0,.8-1.66,1.6-1.66s.8,1.66,1.6,1.66.8-1.66,1.6-1.66.8,1.66,1.6,1.66c.24,0,.41-.15.55-.36.53-.8.36-1.88-.35-2.54Zm-7.2-8.11c-.05.09-.11.19-.16.28-.11.18-.22.36-.35.48-.16.14-.34.2-.52.22-.24.03-.5,0-.7-.25-.13-.16-.22-.41-.28-.67-.05-.26-.07-.55-.08-.83,0-.38.02-.77.16-1.07.05-.11.12-.2.19-.24.02-.01.05-.02.07,0,.01.02.02.04.03.07.04.14.1.25.16.35.01.02.03.04.04.06.26.4.56.72.88.96.12.09.23.16.35.23.06.03.12.06.18.09.06.02.12.04.18.07-.06.06-.11.16-.16.24Zm3.14.06c-.05.26-.15.51-.28.67-.2.25-.46.28-.7.25-.18-.02-.36-.08-.52-.22-.13-.12-.25-.3-.35-.48-.05-.09-.11-.19-.16-.28-.05-.08-.1-.18-.16-.24.06-.03.12-.04.18-.07.06-.03.12-.05.18-.09.12-.06.24-.14.35-.23.32-.24.62-.56.88-.96.01-.02.03-.04.04-.06.06-.1.12-.22.16-.35,0-.03.01-.05.03-.07.02-.03.05-.02.07,0,.08.04.14.13.19.24.14.29.16.69.16,1.07,0,.28-.02.56-.08.83Z" style="fill: #fff; stroke-width: 0px;"/>
  <ellipse cx="74.87" cy="59.03" rx="2.21" ry="1.4" style="fill: none; stroke: #fff; stroke-miterlimit: 10; stroke-width: .2px;"/>
  <circle cx="71.31" cy="68.93" r="1.65" style="fill: none; stroke: #fff; stroke-miterlimit: 10; stroke-width: .2px;"/>
  <circle cx="74.1" cy="63.76" r="1.53" style="fill: none; stroke: #fff; stroke-miterlimit: 10; stroke-width: .17px;"/>
</svg>