<?xml version="1.0" encoding="UTF-8"?>
<svg id="Layer_1" data-name="Layer 1" xmlns="http://www.w3.org/2000/svg" viewBox="0 0 120 120" width="100%" height="100%">
  <g>
    <circle cx="60" cy="60" r="55.41" style="fill: #fff; stroke: #005178; stroke-miterlimit: 10; stroke-width: 6px;"/>
    <circle cx="60" cy="60" r="48.69" style="fill: #5a97cb; stroke-width: 0px;"/>
    <circle cx="60" cy="60" r="55.41" style="fill: #fff; stroke: #005178; stroke-miterlimit: 10; stroke-width: 6px;"/>
    <circle cx="60" cy="60" r="48.69" style="fill: #5a97cb; stroke-width: 0px;"/>
  </g>
  <g>
    <path d="m40.78,61.63s-2.75-1.93-1.35-5.24c0,0-4.99-.92-4.99-6.53s4.51-8.23,7.68-7.8c0,0,1.28-2.32,3.29-3.11,2.01-.79,4.21.18,4.21.18,0,0,2.01-2.74,5.12-3.35,3.11-.61,6.22.79,6.22.79,0,0,4.02-3.04,8.35.32" style="fill: none; stroke: #fff; stroke-linecap: round; stroke-linejoin: round; stroke-width: 2px;"/>
    <path d="m34.44,49.87s-4.74,3.75-2.82,9.92c1.92,6.17,6.4,7.91,14.72,7.5" style="fill: none; stroke: #fff; stroke-linecap: round; stroke-linejoin: round; stroke-width: 2px;"/>
    <path d="m52.92,56s5.03,2.88,2.15,8.78" style="fill: none; stroke: #fff; stroke-linecap: round; stroke-linejoin: round; stroke-width: 2px;"/>
    <path d="m64.26,69.3s6.63,4.8,11.7-2.15" style="fill: none; stroke: #fff; stroke-linecap: round; stroke-linejoin: round; stroke-width: 2px;"/>
    <path d="m72.21,45.44s9.14.14,8.73,8.59" style="fill: none; stroke: #fff; stroke-linecap: round; stroke-linejoin: round; stroke-width: 2px;"/>
    <path d="m58.45,44.48s6.99-.41,6.72,6.76" style="fill: none; stroke: #fff; stroke-linecap: round; stroke-linejoin: round; stroke-width: 2px;"/>
    <path d="m50.73,43.15s-.41,4.34,4.66,5.21" style="fill: none; stroke: #fff; stroke-linecap: round; stroke-linejoin: round; stroke-width: 2px;"/>
    <path d="m40.53,49.1s6.86,3.47,10.97-2.88" style="fill: none; stroke: #fff; stroke-linecap: round; stroke-linejoin: round; stroke-width: 2px;"/>
    <path d="m57.45,51.02s.14,8,9.42,8c7.95,0,8.23-8.23,8.23-8.23" style="fill: none; stroke: #fff; stroke-linecap: round; stroke-linejoin: round; stroke-width: 2px;"/>
    <path d="m61.89,58.01s4.54,3.35,3.75,6.55" style="fill: none; stroke: #fff; stroke-linecap: round; stroke-linejoin: round; stroke-width: 2px;"/>
    <path d="m50.09,60.39s-3.61,1.69-3.61,6.35,5.12,7.5,9.32,7.45c2.29-.02,11.88,1.74,11.88,11.61" style="fill: none; stroke: #fff; stroke-linecap: round; stroke-linejoin: round; stroke-width: 2px;"/>
    <path d="m73.21,85.48l-.78-6.54s10.56,2.42,12.52-8.46c1.97-10.88-8.64-11.2-8.64-11.2" style="fill: none; stroke: #fff; stroke-linecap: round; stroke-linejoin: round; stroke-width: 2px;"/>
    <path d="m85.24,68.2s8.41-2.97,4.21-10.33c0,0,1.55-3.84.5-5.9-1.05-2.06-3.93-3.61-3.93-3.61,0,0,.05-3.38-1.83-5.12-1.87-1.74-3.66-2.29-6.44-2.7,0,0-1.23-4.57-6.54-4.11-5.3.46-5.35,6.72-5.35,6.72" style="fill: none; stroke: #fff; stroke-linecap: round; stroke-linejoin: round; stroke-width: 2px;"/>
  </g>
</svg>