<svg width="417" height="187" viewBox="0 0 417 187" fill="none" xmlns="http://www.w3.org/2000/svg">
<g clip-path="url(#clip0_225_159)">
<path d="M110.594 26.4796C109.794 26.4796 109.029 26.4496 108.299 26.3896C107.579 26.3396 106.929 26.2646 106.349 26.1646V24.3796H109.754C110.164 24.3796 110.499 24.3496 110.759 24.2896C111.019 24.2296 111.209 24.1246 111.329 23.9746C111.459 23.8246 111.524 23.6146 111.524 23.3446V22.8796C111.524 22.6096 111.459 22.3996 111.329 22.2496C111.199 22.0896 111.024 21.9746 110.804 21.9046C110.594 21.8246 110.349 21.7796 110.069 21.7696L107.339 21.6646V19.9546L109.979 19.8046C110.429 19.7846 110.779 19.7046 111.029 19.5646C111.279 19.4246 111.404 19.1846 111.404 18.8446V18.4696C111.404 18.0696 111.269 17.7746 110.999 17.5846C110.739 17.3946 110.299 17.2996 109.679 17.2996H106.589V15.5296C107.159 15.4396 107.779 15.3596 108.449 15.2896C109.119 15.2096 109.824 15.1796 110.564 15.1996C111.214 15.2096 111.764 15.3196 112.214 15.5296C112.664 15.7296 113.004 16.0346 113.234 16.4446C113.474 16.8446 113.594 17.3446 113.594 17.9446V18.7696C113.594 19.0496 113.559 19.3046 113.489 19.5346C113.429 19.7646 113.334 19.9646 113.204 20.1346C113.074 20.2946 112.924 20.4346 112.754 20.5546C112.584 20.6646 112.404 20.7496 112.214 20.8096C112.424 20.8596 112.619 20.9546 112.799 21.0946C112.989 21.2346 113.154 21.4046 113.294 21.6046C113.434 21.7946 113.544 22.0246 113.624 22.2946C113.714 22.5646 113.759 22.8596 113.759 23.1796V23.7496C113.759 24.6396 113.479 25.3196 112.919 25.7896C112.359 26.2496 111.584 26.4796 110.594 26.4796ZM116.896 26.3896V17.3146L114.931 17.5696V16.1446L117.136 15.1846H119.116V26.3896H116.896ZM121.157 26.4046C120.957 26.4046 120.857 26.3046 120.857 26.1046V24.5746C120.857 24.3646 120.957 24.2596 121.157 24.2596H122.447C122.667 24.2596 122.777 24.3646 122.777 24.5746V26.1046C122.777 26.2246 122.742 26.3046 122.672 26.3446C122.612 26.3846 122.537 26.4046 122.447 26.4046H121.157ZM129.188 26.3746V24.0346H124.328L123.908 22.9846L127.508 15.2896H129.773L126.548 22.1446H129.188V19.9846L129.623 18.7096H131.408V22.1446H132.548V23.6746L131.408 24.0346V26.3746H129.188ZM135.925 26.3896L142.675 15.4096H144.115L137.455 26.3896H135.925ZM135.355 21.1546C134.625 21.1546 134.105 20.9846 133.795 20.6446C133.495 20.3046 133.345 19.8146 133.345 19.1746V17.3896C133.345 16.7496 133.495 16.2596 133.795 15.9196C134.095 15.5796 134.625 15.4096 135.385 15.4096H136.9C137.64 15.4096 138.16 15.5796 138.46 15.9196C138.76 16.2596 138.91 16.7496 138.91 17.3896V19.1746C138.91 19.8146 138.76 20.3046 138.46 20.6446C138.16 20.9846 137.63 21.1546 136.87 21.1546H135.355ZM135.625 19.7146H136.6C136.94 19.7146 137.17 19.6446 137.29 19.5046C137.42 19.3546 137.485 19.1346 137.485 18.8446V17.7196C137.485 17.3796 137.42 17.1496 137.29 17.0296C137.16 16.9096 136.94 16.8496 136.63 16.8496H135.655C135.385 16.8496 135.17 16.9046 135.01 17.0146C134.86 17.1146 134.785 17.3496 134.785 17.7196V18.8446C134.785 19.1346 134.84 19.3546 134.95 19.5046C135.07 19.6446 135.295 19.7146 135.625 19.7146ZM143.26 26.3446C142.53 26.3446 142.015 26.1746 141.715 25.8346C141.415 25.4946 141.265 25.0046 141.265 24.3646V22.5796C141.265 21.9396 141.41 21.4496 141.7 21.1096C142 20.7696 142.53 20.5996 143.29 20.5996H144.82C145.56 20.5996 146.08 20.7696 146.38 21.1096C146.68 21.4496 146.83 21.9396 146.83 22.5796V24.3646C146.83 25.0046 146.68 25.4946 146.38 25.8346C146.08 26.1746 145.55 26.3446 144.79 26.3446H143.26ZM143.545 24.9046H144.505C144.855 24.9046 145.09 24.8346 145.21 24.6946C145.34 24.5446 145.405 24.3246 145.405 24.0346V22.9096C145.405 22.5696 145.335 22.3396 145.195 22.2196C145.065 22.0996 144.845 22.0396 144.535 22.0396H143.575C143.305 22.0396 143.09 22.0946 142.93 22.2046C142.77 22.3046 142.69 22.5396 142.69 22.9096V24.0346C142.69 24.3246 142.745 24.5446 142.855 24.6946C142.975 24.8346 143.205 24.9046 143.545 24.9046Z" fill="#005178"/>
<path d="M259.35 51.3896V49.6046L263.055 45.9296C263.355 45.6396 263.6 45.3696 263.79 45.1196C263.98 44.8696 264.12 44.6246 264.21 44.3846C264.31 44.1346 264.36 43.8696 264.36 43.5896C264.36 43.3196 264.305 43.0896 264.195 42.8996C264.095 42.6996 263.925 42.5496 263.685 42.4496C263.455 42.3496 263.135 42.2996 262.725 42.2996H259.605V40.5596C260.085 40.4696 260.615 40.3896 261.195 40.3196C261.785 40.2396 262.44 40.1996 263.16 40.1996C264.03 40.1996 264.71 40.3196 265.2 40.5596C265.7 40.7996 266.055 41.1446 266.265 41.5946C266.475 42.0446 266.58 42.5896 266.58 43.2296C266.58 43.7296 266.51 44.1846 266.37 44.5946C266.24 45.0046 266.045 45.3996 265.785 45.7796C265.525 46.1496 265.195 46.5246 264.795 46.9046L262.305 49.3796H266.925V51.3896H259.35ZM272.264 51.4796C271.464 51.4796 270.699 51.4496 269.969 51.3896C269.249 51.3396 268.599 51.2646 268.019 51.1646V49.3796H271.424C271.834 49.3796 272.169 49.3496 272.429 49.2896C272.689 49.2296 272.879 49.1246 272.999 48.9746C273.129 48.8246 273.194 48.6146 273.194 48.3446V47.8796C273.194 47.6096 273.129 47.3996 272.999 47.2496C272.869 47.0896 272.694 46.9746 272.474 46.9046C272.264 46.8246 272.019 46.7796 271.739 46.7696L269.009 46.6646V44.9546L271.649 44.8046C272.099 44.7846 272.449 44.7046 272.699 44.5646C272.949 44.4246 273.074 44.1846 273.074 43.8446V43.4696C273.074 43.0696 272.939 42.7746 272.669 42.5846C272.409 42.3946 271.969 42.2996 271.349 42.2996H268.259V40.5296C268.829 40.4396 269.449 40.3596 270.119 40.2896C270.789 40.2096 271.494 40.1796 272.234 40.1996C272.884 40.2096 273.434 40.3196 273.884 40.5296C274.334 40.7296 274.674 41.0346 274.904 41.4446C275.144 41.8446 275.264 42.3446 275.264 42.9446V43.7696C275.264 44.0496 275.229 44.3046 275.159 44.5346C275.099 44.7646 275.004 44.9646 274.874 45.1346C274.744 45.2946 274.594 45.4346 274.424 45.5546C274.254 45.6646 274.074 45.7496 273.884 45.8096C274.094 45.8596 274.289 45.9546 274.469 46.0946C274.659 46.2346 274.824 46.4046 274.964 46.6046C275.104 46.7946 275.214 47.0246 275.294 47.2946C275.384 47.5646 275.429 47.8596 275.429 48.1796V48.7496C275.429 49.6396 275.149 50.3196 274.589 50.7896C274.029 51.2496 273.254 51.4796 272.264 51.4796ZM277.246 51.4046C277.046 51.4046 276.946 51.3046 276.946 51.1046V49.5746C276.946 49.3646 277.046 49.2596 277.246 49.2596H278.536C278.756 49.2596 278.866 49.3646 278.866 49.5746V51.1046C278.866 51.2246 278.831 51.3046 278.761 51.3446C278.701 51.3846 278.626 51.4046 278.536 51.4046H277.246ZM281.421 51.3896L284.721 42.5096H279.996V40.2896H287.001L287.586 41.2346L283.911 51.3896H281.421ZM291.032 51.3896L297.782 40.4096H299.222L292.562 51.3896H291.032ZM290.462 46.1546C289.732 46.1546 289.212 45.9846 288.902 45.6446C288.602 45.3046 288.452 44.8146 288.452 44.1746V42.3896C288.452 41.7496 288.602 41.2596 288.902 40.9196C289.202 40.5796 289.732 40.4096 290.492 40.4096H292.007C292.747 40.4096 293.267 40.5796 293.567 40.9196C293.867 41.2596 294.017 41.7496 294.017 42.3896V44.1746C294.017 44.8146 293.867 45.3046 293.567 45.6446C293.267 45.9846 292.737 46.1546 291.977 46.1546H290.462ZM290.732 44.7146H291.707C292.047 44.7146 292.277 44.6446 292.397 44.5046C292.527 44.3546 292.592 44.1346 292.592 43.8446V42.7196C292.592 42.3796 292.527 42.1496 292.397 42.0296C292.267 41.9096 292.047 41.8496 291.737 41.8496H290.762C290.492 41.8496 290.277 41.9046 290.117 42.0146C289.967 42.1146 289.892 42.3496 289.892 42.7196V43.8446C289.892 44.1346 289.947 44.3546 290.057 44.5046C290.177 44.6446 290.402 44.7146 290.732 44.7146ZM298.367 51.3446C297.637 51.3446 297.122 51.1746 296.822 50.8346C296.522 50.4946 296.372 50.0046 296.372 49.3646V47.5796C296.372 46.9396 296.517 46.4496 296.807 46.1096C297.107 45.7696 297.637 45.5996 298.397 45.5996H299.927C300.667 45.5996 301.187 45.7696 301.487 46.1096C301.787 46.4496 301.937 46.9396 301.937 47.5796V49.3646C301.937 50.0046 301.787 50.4946 301.487 50.8346C301.187 51.1746 300.657 51.3446 299.897 51.3446H298.367ZM298.652 49.9046H299.612C299.962 49.9046 300.197 49.8346 300.317 49.6946C300.447 49.5446 300.512 49.3246 300.512 49.0346V47.9096C300.512 47.5696 300.442 47.3396 300.302 47.2196C300.172 47.0996 299.952 47.0396 299.642 47.0396H298.682C298.412 47.0396 298.197 47.0946 298.037 47.2046C297.877 47.3046 297.797 47.5396 297.797 47.9096V49.0346C297.797 49.3246 297.852 49.5446 297.962 49.6946C298.082 49.8346 298.312 49.9046 298.652 49.9046Z" fill="#397099"/>
<path d="M79.5164 160.22C79.0284 160.22 78.5724 160.18 78.1484 160.1C77.7244 160.012 77.3524 159.864 77.0324 159.656C76.7204 159.44 76.4764 159.144 76.3004 158.768C76.1324 158.384 76.0484 157.896 76.0484 157.304V151.28H77.8244V157.292C77.8244 157.62 77.8884 157.88 78.0164 158.072C78.1524 158.264 78.3444 158.404 78.5924 158.492C78.8484 158.58 79.1564 158.624 79.5164 158.624C79.8684 158.624 80.1684 158.58 80.4164 158.492C80.6724 158.404 80.8644 158.264 80.9924 158.072C81.1284 157.88 81.1964 157.62 81.1964 157.292V151.28H82.9844V157.304C82.9844 157.896 82.8964 158.384 82.7204 158.768C82.5444 159.144 82.3004 159.44 81.9884 159.656C81.6764 159.864 81.3084 160.012 80.8844 160.1C80.4684 160.18 80.0124 160.22 79.5164 160.22ZM84.311 160.16V153.716H85.775L86.087 154.376C86.327 154.176 86.627 154 86.987 153.848C87.355 153.688 87.731 153.608 88.115 153.608C88.643 153.608 89.051 153.712 89.339 153.92C89.627 154.128 89.827 154.408 89.939 154.76C90.059 155.104 90.119 155.488 90.119 155.912V160.16H88.343V156.14C88.343 155.932 88.303 155.76 88.223 155.624C88.151 155.488 88.047 155.384 87.911 155.312C87.775 155.24 87.611 155.204 87.419 155.204C87.251 155.204 87.087 155.224 86.927 155.264C86.775 155.304 86.627 155.36 86.483 155.432C86.347 155.504 86.215 155.588 86.087 155.684V160.16H84.311ZM94.1597 160.22C93.4477 160.22 92.8797 160.128 92.4557 159.944C92.0317 159.752 91.7237 159.416 91.5317 158.936C91.3477 158.456 91.2557 157.792 91.2557 156.944C91.2557 156.072 91.3437 155.396 91.5197 154.916C91.6957 154.436 91.9917 154.1 92.4077 153.908C92.8237 153.716 93.3877 153.62 94.0997 153.62C94.7397 153.62 95.2517 153.684 95.6357 153.812C96.0197 153.94 96.2957 154.164 96.4637 154.484C96.6397 154.804 96.7277 155.256 96.7277 155.84C96.7277 156.272 96.6397 156.616 96.4637 156.872C96.2957 157.12 96.0557 157.3 95.7437 157.412C95.4317 157.516 95.0637 157.568 94.6397 157.568H93.0197C93.0357 157.896 93.0837 158.16 93.1637 158.36C93.2517 158.552 93.4077 158.692 93.6317 158.78C93.8637 158.86 94.1957 158.9 94.6277 158.9H96.5117V159.944C96.1997 160.008 95.8557 160.072 95.4797 160.136C95.1117 160.192 94.6717 160.22 94.1597 160.22ZM92.9957 156.512H94.4597C94.6997 156.512 94.8757 156.464 94.9877 156.368C95.0997 156.272 95.1557 156.1 95.1557 155.852C95.1557 155.62 95.1197 155.436 95.0477 155.3C94.9757 155.156 94.8637 155.056 94.7117 155C94.5597 154.936 94.3557 154.904 94.0997 154.904C93.8277 154.904 93.6117 154.952 93.4517 155.048C93.2917 155.136 93.1757 155.296 93.1037 155.528C93.0317 155.76 92.9957 156.088 92.9957 156.512ZM101.571 160.16L97.0826 153.716H98.8706L103.371 160.16H101.571ZM97.0826 160.16L99.5666 156.38L100.215 158.048L98.8826 160.16H97.0826ZM100.875 157.52L100.119 156.032L101.571 153.716H103.371L100.875 157.52ZM104.151 163.004V153.716H105.639L105.927 154.328C106.079 154.208 106.247 154.096 106.431 153.992C106.615 153.88 106.815 153.792 107.031 153.728C107.247 153.656 107.475 153.62 107.715 153.62C108.107 153.62 108.447 153.696 108.735 153.848C109.031 154 109.271 154.22 109.455 154.508C109.639 154.796 109.775 155.148 109.863 155.564C109.951 155.972 109.995 156.432 109.995 156.944C109.995 157.632 109.927 158.224 109.791 158.72C109.655 159.216 109.419 159.596 109.083 159.86C108.755 160.116 108.299 160.244 107.715 160.244C107.411 160.244 107.099 160.208 106.779 160.136C106.467 160.064 106.183 159.96 105.927 159.824V163.004H104.151ZM107.139 158.78C107.323 158.78 107.499 158.732 107.667 158.636C107.835 158.532 107.967 158.348 108.063 158.084C108.167 157.82 108.219 157.44 108.219 156.944C108.219 156.464 108.171 156.088 108.075 155.816C107.987 155.536 107.863 155.34 107.703 155.228C107.543 155.108 107.355 155.048 107.139 155.048C106.891 155.048 106.663 155.088 106.455 155.168C106.247 155.248 106.071 155.328 105.927 155.408V158.468C106.087 158.564 106.275 158.64 106.491 158.696C106.707 158.752 106.923 158.78 107.139 158.78ZM113.882 160.22C113.17 160.22 112.602 160.128 112.178 159.944C111.754 159.752 111.446 159.416 111.254 158.936C111.07 158.456 110.978 157.792 110.978 156.944C110.978 156.072 111.066 155.396 111.242 154.916C111.418 154.436 111.714 154.1 112.13 153.908C112.546 153.716 113.11 153.62 113.822 153.62C114.462 153.62 114.974 153.684 115.358 153.812C115.742 153.94 116.018 154.164 116.186 154.484C116.362 154.804 116.45 155.256 116.45 155.84C116.45 156.272 116.362 156.616 116.186 156.872C116.018 157.12 115.778 157.3 115.466 157.412C115.154 157.516 114.786 157.568 114.362 157.568H112.742C112.758 157.896 112.806 158.16 112.886 158.36C112.974 158.552 113.13 158.692 113.354 158.78C113.586 158.86 113.918 158.9 114.35 158.9H116.234V159.944C115.922 160.008 115.578 160.072 115.202 160.136C114.834 160.192 114.394 160.22 113.882 160.22ZM112.718 156.512H114.182C114.422 156.512 114.598 156.464 114.71 156.368C114.822 156.272 114.878 156.1 114.878 155.852C114.878 155.62 114.842 155.436 114.77 155.3C114.698 155.156 114.586 155.056 114.434 155C114.282 154.936 114.078 154.904 113.822 154.904C113.55 154.904 113.334 154.952 113.174 155.048C113.014 155.136 112.898 155.296 112.826 155.528C112.754 155.76 112.718 156.088 112.718 156.512ZM120.124 160.232C119.732 160.232 119.368 160.18 119.032 160.076C118.704 159.972 118.42 159.8 118.18 159.56C117.94 159.312 117.752 158.98 117.616 158.564C117.488 158.14 117.424 157.608 117.424 156.968C117.424 156.312 117.484 155.768 117.604 155.336C117.724 154.904 117.9 154.564 118.132 154.316C118.372 154.06 118.664 153.88 119.008 153.776C119.352 153.672 119.74 153.62 120.172 153.62C120.564 153.62 120.936 153.644 121.288 153.692C121.648 153.732 122.024 153.808 122.416 153.92V154.94H120.724C120.356 154.94 120.06 154.996 119.836 155.108C119.612 155.212 119.448 155.412 119.344 155.708C119.248 155.996 119.2 156.412 119.2 156.956C119.2 157.492 119.248 157.9 119.344 158.18C119.448 158.46 119.612 158.648 119.836 158.744C120.068 158.84 120.372 158.888 120.748 158.888H122.512V159.896C122.312 159.96 122.08 160.02 121.816 160.076C121.552 160.124 121.272 160.16 120.976 160.184C120.688 160.216 120.404 160.232 120.124 160.232ZM125.946 160.16C125.45 160.16 125.046 160.088 124.734 159.944C124.43 159.8 124.21 159.56 124.074 159.224C123.938 158.888 123.878 158.436 123.894 157.868L123.954 155.144H122.946V154.004L124.014 153.716L124.254 151.916H125.658V153.716H127.17V155.144H125.658V157.856C125.658 158.032 125.674 158.176 125.706 158.288C125.738 158.4 125.782 158.492 125.838 158.564C125.902 158.628 125.974 158.676 126.054 158.708C126.134 158.74 126.214 158.76 126.294 158.768L127.11 158.84V160.16H125.946ZM130.875 160.22C130.163 160.22 129.595 160.128 129.171 159.944C128.747 159.752 128.439 159.416 128.247 158.936C128.063 158.456 127.971 157.792 127.971 156.944C127.971 156.072 128.059 155.396 128.235 154.916C128.411 154.436 128.707 154.1 129.123 153.908C129.539 153.716 130.103 153.62 130.815 153.62C131.455 153.62 131.967 153.684 132.351 153.812C132.735 153.94 133.011 154.164 133.179 154.484C133.355 154.804 133.443 155.256 133.443 155.84C133.443 156.272 133.355 156.616 133.179 156.872C133.011 157.12 132.771 157.3 132.459 157.412C132.147 157.516 131.779 157.568 131.355 157.568H129.735C129.751 157.896 129.799 158.16 129.879 158.36C129.967 158.552 130.123 158.692 130.347 158.78C130.579 158.86 130.911 158.9 131.343 158.9H133.227V159.944C132.915 160.008 132.571 160.072 132.195 160.136C131.827 160.192 131.387 160.22 130.875 160.22ZM129.711 156.512H131.175C131.415 156.512 131.591 156.464 131.703 156.368C131.815 156.272 131.871 156.1 131.871 155.852C131.871 155.62 131.835 155.436 131.763 155.3C131.691 155.156 131.579 155.056 131.427 155C131.275 154.936 131.071 154.904 130.815 154.904C130.543 154.904 130.327 154.952 130.167 155.048C130.007 155.136 129.891 155.296 129.819 155.528C129.747 155.76 129.711 156.088 129.711 156.512ZM136.72 160.232C136.216 160.232 135.792 160.128 135.448 159.92C135.104 159.704 134.844 159.36 134.668 158.888C134.5 158.408 134.416 157.78 134.416 157.004C134.416 156.204 134.488 155.556 134.632 155.06C134.784 154.564 135.036 154.2 135.388 153.968C135.74 153.736 136.224 153.62 136.84 153.62C137.136 153.62 137.428 153.652 137.716 153.716C138.004 153.772 138.26 153.84 138.484 153.92V151.004H140.272V160.16H138.772L138.484 159.548C138.348 159.676 138.18 159.792 137.98 159.896C137.788 160 137.584 160.084 137.368 160.148C137.152 160.204 136.936 160.232 136.72 160.232ZM137.344 158.804C137.584 158.804 137.8 158.764 137.992 158.684C138.192 158.604 138.356 158.524 138.484 158.444V155.204C138.324 155.148 138.156 155.092 137.98 155.036C137.804 154.98 137.616 154.952 137.416 154.952C137.12 154.952 136.88 155.004 136.696 155.108C136.52 155.212 136.392 155.408 136.312 155.696C136.232 155.976 136.192 156.384 136.192 156.92C136.192 157.416 136.228 157.804 136.3 158.084C136.38 158.356 136.504 158.544 136.672 158.648C136.84 158.752 137.064 158.804 137.344 158.804ZM146.81 160.232C146.306 160.232 145.882 160.128 145.538 159.92C145.194 159.704 144.934 159.36 144.758 158.888C144.59 158.408 144.506 157.78 144.506 157.004C144.506 156.204 144.578 155.556 144.722 155.06C144.874 154.564 145.126 154.2 145.478 153.968C145.83 153.736 146.314 153.62 146.93 153.62C147.226 153.62 147.518 153.652 147.806 153.716C148.094 153.772 148.35 153.84 148.574 153.92V151.004H150.362V160.16H148.862L148.574 159.548C148.438 159.676 148.27 159.792 148.07 159.896C147.878 160 147.674 160.084 147.458 160.148C147.242 160.204 147.026 160.232 146.81 160.232ZM147.434 158.804C147.674 158.804 147.89 158.764 148.082 158.684C148.282 158.604 148.446 158.524 148.574 158.444V155.204C148.414 155.148 148.246 155.092 148.07 155.036C147.894 154.98 147.706 154.952 147.506 154.952C147.21 154.952 146.97 155.004 146.786 155.108C146.61 155.212 146.482 155.408 146.402 155.696C146.322 155.976 146.282 156.384 146.282 156.92C146.282 157.416 146.318 157.804 146.39 158.084C146.47 158.356 146.594 158.544 146.762 158.648C146.93 158.752 147.154 158.804 147.434 158.804ZM154.406 160.22C153.694 160.22 153.126 160.128 152.702 159.944C152.278 159.752 151.97 159.416 151.778 158.936C151.594 158.456 151.502 157.792 151.502 156.944C151.502 156.072 151.59 155.396 151.766 154.916C151.942 154.436 152.238 154.1 152.654 153.908C153.07 153.716 153.634 153.62 154.346 153.62C154.986 153.62 155.498 153.684 155.882 153.812C156.266 153.94 156.542 154.164 156.71 154.484C156.886 154.804 156.974 155.256 156.974 155.84C156.974 156.272 156.886 156.616 156.71 156.872C156.542 157.12 156.302 157.3 155.99 157.412C155.678 157.516 155.31 157.568 154.886 157.568H153.266C153.282 157.896 153.33 158.16 153.41 158.36C153.498 158.552 153.654 158.692 153.878 158.78C154.11 158.86 154.442 158.9 154.874 158.9H156.758V159.944C156.446 160.008 156.102 160.072 155.726 160.136C155.358 160.192 154.918 160.22 154.406 160.22ZM153.242 156.512H154.706C154.946 156.512 155.122 156.464 155.234 156.368C155.346 156.272 155.402 156.1 155.402 155.852C155.402 155.62 155.366 155.436 155.294 155.3C155.222 155.156 155.11 155.056 154.958 155C154.806 154.936 154.602 154.904 154.346 154.904C154.074 154.904 153.858 154.952 153.698 155.048C153.538 155.136 153.422 155.296 153.35 155.528C153.278 155.76 153.242 156.088 153.242 156.512ZM159.507 160.232C159.019 160.232 158.623 160.088 158.319 159.8C158.015 159.512 157.863 159.112 157.863 158.6V158.024C157.863 157.536 158.035 157.136 158.379 156.824C158.723 156.504 159.259 156.344 159.987 156.344H161.631V155.9C161.631 155.7 161.595 155.536 161.523 155.408C161.451 155.272 161.315 155.176 161.115 155.12C160.923 155.056 160.627 155.024 160.227 155.024H158.295V153.992C158.607 153.896 158.967 153.812 159.375 153.74C159.791 153.668 160.291 153.632 160.875 153.632C161.411 153.632 161.867 153.696 162.243 153.824C162.627 153.952 162.915 154.172 163.107 154.484C163.307 154.796 163.407 155.228 163.407 155.78V160.16H162.003L161.715 159.476C161.659 159.54 161.563 159.612 161.427 159.692C161.291 159.772 161.123 159.856 160.923 159.944C160.731 160.024 160.511 160.092 160.263 160.148C160.023 160.204 159.771 160.232 159.507 160.232ZM160.407 158.996C160.487 158.996 160.575 158.988 160.671 158.972C160.775 158.948 160.879 158.924 160.983 158.9C161.095 158.868 161.195 158.84 161.283 158.816C161.379 158.784 161.455 158.756 161.511 158.732C161.575 158.708 161.615 158.692 161.631 158.684V157.184L160.551 157.256C160.239 157.28 160.007 157.36 159.855 157.496C159.711 157.632 159.639 157.816 159.639 158.048V158.312C159.639 158.472 159.671 158.604 159.735 158.708C159.807 158.812 159.899 158.888 160.011 158.936C160.131 158.976 160.263 158.996 160.407 158.996ZM167.185 160.16C166.689 160.16 166.285 160.088 165.973 159.944C165.669 159.8 165.449 159.56 165.313 159.224C165.177 158.888 165.117 158.436 165.133 157.868L165.193 155.144H164.185V154.004L165.253 153.716L165.493 151.916H166.897V153.716H168.409V155.144H166.897V157.856C166.897 158.032 166.913 158.176 166.945 158.288C166.977 158.4 167.021 158.492 167.077 158.564C167.141 158.628 167.213 158.676 167.293 158.708C167.373 158.74 167.453 158.76 167.533 158.768L168.349 158.84V160.16H167.185ZM169.401 160.16V151.016H171.177V154.376C171.409 154.184 171.709 154.008 172.077 153.848C172.453 153.688 172.837 153.608 173.229 153.608C173.717 153.608 174.105 153.704 174.393 153.896C174.681 154.088 174.889 154.356 175.017 154.7C175.145 155.044 175.209 155.444 175.209 155.9V160.16H173.433V156.128C173.433 155.92 173.393 155.748 173.313 155.612C173.233 155.476 173.125 155.376 172.989 155.312C172.853 155.24 172.693 155.204 172.509 155.204C172.341 155.204 172.177 155.228 172.017 155.276C171.865 155.316 171.717 155.372 171.573 155.444C171.437 155.516 171.305 155.596 171.177 155.684V160.16H169.401Z" fill="#005178"/>
<path d="M89.8952 174.621C89.3672 174.621 88.9152 174.569 88.5392 174.465C88.1632 174.353 87.8552 174.169 87.6152 173.913C87.3832 173.657 87.2112 173.317 87.0992 172.893C86.9952 172.469 86.9432 171.945 86.9432 171.321C86.9432 170.665 86.9952 170.125 87.0992 169.701C87.2112 169.269 87.3832 168.933 87.6152 168.693C87.8552 168.445 88.1632 168.273 88.5392 168.177C88.9232 168.073 89.3752 168.021 89.8952 168.021C90.4312 168.021 90.8872 168.073 91.2632 168.177C91.6392 168.281 91.9432 168.457 92.1752 168.705C92.4152 168.945 92.5872 169.281 92.6912 169.713C92.8032 170.137 92.8592 170.673 92.8592 171.321C92.8592 171.961 92.8072 172.497 92.7032 172.929C92.5992 173.353 92.4312 173.689 92.1992 173.937C91.9672 174.185 91.6592 174.361 91.2752 174.465C90.8992 174.569 90.4392 174.621 89.8952 174.621ZM89.8952 173.205C90.1112 173.205 90.2912 173.185 90.4352 173.145C90.5872 173.105 90.7072 173.025 90.7952 172.905C90.8912 172.777 90.9632 172.585 91.0112 172.329C91.0592 172.073 91.0832 171.737 91.0832 171.321C91.0832 170.897 91.0592 170.561 91.0112 170.313C90.9632 170.057 90.8912 169.869 90.7952 169.749C90.7072 169.621 90.5872 169.537 90.4352 169.497C90.2912 169.457 90.1112 169.437 89.8952 169.437C89.6872 169.437 89.5072 169.457 89.3552 169.497C89.2112 169.537 89.0912 169.621 88.9952 169.749C88.8992 169.869 88.8272 170.057 88.7792 170.313C88.7392 170.561 88.7192 170.897 88.7192 171.321C88.7192 171.737 88.7392 172.073 88.7792 172.329C88.8272 172.585 88.8992 172.777 88.9952 172.905C89.0912 173.025 89.2112 173.105 89.3552 173.145C89.5072 173.185 89.6872 173.205 89.8952 173.205ZM94.4815 174.561V169.545H93.5695V168.405L94.4815 168.117V167.685C94.4815 167.141 94.5535 166.697 94.6975 166.353C94.8495 166.001 95.0815 165.745 95.3935 165.585C95.7055 165.417 96.1175 165.333 96.6295 165.333C96.9095 165.333 97.1615 165.353 97.3855 165.393C97.6175 165.433 97.8095 165.473 97.9615 165.513V166.785H96.9775C96.7935 166.785 96.6495 166.813 96.5455 166.869C96.4415 166.925 96.3695 167.013 96.3295 167.133C96.2895 167.245 96.2695 167.397 96.2695 167.589V168.117H97.9015V169.545H96.2695V174.561H94.4815ZM103.21 174.633C102.722 174.633 102.326 174.489 102.022 174.201C101.718 173.913 101.566 173.513 101.566 173.001V172.425C101.566 171.937 101.738 171.537 102.082 171.225C102.426 170.905 102.962 170.745 103.69 170.745H105.334V170.301C105.334 170.101 105.298 169.937 105.226 169.809C105.154 169.673 105.018 169.577 104.818 169.521C104.626 169.457 104.33 169.425 103.93 169.425H101.998V168.393C102.31 168.297 102.67 168.213 103.078 168.141C103.494 168.069 103.994 168.033 104.578 168.033C105.114 168.033 105.57 168.097 105.946 168.225C106.33 168.353 106.618 168.573 106.81 168.885C107.01 169.197 107.11 169.629 107.11 170.181V174.561H105.706L105.418 173.877C105.362 173.941 105.266 174.013 105.13 174.093C104.994 174.173 104.826 174.257 104.626 174.345C104.434 174.425 104.214 174.493 103.966 174.549C103.726 174.605 103.474 174.633 103.21 174.633ZM104.11 173.397C104.19 173.397 104.278 173.389 104.374 173.373C104.478 173.349 104.582 173.325 104.686 173.301C104.798 173.269 104.898 173.241 104.986 173.217C105.082 173.185 105.158 173.157 105.214 173.133C105.278 173.109 105.318 173.093 105.334 173.085V171.585L104.254 171.657C103.942 171.681 103.71 171.761 103.558 171.897C103.414 172.033 103.342 172.217 103.342 172.449V172.713C103.342 172.873 103.374 173.005 103.438 173.109C103.51 173.213 103.602 173.289 103.714 173.337C103.834 173.377 103.966 173.397 104.11 173.397ZM113.55 174.585C113.094 174.585 112.714 174.513 112.41 174.369C112.114 174.217 111.894 173.989 111.75 173.685C111.606 173.373 111.534 172.973 111.534 172.485V165.405H113.31V172.221C113.31 172.461 113.334 172.653 113.382 172.797C113.43 172.933 113.502 173.033 113.598 173.097C113.702 173.161 113.83 173.205 113.982 173.229L114.474 173.301V174.585H113.55ZM118.055 174.621C117.527 174.621 117.075 174.569 116.699 174.465C116.323 174.353 116.015 174.169 115.775 173.913C115.543 173.657 115.371 173.317 115.259 172.893C115.155 172.469 115.103 171.945 115.103 171.321C115.103 170.665 115.155 170.125 115.259 169.701C115.371 169.269 115.543 168.933 115.775 168.693C116.015 168.445 116.323 168.273 116.699 168.177C117.083 168.073 117.535 168.021 118.055 168.021C118.591 168.021 119.047 168.073 119.423 168.177C119.799 168.281 120.103 168.457 120.335 168.705C120.575 168.945 120.747 169.281 120.851 169.713C120.963 170.137 121.019 170.673 121.019 171.321C121.019 171.961 120.967 172.497 120.863 172.929C120.759 173.353 120.591 173.689 120.359 173.937C120.127 174.185 119.819 174.361 119.435 174.465C119.059 174.569 118.599 174.621 118.055 174.621ZM118.055 173.205C118.271 173.205 118.451 173.185 118.595 173.145C118.747 173.105 118.867 173.025 118.955 172.905C119.051 172.777 119.123 172.585 119.171 172.329C119.219 172.073 119.243 171.737 119.243 171.321C119.243 170.897 119.219 170.561 119.171 170.313C119.123 170.057 119.051 169.869 118.955 169.749C118.867 169.621 118.747 169.537 118.595 169.497C118.451 169.457 118.271 169.437 118.055 169.437C117.847 169.437 117.667 169.457 117.515 169.497C117.371 169.537 117.251 169.621 117.155 169.749C117.059 169.869 116.987 170.057 116.939 170.313C116.899 170.561 116.879 170.897 116.879 171.321C116.879 171.737 116.899 172.073 116.939 172.329C116.987 172.585 117.059 172.777 117.155 172.905C117.251 173.025 117.371 173.105 117.515 173.145C117.667 173.185 117.847 173.205 118.055 173.205ZM123.583 174.561L121.423 168.117H123.259L124.651 172.917L126.079 168.117H127.891L125.635 174.561H123.583ZM131.214 174.621C130.502 174.621 129.934 174.529 129.51 174.345C129.086 174.153 128.778 173.817 128.586 173.337C128.402 172.857 128.31 172.193 128.31 171.345C128.31 170.473 128.398 169.797 128.574 169.317C128.75 168.837 129.046 168.501 129.462 168.309C129.878 168.117 130.442 168.021 131.154 168.021C131.794 168.021 132.306 168.085 132.69 168.213C133.074 168.341 133.35 168.565 133.518 168.885C133.694 169.205 133.782 169.657 133.782 170.241C133.782 170.673 133.694 171.017 133.518 171.273C133.35 171.521 133.11 171.701 132.798 171.813C132.486 171.917 132.118 171.969 131.694 171.969H130.074C130.09 172.297 130.138 172.561 130.218 172.761C130.306 172.953 130.462 173.093 130.686 173.181C130.918 173.261 131.25 173.301 131.682 173.301H133.566V174.345C133.254 174.409 132.91 174.473 132.534 174.537C132.166 174.593 131.726 174.621 131.214 174.621ZM130.05 170.913H131.514C131.754 170.913 131.93 170.865 132.042 170.769C132.154 170.673 132.21 170.501 132.21 170.253C132.21 170.021 132.174 169.837 132.102 169.701C132.03 169.557 131.918 169.457 131.766 169.401C131.614 169.337 131.41 169.305 131.154 169.305C130.882 169.305 130.666 169.353 130.506 169.449C130.346 169.537 130.23 169.697 130.158 169.929C130.086 170.161 130.05 170.489 130.05 170.913ZM137.06 174.633C136.556 174.633 136.132 174.529 135.788 174.321C135.444 174.105 135.184 173.761 135.008 173.289C134.84 172.809 134.756 172.181 134.756 171.405C134.756 170.605 134.828 169.957 134.972 169.461C135.124 168.965 135.376 168.601 135.728 168.369C136.08 168.137 136.564 168.021 137.18 168.021C137.476 168.021 137.768 168.053 138.056 168.117C138.344 168.173 138.6 168.241 138.824 168.321V165.405H140.612V174.561H139.112L138.824 173.949C138.688 174.077 138.52 174.193 138.32 174.297C138.128 174.401 137.924 174.485 137.708 174.549C137.492 174.605 137.276 174.633 137.06 174.633ZM137.684 173.205C137.924 173.205 138.14 173.165 138.332 173.085C138.532 173.005 138.696 172.925 138.824 172.845V169.605C138.664 169.549 138.496 169.493 138.32 169.437C138.144 169.381 137.956 169.353 137.756 169.353C137.46 169.353 137.22 169.405 137.036 169.509C136.86 169.613 136.732 169.809 136.652 170.097C136.572 170.377 136.532 170.785 136.532 171.321C136.532 171.817 136.568 172.205 136.64 172.485C136.72 172.757 136.844 172.945 137.012 173.049C137.18 173.153 137.404 173.205 137.684 173.205ZM147.798 174.621C147.27 174.621 146.818 174.569 146.442 174.465C146.066 174.353 145.758 174.169 145.518 173.913C145.286 173.657 145.114 173.317 145.002 172.893C144.898 172.469 144.846 171.945 144.846 171.321C144.846 170.665 144.898 170.125 145.002 169.701C145.114 169.269 145.286 168.933 145.518 168.693C145.758 168.445 146.066 168.273 146.442 168.177C146.826 168.073 147.278 168.021 147.798 168.021C148.334 168.021 148.79 168.073 149.166 168.177C149.542 168.281 149.846 168.457 150.078 168.705C150.318 168.945 150.49 169.281 150.594 169.713C150.706 170.137 150.762 170.673 150.762 171.321C150.762 171.961 150.71 172.497 150.606 172.929C150.502 173.353 150.334 173.689 150.102 173.937C149.87 174.185 149.562 174.361 149.178 174.465C148.802 174.569 148.342 174.621 147.798 174.621ZM147.798 173.205C148.014 173.205 148.194 173.185 148.338 173.145C148.49 173.105 148.61 173.025 148.698 172.905C148.794 172.777 148.866 172.585 148.914 172.329C148.962 172.073 148.986 171.737 148.986 171.321C148.986 170.897 148.962 170.561 148.914 170.313C148.866 170.057 148.794 169.869 148.698 169.749C148.61 169.621 148.49 169.537 148.338 169.497C148.194 169.457 148.014 169.437 147.798 169.437C147.59 169.437 147.41 169.457 147.258 169.497C147.114 169.537 146.994 169.621 146.898 169.749C146.802 169.869 146.73 170.057 146.682 170.313C146.642 170.561 146.622 170.897 146.622 171.321C146.622 171.737 146.642 172.073 146.682 172.329C146.73 172.585 146.802 172.777 146.898 172.905C146.994 173.025 147.114 173.105 147.258 173.145C147.41 173.185 147.59 173.205 147.798 173.205ZM151.94 174.561V168.117H153.404L153.716 168.777C153.956 168.577 154.256 168.401 154.616 168.249C154.984 168.089 155.36 168.009 155.744 168.009C156.272 168.009 156.68 168.113 156.968 168.321C157.256 168.529 157.456 168.809 157.568 169.161C157.688 169.505 157.748 169.889 157.748 170.313V174.561H155.972V170.541C155.972 170.333 155.932 170.161 155.852 170.025C155.78 169.889 155.676 169.785 155.54 169.713C155.404 169.641 155.24 169.605 155.048 169.605C154.88 169.605 154.716 169.625 154.556 169.665C154.404 169.705 154.256 169.761 154.112 169.833C153.976 169.905 153.844 169.989 153.716 170.085V174.561H151.94ZM161.789 174.621C161.077 174.621 160.509 174.529 160.085 174.345C159.661 174.153 159.353 173.817 159.161 173.337C158.977 172.857 158.885 172.193 158.885 171.345C158.885 170.473 158.973 169.797 159.149 169.317C159.325 168.837 159.621 168.501 160.037 168.309C160.453 168.117 161.017 168.021 161.729 168.021C162.369 168.021 162.881 168.085 163.265 168.213C163.649 168.341 163.925 168.565 164.093 168.885C164.269 169.205 164.357 169.657 164.357 170.241C164.357 170.673 164.269 171.017 164.093 171.273C163.925 171.521 163.685 171.701 163.373 171.813C163.061 171.917 162.693 171.969 162.269 171.969H160.649C160.665 172.297 160.713 172.561 160.793 172.761C160.881 172.953 161.037 173.093 161.261 173.181C161.493 173.261 161.825 173.301 162.257 173.301H164.141V174.345C163.829 174.409 163.485 174.473 163.109 174.537C162.741 174.593 162.301 174.621 161.789 174.621ZM160.625 170.913H162.089C162.329 170.913 162.505 170.865 162.617 170.769C162.729 170.673 162.785 170.501 162.785 170.253C162.785 170.021 162.749 169.837 162.677 169.701C162.605 169.557 162.493 169.457 162.341 169.401C162.189 169.337 161.985 169.305 161.729 169.305C161.457 169.305 161.241 169.353 161.081 169.449C160.921 169.537 160.805 169.697 160.733 169.929C160.661 170.161 160.625 170.489 160.625 170.913Z" fill="#005178"/>
<path d="M230.168 160.16V151.28H233.924C234.524 151.28 235.024 151.388 235.424 151.604C235.824 151.812 236.14 152.116 236.372 152.516C236.612 152.908 236.78 153.376 236.876 153.92C236.972 154.464 237.02 155.064 237.02 155.72C237.02 156.72 236.904 157.548 236.672 158.204C236.448 158.86 236.108 159.352 235.652 159.68C235.196 160 234.62 160.16 233.924 160.16H230.168ZM231.944 158.564H233.744C234.112 158.564 234.404 158.46 234.62 158.252C234.836 158.036 234.992 157.716 235.088 157.292C235.192 156.868 235.244 156.344 235.244 155.72C235.244 155.144 235.212 154.672 235.148 154.304C235.084 153.928 234.988 153.636 234.86 153.428C234.74 153.22 234.584 153.076 234.392 152.996C234.208 152.916 233.992 152.876 233.744 152.876H231.944V158.564ZM238.457 152.768C238.289 152.768 238.205 152.688 238.205 152.528V151.352C238.205 151.184 238.289 151.1 238.457 151.1H239.825C239.897 151.1 239.953 151.124 239.993 151.172C240.033 151.22 240.053 151.28 240.053 151.352V152.528C240.053 152.688 239.977 152.768 239.825 152.768H238.457ZM238.241 160.16V153.716H240.017V160.16H238.241ZM241.381 160.16V153.716H242.749L243.157 154.7C243.389 154.404 243.649 154.152 243.937 153.944C244.233 153.736 244.581 153.632 244.981 153.632C245.069 153.632 245.157 153.636 245.245 153.644C245.341 153.652 245.429 153.668 245.509 153.692V155.516C245.389 155.5 245.261 155.488 245.125 155.48C244.997 155.464 244.873 155.456 244.753 155.456C244.521 155.456 244.309 155.484 244.117 155.54C243.933 155.588 243.761 155.664 243.601 155.768C243.449 155.864 243.301 155.992 243.157 156.152V160.16H241.381ZM249.167 160.22C248.455 160.22 247.887 160.128 247.463 159.944C247.039 159.752 246.731 159.416 246.539 158.936C246.355 158.456 246.263 157.792 246.263 156.944C246.263 156.072 246.351 155.396 246.527 154.916C246.703 154.436 246.999 154.1 247.415 153.908C247.831 153.716 248.395 153.62 249.107 153.62C249.747 153.62 250.259 153.684 250.643 153.812C251.027 153.94 251.303 154.164 251.471 154.484C251.647 154.804 251.735 155.256 251.735 155.84C251.735 156.272 251.647 156.616 251.471 156.872C251.303 157.12 251.063 157.3 250.751 157.412C250.439 157.516 250.071 157.568 249.647 157.568H248.027C248.043 157.896 248.091 158.16 248.171 158.36C248.259 158.552 248.415 158.692 248.639 158.78C248.871 158.86 249.203 158.9 249.635 158.9H251.519V159.944C251.207 160.008 250.863 160.072 250.487 160.136C250.119 160.192 249.679 160.22 249.167 160.22ZM248.003 156.512H249.467C249.707 156.512 249.883 156.464 249.995 156.368C250.107 156.272 250.163 156.1 250.163 155.852C250.163 155.62 250.127 155.436 250.055 155.3C249.983 155.156 249.871 155.056 249.719 155C249.567 154.936 249.363 154.904 249.107 154.904C248.835 154.904 248.619 154.952 248.459 155.048C248.299 155.136 248.183 155.296 248.111 155.528C248.039 155.76 248.003 156.088 248.003 156.512ZM255.409 160.232C255.017 160.232 254.653 160.18 254.317 160.076C253.989 159.972 253.705 159.8 253.465 159.56C253.225 159.312 253.037 158.98 252.901 158.564C252.773 158.14 252.709 157.608 252.709 156.968C252.709 156.312 252.769 155.768 252.889 155.336C253.009 154.904 253.185 154.564 253.417 154.316C253.657 154.06 253.949 153.88 254.293 153.776C254.637 153.672 255.025 153.62 255.457 153.62C255.849 153.62 256.221 153.644 256.573 153.692C256.933 153.732 257.309 153.808 257.701 153.92V154.94H256.009C255.641 154.94 255.345 154.996 255.121 155.108C254.897 155.212 254.733 155.412 254.629 155.708C254.533 155.996 254.485 156.412 254.485 156.956C254.485 157.492 254.533 157.9 254.629 158.18C254.733 158.46 254.897 158.648 255.121 158.744C255.353 158.84 255.657 158.888 256.033 158.888H257.797V159.896C257.597 159.96 257.365 160.02 257.101 160.076C256.837 160.124 256.557 160.16 256.261 160.184C255.973 160.216 255.689 160.232 255.409 160.232ZM261.232 160.16C260.736 160.16 260.332 160.088 260.02 159.944C259.716 159.8 259.496 159.56 259.36 159.224C259.224 158.888 259.164 158.436 259.18 157.868L259.24 155.144H258.232V154.004L259.3 153.716L259.54 151.916H260.944V153.716H262.456V155.144H260.944V157.856C260.944 158.032 260.96 158.176 260.992 158.288C261.024 158.4 261.068 158.492 261.124 158.564C261.188 158.628 261.26 158.676 261.34 158.708C261.42 158.74 261.5 158.76 261.58 158.768L262.396 158.84V160.16H261.232ZM269.253 160.22C268.541 160.22 267.973 160.128 267.549 159.944C267.125 159.752 266.817 159.416 266.625 158.936C266.441 158.456 266.349 157.792 266.349 156.944C266.349 156.072 266.437 155.396 266.613 154.916C266.789 154.436 267.085 154.1 267.501 153.908C267.917 153.716 268.481 153.62 269.193 153.62C269.833 153.62 270.345 153.684 270.729 153.812C271.113 153.94 271.389 154.164 271.557 154.484C271.733 154.804 271.821 155.256 271.821 155.84C271.821 156.272 271.733 156.616 271.557 156.872C271.389 157.12 271.149 157.3 270.837 157.412C270.525 157.516 270.157 157.568 269.733 157.568H268.113C268.129 157.896 268.177 158.16 268.257 158.36C268.345 158.552 268.501 158.692 268.725 158.78C268.957 158.86 269.289 158.9 269.721 158.9H271.605V159.944C271.293 160.008 270.949 160.072 270.573 160.136C270.205 160.192 269.765 160.22 269.253 160.22ZM268.089 156.512H269.553C269.793 156.512 269.969 156.464 270.081 156.368C270.193 156.272 270.249 156.1 270.249 155.852C270.249 155.62 270.213 155.436 270.141 155.3C270.069 155.156 269.957 155.056 269.805 155C269.653 154.936 269.449 154.904 269.193 154.904C268.921 154.904 268.705 154.952 268.545 155.048C268.385 155.136 268.269 155.296 268.197 155.528C268.125 155.76 268.089 156.088 268.089 156.512ZM276.664 160.16L272.176 153.716H273.964L278.464 160.16H276.664ZM272.176 160.16L274.66 156.38L275.308 158.048L273.976 160.16H272.176ZM275.968 157.52L275.212 156.032L276.664 153.716H278.464L275.968 157.52ZM279.245 163.004V153.716H280.733L281.021 154.328C281.173 154.208 281.341 154.096 281.525 153.992C281.709 153.88 281.909 153.792 282.125 153.728C282.341 153.656 282.569 153.62 282.809 153.62C283.201 153.62 283.541 153.696 283.829 153.848C284.125 154 284.365 154.22 284.549 154.508C284.733 154.796 284.869 155.148 284.957 155.564C285.045 155.972 285.089 156.432 285.089 156.944C285.089 157.632 285.021 158.224 284.885 158.72C284.749 159.216 284.513 159.596 284.177 159.86C283.849 160.116 283.393 160.244 282.809 160.244C282.505 160.244 282.193 160.208 281.873 160.136C281.561 160.064 281.277 159.96 281.021 159.824V163.004H279.245ZM282.233 158.78C282.417 158.78 282.593 158.732 282.761 158.636C282.929 158.532 283.061 158.348 283.157 158.084C283.261 157.82 283.313 157.44 283.313 156.944C283.313 156.464 283.265 156.088 283.169 155.816C283.081 155.536 282.957 155.34 282.797 155.228C282.637 155.108 282.449 155.048 282.233 155.048C281.985 155.048 281.757 155.088 281.549 155.168C281.341 155.248 281.165 155.328 281.021 155.408V158.468C281.181 158.564 281.369 158.64 281.585 158.696C281.801 158.752 282.017 158.78 282.233 158.78ZM289.024 160.22C288.496 160.22 288.044 160.168 287.668 160.064C287.292 159.952 286.984 159.768 286.744 159.512C286.512 159.256 286.34 158.916 286.228 158.492C286.124 158.068 286.072 157.544 286.072 156.92C286.072 156.264 286.124 155.724 286.228 155.3C286.34 154.868 286.512 154.532 286.744 154.292C286.984 154.044 287.292 153.872 287.668 153.776C288.052 153.672 288.504 153.62 289.024 153.62C289.56 153.62 290.016 153.672 290.392 153.776C290.768 153.88 291.072 154.056 291.304 154.304C291.544 154.544 291.716 154.88 291.82 155.312C291.932 155.736 291.988 156.272 291.988 156.92C291.988 157.56 291.936 158.096 291.832 158.528C291.728 158.952 291.56 159.288 291.328 159.536C291.096 159.784 290.788 159.96 290.404 160.064C290.028 160.168 289.568 160.22 289.024 160.22ZM289.024 158.804C289.24 158.804 289.42 158.784 289.564 158.744C289.716 158.704 289.836 158.624 289.924 158.504C290.02 158.376 290.092 158.184 290.14 157.928C290.188 157.672 290.212 157.336 290.212 156.92C290.212 156.496 290.188 156.16 290.14 155.912C290.092 155.656 290.02 155.468 289.924 155.348C289.836 155.22 289.716 155.136 289.564 155.096C289.42 155.056 289.24 155.036 289.024 155.036C288.816 155.036 288.636 155.056 288.484 155.096C288.34 155.136 288.22 155.22 288.124 155.348C288.028 155.468 287.956 155.656 287.908 155.912C287.868 156.16 287.848 156.496 287.848 156.92C287.848 157.336 287.868 157.672 287.908 157.928C287.956 158.184 288.028 158.376 288.124 158.504C288.22 158.624 288.34 158.704 288.484 158.744C288.636 158.784 288.816 158.804 289.024 158.804ZM295.506 160.232C295.306 160.232 295.09 160.224 294.858 160.208C294.626 160.2 294.394 160.184 294.162 160.16C293.93 160.136 293.714 160.108 293.514 160.076C293.314 160.036 293.146 159.992 293.01 159.944V158.9H295.866C296.034 158.9 296.17 158.888 296.274 158.864C296.386 158.832 296.466 158.78 296.514 158.708C296.57 158.628 296.598 158.516 296.598 158.372V158.168C296.598 158.008 296.546 157.884 296.442 157.796C296.338 157.708 296.146 157.664 295.866 157.664H294.858C294.49 157.664 294.158 157.608 293.862 157.496C293.566 157.384 293.33 157.2 293.154 156.944C292.986 156.688 292.902 156.344 292.902 155.912V155.54C292.902 155.132 292.982 154.788 293.142 154.508C293.302 154.228 293.57 154.016 293.946 153.872C294.322 153.728 294.838 153.656 295.494 153.656C295.758 153.656 296.038 153.672 296.334 153.704C296.638 153.728 296.922 153.764 297.186 153.812C297.458 153.852 297.674 153.9 297.834 153.956V155H295.134C294.902 155 294.726 155.04 294.606 155.12C294.486 155.192 294.426 155.332 294.426 155.54V155.732C294.426 155.876 294.454 155.984 294.51 156.056C294.566 156.12 294.65 156.168 294.762 156.2C294.882 156.224 295.03 156.236 295.206 156.236H296.238C296.894 156.236 297.37 156.388 297.666 156.692C297.97 156.988 298.122 157.4 298.122 157.928V158.504C298.122 158.936 298.018 159.28 297.81 159.536C297.61 159.784 297.314 159.964 296.922 160.076C296.538 160.18 296.066 160.232 295.506 160.232ZM301.049 160.232C300.473 160.232 300.021 160.064 299.693 159.728C299.365 159.384 299.201 158.9 299.201 158.276V153.716H300.977V157.748C300.977 158.108 301.061 158.352 301.229 158.48C301.405 158.6 301.633 158.66 301.913 158.66C302.137 158.66 302.365 158.62 302.597 158.54C302.837 158.452 303.049 158.336 303.233 158.192V153.716H305.021V160.16H303.545L303.233 159.5C302.945 159.692 302.613 159.864 302.237 160.016C301.861 160.16 301.465 160.232 301.049 160.232ZM306.362 160.16V153.716H307.73L308.138 154.7C308.37 154.404 308.63 154.152 308.918 153.944C309.214 153.736 309.562 153.632 309.962 153.632C310.05 153.632 310.138 153.636 310.226 153.644C310.322 153.652 310.41 153.668 310.49 153.692V155.516C310.37 155.5 310.242 155.488 310.106 155.48C309.978 155.464 309.854 155.456 309.734 155.456C309.502 155.456 309.29 155.484 309.098 155.54C308.914 155.588 308.742 155.664 308.582 155.768C308.43 155.864 308.282 155.992 308.138 156.152V160.16H306.362ZM314.148 160.22C313.436 160.22 312.868 160.128 312.444 159.944C312.02 159.752 311.712 159.416 311.52 158.936C311.336 158.456 311.244 157.792 311.244 156.944C311.244 156.072 311.332 155.396 311.508 154.916C311.684 154.436 311.98 154.1 312.396 153.908C312.812 153.716 313.376 153.62 314.088 153.62C314.728 153.62 315.24 153.684 315.624 153.812C316.008 153.94 316.284 154.164 316.452 154.484C316.628 154.804 316.716 155.256 316.716 155.84C316.716 156.272 316.628 156.616 316.452 156.872C316.284 157.12 316.044 157.3 315.732 157.412C315.42 157.516 315.052 157.568 314.628 157.568H313.008C313.024 157.896 313.072 158.16 313.152 158.36C313.24 158.552 313.396 158.692 313.62 158.78C313.852 158.86 314.184 158.9 314.616 158.9H316.5V159.944C316.188 160.008 315.844 160.072 315.468 160.136C315.1 160.192 314.66 160.22 314.148 160.22ZM312.984 156.512H314.448C314.688 156.512 314.864 156.464 314.976 156.368C315.088 156.272 315.144 156.1 315.144 155.852C315.144 155.62 315.108 155.436 315.036 155.3C314.964 155.156 314.852 155.056 314.7 155C314.548 154.936 314.344 154.904 314.088 154.904C313.816 154.904 313.6 154.952 313.44 155.048C313.28 155.136 313.164 155.296 313.092 155.528C313.02 155.76 312.984 156.088 312.984 156.512ZM323.423 160.16C322.927 160.16 322.523 160.088 322.211 159.944C321.907 159.8 321.687 159.56 321.551 159.224C321.415 158.888 321.355 158.436 321.371 157.868L321.431 155.144H320.423V154.004L321.491 153.716L321.731 151.916H323.135V153.716H324.647V155.144H323.135V157.856C323.135 158.032 323.151 158.176 323.183 158.288C323.215 158.4 323.259 158.492 323.315 158.564C323.379 158.628 323.451 158.676 323.531 158.708C323.611 158.74 323.691 158.76 323.771 158.768L324.587 158.84V160.16H323.423ZM328.399 160.22C327.871 160.22 327.419 160.168 327.043 160.064C326.667 159.952 326.359 159.768 326.119 159.512C325.887 159.256 325.715 158.916 325.603 158.492C325.499 158.068 325.447 157.544 325.447 156.92C325.447 156.264 325.499 155.724 325.603 155.3C325.715 154.868 325.887 154.532 326.119 154.292C326.359 154.044 326.667 153.872 327.043 153.776C327.427 153.672 327.879 153.62 328.399 153.62C328.935 153.62 329.391 153.672 329.767 153.776C330.143 153.88 330.447 154.056 330.679 154.304C330.919 154.544 331.091 154.88 331.195 155.312C331.307 155.736 331.363 156.272 331.363 156.92C331.363 157.56 331.311 158.096 331.207 158.528C331.103 158.952 330.935 159.288 330.703 159.536C330.471 159.784 330.163 159.96 329.779 160.064C329.403 160.168 328.943 160.22 328.399 160.22ZM328.399 158.804C328.615 158.804 328.795 158.784 328.939 158.744C329.091 158.704 329.211 158.624 329.299 158.504C329.395 158.376 329.467 158.184 329.515 157.928C329.563 157.672 329.587 157.336 329.587 156.92C329.587 156.496 329.563 156.16 329.515 155.912C329.467 155.656 329.395 155.468 329.299 155.348C329.211 155.22 329.091 155.136 328.939 155.096C328.795 155.056 328.615 155.036 328.399 155.036C328.191 155.036 328.011 155.056 327.859 155.096C327.715 155.136 327.595 155.22 327.499 155.348C327.403 155.468 327.331 155.656 327.283 155.912C327.243 156.16 327.223 156.496 327.223 156.92C327.223 157.336 327.243 157.672 327.283 157.928C327.331 158.184 327.403 158.376 327.499 158.504C327.595 158.624 327.715 158.704 327.859 158.744C328.011 158.784 328.191 158.804 328.399 158.804Z" fill="#397099"/>
<path d="M220.226 174.633C219.722 174.633 219.298 174.529 218.954 174.321C218.61 174.105 218.35 173.761 218.174 173.289C218.006 172.809 217.922 172.181 217.922 171.405C217.922 170.605 217.994 169.957 218.138 169.461C218.29 168.965 218.542 168.601 218.894 168.369C219.246 168.137 219.73 168.021 220.346 168.021C220.642 168.021 220.934 168.053 221.222 168.117C221.51 168.173 221.766 168.241 221.99 168.321V165.405H223.778V174.561H222.278L221.99 173.949C221.854 174.077 221.686 174.193 221.486 174.297C221.294 174.401 221.09 174.485 220.874 174.549C220.658 174.605 220.442 174.633 220.226 174.633ZM220.85 173.205C221.09 173.205 221.306 173.165 221.498 173.085C221.698 173.005 221.862 172.925 221.99 172.845V169.605C221.83 169.549 221.662 169.493 221.486 169.437C221.31 169.381 221.122 169.353 220.922 169.353C220.626 169.353 220.386 169.405 220.202 169.509C220.026 169.613 219.898 169.809 219.818 170.097C219.738 170.377 219.698 170.785 219.698 171.321C219.698 171.817 219.734 172.205 219.806 172.485C219.886 172.757 220.01 172.945 220.178 173.049C220.346 173.153 220.57 173.205 220.85 173.205ZM227.822 174.621C227.11 174.621 226.542 174.529 226.118 174.345C225.694 174.153 225.386 173.817 225.194 173.337C225.01 172.857 224.918 172.193 224.918 171.345C224.918 170.473 225.006 169.797 225.182 169.317C225.358 168.837 225.654 168.501 226.07 168.309C226.486 168.117 227.05 168.021 227.762 168.021C228.402 168.021 228.914 168.085 229.298 168.213C229.682 168.341 229.958 168.565 230.126 168.885C230.302 169.205 230.39 169.657 230.39 170.241C230.39 170.673 230.302 171.017 230.126 171.273C229.958 171.521 229.718 171.701 229.406 171.813C229.094 171.917 228.726 171.969 228.302 171.969H226.682C226.698 172.297 226.746 172.561 226.826 172.761C226.914 172.953 227.07 173.093 227.294 173.181C227.526 173.261 227.858 173.301 228.29 173.301H230.174V174.345C229.862 174.409 229.518 174.473 229.142 174.537C228.774 174.593 228.334 174.621 227.822 174.621ZM226.658 170.913H228.122C228.362 170.913 228.538 170.865 228.65 170.769C228.762 170.673 228.818 170.501 228.818 170.253C228.818 170.021 228.782 169.837 228.71 169.701C228.638 169.557 228.526 169.457 228.374 169.401C228.222 169.337 228.018 169.305 227.762 169.305C227.49 169.305 227.274 169.353 227.114 169.449C226.954 169.537 226.838 169.697 226.766 169.929C226.694 170.161 226.658 170.489 226.658 170.913ZM232.923 174.633C232.435 174.633 232.039 174.489 231.735 174.201C231.431 173.913 231.279 173.513 231.279 173.001V172.425C231.279 171.937 231.451 171.537 231.795 171.225C232.139 170.905 232.675 170.745 233.403 170.745H235.047V170.301C235.047 170.101 235.011 169.937 234.939 169.809C234.867 169.673 234.731 169.577 234.531 169.521C234.339 169.457 234.043 169.425 233.643 169.425H231.711V168.393C232.023 168.297 232.383 168.213 232.791 168.141C233.207 168.069 233.707 168.033 234.291 168.033C234.827 168.033 235.283 168.097 235.659 168.225C236.043 168.353 236.331 168.573 236.523 168.885C236.723 169.197 236.823 169.629 236.823 170.181V174.561H235.419L235.131 173.877C235.075 173.941 234.979 174.013 234.843 174.093C234.707 174.173 234.539 174.257 234.339 174.345C234.147 174.425 233.927 174.493 233.679 174.549C233.439 174.605 233.187 174.633 232.923 174.633ZM233.823 173.397C233.903 173.397 233.991 173.389 234.087 173.373C234.191 173.349 234.295 173.325 234.399 173.301C234.511 173.269 234.611 173.241 234.699 173.217C234.795 173.185 234.871 173.157 234.927 173.133C234.991 173.109 235.031 173.093 235.047 173.085V171.585L233.967 171.657C233.655 171.681 233.423 171.761 233.271 171.897C233.127 172.033 233.055 172.217 233.055 172.449V172.713C233.055 172.873 233.087 173.005 233.151 173.109C233.223 173.213 233.315 173.289 233.427 173.337C233.547 173.377 233.679 173.397 233.823 173.397ZM240.601 174.561C240.105 174.561 239.701 174.489 239.389 174.345C239.085 174.201 238.865 173.961 238.729 173.625C238.593 173.289 238.533 172.837 238.549 172.269L238.609 169.545H237.601V168.405L238.669 168.117L238.909 166.317H240.313V168.117H241.825V169.545H240.313V172.257C240.313 172.433 240.329 172.577 240.361 172.689C240.393 172.801 240.437 172.893 240.493 172.965C240.557 173.029 240.629 173.077 240.709 173.109C240.789 173.141 240.869 173.161 240.949 173.169L241.765 173.241V174.561H240.601ZM242.817 174.561V165.417H244.593V168.777C244.825 168.585 245.125 168.409 245.493 168.249C245.869 168.089 246.253 168.009 246.645 168.009C247.133 168.009 247.521 168.105 247.809 168.297C248.097 168.489 248.305 168.757 248.433 169.101C248.561 169.445 248.625 169.845 248.625 170.301V174.561H246.849V170.529C246.849 170.321 246.809 170.149 246.729 170.013C246.649 169.877 246.541 169.777 246.405 169.713C246.269 169.641 246.109 169.605 245.925 169.605C245.757 169.605 245.593 169.629 245.433 169.677C245.281 169.717 245.133 169.773 244.989 169.845C244.853 169.917 244.721 169.997 244.593 170.085V174.561H242.817ZM255.807 174.621C255.279 174.621 254.827 174.569 254.451 174.465C254.075 174.353 253.767 174.169 253.527 173.913C253.295 173.657 253.123 173.317 253.011 172.893C252.907 172.469 252.855 171.945 252.855 171.321C252.855 170.665 252.907 170.125 253.011 169.701C253.123 169.269 253.295 168.933 253.527 168.693C253.767 168.445 254.075 168.273 254.451 168.177C254.835 168.073 255.287 168.021 255.807 168.021C256.343 168.021 256.799 168.073 257.175 168.177C257.551 168.281 257.855 168.457 258.087 168.705C258.327 168.945 258.499 169.281 258.603 169.713C258.715 170.137 258.771 170.673 258.771 171.321C258.771 171.961 258.719 172.497 258.615 172.929C258.511 173.353 258.343 173.689 258.111 173.937C257.879 174.185 257.571 174.361 257.187 174.465C256.811 174.569 256.351 174.621 255.807 174.621ZM255.807 173.205C256.023 173.205 256.203 173.185 256.347 173.145C256.499 173.105 256.619 173.025 256.707 172.905C256.803 172.777 256.875 172.585 256.923 172.329C256.971 172.073 256.995 171.737 256.995 171.321C256.995 170.897 256.971 170.561 256.923 170.313C256.875 170.057 256.803 169.869 256.707 169.749C256.619 169.621 256.499 169.537 256.347 169.497C256.203 169.457 256.023 169.437 255.807 169.437C255.599 169.437 255.419 169.457 255.267 169.497C255.123 169.537 255.003 169.621 254.907 169.749C254.811 169.869 254.739 170.057 254.691 170.313C254.651 170.561 254.631 170.897 254.631 171.321C254.631 171.737 254.651 172.073 254.691 172.329C254.739 172.585 254.811 172.777 254.907 172.905C255.003 173.025 255.123 173.105 255.267 173.145C255.419 173.185 255.599 173.205 255.807 173.205ZM259.95 174.561V168.117H261.318L261.726 169.101C261.958 168.805 262.218 168.553 262.506 168.345C262.802 168.137 263.15 168.033 263.55 168.033C263.638 168.033 263.726 168.037 263.814 168.045C263.91 168.053 263.998 168.069 264.078 168.093V169.917C263.958 169.901 263.83 169.889 263.694 169.881C263.566 169.865 263.442 169.857 263.322 169.857C263.09 169.857 262.878 169.885 262.686 169.941C262.502 169.989 262.33 170.065 262.17 170.169C262.018 170.265 261.87 170.393 261.726 170.553V174.561H259.95ZM270.458 174.633C270.258 174.633 270.042 174.625 269.81 174.609C269.578 174.601 269.346 174.585 269.114 174.561C268.882 174.537 268.666 174.509 268.466 174.477C268.266 174.437 268.098 174.393 267.962 174.345V173.301H270.818C270.986 173.301 271.122 173.289 271.226 173.265C271.338 173.233 271.418 173.181 271.466 173.109C271.522 173.029 271.55 172.917 271.55 172.773V172.569C271.55 172.409 271.498 172.285 271.394 172.197C271.29 172.109 271.098 172.065 270.818 172.065H269.81C269.442 172.065 269.11 172.009 268.814 171.897C268.518 171.785 268.282 171.601 268.106 171.345C267.938 171.089 267.854 170.745 267.854 170.313V169.941C267.854 169.533 267.934 169.189 268.094 168.909C268.254 168.629 268.522 168.417 268.898 168.273C269.274 168.129 269.79 168.057 270.446 168.057C270.71 168.057 270.99 168.073 271.286 168.105C271.59 168.129 271.874 168.165 272.138 168.213C272.41 168.253 272.626 168.301 272.786 168.357V169.401H270.086C269.854 169.401 269.678 169.441 269.558 169.521C269.438 169.593 269.378 169.733 269.378 169.941V170.133C269.378 170.277 269.406 170.385 269.462 170.457C269.518 170.521 269.602 170.569 269.714 170.601C269.834 170.625 269.982 170.637 270.158 170.637H271.19C271.846 170.637 272.322 170.789 272.618 171.093C272.922 171.389 273.074 171.801 273.074 172.329V172.905C273.074 173.337 272.97 173.681 272.762 173.937C272.562 174.185 272.266 174.365 271.874 174.477C271.49 174.581 271.018 174.633 270.458 174.633ZM276.888 174.621C276.176 174.621 275.608 174.529 275.184 174.345C274.76 174.153 274.452 173.817 274.26 173.337C274.076 172.857 273.984 172.193 273.984 171.345C273.984 170.473 274.072 169.797 274.248 169.317C274.424 168.837 274.72 168.501 275.136 168.309C275.552 168.117 276.116 168.021 276.828 168.021C277.468 168.021 277.98 168.085 278.364 168.213C278.748 168.341 279.024 168.565 279.192 168.885C279.368 169.205 279.456 169.657 279.456 170.241C279.456 170.673 279.368 171.017 279.192 171.273C279.024 171.521 278.784 171.701 278.472 171.813C278.16 171.917 277.792 171.969 277.368 171.969H275.748C275.764 172.297 275.812 172.561 275.892 172.761C275.98 172.953 276.136 173.093 276.36 173.181C276.592 173.261 276.924 173.301 277.356 173.301H279.24V174.345C278.928 174.409 278.584 174.473 278.208 174.537C277.84 174.593 277.4 174.621 276.888 174.621ZM275.724 170.913H277.188C277.428 170.913 277.604 170.865 277.716 170.769C277.828 170.673 277.884 170.501 277.884 170.253C277.884 170.021 277.848 169.837 277.776 169.701C277.704 169.557 277.592 169.457 277.44 169.401C277.288 169.337 277.084 169.305 276.828 169.305C276.556 169.305 276.34 169.353 276.18 169.449C276.02 169.537 275.904 169.697 275.832 169.929C275.76 170.161 275.724 170.489 275.724 170.913ZM280.622 174.561V168.117H281.99L282.398 169.101C282.63 168.805 282.89 168.553 283.178 168.345C283.474 168.137 283.822 168.033 284.222 168.033C284.31 168.033 284.398 168.037 284.486 168.045C284.582 168.053 284.67 168.069 284.75 168.093V169.917C284.63 169.901 284.502 169.889 284.366 169.881C284.238 169.865 284.114 169.857 283.994 169.857C283.762 169.857 283.55 169.885 283.358 169.941C283.174 169.989 283.002 170.065 282.842 170.169C282.69 170.265 282.542 170.393 282.398 170.553V174.561H280.622ZM285.912 167.169C285.744 167.169 285.66 167.089 285.66 166.929V165.753C285.66 165.585 285.744 165.501 285.912 165.501H287.28C287.352 165.501 287.408 165.525 287.448 165.573C287.488 165.621 287.508 165.681 287.508 165.753V166.929C287.508 167.089 287.432 167.169 287.28 167.169H285.912ZM285.696 174.561V168.117H287.472V174.561H285.696ZM291.596 174.621C291.068 174.621 290.616 174.569 290.24 174.465C289.864 174.353 289.556 174.169 289.316 173.913C289.084 173.657 288.912 173.317 288.8 172.893C288.696 172.469 288.644 171.945 288.644 171.321C288.644 170.665 288.696 170.125 288.8 169.701C288.912 169.269 289.084 168.933 289.316 168.693C289.556 168.445 289.864 168.273 290.24 168.177C290.624 168.073 291.076 168.021 291.596 168.021C292.132 168.021 292.588 168.073 292.964 168.177C293.34 168.281 293.644 168.457 293.876 168.705C294.116 168.945 294.288 169.281 294.392 169.713C294.504 170.137 294.56 170.673 294.56 171.321C294.56 171.961 294.508 172.497 294.404 172.929C294.3 173.353 294.132 173.689 293.9 173.937C293.668 174.185 293.36 174.361 292.976 174.465C292.6 174.569 292.14 174.621 291.596 174.621ZM291.596 173.205C291.812 173.205 291.992 173.185 292.136 173.145C292.288 173.105 292.408 173.025 292.496 172.905C292.592 172.777 292.664 172.585 292.712 172.329C292.76 172.073 292.784 171.737 292.784 171.321C292.784 170.897 292.76 170.561 292.712 170.313C292.664 170.057 292.592 169.869 292.496 169.749C292.408 169.621 292.288 169.537 292.136 169.497C291.992 169.457 291.812 169.437 291.596 169.437C291.388 169.437 291.208 169.457 291.056 169.497C290.912 169.537 290.792 169.621 290.696 169.749C290.6 169.869 290.528 170.057 290.48 170.313C290.44 170.561 290.42 170.897 290.42 171.321C290.42 171.737 290.44 172.073 290.48 172.329C290.528 172.585 290.6 172.777 290.696 172.905C290.792 173.025 290.912 173.105 291.056 173.145C291.208 173.185 291.388 173.205 291.596 173.205ZM297.563 174.633C296.987 174.633 296.535 174.465 296.207 174.129C295.879 173.785 295.715 173.301 295.715 172.677V168.117H297.491V172.149C297.491 172.509 297.575 172.753 297.743 172.881C297.919 173.001 298.147 173.061 298.427 173.061C298.651 173.061 298.879 173.021 299.111 172.941C299.351 172.853 299.563 172.737 299.747 172.593V168.117H301.535V174.561H300.059L299.747 173.901C299.459 174.093 299.127 174.265 298.751 174.417C298.375 174.561 297.979 174.633 297.563 174.633ZM305.215 174.633C305.015 174.633 304.799 174.625 304.567 174.609C304.335 174.601 304.103 174.585 303.871 174.561C303.639 174.537 303.423 174.509 303.223 174.477C303.023 174.437 302.855 174.393 302.719 174.345V173.301H305.575C305.743 173.301 305.879 173.289 305.983 173.265C306.095 173.233 306.175 173.181 306.223 173.109C306.279 173.029 306.307 172.917 306.307 172.773V172.569C306.307 172.409 306.255 172.285 306.151 172.197C306.047 172.109 305.855 172.065 305.575 172.065H304.567C304.199 172.065 303.867 172.009 303.571 171.897C303.275 171.785 303.039 171.601 302.863 171.345C302.695 171.089 302.611 170.745 302.611 170.313V169.941C302.611 169.533 302.691 169.189 302.851 168.909C303.011 168.629 303.279 168.417 303.655 168.273C304.031 168.129 304.547 168.057 305.203 168.057C305.467 168.057 305.747 168.073 306.043 168.105C306.347 168.129 306.631 168.165 306.895 168.213C307.167 168.253 307.383 168.301 307.543 168.357V169.401H304.843C304.611 169.401 304.435 169.441 304.315 169.521C304.195 169.593 304.135 169.733 304.135 169.941V170.133C304.135 170.277 304.163 170.385 304.219 170.457C304.275 170.521 304.359 170.569 304.471 170.601C304.591 170.625 304.739 170.637 304.915 170.637H305.947C306.603 170.637 307.079 170.789 307.375 171.093C307.679 171.389 307.831 171.801 307.831 172.329V172.905C307.831 173.337 307.727 173.681 307.519 173.937C307.319 174.185 307.023 174.365 306.631 174.477C306.247 174.581 305.775 174.633 305.215 174.633ZM312.244 167.169C312.076 167.169 311.992 167.089 311.992 166.929V165.753C311.992 165.585 312.076 165.501 312.244 165.501H313.612C313.684 165.501 313.74 165.525 313.78 165.573C313.82 165.621 313.84 165.681 313.84 165.753V166.929C313.84 167.089 313.764 167.169 313.612 167.169H312.244ZM312.028 174.561V168.117H313.804V174.561H312.028ZM315.168 174.561V168.117H316.632L316.944 168.777C317.184 168.577 317.484 168.401 317.844 168.249C318.212 168.089 318.588 168.009 318.972 168.009C319.5 168.009 319.908 168.113 320.196 168.321C320.484 168.529 320.684 168.809 320.796 169.161C320.916 169.505 320.976 169.889 320.976 170.313V174.561H319.2V170.541C319.2 170.333 319.16 170.161 319.08 170.025C319.008 169.889 318.904 169.785 318.768 169.713C318.632 169.641 318.468 169.605 318.276 169.605C318.108 169.605 317.944 169.625 317.784 169.665C317.632 169.705 317.484 169.761 317.34 169.833C317.204 169.905 317.072 169.989 316.944 170.085V174.561H315.168ZM322.509 167.169C322.341 167.169 322.257 167.089 322.257 166.929V165.753C322.257 165.585 322.341 165.501 322.509 165.501H323.877C323.957 165.501 324.013 165.525 324.045 165.573C324.085 165.621 324.105 165.681 324.105 165.753V166.929C324.105 167.089 324.029 167.169 323.877 167.169H322.509ZM322.305 177.405V168.117H324.081V174.513C324.081 175.017 324.041 175.529 323.961 176.049C323.889 176.577 323.785 177.029 323.649 177.405H322.305ZM327.27 174.633C326.694 174.633 326.242 174.465 325.914 174.129C325.586 173.785 325.422 173.301 325.422 172.677V168.117H327.198V172.149C327.198 172.509 327.282 172.753 327.45 172.881C327.626 173.001 327.854 173.061 328.134 173.061C328.358 173.061 328.586 173.021 328.818 172.941C329.058 172.853 329.27 172.737 329.454 172.593V168.117H331.242V174.561H329.766L329.454 173.901C329.166 174.093 328.834 174.265 328.458 174.417C328.082 174.561 327.686 174.633 327.27 174.633ZM332.582 174.561V168.117H333.95L334.358 169.101C334.59 168.805 334.85 168.553 335.138 168.345C335.434 168.137 335.782 168.033 336.182 168.033C336.27 168.033 336.358 168.037 336.446 168.045C336.542 168.053 336.63 168.069 336.71 168.093V169.917C336.59 169.901 336.462 169.889 336.326 169.881C336.198 169.865 336.074 169.857 335.954 169.857C335.722 169.857 335.51 169.885 335.318 169.941C335.134 169.989 334.962 170.065 334.802 170.169C334.65 170.265 334.502 170.393 334.358 170.553V174.561H332.582ZM339.673 177.405L340.369 174.561C340.009 174.561 339.693 174.493 339.421 174.357C339.149 174.221 338.921 174.029 338.737 173.781C338.561 173.525 338.425 173.209 338.329 172.833L337.117 168.117H338.965L339.985 172.473C340.025 172.625 340.077 172.745 340.141 172.833C340.205 172.921 340.273 172.985 340.345 173.025C340.417 173.057 340.481 173.081 340.537 173.097C340.601 173.105 340.649 173.109 340.681 173.109L341.845 168.117H343.645L341.725 176.217L341.149 177.405H339.673Z" fill="#397099"/>
<path d="M179.131 37H73.1309V138H179.131V37Z" fill="#005178"/>
<path d="M333.131 62H227.131V138H333.131V62Z" fill="#5A97CB"/>
<path d="M3.13086 4V138H390.131" stroke="#005178" stroke-miterlimit="10"/>
</g>
<defs>
<clipPath id="clip0_225_159">
<rect width="417" height="187" fill="white"/>
</clipPath>
</defs>
</svg>
