<svg width="150" height="177" viewBox="0 0 150 177" fill="none" xmlns="http://www.w3.org/2000/svg">
<path opacity="0.24" d="M111.13 61.53C111.13 60.51 109.15 59.57 105.79 58.79C105.31 57.67 104.76 56.58 104.14 55.54L103.76 54.23C107.79 52.47 110.21 50.24 110.21 47.82C110.21 42.14 97.01 37.54 80.73 37.54C64.45 37.54 51.25 42.14 51.25 47.82C51.25 50.04 53.28 52.09 56.7 53.76L56.06 57.5C55.78 58.06 55.52 58.64 55.28 59.22C52.95 59.9 51.62 60.69 51.62 61.53C51.62 62.19 52.44 62.82 53.93 63.39C53.41 65.54 53.13 67.79 53.13 70.1V96.32C53.13 97.77 54.28 98.94 55.69 98.94H105.57C106.99 98.94 108.13 97.77 108.13 96.32V70.1C108.13 67.95 107.88 65.86 107.43 63.85C109.78 63.16 111.13 62.37 111.13 61.53Z" fill="#005178"/>
<path opacity="0.24" d="M105.93 139.76H121.7V123.99C121.7 115.28 114.64 108.22 105.93 108.22H56.0298C47.3198 108.22 40.2598 115.28 40.2598 123.99V139.76H105.93Z" fill="#005178"/>
<path d="M74.6309 39.9502C59.5109 39.9502 47.1309 52.6202 47.1309 68.1002V94.3202C47.1309 95.7702 48.2809 96.9402 49.6909 96.9402H99.5709C100.981 96.9402 102.131 95.7702 102.131 94.3202V68.1002C102.131 52.6202 89.7509 39.9502 74.6309 39.9502Z" fill="#005178"/>
<path d="M115.071 115.7C115.071 106.99 108.011 99.9297 99.3009 99.9297H49.4009C40.6909 99.9297 33.6309 106.99 33.6309 115.7V131.47H115.071" fill="#005178"/>
<path d="M74.6304 91.71C87.46 91.71 97.8604 81.3096 97.8604 68.48C97.8604 55.6504 87.46 45.25 74.6304 45.25C61.8008 45.25 51.4004 55.6504 51.4004 68.48C51.4004 81.3096 61.8008 91.71 74.6304 91.71Z" fill="#005178" stroke="white" stroke-width="2" stroke-miterlimit="10"/>
<path d="M57.073 105.466L52.1744 97.0362C51.6833 96.191 50.6 95.904 49.7548 96.3951L34.1396 105.469C33.2944 105.96 33.0074 107.043 33.4985 107.888L38.3971 116.319C38.8882 117.164 39.9715 117.451 40.8167 116.96L56.4319 107.886C57.2771 107.395 57.5641 106.312 57.073 105.466Z" fill="#005178"/>
<path d="M51.8409 102.88L49.9709 105.7L51.2309 108.83L47.9809 107.92L45.3909 110.09L45.2509 106.72L42.3809 104.92L45.5509 103.74L46.3709 100.47L48.4709 103.11L51.8409 102.88Z" fill="white"/>
<path d="M115.831 110.04C117.011 108.02 116.321 105.42 114.291 104.24L102.951 97.6496C100.931 96.4696 98.3306 97.1596 97.1506 99.1896L94.7306 103.35C93.5506 105.37 94.2406 107.97 96.2706 109.15L107.611 115.74C109.631 116.92 112.231 116.23 113.411 114.2L115.831 110.04Z" fill="#005178"/>
<path d="M98.7305 102.88L100.6 105.7L99.3405 108.83L102.59 107.92L105.18 110.09L105.33 106.72L108.19 104.92L105.02 103.74L104.2 100.47L102.1 103.11L98.7305 102.88Z" fill="white"/>
<path d="M63.1391 114.49H53.5391V119.29H63.1391V114.49Z" fill="white"/>
<path d="M62.0293 44.3504C71.7893 56.8704 84.4893 60.5004 99.7693 59.1504L96.3493 47.3104L78.2693 37.6904L64.7893 41.3904L62.0293 44.3504Z" fill="#005178"/>
<path d="M71.6492 44.3496C65.9092 56.8696 58.4392 60.4997 49.4492 59.1497L51.4592 47.3097L62.7692 41.3896H70.0192L71.6392 44.3496H71.6492Z" fill="#005178"/>
<path d="M104.22 45.82C104.22 40.14 91.0198 35.54 74.7398 35.54C58.4598 35.54 45.2598 40.14 45.2598 45.82C45.2598 48.58 48.3998 51.09 53.4898 52.94V61.59H97.3698V52.41C101.65 50.63 104.23 48.33 104.23 45.82H104.22Z" fill="#005178"/>
<path d="M68.7305 45.1396C68.7305 55.1496 81.5205 55.1496 81.5205 45.1396H68.7305Z" fill="white"/>
<path d="M75.3791 64.3305C91.8151 64.3305 105.139 62.1814 105.139 59.5305C105.139 56.8795 91.8151 54.7305 75.3791 54.7305C58.9431 54.7305 45.6191 56.8795 45.6191 59.5305C45.6191 62.1814 58.9431 64.3305 75.3791 64.3305Z" fill="#005178"/>
</svg>
