<svg width="451" height="61" viewBox="0 0 451 61" fill="none" xmlns="http://www.w3.org/2000/svg">
<path d="M39.2702 35.7896H18.4802C14.8502 35.7896 11.9102 38.7296 11.9102 42.3596V48.9296H45.8502V42.3596C45.8502 38.7296 42.9102 35.7896 39.2802 35.7896H39.2702Z" fill="#005178"/>
<path d="M28.9905 31.1198C34.3367 31.1198 38.6705 26.7859 38.6705 21.4398C38.6705 16.0936 34.3367 11.7598 28.9905 11.7598C23.6444 11.7598 19.3105 16.0936 19.3105 21.4398C19.3105 26.7859 23.6444 31.1198 28.9905 31.1198Z" fill="#005178"/>
<path d="M82.1998 35.7896H61.4098C57.7798 35.7896 54.8398 38.7296 54.8398 42.3596V48.9296H88.7798V42.3596C88.7798 38.7296 85.8398 35.7896 82.2098 35.7896H82.1998Z" fill="#005178"/>
<path d="M71.9202 31.1198C77.2663 31.1198 81.6002 26.7859 81.6002 21.4398C81.6002 16.0936 77.2663 11.7598 71.9202 11.7598C66.5741 11.7598 62.2402 16.0936 62.2402 21.4398C62.2402 26.7859 66.5741 31.1198 71.9202 31.1198Z" fill="#005178"/>
<path d="M20.9468 37.1815L19.942 35.4523C19.4509 34.6071 18.3676 34.32 17.5223 34.8112L12.8015 37.5543C11.9563 38.0455 11.6692 39.1288 12.1604 39.974L13.1652 41.7033C13.6563 42.5485 14.7397 42.8355 15.5849 42.3444L20.3057 39.6012C21.1509 39.11 21.438 38.0267 20.9468 37.1815Z" fill="#005178"/>
<path d="M41.1093 11.3701C41.1093 9.00008 35.6093 7.08008 28.8193 7.08008C22.0293 7.08008 16.5293 9.00008 16.5293 11.3701C16.5293 12.5201 17.8393 13.5701 19.9593 14.3401V17.9501H38.2493V14.1201C40.0293 13.3801 41.1093 12.4201 41.1093 11.3701Z" fill="#005178"/>
<path d="M28.8291 19.0801C35.2964 19.0801 40.5391 18.1846 40.5391 17.0801C40.5391 15.9755 35.2964 15.0801 28.8291 15.0801C22.3619 15.0801 17.1191 15.9755 17.1191 17.0801C17.1191 18.1846 22.3619 19.0801 28.8291 19.0801Z" fill="#005178"/>
<path d="M27.1895 36.0801H31.8795C31.8795 36.0801 31.8495 36.1601 31.8295 36.1901C31.4995 36.8301 31.1695 37.4601 30.8395 38.1001C30.7895 38.2001 30.7295 38.2301 30.6195 38.2301C29.8795 38.2301 29.1395 38.2301 28.4095 38.2301C28.3495 38.2301 28.2695 38.1901 28.2495 38.1501C27.8995 37.4801 27.5495 36.8101 27.1995 36.1301C27.1995 36.1201 27.1995 36.1001 27.1995 36.0801H27.1895Z" fill="white"/>
<path d="M30.7304 39.0001C30.7104 38.8901 30.6604 38.8701 30.5604 38.8701C30.2204 38.8701 29.8704 38.8701 29.5304 38.8701C29.1904 38.8701 28.8504 38.8701 28.5104 38.8701C28.3904 38.8701 28.3504 38.9101 28.3304 39.0201C27.7704 42.1801 27.2104 45.3501 26.6504 48.5101C26.6504 48.5301 26.6504 48.5501 26.6504 48.5701H32.4104C32.4104 48.5701 32.4104 48.5401 32.4104 48.5201C32.2004 47.3701 32.0004 46.2201 31.8004 45.0601C31.4404 43.0401 31.0804 41.0201 30.7304 39.0001Z" fill="white"/>
<path d="M19.2896 36.9902L18.5096 38.1702L19.0396 39.4702L17.6796 39.1002L16.5996 40.0002L16.5396 38.5902L15.3496 37.8402L16.6696 37.3502L17.0096 35.9902L17.8796 37.0902L19.2896 36.9902Z" fill="white"/>
<path d="M44.9438 41.7152L45.9486 39.986C46.4397 39.1407 46.1527 38.0574 45.3075 37.5663L40.5866 34.8231C39.7414 34.332 38.6581 34.619 38.167 35.4642L37.1621 37.1935C36.671 38.0387 36.958 39.122 37.8033 39.6131L42.5241 42.3563C43.3693 42.8475 44.4526 42.5604 44.9438 41.7152Z" fill="#005178"/>
<path d="M38.8301 36.9902L39.6101 38.1702L39.0801 39.4702L40.4401 39.1002L41.5201 40.0002L41.5801 38.5902L42.7701 37.8402L41.4501 37.3502L41.1101 35.9902L40.2301 37.0902L38.8301 36.9902Z" fill="white"/>
<path d="M22.3301 43.0801H18.3301V45.0801H22.3301V43.0801Z" fill="white"/>
<path d="M26.3301 11.0801C26.3301 15.2501 31.6601 15.2501 31.6601 11.0801H26.3301Z" fill="white"/>
<path d="M63.9508 37.1908L62.9459 35.4615C62.4548 34.6163 61.3715 34.3293 60.5263 34.8204L55.8054 37.5636C54.9602 38.0548 54.6732 39.1381 55.1643 39.9833L56.1691 41.7125C56.6603 42.5577 57.7436 42.8448 58.5888 42.3537L63.3096 39.6105C64.1549 39.1193 64.4419 38.036 63.9508 37.1908Z" fill="#005178"/>
<path d="M84.1093 11.3701C84.1093 9.00008 78.6093 7.08008 71.8193 7.08008C65.0293 7.08008 59.5293 9.00008 59.5293 11.3701C59.5293 12.5201 60.8393 13.5701 62.9593 14.3401V17.9501H81.2493V14.1201C83.0293 13.3801 84.1093 12.4201 84.1093 11.3701Z" fill="#005178"/>
<path d="M71.8291 19.0801C78.2964 19.0801 83.5391 18.1846 83.5391 17.0801C83.5391 15.9755 78.2964 15.0801 71.8291 15.0801C65.3619 15.0801 60.1191 15.9755 60.1191 17.0801C60.1191 18.1846 65.3619 19.0801 71.8291 19.0801Z" fill="#005178"/>
<path d="M70.1895 36.0801H74.8794C74.8794 36.0801 74.8495 36.1601 74.8295 36.1901C74.4995 36.8301 74.1694 37.4601 73.8394 38.1001C73.7894 38.2001 73.7295 38.2301 73.6195 38.2301C72.8795 38.2301 72.1395 38.2301 71.4095 38.2301C71.3495 38.2301 71.2695 38.1901 71.2495 38.1501C70.8995 37.4801 70.5494 36.8101 70.1994 36.1301C70.1994 36.1201 70.1994 36.1001 70.1994 36.0801H70.1895Z" fill="white"/>
<path d="M73.7304 39.0001C73.7104 38.8901 73.6604 38.8701 73.5604 38.8701C73.2204 38.8701 72.8704 38.8701 72.5304 38.8701C72.1904 38.8701 71.8504 38.8701 71.5104 38.8701C71.3904 38.8701 71.3504 38.9101 71.3304 39.0201C70.7704 42.1801 70.2104 45.3501 69.6504 48.5101C69.6504 48.5301 69.6504 48.5501 69.6504 48.5701H75.4104C75.4104 48.5701 75.4104 48.5401 75.4104 48.5201C75.2004 47.3701 75.0004 46.2201 74.8004 45.0601C74.4404 43.0401 74.0804 41.0201 73.7304 39.0001Z" fill="white"/>
<path d="M62.2896 36.9902L61.5096 38.1702L62.0396 39.4702L60.6796 39.1002L59.5996 40.0002L59.5396 38.5902L58.3496 37.8402L59.6696 37.3502L60.0096 35.9902L60.8796 37.0902L62.2896 36.9902Z" fill="white"/>
<path d="M87.9496 41.7137L88.9545 39.9845C89.4456 39.1393 89.1586 38.056 88.3134 37.5648L83.5925 34.8216C82.7473 34.3305 81.664 34.6175 81.1728 35.4627L80.168 37.192C79.6769 38.0372 79.9639 39.1205 80.8091 39.6117L85.53 42.3549C86.3752 42.846 87.4585 42.5589 87.9496 41.7137Z" fill="#005178"/>
<path d="M81.8301 36.9902L82.6101 38.1702L82.0801 39.4702L83.4401 39.1002L84.5201 40.0002L84.5801 38.5902L85.7701 37.8402L84.4501 37.3502L84.1101 35.9902L83.2301 37.0902L81.8301 36.9902Z" fill="white"/>
<path d="M65.3301 43.0801H61.3301V45.0801H65.3301V43.0801Z" fill="white"/>
<path d="M69.3301 11.0801C69.3301 15.2501 74.6601 15.2501 74.6601 11.0801H69.3301Z" fill="white"/>
<path d="M128.13 35.7896H107.34C103.71 35.7896 100.77 38.7296 100.77 42.3596V48.9296H134.71V42.3596C134.71 38.7296 131.77 35.7896 128.14 35.7896H128.13Z" fill="#5A97CB"/>
<path d="M117.85 31.1198C123.196 31.1198 127.53 26.7859 127.53 21.4398C127.53 16.0936 123.196 11.7598 117.85 11.7598C112.504 11.7598 108.17 16.0936 108.17 21.4398C108.17 26.7859 112.504 31.1198 117.85 31.1198Z" fill="#5A97CB"/>
<path d="M171.059 35.7896H150.269C146.639 35.7896 143.699 38.7296 143.699 42.3596V48.9296H177.639V42.3596C177.639 38.7296 174.699 35.7896 171.069 35.7896H171.059Z" fill="#5A97CB"/>
<path d="M160.78 31.1198C166.126 31.1198 170.46 26.7859 170.46 21.4398C170.46 16.0936 166.126 11.7598 160.78 11.7598C155.433 11.7598 151.1 16.0936 151.1 21.4398C151.1 26.7859 155.433 31.1198 160.78 31.1198Z" fill="#5A97CB"/>
<path d="M213.991 35.7896H193.201C189.571 35.7896 186.631 38.7296 186.631 42.3596V48.9296H220.571V42.3596C220.571 38.7296 217.631 35.7896 214.001 35.7896H213.991Z" fill="#5A97CB"/>
<path d="M203.711 31.1198C209.057 31.1198 213.391 26.7859 213.391 21.4398C213.391 16.0936 209.057 11.7598 203.711 11.7598C198.365 11.7598 194.031 16.0936 194.031 21.4398C194.031 26.7859 198.365 31.1198 203.711 31.1198Z" fill="#5A97CB"/>
<path d="M256.921 35.7896H236.131C232.501 35.7896 229.561 38.7296 229.561 42.3596V48.9296H263.501V42.3596C263.501 38.7296 260.561 35.7896 256.931 35.7896H256.921Z" fill="#5A97CB"/>
<path d="M246.641 31.1198C251.987 31.1198 256.321 26.7859 256.321 21.4398C256.321 16.0936 251.987 11.7598 246.641 11.7598C241.295 11.7598 236.961 16.0936 236.961 21.4398C236.961 26.7859 241.295 31.1198 246.641 31.1198Z" fill="#5A97CB"/>
<path d="M299.85 35.7896H279.06C275.43 35.7896 272.49 38.7296 272.49 42.3596V48.9296H306.43V42.3596C306.43 38.7296 303.49 35.7896 299.86 35.7896H299.85Z" fill="#5A97CB"/>
<path d="M289.58 31.1198C294.927 31.1198 299.26 26.7859 299.26 21.4398C299.26 16.0936 294.927 11.7598 289.58 11.7598C284.234 11.7598 279.9 16.0936 279.9 21.4398C279.9 26.7859 284.234 31.1198 289.58 31.1198Z" fill="#5A97CB"/>
<path d="M342.78 35.7896H321.99C318.36 35.7896 315.42 38.7296 315.42 42.3596V48.9296H349.36V42.3596C349.36 38.7296 346.42 35.7896 342.79 35.7896H342.78Z" fill="#5A97CB"/>
<path d="M332.51 31.1198C337.856 31.1198 342.19 26.7859 342.19 21.4398C342.19 16.0936 337.856 11.7598 332.51 11.7598C327.164 11.7598 322.83 16.0936 322.83 21.4398C322.83 26.7859 327.164 31.1198 332.51 31.1198Z" fill="#5A97CB"/>
<path d="M385.719 35.7896H364.929C361.299 35.7896 358.359 38.7296 358.359 42.3596V48.9296H392.299V42.3596C392.299 38.7296 389.359 35.7896 385.729 35.7896H385.719Z" fill="#5A97CB"/>
<path d="M375.44 31.1198C380.786 31.1198 385.12 26.7859 385.12 21.4398C385.12 16.0936 380.786 11.7598 375.44 11.7598C370.094 11.7598 365.76 16.0936 365.76 21.4398C365.76 26.7859 370.094 31.1198 375.44 31.1198Z" fill="#5A97CB"/>
<path d="M428.649 35.7896H407.859C404.229 35.7896 401.289 38.7296 401.289 42.3596V48.9296H435.229V42.3596C435.229 38.7296 432.289 35.7896 428.659 35.7896H428.649Z" fill="#5A97CB"/>
<path d="M418.369 31.1198C423.716 31.1198 428.049 26.7859 428.049 21.4398C428.049 16.0936 423.716 11.7598 418.369 11.7598C413.023 11.7598 408.689 16.0936 408.689 21.4398C408.689 26.7859 413.023 31.1198 418.369 31.1198Z" fill="#5A97CB"/>
</svg>
