<?xml version="1.0" encoding="UTF-8"?>
<svg id="Layer_1" data-name="Layer 1" xmlns="http://www.w3.org/2000/svg" viewBox="0 0 120 120" width="100%" height="100%">
  <g>
    <circle cx="60" cy="60" r="55.41" style="fill: #fff; stroke: #005178; stroke-miterlimit: 10; stroke-width: 6px;"/>
    <circle cx="60" cy="60" r="48.69" style="fill: #5a97cb; stroke-width: 0px;"/>
    <circle cx="60" cy="60" r="55.41" style="fill: #fff; stroke: #005178; stroke-miterlimit: 10; stroke-width: 6px;"/>
    <circle cx="60" cy="60" r="48.69" style="fill: #5a97cb; stroke-width: 0px;"/>
  </g>
  <g>
    <path d="m56.57,48.54c.08.59.58,1.02,1.17,1.01h.86c.14,0,.26.12.26.26v2.57c0,.14.12.26.26.26h2.22c.14,0,.26.12.26.26v.48c-.02.78.6,1.43,1.38,1.45.39.01.76-.14,1.04-.41.26-.27.41-.63.41-1v-.52c0-.14.12-.26.26-.26h2.38c.14,0,.26-.12.26-.26v-2.28c0-.14-.12-.26-.26-.26h-.7c-.74,0-1.37-.56-1.44-1.3-.07-.78.5-1.46,1.28-1.54.04,0,.09,0,.13,0h.78c.14,0,.26-.12.26-.26,0,0,0,0,0-.01v-2.3c0-.14-.12-.26-.26-.26h-2.38c-.14,0-.26-.12-.26-.26v-.62c-.03-.78-.69-1.39-1.47-1.35-.73.03-1.32.62-1.35,1.35v.59c0,.14-.12.26-.26.26h-2.24c-.14,0-.26.12-.26.26v2.57c0,.14-.12.26-.26.26h-.91c-.63,0-1.15.51-1.15,1.15,0,.06,0,.11.01.16Z" style="fill: #fff; stroke-width: 0px;"/>
    <path d="m58.87,59.27c0-.78-.63-1.41-1.41-1.42h-.5c-.14,0-.26-.12-.26-.26v-2.31c0-.14-.12-.26-.26-.26h-2.08c-.14,0-.26.12-.26.26v.04c0,.89-.67,1.64-1.56,1.71-.93.08-1.75-.6-1.83-1.53,0-.05,0-.1,0-.15v-.07c0-.14-.12-.26-.26-.26h-2.01c-.14,0-.26.12-.26.26v2.3c0,.14-.12.26-.26.26,0,0,0,0-.01,0h-.61c-.78,0-1.42.63-1.42,1.42s.63,1.42,1.42,1.42h.59c.14,0,.27.1.27.25,0,0,0,0,0,.01v2.3c0,.14.12.26.26.26h2.3c.14,0,.26.12.26.26v1.04c0,.78.63,1.42,1.42,1.42h0c.77.01,1.41-.59,1.44-1.37v-1.04c0-.14.12-.26.26-.26h2.3c.14,0,.26-.12.26-.26v-2.33c0-.14.12-.26.26-.26h.52c.78,0,1.42-.62,1.43-1.4,0,0,0-.02,0-.03Z" style="fill: #fff; stroke-width: 0px;"/>
    <path d="m71.5,64.77c.11-.1.11-.26.01-.37,0,0,0-.01-.01-.01l-1.65-1.6c-.11-.1-.11-.26-.01-.37,0,0,0-.01.01-.01l.34-.37c.52-.58.47-1.48-.12-2-.55-.49-1.39-.48-1.92.03l-.35.37c-.11.1-.28.1-.38,0l-1.64-1.58c-.11-.11-.28-.11-.38,0l-1.44,1.49c-.1.11-.1.28,0,.38l.05.05c.68.63.73,1.69.1,2.38-.63.68-1.69.73-2.38.1-.02-.02-.04-.04-.06-.06l-.05-.05c-.11-.11-.28-.11-.38,0l-1.38,1.42c-.11.11-.11.28,0,.38l1.65,1.59c.11.11.11.28,0,.38l-.4.44c-.56.54-.58,1.44-.04,2,.54.56,1.44.58,2,.04.03-.03.05-.05.08-.08l.41-.43c.1-.11.26-.11.37-.01,0,0,.01,0,.01.01l1.65,1.6c.1.11.26.11.37.01,0,0,.01,0,.01-.01l1.56-1.62c.1-.11.26-.11.37-.01,0,0,.01,0,.01.01l.41.39c.57.53,1.47.5,2-.07.52-.56.5-1.43-.03-1.96l-.41-.39c-.11-.1-.11-.26-.01-.37,0,0,0-.01.01-.01l1.63-1.7Z" style="fill: #fff; stroke-width: 0px;"/>
    <path d="m47.12,49.99h.75c.14,0,.26.12.26.26v2.3c0,.14.12.26.26.26h2.57c.14,0,.26.12.26.26v.49c0,.58.42,1.08,1,1.16.62.07,1.18-.37,1.25-.99,0-.04,0-.09,0-.13v-.52c0-.14.12-.26.26-.26h2.6c.14,0,.26-.12.26-.26v-2.02c0-.14-.12-.26-.26-.26h-.45c-.93,0-1.68-.76-1.68-1.69,0-.05,0-.1,0-.15.09-.88.83-1.54,1.71-1.54h.44c.14,0,.26-.12.26-.26v-2.04c0-.14-.12-.26-.26-.26h-2.29c-.14,0-.26-.12-.26-.26v-.62c0-.78-.63-1.42-1.42-1.42s-1.42.63-1.42,1.42v.59c0,.14-.12.26-.26.26h-2.33c-.14,0-.26.12-.26.26v2.3c0,.14-.1.27-.25.27,0,0,0,0-.01,0h-.75c-.78-.03-1.44.57-1.47,1.35-.03.78.57,1.44,1.35,1.47.04,0,.08,0,.12,0v.02Z" style="fill: #fff; stroke-width: 0px;"/>
    <path d="m68.47,93.53c0-.94.13-1.9-.02-2.82-.47-2.75.71-3.52,3.32-3.34,3.97.28,7.73-.27,9.37-4.68.43-1.15.52-2.5.48-3.75-.12-3.91-.74-7.84,4.71-9.07,1.47-.33,2.87-2.1,1.01-4.14-.98-1.07-1.71-2.42-2.37-3.74-1.51-3.03-3.41-5.81-3.85-9.39-1.93-15.76-21.12-23.48-35.7-16-14.68,7.52-18.01,25.77-7.58,37.68,4.74,5.42,7.17,11.86,6.16,19.25" style="fill: none; stroke: #fff; stroke-linecap: round; stroke-miterlimit: 10; stroke-width: 2px;"/>
    <path d="m57.54,28.18c-3.22-4.35,3.27-5.84,0-9.95" style="fill: none; stroke: #fff; stroke-linecap: round; stroke-miterlimit: 10; stroke-width: 2px;"/>
    <path d="m46.81,30.65c-2.4-3.72,2.2-3.72,0-7.44" style="fill: none; stroke: #fff; stroke-linecap: round; stroke-miterlimit: 10; stroke-width: 2px;"/>
    <path d="m67.42,30.65c-2.4-3.72,2.2-3.72,0-7.44" style="fill: none; stroke: #fff; stroke-linecap: round; stroke-miterlimit: 10; stroke-width: 2px;"/>
  </g>
</svg>