<?xml version="1.0" encoding="UTF-8"?>
<svg id="Layer_1" data-name="Layer 1" xmlns="http://www.w3.org/2000/svg" viewBox="0 0 120 120" width="100%" height="100%">
  <g>
    <circle cx="60" cy="60" r="55.41" style="fill: #fff; stroke: #005178; stroke-miterlimit: 10; stroke-width: 6px;"/>
    <circle cx="60" cy="60" r="48.69" style="fill: #5a97cb; stroke-width: 0px;"/>
  </g>
  <g>
    <path d="m74.17,37.48c-10.59,0-14.17,9.4-14.17,9.4,0,0-3.57-9.4-14.17-9.4s-16.97,10.1-16.97,18.42c0,13.95,31.13,35.2,31.13,35.2,0,0,31.13-21.25,31.13-35.2,0-8.32-6.38-18.42-16.97-18.42Z" style="fill: none; stroke: #fff; stroke-linecap: round; stroke-linejoin: round; stroke-width: 3px;"/>
    <polyline points="31.23 64.02 43.95 64.02 49.54 51.98 57.64 74.33 64.39 58.02 69.24 67.33 71.49 63.81 88.57 63.81" style="fill: none; stroke: #fff; stroke-linecap: round; stroke-linejoin: round; stroke-width: 2px;"/>
  </g>
</svg>