<svg width="451" height="61" viewBox="0 0 451 61" fill="none" xmlns="http://www.w3.org/2000/svg">
<path d="M42.2702 35.7896H21.4802C17.8502 35.7896 14.9102 38.7296 14.9102 42.3596V48.9296H48.8502V42.3596C48.8502 38.7296 45.9102 35.7896 42.2802 35.7896H42.2702Z" fill="#005178"/>
<path d="M31.9905 31.1198C37.3367 31.1198 41.6705 26.7859 41.6705 21.4398C41.6705 16.0936 37.3367 11.7598 31.9905 11.7598C26.6444 11.7598 22.3105 16.0936 22.3105 21.4398C22.3105 26.7859 26.6444 31.1198 31.9905 31.1198Z" fill="#005178"/>
<path d="M85.1998 35.79H64.4098C60.7798 35.79 57.8398 38.73 57.8398 42.36V48.93H91.7798V42.36C91.7798 38.73 88.8398 35.79 85.2098 35.79H85.1998Z" fill="#5A97CB"/>
<path d="M74.9202 31.1198C80.2664 31.1198 84.6002 26.7859 84.6002 21.4398C84.6002 16.0936 80.2664 11.7598 74.9202 11.7598C69.5741 11.7598 65.2402 16.0936 65.2402 21.4398C65.2402 26.7859 69.5741 31.1198 74.9202 31.1198Z" fill="#5A97CB"/>
<path d="M128.13 35.7896H107.34C103.71 35.7896 100.77 38.7296 100.77 42.3596V48.9296H134.71V42.3596C134.71 38.7296 131.77 35.7896 128.14 35.7896H128.13Z" fill="#5A97CB"/>
<path d="M117.85 31.1198C123.196 31.1198 127.53 26.7859 127.53 21.4398C127.53 16.0936 123.196 11.7598 117.85 11.7598C112.504 11.7598 108.17 16.0936 108.17 21.4398C108.17 26.7859 112.504 31.1198 117.85 31.1198Z" fill="#5A97CB"/>
<path d="M171.059 35.7896H150.269C146.639 35.7896 143.699 38.7296 143.699 42.3596V48.9296H177.639V42.3596C177.639 38.7296 174.699 35.7896 171.069 35.7896H171.059Z" fill="#5A97CB"/>
<path d="M160.78 31.1198C166.126 31.1198 170.46 26.7859 170.46 21.4398C170.46 16.0936 166.126 11.7598 160.78 11.7598C155.433 11.7598 151.1 16.0936 151.1 21.4398C151.1 26.7859 155.433 31.1198 160.78 31.1198Z" fill="#5A97CB"/>
<path d="M213.991 35.7896H193.201C189.571 35.7896 186.631 38.7296 186.631 42.3596V48.9296H220.571V42.3596C220.571 38.7296 217.631 35.7896 214.001 35.7896H213.991Z" fill="#5A97CB"/>
<path d="M203.711 31.1198C209.057 31.1198 213.391 26.7859 213.391 21.4398C213.391 16.0936 209.057 11.7598 203.711 11.7598C198.365 11.7598 194.031 16.0936 194.031 21.4398C194.031 26.7859 198.365 31.1198 203.711 31.1198Z" fill="#5A97CB"/>
<path d="M256.921 35.7896H236.131C232.501 35.7896 229.561 38.7296 229.561 42.3596V48.9296H263.501V42.3596C263.501 38.7296 260.561 35.7896 256.931 35.7896H256.921Z" fill="#5A97CB"/>
<path d="M246.641 31.1198C251.987 31.1198 256.321 26.7859 256.321 21.4398C256.321 16.0936 251.987 11.7598 246.641 11.7598C241.295 11.7598 236.961 16.0936 236.961 21.4398C236.961 26.7859 241.295 31.1198 246.641 31.1198Z" fill="#5A97CB"/>
<path d="M299.85 35.7896H279.06C275.43 35.7896 272.49 38.7296 272.49 42.3596V48.9296H306.43V42.3596C306.43 38.7296 303.49 35.7896 299.86 35.7896H299.85Z" fill="#5A97CB"/>
<path d="M289.58 31.1198C294.927 31.1198 299.26 26.7859 299.26 21.4398C299.26 16.0936 294.927 11.7598 289.58 11.7598C284.234 11.7598 279.9 16.0936 279.9 21.4398C279.9 26.7859 284.234 31.1198 289.58 31.1198Z" fill="#5A97CB"/>
<path d="M342.78 35.7896H321.99C318.36 35.7896 315.42 38.7296 315.42 42.3596V48.9296H349.36V42.3596C349.36 38.7296 346.42 35.7896 342.79 35.7896H342.78Z" fill="#5A97CB"/>
<path d="M332.51 31.1198C337.856 31.1198 342.19 26.7859 342.19 21.4398C342.19 16.0936 337.856 11.7598 332.51 11.7598C327.164 11.7598 322.83 16.0936 322.83 21.4398C322.83 26.7859 327.164 31.1198 332.51 31.1198Z" fill="#5A97CB"/>
<path d="M385.719 35.7896H364.929C361.299 35.7896 358.359 38.7296 358.359 42.3596V48.9296H392.299V42.3596C392.299 38.7296 389.359 35.7896 385.729 35.7896H385.719Z" fill="#5A97CB"/>
<path d="M375.44 31.1198C380.786 31.1198 385.12 26.7859 385.12 21.4398C385.12 16.0936 380.786 11.7598 375.44 11.7598C370.094 11.7598 365.76 16.0936 365.76 21.4398C365.76 26.7859 370.094 31.1198 375.44 31.1198Z" fill="#5A97CB"/>
<path d="M428.649 35.7896H407.859C404.229 35.7896 401.289 38.7296 401.289 42.3596V48.9296H435.229V42.3596C435.229 38.7296 432.289 35.7896 428.659 35.7896H428.649Z" fill="#5A97CB"/>
<path d="M418.369 31.1198C423.716 31.1198 428.049 26.7859 428.049 21.4398C428.049 16.0936 423.716 11.7598 418.369 11.7598C413.023 11.7598 408.689 16.0936 408.689 21.4398C408.689 26.7859 413.023 31.1198 418.369 31.1198Z" fill="#5A97CB"/>
<path d="M69.6302 13.3301C66.9902 15.0601 65.2402 18.0401 65.2402 21.4301C65.2402 24.8201 66.9902 27.8101 69.6302 29.5301V13.3301Z" fill="#005178"/>
<path d="M69.6301 35.79H64.4001C60.7701 35.79 57.8301 38.73 57.8301 42.36V48.93H69.6301V35.79Z" fill="#005178"/>
</svg>
