<?xml version="1.0" encoding="UTF-8"?>
<svg id="Layer_1" data-name="Layer 1" xmlns="http://www.w3.org/2000/svg" viewBox="0 0 120 120" width="100%" height="100%">
  <g>
    <circle cx="60" cy="60" r="55.41" style="fill: #fff; stroke: #005178; stroke-miterlimit: 10; stroke-width: 6px;"/>
    <circle cx="60" cy="60" r="48.69" style="fill: #5a97cb; stroke-width: 0px;"/>
  </g>
  <g>
    <line x1="30.78" y1="71.47" x2="93.92" y2="51.08" style="fill: none; stroke: #fff; stroke-linecap: round; stroke-miterlimit: 10; stroke-width: 2px;"/>
    <path d="m61.36,63.09l-4.91,8.51c-.44.76.11,1.71.99,1.71h9.82c.88,0,1.42-.95.99-1.71l-4.91-8.51c-.44-.76-1.53-.76-1.97,0Z" style="fill: #fff; stroke-width: 0px;"/>
    <circle cx="34.41" cy="62.51" r="6.75" style="fill: #fff; stroke-width: 0px;"/>
    <circle cx="86.26" cy="45.44" r="6.75" style="fill: #fff; stroke-width: 0px;"/>
    <g>
      <line x1="40.86" y1="45.6" x2="40.86" y2="52.92" style="fill: none; stroke: #fff; stroke-linecap: round; stroke-miterlimit: 10;"/>
      <polyline points="42.61 51.4 40.86 53.16 39.1 51.4" style="fill: none; stroke: #fff; stroke-linecap: round; stroke-linejoin: round;"/>
    </g>
    <g>
      <line x1="34.35" y1="45.6" x2="34.35" y2="52.92" style="fill: none; stroke: #fff; stroke-linecap: round; stroke-miterlimit: 10;"/>
      <polyline points="36.1 51.4 34.35 53.16 32.59 51.4" style="fill: none; stroke: #fff; stroke-linecap: round; stroke-linejoin: round;"/>
    </g>
    <g>
      <line x1="27.84" y1="45.6" x2="27.84" y2="52.92" style="fill: none; stroke: #fff; stroke-linecap: round; stroke-miterlimit: 10;"/>
      <polyline points="29.59 51.4 27.84 53.16 26.08 51.4" style="fill: none; stroke: #fff; stroke-linecap: round; stroke-linejoin: round;"/>
    </g>
  </g>
</svg>