<?xml version="1.0" encoding="UTF-8"?>
<svg id="Layer_1" data-name="Layer 1" xmlns="http://www.w3.org/2000/svg" viewBox="0 0 120 120" width="100%" height="100%">
  <g>
    <circle cx="60" cy="60" r="55.41" style="fill: #fff; stroke: #005178; stroke-miterlimit: 10; stroke-width: 6px;"/>
    <circle cx="60" cy="60" r="48.69" style="fill: #fff; stroke: #005178; stroke-miterlimit: 10; stroke-width: 6px;"/>
    <circle cx="60" cy="60" r="55.41" style="fill: #fff; stroke: #005178; stroke-miterlimit: 10; stroke-width: 6px;"/>
    <circle cx="60" cy="60" r="48.69" style="fill: #5a97cb; stroke-width: 0px;"/>
  </g>
  <path d="m60.07,37.2c-.47,0-.86.38-.86.86v3.63c-1.55.39-2.71,1.8-2.71,3.46,0,.27.03.54.09.8l-15.19,4.09s-.02,0-.03,0h-.03c-.26.08-.48.27-.58.52l-5.59,14.12c-.04.1-.06.21-.06.32,0,.02,0,.05,0,.07v.99c0,3.61,2.88,6.55,6.45,6.55s6.45-2.94,6.45-6.55v-.97c.01-.14,0-.28-.06-.41l-5.23-13.22,14.68-3.95c.47.54,1.1.93,1.81,1.11v22.02c-2.63.41-4.7,2.52-5.05,5.17h-3.58c-.48,0-.86.38-.86.86v4.56c0,.48.38.86.86.86,0,0,0,0,0,0h18.99c.48,0,.86-.39.86-.86,0,0,0,0,0,0v-4.56c0-.47-.39-.86-.86-.86h-3.45c-.36-2.69-2.49-4.83-5.18-5.19v-22.01c1.32-.33,2.36-1.41,2.63-2.76l13.59-3.66-4.96,12.53c-.05.12-.07.26-.06.39v.99c0,3.61,2.88,6.56,6.45,6.56,3.57,0,6.45-2.95,6.45-6.56v-.96c.02-.14,0-.28-.06-.41l-5.59-14.12c-.13-.33-.45-.55-.8-.55-.08,0-.15.01-.22.03h0s-14.88,4-14.88,4c-.37-1.18-1.34-2.1-2.54-2.41v-3.63c0-.48-.39-.86-.86-.86h0Zm18.51,6.05l4.32,10.93h-8.65l4.33-10.93Zm-18.51.04c1.03,0,1.85.82,1.85,1.85s-.82,1.86-1.85,1.86-1.84-.82-1.84-1.86.82-1.85,1.84-1.85Zm-18.51,9.92l4.33,10.93h-8.65l4.33-10.93Zm32.29,2.69h9.46v.19c0,2.7-2.1,4.83-4.73,4.83s-4.73-2.14-4.73-4.83v-.19Zm-37.01,9.96h9.45v.2c0,2.7-2.1,4.83-4.73,4.83s-4.73-2.13-4.73-4.83v-.2Zm22.97,6.44h.67c1.97.15,3.55,1.6,3.9,3.51h-8.47c.35-1.91,1.93-3.36,3.91-3.51Zm-8.37,5.23h17.27v2.84h-17.27v-2.84Z" style="fill: #fff; fill-rule: evenodd; stroke-width: 0px;"/>
</svg>