<?xml version="1.0" encoding="UTF-8"?>
<svg id="Layer_1" data-name="Layer 1" xmlns="http://www.w3.org/2000/svg" viewBox="0 0 120 120" width="100%" height="100%">
  <g>
    <circle cx="60" cy="60" r="55.41" style="fill: #fff; stroke: #005178; stroke-miterlimit: 10; stroke-width: 6px;"/>
    <circle cx="60" cy="60" r="48.69" style="fill: #5a97cb; stroke-width: 0px;"/>
  </g>
  <g>
    <path d="m83.75,48.02c3.69,0,6.64,3.43,5.82,7.25-.48,2.24-2.29,4.05-4.53,4.53-3.82.82-7.25-2.13-7.25-5.82,0-3.27,2.69-5.96,5.96-5.96m0-1.96c-4.88,0-8.76,4.46-7.76,9.51.61,3.08,3.09,5.56,6.17,6.17,5.05,1,9.51-2.88,9.51-7.76.07-4.36-3.56-7.92-7.92-7.92h0Z" style="fill: #fff; stroke: #fff; stroke-miterlimit: 10; stroke-width: .5px;"/>
    <path d="m71.4,72.41v-2.07c0-2.28,1.86-4.14,4.14-4.14h16.42c2.28,0,4.14,1.86,4.14,4.14v2.07c0,.54.44.98.98.98h.07c.54,0,.98-.44.98-.98v-2.07c-.07-3.34-2.83-6.1-6.17-6.1h-16.42c-3.36,0-6.1,2.75-6.1,6.1v2.07c0,.54.44.98.98.98h0c.54,0,.98-.44.98-.98Z" style="fill: #fff; stroke: #fff; stroke-miterlimit: 10; stroke-width: .5px;"/>
  </g>
  <g>
    <path d="m35.93,48.02c3.69,0,6.64,3.43,5.82,7.25-.48,2.24-2.29,4.05-4.53,4.53-3.82.82-7.25-2.13-7.25-5.82,0-3.27,2.69-5.96,5.96-5.96m0-1.96c-4.88,0-8.76,4.46-7.76,9.51.61,3.08,3.09,5.56,6.17,6.17,5.05,1,9.51-2.88,9.51-7.76.07-4.36-3.56-7.92-7.92-7.92h0Z" style="fill: #fff; stroke: #fff; stroke-miterlimit: 10; stroke-width: .5px;"/>
    <path d="m23.58,72.41v-2.07c0-2.28,1.86-4.14,4.14-4.14h16.42c2.28,0,4.14,1.86,4.14,4.14v2.07c0,.54.44.98.98.98h.07c.54,0,.98-.44.98-.98v-2.07c-.07-3.34-2.83-6.1-6.17-6.1h-16.42c-3.36,0-6.1,2.75-6.1,6.1v2.07c0,.54.44.98.98.98h0c.54,0,.98-.44.98-.98Z" style="fill: #fff; stroke: #fff; stroke-miterlimit: 10; stroke-width: .5px;"/>
  </g>
  <line x1="70.21" y1="67.96" x2="74.23" y2="72.55" style="fill: #fff; stroke: #fff; stroke-linecap: round; stroke-miterlimit: 10;"/>
  <line x1="72.55" y1="67.18" x2="77.35" y2="72.55" style="fill: #fff; stroke: #fff; stroke-linecap: round; stroke-miterlimit: 10;"/>
  <line x1="74.72" y1="66.2" x2="80.64" y2="72.55" style="fill: #fff; stroke: #fff; stroke-linecap: round; stroke-miterlimit: 10;"/>
  <line x1="77.24" y1="65.64" x2="83.58" y2="72.55" style="fill: #fff; stroke: #fff; stroke-linecap: round; stroke-miterlimit: 10;"/>
  <line x1="79.9" y1="65.17" x2="86.37" y2="72.55" style="fill: #fff; stroke: #fff; stroke-linecap: round; stroke-miterlimit: 10;"/>
  <line x1="82.47" y1="65.2" x2="89.26" y2="72.55" style="fill: #fff; stroke: #fff; stroke-linecap: round; stroke-miterlimit: 10;"/>
  <line x1="85.2" y1="65.2" x2="91.98" y2="72.55" style="fill: #fff; stroke: #fff; stroke-linecap: round; stroke-miterlimit: 10;"/>
  <line x1="87.93" y1="65.2" x2="94.71" y2="72.55" style="fill: #fff; stroke: #fff; stroke-linecap: round; stroke-miterlimit: 10;"/>
  <line x1="90.65" y1="65.2" x2="97.44" y2="72.55" style="fill: #fff; stroke: #fff; stroke-linecap: round; stroke-miterlimit: 10;"/>
  <line x1="77.24" y1="52.87" x2="83.78" y2="60.16" style="fill: #fff; stroke: #fff; stroke-linecap: round; stroke-miterlimit: 10;"/>
  <line x1="78.73" y1="50.67" x2="86.54" y2="59.23" style="fill: #fff; stroke: #fff; stroke-linecap: round; stroke-miterlimit: 10;"/>
  <line x1="80.3" y1="48.64" x2="89.22" y2="58.13" style="fill: #fff; stroke: #fff; stroke-linecap: round; stroke-miterlimit: 10;"/>
  <line x1="82.76" y1="47.31" x2="91.02" y2="56.33" style="fill: #fff; stroke: #fff; stroke-linecap: round; stroke-miterlimit: 10;"/>
  <g>
    <line x1="54.46" y1="51.83" x2="65.43" y2="51.83" style="fill: none; stroke: #fff; stroke-linecap: round; stroke-miterlimit: 10; stroke-width: 2px;"/>
    <line x1="54.46" y1="57.67" x2="65.43" y2="57.67" style="fill: none; stroke: #fff; stroke-linecap: round; stroke-miterlimit: 10; stroke-width: 2px;"/>
    <line x1="56.01" y1="62.88" x2="63.88" y2="46.91" style="fill: none; stroke: #fff; stroke-linecap: round; stroke-miterlimit: 10; stroke-width: 2px;"/>
  </g>
</svg>