<?xml version="1.0" encoding="UTF-8"?>
<svg id="Layer_1" data-name="Layer 1" xmlns="http://www.w3.org/2000/svg" viewBox="0 0 120 120" width="100%" height="100%">
  <g>
    <circle cx="60" cy="60" r="55.41" style="fill: #fff; stroke: #005178; stroke-miterlimit: 10; stroke-width: 6px;"/>
    <circle cx="60" cy="60" r="48.69" style="fill: #5a97cb; stroke-width: 0px;"/>
  </g>
  <path d="m60.03,47.56c1.77,0,3.38-1.64,3.39-3.44,0-1.8-1.61-3.44-3.39-3.44s-3.39,1.64-3.39,3.44c0,1.8,1.61,3.44,3.39,3.44Z" style="fill: #fff; stroke-width: 0px;"/>
  <path d="m61.3,67.85c1.43,0,2.69-.95,2.96-2.34l2.5-12.9c.04-.18.05-.37.05-.57,0-1.72-1.37-3.1-3.06-3.1h-7.45c-1.69,0-3.06,1.39-3.06,3.1,0,.19.01.38.05.57l2.5,12.91c.27,1.38,1.53,2.34,2.96,2.34" style="fill: #fff; stroke-width: 0px;"/>
  <path d="m44.96,49.86c1.6,0,3.05-1.45,3.05-3.05,0-1.6-1.45-3.05-3.05-3.05s-3.05,1.45-3.05,3.05c0,1.6,1.45,3.05,3.05,3.05Z" style="fill: #fff; stroke-width: 0px;"/>
  <path d="m46.11,67.85c1.29,0,2.42-.84,2.67-2.08l2.25-11.44c.03-.16.04-.33.04-.5,0-1.52-1.23-2.75-2.75-2.75h-6.71c-1.52,0-2.75,1.23-2.75,2.75,0,.17.01.34.04.5l2.25,11.44c.24,1.23,1.38,2.08,2.67,2.08" style="fill: #fff; stroke-width: 0px;"/>
  <path d="m76.85,45.03c1.99,0,3.81-1.84,3.81-3.87,0-2.03-1.81-3.87-3.81-3.87s-3.81,1.85-3.81,3.87c0,2.03,1.81,3.87,3.81,3.87Z" style="fill: #fff; stroke-width: 0px;"/>
  <path d="m78.29,67.85c1.61,0,3.03-1.07,3.33-2.64l2.81-14.52c.04-.21.05-.42.05-.64,0-1.93-1.54-3.49-3.44-3.49h-8.38c-1.9,0-3.44,1.56-3.44,3.49,0,.22.01.43.05.64l2.81,14.52c.3,1.56,1.72,2.64,3.33,2.64" style="fill: #fff; stroke-width: 0px;"/>
  <path d="m31.48,51.85c1.42,0,2.71-1.29,2.71-2.71,0-1.42-1.29-2.71-2.71-2.71s-2.71,1.29-2.71,2.71c0,1.42,1.29,2.71,2.71,2.71Z" style="fill: #fff; stroke-width: 0px;"/>
  <path d="m32.51,67.85c1.15,0,2.16-.75,2.37-1.85l2-10.17c.03-.14.04-.29.04-.45,0-1.35-1.1-2.45-2.45-2.45h-5.97c-1.35,0-2.45,1.1-2.45,2.45,0,.15,0,.3.04.45l2,10.17c.21,1.09,1.23,1.85,2.37,1.85" style="fill: #fff; stroke-width: 0px;"/>
  <path d="m22.9,71.47v6.55h63.3v4.7l10.9-7.97-10.9-7.97v4.7H22.9Z" style="fill: #fff; stroke-width: 0px;"/>
</svg>