<?xml version="1.0" encoding="UTF-8"?>
<svg id="Layer_1" data-name="Layer 1" xmlns="http://www.w3.org/2000/svg" viewBox="0 0 120 120" width="100%" height="100%">
  <g>
    <circle cx="60" cy="60" r="55.41" style="fill: #fff; stroke: #005178; stroke-miterlimit: 10; stroke-width: 6px;"/>
    <circle cx="60" cy="60" r="48.69" style="fill: #5a97cb; stroke-width: 0px;"/>
    <circle cx="60" cy="60" r="55.41" style="fill: #fff; stroke: #005178; stroke-miterlimit: 10; stroke-width: 6px;"/>
    <circle cx="60" cy="60" r="48.69" style="fill: #5a97cb; stroke-width: 0px;"/>
  </g>
  <g>
    <rect x="39.09" y="37.59" width="9.94" height="44.81" rx="4.97" ry="4.97" style="fill: none; stroke: #fff; stroke-miterlimit: 10; stroke-width: 2px;"/>
    <rect x="29.16" y="45.38" width="9.94" height="29.25" rx="4.97" ry="4.97" style="fill: none; stroke: #fff; stroke-miterlimit: 10; stroke-width: 2px;"/>
    <rect x="70.97" y="37.59" width="9.94" height="44.81" rx="4.97" ry="4.97" transform="translate(151.87 120) rotate(180)" style="fill: none; stroke: #fff; stroke-miterlimit: 10; stroke-width: 2px;"/>
    <rect x="80.91" y="45.38" width="9.94" height="29.25" rx="4.97" ry="4.97" transform="translate(171.75 120) rotate(180)" style="fill: none; stroke: #fff; stroke-miterlimit: 10; stroke-width: 2px;"/>
  </g>
  <line x1="71.03" y1="56.94" x2="49.03" y2="56.94" style="fill: none; stroke: #fff; stroke-miterlimit: 10; stroke-width: 2px;"/>
  <path d="m91.15,63.11h1.49c1.7,0,3.09-1.39,3.09-3.09s-1.39-3.09-3.09-3.09h-1.49" style="fill: none; stroke: #fff; stroke-miterlimit: 10; stroke-width: 2px;"/>
  <line x1="49.03" y1="63.11" x2="70.97" y2="63.11" style="fill: none; stroke: #fff; stroke-miterlimit: 10; stroke-width: 2px;"/>
  <path d="m28.49,56.97h-1.49c-1.7,0-3.09,1.39-3.09,3.09s1.39,3.09,3.09,3.09h1.49" style="fill: none; stroke: #fff; stroke-miterlimit: 10; stroke-width: 2px;"/>
</svg>