<?xml version="1.0" encoding="UTF-8"?>
<svg id="Layer_1" data-name="Layer 1" xmlns="http://www.w3.org/2000/svg" viewBox="0 0 120 120" width="100%" height="100%">
  <g>
    <circle cx="60" cy="60" r="55.41" style="fill: #fff; stroke: #005178; stroke-miterlimit: 10; stroke-width: 6px;"/>
    <circle cx="60" cy="60" r="55.41" style="fill: #fff; stroke: #005178; stroke-miterlimit: 10; stroke-width: 6px;"/>
    <circle cx="60.12" cy="60.07" r="48.69" style="fill: #5a97cb; stroke-width: 0px;"/>
  </g>
  <g>
    <path d="m36.88,88.39h32.08s.39-1.81-3.5-3.72c0,0,.19-10.03-1.47-12.25l2.44-.67,4.39,16.64h13.61s-1.47-3.99-5.03-4.06c-1.47-.03-2.17-.06-2.17-.06l-8.46-33.89,1.96-4.74.99.6c.27.17.59.25.91.26l10.6.03c.72,0,1.38-.44,1.65-1.11l2.09-5.23c.4-1,.15-2.14-.63-2.89l-1.06-1.01c-.49-.47-1.14-.73-1.82-.73h-5.09c-.67,0-1.31-.25-1.8-.71l-3.41-3.18c-.49-.45-1.13-.71-1.8-.71h-6.67l4.33-5.26-8.78,2.07s-4.05,14.81-6.67,19.85c-4.24,8.19-16.69,23.52-16.69,29.63,0,0-11.28-1.78-11.39-14.95,0,0-6.06,17,10.5,20.83l-.33,3.92c-.06.7.49,1.3,1.2,1.3Z" style="fill: none; stroke: #fff; stroke-linecap: round; stroke-linejoin: round; stroke-width: 1.5px;"/>
    <path d="m55.02,44.35l13.76,6.04,3.49,13.98s-6.97.84-12.75-5.42c-2.16-2.34-5.17-6.67-5.68-11.8" style="fill: none; stroke: #fff; stroke-linecap: round; stroke-linejoin: round; stroke-width: 1.5px;"/>
    <circle cx="53.2" cy="45.39" r="1.15" style="fill: none; stroke: #fff; stroke-linecap: round; stroke-linejoin: round; stroke-width: 1.5px;"/>
    <path d="m52.99,43.96s.39-2.49-.12-3.73c0,0,2.55.8,2.55,3.07" style="fill: none; stroke: #fff; stroke-linecap: round; stroke-linejoin: round; stroke-width: 1.5px;"/>
    <path d="m51.77,46.38s-2.06,1.58-3.58,1.73c0,0,2.74,1.56,5,.34" style="fill: none; stroke: #fff; stroke-linecap: round; stroke-linejoin: round; stroke-width: 1.5px;"/>
    <path d="m63.63,52.43c-.77-.77-2.02-.77-2.79,0s-.77,2.02,0,2.79l2.79,2.79,2.79-2.79c.77-.77.77-2.02,0-2.79s-2.02-.77-2.79,0Z" style="fill: none; stroke: #fff; stroke-linecap: round; stroke-linejoin: round; stroke-width: .89px;"/>
  </g>
</svg>