<?xml version="1.0" encoding="UTF-8"?>
<svg id="Layer_1" data-name="Layer 1" xmlns="http://www.w3.org/2000/svg" viewBox="0 0 120 120" width="100%" height="100%">
  <g>
    <circle cx="60" cy="60" r="55.41" style="fill: #fff; stroke: #005178; stroke-miterlimit: 10; stroke-width: 6px;"/>
    <circle cx="60" cy="60" r="48.69" style="fill: #5a97cb; stroke-width: 0px;"/>
    <circle cx="60" cy="60" r="55.41" style="fill: #fff; stroke: #005178; stroke-miterlimit: 10; stroke-width: 6px;"/>
    <circle cx="59.65" cy="59.93" r="48.69" style="fill: #5a97cb; stroke-width: 0px;"/>
  </g>
  <g>
    <polygon points="60.4 39.83 53.01 32.18 49.67 32.18 49.67 27.15 53.01 27.15 60.4 19.5 60.4 39.83" style="fill: none; stroke: #fff; stroke-linecap: round; stroke-linejoin: round;"/>
    <line x1="63.01" y1="26.1" x2="70.21" y2="33.3" style="fill: none; stroke: #fff; stroke-linecap: round; stroke-linejoin: round;"/>
    <line x1="63.01" y1="33.3" x2="70.21" y2="26.1" style="fill: none; stroke: #fff; stroke-linecap: round; stroke-linejoin: round;"/>
  </g>
  <g>
    <path d="m68.66,82.77c0-5.34-4.41-9.65-9.78-9.49-4.87.15-8.96,4.15-9.19,9.02-.15,3.01,1.12,5.73,3.18,7.56,1.73,1.53,2.71,3.74,2.71,6.05h0s7.17,0,7.17,0h0c0-2.35,1.05-4.54,2.79-6.12,1.91-1.74,3.12-4.24,3.12-7.03Z" style="fill: none; stroke: #fff; stroke-linecap: round; stroke-linejoin: round;"/>
    <line x1="62.75" y1="98.07" x2="55.58" y2="98.07" style="fill: none; stroke: #fff; stroke-linecap: round; stroke-linejoin: round;"/>
    <path d="m57.22,100.49h3.89c0,1.01-.82,1.83-1.83,1.83h-.23c-1.01,0-1.83-.82-1.83-1.83h0Z" style="fill: none; stroke: #fff; stroke-linecap: round; stroke-linejoin: round;"/>
    <line x1="58.58" y1="95.78" x2="55.51" y2="85.44" style="fill: none; stroke: #fff; stroke-linecap: round; stroke-linejoin: round;"/>
    <line x1="59.76" y1="95.78" x2="62.83" y2="85.44" style="fill: none; stroke: #fff; stroke-linecap: round; stroke-linejoin: round;"/>
    <path d="m55.68,86.01c.86,0,.86.8,1.73.8s.87-.8,1.73-.8.87.8,1.73.8.87-.8,1.73-.8" style="fill: none; stroke: #fff; stroke-linecap: round; stroke-linejoin: round;"/>
  </g>
  <g>
    <path d="m82.79,48.93h15.51c.6,0,1.09.49,1.09,1.09v1.3h-17.69v-1.3c0-.6.49-1.09,1.09-1.09Z" style="fill: none; stroke: #fff; stroke-linecap: round; stroke-linejoin: round;"/>
    <path d="m95.79,70.47h-10.49c-.75,0-1.37-.55-1.42-1.26l-1.09-17.89h15.49l-1.09,17.89c-.04.71-.66,1.26-1.42,1.26Z" style="fill: none; stroke: #fff; stroke-linecap: round; stroke-linejoin: round;"/>
    <path d="m93.19,48.54v-.4c0-.69-.59-1.25-1.32-1.25h-2.65c-.73,0-1.32.56-1.32,1.25v.4" style="fill: none; stroke: #fff; stroke-linecap: round; stroke-linejoin: round;"/>
    <g>
      <polyline points="86.98 67.55 86.6 59.93 86.38 55.47 86.3 53.76" style="fill: none; stroke: #fff; stroke-linecap: round; stroke-linejoin: round;"/>
      <line x1="94.78" y1="53.76" x2="94.1" y2="67.55" style="fill: none; stroke: #fff; stroke-linecap: round; stroke-linejoin: round;"/>
    </g>
    <line x1="90.55" y1="53.76" x2="90.55" y2="67.55" style="fill: none; stroke: #fff; stroke-linecap: round; stroke-linejoin: round;"/>
  </g>
  <g>
    <path d="m33.23,66.2h-9.22c-1.37,0-2.48-1.11-2.48-2.48v-10.64c0-1.37,1.11-2.48,2.48-2.48h10.64c1.37,0,2.48,1.11,2.48,2.48v9.29" style="fill: none; stroke: #fff; stroke-miterlimit: 10;"/>
    <g>
      <rect x="24.53" y="60.9" width="3.5" height="2.64" rx=".48" ry=".48" style="fill: none; stroke: #fff; stroke-miterlimit: 10;"/>
      <rect x="30.64" y="60.9" width="3.5" height="2.64" rx=".48" ry=".48" style="fill: none; stroke: #fff; stroke-miterlimit: 10;"/>
      <rect x="24.53" y="55.9" width="3.5" height="2.64" rx=".48" ry=".48" style="fill: none; stroke: #fff; stroke-miterlimit: 10;"/>
      <rect x="30.64" y="55.9" width="3.5" height="2.64" rx=".48" ry=".48" style="fill: none; stroke: #fff; stroke-miterlimit: 10;"/>
    </g>
    <line x1="21.53" y1="53.64" x2="37.14" y2="53.64" style="fill: none; stroke: #fff; stroke-miterlimit: 10;"/>
    <line x1="25.43" y1="51.71" x2="25.43" y2="48.96" style="fill: none; stroke: #fff; stroke-linecap: round; stroke-miterlimit: 10;"/>
    <line x1="33.23" y1="51.71" x2="33.23" y2="48.72" style="fill: none; stroke: #fff; stroke-linecap: round; stroke-miterlimit: 10;"/>
    <path d="m34.05,69.4l-1.47.48c-.56.18-1.08-.35-.89-.9l.49-1.47c.04-.11.09-.2.17-.28l5.07-5.01c.28-.28.73-.27,1,0l.98.99c.28.28.27.73,0,1l-5.07,5.01c-.08.08-.17.14-.28.17Z" style="fill: none; stroke: #fff; stroke-linecap: round; stroke-miterlimit: 10;"/>
    <path d="m38.89,60.78h1.66c.32,0,.57.26.57.57v1.7h-2.81v-1.7c0-.32.26-.57.57-.57Z" transform="translate(55.82 -9.87) rotate(45.32)" style="fill: none; stroke: #fff; stroke-linecap: round; stroke-miterlimit: 10;"/>
  </g>
  <path d="m30.31,42.58c3.44-6.23,8.81-11.27,15.29-14.31" style="fill: none; stroke: #fff; stroke-linecap: round; stroke-miterlimit: 10; stroke-width: 1.5px;"/>
  <path d="m74.41,28.27c6.48,3.04,11.84,8.08,15.29,14.31" style="fill: none; stroke: #fff; stroke-linecap: round; stroke-miterlimit: 10; stroke-width: 1.5px;"/>
  <path d="m45.6,89.73c-6.48-3.04-11.85-8.07-15.29-14.31" style="fill: none; stroke: #fff; stroke-linecap: round; stroke-miterlimit: 10; stroke-width: 1.5px;"/>
  <path d="m89.7,75.42c-3.45,6.23-8.81,11.27-15.29,14.31" style="fill: none; stroke: #fff; stroke-linecap: round; stroke-miterlimit: 10; stroke-width: 1.5px;"/>
</svg>