<?xml version="1.0" encoding="UTF-8"?>
<svg id="Layer_9" data-name="Layer 9" xmlns="http://www.w3.org/2000/svg" viewBox="0 0 137.98 141.69">
  <defs>
    <style>
      .cls-1 {
        fill: #5a97cb;
      }

      .cls-1, .cls-2 {
        stroke-width: 0px;
      }

      .cls-3 {
        stroke-width: 2px;
      }

      .cls-3, .cls-4, .cls-5 {
        stroke-miterlimit: 10;
      }

      .cls-3, .cls-5 {
        fill: none;
        stroke: #fff;
      }

      .cls-2, .cls-4 {
        fill: #fff;
      }

      .cls-4 {
        stroke: #005178;
        stroke-width: 6px;
      }

      .cls-5 {
        stroke-width: .56px;
      }
    </style>
  </defs>
  <g>
    <circle class="cls-4" cx="72.3" cy="71.27" r="55.41"/>
    <circle class="cls-1" cx="72.3" cy="71.27" r="48.69"/>
  </g>
  <g>
    <g>
      <rect class="cls-2" x="75.37" y="48.25" width="1" height="2.79" rx=".5" ry=".5"/>
      <circle class="cls-2" cx="75.87" cy="52.04" r=".5"/>
    </g>
    <polygon class="cls-5" points="75.87 43.82 77.37 47.62 81.28 46.42 79.24 49.97 82.62 52.28 78.58 52.89 78.87 56.97 75.87 54.2 72.87 56.97 73.17 52.89 69.12 52.28 72.5 49.97 70.46 46.42 74.37 47.62 75.87 43.82"/>
  </g>
  <g>
    <g>
      <rect class="cls-2" x="57.85" y="54.29" width="1" height="2.79" rx=".5" ry=".5"/>
      <circle class="cls-2" cx="58.35" cy="58.07" r=".5"/>
    </g>
    <polygon class="cls-5" points="58.35 49.85 59.85 53.66 63.76 52.46 61.72 56 65.1 58.31 61.05 58.93 61.35 63.01 58.35 60.23 55.35 63.01 55.64 58.93 51.6 58.31 54.98 56 52.94 52.46 56.85 53.66 58.35 49.85"/>
  </g>
  <path class="cls-3" d="m82.04,99.49c0-1,.14-2.02-.03-2.99-.5-2.91.75-3.73,3.52-3.54,4.2.29,8.19-.29,9.92-4.96.45-1.22.55-2.65.51-3.97-.13-4.15-.78-8.3,4.98-9.61,1.56-.35,3.04-2.23,1.07-4.38-1.04-1.14-1.81-2.57-2.51-3.96-1.59-3.21-3.61-6.15-4.08-9.95-2.04-16.69-22.36-24.86-37.8-16.95-15.54,7.97-19.07,27.28-8.02,39.9,5.02,5.74,7.59,12.56,6.53,20.39"/>
</svg>