<?xml version="1.0" encoding="UTF-8"?>
<svg id="Layer_1" data-name="Layer 1" xmlns="http://www.w3.org/2000/svg" viewBox="0 0 120 120" width="100%" height="100%">
  <g>
    <circle cx="60" cy="60" r="55.41" style="fill: #fff; stroke: #005178; stroke-miterlimit: 10; stroke-width: 6px;"/>
    <circle cx="60" cy="60" r="48.69" style="fill: #5a97cb; stroke-width: 0px;"/>
    <circle cx="60" cy="60" r="55.41" style="fill: #fff; stroke: #005178; stroke-miterlimit: 10; stroke-width: 6px;"/>
    <circle cx="60" cy="60" r="48.69" style="fill: #5a97cb; stroke-width: 0px;"/>
  </g>
  <line x1="31.64" y1="54.07" x2="31.64" y2="80.59" style="fill: none; stroke: #fff; stroke-linecap: round; stroke-linejoin: round; stroke-width: 2px;"/>
  <line x1="91.16" y1="60.36" x2="91.16" y2="80.59" style="fill: none; stroke: #fff; stroke-linecap: round; stroke-linejoin: round; stroke-width: 2px;"/>
  <line x1="31.64" y1="77.26" x2="90.99" y2="77.26" style="fill: none; stroke: #fff; stroke-linecap: round; stroke-linejoin: round; stroke-width: 2px;"/>
  <line x1="90.99" y1="73.32" x2="32.2" y2="73.32" style="fill: none; stroke: #fff; stroke-linecap: round; stroke-linejoin: round; stroke-width: 2px;"/>
  <line x1="91.1" y1="67.14" x2="31.87" y2="67.14" style="fill: none; stroke: #fff; stroke-linecap: round; stroke-linejoin: round; stroke-width: 2px;"/>
  <path d="m37.31,60.58h3.32c1.81,0,3.28,1.47,3.28,3.28v2.21c0,.59-.48,1.07-1.07,1.07h-7.73c-.59,0-1.07-.48-1.07-1.07v-2.21c0-1.81,1.47-3.28,3.28-3.28Z" style="fill: none; stroke: #fff; stroke-linecap: round; stroke-linejoin: round; stroke-width: 2px;"/>
  <rect x="44.67" y="60.95" width="43.12" height="6.15" rx="2.76" ry="2.76" style="fill: none; stroke: #fff; stroke-linecap: round; stroke-linejoin: round; stroke-width: 2px;"/>
  <polygon points="73.94 51.39 46.06 51.39 46.06 42.82 46.06 34.25 73.94 34.25 73.94 51.39" style="fill: none; stroke: #fff; stroke-linecap: round; stroke-linejoin: round; stroke-width: 2px;"/>
  <polyline points="73.68 43.24 65.7 43.24 64.65 44.51 63.51 43.13 61.53 43.13 60.32 38.12 58.95 47.51 57.36 43.35 55.93 43.35 54.64 41.12 52.8 43.35 45.76 43.35" style="fill: none; stroke: #fff; stroke-linecap: round; stroke-linejoin: round;"/>
</svg>