<?xml version="1.0" encoding="UTF-8"?>
<svg id="Layer_1" data-name="Layer 1" xmlns="http://www.w3.org/2000/svg" viewBox="0 0 120 120" width="100%" height="100%">
  <circle cx="60" cy="60" r="55.41" style="fill: #fff; stroke: #005178; stroke-miterlimit: 10; stroke-width: 6px;"/>
  <circle cx="60" cy="60" r="48.69" style="fill: #5a97cb; stroke-width: 0px;"/>
  <circle cx="43.34" cy="43.09" r="13.66" style="fill: none; stroke: #fff; stroke-linecap: round; stroke-linejoin: round; stroke-width: 2px;"/>
  <g>
    <line x1="43.34" y1="75.76" x2="43.34" y2="57.57" style="fill: none; stroke: #fff; stroke-linecap: round; stroke-linejoin: round; stroke-width: 2px;"/>
    <polygon points="51.43 69.2 49.98 67.85 43.34 75 36.69 67.85 35.24 69.2 43.34 77.91 51.43 69.2" style="fill: #fff; stroke-width: 0px;"/>
  </g>
  <g>
    <circle cx="74.62" cy="62.43" r="13.66" style="fill: none; stroke: #fff; stroke-linecap: round; stroke-linejoin: round; stroke-width: 2px;"/>
    <line x1="74.62" y1="93.23" x2="74.62" y2="76.91" style="fill: none; stroke: #fff; stroke-linecap: round; stroke-linejoin: round; stroke-width: 2px;"/>
    <line x1="68.73" y1="89.7" x2="80.5" y2="89.7" style="fill: none; stroke: #fff; stroke-linecap: round; stroke-linejoin: round; stroke-width: 2px;"/>
  </g>
  <circle cx="60" cy="60" r="55.41" style="fill: #fff; stroke: #005178; stroke-miterlimit: 10; stroke-width: 6px;"/>
  <circle cx="60" cy="60" r="48.69" style="fill: #5a97cb; stroke-width: 0px;"/>
  <g>
    <path d="m73.5,92.8h-19.48c-.92,0-1.7-.66-1.86-1.56-.69-3.93-1.54-6.77-2.23-7.41-1.15-1.07-3.87-.79-6.05-.56-.73.08-1.43.15-2.05.18-5.34.28-5.66-3.17-5.97-6.51-.08-1.3-.28-2.58-.6-3.84-.34-1.23-1.16-2.26-2.28-2.86-.89-.59-1.9-1.26-1.82-2.94.04-.82.69-1.53,1.5-2.43,1.26-1.39,2.97-3.29,2.98-6.3,0-.78-.08-1.82-.16-2.83-.06-.81-.12-1.58-.14-2.24-.22-7.08,3.86-13.39,10.91-16.87.34-.17.76-.03.93.31s.03.76-.31.93c0,0,0,0,0,0-6.56,3.24-10.35,9.06-10.15,15.59.02.63.08,1.38.14,2.18.08,1.04.17,2.11.16,2.94,0,3.54-2.01,5.76-3.34,7.23-.55.61-1.13,1.25-1.15,1.58-.05.86.31,1.13,1.2,1.72,1.39.78,2.42,2.09,2.85,3.62.35,1.34.57,2.72.65,4.1.31,3.4.5,5.46,4.53,5.25.58-.02,1.26-.09,1.97-.17,2.59-.27,5.52-.58,7.13.92,1.2,1.12,2.1,5.07,2.65,8.18.04.24.25.42.5.42h19.48c.16,0,.31-.07.41-.2.1-.13.13-.29.08-.44-.66-2.26-1.79-6.57-2.02-10.13-.14-2.2.5-5.43,1.99-7.37,4.6-5.97,6.59-10.75,6.67-15.99.01-.38.32-.68.7-.68.38,0,.69.32.68.7-.08,5.49-2.22,10.68-6.96,16.82-1.27,1.65-1.83,4.54-1.71,6.43.22,3.42,1.32,7.63,1.96,9.83.29,1-.29,2.05-1.29,2.34-.17.05-.35.08-.53.07h0Z" style="fill: #fff; stroke-width: 0px;"/>
    <path d="m40.16,74.22h-4.07c-.38,0-.69-.31-.69-.69s.31-.69.69-.69h4.07c.38,0,.69.31.69.69s-.31.69-.69.69Z" style="fill: #fff; stroke-width: 0px;"/>
    <circle cx="39.65" cy="59.62" r="1.19" style="fill: #fff; stroke-width: 0px;"/>
    <path d="m66.22,56.37c-7.87,0-14.25-6.38-14.25-14.25s6.38-14.25,14.25-14.25,14.25,6.38,14.25,14.25c0,7.87-6.38,14.24-14.25,14.25Zm0-27.12c-7.11,0-12.87,5.76-12.87,12.87s5.76,12.87,12.87,12.87,12.87-5.76,12.87-12.87c0-7.1-5.76-12.86-12.87-12.87Z" style="fill: #fff; stroke-width: 0px;"/>
    <path d="m50.68,52.27c-.24,0-.46-.12-.58-.32-3.45-5.51-3.89-12.38-1.15-18.28.16-.35.57-.49.92-.33.35.16.49.57.33.92-2.53,5.47-2.13,11.85,1.07,16.95.2.32.11.75-.21.95-.11.07-.24.11-.37.11h0Z" style="fill: #fff; stroke-width: 0px;"/>
    <path d="m65.65,60.81h-.02c-.77-.02-1.53-.09-2.29-.21-.38-.05-.65-.39-.6-.77.05-.38.39-.65.77-.6.01,0,.02,0,.04,0,.7.11,1.41.17,2.12.19.38,0,.69.32.68.7s-.32.69-.7.68h0Zm-4.37-.66c-.06,0-.12,0-.18-.03-.74-.2-1.46-.45-2.17-.75-.35-.15-.52-.55-.38-.9.15-.35.55-.52.9-.38h0c.66.27,1.33.5,2.01.69.37.1.58.48.48.85-.08.3-.36.51-.67.51Zm-4.08-1.69c-.12,0-.24-.03-.34-.09-.67-.37-1.31-.79-1.93-1.24-.31-.23-.37-.66-.15-.97.23-.31.66-.37.97-.15.57.42,1.17.81,1.79,1.15.33.19.45.61.26.94-.12.22-.35.35-.6.35h0Zm-3.56-2.61c-.18,0-.35-.07-.47-.19-.15-.14-.3-.28-.44-.43-.4-.4-.78-.81-1.13-1.24-.25-.29-.21-.73.08-.98.29-.25.73-.21.98.08,0,0,0,0,0,0,.33.4.69.78,1.05,1.15.14.14.27.27.41.4.28.26.29.7.03.98-.13.14-.31.22-.51.22h0Z" style="fill: #fff; stroke-width: 0px;"/>
    <path d="m51.69,35.34c-.3,0-.57-.19-.66-.48l-.75-2.33-2.33.76c-.36.11-.75-.09-.87-.45-.11-.36.08-.74.44-.86l2.4-.78c.69-.22,1.42.15,1.64.84,0,0,0,0,0,0l.78,2.4c.12.36-.08.75-.44.87-.07.02-.14.03-.22.03Z" style="fill: #fff; stroke-width: 0px;"/>
    <path d="m80.92,54.11c-.38,0-.69-.31-.69-.7,0-.15.05-.29.14-.41,3.57-4.85,4.44-11.19,2.32-16.83-.14-.36.04-.76.4-.89.36-.14.76.04.89.4,2.29,6.08,1.34,12.91-2.51,18.14-.13.18-.34.28-.56.28Z" style="fill: #fff; stroke-width: 0px;"/>
    <path d="m82.31,34.41c-.25,0-.49-.14-.61-.36-.25-.45-.52-.9-.8-1.34-.11-.16-.21-.32-.32-.47-.23-.31-.16-.74.14-.97.31-.23.74-.16.97.14,0,0,.01.02.02.03.12.17.23.34.35.51.31.47.6.95.87,1.44.18.34.06.76-.28.94-.1.05-.21.08-.33.08h0Zm-2.55-3.6c-.2,0-.38-.08-.51-.23-.48-.53-.99-1.02-1.52-1.49-.29-.25-.31-.69-.06-.98.25-.28.68-.31.96-.07.58.5,1.13,1.04,1.64,1.6.26.28.24.72-.05.98-.13.12-.29.18-.46.18h0Zm-3.34-2.89c-.14,0-.27-.04-.39-.12-.59-.4-1.2-.76-1.84-1.08-.34-.17-.48-.59-.31-.93.17-.34.59-.48.93-.31,0,0,0,0,0,0,.68.35,1.34.74,1.98,1.16.32.21.4.64.19.96-.13.19-.35.31-.58.31h0Zm-3.94-2c-.08,0-.16-.01-.24-.04-.67-.24-1.35-.45-2.04-.61-.37-.09-.6-.46-.52-.83s.46-.6.83-.52c.75.17,1.48.39,2.2.65.36.13.55.52.43.88-.1.28-.36.47-.66.46Z" style="fill: #fff; stroke-width: 0px;"/>
    <path d="m79.87,56.08c-.66,0-1.22-.5-1.3-1.16l-.29-2.51c-.05-.38.23-.72.6-.77s.72.23.77.6c0,0,0,0,0,0l.28,2.43,2.43-.28c.38-.04.72.23.77.61s-.23.72-.61.77l-2.51.28s-.1,0-.15,0Z" style="fill: #fff; stroke-width: 0px;"/>
    <path d="m66.22,42.81c-.38,0-.69-.31-.69-.69v-9.55c0-.38.31-.69.69-.69s.69.31.69.69v9.55c0,.38-.31.69-.69.69Z" style="fill: #fff; stroke-width: 0px;"/>
    <path d="m61.75,45.02c-.38,0-.69-.31-.69-.69,0-.26.15-.5.38-.62l4.47-2.21c.34-.18.76-.05.93.29.18.34.05.76-.29.93-.01,0-.02.01-.03.02l-4.47,2.21c-.1.05-.2.07-.31.07Z" style="fill: #fff; stroke-width: 0px;"/>
    <path d="m39.58,63.29c-.21,0-.42-.02-.63-.08-.37-.1-.59-.47-.5-.84s.47-.59.84-.5c.35.09.73,0,1-.25.25-.29.68-.33.97-.08.29.25.33.68.08.97,0,0,0,.01-.01.02-.45.5-1.1.78-1.77.76Z" style="fill: #fff; stroke-width: 0px;"/>
  </g>
</svg>