<?xml version="1.0" encoding="UTF-8"?>
<svg id="Layer_1" data-name="Layer 1" xmlns="http://www.w3.org/2000/svg" viewBox="0 0 120 120" width="100%" height="100%">
  <g>
    <circle cx="60" cy="60" r="55.41" style="fill: #fff; stroke: #005178; stroke-miterlimit: 10; stroke-width: 6px;"/>
    <circle cx="60" cy="60" r="48.69" style="fill: #5a97cb; stroke-width: 0px;"/>
    <circle cx="60" cy="60" r="55.41" style="fill: #fff; stroke: #005178; stroke-miterlimit: 10; stroke-width: 6px;"/>
    <circle cx="59.7" cy="60.8" r="48.69" style="fill: #5a97cb; stroke-width: 0px;"/>
  </g>
  <g>
    <path d="m56.07,44.97l-5.77,13.36c-.99,2.51.59,6.23,3.3,9.32l5.53,8,.82,10.16c.19,3.62,4.74,3.42,4.7.15l-.58-10.68c-.14-2.42-1.37-4.5-2.96-6.48l-3.63-4.87,2.64-8,2.76,4.03c.51.75,1.31,1.25,2.2,1.38l4.89.75c.92.14,1.84-.27,2.35-1.06h0c.9-1.4.11-3.26-1.52-3.59l-2.57-.52c-1.28-.26-2.28-1.26-2.55-2.54l-1.52-7.39c-.37-3.71-6.19-4.93-8.08-2.02Z" style="fill: none; stroke: #fff; stroke-linecap: round; stroke-linejoin: round; stroke-width: 2px;"/>
    <circle cx="65.55" cy="36.46" r="4.93" style="fill: none; stroke: #fff; stroke-linecap: round; stroke-linejoin: round; stroke-width: 2px;"/>
    <path d="m51.44,64.64l-8.1,19.12c-1.47,4.1,2.38,6.53,4.86,1.67l6.47-16.24" style="fill: none; stroke: #fff; stroke-linecap: round; stroke-linejoin: round; stroke-width: 2px;"/>
    <path d="m69.73,56.19c0-2,1.62-3.63,3.63-3.63h0c2,0,3.63,1.62,3.63,3.63v31.94" style="fill: none; stroke: #fff; stroke-linecap: round; stroke-linejoin: round; stroke-width: 2px;"/>
  </g>
</svg>