<svg width="843" height="376" viewBox="0 0 843 376" fill="none" xmlns="http://www.w3.org/2000/svg">
<g clip-path="url(#clip0_172_2)">
<g clip-path="url(#clip1_172_2)">
<path opacity="0.24" d="M149.63 324C200.164 324 241.13 283.034 241.13 232.5C241.13 181.966 200.164 141 149.63 141C99.0958 141 58.1299 181.966 58.1299 232.5C58.1299 283.034 99.0958 324 149.63 324Z" fill="#005178"/>
<path d="M138.06 132.49C188.27 132.39 229.39 173.47 229.5 223.87C229.61 274.54 188.81 315.33 137.85 315.48C87.7195 315.62 46.3695 274.28 46.4395 224.07C46.5095 173.6 87.5195 132.6 138.05 132.5L138.06 132.49ZM75.6495 215.14C75.3895 215.18 75.1395 215.22 74.8795 215.26C74.8795 212.66 73.2895 211.56 71.1595 211.45C68.4195 211.31 65.6695 211.51 62.9195 211.56C58.0795 211.65 55.4195 214.95 56.3895 219.71C56.5195 220.34 56.8395 220.95 56.8895 221.59C57.0195 223.21 57.0795 224.79 59.0295 225.38C60.9595 225.96 62.2095 224.99 63.3695 223.64C64.5895 222.22 66.0095 221.69 67.8595 222.95C66.8695 224.93 65.9195 226.85 64.7995 229.09C65.9995 229.23 66.6195 229.39 67.2295 229.36C71.6095 229.17 71.4795 229.26 71.7495 233.68C71.8395 235.19 72.9995 237.27 74.2695 237.9C75.7195 238.62 78.5095 238.77 79.5095 237.85C82.8795 234.77 86.3595 234.13 90.4895 235.61C91.0895 235.82 91.7795 235.85 92.4195 235.82C96.0995 235.64 98.7695 237.4 101.07 240.07C101.67 240.77 102.71 241.48 103.57 241.51C106.49 241.61 107.91 243.21 108.68 245.78C109.34 247.99 110.95 248.82 113.16 249.35C117.38 250.36 121.6 251.55 125.64 253.11C130.55 255.01 131.05 257.07 127.92 261.32C126 263.92 124.39 266.46 124.8 269.93C125.31 274.15 123.99 277.3 119.41 278.6C116.54 279.42 115 281.5 114.48 284.67C114.08 287.14 113.34 290.14 111.64 291.71C108.29 294.79 105.98 299.22 101.15 300.57C100.55 300.74 100.01 301.17 99.2195 301.59C123.22 314.54 157.91 315.33 186.12 296.59C214.29 277.87 225.61 246.63 224.58 226.05C222.41 227.54 220.39 228.99 218.3 230.32C216.14 231.69 214.01 233.26 211.23 232.76C209.08 225.03 204.52 219.23 198.31 214.57C198.11 215.26 198.06 215.87 198.33 216.28C202.14 222.32 205.91 228.39 209.89 234.32C211.21 236.28 213.44 236.47 215.7 235.81C216.87 235.47 218.08 235.28 219.89 234.9C218.16 239.87 215.76 243.91 212.22 246.37C206.05 250.67 204.15 255.64 206.4 262.78C207.55 266.42 205.82 269.32 202.39 271.39C200.91 272.29 199.79 274.15 199.04 275.81C197.63 278.93 196.64 282.24 195.4 285.43C195.14 286.1 194.7 286.9 194.11 287.2C190.69 288.96 187.29 290.83 183.71 292.17C181.75 292.9 179.99 291.75 178.95 289.72C177.79 287.44 175.89 285.4 175.28 283.01C174 277.97 172.34 272.69 172.73 267.65C173.1 262.95 172.99 258.72 170.58 254.88C168.88 252.16 167.88 249.72 169.03 246.57C169.23 246.02 168.43 244.46 167.98 244.41C165.12 244.11 164.55 242.84 166.46 239.99C161.68 241.12 157.56 242.18 153.41 243.05C150.32 243.7 147.37 243.5 144.77 241.24C140.31 237.38 136.72 233.22 138.14 226.71C138.28 226.09 138.17 225.41 138.13 224.76C137.86 221.01 139.42 218.12 142.22 215.74C143.7 214.48 145.46 213.34 146.47 211.75C151.61 203.63 159.99 203.43 168.11 202.67C170.12 202.48 171.12 203.6 170.72 205.88C170.58 206.7 171.08 208.25 171.69 208.5C174.38 209.61 177.22 210.37 180.12 211.3C180.34 207.16 180.38 207.14 184.09 207.82C187.47 208.44 190.84 209.22 194.25 209.53C195.47 209.64 197.4 208.93 197.94 207.98C198.66 206.72 198.34 204.87 198.47 203.27C197.16 203.23 195.86 203.18 194.55 203.16C194.28 203.16 194 203.26 193.73 203.31C190.66 203.9 187.74 201.79 187.82 198.74C187.86 197.47 187.9 196.27 186.54 196.47C185.55 196.62 184.37 197.72 183.93 198.69C183.48 199.67 183.83 201.02 183.83 202.75C182.75 201.92 181.74 201.49 181.28 200.73C180.33 199.15 179.58 197.44 178.92 195.72C177.92 193.11 176.05 191.66 173.28 191.11C173.79 192.51 174.47 193.78 175.48 194.72C177.4 196.51 177.2 198.17 176.32 199.22C173.95 197.27 171.49 195.43 169.27 193.35C167.16 191.38 164.94 192.62 162.74 192.72C160.77 192.8 161.19 194.33 160.92 195.54C160.8 196.1 160.23 196.56 159.83 197.05C158.95 198.11 157.95 199.08 157.18 200.22C155.84 202.2 150.49 203.89 148.44 202.71C147.86 202.38 147.35 201.46 147.28 200.76C146.79 195.82 148.94 193.33 153.83 193.21C155.52 193.17 156.5 192.59 155.93 190.94C155.26 189 154.18 187.2 153.18 185.11C157 185.37 159.4 182.61 161.89 179.73C163.18 178.24 165.13 177.29 166.86 176.23C167.43 175.88 168.25 175.89 168.96 175.86C171.95 175.75 174.95 175.81 177.91 175.51C178.71 175.43 179.86 174.41 180.07 173.61C181.02 169.95 182.1 166.51 186.73 165.49C184.15 163.81 180.6 167.24 179.81 163.34C179.37 161.18 180.41 158.72 180.79 156.33C178.69 156.24 176.79 156.78 176.33 159.48C176.07 161 176.02 162.57 175.62 164.05C174.88 166.77 174.1 169.49 173.06 172.1C172.52 173.43 171.28 173.33 170.4 172.19C169.51 171.04 168.73 169.8 168.28 169.14C166.11 169.31 164.19 169.99 162.82 169.4C161.45 168.81 162.13 164.2 163.54 162.46C163.83 162.1 164.23 161.82 164.49 161.45C168.18 156.21 171.85 150.95 176.07 144.91C167.29 142.24 159.27 139.81 151.14 137.34C150.07 140.21 149.27 142.37 148.45 144.52C147.48 147.05 145.54 148.06 142.93 148.55C137.6 149.55 133.09 151.93 130.55 157.09C129.4 159.42 128.2 161.73 126.94 164C126.24 165.28 125.31 165.69 124.05 164.49C120.32 160.96 118.08 150.96 119.97 146.16C120.88 143.86 121.85 141.54 120.54 138.49C116.29 139.79 112.15 141.07 108 142.31C105.77 142.98 105.94 144.27 107.3 145.53C108.44 146.58 109.87 147.31 111.3 148.27C109.54 150.14 108.68 151.05 107.86 151.92C106.76 151.25 105.92 150.75 104.43 149.84C105.16 151.75 106.15 153.06 106.01 154.24C105.82 155.79 104.75 157.24 104.06 158.73C103.07 158.16 101.8 157.82 101.16 156.99C99.5995 154.97 98.2495 152.93 95.2095 153.29C94.5895 153.36 93.9095 152.85 93.1195 152.56C95.5595 150.51 97.7995 148.63 100.05 146.75C99.8795 146.55 99.7095 146.35 99.5395 146.14C92.0695 148.93 78.1295 159.48 74.0095 165.39C76.7095 167.31 79.4095 169.23 82.1495 171.18C81.0395 173.98 81.9395 176.3 85.2195 177.61C83.6095 173.17 86.7595 171.14 89.1695 168.72C89.2295 168.66 89.2995 168.57 89.3195 168.48C89.8895 165.35 90.4895 162.22 90.9995 159.07C91.1195 158.32 90.9395 157.52 90.8995 156.7C95.0895 157.04 98.0395 159.38 98.6395 162.3C98.8695 163.45 99.6295 164.5 100.14 165.59C101.05 164.94 101.95 164.29 102.87 163.66C103 163.57 103.22 163.61 103.54 163.56C103.78 164.1 104.2 164.66 104.25 165.26C104.54 168.79 106.23 171.46 108.7 173.93C109.57 174.8 109.87 176.61 109.8 177.97C109.71 179.92 109.61 181.56 111.47 182.87C112.24 183.41 112.55 184.59 113.48 186.19C110.54 185.73 108.43 185.41 106.09 185.05C106.95 183.31 107.59 182.02 108.12 180.95H98.3095C100.12 183.09 98.0495 188 103.23 187.24C101.32 188.57 99.4095 189.91 97.4095 191.3C96.8895 190.31 96.5895 189.74 96.0895 188.79C91.8195 191.86 87.8795 194.83 85.7595 199.5C84.2995 202.71 82.2695 205.16 78.8995 206.38C76.7095 207.17 75.6095 208.59 75.8495 211.05C75.9795 212.38 75.7095 213.74 75.6295 215.09L75.6495 215.14ZM51.3795 228.58C49.2295 248.69 70.6995 287.74 88.1195 294.62C88.4395 287.72 88.7795 280.99 89.0295 274.26C89.0895 272.71 88.1695 272 86.6295 271.38C84.3895 270.47 81.8595 269.31 80.4495 267.49C76.2995 262.14 74.7595 255.68 74.2195 249.03C74.1395 248.08 74.9595 246.4 75.7095 246.16C78.3295 245.34 78.2695 243.36 78.5295 241.36C75.1962 240.833 72.2729 239.26 69.7595 236.64C68.9195 235.77 68.1495 234.79 67.1595 234.12C64.6795 232.43 62.2595 230.43 59.4895 229.42C57.0695 228.54 54.2195 228.83 51.3695 228.58H51.3795ZM217.03 185.8C210.99 188.02 210.4 189.85 212.99 194.54C213.54 195.53 213.13 197.01 213.43 198.19C213.73 199.38 214.07 200.89 214.93 201.51C215.87 202.19 217.42 202.01 218.71 202.2C218.93 200.64 219.67 198.91 219.24 197.56C218.56 195.46 216.98 193.66 215.99 191.64C215.69 191.03 215.96 190.08 216.11 189.31C216.3 188.31 216.62 187.34 217.04 185.8H217.03ZM189.31 196.01C192.98 196.01 196.26 195.49 199.27 196.16C202 196.77 203.46 196.04 205.32 193.33C202.54 192.25 200.05 190.57 197.51 190.5C195.27 190.44 193.68 190.18 192.43 188.22C192.15 188.22 191.88 188.22 191.6 188.23C190.83 190.84 190.06 193.44 189.3 196L189.31 196.01ZM225.2 216.33C221.87 214.15 218.81 212.14 215.24 209.8C214.82 213.42 216.52 215.07 218.42 216.53C220.42 218.07 222.54 218.64 225.2 216.33Z" fill="#005178"/>
<path d="M75.6498 215.14C75.7398 213.79 75.9998 212.43 75.8698 211.1C75.6398 208.65 76.7398 207.22 78.9198 206.43C82.2898 205.21 84.3198 202.77 85.7798 199.55C87.8998 194.88 91.8398 191.91 96.1098 188.84C96.6098 189.79 96.9098 190.36 97.4298 191.35C99.4298 189.96 101.34 188.62 103.25 187.29C98.0698 188.05 100.14 183.14 98.3298 181H108.14C107.61 182.07 106.97 183.36 106.11 185.1C108.45 185.46 110.56 185.79 113.5 186.24C112.57 184.64 112.26 183.46 111.49 182.92C109.63 181.61 109.73 179.97 109.82 178.02C109.88 176.67 109.59 174.85 108.72 173.98C106.25 171.51 104.56 168.83 104.27 165.31C104.22 164.72 103.8 164.16 103.56 163.61C103.24 163.65 103.02 163.61 102.89 163.71C101.97 164.34 101.07 164.99 100.16 165.64C99.6398 164.55 98.8898 163.5 98.6598 162.35C98.0598 159.43 95.1098 157.09 90.9198 156.75C90.9598 157.57 91.1398 158.37 91.0198 159.12C90.5098 162.26 89.9098 165.39 89.3398 168.53C89.3198 168.61 89.2598 168.7 89.1898 168.77C86.7798 171.19 83.6298 173.22 85.2398 177.66C81.9698 176.35 81.0598 174.03 82.1698 171.23C79.4298 169.28 76.7298 167.36 74.0298 165.44C78.1598 159.53 92.0898 148.98 99.5598 146.19C99.7298 146.39 99.8998 146.59 100.07 146.8C97.8198 148.68 95.5798 150.57 93.1398 152.61C93.9298 152.9 94.6098 153.41 95.2298 153.34C98.2698 152.97 99.6198 155.01 101.18 157.04C101.82 157.87 103.09 158.21 104.08 158.78C104.77 157.29 105.84 155.84 106.03 154.29C106.17 153.11 105.19 151.8 104.45 149.89C105.94 150.79 106.78 151.3 107.88 151.97C108.7 151.1 109.55 150.19 111.32 148.32C109.89 147.36 108.46 146.63 107.32 145.58C105.95 144.32 105.78 143.03 108.02 142.36C112.17 141.12 116.31 139.84 120.56 138.54C121.87 141.58 120.9 143.9 119.99 146.21C118.1 151 120.34 161 124.07 164.54C125.33 165.73 126.25 165.32 126.96 164.05C128.22 161.77 129.42 159.47 130.57 157.14C133.11 151.98 137.62 149.59 142.95 148.6C145.56 148.11 147.5 147.1 148.47 144.57C149.29 142.42 150.09 140.25 151.16 137.39C159.29 139.86 167.32 142.3 176.09 144.96C171.86 151 168.19 156.25 164.51 161.5C164.25 161.88 163.85 162.15 163.56 162.51C162.15 164.25 161.47 168.86 162.84 169.45C164.22 170.04 166.14 169.35 168.3 169.19C168.75 169.85 169.53 171.09 170.42 172.24C171.3 173.38 172.54 173.48 173.08 172.15C174.13 169.54 174.91 166.82 175.64 164.1C176.04 162.62 176.1 161.05 176.35 159.53C176.81 156.83 178.71 156.29 180.81 156.38C180.43 158.77 179.39 161.23 179.83 163.39C180.62 167.29 184.17 163.86 186.75 165.54C182.12 166.55 181.04 170 180.09 173.66C179.88 174.45 178.73 175.47 177.93 175.56C174.97 175.86 171.96 175.8 168.98 175.91C168.27 175.94 167.45 175.93 166.88 176.28C165.15 177.34 163.2 178.29 161.91 179.78C159.42 182.66 157.02 185.43 153.2 185.16C154.21 187.24 155.28 189.05 155.95 190.99C156.52 192.64 155.54 193.22 153.85 193.26C148.96 193.37 146.81 195.87 147.3 200.81C147.37 201.51 147.88 202.43 148.46 202.76C150.51 203.93 155.86 202.25 157.2 200.27C157.97 199.14 158.97 198.16 159.85 197.1C160.25 196.62 160.82 196.15 160.94 195.59C161.2 194.38 160.78 192.86 162.76 192.77C164.96 192.68 167.18 191.43 169.29 193.4C171.51 195.48 173.97 197.32 176.34 199.27C177.22 198.22 177.42 196.57 175.5 194.77C174.5 193.83 173.82 192.56 173.3 191.16C176.07 191.71 177.94 193.16 178.94 195.77C179.6 197.49 180.35 199.21 181.3 200.78C181.76 201.54 182.76 201.97 183.85 202.8C183.85 201.07 183.5 199.72 183.95 198.74C184.39 197.77 185.57 196.67 186.56 196.52C187.91 196.31 187.87 197.51 187.84 198.79C187.75 201.84 190.68 203.95 193.75 203.36C194.02 203.31 194.3 203.21 194.57 203.21C195.88 203.23 197.18 203.28 198.49 203.32C198.36 204.92 198.68 206.77 197.96 208.03C197.42 208.97 195.5 209.69 194.27 209.58C190.86 209.27 187.49 208.49 184.11 207.87C180.41 207.19 180.36 207.21 180.14 211.35C177.23 210.42 174.4 209.66 171.71 208.55C171.1 208.3 170.59 206.76 170.74 205.93C171.14 203.66 170.14 202.54 168.13 202.72C160 203.48 151.62 203.68 146.49 211.8C145.48 213.39 143.73 214.53 142.24 215.79C139.45 218.17 137.88 221.06 138.15 224.81C138.2 225.46 138.3 226.14 138.16 226.76C136.73 233.28 140.33 237.43 144.79 241.29C147.4 243.55 150.34 243.75 153.43 243.1C157.59 242.23 161.7 241.17 166.48 240.04C164.57 242.89 165.14 244.16 168 244.46C168.45 244.51 169.25 246.07 169.05 246.62C167.9 249.77 168.9 252.21 170.6 254.93C173 258.78 173.11 263.01 172.75 267.7C172.36 272.74 174.02 278.02 175.3 283.06C175.91 285.45 177.81 287.49 178.97 289.77C180.01 291.8 181.77 292.96 183.73 292.22C187.32 290.88 190.72 289.01 194.13 287.25C194.71 286.95 195.16 286.15 195.42 285.48C196.66 282.28 197.65 278.97 199.06 275.86C199.81 274.2 200.93 272.34 202.41 271.44C205.84 269.36 207.57 266.47 206.42 262.83C204.17 255.69 206.06 250.72 212.24 246.42C215.78 243.96 218.18 239.92 219.91 234.95C218.11 235.33 216.89 235.52 215.72 235.86C213.46 236.52 211.23 236.33 209.91 234.37C205.92 228.45 202.16 222.37 198.35 216.33C198.09 215.91 198.13 215.31 198.33 214.62C204.54 219.28 209.1 225.08 211.25 232.81C214.04 233.32 216.17 231.75 218.32 230.37C220.41 229.04 222.42 227.59 224.6 226.1C225.62 246.67 214.3 277.92 186.14 296.64C157.93 315.39 123.24 314.59 99.2398 301.64C100.03 301.21 100.56 300.79 101.17 300.62C106 299.27 108.31 294.84 111.66 291.76C113.36 290.2 114.1 287.2 114.5 284.72C115.02 281.55 116.56 279.46 119.43 278.65C124.01 277.35 125.33 274.2 124.82 269.98C124.4 266.51 126.02 263.97 127.94 261.37C131.07 257.12 130.57 255.06 125.66 253.16C121.62 251.59 117.4 250.41 113.18 249.4C110.97 248.87 109.36 248.04 108.7 245.83C107.94 243.26 106.51 241.66 103.59 241.56C102.73 241.53 101.7 240.82 101.09 240.12C98.7898 237.45 96.1198 235.69 92.4398 235.87C91.7998 235.9 91.0998 235.87 90.5098 235.66C86.3798 234.18 82.8998 234.83 79.5298 237.9C78.5198 238.82 75.7298 238.67 74.2898 237.95C73.0198 237.32 71.8598 235.24 71.7698 233.73C71.4998 229.31 71.6198 229.22 67.2498 229.41C66.6398 229.44 66.0198 229.28 64.8198 229.14C65.9398 226.9 66.8898 224.99 67.8798 223C66.0298 221.73 64.6098 222.27 63.3898 223.69C62.2298 225.03 60.9798 226.01 59.0498 225.43C57.0998 224.84 57.0398 223.25 56.9098 221.64C56.8598 221 56.5298 220.4 56.4098 219.76C55.4498 215 58.0998 211.69 62.9398 211.61C65.6898 211.56 68.4398 211.36 71.1798 211.5C73.3098 211.61 74.8998 212.71 74.8998 215.31C75.1598 215.27 75.4098 215.23 75.6698 215.19L75.6498 215.14ZM152.3 182.28C154.67 182.6 156.88 182.44 157.98 180.68C158.54 179.78 157.66 177.85 157.19 176.47C156.58 174.65 155.84 172.86 154.95 171.17C154.52 170.37 153.66 169.74 152.86 169.23C152.7 169.13 151.62 169.9 151.57 170.33C151.48 171.13 151.57 172.25 152.07 172.75C154.29 174.99 154.69 177.26 152.9 179.94C152.53 180.49 152.54 181.29 152.3 182.28ZM146.71 178.87C150.1 179.49 151.55 178.6 151.61 176.34C151.62 175.86 151.4 175.17 151.05 174.96C150.73 174.76 149.9 174.9 149.63 175.2C148.67 176.23 147.86 177.4 146.71 178.88V178.87Z" fill="#5A97CB"/>
<path d="M51.3797 228.59C54.2297 228.83 57.0797 228.54 59.4997 229.43C62.2597 230.44 64.6797 232.44 67.1697 234.13C68.1497 234.8 68.9297 235.78 69.7697 236.65C72.283 239.263 75.2063 240.837 78.5397 241.37C78.2797 243.37 78.3397 245.35 75.7197 246.17C74.9697 246.4 74.1597 248.09 74.2297 249.04C74.7697 255.69 76.3097 262.15 80.4597 267.5C81.8697 269.32 84.3997 270.48 86.6397 271.39C88.1797 272.02 89.0997 272.72 89.0397 274.27C88.7897 281 88.4497 287.74 88.1297 294.63C70.7197 287.75 49.2397 248.7 51.3897 228.59H51.3797Z" fill="#5A97CB"/>
<path d="M217.04 185.8C216.62 187.34 216.3 188.31 216.11 189.31C215.97 190.08 215.69 191.03 215.99 191.64C216.99 193.66 218.56 195.46 219.24 197.56C219.68 198.91 218.93 200.64 218.71 202.2C217.42 202.01 215.87 202.19 214.93 201.51C214.07 200.89 213.73 199.38 213.43 198.19C213.13 197 213.54 195.53 212.99 194.54C210.39 189.85 210.99 188.02 217.03 185.8H217.04Z" fill="#5A97CB"/>
<path d="M189.31 196.01C190.07 193.45 190.84 190.84 191.61 188.24C191.89 188.24 192.16 188.24 192.44 188.23C193.69 190.19 195.28 190.45 197.52 190.51C200.06 190.58 202.55 192.26 205.33 193.34C203.47 196.04 202.01 196.77 199.28 196.17C196.27 195.5 192.99 196.02 189.32 196.02L189.31 196.01Z" fill="#5A97CB"/>
<path d="M225.2 216.33C222.54 218.64 220.42 218.08 218.42 216.53C216.52 215.06 214.82 213.42 215.24 209.8C218.81 212.14 221.87 214.15 225.2 216.33Z" fill="#5A97CB"/>
<path d="M152.3 182.29C152.54 181.3 152.53 180.5 152.9 179.95C154.69 177.28 154.29 175 152.07 172.76C151.57 172.26 151.48 171.13 151.57 170.34C151.62 169.9 152.7 169.14 152.86 169.24C153.65 169.75 154.52 170.38 154.95 171.18C155.84 172.87 156.58 174.66 157.19 176.48C157.66 177.86 158.54 179.79 157.98 180.69C156.88 182.45 154.67 182.61 152.3 182.29Z" fill="#5A97CB"/>
<path d="M146.71 178.87C147.86 177.39 148.67 176.23 149.63 175.19C149.9 174.89 150.73 174.76 151.05 174.95C151.4 175.16 151.62 175.86 151.61 176.33C151.55 178.59 150.1 179.48 146.71 178.86V178.87Z" fill="#5A97CB"/>
<path d="M227.13 194.91C227.13 194.91 228.43 193.37 230.76 191.02" stroke="#9248E0" stroke-width="4.44" stroke-miterlimit="10"/>
<path d="M238.84 183.69C251.12 173.66 271.4 161.84 291.58 171.01C323.66 185.59 338.7 206.66 368.78 192.08C396.71 178.54 399.32 132 440.45 142.77" stroke="#9248E0" stroke-width="4.44" stroke-miterlimit="10"/>
<path d="M445.67 144.37C447.27 144.93 448.92 145.57 450.63 146.3" stroke="#9248E0" stroke-width="4.44" stroke-miterlimit="10"/>
<path opacity="0.24" d="M607.4 268.48C607.5 266.67 606.69 265.25 605.82 263.81C605.19 262.77 604.65 261.67 605.11 260.37C605.33 259.74 605.02 259.27 604.48 258.95C604.03 258.68 603.6 258.39 603.13 258.15C602.4 257.79 602.16 257.18 602.27 256.44C602.39 255.67 602.09 255.18 601.45 254.86C600.01 254.15 599.25 253.08 599.06 251.4C598.85 249.55 597.69 248.04 596.65 246.55C595.45 244.83 594.16 243.17 592.94 241.53C591.14 241.34 589.33 241.18 587.53 240.96C585.94 240.77 584.77 241.44 583.88 242.67C583.02 243.85 582.23 245.07 581.41 246.27C581.23 246.53 581.06 246.79 580.81 247.17C579.54 246.44 578.28 245.82 577.12 245.04C575.05 243.64 573.04 242.13 571 240.68C570.32 240.2 570.03 239.63 570.08 238.75C570.2 236.81 569.83 234.91 568.78 233.27C568.01 232.06 567 230.98 566 229.94C565 228.89 563.85 227.99 562.8 226.98C561.57 225.79 560.66 224.36 560.02 222.71C558.2 222.53 556.39 222.4 554.58 222.18C553.14 222 551.7 221.75 550.27 221.49C549.08 221.28 548.32 221.69 548 222.85C547.84 223.43 547.8 224.04 547.67 224.8C546.4 224.7 545.11 224.67 543.85 224.49C540.56 224.03 537.28 223.5 533.99 223C532.03 222.7 530.07 222.42 528.11 222.11C527.76 222.05 527.4 221.94 527.1 221.76C524.44 220.14 521.82 218.49 519.15 216.88C516.49 215.28 513.82 213.69 511.12 212.16C509.54 211.27 507.9 210.47 506.25 209.7C505.45 209.33 504.95 208.83 504.65 208C504.09 206.47 503.77 206.24 502.13 206.3C499.59 206.4 497.14 205.76 494.64 205.52C492.46 205.31 490.29 205.04 488.12 204.8C487.96 204.78 487.81 204.74 487.59 204.7C487.56 204.36 487.51 204.05 487.51 203.74C487.5 202.36 487.51 200.98 487.5 199.6C487.49 197.39 486.28 195.71 485.01 194.08C484.25 193.12 483.64 192.09 483.24 190.79H480.46C478.37 187.19 475.37 185.08 471.22 184.5C471.27 184 471.28 183.57 471.35 183.15C471.8 180.32 471.48 177.55 470.48 174.89C469.76 172.97 468.78 171.15 467.97 169.26C467.74 168.72 467.61 168.11 467.6 167.52C467.58 166.71 467.72 165.9 467.79 165.1C467.91 163.72 467.69 162.44 466.76 161.34C465.98 160.43 465.9 159.26 466.38 157.46C465.69 157.13 465.56 156.46 465.5 155.76C465.47 155.44 465.45 155.11 465.43 154.79C465.38 153.97 465.21 153.23 464.33 153.18C464.09 152.16 463.86 151.28 463.69 150.38C463.58 149.81 463.56 149.22 463.48 148.5C462.94 147.85 462.29 147.08 461.65 146.3C461.19 145.74 461 145.12 461.19 144.38C461.59 142.86 462.03 141.34 462.29 139.79C462.49 138.6 462.5 137.37 462.44 136.16C462.41 135.55 462.15 134.87 461.79 134.37C460.95 133.23 461.02 132.16 461.64 130.98C462.24 129.84 462.75 128.65 463.32 127.49C464.61 124.86 465.46 122.07 465.93 119.19C466.21 117.48 466.36 115.69 466.16 113.99C465.87 111.51 466.9 109.86 468.76 108.51C468.92 108.39 469.11 108.3 469.27 108.18C470.02 107.61 470.49 106.95 470.65 105.92C471.11 102.87 472.29 100.11 474.25 97.6901C474.47 97.4101 474.61 96.9601 474.59 96.6001C474.5 95.2501 474.84 94.0401 475.58 92.9201C476.12 92.1101 476.19 91.1801 476.16 90.2301C476.13 89.2801 476.33 88.9901 477.23 88.7701C477.89 88.6101 478.58 88.5601 479.3 88.4601C479.13 87.9201 478.69 87.9401 478.27 87.9201C477.88 87.8901 477.49 87.8601 476.97 87.8201C478.16 85.0701 477.76 82.3101 477.64 79.5701C477.54 77.1401 477.37 74.7101 477.81 72.2901C477.87 71.9701 477.94 71.6601 478.03 71.3401C478.07 71.1901 478.16 71.0501 478.27 70.8001C478.86 70.9701 479.45 71.0801 480 71.3101C481.68 72.0201 483.32 72.8101 485 73.5101C486.29 74.0501 487.62 74.5201 488.95 75.0201C489.45 74.3301 489.39 73.7001 489.35 73.0501C489.29 72.1601 489.23 71.2701 489.22 70.3801C489.22 70.0201 489.33 69.6601 489.4 69.3101C489.5 68.7501 489.84 68.5901 490.37 68.7001C491.79 69.0101 493.23 69.2701 494.64 69.6101C498.22 70.4701 501.8 71.3501 505.37 72.2501C508.55 73.0501 511.7 73.9501 514.89 74.7001C516.02 74.9701 517.22 75.0001 518.4 75.0101C519.19 75.0101 519.79 75.2401 520.35 75.7901C521.18 76.6101 521.21 76.5801 522.08 75.9801C523.44 76.5101 524.74 77.0301 526.06 77.5301C526.51 77.7001 526.99 77.8001 527.46 77.9001C531.3 78.7301 535.12 79.6301 538.98 80.3601C544.03 81.3101 549.1 82.1901 554.23 82.7301C559.11 83.2501 563.96 83.9801 568.83 84.5301C573.5 85.0601 578.19 85.4901 582.87 85.9301C586.42 86.2601 589.98 86.5701 593.53 86.8401C598.75 87.2301 603.97 87.5401 609.18 87.9301C617.4 88.5501 625.64 88.5201 633.87 88.6301C634.06 88.6301 634.26 88.5901 634.57 88.5601V85.9701C635.9 85.6001 636.64 85.9001 636.95 87.0101C637.27 88.1701 637.43 89.3701 637.69 90.7101C637.89 90.7501 638.24 90.8201 638.58 90.9001C639.36 91.0901 640.15 91.2801 640.93 91.4701C642.33 91.8201 643.72 92.1501 644.97 91.0801C645.38 90.7301 645.83 90.8401 646.23 91.0101C647.97 91.7601 649.71 92.5201 651.42 93.3301C652.37 93.7801 653.25 94.3501 654.2 94.8001C655.28 95.3201 655.81 95.2401 656.54 94.3301C657.12 93.6101 657.97 93.5101 658.61 94.2401C659.22 94.9301 659.81 95.2601 660.69 94.6301C660.95 94.4501 661.45 94.5401 661.83 94.6001C663.09 94.8301 664.34 95.1101 665.68 95.3801C665.59 95.4901 665.46 95.7301 665.26 95.8301C663.97 96.4901 662.71 97.2901 661.34 97.7001C659.06 98.3801 657.38 99.8401 655.8 101.46C654.64 102.64 653.58 103.91 652.48 105.15C652.35 105.29 652.25 105.46 652.06 105.71C653.5 105.83 654.68 105.49 655.78 104.89C656.97 104.24 658.23 103.91 659.48 103.58C660.07 104.62 659.4 105.41 659.2 106.3C659.98 106.64 660.71 106.39 661.31 106.08C662.52 105.45 663.64 104.64 664.83 103.95C665.84 103.37 666.84 102.75 667.93 102.36C668.82 102.04 669.49 101.56 670.04 100.83C670.28 100.51 670.57 100.22 670.78 99.8901C671.52 98.7201 672.61 98.5501 674.05 98.7601C673.36 100.28 672.71 101.72 671.98 103.33C672.38 103.3 672.68 103.33 672.96 103.26C673.31 103.17 673.64 102.98 673.99 102.9C675 102.66 675.49 102.86 676.07 103.7C676.25 103.97 676.41 104.25 676.61 104.51C677.91 106.19 681.14 106.38 682.59 104.86C683.34 104.07 684.06 103.58 685.31 103.78C686.2 103.93 687.2 103.5 688.13 103.23C688.92 102.99 689.67 102.6 690.52 102.24C690.58 102.65 690.6 102.93 690.67 103.2C690.83 103.81 691.14 104.32 691.8 104.52C692.69 104.79 693.58 105.07 694.47 105.32C695.64 105.65 696.26 106.3 696.34 107.28C696.38 107.74 696.24 108.05 695.75 108.19C692.94 109 690.14 109.85 687.16 109.46C685.91 109.3 684.82 109.49 684.01 110.54C683.96 110.6 683.89 110.65 683.83 110.7C682.73 111.7 682.56 111.72 681.21 110.94C680.8 111.5 680.37 112.07 679.97 112.66C678.99 114.09 677.83 115.41 677.32 117.12C677.19 117.56 676.92 118.03 677.43 118.51C677.92 118.23 678.09 117.72 678.39 117.32C678.63 117.01 678.88 116.65 679.21 116.48C679.47 116.34 679.91 116.35 680.18 116.48C680.31 116.54 680.31 117.06 680.23 117.34C679.88 118.5 679.47 119.64 679.09 120.79C678.13 123.7 677.83 126.73 677.69 129.77C677.58 132.2 677.7 134.64 677.62 137.07C677.58 138.33 678.03 139.41 678.66 140.38C679.52 141.69 680.59 142.86 681.57 144.08C681.87 144.45 682.21 144.48 682.65 144.34C683.68 144 684.35 143.31 684.83 142.36C685.57 140.91 685.63 139.33 685.94 137.78C686.32 135.9 685.92 134.26 685.09 132.55C684.34 131 683.98 129.25 683.96 127.48C683.94 126.04 684.39 124.79 685.5 123.74C684.61 122.46 684.6 121.03 684.97 119.58C685.2 118.68 685.6 117.85 686.37 117.24C687.12 116.64 687.29 116.62 687.98 117.32C688.46 117.81 688.99 118.1 689.83 117.89C689.75 117.29 689.68 116.7 689.6 116.12C689.41 114.63 689.6 114.31 691.13 113.67C690.85 112.95 690.57 112.22 690.25 111.41C691.76 110.38 693.5 110.5 695.22 111.09C697.2 111.76 699.05 112.84 701.24 113.01C701.24 113.45 701.17 113.82 701.26 114.16C701.43 114.81 701.56 115.53 701.95 116.05C702.71 117.07 703.02 118.12 702.75 119.34C702.36 121.1 701.75 122.73 700.45 124.06C700.06 124.46 699.75 125.07 699.65 125.62C699.52 126.4 700.1 126.74 700.81 126.35C701.11 126.19 701.35 125.88 701.54 125.59C701.9 125.05 702.18 124.46 702.54 123.92C703.18 122.96 704.53 122.8 705.41 123.55C705.69 123.79 705.99 124.03 706.17 124.33C707.17 125.98 708.41 127.49 709.08 129.33C709.46 130.38 709.32 131.4 709.16 132.44C709.02 133.35 708.24 133.72 707.65 134.25C707.4 134.47 707.06 134.77 707.04 135.05C706.91 137.26 705.95 139.08 704.53 140.7C704.48 140.76 704.46 140.84 704.41 140.92C704.44 141.53 704.92 141.7 705.39 141.83C706.87 142.23 708.36 142.62 709.85 142.99C710.07 143.04 710.34 142.99 710.56 142.91C711.76 142.44 713 142.01 714.15 141.43C715.77 140.61 717.12 139.47 717.75 137.61C718.92 137.99 719.8 137.57 720.68 136.88C722.59 135.39 724.58 134 726.47 132.49C727.19 131.92 727.78 131.17 728.36 130.46C728.95 129.74 728.84 128.41 728.2 127.49C727.9 127.06 727.59 126.63 727.37 126.16C727.13 125.63 727.2 125.13 727.81 124.84C727.99 124.76 728.14 124.6 728.32 124.53C731.07 123.45 733.85 122.63 736.83 123.68C737.11 123.78 737.49 123.76 737.78 123.67C741.19 122.61 742.4 120.89 742.93 117.51C743.08 116.56 742.97 115.57 743 114.6C743.01 114.25 742.96 113.83 743.12 113.55C744.01 112.02 745.06 110.57 745.87 109C746.72 107.35 748.17 106.81 749.78 106.48C752.24 105.97 754.72 105.59 757.17 105.06C758.62 104.75 760.05 104.32 761.38 103.56C762.24 103.07 763.23 102.81 764.19 102.51C764.39 102.45 764.69 102.69 764.94 102.81C765.87 103.26 766.28 103.01 766.3 101.95C766.35 99.9901 766.4 99.8501 768.25 99.3401C769.1 99.1001 769.57 98.6001 769.85 97.8501C769.99 97.4701 770.1 97.0801 770.16 96.6801C770.31 95.7701 770.61 94.9601 771.57 94.4001C770.83 93.1201 771.17 91.8101 771.34 90.4901C771.43 89.7901 771.23 89.0601 771.2 88.3501C771.18 87.8801 771.14 87.3901 771.25 86.9401C771.78 84.7701 772.77 82.7801 773.8 80.7401C774.12 80.7701 774.44 80.7601 774.75 80.8301C776.92 81.3101 777.49 81.1301 778.89 79.4001C779.98 79.9001 781.09 80.4201 782.21 80.9301C782.23 80.8901 782.25 80.8601 782.27 80.8201C782.3 80.8501 782.33 80.8701 782.35 80.9101C783.17 83.3601 784.15 85.7801 784.74 88.2901C785.18 90.1701 786.06 91.5401 787.63 92.5201C788.38 92.9901 788.81 93.6601 788.84 94.5101C788.87 95.2401 789.3 95.4801 789.88 95.6401C790 95.6701 790.12 95.6801 790.24 95.7101C791.73 95.9801 792 96.5501 791.2 97.8301C790.92 98.2701 790.56 98.6801 790.16 99.0101C789.15 99.8701 788.35 100.85 788.1 102.17C787.3 102.51 786.65 102.26 785.99 101.88C784.76 101.17 784.3 101.4 783.98 102.81C783.75 103.84 783.51 103.95 781.96 103.71C781.57 105.07 782.01 106.5 781.7 107.9C781.33 107.98 780.96 108.01 780.64 108.15C780.25 108.32 779.79 108.52 779.55 108.84C778.86 109.77 778.08 110.45 776.78 110.31C776.73 111.25 776.76 112.15 776.63 113.02C776.28 115.34 775.9 117.66 775.44 119.96C775.25 120.9 775.51 121.53 776.24 122.05C777.19 122.73 778.11 123.45 779.08 124.12C780.45 125.07 780.61 125.67 779.99 127.2C779.7 127.9 779.54 128.65 779.3 129.46C778.47 129.71 777.64 129.42 776.85 128.99C776.78 128.95 776.74 128.87 776.67 128.83C776.16 128.52 775.63 128.02 775.01 128.3C774.39 128.58 774.59 129.29 774.56 129.83C774.5 131.07 774.51 131.06 773.3 131.33C770.91 131.86 768.72 132.91 766.56 134.02C765.2 134.71 763.85 135.43 762.42 136.18C762.78 136.65 763.24 136.81 763.7 136.74C764.45 136.62 765.2 136.44 765.91 136.18C767.26 135.68 768.59 135.29 770.12 135.7C770.1 136.71 769.52 137.29 768.79 137.73C768.17 138.1 767.49 138.4 766.83 138.68C765.98 139.04 765.26 139.56 764.86 140.4C764.58 140.99 764.16 141.1 763.59 141.09C762.66 141.07 761.73 141.09 760.69 141.09C761.83 143.92 761.71 146.79 761.68 149.66C761.68 150.35 761.43 150.87 760.98 151.4C760.17 152.34 759.46 153.37 758.64 154.45C757.74 154.48 757.36 153.61 756.81 153.02C756.4 152.57 756.02 152.13 755.27 152.01C755.37 154.28 756.79 155.32 758.7 156C758.7 158.35 758.72 160.69 758.69 163.03C758.69 163.54 758.59 164.1 757.95 164.39C757.47 164.02 757.02 163.52 756.45 163.27C755.92 163.04 755.28 163.07 754.79 163C754.19 162.42 753.68 161.8 753.05 161.35C752.44 160.92 751.7 160.66 750.93 160.28C751.86 158.86 751.64 157.45 750.93 156.04C750.36 154.92 750.14 153.75 750.67 152.5C749.27 151.96 749.17 153.54 748.12 153.75C749.23 155.27 749.25 156.95 749.45 158.58C749.62 159.92 750.2 160.94 751.5 161.6C750.47 163.08 751.27 164.21 752.13 165.34C752.67 166.05 752.76 166.37 752.86 167.53C752.52 167.59 752.17 167.64 751.7 167.72C752.32 168.79 752.85 169.85 753.71 170.72C754.66 171.68 755.9 171.59 757.24 171.63C757.17 173.75 757.96 175.81 757.11 177.89C756.72 178.84 756.75 178.81 755.74 178.93C754.94 179.03 754.15 179.22 753.39 179.47C753.05 179.59 752.73 179.93 752.53 180.25C752.44 180.4 752.57 180.82 752.74 180.97C752.89 181.1 753.28 181.1 753.46 180.99C753.86 180.73 754.21 180.38 754.57 180.06C755.18 179.51 755.83 179.42 756.72 179.9C756.45 180.52 756.19 181.11 755.92 181.73C756.51 182.06 756.9 181.91 757.17 181.41C757.28 181.2 757.3 180.94 757.38 180.71C757.82 179.41 758.09 179.3 759.47 179.86C760.01 181.35 758.39 182.45 758.85 184.04H753.5C753.48 184.12 753.45 184.2 753.43 184.28C753.67 184.44 753.9 184.61 754.14 184.76C755.09 185.36 755.28 185.98 754.83 187.02C754.81 187.06 754.8 187.09 754.78 187.13C754.427 187.943 754.644 188.52 755.43 188.86C755.54 188.91 755.63 188.99 755.74 189.07C755.84 189.77 755.43 190.12 754.85 190.3C754.51 190.4 754.13 190.51 753.78 190.47C752.84 190.36 752.33 190.85 752.01 191.62C751.73 192.29 751.42 192.82 750.53 192.78C750.29 192.77 750.01 193.2 749.79 193.47C749.37 194 749.04 194.64 748.56 195.1C747.44 196.16 746.59 197.34 746.52 198.95C746.04 199.04 745.61 199.14 745.18 199.2C743.76 199.41 743.19 200.6 742.41 201.55C741.4 202.77 740.74 204.14 740.84 205.76C740.88 206.51 740.31 206.87 739.91 207.24C738.12 208.87 736.38 210.54 735.04 212.68C734.38 212.22 733.77 211.79 733.02 211.27C732.66 212.18 732.33 212.94 732.04 213.72C731.55 215.06 730.94 216.32 729.86 217.3C729.56 217.57 729.46 217.88 729.61 218.28C730.19 219.86 729.65 221.11 728.49 222.22C727.6 223.08 727.61 223.57 728.47 224.43C728.56 224.52 728.65 224.6 728.73 224.68C729.61 225.55 729.61 225.61 728.73 226.51C729.52 228.17 730.28 229.87 731.13 231.51C732.27 233.69 733.49 235.83 734.68 237.98C735.93 240.24 737.2 242.48 738.43 244.75C739.47 246.67 740.49 248.6 741.45 250.57C742.62 252.96 743.71 255.39 744.82 257.81C744.97 258.14 745.13 258.49 745.15 258.84C745.35 261.84 744.69 264.69 743.77 267.53C743.3 268.97 742.33 269.51 741.13 269.98C740.91 270.07 740.65 270.12 740.42 270.09C739.05 269.95 736.85 269.11 736.71 267.03C736.64 266 736.13 265.63 735.26 265.45C734.43 265.28 733.59 265.1 732.77 264.87C732.39 264.76 732.05 264.53 731.6 264.3C731.87 262.76 731.12 261.6 730.18 260.49C729.9 260.16 729.67 259.73 729.59 259.31C729.43 258.46 728.91 258.07 728.13 257.89C727.78 257.81 727.43 257.7 727.07 257.63C725.68 257.39 725 256.51 724.78 255.17C724.53 253.64 724.57 252.17 725.79 250.89C723.88 249.71 723.65 247.86 723.44 245.99C723.37 245.39 723.32 244.77 723.15 244.19C722.82 243 722.28 241.97 721.03 241.44C719.51 240.79 718.44 239.53 717.25 238.44C715.94 237.23 714.54 236.14 712.94 235.35C711.93 234.85 710.92 234.83 710 235.64C708.91 236.6 707.76 237.49 706.69 238.46C705.65 239.4 704.56 239.39 703.65 238.34C703.39 238.04 703.09 237.73 702.93 237.37C702.25 235.87 700.97 235.42 699.48 235.32C698.31 235.24 697.13 235.2 695.96 235.12C694.53 235.02 693.13 234.8 692.1 233.62C691.08 234.27 690.13 234.86 689.18 235.46C688.94 235.61 688.71 235.78 688.47 235.92C687.47 236.49 686.56 236.39 685.78 235.55C685.34 235.08 684.98 234.55 684.6 234.03C684.48 233.87 684.42 233.67 684.23 233.29C683.66 234.22 683.28 234.82 682.92 235.43C682.43 236.28 682.21 236.42 681.28 236.19C679.07 235.64 677.13 236.47 675.2 237.32C674.94 237.43 674.7 237.6 674.44 237.69C673.15 238.13 672.51 237.87 671.89 236.67C671.07 236.82 670.25 236.98 669.43 237.13C669.57 237.92 670.27 238.55 671.25 238.67C671.93 238.75 672.63 238.72 673.32 238.75C673.68 238.77 674.05 238.77 674.41 238.84C674.83 238.92 675.4 238.84 675.51 239.41C675.62 239.99 675.46 240.54 674.99 240.95C674.79 241.13 674.55 241.27 674.28 241.46C675.39 242.84 677.02 243.37 678.35 244.34C678.16 245.2 677.55 245.45 676.83 245.51C674.99 245.66 673.4 245.08 672.08 243.8C672 243.82 671.91 243.82 671.87 243.87C670.17 245.95 667.89 245.83 665.62 245.4C663.23 244.94 661.21 243.84 659.64 241.39C658.61 241.34 657.74 241.86 657.06 242.51C656.1 243.42 655.04 243.57 653.82 243.5C651.4 243.35 649.12 242.65 646.92 241.69C646.26 241.4 645.79 241.41 645.25 241.78C644.38 242.37 643.48 242.91 642.63 243.53C641.24 244.56 639.86 244.45 638.38 243.56C637.88 244.55 637.43 245.58 636.85 246.53C636.07 247.8 635.2 249.01 634.33 250.22C634.17 250.44 633.77 250.61 633.5 250.59C632.52 250.52 631.66 250.85 630.85 251.32C629.87 251.89 628.89 252.03 627.83 251.56C627.65 251.48 627.39 251.55 626.9 251.55C627.25 252.04 627.44 252.36 627.69 252.63C627.98 252.94 628.32 253.23 628.02 253.66C627.7 254.12 627.19 254.16 626.7 253.97C626.3 253.81 625.94 253.55 625.48 253.28C624.96 255 623.72 256.01 622.47 257.05C621.59 257.79 620.94 258.74 621.05 260.05C620.34 260.09 619.7 260.12 619.02 260.15C618.81 261.19 619.04 262.12 619.38 263.03C619.63 263.71 619.96 264.38 620.08 265.09C620.19 265.7 620.19 266.41 619.98 266.98C619.77 267.57 619.83 267.97 620.18 268.42C620.96 269.43 621.21 270.6 621.18 271.85C621.15 273.13 620.57 273.52 619.36 273.08C618.45 272.74 617.54 272.39 616.67 271.98C615.76 271.55 614.82 271.42 613.83 271.44C613.52 271.44 613.11 271.45 612.91 271.28C611.41 269.96 609.57 269.33 607.75 268.65C607.67 268.62 607.61 268.57 607.44 268.49L607.4 268.48Z" fill="#005178"/>
<path d="M597.4 256.48C597.5 254.67 596.69 253.25 595.82 251.81C595.19 250.77 594.65 249.67 595.11 248.37C595.33 247.74 595.02 247.27 594.48 246.95C594.03 246.68 593.6 246.39 593.13 246.15C592.4 245.79 592.16 245.18 592.27 244.44C592.39 243.67 592.09 243.18 591.45 242.86C590.01 242.15 589.25 241.08 589.06 239.4C588.85 237.55 587.69 236.04 586.65 234.55C585.45 232.83 584.16 231.17 582.94 229.53C581.14 229.34 579.33 229.18 577.53 228.96C575.94 228.77 574.77 229.44 573.88 230.67C573.02 231.85 572.23 233.07 571.41 234.27C571.23 234.53 571.06 234.79 570.81 235.17C569.54 234.44 568.28 233.82 567.12 233.04C565.05 231.64 563.04 230.13 561 228.68C560.32 228.2 560.03 227.63 560.08 226.75C560.2 224.81 559.83 222.91 558.78 221.27C558.01 220.06 557 218.98 556 217.94C555 216.89 553.85 215.99 552.8 214.98C551.57 213.79 550.66 212.36 550.02 210.71C548.2 210.53 546.39 210.4 544.58 210.18C543.14 210 541.7 209.75 540.27 209.49C539.08 209.28 538.32 209.69 538 210.85C537.84 211.43 537.8 212.04 537.67 212.8C536.4 212.7 535.11 212.67 533.85 212.49C530.56 212.03 527.28 211.5 523.99 211C522.03 210.7 520.07 210.42 518.11 210.11C517.76 210.05 517.4 209.94 517.1 209.76C514.44 208.14 511.82 206.49 509.15 204.88C506.49 203.28 503.82 201.69 501.12 200.16C499.54 199.27 497.9 198.47 496.25 197.7C495.45 197.33 494.95 196.83 494.65 196C494.09 194.47 493.77 194.24 492.13 194.3C489.59 194.4 487.14 193.76 484.64 193.52C482.46 193.31 480.29 193.04 478.12 192.8C477.96 192.78 477.81 192.74 477.59 192.7C477.56 192.36 477.51 192.05 477.51 191.74C477.5 190.36 477.51 188.98 477.5 187.6C477.49 185.39 476.28 183.71 475.01 182.08C474.25 181.12 473.64 180.09 473.24 178.79H470.46C468.37 175.19 465.37 173.08 461.22 172.5C461.27 172 461.28 171.57 461.35 171.15C461.8 168.32 461.48 165.55 460.48 162.89C459.76 160.97 458.78 159.15 457.97 157.26C457.74 156.72 457.61 156.11 457.6 155.52C457.58 154.71 457.72 153.9 457.79 153.1C457.91 151.72 457.69 150.44 456.76 149.34C455.98 148.43 455.9 147.26 456.38 145.46C455.69 145.13 455.56 144.46 455.5 143.76C455.47 143.44 455.45 143.11 455.43 142.79C455.38 141.97 455.21 141.23 454.33 141.18C454.09 140.16 453.86 139.28 453.69 138.38C453.58 137.81 453.56 137.22 453.48 136.5C452.94 135.85 452.29 135.08 451.65 134.3C451.19 133.74 451 133.12 451.19 132.38C451.59 130.86 452.03 129.34 452.29 127.79C452.49 126.6 452.5 125.37 452.44 124.16C452.41 123.55 452.15 122.87 451.79 122.37C450.95 121.23 451.02 120.16 451.64 118.98C452.24 117.84 452.75 116.65 453.32 115.49C454.61 112.86 455.46 110.07 455.93 107.19C456.21 105.48 456.36 103.69 456.16 101.99C455.87 99.5101 456.9 97.8601 458.76 96.5101C458.92 96.3901 459.11 96.3001 459.27 96.1801C460.02 95.6101 460.49 94.9501 460.65 93.9201C461.11 90.8701 462.29 88.1101 464.25 85.6901C464.47 85.4101 464.61 84.9601 464.59 84.6001C464.5 83.2501 464.84 82.0401 465.58 80.9201C466.12 80.1101 466.19 79.1801 466.16 78.2301C466.13 77.2801 466.33 76.9901 467.23 76.7701C467.89 76.6101 468.58 76.5601 469.3 76.4601C469.13 75.9201 468.69 75.9401 468.27 75.9201C467.88 75.8901 467.49 75.8601 466.97 75.8201C468.16 73.0701 467.76 70.3101 467.64 67.5701C467.54 65.1401 467.37 62.7101 467.81 60.2901C467.87 59.9701 467.94 59.6601 468.03 59.3401C468.07 59.1901 468.16 59.0501 468.27 58.8001C468.86 58.9701 469.45 59.0801 470 59.3101C471.68 60.0201 473.32 60.8101 475 61.5101C476.29 62.0501 477.62 62.5201 478.95 63.0201C479.45 62.3301 479.39 61.7001 479.35 61.0501C479.29 60.1601 479.23 59.2701 479.22 58.3801C479.22 58.0201 479.33 57.6601 479.4 57.3101C479.5 56.7501 479.84 56.5901 480.37 56.7001C481.79 57.0101 483.23 57.2701 484.64 57.6101C488.22 58.4701 491.8 59.3501 495.37 60.2501C498.55 61.0501 501.7 61.9501 504.89 62.7001C506.02 62.9701 507.22 63.0001 508.4 63.0101C509.19 63.0101 509.79 63.2401 510.35 63.7901C511.18 64.6101 511.21 64.5801 512.08 63.9801C513.44 64.5101 514.74 65.0301 516.06 65.5301C516.51 65.7001 516.99 65.8001 517.46 65.9001C521.3 66.7301 525.12 67.6301 528.98 68.3601C534.03 69.3101 539.1 70.1901 544.23 70.7301C549.11 71.2501 553.96 71.9801 558.83 72.5301C563.5 73.0601 568.19 73.4901 572.87 73.9301C576.42 74.2601 579.98 74.5701 583.53 74.8401C588.75 75.2301 593.97 75.5401 599.18 75.9301C607.4 76.5501 615.64 76.5201 623.87 76.6301C624.06 76.6301 624.26 76.5901 624.57 76.5601V73.9701C625.9 73.6001 626.64 73.9001 626.95 75.0101C627.27 76.1701 627.43 77.3701 627.69 78.7101C627.89 78.7501 628.24 78.8201 628.58 78.9001C629.36 79.0901 630.15 79.2801 630.93 79.4701C632.33 79.8201 633.72 80.1501 634.97 79.0801C635.38 78.7301 635.83 78.8401 636.23 79.0101C637.97 79.7601 639.71 80.5201 641.42 81.3301C642.37 81.7801 643.25 82.3501 644.2 82.8001C645.28 83.3201 645.81 83.2401 646.54 82.3301C647.12 81.6101 647.97 81.5101 648.61 82.2401C649.22 82.9301 649.81 83.2601 650.69 82.6301C650.95 82.4501 651.45 82.5401 651.83 82.6001C653.09 82.8301 654.34 83.1101 655.68 83.3801C655.59 83.4901 655.46 83.7301 655.26 83.8301C653.97 84.4901 652.71 85.2901 651.34 85.7001C649.06 86.3801 647.38 87.8401 645.8 89.4601C644.64 90.6401 643.58 91.9101 642.48 93.1501C642.35 93.2901 642.25 93.4601 642.06 93.7101C643.5 93.8301 644.68 93.4901 645.78 92.8901C646.97 92.2401 648.23 91.9101 649.48 91.5801C650.07 92.6201 649.4 93.4101 649.2 94.3001C649.98 94.6401 650.71 94.3901 651.31 94.0801C652.52 93.4501 653.64 92.6401 654.83 91.9501C655.84 91.3701 656.84 90.7501 657.93 90.3601C658.82 90.0401 659.49 89.5601 660.04 88.8301C660.28 88.5101 660.57 88.2201 660.78 87.8901C661.52 86.7201 662.61 86.5501 664.05 86.7601C663.36 88.2801 662.71 89.7201 661.98 91.3301C662.38 91.3001 662.68 91.3301 662.96 91.2601C663.31 91.1701 663.64 90.9801 663.99 90.9001C665 90.6601 665.49 90.8601 666.07 91.7001C666.25 91.9701 666.41 92.2501 666.61 92.5101C667.91 94.1901 671.14 94.3801 672.59 92.8601C673.34 92.0701 674.06 91.5801 675.31 91.7801C676.2 91.9301 677.2 91.5001 678.13 91.2301C678.92 90.9901 679.67 90.6001 680.52 90.2401C680.58 90.6501 680.6 90.9301 680.67 91.2001C680.83 91.8101 681.14 92.3201 681.8 92.5201C682.69 92.7901 683.58 93.0701 684.47 93.3201C685.64 93.6501 686.26 94.3001 686.34 95.2801C686.38 95.7401 686.24 96.0501 685.75 96.1901C682.94 97.0001 680.14 97.8501 677.16 97.4601C675.91 97.3001 674.82 97.4901 674.01 98.5401C673.96 98.6001 673.89 98.6501 673.83 98.7001C672.73 99.7001 672.56 99.7201 671.21 98.9401C670.8 99.5001 670.37 100.07 669.97 100.66C668.99 102.09 667.83 103.41 667.32 105.12C667.19 105.56 666.92 106.03 667.43 106.51C667.92 106.23 668.09 105.72 668.39 105.32C668.63 105.01 668.88 104.65 669.21 104.48C669.47 104.34 669.91 104.35 670.18 104.48C670.31 104.54 670.31 105.06 670.23 105.34C669.88 106.5 669.47 107.64 669.09 108.79C668.13 111.7 667.83 114.73 667.69 117.77C667.58 120.2 667.7 122.64 667.62 125.07C667.58 126.33 668.03 127.41 668.66 128.38C669.52 129.69 670.59 130.86 671.57 132.08C671.87 132.45 672.21 132.48 672.65 132.34C673.68 132 674.35 131.31 674.83 130.36C675.57 128.91 675.63 127.33 675.94 125.78C676.32 123.9 675.92 122.26 675.09 120.55C674.34 119 673.98 117.25 673.96 115.48C673.94 114.04 674.39 112.79 675.5 111.74C674.61 110.46 674.6 109.03 674.97 107.58C675.2 106.68 675.6 105.85 676.37 105.24C677.12 104.64 677.29 104.62 677.98 105.32C678.46 105.81 678.99 106.1 679.83 105.89C679.75 105.29 679.68 104.7 679.6 104.12C679.41 102.63 679.6 102.31 681.13 101.67C680.85 100.95 680.57 100.22 680.25 99.4101C681.76 98.3801 683.5 98.5001 685.22 99.0901C687.2 99.7601 689.05 100.84 691.24 101.01C691.24 101.45 691.17 101.82 691.26 102.16C691.43 102.81 691.56 103.53 691.95 104.05C692.71 105.07 693.02 106.12 692.75 107.34C692.36 109.1 691.75 110.73 690.45 112.06C690.06 112.46 689.75 113.07 689.65 113.62C689.52 114.4 690.1 114.74 690.81 114.35C691.11 114.19 691.35 113.88 691.54 113.59C691.9 113.05 692.18 112.46 692.54 111.92C693.18 110.96 694.53 110.8 695.41 111.55C695.69 111.79 695.99 112.03 696.17 112.33C697.17 113.98 698.41 115.49 699.08 117.33C699.46 118.38 699.32 119.4 699.16 120.44C699.02 121.35 698.24 121.72 697.65 122.25C697.4 122.47 697.06 122.77 697.04 123.05C696.91 125.26 695.95 127.08 694.53 128.7C694.48 128.76 694.46 128.84 694.41 128.92C694.44 129.53 694.92 129.7 695.39 129.83C696.87 130.23 698.36 130.62 699.85 130.99C700.07 131.04 700.34 130.99 700.56 130.91C701.76 130.44 703 130.01 704.15 129.43C705.77 128.61 707.12 127.47 707.75 125.61C708.92 125.99 709.8 125.57 710.68 124.88C712.59 123.39 714.58 122 716.47 120.49C717.19 119.92 717.78 119.17 718.36 118.46C718.95 117.74 718.84 116.41 718.2 115.49C717.9 115.06 717.59 114.63 717.37 114.16C717.13 113.63 717.2 113.13 717.81 112.84C717.99 112.76 718.14 112.6 718.32 112.53C721.07 111.45 723.85 110.63 726.83 111.68C727.11 111.78 727.49 111.76 727.78 111.67C731.19 110.61 732.4 108.89 732.93 105.51C733.08 104.56 732.97 103.57 733 102.6C733.01 102.25 732.96 101.83 733.12 101.55C734.01 100.02 735.06 98.5701 735.87 97.0001C736.72 95.3501 738.17 94.8101 739.78 94.4801C742.24 93.9701 744.72 93.5901 747.17 93.0601C748.62 92.7501 750.05 92.3201 751.38 91.5601C752.24 91.0701 753.23 90.8101 754.19 90.5101C754.39 90.4501 754.69 90.6901 754.94 90.8101C755.87 91.2601 756.28 91.0101 756.3 89.9501C756.35 87.9901 756.4 87.8501 758.25 87.3401C759.1 87.1001 759.57 86.6001 759.85 85.8501C759.99 85.4701 760.1 85.0801 760.16 84.6801C760.31 83.7701 760.61 82.9601 761.57 82.4001C760.83 81.1201 761.17 79.8101 761.34 78.4901C761.43 77.7901 761.23 77.0601 761.2 76.3501C761.18 75.8801 761.14 75.3901 761.25 74.9401C761.78 72.7701 762.77 70.7801 763.8 68.7401C764.12 68.7701 764.44 68.7601 764.75 68.8301C766.92 69.3101 767.49 69.1301 768.89 67.4001C769.98 67.9001 771.09 68.4201 772.21 68.9301C772.23 68.8901 772.25 68.8601 772.27 68.8201C772.3 68.8501 772.33 68.8701 772.35 68.9101C773.17 71.3601 774.15 73.7801 774.74 76.2901C775.18 78.1701 776.06 79.5401 777.63 80.5201C778.38 80.9901 778.81 81.6601 778.84 82.5101C778.87 83.2401 779.3 83.4801 779.88 83.6401C780 83.6701 780.12 83.6801 780.24 83.7101C781.73 83.9801 782 84.5501 781.2 85.8301C780.92 86.2701 780.56 86.6801 780.16 87.0101C779.15 87.8701 778.35 88.8501 778.1 90.1701C777.3 90.5101 776.65 90.2601 775.99 89.8801C774.76 89.1701 774.3 89.4001 773.98 90.8101C773.75 91.8401 773.51 91.9501 771.96 91.7101C771.57 93.0701 772.01 94.5001 771.7 95.9001C771.33 95.9801 770.96 96.0101 770.64 96.1501C770.25 96.3201 769.79 96.5201 769.55 96.8401C768.86 97.7701 768.08 98.4501 766.78 98.3101C766.73 99.2501 766.76 100.15 766.63 101.02C766.28 103.34 765.9 105.66 765.44 107.96C765.25 108.9 765.51 109.53 766.24 110.05C767.19 110.73 768.11 111.45 769.08 112.12C770.45 113.07 770.61 113.67 769.99 115.2C769.7 115.9 769.54 116.65 769.3 117.46C768.47 117.71 767.64 117.42 766.85 116.99C766.78 116.95 766.74 116.87 766.67 116.83C766.16 116.52 765.63 116.02 765.01 116.3C764.39 116.58 764.59 117.29 764.56 117.83C764.5 119.07 764.51 119.06 763.3 119.33C760.91 119.86 758.72 120.91 756.56 122.02C755.2 122.71 753.85 123.43 752.42 124.18C752.78 124.65 753.24 124.81 753.7 124.74C754.45 124.62 755.2 124.44 755.91 124.18C757.26 123.68 758.59 123.29 760.12 123.7C760.1 124.71 759.52 125.29 758.79 125.73C758.17 126.1 757.49 126.4 756.83 126.68C755.98 127.04 755.26 127.56 754.86 128.4C754.58 128.99 754.16 129.1 753.59 129.09C752.66 129.07 751.73 129.09 750.69 129.09C751.83 131.92 751.71 134.79 751.68 137.66C751.68 138.35 751.43 138.87 750.98 139.4C750.17 140.34 749.46 141.37 748.64 142.45C747.74 142.48 747.36 141.61 746.81 141.02C746.4 140.57 746.02 140.13 745.27 140.01C745.37 142.28 746.79 143.32 748.7 144C748.7 146.35 748.72 148.69 748.69 151.03C748.69 151.54 748.59 152.1 747.95 152.39C747.47 152.02 747.02 151.52 746.45 151.27C745.92 151.04 745.28 151.07 744.79 151C744.19 150.42 743.68 149.8 743.05 149.35C742.44 148.92 741.7 148.66 740.93 148.28C741.86 146.86 741.64 145.45 740.93 144.04C740.36 142.92 740.14 141.75 740.67 140.5C739.27 139.96 739.17 141.54 738.12 141.75C739.23 143.27 739.25 144.95 739.45 146.58C739.62 147.92 740.2 148.94 741.5 149.6C740.47 151.08 741.27 152.21 742.13 153.34C742.67 154.05 742.76 154.37 742.86 155.53C742.52 155.59 742.17 155.64 741.7 155.72C742.32 156.79 742.85 157.85 743.71 158.72C744.66 159.68 745.9 159.59 747.24 159.63C747.17 161.75 747.96 163.81 747.11 165.89C746.72 166.84 746.75 166.81 745.74 166.93C744.94 167.03 744.15 167.22 743.39 167.47C743.05 167.59 742.73 167.93 742.53 168.25C742.44 168.4 742.57 168.82 742.74 168.97C742.89 169.1 743.28 169.1 743.46 168.99C743.86 168.73 744.21 168.38 744.57 168.06C745.18 167.51 745.83 167.42 746.72 167.9C746.45 168.52 746.19 169.11 745.92 169.73C746.51 170.06 746.9 169.91 747.17 169.41C747.28 169.2 747.3 168.94 747.38 168.71C747.82 167.41 748.09 167.3 749.47 167.86C750.01 169.35 748.39 170.45 748.85 172.04H743.5C743.48 172.12 743.45 172.2 743.43 172.28C743.67 172.44 743.9 172.61 744.14 172.76C745.09 173.36 745.28 173.98 744.83 175.02C744.81 175.06 744.8 175.09 744.78 175.13C744.427 175.943 744.644 176.52 745.43 176.86C745.54 176.91 745.63 176.99 745.74 177.07C745.84 177.77 745.43 178.12 744.85 178.3C744.51 178.4 744.13 178.51 743.78 178.47C742.84 178.36 742.33 178.85 742.01 179.62C741.73 180.29 741.42 180.82 740.53 180.78C740.29 180.77 740.01 181.2 739.79 181.47C739.37 182 739.04 182.64 738.56 183.1C737.44 184.16 736.59 185.34 736.52 186.95C736.04 187.04 735.61 187.14 735.18 187.2C733.76 187.41 733.19 188.6 732.41 189.55C731.4 190.77 730.74 192.14 730.84 193.76C730.88 194.51 730.31 194.87 729.91 195.24C728.12 196.87 726.38 198.54 725.04 200.68C724.38 200.22 723.77 199.79 723.02 199.27C722.66 200.18 722.33 200.94 722.04 201.72C721.55 203.06 720.94 204.32 719.86 205.3C719.56 205.57 719.46 205.88 719.61 206.28C720.19 207.86 719.65 209.11 718.49 210.22C717.6 211.08 717.61 211.57 718.47 212.43C718.56 212.52 718.65 212.6 718.73 212.68C719.61 213.55 719.61 213.61 718.73 214.51C719.52 216.17 720.28 217.87 721.13 219.51C722.27 221.69 723.49 223.83 724.68 225.98C725.93 228.24 727.2 230.48 728.43 232.75C729.47 234.67 730.49 236.6 731.45 238.57C732.62 240.96 733.71 243.39 734.82 245.81C734.97 246.14 735.13 246.49 735.15 246.84C735.35 249.84 734.69 252.69 733.77 255.53C733.3 256.97 732.33 257.51 731.13 257.98C730.91 258.07 730.65 258.12 730.42 258.09C729.05 257.95 726.85 257.11 726.71 255.03C726.64 254 726.13 253.63 725.26 253.45C724.43 253.28 723.59 253.1 722.77 252.87C722.39 252.76 722.05 252.53 721.6 252.3C721.87 250.76 721.12 249.6 720.18 248.49C719.9 248.16 719.67 247.73 719.59 247.31C719.43 246.46 718.91 246.07 718.13 245.89C717.78 245.81 717.43 245.7 717.07 245.63C715.68 245.39 715 244.51 714.78 243.17C714.53 241.64 714.57 240.17 715.79 238.89C713.88 237.71 713.65 235.86 713.44 233.99C713.37 233.39 713.32 232.77 713.15 232.19C712.82 231 712.28 229.97 711.03 229.44C709.51 228.79 708.44 227.53 707.25 226.44C705.94 225.23 704.54 224.14 702.94 223.35C701.93 222.85 700.92 222.83 700 223.64C698.91 224.6 697.76 225.49 696.69 226.46C695.65 227.4 694.56 227.39 693.65 226.34C693.39 226.04 693.09 225.73 692.93 225.37C692.25 223.87 690.97 223.42 689.48 223.32C688.31 223.24 687.13 223.2 685.96 223.12C684.53 223.02 683.13 222.8 682.1 221.62C681.08 222.27 680.13 222.86 679.18 223.46C678.94 223.61 678.71 223.78 678.47 223.92C677.47 224.49 676.56 224.39 675.78 223.55C675.34 223.08 674.98 222.55 674.6 222.03C674.48 221.87 674.42 221.67 674.23 221.29C673.66 222.22 673.28 222.82 672.92 223.43C672.43 224.28 672.21 224.42 671.28 224.19C669.07 223.64 667.13 224.47 665.2 225.32C664.94 225.43 664.7 225.6 664.44 225.69C663.15 226.13 662.51 225.87 661.89 224.67C661.07 224.82 660.25 224.98 659.43 225.13C659.57 225.92 660.27 226.55 661.25 226.67C661.93 226.75 662.63 226.72 663.32 226.75C663.68 226.77 664.05 226.77 664.41 226.84C664.83 226.92 665.4 226.84 665.51 227.41C665.62 227.99 665.46 228.54 664.99 228.95C664.79 229.13 664.55 229.27 664.28 229.46C665.39 230.84 667.02 231.37 668.35 232.34C668.16 233.2 667.55 233.45 666.83 233.51C664.99 233.66 663.4 233.08 662.08 231.8C662 231.82 661.91 231.82 661.87 231.87C660.17 233.95 657.89 233.83 655.62 233.4C653.23 232.94 651.21 231.84 649.64 229.39C648.61 229.34 647.74 229.86 647.06 230.51C646.1 231.42 645.04 231.57 643.82 231.5C641.4 231.35 639.12 230.65 636.92 229.69C636.26 229.4 635.79 229.41 635.25 229.78C634.38 230.37 633.48 230.91 632.63 231.53C631.24 232.56 629.86 232.45 628.38 231.56C627.88 232.55 627.43 233.58 626.85 234.53C626.07 235.8 625.2 237.01 624.33 238.22C624.17 238.44 623.77 238.61 623.5 238.59C622.52 238.52 621.66 238.85 620.85 239.32C619.87 239.89 618.89 240.03 617.83 239.56C617.65 239.48 617.39 239.55 616.9 239.55C617.25 240.04 617.44 240.36 617.69 240.63C617.98 240.94 618.32 241.23 618.02 241.66C617.7 242.12 617.19 242.16 616.7 241.97C616.3 241.81 615.94 241.55 615.48 241.28C614.96 243 613.72 244.01 612.47 245.05C611.59 245.79 610.94 246.74 611.05 248.05C610.34 248.09 609.7 248.12 609.02 248.15C608.81 249.19 609.04 250.12 609.38 251.03C609.63 251.71 609.96 252.38 610.08 253.09C610.19 253.7 610.19 254.41 609.98 254.98C609.77 255.57 609.83 255.97 610.18 256.42C610.96 257.43 611.21 258.6 611.18 259.85C611.15 261.13 610.57 261.52 609.36 261.08C608.45 260.74 607.54 260.39 606.67 259.98C605.76 259.55 604.82 259.42 603.83 259.44C603.52 259.44 603.11 259.45 602.91 259.28C601.41 257.96 599.57 257.33 597.75 256.65C597.67 256.62 597.61 256.57 597.44 256.49L597.4 256.48Z" fill="#005178"/>
</g>
</g>
<defs>
<clipPath id="clip0_172_2">
<rect width="843" height="376" fill="white"/>
</clipPath>
<clipPath id="clip1_172_2">
<rect width="1000" height="410.11" fill="white" transform="translate(-51 -17)"/>
</clipPath>
</defs>
</svg>
