<svg width="100" height="167" viewBox="0 0 100 167" fill="none" xmlns="http://www.w3.org/2000/svg">
<g clip-path="url(#clip0_200_465)">
<g opacity="0.15">
<path d="M81.3598 65.86C81.3698 62.55 80.3398 59.67 78.1898 57.19C75.8998 54.56 73.0298 52.98 69.5098 52.87C65.6598 52.76 61.8098 52.79 57.9598 52.77C57.8798 52.77 57.7998 52.8 57.7098 52.82V53.11C55.5098 53.1 53.3098 53.07 51.1098 53.08C49.1598 53.08 47.3198 53.58 45.6598 54.62C42.6698 56.51 40.6398 59.19 39.5698 62.54C38.6798 65.31 37.9599 68.14 37.1399 70.93C35.1599 77.65 33.1598 84.37 31.1898 91.1C30.9898 91.8 30.8498 92.56 30.8998 93.29C30.9798 94.47 31.7699 95.21 32.7299 95.85C34.9199 97.31 37.7199 96.34 38.4799 93.81C41.1099 85.01 43.7498 76.22 46.3698 67.42C46.5198 66.93 46.7398 66.61 47.3298 66.67C47.7498 66.71 48.1799 66.67 48.6999 66.67C48.6099 67.1 48.5499 67.45 48.4499 67.78C48.1299 68.9 47.7898 70.01 47.4598 71.13C44.0298 82.69 40.5999 94.25 37.1699 105.81C36.6399 107.6 36.1198 109.4 35.5998 111.2C35.4098 111.85 35.4798 111.93 36.1598 111.95C36.6698 111.96 37.1899 111.95 37.6999 111.95C40.9699 111.95 44.2298 111.95 47.4998 111.95C48.1298 111.95 48.2798 112.11 48.2898 112.73C48.2898 112.91 48.2898 113.08 48.2898 113.26C48.2898 124.3 48.2898 135.34 48.2898 146.37C48.2898 146.67 48.2898 146.98 48.3498 147.27C48.9198 149.93 51.7899 151.61 54.4499 150.84C56.5899 150.23 57.7498 148.64 57.7498 146.28C57.7498 135.19 57.7498 124.1 57.7498 113.01C57.7498 111.86 57.7098 111.96 58.7198 111.93C58.7498 111.93 58.7698 111.89 58.7898 111.87V101.35C58.8398 101.47 58.8698 101.61 58.8698 101.82C58.8698 102 58.8698 102.17 58.8698 102.35C58.8698 116.49 58.8698 130.64 58.8698 144.78C58.8698 145.31 58.8999 145.85 58.9799 146.37C59.3699 148.75 61.3599 150.59 63.9199 150.98C66.2299 151.34 68.7799 150.06 69.8299 148.03C70.3799 146.98 70.4998 145.85 70.4998 144.68C70.4898 131.92 70.4798 119.16 70.4798 106.4C70.4798 94.35 70.4798 82.3 70.4798 70.25C70.4798 68.87 70.4799 68.86 71.8399 68.87C72.4699 68.87 72.5598 68.96 72.5998 69.61C72.5998 69.72 72.5998 69.82 72.5998 69.93C72.5998 74.31 72.5998 78.7 72.5998 83.08C72.5998 87.5 72.5998 91.92 72.6198 96.34C72.6198 98.65 73.6598 100.06 75.7398 100.63C78.7898 101.46 81.3098 99.55 81.3098 96.4C81.3098 86.21 81.2898 76.03 81.3198 65.84L81.3598 65.86Z" fill="#005178"/>
<path d="M57.7003 50.32V50.42C57.8803 50.42 58.0503 50.38 58.2303 50.37C58.4203 50.39 58.6003 50.42 58.7903 50.43V50.32C62.0403 49.92 64.6603 48.46 66.3003 45.47C68.2703 41.86 68.0603 38.21 65.7503 34.81C64.0603 32.32 61.7103 30.97 58.8003 30.64V30.54C58.6103 30.55 58.4303 30.58 58.2403 30.6C58.0603 30.59 57.8903 30.56 57.7103 30.56V30.65C54.4903 31.07 51.8903 32.54 50.2103 35.45C48.1803 38.96 48.2303 42.59 50.4303 46.03C52.1503 48.71 54.7103 49.93 57.7103 50.33L57.7003 50.32Z" fill="#005178"/>
</g>
<g opacity="0.15">
<path d="M81.3598 65.86C81.3698 62.55 80.3398 59.67 78.1898 57.19C75.8998 54.56 73.0298 52.98 69.5098 52.87C65.6598 52.76 61.8098 52.79 57.9598 52.77C57.8798 52.77 57.7998 52.8 57.7098 52.82V53.11C55.5098 53.1 53.3098 53.07 51.1098 53.08C49.1598 53.08 47.3198 53.58 45.6598 54.62C42.6698 56.51 40.6398 59.19 39.5698 62.54C38.6798 65.31 37.9599 68.14 37.1399 70.93C35.1599 77.65 33.1598 84.37 31.1898 91.1C30.9898 91.8 30.8498 92.56 30.8998 93.29C30.9798 94.47 31.7699 95.21 32.7299 95.85C34.9199 97.31 37.7199 96.34 38.4799 93.81C41.1099 85.01 43.7498 76.22 46.3698 67.42C46.5198 66.93 46.7398 66.61 47.3298 66.67C47.7498 66.71 48.1799 66.67 48.6999 66.67C48.6099 67.1 48.5499 67.45 48.4499 67.78C48.1299 68.9 47.7898 70.01 47.4598 71.13C44.0298 82.69 40.5999 94.25 37.1699 105.81C36.6399 107.6 36.1198 109.4 35.5998 111.2C35.4098 111.85 35.4798 111.93 36.1598 111.95C36.6698 111.96 37.1899 111.95 37.6999 111.95C40.9699 111.95 44.2298 111.95 47.4998 111.95C48.1298 111.95 48.2798 112.11 48.2898 112.73C48.2898 112.91 48.2898 113.08 48.2898 113.26C48.2898 124.3 48.2898 135.34 48.2898 146.37C48.2898 146.67 48.2898 146.98 48.3498 147.27C48.9198 149.93 51.7899 151.61 54.4499 150.84C56.5899 150.23 57.7498 148.64 57.7498 146.28C57.7498 135.19 57.7498 124.1 57.7498 113.01C57.7498 111.86 57.7098 111.96 58.7198 111.93C58.7498 111.93 58.7698 111.89 58.7898 111.87V101.35C58.8398 101.47 58.8698 101.61 58.8698 101.82C58.8698 102 58.8698 102.17 58.8698 102.35C58.8698 116.49 58.8698 130.64 58.8698 144.78C58.8698 145.31 58.8999 145.85 58.9799 146.37C59.3699 148.75 61.3599 150.59 63.9199 150.98C66.2299 151.34 68.7799 150.06 69.8299 148.03C70.3799 146.98 70.4998 145.85 70.4998 144.68C70.4898 131.92 70.4798 119.16 70.4798 106.4C70.4798 94.35 70.4798 82.3 70.4798 70.25C70.4798 68.87 70.4799 68.86 71.8399 68.87C72.4699 68.87 72.5598 68.96 72.5998 69.61C72.5998 69.72 72.5998 69.82 72.5998 69.93C72.5998 74.31 72.5998 78.7 72.5998 83.08C72.5998 87.5 72.5998 91.92 72.6198 96.34C72.6198 98.65 73.6598 100.06 75.7398 100.63C78.7898 101.46 81.3098 99.55 81.3098 96.4C81.3098 86.21 81.2898 76.03 81.3198 65.84L81.3598 65.86Z" fill="#005178"/>
<path d="M57.7003 50.32V50.42C57.8803 50.42 58.0503 50.38 58.2303 50.37C58.4203 50.39 58.6003 50.42 58.7903 50.43V50.32C62.0403 49.92 64.6603 48.46 66.3003 45.47C68.2703 41.86 68.0603 38.21 65.7503 34.81C64.0603 32.32 61.7103 30.97 58.8003 30.64V30.54C58.6103 30.55 58.4303 30.58 58.2403 30.6C58.0603 30.59 57.8903 30.56 57.7103 30.56V30.65C54.4903 31.07 51.8903 32.54 50.2103 35.45C48.1803 38.96 48.2303 42.59 50.4303 46.03C52.1503 48.71 54.7103 49.93 57.7103 50.33L57.7003 50.32Z" fill="#005178"/>
</g>
<path d="M52.9805 95.3902V47.2302C53.0605 47.2102 53.1405 47.1802 53.2305 47.1802C57.0805 47.2102 60.9305 47.1802 64.7805 47.2802C68.3005 47.3802 71.1805 48.9602 73.4605 51.6002C75.6105 54.0802 76.6405 56.9602 76.6305 60.2702C76.6005 70.4602 76.6205 80.6402 76.6205 90.8302C76.6205 93.9802 74.1004 95.9002 71.0504 95.0702C68.9704 94.5002 67.9305 93.1002 67.9305 90.7802C67.9205 86.3602 67.9204 81.9402 67.9104 77.5202C67.9104 73.1402 67.9104 68.7502 67.9104 64.3702C67.9104 64.2602 67.9104 64.1602 67.9104 64.0502C67.8704 63.4002 67.7805 63.3202 67.1505 63.3102C65.7905 63.3002 65.7904 63.3102 65.7904 64.6902C65.7904 76.7402 65.7904 88.7902 65.7904 100.84C65.7904 113.6 65.7905 126.36 65.8105 139.12C65.8105 140.29 65.6805 141.41 65.1405 142.47C64.0905 144.5 61.5405 145.77 59.2305 145.42C56.6705 145.03 54.6905 143.18 54.2905 140.81C54.2005 140.29 54.1805 139.75 54.1805 139.22C54.1805 125.08 54.1805 110.93 54.1805 96.7902C54.1805 96.6102 54.1805 96.4302 54.1805 96.2602C54.1605 95.6202 54.0005 95.4602 53.3505 95.4202C53.2505 95.4202 53.1505 95.4102 53.0105 95.4002L52.9805 95.3902Z" fill="#29BBEF"/>
<path d="M43.9703 61.0998C43.4403 61.0998 43.0203 61.1398 42.6003 61.0998C42.0103 61.0398 41.7903 61.3498 41.6403 61.8498C39.0103 70.6498 36.3803 79.4398 33.7503 88.2398C32.9903 90.7698 30.2003 91.7398 28.0003 90.2798C27.0403 89.6398 26.2403 88.8998 26.1703 87.7198C26.1203 86.9998 26.2603 86.2398 26.4603 85.5298C28.4303 78.7998 30.4303 72.0898 32.4103 65.3598C33.2303 62.5698 33.9503 59.7398 34.8403 56.9698C35.9203 53.6198 37.9403 50.9398 40.9303 49.0498C42.5803 48.0098 44.4203 47.5098 46.3803 47.5098C48.7003 47.5098 51.0303 47.5298 53.3503 47.5498C53.5803 47.5498 53.8103 47.5498 54.0603 47.5498V106.32C54.0603 106.32 54.0103 106.38 53.9903 106.38C52.9803 106.41 53.0203 106.31 53.0203 107.46C53.0203 118.55 53.0203 129.64 53.0203 140.73C53.0203 143.09 51.8603 144.68 49.7203 145.29C47.0503 146.05 44.1903 144.38 43.6203 141.72C43.5603 141.43 43.5603 141.12 43.5603 140.82C43.5603 129.78 43.5603 118.74 43.5603 107.71C43.5603 107.53 43.5603 107.36 43.5603 107.18C43.5603 106.56 43.3903 106.4 42.7703 106.4C39.5003 106.4 36.2403 106.4 32.9703 106.4C32.4603 106.4 31.9403 106.41 31.4303 106.4C30.7403 106.39 30.6803 106.3 30.8703 105.65C31.3903 103.85 31.9103 102.05 32.4403 100.26C35.8703 88.6998 39.3003 77.1398 42.7303 65.5798C43.0603 64.4598 43.4003 63.3498 43.7203 62.2298C43.8203 61.8898 43.8703 61.5498 43.9703 61.1198V61.0998Z" fill="#F4539C"/>
<path d="M54.0701 24.9499V44.8399C50.5901 44.6099 47.6201 43.4299 45.6901 40.4299C43.4901 36.9899 43.4401 33.3699 45.4701 29.8499C47.3401 26.6199 50.3401 25.1499 54.0701 24.9399V24.9499Z" fill="#F4539C"/>
<path d="M52.9797 44.83V24.96C56.3997 25.05 59.1297 26.43 61.0197 29.22C63.3297 32.62 63.5397 36.27 61.5697 39.88C59.7597 43.2 56.7297 44.65 52.9697 44.83H52.9797Z" fill="#29BBEF"/>
<path d="M53.4102 0.830078V164.11" stroke="#005178" stroke-width="1.84" stroke-miterlimit="10" stroke-linecap="round"/>
</g>
<defs>
<clipPath id="clip0_200_465">
<rect width="100" height="167" fill="white"/>
</clipPath>
</defs>
</svg>
