<?xml version="1.0" encoding="UTF-8"?>
<svg id="Layer_1" data-name="Layer 1" xmlns="http://www.w3.org/2000/svg" viewBox="0 0 120 120" width="100%" height="100%">
  <g>
    <circle cx="60" cy="60" r="55.41" style="fill: #fff; stroke: #005178; stroke-miterlimit: 10; stroke-width: 6px;"/>
    <circle cx="60" cy="60" r="48.69" style="fill: #5a97cb; stroke-width: 0px;"/>
  </g>
  <path d="m28.13,81.02c-.19,0-.35-.07-.5-.22-.22-.22-.34-.45-.34-.68,0-.27.15-.57.44-.86,1.56-1.56,3.46-2.72,5.8-3.56,3.59-1.29,7.43-1.5,10.74-1.6,1.57-.05,3.14-.05,4.71-.06,2.83,0,5.76-.02,8.64-.28,2.38-.22,4.5-.68,6.48-1.4,6.57-2.39,10.22-9.43,8.48-16.38-.87-3.48-2.42-6.7-3.96-9.66-.6-1.15-1.22-2.28-1.84-3.42-1.23-2.24-2.5-4.55-3.54-6.92-1.75-3.99-2.47-7.17-2.33-10.33.05-1.18.25-2.33.59-3.43.09-.29.32-.77.87-.77.1,0,.2.01.31.05.21.06.4.21.51.41.12.22.15.47.08.72-1.33,4.72.05,8.94,1.59,12.45,1.09,2.5,2.42,4.92,3.7,7.26.74,1.35,1.51,2.75,2.22,4.15,1.56,3.05,3.27,6.64,3.87,10.59.6,3.89-.18,7.38-1.22,9.11-2.72,4.58-5.76,7.09-10.16,8.38-4.1,1.2-8.32,1.31-12.65,1.32h-2.68c-2.72,0-5.62.03-8.5.37-3.73.44-6.43,1.34-8.75,2.92-.67.46-1.26.99-1.7,1.4-.3.28-.61.43-.88.43Z" style="fill: #fff; stroke-width: 0px;"/>
  <path d="m46.66,71.71c-.15,0-.31-.05-.49-.14-.17-.09-.29-.22-.38-.39-1.69-3.32-3.32-6.93-3.81-10.88-.95-7.58,3.69-14.66,11.03-16.83,3.56-1.05,7.23-1.28,10.02-1.37h0c.57,0,.95.37.96.89,0,.54-.37.9-.96.93-2.48.11-5.11.26-7.68.83-4.42.98-7.55,3.08-9.59,6.42-1.81,2.97-2.43,6.22-1.84,9.67.55,3.21,1.88,6.17,3.1,8.64l.13.25c.14.27.27.52.35.77.13.41.02.73-.35,1.02-.16.12-.32.18-.49.18Z" style="fill: #fff; stroke-width: 0px;"/>
  <path d="m66.97,64.96c-.15,0-.3-.04-.46-.14-.68-.39-1.36-.8-2.04-1.2l-8.61-5.1c-2.12-1.26-4.24-2.52-6.37-3.76-.5-.29-.67-.6-.6-1.06.06-.41.44-.73.87-.73.1,0,.19.02.28.05.13.05.25.12.37.19l16.76,9.93c.41.24.59.39.65.63.12.58-.07.81-.27.96-.2.15-.4.22-.58.22Z" style="fill: #fff; stroke-width: 0px;"/>
  <path d="m54.31,96.47c-.12,0-.25-.03-.39-.08-.38-.14-.58-.54-.49-.99l.1-.49c.2-.97.41-1.98.43-3.02.07-3.64-1.15-6.91-2.36-9.63-.25-.56-.52-1.1-.79-1.65-.18-.37-.36-.74-.54-1.11-.25-.53-.1-1.03.37-1.27.14-.07.29-.11.44-.11.33,0,.61.18.77.49,1.69,3.3,3.52,7.17,3.9,11.41.17,1.85.01,3.69-.45,5.45-.04.15-.09.29-.13.39l-.02.06c-.23.36-.51.55-.83.55Z" style="fill: #fff; stroke-width: 0px;"/>
  <path d="m72.62,43.82c-.65,0-1.04-.32-1.06-.89-.02-.54.36-.89,1.02-.93.13,0,.26,0,.39-.01.13,0,.25,0,.38-.01,2.52-.14,4.61-.28,6.76-.77,3.24-.74,5.76-2.03,7.71-3.95.21-.21.48-.32.75-.32.2,0,.38.06.52.17.4.32.43.78.1,1.35-.47.58-1.27,1.19-1.91,1.65-2.43,1.74-5.37,2.8-9.27,3.32-1.79.24-3.6.37-5.37.38h-.02Z" style="fill: #fff; stroke-width: 0px;"/>
  <path d="m78.69,38.72c-.18,0-.37-.05-.55-.16-.9-.51-1.79-1.04-2.68-1.57l-4.8-2.84c-1.27-.75-2.53-1.5-3.79-2.25-.33-.2-.54-.45-.6-.71-.05-.22,0-.45.15-.67.25-.37.51-.41.69-.41.08,0,.17,0,.26.03.3.07.59.23.88.41l10.3,6.11c.19.11.42.26.62.43.46.41.53.82.2,1.29-.16.23-.41.36-.69.36Z" style="fill: #fff; stroke-width: 0px;"/>
  <path d="m49.7,87.71c-.1,0-.21-.02-.32-.05-.25-.08-.52-.2-.85-.4-1.24-.72-2.47-1.46-3.7-2.19l-2.91-1.73c-1.21-.71-2.41-1.43-3.62-2.15-.22-.13-.49-.3-.72-.51-.4-.37-.45-.75-.15-1.2.17-.26.42-.4.7-.4.15,0,.31.04.47.12.37.19.73.41,1.09.62l.41.25,2.44,1.44c2.44,1.44,4.88,2.89,7.31,4.34,1.01.6.68,1.18.57,1.37-.18.32-.42.48-.72.48Z" style="fill: #fff; stroke-width: 0px;"/>
  <path d="m47.15,91.98c-.08,0-.17,0-.26-.03-.3-.06-.59-.24-.88-.4l-10.3-6.11c-.28-.17-.49-.32-.66-.47-.42-.39-.47-.78-.15-1.25.17-.24.41-.37.67-.37.16,0,.33.05.5.14.57.31,1.13.65,1.69.98l5.66,3.35c1.33.78,2.65,1.57,3.97,2.36.33.2.54.44.6.69.05.22,0,.45-.17.7-.18.28-.39.4-.69.4Z" style="fill: #fff; stroke-width: 0px;"/>
  <path d="m81.22,34.48c-.16,0-.33-.05-.49-.15-1.35-.79-2.7-1.59-4.04-2.39l-7.41-4.39c-.39-.23-.54-.52-.48-.92.05-.37.25-.62.61-.75.09-.03.18-.05.26-.05.15,0,.3.05.46.15l2.77,1.64c2.91,1.72,5.83,3.45,8.74,5.19.65.39.47.92.3,1.21-.18.3-.43.46-.72.46Z" style="fill: #fff; stroke-width: 0px;"/>
  <path d="m61.64,67.55c-.18,0-.36-.06-.56-.17-1.35-.79-2.7-1.59-4.04-2.39l-3.14-1.86c-1.38-.82-2.77-1.64-4.15-2.46-.23-.14-.74-.52-.52-1.12.15-.4.45-.63.81-.63.16,0,.33.05.49.14,3.85,2.26,7.68,4.54,11.51,6.82.48.29.59.72.31,1.21-.12.21-.35.46-.71.46Z" style="fill: #fff; stroke-width: 0px;"/>
  <path d="m66.55,59c-.17-.01-.35-.12-.55-.24,0,0-9.74-5.77-11.05-6.55-1.02-.61-.7-1.16-.58-1.36.17-.29.4-.44.69-.44.23,0,.5.09.77.25,3.7,2.18,7.4,4.37,11.09,6.57.5.3.72.71.58,1.13-.13.39-.46.64-.87.64h-.09Z" style="fill: #fff; stroke-width: 0px;"/>
</svg>