<?xml version="1.0" encoding="UTF-8"?>
<svg id="Layer_1" data-name="Layer 1" xmlns="http://www.w3.org/2000/svg" viewBox="0 0 120 120" width="100%" height="100%">
  <circle cx="60" cy="60" r="55.41" style="fill: #fff; stroke: #005178; stroke-miterlimit: 10; stroke-width: 6px;"/>
  <circle cx="60" cy="60" r="48.69" style="fill: #5a97cb; stroke-width: 0px;"/>
  <path d="m90.93,39.91c1.5-1.74,1.82-3.3.93-4.66-1.99-2.98-10.29,1.35-18.96,6.48l-.53.31c-2.31,1.36-10.08,6.3-14.13,8.88.76-1.4,1.36-2.61,1.56-3.02.84-.71,4.67-4,5.44-5.24.5-.81,2.07-3.62,1.09-5.7-.51-1.08-1.58-1.73-3.17-1.94-.2-.02-.41.03-.57.17-2.57,2.18-5.97,3.7-7.6,4.42-.25.11-.47.21-.63.29-1.41.66-5.41,4.5-10.71,10.27-5.04,5.49-6.55,12.77-6.77,13.95-.35.52-1.94,2.76-4.6,4.68l-.47-.64c-.22-.3-.55-.5-.93-.56-.37-.05-.74.04-1.04.25l-2.96,2.08c-.33.23-.41.69-.18,1.02.23.33.69.41,1.02.18l2.9-2.1,16.47,22.39c.13.17.09.42-.08.54l-2.77,2.04c-.32.24-.39.7-.16,1.02.14.19.36.3.59.3.15,0,.3-.05.43-.14l2.77-2.04c.82-.6,1-1.76.39-2.58l-1.09-1.49c.4-.38,1.52-1.4,2.41-2.02.33-.22,1.97-.34,3.06-.42,1.07-.08,2.17-.16,2.94-.33,8.01-1.77,14.29-5.91,16.65-7.47.39-.26.66-.44.82-.52,6.38-3.5,9.76-6.78,10.07-9.73.11-1.11-.21-2.13-.95-2.98,1.28-1.47,1.7-3.48,1.14-5.52-.45-1.63-1.44-2.94-2.66-3.6,1.47-1.89,1.94-4.15,1.2-6-.48-1.19-1.38-2.04-2.59-2.48.58-.35,1.25-.74,1.97-1.16,1.34-.78,2.81-1.65,4.26-2.58.13.42.33.81.6,1.17.65.84,1.6,1.31,2.68,1.31s2.14-.46,2.77-1.29c.65-.85.84-1.94.53-3.1-.18-.66-.65-1.57-1.16-2.41Zm-14.93,34.9s-.02,0-.03,0c-1.3.46-5.04,1.43-6.68.43-.44-.27-.69-.66-.76-1.23-.06-.45,1.34-2.38,4.87-4.75,3.47-2.34,6.25-3.25,7.37-3.02.67.62.99,1.35.9,2.18-.12,1.12-1.08,3.3-5.67,6.39Zm5.91-14.36c.45,1.63.07,3.23-1.01,4.34-2.62-.4-6.94,2.32-8.32,3.26-.37.25-.98.67-1.65,1.19-1.56.6-5.31,1.08-6.06-.37-.27-.53-.13-1.19.42-2.05,2.66-4.15,12.7-9.12,14.2-9.12h.02c.09,0,.17-.02.24-.05.95.41,1.79,1.47,2.15,2.8Zm-1.4-9.44c.62,1.55.02,3.56-1.53,5.16-1.89.42-6.24,2.54-9.88,5.09-1.31.29-4.6.68-5.06-.78-.77-2.48,7.23-8.01,13.47-11.35,1.47.07,2.54.73,3,1.89Zm0-5.44c-1.55.91-2.79,1.63-3.52,2.18-3.45,1.83-15.71,8.71-14.34,13.15.52,1.68,2.35,2.09,4.01,2.09.06,0,.12,0,.18,0-1.11.94-2.05,1.9-2.67,2.83-.93,1.38-1.13,2.62-.58,3.69.69,1.34,2.32,1.75,3.96,1.75.4,0,.8-.02,1.19-.07-1,1.03-1.76,2.13-1.64,3.03.13,1,.64,1.79,1.45,2.28.79.48,1.81.65,2.85.65.27,0,.54-.01.8-.03-.18.11-.44.28-.76.49-2.3,1.52-8.42,5.55-16.17,7.26-.66.15-1.72.23-2.73.3-1.95.15-3.18.26-3.78.68-.89.61-1.94,1.56-2.45,2.04l-13.17-17.9c3.25-2.34,4.98-5.08,5.05-5.19.05-.08.08-.17.1-.27.01-.08,1.34-7.82,6.43-13.36,5.71-6.22,9.26-9.47,10.25-9.93.16-.08.37-.17.61-.28,1.64-.73,5-2.23,7.69-4.43.9.17,1.48.53,1.74,1.07.57,1.2-.37,3.27-1.01,4.3-.52.84-3.5,3.51-5.26,5-.08.07-.14.15-.19.24-.86,1.8-3.42,6.75-4.83,8.06-.18.16-.26.41-.23.65.55,3.61.82,7.51-2.45,11.94-.24.32-.17.78.15,1.02.33.24.78.17,1.02-.15,3.75-5.07,3.22-9.74,2.78-12.66.51-.56,1.09-1.39,1.67-2.31,1.35-.87,13.48-8.61,16.46-10.36l.53-.31c12.82-7.58,16.33-7.95,17-6.93.18.27.66,1.02-.53,2.57-.37-.56-.67-.98-.75-1.09-.14-.19-.36-.27-.59-.27h0c-.23,0-.45.07-.59.26-.24.33-2.32,3.21-2.73,4.78-.02.09-.04.17-.05.26-1.64,1.08-3.36,2.09-4.9,2.99Zm9.9-1.03c-.35.46-.94.73-1.62.73-.79,0-1.27-.4-1.53-.74-.4-.52-.55-1.22-.39-1.84.21-.83,1.18-2.39,1.9-3.47.72,1.08,1.69,2.65,1.91,3.48.19.71.09,1.37-.27,1.84Z" style="fill: #fff; stroke-width: 0px;"/>
  <path d="m92.64,49.43c-.12-.17-.31-.14-.51-.14h0c-.2,0-.39-.03-.51.14-.14.19-1.35,1.76-1.59,2.69-.16.63-.04,1.28.35,1.78.4.52,1.03.81,1.75.81.77,0,1.43-.26,1.81-.76.37-.48.47-1.09.29-1.77-.25-.92-1.45-2.56-1.59-2.75Zm.29,3.72c-.15.19-.44.3-.81.3-.33,0-.59-.11-.75-.32-.15-.19-.19-.44-.13-.69.09-.36.49-1.04.88-1.64.39.6.78,1.28.88,1.64.08.3.06.54-.07.7Z" style="fill: #fff; stroke-width: 0px;"/>
</svg>