<?xml version="1.0" encoding="UTF-8"?>
<svg id="Layer_1" data-name="Layer 1" xmlns="http://www.w3.org/2000/svg" viewBox="0 0 900 450">
  <rect x="25.13" y="37" width="858" height="395" rx="13.13" ry="13.13" style="fill: #c1daed; opacity: .5; stroke-width: 0px;"/>
  <text transform="translate(198.75 90.78)" style="fill: #005178; font-family: Exo-SemiBold, Exo; font-size: 26px; font-weight: 600;"><tspan x="0" y="0">Risk of d</tspan><tspan x="103.35" y="0" style="letter-spacing: 0em;">e</tspan><tspan x="117.1" y="0" style="letter-spacing: -.02em;">v</tspan><tspan x="130.99" y="0">eloping PTSD after t</tspan><tspan x="373.33" y="0" style="letter-spacing: -.02em;">r</tspan><tspan x="383.7" y="0">auma </tspan><tspan x="458.79" y="0" style="letter-spacing: -.02em;">e</tspan><tspan x="472.28" y="0">xposure (%) </tspan></text>
  <text transform="translate(826.33 82.13) scale(.58)" style="fill: #005178; font-family: Exo-SemiBold, Exo; font-size: 26px; font-weight: 600;"><tspan x="0" y="0">[2]</tspan></text>
  <rect x="62.13" y="105" width="93.83" height="274" style="fill: #005178; stroke-width: 0px;"/>
  <rect x="161.83" y="209.52" width="93.83" height="169.48" style="fill: #5a97cb; stroke-width: 0px;"/>
  <rect x="261.53" y="219.62" width="93.83" height="159.38" style="fill: #005178; stroke-width: 0px;"/>
  <rect x="361.51" y="227.81" width="93.83" height="150.65" style="fill: #5a97cb; stroke-width: 0px;"/>
  <rect x="461.49" y="299.31" width="93.83" height="79.69" style="fill: #005178; stroke-width: 0px;"/>
  <rect x="660.88" y="326.6" width="93.83" height="52.4" style="fill: #005178; stroke-width: 0px;"/>
  <rect x="760.3" y="374.63" width="93.83" height="4.37" style="fill: #5a97cb; stroke-width: 0px;"/>
  <rect x="560.63" y="306.13" width="93.83" height="72.05" style="fill: #5a97cb; stroke-width: 0px;"/>
  <text transform="translate(95.4 401.16)" style="fill: #005178; font-family: Exo-Bold, Exo; font-size: 12px; font-weight: 700;"><tspan x="0" y="0" style="letter-spacing: -.01em;">R</tspan><tspan x="7.4" y="0">ape</tspan></text>
  <text transform="translate(97.48 90.16)" style="fill: #005178; font-family: Exo-Bold, Exo; font-size: 12px; font-weight: 700;"><tspan x="0" y="0">19%</tspan></text>
  <text transform="translate(164.08 401.16)" style="fill: #397099; font-family: Exo-Bold, Exo; font-size: 12px; font-weight: 700;"><tspan x="0" y="0">Physical abuse </tspan><tspan x="7.34" y="14.4" style="letter-spacing: -.02em;">b</tspan><tspan x="14.12" y="14.4">y a pa</tspan><tspan x="47.36" y="14.4" style="letter-spacing: .01em;">r</tspan><tspan x="52.55" y="14.4">tner</tspan></text>
  <text transform="translate(293.07 401.16)" style="fill: #005178; font-family: Exo-Bold, Exo; font-size: 12px; font-weight: 700;"><tspan x="0" y="0">Being </tspan><tspan x="-13.39" y="14.4">kidnapped</tspan></text>
  <text transform="translate(386.5 401.16)" style="fill: #397099; font-family: Exo-Bold, Exo; font-size: 12px; font-weight: 700;"><tspan x="0" y="0">S</tspan><tspan x="7.07" y="0" style="letter-spacing: -.02em;">e</tspan><tspan x="13.27" y="0">xual </tspan><tspan x="-1.81" y="14.4">assault </tspan></text>
  <text transform="translate(456.13 401.16)" style="fill: #005178; font-family: Exo-Bold, Exo; font-size: 12px; font-weight: 700;"><tspan x="0" y="0">Saw </tspan><tspan x="26.68" y="0" style="letter-spacing: -.02em;">w</tspan><tspan x="36.35" y="0">ar related </tspan><tspan x="19.26" y="14.4">atrocities</tspan></text>
  <text transform="translate(576.68 401.16)" style="fill: #397099; font-family: Exo-Bold, Exo; font-size: 12px; font-weight: 700;"><tspan x="0" y="0">Childhood </tspan><tspan x="-13.39" y="14.4">physical abuse</tspan></text>
  <text transform="translate(685.05 401.16)" style="fill: #005178; font-family: Exo-Bold, Exo; font-size: 12px; font-weight: 700;"><tspan x="0" y="0" style="letter-spacing: -.01em;">C</tspan><tspan x="6.91" y="0">ombat </tspan><tspan x="-8.51" y="14.4" style="letter-spacing: -.02em;">e</tspan><tspan x="-2.3" y="14.4">xperience</tspan></text>
  <text transform="translate(788.66 401.16)" style="fill: #397099; font-family: Exo-Bold, Exo; font-size: 12px; font-weight: 700;"><tspan x="0" y="0">Natu</tspan><tspan x="26.86" y="0" style="letter-spacing: -.02em;">r</tspan><tspan x="31.69" y="0">al </tspan><tspan x="-4.53" y="14.4">disasters</tspan></text>
  <polyline points="54.13 70.5 54.13 379 854.13 379" style="fill: none; stroke: #005178; stroke-miterlimit: 10; stroke-width: 1.44px;"/>
  <text transform="translate(193.16 195.16)" style="fill: #005178; font-family: Exo-Bold, Exo; font-size: 12px; font-weight: 700;"><tspan x="0" y="0">11.7%</tspan></text>
  <text transform="translate(297.89 205.16)" style="fill: #005178; font-family: Exo-Bold, Exo; font-size: 12px; font-weight: 700;"><tspan x="0" y="0">11%</tspan></text>
  <text transform="translate(391.19 213.16)" style="fill: #005178; font-family: Exo-Bold, Exo; font-size: 12px; font-weight: 700;"><tspan x="0" y="0">10.5%</tspan></text>
  <text transform="translate(493.59 284.16)" style="fill: #005178; font-family: Exo-Bold, Exo; font-size: 12px; font-weight: 700;"><tspan x="0" y="0">5.4%</tspan></text>
  <text transform="translate(597.71 291.16)" style="fill: #005178; font-family: Exo-Bold, Exo; font-size: 12px; font-weight: 700;"><tspan x="0" y="0">5%</tspan></text>
  <text transform="translate(692.83 311.16)" style="fill: #005178; font-family: Exo-Bold, Exo; font-size: 12px; font-weight: 700;"><tspan x="0" y="0">3.6%</tspan></text>
  <text transform="translate(792.59 360.16)" style="fill: #005178; font-family: Exo-Bold, Exo; font-size: 12px; font-weight: 700;"><tspan x="0" y="0">0.3%</tspan></text>
</svg>