<?xml version="1.0" encoding="UTF-8"?>
<svg id="Layer_13" data-name="Layer 13" xmlns="http://www.w3.org/2000/svg" viewBox="0 0 137.98 141.69">
  <defs>
    <style>
      .cls-1, .cls-2 {
        fill: none;
        stroke: #fff;
      }

      .cls-1, .cls-2, .cls-3 {
        stroke-miterlimit: 10;
      }

      .cls-4 {
        fill: #5a97cb;
        stroke-width: 0px;
      }

      .cls-2 {
        stroke-width: 2px;
      }

      .cls-3 {
        stroke: #005178;
        stroke-width: 6px;
      }

      .cls-3, .cls-5 {
        fill: #fff;
      }

      .cls-5 {
        font-family: Calibri-Bold, Calibri;
        font-size: 15.53px;
        font-weight: 700;
      }
    </style>
  </defs>
  <g>
    <circle class="cls-3" cx="72.3" cy="71.27" r="55.41"/>
    <circle class="cls-4" cx="72.3" cy="71.27" r="48.69"/>
  </g>
  <path class="cls-2" d="m82.04,99.49c0-1,.14-2.02-.03-2.99-.5-2.91.75-3.73,3.52-3.54,4.2.29,8.19-.29,9.92-4.96.45-1.22.55-2.65.51-3.97-.13-4.15-.78-8.3,4.98-9.61,1.56-.35,3.04-2.23,1.07-4.38-1.04-1.14-1.81-2.57-2.51-3.96-1.59-3.21-3.61-6.15-4.08-9.95-2.04-16.69-22.36-24.86-37.8-16.95-15.54,7.97-19.07,27.28-8.02,39.9,5.02,5.74,7.59,12.56,6.53,20.39"/>
  <text class="cls-5" transform="translate(64.3 60.7)"><tspan x="0" y="0">?</tspan></text>
  <path class="cls-1" d="m82.62,51.98c-.25-.57-.62-1.09-1.11-1.54-1.8-1.64-4.54-1.61-6.3.02-.65-.54-1.4-.97-2.22-1.24-.9-2.71-3.46-4.66-6.47-4.66-3.77,0-6.82,3.05-6.82,6.82-3.77,0-6.82,3.05-6.82,6.82s3.05,6.82,6.82,6.82c1.74,0,3.32-.65,4.52-1.72.83,1.52,2.47,2.52,4.31,2.44,1.94-.09,3.55-1.36,4.18-3.08.78.79,1.88,1.26,3.07,1.2,1.22-.06,2.28-.64,2.99-1.52.49.11,1,.17,1.53.14,3.08-.14,5.45-2.75,5.31-5.83-.09-2.05-1.28-3.78-2.98-4.67Z"/>
</svg>