<?xml version="1.0" encoding="UTF-8"?>
<svg id="Layer_7" data-name="Layer 7" xmlns="http://www.w3.org/2000/svg" viewBox="0 0 137.98 141.69">
  <g>
    <circle cx="69.99" cy="71.33" r="55.41" style="fill: #fff; stroke: #005178; stroke-miterlimit: 10; stroke-width: 6px;"/>
    <circle cx="69.99" cy="71.33" r="48.69" style="fill: #5a97cb; stroke-width: 0px;"/>
    <g>
      <line x1="53.32" y1="87.09" x2="53.32" y2="68.9" style="fill: none; stroke: #fff; stroke-linecap: round; stroke-linejoin: round; stroke-width: 2px;"/>
      <polygon points="61.42 80.52 59.97 79.17 53.33 86.33 46.68 79.17 45.23 80.52 53.33 89.23 61.42 80.52" style="fill: #fff; stroke-width: 0px;"/>
    </g>
    <g>
      <line x1="84.61" y1="104.55" x2="84.61" y2="88.24" style="fill: none; stroke: #fff; stroke-linecap: round; stroke-linejoin: round; stroke-width: 2px;"/>
      <line x1="78.72" y1="101.03" x2="90.49" y2="101.03" style="fill: none; stroke: #fff; stroke-linecap: round; stroke-linejoin: round; stroke-width: 2px;"/>
    </g>
    <circle cx="69.99" cy="71.33" r="55.41" style="fill: #fff; stroke: #005178; stroke-miterlimit: 10; stroke-width: 6px;"/>
    <circle cx="69.99" cy="71.33" r="48.69" style="fill: #5a97cb; stroke-width: 0px;"/>
  </g>
  <path d="m60.89,93.15c0-.8.11-1.61-.02-2.39-.4-2.33.6-2.98,2.81-2.83,3.36.24,6.55-.23,7.94-3.96.36-.98.44-2.12.41-3.18-.1-3.32-.62-6.64,3.99-7.69,1.25-.28,2.43-1.78.85-3.5-.83-.91-1.45-2.05-2-3.17-1.28-2.57-2.89-4.92-3.26-7.96-1.64-13.35-17.89-19.89-30.24-13.56-12.43,6.37-15.25,21.83-6.42,31.92,4.02,4.59,6.07,10.04,5.22,16.31" style="fill: none; stroke: #fff; stroke-miterlimit: 10; stroke-width: 1.6px;"/>
  <path d="m73.25,55.96c.06-.59.8-.83,1.39-.84,1.78-.04,3.52.64,5.05,1.56s2.91,2.07,4.37,3.09c.61.43,1.25.84,1.97,1s1.55.04,2.08-.49c.8-.81.58-2.15.27-3.25" style="fill: none; stroke-width: 0px;"/>
  <path d="m61.87,59.83c1.21-.89,3.04-1.08,4.34-.31.77.41,1.3.72,2.07.94.17.05.24.08.26.12.11.13.32-.27.4-.62.81,1.13-.26,1.64-1.29,1.59-.78.03-1.6-.3-2.17-.61-1.19-.71-2.25-.72-3.61-1.12h0Z" style="fill: #fff; stroke-width: 0px;"/>
  <path d="m100.12,54.11c-7.83,0-14.18,4.76-14.18,10.64,0,2.36,1.04,4.53,2.77,6.29-4.46,2.85-6.08,6.08-6.08,6.08l11.69-2.67c1.77.6,3.73.94,5.8.94,7.83,0,14.18-4.76,14.18-10.64s-6.35-10.64-14.18-10.64Z" style="fill: none; stroke: #fff; stroke-linecap: round; stroke-linejoin: round; stroke-width: .7px;"/>
  <text transform="translate(90.05 66.33)" style="fill: #fff; font-family: Arial-BoldMT, Arial; font-size: 6px; font-weight: 700;"><tspan x="0" y="0">#%@&amp;!</tspan></text>
</svg>