<?xml version="1.0" encoding="UTF-8"?>
<svg id="Layer_1" data-name="Layer 1" xmlns="http://www.w3.org/2000/svg" viewBox="0 0 120 120" width="100%" height="100%">
  <g>
    <circle cx="60" cy="60" r="55.41" style="fill: #fff; stroke: #005178; stroke-miterlimit: 10; stroke-width: 6px;"/>
    <circle cx="60" cy="60" r="48.69" style="fill: #5a97cb; stroke-width: 0px;"/>
  </g>
  <path d="m73.18,33.25c1.36,2.46.57,5.45-1.8,6.78-2.41,1.36-5.4.45-6.78-2.06-1.35-2.44-.52-5.45,1.87-6.76,2.39-1.32,5.36-.42,6.72,2.04Z" style="fill: #fff; stroke-width: 0px;"/>
  <path d="m52.8,43.79c.69,0,1.25.56,1.25,1.25v15.84c0,2.89,2.35,5.25,5.25,5.25h11.54c.69,0,1.25.56,1.25,1.25v13.15c0,.69-.56,1.25-1.25,1.25h-22.01c-.69,0-1.25-.56-1.25-1.25v-35.48c0-.69.56-1.25,1.25-1.25h3.97m0-2h-3.97c-1.79,0-3.25,1.45-3.25,3.25v35.48c0,1.79,1.45,3.25,3.25,3.25h22.01c1.79,0,3.25-1.45,3.25-3.25v-13.15c0-1.79-1.45-3.25-3.25-3.25h-11.54c-1.79,0-3.25-1.45-3.25-3.25v-15.84c0-1.79-1.45-3.25-3.25-3.25h0Z" style="fill: #fff; stroke-width: 0px;"/>
  <path d="m83.06,75.82c-1.34-4.14-2.72-8.27-4.1-12.4-.27-.81-.32-1.38.33-2.18,2.03-2.49,2.5-5.32.99-8.26-1.51-2.93-4.01-4.89-6.76-6.59-.63-.39-1.2-.97-1.64-1.58-.82-1.14-1.74-2.1-3.07-2.64-2.28-.93-4.39-.27-6.42.75-1.48.74-2.71,1.84-3.18,3.47-.36,1.27-.55,2.62-.65,3.95-.33,4.37,1.05,8.35,2.58,11.95h11.56c1.87,0,3.38,1.51,3.38,3.38v13.69c0,.15-.01.3-.03.44,1.4,1.58,3.38,1.93,5.15.95,1.75-.97,2.51-2.92,1.85-4.95Zm-4.96-16.24c-.45,1.29-1.65,1.98-3.02,1.67-2.27-.51-4.35-1.46-6.22-2.84-3.7-2.73-5.94-6.38-6.73-10.9-.27-1.54.63-2.93,2.06-3.36,1.65-.51,3.09.07,3.94,1.76.17.84.34,1.96.64,3.04.98,3.57,3.28,5.92,6.77,7.14.39.14.78.26,1.15.44,1.24.57,1.83,1.86,1.42,3.05Z" style="fill: #fff; stroke-width: 0px;"/>
</svg>