<svg width="75" height="75" viewBox="0 0 75 75" fill="none" xmlns="http://www.w3.org/2000/svg">
<path d="M65.5004 36.8802C65.5004 44.8302 65.4904 52.7802 65.5204 60.7402C65.5204 61.7502 65.2404 62.5302 64.4904 63.2202C63.4004 64.2202 62.3904 65.3102 61.3404 66.3502C60.2804 67.4002 59.3604 67.3902 58.2904 66.3302C57.6704 65.7202 57.0404 65.1202 56.4504 64.4802C56.0904 64.0902 55.8404 64.0402 55.4604 64.4602C54.9104 65.0802 54.3004 65.6402 53.7104 66.2202C52.4904 67.4402 51.6204 67.4402 50.4104 66.2402C49.7904 65.6302 49.1604 65.0202 48.5704 64.3902C48.2804 64.0802 48.0704 64.0602 47.7704 64.3802C47.1104 65.0702 46.4304 65.7502 45.7404 66.4202C44.7604 67.3802 43.8004 67.3702 42.8204 66.4202C42.1504 65.7602 41.4804 65.1102 40.8404 64.4302C40.5004 64.0602 40.2704 64.1002 39.9504 64.4502C39.2904 65.1502 38.6104 65.8202 37.9204 66.4802C36.9804 67.3702 36.0304 67.3602 35.0904 66.4602C34.4204 65.8102 33.7404 65.1602 33.1104 64.4702C32.7304 64.0502 32.4804 64.1002 32.1204 64.4902C31.5004 65.1602 30.8404 65.8002 30.1904 66.4402C29.2204 67.3902 28.2504 67.3802 27.2704 66.4202C26.6604 65.8202 26.0704 65.2202 25.4704 64.6202C25.0637 64.2135 24.6637 64.2068 24.2704 64.6002C23.6504 65.2202 23.0504 65.8402 22.4204 66.4502C21.4404 67.4002 20.4704 67.3802 19.5004 66.4202C18.4004 65.3302 17.3404 64.2102 16.2104 63.1502C15.5204 62.5002 15.2404 61.7902 15.2404 60.8402C15.2604 45.0002 15.2604 29.1602 15.2404 13.3202C15.2404 12.8502 15.2304 12.3502 15.0904 11.9002C14.7004 10.6602 13.4704 9.89016 12.2604 10.0802C10.9204 10.2902 9.94037 11.3202 9.93037 12.6602C9.90037 15.4302 9.93037 18.1902 9.91037 20.9602C9.91037 21.3502 10.0404 21.5102 10.4404 21.5002C10.8104 21.4902 11.1804 21.5002 11.5504 21.5502C12.5404 21.7202 13.1304 22.4502 13.0904 23.4202C13.0504 24.3202 12.3604 25.0802 11.4204 25.1202C10.2704 25.1702 9.11037 25.1702 7.96037 25.1202C7.07037 25.0802 6.45037 24.4202 6.32037 23.5302C6.29037 23.3402 6.28037 23.1402 6.28037 22.9402C6.28037 19.6102 6.26037 16.2702 6.28037 12.9402C6.30037 9.70016 8.16037 7.32016 11.2204 6.57016C11.7404 6.44016 12.3004 6.43016 12.8404 6.43016C28.2004 6.43016 43.5604 6.45016 58.9204 6.41016C62.3504 6.41016 64.7404 8.67016 65.3004 11.1702C65.4704 11.9002 65.5104 12.6802 65.5104 13.4402C65.5204 21.2602 65.5104 29.0802 65.5104 36.9002C65.5004 36.9002 65.4804 36.9002 65.4704 36.9002L65.5004 36.8802ZM18.5604 10.0102C18.6804 11.3202 18.8904 12.5202 18.8904 13.7202C18.9104 28.3402 18.9004 42.9502 18.9004 57.5702C18.9004 58.4402 18.8804 59.3102 18.9104 60.1802C18.9204 60.4402 19.0304 60.7402 19.1904 60.9302C19.6304 61.4402 20.1404 61.8902 20.6104 62.3802C20.8604 62.6502 21.0604 62.6402 21.3104 62.3802C21.9904 61.6702 22.6804 60.9802 23.3904 60.3002C24.3604 59.3502 25.3304 59.3602 26.3004 60.3002C26.9804 60.9702 27.6704 61.6402 28.3304 62.3402C28.6304 62.6602 28.8304 62.6402 29.1304 62.3402C29.7904 61.6502 30.4804 60.9802 31.1604 60.3102C32.1304 59.3602 33.0904 59.3602 34.0704 60.3102C34.7604 60.9802 35.4404 61.6502 36.1004 62.3502C36.4004 62.6602 36.6004 62.6602 36.9004 62.3502C37.5604 61.6602 38.2504 60.9902 38.9304 60.3202C39.9004 59.3702 40.8704 59.3602 41.8404 60.3202C42.5304 60.9902 43.2104 61.6602 43.8704 62.3602C44.1604 62.6702 44.3704 62.6802 44.6704 62.3602C45.3304 61.6702 46.0104 61.0002 46.7004 60.3302C47.6704 59.3802 48.6404 59.3702 49.6204 60.3302C50.3104 61.0002 50.9904 61.6702 51.6504 62.3702C51.9504 62.6902 52.1604 62.6602 52.4504 62.3702C53.1604 61.6302 53.8804 60.9102 54.6304 60.2002C55.4304 59.4502 56.4004 59.4402 57.2104 60.1702C57.6204 60.5302 57.9904 60.9302 58.3704 61.3102C58.8404 61.7802 59.3104 62.2402 59.9204 62.8402C60.4204 62.2802 60.8204 61.7502 61.2904 61.3102C61.7404 60.8902 61.9104 60.4502 61.9104 59.8302C61.8904 44.3602 61.9004 28.9002 61.9004 13.4302C61.9004 13.1502 61.9004 12.8602 61.8904 12.5802C61.8204 11.6502 61.4104 10.8602 60.5604 10.4702C59.9904 10.2002 59.3104 10.0702 58.6804 10.0702C45.5204 10.0502 32.3604 10.0502 19.2004 10.0502C18.9604 10.0502 18.7304 10.0502 18.5704 10.0502L18.5604 10.0102Z" fill="#0B5079"/>
<path d="M50.2901 23.0303C50.2901 23.9203 50.3001 24.8203 50.2901 25.7103C50.2701 26.7703 49.6101 27.4903 48.5601 27.5403C47.5801 27.5903 46.6001 27.5903 45.6201 27.5603C45.1201 27.5503 44.9101 27.6903 44.9401 28.2203C44.9801 29.1103 44.9601 30.0103 44.9401 30.9003C44.9201 32.1603 44.2201 32.9103 42.9701 32.9403C41.2701 32.9703 39.5701 32.9703 37.8701 32.9403C36.7001 32.9203 35.9901 32.1603 35.9601 30.9803C35.9401 30.0403 35.9401 29.1103 35.9601 28.1703C35.9701 27.7103 35.8001 27.5603 35.3501 27.5703C34.4401 27.5903 33.5201 27.5903 32.6101 27.5703C31.2901 27.5403 30.6101 26.8403 30.6001 25.5203C30.6001 23.8903 30.5901 22.2503 30.6001 20.6203C30.6001 19.3603 31.3301 18.6503 32.6001 18.6303C33.4701 18.6303 34.3401 18.5903 35.2101 18.6403C35.8401 18.6803 35.9901 18.4303 35.9701 17.8503C35.9301 17.0003 35.9501 16.1503 35.9701 15.3003C35.9901 13.9903 36.6701 13.2703 37.9801 13.2403C39.6301 13.2103 41.2901 13.2103 42.9501 13.2403C44.2501 13.2603 44.9401 13.9903 44.9601 15.3003C44.9701 16.1703 44.9901 17.0403 44.9601 17.9103C44.9401 18.4403 45.0901 18.6503 45.6501 18.6203C46.5401 18.5803 47.4401 18.6003 48.3301 18.6103C49.6001 18.6203 50.3101 19.3303 50.3201 20.6003C50.3201 21.4103 50.3201 22.2103 50.3201 23.0203L50.2901 23.0303ZM39.6101 29.3003C40.0101 29.3003 40.3101 29.2703 40.6101 29.3003C41.1201 29.3603 41.3101 29.1603 41.2801 28.6403C41.2401 27.7503 41.2601 26.8503 41.2801 25.9603C41.3101 24.6503 42.0101 23.9503 43.3201 23.9403C44.0801 23.9403 44.8401 23.9403 45.6101 23.9403C46.7201 23.9403 46.7001 23.9503 46.6801 22.8303C46.6801 22.3903 46.5301 22.2103 46.0701 22.2203C45.1301 22.2403 44.2001 22.2403 43.2601 22.2203C42.0301 22.2003 41.3301 21.5103 41.2901 20.2703C41.2701 19.6003 41.2901 18.9203 41.2901 18.2503C41.2901 17.2569 40.7935 16.8103 39.8001 16.9103C39.8001 16.9103 39.7301 16.9603 39.7001 16.9803C39.6801 17.0203 39.6501 17.0603 39.6501 17.1003C39.6401 18.1403 39.6501 19.1903 39.6201 20.2303C39.5901 21.5103 38.9001 22.2103 37.6301 22.2303C36.6901 22.2403 35.7601 22.2503 34.8201 22.2303C34.4001 22.2303 34.2101 22.3703 34.2401 22.8003C34.2501 22.9703 34.2601 23.1503 34.2401 23.3203C34.1901 23.8003 34.3701 23.9803 34.8601 23.9603C35.8201 23.9203 36.7801 23.9303 37.7301 23.9503C38.8201 23.9703 39.5201 24.6403 39.6101 25.7203C39.6401 26.1103 39.6201 26.5003 39.6201 26.9003C39.6201 27.6803 39.6201 28.4503 39.6201 29.3003H39.6101Z" fill="#0B5079"/>
<path d="M37.5692 36.5796C41.7692 36.5796 45.9692 36.5796 50.1692 36.5796C51.4492 36.5796 52.2492 37.2996 52.2492 38.4196C52.2492 39.2496 51.7292 39.9396 50.9192 40.1296C50.5892 40.2096 50.2292 40.2296 49.8892 40.2296C41.7092 40.2296 33.5192 40.2296 25.3392 40.2296C25.0392 40.2296 24.7292 40.2296 24.4292 40.1696C23.4392 39.9896 22.8592 39.2596 22.9092 38.2796C22.9492 37.3796 23.6392 36.6796 24.5892 36.5896C24.8292 36.5696 25.0692 36.5796 25.3092 36.5796C29.3992 36.5796 33.4992 36.5796 37.5892 36.5796H37.5692Z" fill="#0B5079"/>
<path d="M55.3706 47.6096C54.7206 47.2096 54.1606 46.8696 53.4306 46.4296C53.4306 47.3396 53.4006 48.0496 53.4606 48.7496C53.4706 48.8996 53.8106 49.0796 54.0206 49.1496C55.1606 49.5196 56.2306 49.9796 56.7406 51.1896C57.4506 52.8896 56.6906 54.8196 54.7906 55.4896C53.6806 55.8796 53.1906 56.3796 53.4106 57.5196C53.4206 57.5796 53.3806 57.6396 53.3406 57.7996C52.8506 57.7996 52.3306 57.8296 51.8206 57.7796C51.7006 57.7696 51.4906 57.4696 51.5106 57.3396C51.7206 56.2496 51.2006 55.8396 50.2006 55.6096C49.5306 55.4496 48.9306 54.9696 48.3306 54.5796C48.1906 54.4896 48.0806 54.1296 48.1506 53.9996C48.4206 53.4596 48.7706 52.9596 49.0806 52.4696C49.8606 52.8696 50.6006 53.2396 51.4906 53.6896C51.4906 52.6396 51.5106 51.8396 51.4706 51.0396C51.4706 50.8896 51.2306 50.7096 51.0606 50.6296C50.6706 50.4396 50.2406 50.3296 49.8506 50.1396C47.9106 49.1696 47.6206 46.4896 49.3306 45.1496C49.8306 44.7596 50.4906 44.5696 51.0506 44.2496C51.2306 44.1496 51.3506 43.9196 51.4806 43.7396C51.5006 43.7096 51.4806 43.6596 51.4806 43.6096C51.5206 42.1796 51.5206 42.1896 52.9306 42.2796C53.3006 42.2996 53.4706 42.4496 53.4006 42.7996C53.2206 43.7796 53.5706 44.2696 54.5906 44.4996C55.2106 44.6396 55.7706 45.1196 56.3206 45.5096C56.4506 45.5996 56.5306 45.9996 56.4406 46.1396C56.1206 46.6496 55.7306 47.1196 55.3606 47.6096H55.3706ZM53.4706 53.4396C54.1106 53.2396 54.3306 52.7996 54.3206 52.2496C54.3006 51.7696 53.9806 51.4996 53.4706 51.3696V53.4396ZM51.4306 48.3796V46.7196C50.6906 47.2996 50.6906 47.9596 51.4306 48.3796Z" fill="#0B5079"/>
<path d="M34.4009 55.1C31.6109 55.1 28.8309 55.12 26.0409 55.08C25.5309 55.08 24.9509 54.9 24.5409 54.62C23.9509 54.21 23.7709 53.53 23.9809 52.81C24.1909 52.08 24.8009 51.59 25.5309 51.51C25.5909 51.51 25.6609 51.5 25.7309 51.5C31.5709 51.5 37.4009 51.5 43.2409 51.5C44.1109 51.5 44.7409 51.98 44.9709 52.73C45.3609 53.97 44.5309 55.08 43.1509 55.09C40.2309 55.11 37.3109 55.09 34.4009 55.09V55.1Z" fill="#0B5079"/>
<path d="M30.81 45.01C32.47 45.01 34.12 45.01 35.78 45.01C36.93 45.01 37.71 45.72 37.73 46.76C37.76 47.84 37 48.61 35.82 48.61C32.51 48.63 29.2 48.63 25.88 48.61C24.7 48.61 23.91 47.83 23.92 46.79C23.92 45.74 24.74 45.01 25.91 45C27.54 45 29.18 45 30.81 45V45.01Z" fill="#0B5079"/>
<path d="M57.9905 38.4296C57.9805 39.4296 57.2005 40.2096 56.2105 40.2196C55.2105 40.2296 54.3905 39.3996 54.4005 38.3896C54.4005 37.3996 55.2105 36.6096 56.1905 36.5996C57.2005 36.5996 58.0105 37.4096 58.0005 38.4296H57.9905Z" fill="#0B5079"/>
</svg>
