<?xml version="1.0" encoding="UTF-8"?>
<svg id="Layer_1" data-name="Layer 1" xmlns="http://www.w3.org/2000/svg" viewBox="0 0 120 120" width="100%" height="100%">
  <g>
    <circle cx="60" cy="60" r="55.41" style="fill: #fff; stroke: #005178; stroke-miterlimit: 10; stroke-width: 6px;"/>
    <circle cx="60" cy="60" r="48.69" style="fill: #5a97cb; stroke-width: 0px;"/>
    <circle cx="60" cy="60" r="55.41" style="fill: #fff; stroke: #005178; stroke-miterlimit: 10; stroke-width: 6px;"/>
    <circle cx="60" cy="60" r="48.69" style="fill: #5a97cb; stroke-width: 0px;"/>
  </g>
  <g>
    <g>
      <path d="m75.72,40.98c5.99,0,10.79,5.56,9.45,11.77-.78,3.64-3.72,6.58-7.36,7.36-6.21,1.33-11.77-3.46-11.77-9.45,0-5.31,4.37-9.68,9.68-9.68m0-3.19c-7.93,0-14.23,7.25-12.61,15.45.99,5,5.02,9.03,10.02,10.02,8.2,1.62,15.45-4.68,15.45-12.61.12-7.08-5.78-12.86-12.86-12.86h0Z" style="fill: #fff; stroke: #fff; stroke-miterlimit: 10; stroke-width: .5px;"/>
      <path d="m55.66,80.61v-3.36c0-3.7,3.03-6.73,6.73-6.73h26.67c3.7,0,6.73,3.03,6.73,6.73v3.36c0,.88.71,1.59,1.59,1.59h.12c.88,0,1.59-.71,1.59-1.59v-3.36c-.12-5.43-4.6-9.91-10.03-9.91h-26.67c-5.45,0-9.91,4.46-9.91,9.91v3.36c0,.88.71,1.59,1.59,1.59h0c.88,0,1.59-.71,1.59-1.59Z" style="fill: #fff; stroke: #fff; stroke-miterlimit: 10; stroke-width: .5px;"/>
    </g>
    <g>
      <g>
        <path d="m45.64,49.36c2.65,0,4.76,2.46,4.17,5.19-.35,1.6-1.64,2.9-3.25,3.25-2.74.59-5.19-1.53-5.19-4.17,0-2.34,1.93-4.27,4.27-4.27m0-1.41c-3.5,0-6.28,3.2-5.56,6.82.44,2.21,2.21,3.98,4.42,4.42,3.62.72,6.82-2.06,6.82-5.56.05-3.12-2.55-5.68-5.68-5.68h0Z" style="fill: #fff; stroke: #fff; stroke-linecap: round; stroke-miterlimit: 10; stroke-width: .5px;"/>
        <path d="m36.79,66.84v-1.48c0-1.63,1.34-2.97,2.97-2.97h11.77c1.63,0,2.97,1.34,2.97,2.97v1.48c0,.39.31.7.7.7h.05c.39,0,.7-.31.7-.7v-1.48c-.05-2.4-2.03-4.37-4.43-4.37h-11.77c-2.41,0-4.37,1.97-4.37,4.37v1.48c0,.39.31.7.7.7h0c.39,0,.7-.31.7-.7Z" style="fill: #fff; stroke: #fff; stroke-linecap: round; stroke-miterlimit: 10; stroke-width: .5px;"/>
      </g>
      <path d="m49.14,76.12h-24.99c-1.79,0-3.23-1.45-3.23-3.23v-2.2h30.4" style="fill: none; stroke: #fff; stroke-linecap: round; stroke-miterlimit: 10; stroke-width: 2px;"/>
      <path d="m60.74,43.97H27.95c-1.79,0-3.23,1.45-3.23,3.23v23.48" style="fill: none; stroke: #fff; stroke-linecap: round; stroke-miterlimit: 10; stroke-width: 2px;"/>
    </g>
  </g>
</svg>