<svg width="76" height="76" viewBox="0 0 76 76" fill="none" xmlns="http://www.w3.org/2000/svg">
<path d="M38.8097 51.2599C38.8097 46.7299 38.7197 42.1899 38.8397 37.6599C38.9497 33.6699 40.9097 30.6899 44.3797 28.7199C44.7897 28.4899 44.9397 28.2499 44.9497 27.7899C45.0997 21.9099 45.2597 16.0399 45.4197 10.1599C45.4497 9.20988 45.7697 8.87988 46.7297 8.87988C49.2997 8.87988 51.8797 8.87988 54.4497 8.87988C55.4397 8.87988 55.7797 9.20988 55.7997 10.1799C55.9497 16.0599 56.1097 21.9299 56.2397 27.8099C56.2397 28.2399 56.3897 28.4599 56.7697 28.6699C59.9997 30.4799 61.8797 33.2199 62.3197 36.9199C62.3697 37.3599 62.4097 37.8099 62.4097 38.2599C62.4097 47.1199 62.4097 55.9699 62.4097 64.8299C62.4097 66.6699 61.4397 68.0999 59.7897 68.6599C59.3897 68.7999 58.9397 68.8699 58.5197 68.8699C53.2397 68.8799 47.9597 68.8899 42.6797 68.8699C40.4497 68.8699 38.7897 67.2099 38.7897 64.9799C38.7797 60.3999 38.7897 55.8299 38.7897 51.2499L38.8097 51.2599ZM40.7997 51.0699C40.7997 55.6499 40.7997 60.2199 40.7997 64.7999C40.7997 66.0999 41.5097 66.8699 42.7497 66.8699C47.9897 66.8699 53.2197 66.8699 58.4597 66.8699C59.6597 66.8699 60.3997 66.0999 60.4097 64.8899C60.4097 64.1899 60.4097 63.4799 60.4097 62.7799C60.4097 62.1999 60.4097 62.1999 59.8097 62.1999C56.1797 62.1999 52.5397 62.1999 48.9097 62.1999C47.7997 62.1999 47.4997 61.8999 47.4997 60.7799C47.4997 53.7599 47.4997 46.7499 47.4997 39.7299C47.4997 38.5999 47.7797 38.3099 48.8997 38.3099C52.5797 38.3099 56.2597 38.3099 59.9397 38.3099C60.3197 38.3099 60.4297 38.1999 60.4097 37.8199C60.1697 34.2499 58.4597 31.6699 55.2197 30.1499C54.5997 29.8599 54.2997 29.4999 54.2797 28.7999C54.1997 25.0799 54.0797 21.3499 53.9897 17.6299C53.9797 17.1899 53.8397 17.0799 53.4197 17.0799C51.5497 17.0999 49.6797 17.0799 47.8097 17.0799C47.2197 17.0799 47.2197 17.0799 47.1997 17.6699C47.0997 21.4099 46.9997 25.1499 46.9197 28.8799C46.9097 29.4599 46.6697 29.8299 46.1397 30.0599C45.7197 30.2499 45.2897 30.4399 44.9097 30.6899C42.1497 32.4699 40.7997 35.0199 40.7997 38.2899C40.7997 42.5399 40.7997 46.7899 40.7997 51.0299V51.0699ZM60.4197 50.2399C60.4197 47.0999 60.4197 43.9599 60.4197 40.8199C60.4197 40.4399 60.3297 40.2999 59.9197 40.2999C56.6097 40.3199 53.3097 40.3099 49.9997 40.2999C49.6097 40.2999 49.4897 40.4099 49.4897 40.8099C49.4997 47.0899 49.4997 53.3699 49.4897 59.6599C49.4897 60.0699 49.5997 60.2099 50.0197 60.1999C53.3097 60.1899 56.5997 60.1899 59.8897 60.1999C60.3097 60.1999 60.4197 60.0699 60.4197 59.6599C60.3997 56.5199 60.4197 53.3799 60.4197 50.2399ZM53.8897 15.0699C53.8997 14.9599 53.9297 14.8699 53.9297 14.7899C53.8997 13.5999 53.8497 12.3999 53.8297 11.2099C53.8297 10.8799 53.6197 10.9099 53.4097 10.9099C51.5597 10.9099 49.7097 10.9099 47.8497 10.9099C47.5297 10.9099 47.3997 10.9999 47.3897 11.3399C47.3797 12.4999 47.3397 13.6699 47.3197 14.8299C47.3197 14.9099 47.3497 14.9999 47.3697 15.0799H53.8897V15.0699Z" fill="#0B5079" stroke="#0B5079" stroke-width="1.5" stroke-miterlimit="10"/>
<path d="M24.6791 34.5002C27.5991 34.5002 30.5091 34.5002 33.4291 34.5002C34.5891 34.5002 34.8791 34.8002 34.8791 35.9702C34.8791 38.9802 34.9091 41.9802 34.8791 44.9902C34.8291 48.9202 33.0991 51.9302 29.7391 53.9702C28.6191 54.6502 27.3791 55.0602 26.0791 55.2302C25.7591 55.2702 25.6491 55.3802 25.6491 55.7002C25.6491 59.2902 25.6491 62.8802 25.6491 66.4702C25.6491 66.8002 25.7791 66.8802 26.0791 66.8702C27.3691 66.8602 28.6491 66.8602 29.9391 66.8702C30.1991 66.8702 30.4891 66.9302 30.7091 67.0502C31.0791 67.2602 31.2191 67.6402 31.1391 68.0602C31.0491 68.5002 30.7591 68.7602 30.3291 68.8602C30.2391 68.8802 30.1491 68.8802 30.0591 68.8802C26.4691 68.8802 22.8791 68.8802 19.2891 68.8802C18.6091 68.8802 18.1691 68.4702 18.1791 67.8602C18.1791 67.2802 18.6191 66.8802 19.2791 66.8802C20.5691 66.8802 21.8491 66.8602 23.1391 66.8802C23.5591 66.8802 23.6691 66.7602 23.6691 66.3502C23.6591 62.8502 23.6591 59.3502 23.6691 55.8502C23.6691 55.4202 23.5591 55.2702 23.1091 55.2102C19.2591 54.7102 15.7491 51.6002 14.8191 47.8302C14.5791 46.8502 14.4491 45.8302 14.4391 44.8202C14.3891 41.8302 14.4191 38.8402 14.4191 35.8402C14.4191 34.8402 14.7691 34.5002 15.7691 34.4902C18.7491 34.4902 21.7191 34.4902 24.6991 34.4902L24.6791 34.5002ZM16.4091 42.7002C16.4391 44.2202 16.3091 45.7002 16.6691 47.1802C17.7691 51.6002 22.6391 54.3902 26.9591 52.9802C31.9291 51.3602 33.3191 47.1402 32.8091 42.7002H16.4091ZM24.6291 40.6602C27.1991 40.6602 29.7691 40.6602 32.3491 40.6602C32.7291 40.6602 32.9091 40.6002 32.8891 40.1502C32.8491 39.0902 32.8591 38.0302 32.8891 36.9702C32.8891 36.5902 32.7691 36.4902 32.3991 36.4902C27.2291 36.5002 22.0491 36.5002 16.8791 36.4902C16.4891 36.4902 16.4091 36.6402 16.4091 36.9902C16.4291 38.0502 16.4391 39.1102 16.4091 40.1702C16.3991 40.5802 16.5391 40.6702 16.9191 40.6602C19.4891 40.6402 22.0591 40.6602 24.6391 40.6602H24.6291Z" fill="#0B5079" stroke="#0B5079" stroke-width="1.5" stroke-miterlimit="10"/>
</svg>
