<?xml version="1.0" encoding="UTF-8"?>
<svg id="Layer_1" data-name="Layer 1" xmlns="http://www.w3.org/2000/svg" viewBox="0 0 120 120" width="100%" height="100%">
  <g>
    <circle cx="60" cy="60" r="55.41" style="fill: #fff; stroke: #005178; stroke-miterlimit: 10; stroke-width: 6px;"/>
    <circle cx="60" cy="60" r="48.69" style="fill: #5a97cb; stroke-width: 0px;"/>
    <circle cx="60" cy="60" r="55.41" style="fill: #fff; stroke: #005178; stroke-miterlimit: 10; stroke-width: 6px;"/>
    <circle cx="60" cy="60" r="48.69" style="fill: #5a97cb; stroke-width: 0px;"/>
  </g>
  <g>
    <g>
      <line x1="60" y1="94.24" x2="60" y2="92.24" style="fill: none; stroke: #fff; stroke-linecap: round; stroke-linejoin: round; stroke-width: 2px;"/>
      <line x1="60" y1="84.66" x2="60" y2="31.55" style="fill: none; stroke: #fff; stroke-dasharray: 0 0 3.79 7.59; stroke-linecap: round; stroke-linejoin: round; stroke-width: 2px;"/>
      <line x1="60" y1="27.76" x2="60" y2="25.76" style="fill: none; stroke: #fff; stroke-linecap: round; stroke-linejoin: round; stroke-width: 2px;"/>
    </g>
    <g>
      <line x1="94.24" y1="60" x2="92.24" y2="60" style="fill: none; stroke: #fff; stroke-linecap: round; stroke-linejoin: round; stroke-width: 2px;"/>
      <line x1="84.66" y1="60" x2="31.55" y2="60" style="fill: none; stroke: #fff; stroke-dasharray: 0 0 3.79 7.59; stroke-linecap: round; stroke-linejoin: round; stroke-width: 2px;"/>
      <line x1="27.76" y1="60" x2="25.76" y2="60" style="fill: none; stroke: #fff; stroke-linecap: round; stroke-linejoin: round; stroke-width: 2px;"/>
    </g>
  </g>
  <rect x="34.1" y="32.75" width="15" height="15" style="fill: none; stroke: #fff; stroke-linecap: round; stroke-linejoin: round; stroke-width: 2.11px;"/>
  <circle cx="77.29" cy="77.97" r="7.5" style="fill: none; stroke: #fff; stroke-linecap: round; stroke-linejoin: round; stroke-width: 2.13px;"/>
  <polygon points="46.1 71.04 38.1 71.04 34.1 77.97 38.1 84.9 46.1 84.9 50.1 77.97 46.1 71.04" style="fill: none; stroke: #fff; stroke-linecap: round; stroke-linejoin: round; stroke-width: 1.81px;"/>
  <polygon points="77.29 33.69 69.72 46.81 84.86 46.81 77.29 33.69" style="fill: none; stroke: #fff; stroke-linecap: round; stroke-linejoin: round; stroke-width: 1.81px;"/>
</svg>