<svg width="76" height="76" viewBox="0 0 76 76" fill="none" xmlns="http://www.w3.org/2000/svg">
<path d="M46.9691 67.4002C46.9691 66.4602 47.0991 65.5002 46.9491 64.5802C46.4791 61.8302 47.6591 61.0602 50.2691 61.2402C54.2391 61.5202 57.9991 60.9702 59.6391 56.5602C60.0691 55.4102 60.1591 54.0602 60.1191 52.8102C59.9991 48.9002 59.3791 44.9702 64.8291 43.7402C66.2991 43.4102 67.6991 41.6402 65.8391 39.6002C64.8591 38.5302 64.1291 37.1802 63.4691 35.8602C61.9591 32.8302 60.0591 30.0502 59.6191 26.4702C57.6891 10.7102 38.4991 2.99017 23.9191 10.4702C9.23909 17.9902 5.90909 36.2402 16.3391 48.1502C21.0791 53.5702 23.5091 60.0102 22.4991 67.4002" stroke="#0B5079" stroke-width="5" stroke-miterlimit="10" stroke-linecap="round"/>
<path d="M22.5508 24.3101V36.5601" stroke="#0B5079" stroke-width="3" stroke-miterlimit="10" stroke-linecap="round"/>
<path d="M19.7402 33.9902L22.6402 36.8902L25.5702 33.9702" stroke="#0B5079" stroke-width="3" stroke-miterlimit="10" stroke-linecap="round"/>
<path d="M37.5508 16.3101V28.5601" stroke="#0B5079" stroke-width="3" stroke-miterlimit="10" stroke-linecap="round"/>
<path d="M34.7402 25.9902L37.6402 28.8902L40.5702 25.9702" stroke="#0B5079" stroke-width="3" stroke-miterlimit="10" stroke-linecap="round"/>
<path d="M47.5508 28.3101V40.5601" stroke="#0B5079" stroke-width="3" stroke-miterlimit="10" stroke-linecap="round"/>
<path d="M44.7402 37.9902L47.6402 40.8902L50.5702 37.9702" stroke="#0B5079" stroke-width="3" stroke-miterlimit="10" stroke-linecap="round"/>
</svg>
