<?xml version="1.0" encoding="UTF-8"?>
<svg id="Layer_1" data-name="Layer 1" xmlns="http://www.w3.org/2000/svg" viewBox="0 0 120 120" width="100%" height="100%">
  <g>
    <circle cx="60" cy="60" r="55.41" style="fill: #fff; stroke: #005178; stroke-miterlimit: 10; stroke-width: 6px;"/>
    <circle cx="60" cy="60" r="48.69" style="fill: #5a97cb; stroke-width: 0px;"/>
    <circle cx="60" cy="60" r="55.41" style="fill: #fff; stroke: #005178; stroke-miterlimit: 10; stroke-width: 6px;"/>
    <circle cx="60" cy="60" r="48.69" style="fill: #5a97cb; stroke-width: 0px;"/>
  </g>
  <path d="m69.36,90.47c0-.94.13-1.9-.02-2.82-.47-2.75.71-3.52,3.32-3.34,3.97.28,7.73-.27,9.37-4.68.43-1.15.52-2.5.48-3.75-.12-3.91-.74-7.84,4.71-9.07,1.47-.33,2.87-2.1,1.01-4.14-.98-1.07-1.71-2.42-2.37-3.74-1.51-3.03-3.41-5.81-3.85-9.39-1.93-15.76-21.12-23.48-35.7-16-14.68,7.52-18.01,25.77-7.58,37.68,4.74,5.42,7.17,11.86,6.16,19.25" style="fill: none; stroke: #fff; stroke-linecap: round; stroke-miterlimit: 10; stroke-width: 2px;"/>
  <polyline points="59.19 37.2 51.03 47.47 61.86 47.47 53.7 61.11" style="fill: none; stroke: #fff; stroke-linecap: round; stroke-linejoin: round; stroke-width: 2px;"/>
  <g>
    <path d="m68.3,44.9c1.04-.32,2.2-.61,3.17-.39,1.23.29,2.51.9,3.38,1.93,1.65,1.96,2.2,4.18,1.16,6.62-.78,1.82-2.11,3-4.06,3.54-1.94.54-3.62-.02-5.26-.94" style="fill: none; stroke: #fff; stroke-linecap: round; stroke-linejoin: round;"/>
    <path d="m71.38,44.36c-.28-2.41-3.05-4.66-5.49-4.63" style="fill: none; stroke: #fff; stroke-linecap: round; stroke-linejoin: round;"/>
    <path d="m47.1,60.21c-.68-.15-1.3-.47-1.79-.99,0,0-1.76-.37-2.34-.5-3.16-.69-5.07-3.11-4.99-6.37.03-1.38.38-2.81,1.84-3.55,0,0-1.28-2.82,1.72-5.25,1.12-.9,3.25-1.95,4.8-1.52,0,0,.91-3.45,5.18-3.45" style="fill: none; stroke: #fff; stroke-linecap: round; stroke-linejoin: round;"/>
    <path d="m66.85,52.22c.29,1.11.23,2.3-.25,3.24-.68,1.31-1.72,2.46-3.36,2.7" style="fill: none; stroke: #fff; stroke-linecap: round; stroke-linejoin: round;"/>
  </g>
</svg>