<?xml version="1.0" encoding="UTF-8"?>
<svg id="Layer_1" data-name="Layer 1" xmlns="http://www.w3.org/2000/svg" viewBox="0 0 120 120" width="100%" height="100%">
  <g>
    <circle cx="60" cy="60" r="55.41" style="fill: #fff; stroke: #005178; stroke-miterlimit: 10; stroke-width: 6px;"/>
    <circle cx="60" cy="60" r="48.69" style="fill: #5a97cb; stroke-width: 0px;"/>
    <circle cx="60" cy="60" r="55.41" style="fill: #fff; stroke: #005178; stroke-miterlimit: 10; stroke-width: 6px;"/>
    <circle cx="60" cy="60" r="48.69" style="fill: #5a97cb; stroke-width: 0px;"/>
  </g>
  <circle cx="47.88" cy="54.35" r="2.81" style="fill: #fff; stroke-width: 0px;"/>
  <circle cx="71.52" cy="54.35" r="2.81" style="fill: #fff; stroke-width: 0px;"/>
  <path d="m62.83,28.56c.02.08.04.17.05.25.12.61.63,1.06,1.24,1.15,9.72,1.41,18.7,7.38,23.24,16.64,7.26,14.83.87,33.5-13.97,40.76-14.83,7.26-33.5.87-40.76-13.97-4.77-9.75-3.64-21.16,1.91-29.89.35-.55.3-1.25-.11-1.76-.03-.04-.07-.09-.1-.13-.64-.81-1.87-.77-2.42.09-6.17,9.66-7.44,22.3-2.16,33.1,8.03,16.39,28.65,23.46,45.05,15.44,16.39-8.03,23.46-28.65,15.44-45.05-5.03-10.27-15-16.87-25.77-18.4-1.01-.14-1.85.77-1.64,1.77Z" style="fill: #fff; stroke-width: 0px;"/>
  <polyline points="47.17 22.71 50.46 27.74 55.49 24.45" style="fill: none; stroke: #fff; stroke-linecap: round; stroke-miterlimit: 10; stroke-width: 2px;"/>
  <polyline points="51.95 39.45 48.53 34.22 43.5 37.51" style="fill: none; stroke: #fff; stroke-linecap: round; stroke-miterlimit: 10; stroke-width: 2px;"/>
  <polyline points="41.1 33.84 46.43 30.36 43.25 25.49" style="fill: none; stroke: #fff; stroke-linecap: round; stroke-miterlimit: 10; stroke-width: 2px;"/>
  <polyline points="56.22 36.66 52.8 31.43 57.83 28.14" style="fill: none; stroke: #fff; stroke-linecap: round; stroke-miterlimit: 10; stroke-width: 2px;"/>
  <path d="m68.67,29.65c0,.09,0,.17,0,.26,0,.62.42,1.16,1.01,1.36,9.28,3.21,16.99,10.75,19.71,20.7,4.35,15.93-5.43,33.06-21.36,37.42-15.93,4.35-33.06-5.43-37.42-21.36-2.86-10.47.39-21.46,7.48-29,.45-.48.53-1.18.22-1.75-.03-.05-.05-.1-.08-.14-.48-.91-1.69-1.11-2.39-.36-7.87,8.33-11.49,20.51-8.32,32.11,4.81,17.61,23.75,28.42,41.35,23.61,17.61-4.81,28.42-23.75,23.61-41.35-3.01-11.03-11.57-19.38-21.87-22.91-.97-.33-1.97.41-1.94,1.44Z" style="fill: #fff; stroke-width: 0px;"/>
  <path d="m67.22,51.33c.24,0,.49-.05.72-.17l7.96-3.98c.63-.31,1.05-.98.94-1.68-.18-1.15-1.37-1.69-2.31-1.22l-7.94,3.97c-.66.33-1.09,1.06-.94,1.78.18.81.86,1.29,1.58,1.29Z" style="fill: #fff; stroke-width: 0px;"/>
  <path d="m44.11,47.19l7.96,3.98c.23.12.48.17.72.17.72,0,1.41-.48,1.58-1.3.15-.73-.28-1.45-.94-1.78l-7.93-3.97c-.94-.47-2.13.07-2.31,1.22-.11.69.31,1.36.94,1.68Z" style="fill: #fff; stroke-width: 0px;"/>
  <path d="m45.7,73.48c9.42-8.6,18.63-9.03,27.61,0" style="fill: none; stroke: #fff; stroke-linecap: round; stroke-miterlimit: 10; stroke-width: 3px;"/>
</svg>