<svg width="151" height="178" viewBox="0 0 151 178" fill="none" xmlns="http://www.w3.org/2000/svg">
<path opacity="0.24" d="M108.351 54.6101C108.351 48.9301 95.1506 44.3301 78.8706 44.3301C62.5906 44.3301 49.3906 48.9301 49.3906 54.6101C49.3906 57.3701 52.5306 59.8801 57.6206 61.7301V65.1901C53.3606 66.0301 50.7606 67.1301 50.7606 68.3301C50.7606 69.5301 53.2006 70.5601 57.2506 71.4001C56.4706 73.7201 56.0306 76.2001 56.0306 78.7901C56.0306 91.6201 66.4306 102.02 79.2606 102.02C92.0906 102.02 102.491 91.6201 102.491 78.7901C102.491 76.1401 102.031 73.6101 101.211 71.2401C104.821 70.4301 106.991 69.4301 106.991 68.3301C106.991 67.2301 104.941 66.2901 101.501 65.4901V61.2101C105.781 59.4301 108.361 57.1301 108.361 54.6201L108.351 54.6101Z" fill="#005178"/>
<path opacity="0.24" d="M118.43 113.03L107.09 106.44C105.07 105.26 102.47 105.95 101.29 107.98L100.82 108.79H86.1603C86.1303 108.87 86.1103 108.95 86.0803 109.02C85.2903 110.78 84.4903 112.54 83.7103 114.3C83.5903 114.57 83.4503 114.66 83.1803 114.66C81.4103 114.65 79.6403 114.66 77.8703 114.64C77.7403 114.64 77.5303 114.53 77.4803 114.41C76.6303 112.56 75.8003 110.7 74.9703 108.84C74.9703 108.83 74.9703 108.8 74.9703 108.78H58.0403L56.9103 106.84C56.1003 105.44 54.3003 104.97 52.9003 105.78L39.2903 113.69C37.8903 114.5 37.4203 116.3 38.2303 117.7L39.1703 119.31C38.5903 120.95 38.2603 122.71 38.2603 124.56V140.33H73.6703C75.0203 132.41 76.3603 124.48 77.6903 116.56C77.7403 116.27 77.8403 116.17 78.1303 116.17C78.9403 116.19 79.7603 116.17 80.5703 116.17C81.3903 116.17 82.2203 116.17 83.0503 116.16C83.3003 116.16 83.4103 116.22 83.4603 116.49C84.3103 121.56 85.1703 126.63 86.0303 131.7C86.5203 134.57 87.0003 137.44 87.4903 140.31H119.72V124.54C119.72 123.07 119.5 121.65 119.13 120.3L120 118.81C121.18 116.79 120.49 114.19 118.47 113.01L118.43 113.03Z" fill="#005178"/>
<path d="M99.9807 101.41H45.2207V131.44H99.9807V101.41Z" fill="white"/>
<path d="M72.6206 93.7198C85.4502 93.7198 95.8506 83.3193 95.8506 70.4898C95.8506 57.6602 85.4502 47.2598 72.6206 47.2598C59.7911 47.2598 49.3906 57.6602 49.3906 70.4898C49.3906 83.3193 59.7911 93.7198 72.6206 93.7198Z" fill="#005178"/>
<path d="M54.5652 105.972L49.6666 97.5421C49.1755 96.6969 48.0922 96.4099 47.247 96.901L31.6318 105.975C30.7866 106.466 30.4996 107.549 30.9907 108.394L35.8893 116.824C36.3804 117.67 37.4637 117.957 38.3089 117.466L53.9241 108.392C54.7693 107.901 55.0563 106.817 54.5652 105.972Z" fill="#005178"/>
<path d="M101.72 46.32C101.72 40.64 88.5198 36.04 72.2398 36.04C55.9598 36.04 42.7598 40.64 42.7598 46.32C42.7598 49.08 45.8998 51.59 50.9898 53.44V62.09H94.8698V52.91C99.1498 51.13 101.73 48.83 101.73 46.32H101.72Z" fill="#005178"/>
<path d="M72.2291 64.8305C87.7539 64.8305 100.339 62.6814 100.339 60.0305C100.339 57.3795 87.7539 55.2305 72.2291 55.2305C56.7044 55.2305 44.1191 57.3795 44.1191 60.0305C44.1191 62.6814 56.7044 64.8305 72.2291 64.8305Z" fill="#005178"/>
<path d="M97.2809 100.49H79.5209C79.4909 100.57 79.4709 100.65 79.4409 100.72C78.6509 102.48 77.8509 104.24 77.0709 106C76.9509 106.27 76.8009 106.36 76.5409 106.36C74.7709 106.35 73.0009 106.36 71.2309 106.34C71.0909 106.34 70.8909 106.23 70.8409 106.11C69.9909 104.26 69.1609 102.4 68.3309 100.54C68.3309 100.53 68.3309 100.5 68.3309 100.48H47.4009C38.6909 100.48 31.6309 107.54 31.6309 116.25V132.02H67.0409C68.3909 124.1 69.7309 116.17 71.0609 108.25C71.1109 107.96 71.2109 107.86 71.5009 107.86C72.3109 107.88 73.1309 107.86 73.9409 107.86C74.7609 107.86 75.5909 107.86 76.4209 107.85C76.6709 107.85 76.7809 107.91 76.8309 108.18C77.6809 113.25 78.5409 118.32 79.4009 123.39C79.8909 126.26 80.3709 129.13 80.8609 132H113.091V116.23C113.091 107.52 106.031 100.46 97.3209 100.46L97.2809 100.49Z" fill="#005178"/>
<path d="M49.3409 103.38L47.4709 106.2L48.7309 109.33L45.4809 108.42L42.8909 110.59L42.7509 107.22L39.8809 105.42L43.0509 104.24L43.8709 100.97L45.9709 103.61L49.3409 103.38Z" fill="white"/>
<path d="M113.331 110.54C114.511 108.52 113.821 105.92 111.791 104.74L100.451 98.1496C98.4306 96.9696 95.8306 97.6596 94.6506 99.6896L92.2306 103.85C91.0506 105.87 91.7406 108.47 93.7706 109.65L105.111 116.24C107.131 117.42 109.731 116.73 110.911 114.7L113.331 110.54Z" fill="#005178"/>
<path d="M96.2305 103.38L98.1005 106.2L96.8405 109.33L100.09 108.42L102.68 110.59L102.83 107.22L105.69 105.42L102.52 104.24L101.7 100.97L99.6005 103.61L96.2305 103.38Z" fill="white"/>
<path d="M56.6391 117.99H47.0391V122.79H56.6391V117.99Z" fill="white"/>
<path d="M66.2305 45.6396C66.2305 55.6496 79.0205 55.6496 79.0205 45.6396H66.2305Z" fill="white"/>
</svg>
