<svg width="76" height="76" viewBox="0 0 76 76" fill="none" xmlns="http://www.w3.org/2000/svg">
<path d="M46.9691 68.4002C46.9691 67.4602 47.0991 66.5002 46.9491 65.5802C46.4791 62.8302 47.6591 62.0602 50.2691 62.2402C54.2391 62.5202 57.9991 61.9702 59.6391 57.5602C60.0691 56.4102 60.1591 55.0602 60.1191 53.8102C59.9991 49.9002 59.3791 45.9702 64.8291 44.7402C66.2991 44.4102 67.6991 42.6402 65.8391 40.6002C64.8591 39.5302 64.1291 38.1802 63.4691 36.8602C61.9591 33.8302 60.0591 31.0502 59.6191 27.4702C57.6891 11.7102 38.4991 3.99017 23.9191 11.4702C9.23909 18.9902 5.90909 37.2402 16.3391 49.1502C21.0791 54.5702 23.5091 61.0102 22.4991 68.4002" stroke="#0B5079" stroke-width="5" stroke-miterlimit="10" stroke-linecap="round"/>
<path d="M25.1937 23.2942C24.0456 22.146 22.1841 22.146 21.0359 23.2942C19.8878 24.4423 19.8878 26.3038 21.0359 27.4519L26.2332 32.6492C27.3813 33.7973 29.2428 33.7973 30.3909 32.6492C31.5391 31.501 31.5391 29.6395 30.3909 28.4914L25.1937 23.2942Z" stroke="#0B5079" stroke-width="1.84" stroke-miterlimit="10" stroke-linecap="round"/>
<path d="M23.6309 30.0501L27.7909 25.8901" stroke="#0B5079" stroke-width="1.84" stroke-miterlimit="10" stroke-linecap="round"/>
<path d="M45.3816 37.452C46.5298 36.3039 46.5298 34.4424 45.3816 33.2942C44.2335 32.1461 42.372 32.1461 41.2238 33.2942L36.0266 38.4915C34.8785 39.6396 34.8785 41.5011 36.0266 42.6492C37.1747 43.7974 39.0363 43.7974 40.1844 42.6492L45.3816 37.452Z" stroke="#0B5079" stroke-width="1.84" stroke-miterlimit="10" stroke-linecap="round"/>
<path d="M38.6309 35.8901L42.7909 40.0501" stroke="#0B5079" stroke-width="1.84" stroke-miterlimit="10" stroke-linecap="round"/>
<path d="M40.2891 26.8901C42.7743 26.8901 44.7891 24.8754 44.7891 22.3901C44.7891 19.9049 42.7743 17.8901 40.2891 17.8901C37.8038 17.8901 35.7891 19.9049 35.7891 22.3901C35.7891 24.8754 37.8038 26.8901 40.2891 26.8901Z" stroke="#0B5079" stroke-width="1.84" stroke-miterlimit="10" stroke-linecap="round"/>
<path d="M40.2891 21.0498V23.8898" stroke="#0B5079" stroke-width="2" stroke-miterlimit="10" stroke-linecap="round"/>
</svg>
