<?xml version="1.0" encoding="UTF-8"?>
<svg id="Layer_1" data-name="Layer 1" xmlns="http://www.w3.org/2000/svg" viewBox="0 0 120 120" width="100%" height="100%">
  <g>
    <circle cx="60.38" cy="59.91" r="55.41" style="fill: #fff; stroke: #005178; stroke-miterlimit: 10; stroke-width: 6px;"/>
    <circle cx="60.38" cy="59.91" r="48.69" style="fill: #5a97cb; stroke-width: 0px;"/>
    <circle cx="60.38" cy="59.91" r="55.41" style="fill: #fff; stroke: #005178; stroke-miterlimit: 10; stroke-width: 6px;"/>
    <circle cx="60.08" cy="60.72" r="48.69" style="fill: #5a97cb; stroke-width: 0px;"/>
  </g>
  <g>
    <path d="m50.29,57.54c.91,0,1.88.56,1.98,1.52l.63,3.09c.11.54.53.95,1.06,1.06l1.07.22c.68.14,1.01.92.63,1.5-.18.29-.5.45-.83.45-.05,0-.1,0-.15-.01l-2.04-.31c-.37-.06-.71-.27-.92-.58l-1.15-1.68-1.1,3.34,1.52,2.03c.66.83,1.18,1.7,1.24,2.71l.24,4.46c0,.68-.47,1.05-.95,1.05s-.97-.36-1.01-1.11l-.34-4.24-2.31-3.34c-1.13-1.29-1.79-2.85-1.38-3.89l2.41-5.58c.3-.46.84-.68,1.4-.68m0-1.5c-1.13,0-2.1.5-2.66,1.36-.05.07-.09.15-.12.22l-2.41,5.58c-.61,1.56-.02,3.56,1.57,5.41l2.03,2.94.31,3.84c.08,1.62,1.33,2.49,2.51,2.49.65,0,1.28-.26,1.74-.72.47-.48.72-1.13.71-1.85,0-.02,0-.04,0-.06l-.24-4.46c-.09-1.55-.92-2.76-1.55-3.54l-.83-1.11c.32.2.69.34,1.07.39l2.04.31c.13.02.25.03.38.03.85,0,1.63-.43,2.09-1.14.44-.69.52-1.55.2-2.31-.32-.76-.99-1.31-1.79-1.47l-.99-.2-.6-2.94c-.21-1.59-1.68-2.78-3.46-2.78h0Z" style="fill: #fff; stroke-width: 0px;"/>
    <path d="m52.85,52.39c1.14,0,2.06.92,2.06,2.06s-.92,2.06-2.06,2.06-2.06-.92-2.06-2.06.92-2.06,2.06-2.06m0-1.5c-1.96,0-3.56,1.6-3.56,3.56s1.6,3.56,3.56,3.56,3.56-1.6,3.56-3.56-1.6-3.56-3.56-3.56h0Z" style="fill: #fff; stroke-width: 0px;"/>
    <path d="m45.92,66.57l-3.86,8.21c-.76,1.71,1.32,3.37,2.61,1.34l3.13-6.74" style="fill: none; stroke: #fff; stroke-linecap: round; stroke-linejoin: round; stroke-width: 1.5px;"/>
    <path d="m55.93,62.55c0-.84.68-1.52,1.52-1.52h0c.84,0,1.52.68,1.52,1.52v14.11" style="fill: none; stroke: #fff; stroke-linecap: round; stroke-linejoin: round; stroke-width: 1.5px;"/>
  </g>
  <g>
    <path d="m86.91,50.61l-26.89-21.04-.02.02-.02-.02-26.89,21.04c-.86.82-.82,2.2.08,2.97.78.66,1.93.63,2.67-.07l24.16-18.38,24.16,18.38c.74.7,1.89.73,2.67.07.9-.77.94-2.15.08-2.97Z" style="fill: none; stroke: #fff; stroke-linecap: round; stroke-linejoin: round; stroke-width: 2px;"/>
    <polyline points="83.86 53.35 83.86 80.78 36.14 80.78 36.14 53.35" style="fill: none; stroke: #fff; stroke-linecap: round; stroke-linejoin: round; stroke-width: 2px;"/>
  </g>
  <g>
    <g>
      <g>
        <path d="m70.86,51.74h-1.24c.75.39,1.27,1.18,1.27,2.07,0,1.28-1.06,2.34-2.34,2.34s-2.33-1.06-2.33-2.34c0-.9.51-1.68,1.26-2.07h-1.23c-.5.55-.8,1.28-.8,2.07,0,1.71,1.4,3.11,3.11,3.11s3.11-1.4,3.11-3.11c.02-.8-.29-1.53-.79-2.07Z" style="fill: #fff; stroke: #fff; stroke-miterlimit: 10; stroke-width: .5px;"/>
        <path d="m71.76,58.24h-6.45c-1.31,0-2.4,1.08-2.4,2.4v5.88c0,1.11.77,2.05,1.83,2.34v6.47c0,1,.8,1.8,1.8,1.8h4.02c1,0,1.8-.8,1.8-1.8v-6.47c1.06-.25,1.83-1.2,1.83-2.34v-5.88c-.03-1.31-1.11-2.4-2.42-2.4Zm1.63,8.27c0,.74-.51,1.4-1.23,1.6-.34.08-.57.4-.57.74v6.47c0,.57-.45,1.03-1.03,1.03h-4.05c-.57,0-1.02-.46-1.02-1.03v-6.47c0-.34-.23-.66-.57-.74-.71-.17-1.23-.83-1.23-1.6v-5.88c0-.89.74-1.63,1.63-1.63h6.45c.89,0,1.63.74,1.63,1.63v5.88Z" style="fill: #fff; stroke: #fff; stroke-miterlimit: 10; stroke-width: .5px;"/>
      </g>
      <line x1="66.2" y1="58.9" x2="66.2" y2="64.69" style="fill: none; stroke: #fff; stroke-linecap: round; stroke-miterlimit: 10;"/>
      <line x1="70.48" y1="58.72" x2="70.48" y2="60.46" style="fill: none; stroke: #fff; stroke-linecap: round; stroke-miterlimit: 10;"/>
      <polyline points="68.78 62.53 68.78 60.74 72.18 60.74 72.18 62.53" style="fill: none; stroke: #fff; stroke-linecap: round; stroke-linejoin: round;"/>
    </g>
    <g>
      <line x1="68.56" y1="50.81" x2="68.56" y2="49.53" style="fill: none; stroke: #fff; stroke-linecap: round; stroke-linejoin: round; stroke-width: .5px;"/>
      <line x1="69.2" y1="50.17" x2="67.91" y2="50.17" style="fill: none; stroke: #fff; stroke-linecap: round; stroke-linejoin: round; stroke-width: .5px;"/>
    </g>
    <polygon points="71.21 49.4 71.21 51.74 65.91 51.74 65.91 49.4 68.56 48.13 71.21 49.4" style="fill: none; stroke: #fff; stroke-linecap: round; stroke-linejoin: round; stroke-width: 1.25px;"/>
  </g>
</svg>