<?xml version="1.0" encoding="UTF-8"?>
<svg id="Layer_15" data-name="Layer 15" xmlns="http://www.w3.org/2000/svg" viewBox="0 0 137.98 141.69">
  <g>
    <circle cx="69.99" cy="71.33" r="55.41" style="fill: #fff; stroke: #005178; stroke-miterlimit: 10; stroke-width: 6px;"/>
    <circle cx="69.99" cy="71.33" r="48.69" style="fill: #5a97cb; stroke-width: 0px;"/>
    <g>
      <line x1="53.32" y1="87.09" x2="53.32" y2="68.9" style="fill: none; stroke: #fff; stroke-linecap: round; stroke-linejoin: round; stroke-width: 2px;"/>
      <polygon points="61.42 80.52 59.97 79.17 53.33 86.33 46.68 79.17 45.23 80.52 53.33 89.23 61.42 80.52" style="fill: #fff; stroke-width: 0px;"/>
    </g>
    <g>
      <line x1="84.61" y1="104.55" x2="84.61" y2="88.24" style="fill: none; stroke: #fff; stroke-linecap: round; stroke-linejoin: round; stroke-width: 2px;"/>
      <line x1="78.72" y1="101.03" x2="90.49" y2="101.03" style="fill: none; stroke: #fff; stroke-linecap: round; stroke-linejoin: round; stroke-width: 2px;"/>
    </g>
    <circle cx="69.99" cy="71.33" r="55.41" style="fill: #fff; stroke: #005178; stroke-miterlimit: 10; stroke-width: 6px;"/>
    <circle cx="69.99" cy="71.33" r="48.69" style="fill: #5a97cb; stroke-width: 0px;"/>
  </g>
  <path d="m78.21,101.77c0-1,.14-2.02-.03-2.99-.5-2.91.75-3.73,3.52-3.54,4.2.29,8.19-.29,9.92-4.96.45-1.22.55-2.65.51-3.97-.13-4.15-.78-8.3,4.98-9.61,1.56-.35,3.04-2.23,1.07-4.38-1.04-1.14-1.81-2.57-2.51-3.96-1.59-3.21-3.61-6.15-4.08-9.95-2.04-16.69-22.36-24.86-37.8-16.95-15.54,7.97-19.07,27.28-8.02,39.9,5.02,5.74,7.59,12.56,6.53,20.39" style="fill: none; stroke: #fff; stroke-miterlimit: 10; stroke-width: 2px;"/>
  <path d="m73.25,55.96c.06-.59.8-.83,1.39-.84,1.78-.04,3.52.64,5.05,1.56,1.53.92,2.91,2.07,4.37,3.09.61.43,1.25.84,1.97,1s1.55.04,2.08-.49c.8-.81.58-2.15.27-3.25" style="fill: none; stroke-width: 0px;"/>
  <text transform="translate(48.34 72.62)" style="fill: #fff; font-family: Calibri-Bold, Calibri; font-size: 36px; font-weight: 700;"><tspan x="0" y="0">+</tspan></text>
  <text transform="translate(61.06 57.6)" style="fill: #fff; font-family: Calibri-Bold, Calibri; font-size: 21px; font-weight: 700;"><tspan x="0" y="0">+</tspan></text>
  <text transform="translate(52.44 51.25)" style="fill: #fff; font-family: Calibri-Bold, Calibri; font-size: 11.25px; font-weight: 700;"><tspan x="0" y="0">+</tspan></text>
</svg>