<?xml version="1.0" encoding="UTF-8"?>
<svg id="Layer_2" data-name="Layer 2" xmlns="http://www.w3.org/2000/svg" viewBox="0 0 137.98 141.69">
  <defs>
    <style>
      .cls-1 {
        opacity: .5;
      }

      .cls-2 {
        fill: #5a97cb;
      }

      .cls-2, .cls-3 {
        stroke-width: 0px;
      }

      .cls-4 {
        opacity: .15;
      }

      .cls-3, .cls-5 {
        fill: #fff;
      }

      .cls-5 {
        stroke: #005178;
        stroke-miterlimit: 10;
        stroke-width: 6px;
      }
    </style>
  </defs>
  <g>
    <circle class="cls-5" cx="71.07" cy="71.33" r="55.41"/>
    <circle class="cls-2" cx="71.07" cy="71.33" r="48.69"/>
  </g>
  <g class="cls-4">
    <path class="cls-3" d="m88.97,96.24c0-.89.13-1.81-.02-2.68-.45-2.61.67-3.35,3.16-3.17,3.77.26,7.35-.26,8.9-4.45.41-1.1.49-2.38.46-3.56-.11-3.72-.7-7.45,4.47-8.62,1.4-.32,2.73-2,.96-3.93-.93-1.02-1.63-2.3-2.25-3.56-1.43-2.88-3.24-5.52-3.66-8.93-1.83-14.98-20.07-22.31-33.93-15.21-13.95,7.15-17.11,24.49-7.2,35.81,4.51,5.15,6.81,11.27,5.86,18.3"/>
  </g>
  <g class="cls-1">
    <path class="cls-3" d="m81.07,96.24c0-.89.13-1.81-.02-2.68-.45-2.61.67-3.35,3.16-3.17,3.77.26,7.35-.26,8.9-4.45.41-1.1.49-2.38.46-3.56-.11-3.72-.7-7.45,4.47-8.62,1.4-.32,2.73-2,.96-3.93-.93-1.02-1.63-2.3-2.25-3.56-1.43-2.88-3.24-5.52-3.66-8.93-1.83-14.98-20.07-22.31-33.93-15.21-13.95,7.15-17.11,24.49-7.2,35.81,4.51,5.15,6.81,11.27,5.86,18.3"/>
  </g>
  <path class="cls-3" d="m70.42,96.24c0-.89.13-1.81-.02-2.68-.45-2.61.67-3.35,3.16-3.17,3.77.26,7.35-.26,8.9-4.45.41-1.1.49-2.38.46-3.56-.11-3.72-.7-7.45,4.47-8.62,1.4-.32,2.73-2,.96-3.93-.93-1.02-1.63-2.3-2.25-3.56-1.43-2.88-3.24-5.52-3.66-8.93-1.83-14.98-20.07-22.31-33.93-15.21-13.95,7.15-17.11,24.49-7.2,35.81,4.51,5.15,6.81,11.27,5.86,18.3"/>
</svg>