<?xml version="1.0" encoding="UTF-8"?>
<svg id="Layer_1" data-name="Layer 1" xmlns="http://www.w3.org/2000/svg" viewBox="0 0 120 120" width="100%" height="100%">
  <g>
    <circle cx="60" cy="60" r="55.41" style="fill: #fff; stroke: #005178; stroke-miterlimit: 10; stroke-width: 6px;"/>
    <circle cx="60" cy="60" r="55.41" style="fill: #fff; stroke: #005178; stroke-miterlimit: 10; stroke-width: 6px;"/>
    <circle cx="60" cy="60" r="48.69" style="fill: #5a97cb; stroke-width: 0px;"/>
  </g>
  <g>
    <path d="m75.62,70.84h-.01c-.24.23-.49.44-.74.66-.24.19-.49.39-.74.58-.17.14-.35.27-.54.4-.43.32-.87.61-1.33.9-.22.14-.44.27-.67.4-.01.01-.02.01-.03.02-.77.45-1.56.84-2.36,1.19-.16.07-.31.14-.47.2-.3.12-.59.24-.88.34-.35.13-.7.25-1.06.36-.32.11-.66.2-.99.29-.06.01-.12.03-.17.04-.36.09-.73.18-1.09.25-.32.07-.64.13-.97.18-.1.02-.2.03-.3.04-.29.05-.58.09-.88.12-.5.06-1,.1-1.5.11-.35.02-.71.03-1.07.03h-.04c-.34,0-.68-.01-1.02-.03-.41-.01-.81-.04-1.22-.08-.25-.02-.5-.05-.75-.09-.51-.06-1.01-.14-1.5-.24-.25-.05-.49-.1-.74-.16-.49-.11-.98-.24-1.46-.38-.23-.07-.45-.13-.67-.21-.05,0-.1-.03-.15-.05-.21-.07-.41-.14-.62-.22-.26-.09-.51-.19-.77-.3-.2-.08-.4-.16-.61-.26-.93-.41-1.84-.88-2.72-1.41-.31-.19-.61-.39-.91-.59-.31-.21-.62-.43-.92-.65-.02-.02-.05-.03-.07-.05-.28-.21-.55-.43-.82-.65-.1-.08-.2-.17-.29-.26-.36-1.6-.54-3.27-.54-4.98,0-10.24,6.54-18.95,15.67-22.18,1.56.5,3.09,1.18,4.57,2.03,8.86,5.12,13.14,15.13,11.38,24.65Z" style="fill: none; stroke: #fff; stroke-miterlimit: 10;"/>
    <path d="m82.8,48.45c-4.11-3.52-9.44-5.64-15.28-5.64-2.75,0-5.4.47-7.85,1.35-9.13,3.23-15.67,11.94-15.67,22.18,0,1.71.18,3.38.54,4.98-.19-.15-.38-.31-.56-.48-.23-.21-.45-.42-.67-.63-.05-.05-.1-.1-.15-.15-.27-.27-.52-.54-.78-.82-.2-.22-.4-.45-.59-.68-.12-.13-.23-.27-.33-.41-.18-.21-.35-.43-.51-.65-.16-.21-.31-.42-.46-.64-.37-.54-.73-1.09-1.06-1.67-.13-.23-.26-.47-.39-.7-.24-.45-.46-.91-.67-1.37-.02-.04-.04-.08-.06-.12-.09-.22-.19-.43-.28-.65-.1-.24-.19-.48-.28-.73-.09-.24-.18-.48-.26-.73-.08-.24-.16-.49-.23-.73-.08-.25-.15-.49-.21-.74-.04-.15-.08-.29-.11-.44-.05-.2-.1-.41-.14-.61-.11-.49-.2-.99-.27-1.49-.05-.27-.08-.54-.11-.82-.06-.52-.1-1.03-.12-1.55-.02-.35-.03-.71-.03-1.07v-.04c0-.34.01-.68.03-1.02.01-.41.04-.81.08-1.22.03-.25.05-.5.09-.75.05-.42.12-.84.2-1.26h0c.01-.09.02-.16.04-.24.05-.24.1-.49.16-.74.11-.49.24-.98.38-1.46.07-.24.15-.48.23-.72.17-.5.35-1,.55-1.48.08-.21.17-.41.26-.61.27-.62.57-1.23.9-1.82.15-.29.32-.57.49-.85.21-.36.44-.71.68-1.06.19-.28.38-.55.59-.82.17-.23.34-.46.52-.68.06-.08.13-.16.19-.24.24-.28.48-.55.72-.82.25-.28.51-.55.78-.82.27-.27.54-.53.82-.78.24-.22.49-.44.75-.66.24-.19.48-.39.74-.58.17-.14.35-.27.54-.4.43-.32.87-.62,1.33-.9.22-.14.44-.27.67-.4.01-.01.02-.01.03-.02.85-.49,1.73-.93,2.61-1.3.32-.14.63-.26.95-.38.05-.02.1-.04.15-.05.35-.13.7-.25,1.06-.36.32-.11.66-.2.99-.29.04-.01.08-.02.12-.03.38-.1.76-.18,1.14-.26.34-.07.68-.13,1.02-.18.1-.02.2-.04.3-.05.19-.03.37-.05.56-.07.24-.03.47-.06.71-.08h.01l.75-.06c.17-.01.34-.01.52-.02.27-.01.54-.02.82-.02h.05c.41,0,.81.01,1.21.03.4.02.8.05,1.19.09.34.04.67.08,1,.13.12.01.24.03.36.05.33.05.66.11.98.18.28.06.57.12.85.19.16.04.32.08.47.12.31.08.63.17.93.27.37.11.74.23,1.1.37.02.01.04.01.06.02.34.12.67.26,1.01.4.33.14.66.29.98.44.04.02.07.04.1.05.33.16.65.32.97.5.33.18.65.36.97.55.02.01.05.03.07.04.31.19.61.39.91.59.31.21.62.43.92.65.02.01.05.03.07.05.28.21.55.43.82.65.29.24.57.49.85.74.23.21.45.42.67.63l.15.15c.27.27.52.54.78.82.2.22.4.45.59.68.12.13.23.27.33.41.18.21.35.43.51.65.16.21.31.42.46.64.23.33.45.67.67,1.01.13.22.26.44.39.66.13.23.26.46.39.7.12.23.24.47.36.7.11.22.21.43.31.65.22.5.43,1,.62,1.51.07.18.14.36.2.55.03.1.07.2.1.3.07.2.13.41.19.61.08.25.15.49.21.74.04.13.07.25.1.38.05.21.1.43.15.65Z" style="fill: rgba(255, 255, 255, .4); stroke: #fff; stroke-miterlimit: 10;"/>
    <path d="m75.62,70.84h-.01c-.24.23-.49.44-.74.66-.24.19-.49.39-.74.58-.17.14-.35.27-.54.4-.43.32-.87.61-1.33.9-.22.14-.44.27-.67.4-.01.01-.02.01-.03.02-.77.45-1.56.84-2.36,1.19-.16.07-.31.14-.47.2-.3.12-.59.24-.88.34-.35.13-.7.25-1.06.36-.32.11-.66.2-.99.29-.06.01-.12.03-.17.04-.36.09-.73.18-1.09.25-.32.07-.64.13-.97.18-.1.02-.2.03-.3.04-.29.05-.58.09-.88.12-.5.06-1,.1-1.5.11-.35.02-.71.03-1.07.03h-.04c-.34,0-.68-.01-1.02-.03-.41-.01-.81-.04-1.22-.08-.25-.02-.5-.05-.75-.09-.51-.06-1.01-.14-1.5-.24-.25-.05-.49-.1-.74-.16-.49-.11-.98-.24-1.46-.38-.23-.07-.45-.13-.67-.21-.05,0-.1-.03-.15-.05-.21-.07-.41-.14-.62-.22-.26-.09-.51-.19-.77-.3-.2-.08-.4-.16-.61-.26-.93-.41-1.84-.88-2.72-1.41-.31-.19-.61-.39-.91-.59-.31-.21-.62-.43-.92-.65-.02-.02-.05-.03-.07-.05-.28-.21-.55-.43-.82-.65-.1-.08-.19-.16-.29-.24h-.01c-.19-.17-.37-.33-.55-.5.18.17.37.33.56.48-.36-1.6-.54-3.27-.54-4.98,0-10.24,6.54-18.95,15.67-22.18,1.56.5,3.09,1.18,4.57,2.03,8.86,5.12,13.14,15.13,11.38,24.65Z" style="fill: none; stroke: #fff; stroke-miterlimit: 10;"/>
    <path d="m75.61,70.85c-.47,2.57-1.38,5.1-2.76,7.48-2.91,5.05-7.41,8.61-12.5,10.41-6.26,2.22-13.43,1.79-19.63-1.8-11.26-6.49-15.11-20.88-8.62-32.13,1.25-2.17,2.8-4.07,4.57-5.66-.09.41-.15.83-.2,1.26-.04.25-.06.5-.09.75-.04.41-.07.81-.08,1.22-.02.34-.03.68-.03,1.02v.04c0,.36.01.72.03,1.07.02.52.06,1.03.12,1.55.03.28.06.55.11.82.07.5.16,1,.27,1.49.04.2.09.41.14.61.03.15.07.29.11.44.06.25.13.49.21.74.06.25.14.49.23.73.07.25.16.49.26.73.09.25.18.49.28.73.09.22.19.43.28.65.02.04.04.08.06.12.21.46.43.92.67,1.37.13.23.26.47.39.7.33.58.69,1.13,1.06,1.67.15.22.3.43.46.64.16.22.33.44.51.65.1.14.21.28.33.41.19.23.39.46.59.68.25.28.51.56.78.82.05.05.1.1.15.15.22.21.44.42.67.63.18.17.36.33.55.49h.01c.1.09.19.17.29.25.27.22.54.44.82.65.02.02.05.03.07.05.3.22.61.44.92.65.3.2.6.4.91.59.88.53,1.79,1,2.72,1.41.21.1.41.18.61.26.26.11.51.21.77.3.21.09.41.16.62.22.05.02.1.04.15.05.22.08.44.14.67.21.48.15.97.28,1.46.38.24.07.49.12.74.16.49.1.99.18,1.5.24.25.04.5.07.75.09.41.04.81.07,1.22.08.34.02.68.03,1.02.03h.04c.36,0,.72-.01,1.07-.03.5-.01,1-.05,1.5-.11.3-.03.59-.07.88-.12.1-.01.2-.02.3-.04.33-.05.65-.11.97-.18.36-.07.73-.16,1.09-.25.05,0,.11-.03.17-.04.33-.09.67-.18.99-.29.36-.11.71-.23,1.06-.36.29-.1.58-.22.88-.34.16-.06.31-.12.47-.2.8-.35,1.59-.74,2.36-1.19,0-.01.02-.01.03-.02.23-.12.45-.26.67-.4.46-.29.9-.58,1.33-.9.18-.12.36-.26.54-.4.25-.19.5-.39.74-.58.25-.22.5-.43.74-.65Z" style="fill: none; stroke: #fff; stroke-miterlimit: 10;"/>
    <path d="m75.62,70.84h-.01c-.24.23-.49.44-.74.66-.24.19-.49.39-.74.58-.17.14-.35.27-.54.4-.43.32-.87.61-1.33.9-.22.14-.44.27-.67.4-.01.01-.02.01-.03.02-.77.45-1.56.84-2.36,1.19-.16.07-.31.14-.47.2-.3.12-.59.24-.88.34-.35.13-.7.25-1.06.36-.32.11-.66.2-.99.29-.06.01-.12.03-.17.04-.36.09-.73.18-1.09.25-.32.07-.64.13-.97.18-.1.02-.2.03-.3.04-.29.05-.58.09-.88.12-.5.06-1,.1-1.5.11-.35.02-.71.03-1.07.03h-.04c-.34,0-.68-.01-1.02-.03-.41-.01-.81-.04-1.22-.08-.25-.02-.5-.05-.75-.09-.51-.06-1.01-.14-1.5-.24-.25-.05-.49-.1-.74-.16-.49-.11-.98-.24-1.46-.38-.23-.07-.45-.13-.67-.21-.05,0-.1-.03-.15-.05-.21-.07-.41-.14-.62-.22-.26-.09-.51-.19-.77-.3-.2-.08-.4-.16-.61-.26-.93-.41-1.84-.88-2.72-1.41-.31-.19-.61-.39-.91-.59-.31-.21-.62-.43-.92-.65-.02-.02-.05-.03-.07-.05-.28-.21-.55-.43-.82-.65-.1-.08-.19-.16-.29-.24h-.01c-.19-.17-.37-.33-.55-.5.18.17.37.33.56.48-.36-1.6-.54-3.27-.54-4.98,0-10.24,6.54-18.95,15.67-22.18,1.56.5,3.09,1.18,4.57,2.03,8.86,5.12,13.14,15.13,11.38,24.65Z" style="fill: none; stroke: #fff; stroke-miterlimit: 10;"/>
    <path d="m91.05,66.34c0,12.99-10.53,23.52-23.53,23.52-2.5,0-4.91-.39-7.17-1.12,5.09-1.8,9.59-5.36,12.5-10.41,1.38-2.38,2.29-4.91,2.76-7.48h.01c1.76-9.53-2.52-19.54-11.38-24.66-1.48-.85-3.01-1.53-4.57-2.03,2.45-.88,5.1-1.35,7.85-1.35,5.84,0,11.17,2.12,15.28,5.64,5.05,4.31,8.25,10.73,8.25,17.89Z" style="fill: rgba(255, 255, 255, .2); stroke: #fff; stroke-miterlimit: 10;"/>
    <path d="m75.62,70.84h-.01c-.24.23-.49.44-.74.66-.24.19-.49.39-.74.58-.17.14-.35.27-.54.4-.43.32-.87.61-1.33.9-.22.14-.44.27-.67.4-.01.01-.02.01-.03.02-.77.45-1.56.84-2.36,1.19-.16.07-.31.14-.47.2-.3.12-.59.24-.88.34-.35.13-.7.25-1.06.36-.32.11-.66.2-.99.29-.06.01-.12.03-.17.04-.36.09-.73.18-1.09.25-.32.07-.64.13-.97.18-.1.02-.2.03-.3.04-.29.05-.58.09-.88.12-.5.06-1,.1-1.5.11-.35.02-.71.03-1.07.03h-.04c-.34,0-.68-.01-1.02-.03-.41-.01-.81-.04-1.22-.08-.25-.02-.5-.05-.75-.09-.51-.06-1.01-.14-1.5-.24-.25-.05-.49-.1-.74-.16-.49-.11-.98-.24-1.46-.38-.23-.07-.45-.13-.67-.21-.05,0-.1-.03-.15-.05-.21-.07-.41-.14-.62-.22-.26-.09-.51-.19-.77-.3-.2-.08-.4-.16-.61-.26-.93-.41-1.84-.88-2.72-1.41-.31-.19-.61-.39-.91-.59-.31-.21-.62-.43-.92-.65-.02-.02-.05-.03-.07-.05-.28-.21-.55-.43-.82-.65-.1-.08-.19-.16-.29-.24h-.01s0-.01.01-.02c-.36-1.6-.54-3.27-.54-4.98,0-10.24,6.54-18.95,15.67-22.18,1.56.5,3.09,1.18,4.57,2.03,8.86,5.12,13.14,15.13,11.38,24.65Z" style="fill: none; stroke: #fff; stroke-miterlimit: 10;"/>
  </g>
</svg>