<?xml version="1.0" encoding="UTF-8"?>
<svg id="Layer_1" data-name="Layer 1" xmlns="http://www.w3.org/2000/svg" viewBox="0 0 120 120" width="100%" height="100%">
  <g>
    <circle cx="60" cy="60" r="55.41" style="fill: #fff; stroke: #005178; stroke-miterlimit: 10; stroke-width: 6px;"/>
    <circle cx="60" cy="60" r="48.69" style="fill: #5a97cb; stroke-width: 0px;"/>
    <circle cx="60" cy="60" r="55.41" style="fill: #fff; stroke: #005178; stroke-miterlimit: 10; stroke-width: 6px;"/>
    <circle cx="60" cy="60" r="48.69" style="fill: #5a97cb; stroke-width: 0px;"/>
  </g>
  <g>
    <path d="m61.8,56.14c-1.83,1.42-3.71,2.8-5.45,4.32-.3.26-.26,1.29,0,1.76.99,1.81,2.96,2.52,4.4,4.26,1.81,2.19,2.13,3.78,4.12,4.45,1.99.66,3.63-.83,3.64-2.99.01-6.51-.04-13.02.03-19.52.02-2.11-1.42-2.99-2.88-3.84-1.3-.76-2.67-.6-3.85.39-4.55,3.85-9.12,7.68-13.61,11.61-1.82,1.59-1.47,5.04.15,6.93,2.09,2.46,4.07,5.07,4.92,8.3" style="fill: none; stroke: #fff; stroke-linecap: round; stroke-linejoin: round; stroke-width: 2px;"/>
    <path d="m53.25,71.8c1.37,4.59,2.31,9.83,2.64,13.42.2,2.26,1.99,3.88,4.07,3.66,1.9-.2,3.43-2.21,3.26-4.27-.41-4.81-.68-11.85-1.09-16.66" style="fill: none; stroke: #fff; stroke-linecap: round; stroke-linejoin: round; stroke-width: 2px;"/>
    <path d="m47.56,63.46c-.54,1.83-.59,3.31-1.13,5.49-.89,3.58-2.75,6.64-4.76,9.57-1.05,1.53-2.07,3.1-3.05,4.68-1.13,1.82-.79,3.71.81,4.88,1.74,1.27,3.61,1.22,4.83-.64,2.87-4.36,7.52-10.42,9-15.63" style="fill: none; stroke: #fff; stroke-linecap: round; stroke-linejoin: round; stroke-width: 2px;"/>
    <path d="m62.05,53.53c-.75,3.51-.47,15.5,1.59,16.85" style="fill: none; stroke: #fff; stroke-linecap: round; stroke-linejoin: round; stroke-width: 2px;"/>
    <circle cx="74.45" cy="39.51" r="6.24" style="fill: none; stroke: #fff; stroke-linecap: round; stroke-linejoin: round; stroke-width: 2px;"/>
  </g>
  <path d="m60.83,28.01c0,3.06-1.69,3.06-1.69,6.12s1.69,3.06,1.69,6.12" style="fill: none; stroke: #fff; stroke-linecap: round; stroke-linejoin: round; stroke-width: 2px;"/>
  <path d="m55.28,30.3c0,3.06-1.69,3.06-1.69,6.12s1.69,3.06,1.69,6.12" style="fill: none; stroke: #fff; stroke-linecap: round; stroke-linejoin: round; stroke-width: 2px;"/>
  <path d="m49.73,33.26c0,3.06-1.69,3.06-1.69,6.12s1.69,3.06,1.69,6.12" style="fill: none; stroke: #fff; stroke-linecap: round; stroke-linejoin: round; stroke-width: 2px;"/>
</svg>