<?xml version="1.0" encoding="UTF-8"?>
<svg id="Layer_1" data-name="Layer 1" xmlns="http://www.w3.org/2000/svg" viewBox="0 0 120 120" width="100%" height="100%">
  <g>
    <circle cx="60" cy="60" r="55.41" style="fill: #fff; stroke: #005178; stroke-miterlimit: 10; stroke-width: 6px;"/>
    <circle cx="60" cy="60" r="48.69" style="fill: #5a97cb; stroke-width: 0px;"/>
    <circle cx="60" cy="60" r="55.41" style="fill: #fff; stroke: #005178; stroke-miterlimit: 10; stroke-width: 6px;"/>
    <circle cx="60" cy="60" r="48.69" style="fill: #5a97cb; stroke-width: 0px;"/>
  </g>
  <path d="m56.08,57.64c.75-.43,1.4-.94,1.9-1.61.31-.41.56-.87.82-1.31.08-.14.15-.2.32-.2,1.54,0,3.08.03,4.62,0,2.82-.07,4.85-1.4,6.08-3.94.38-.78.55-1.62.56-2.48.02-.85.01-1.7,0-2.54,0-.74-.58-1.31-1.3-1.31-.71,0-1.28.58-1.28,1.32,0,.76,0,1.52,0,2.29,0,2.32-1.76,4.09-4.07,4.11-1.37.01-2.75,0-4.12,0-.06,0-.12,0-.17-.01-.07-.49-.11-.98-.21-1.45-.55-2.53-2.58-4.46-5.13-4.89-.35-.06-.72-.07-1.08-.07-2.6,0-5.2,0-7.8,0-.37,0-.73.04-1.12.07,0-.03-.02-.07-.02-.11,0-1.07-.05-2.14.03-3.2.2-2.86,1.6-4.99,4.1-6.37,1.12-.62,2.34-.88,3.62-.88,5.5,0,10.99,0,16.49,0,3.85,0,7.07,2.76,7.67,6.55.07.43.09.88.09,1.31,0,6.43,0,12.86,0,19.29,0,1.91-.18,3.79-.79,5.62-.25.75-.57,1.46-1,2.12-.26.41-.62.63-1.11.65-.11,0-.22,0-.33,0-8.72,0-17.45,0-26.17,0-.53,0-.97-.14-1.38-.48-1.93-1.55-3.24-3.49-3.71-5.94-.13-.69-.17-1.4-.18-2.1-.02-2.59,0-5.18,0-7.77,0-.85-.01-1.7,0-2.54.03-1.65,1.19-3.14,2.77-3.55.31-.08.63-.12.95-.12,2.64,0,5.28,0,7.92,0,1.97,0,3.61,1.52,3.77,3.49.14,1.77-.77,3.36-2.34,3.96-.42.16-.9.25-1.35.26-1.44.03-2.87,0-4.31.01-.6,0-1.11.41-1.25.99-.14.57.12,1.17.65,1.43.21.1.46.15.7.16.77.03,1.54-.02,2.3.06,2.86.31,5.21,2.32,5.95,5.1.16.58.2,1.2.25,1.81.06.64.38,1.12.93,1.28.82.25,1.65-.37,1.65-1.24,0-1.97-.57-3.77-1.68-5.4-.58-.85-1.28-1.59-2.09-2.22-.05-.04-.1-.08-.17-.14Z" style="fill: #fff; stroke-width: 0px;"/>
  <path d="m60.07,73.8c3.97,0,7.95,0,11.92,0,.68,0,1.17.34,1.34.93.04.16.06.33.06.49,0,2.18,0,4.35,0,6.53,0,1.6-1.17,2.76-2.77,2.76-7.04,0-14.07,0-21.11,0-1.43,0-2.52-.9-2.75-2.27-.03-.17-.03-.34-.03-.52,0-2.17,0-4.33,0-6.5,0-.9.52-1.41,1.42-1.41,3.97,0,7.95,0,11.92,0Zm-.02,2.98c-1.01,0-2.02,0-3.04,0-.78,0-1.33.56-1.33,1.34,0,.67,0,1.35,0,2.02,0,.83.54,1.37,1.37,1.37,2,0,4,0,6,0,.82,0,1.36-.53,1.37-1.35,0-.67,0-1.35,0-2.02,0-.83-.55-1.36-1.38-1.36-1,0-1.99,0-2.99,0Z" style="fill: #fff; stroke-width: 0px;"/>
  <path d="m60.05,76.78c1,0,1.99,0,2.99,0,.83,0,1.37.53,1.38,1.36,0,.67,0,1.35,0,2.02,0,.82-.55,1.35-1.37,1.35-2,0-4,0-6,0-.83,0-1.37-.55-1.37-1.37,0-.67,0-1.35,0-2.02,0-.78.55-1.34,1.33-1.34,1.01,0,2.02,0,3.04,0Z" style="fill: #fff; stroke-width: 0px;"/>
  <rect x="59.47" y="72.42" width="1.96" height="16.26" style="fill: #5a97cb; stroke-width: 0px;"/>
  <line x1="55.31" y1="76.75" x2="65.29" y2="76.75" style="fill: none; stroke: #5a97cb; stroke-linecap: round; stroke-miterlimit: 10; stroke-width: 2px;"/>
  <line x1="55.31" y1="81.14" x2="65.29" y2="81.14" style="fill: none; stroke: #5a97cb; stroke-linecap: round; stroke-miterlimit: 10; stroke-width: 2px;"/>
</svg>