<?xml version="1.0" encoding="UTF-8"?>
<svg id="Layer_1" data-name="Layer 1" xmlns="http://www.w3.org/2000/svg" viewBox="0 0 120 120" width="100%" height="100%">
  <g>
    <circle cx="60" cy="60" r="55.41" style="fill: #fff; stroke: #005178; stroke-miterlimit: 10; stroke-width: 6px;"/>
    <circle cx="60" cy="60" r="48.69" style="fill: #5a97cb; stroke-width: 0px;"/>
  </g>
  <circle cx="47.81" cy="56.68" r="2.81" style="fill: #fff; stroke-width: 0px;"/>
  <circle cx="71.46" cy="56.68" r="2.81" style="fill: #fff; stroke-width: 0px;"/>
  <path d="m75.8,33.01c-.02.08-.04.17-.06.25-.16.6.1,1.23.61,1.58,8.11,5.54,13.55,14.85,13.55,25.16,0,16.51-13.95,30.46-30.46,30.46s-30.46-13.95-30.46-30.46c0-10.86,6.03-20.6,14.86-26.01.56-.34.82-.99.68-1.63-.01-.05-.02-.11-.04-.16-.22-1-1.34-1.52-2.21-.98-9.79,5.96-16.49,16.75-16.49,28.78,0,18.25,15.42,33.67,33.67,33.67s33.67-15.42,33.67-33.67c0-11.43-6.05-21.74-15.06-27.86-.85-.57-2.01-.12-2.25.87Z" style="fill: #fff; stroke-width: 0px;"/>
  <path d="m66.65,53.59c.24,0,.49-.05.72-.17l7.96-3.98c.63-.31,1.05-.98.94-1.68-.18-1.15-1.37-1.69-2.31-1.22l-7.94,3.97c-.66.33-1.09,1.06-.94,1.78.18.81.86,1.29,1.58,1.29Z" style="fill: #fff; stroke-width: 0px;"/>
  <path d="m43.55,49.44l7.96,3.98c.23.12.48.17.72.17.72,0,1.41-.48,1.58-1.3.15-.73-.28-1.45-.94-1.78l-7.93-3.97c-.94-.47-2.13.07-2.31,1.22-.11.69.31,1.36.94,1.68Z" style="fill: #fff; stroke-width: 0px;"/>
  <path d="m44.31,78.48c0,.87.73,1.56,1.6,1.56,5.12,0,21.93,0,27.05,0,.87,0,1.59-.69,1.6-1.56.03-7.33-6.48-12.87-15.12-12.87s-15.15,5.54-15.12,12.87Zm15.12-9.66c6.22,0,10.91,3.29,11.77,8.02h-23.55c.86-4.73,5.55-8.02,11.77-8.02Z" style="fill: #fff; stroke-width: 0px;"/>
  <path d="m60.54,18.19l4.86,2.24-.75,11.59-4.75-2.19-.16,12.84-5.35-19.63,5.94,2.74.22-7.59m0-2c-.37,0-.73.1-1.05.3-.57.35-.93.97-.94,1.64l-.13,4.56-3.19-1.47c-.27-.12-.55-.18-.84-.18-.46,0-.92.16-1.29.47-.59.5-.84,1.3-.64,2.05l5.35,19.63c.24.88,1.04,1.47,1.93,1.47.08,0,.17,0,.25-.02.99-.13,1.73-.96,1.75-1.96l.13-9.76,1.95.9c.27.12.55.18.84.18.36,0,.71-.09,1.02-.28.57-.34.93-.93.97-1.59l.75-11.59c.05-.83-.41-1.6-1.16-1.95l-4.86-2.24c-.27-.12-.55-.18-.84-.18h0Z" style="fill: #fff; stroke-width: 0px;"/>
</svg>