<?xml version="1.0" encoding="UTF-8"?>
<svg id="Layer_1" data-name="Layer 1" xmlns="http://www.w3.org/2000/svg" viewBox="0 0 120 120" width="100%" height="100%">
  <g>
    <circle cx="60" cy="60" r="55.41" style="fill: #fff; stroke: #005178; stroke-miterlimit: 10; stroke-width: 6px;"/>
    <circle cx="60" cy="60" r="48.69" style="fill: #5a97cb; stroke-width: 0px;"/>
    <circle cx="60" cy="60" r="55.41" style="fill: #fff; stroke: #005178; stroke-miterlimit: 10; stroke-width: 6px;"/>
    <circle cx="59.7" cy="60.8" r="48.69" style="fill: #5a97cb; stroke-width: 0px;"/>
  </g>
  <g>
    <path d="m91.74,69.3c0,4.68-3.69,8.48-8.24,8.48h-47.59c-4.55,0-8.24-3.79-8.24-8.48,0-1.19.24-2.33.68-3.36h62.72c.44,1.03.68,2.17.68,3.36Z" style="fill: none; stroke: #fff; stroke-linecap: round; stroke-linejoin: round; stroke-width: 2px;"/>
    <path d="m30.18,65.79s-3.77-12.43,9.47-13.02c0,0-.15-5.55,4.59-7.4,4.73-1.85,8.8-.15,8.8-.15,0,0,3.97-6.24,10.92-5.28,6.95.96,9.3,6.58,8.34,12.28" style="fill: none; stroke: #fff; stroke-linecap: round; stroke-linejoin: round; stroke-width: 2px;"/>
    <path d="m41.28,65.86s-1.92-8.88,4.88-12.13c6.81-3.26,17.68-7.92,23.67.81,2.62,3.82,1.41,8.33-.15,11.25" style="fill: none; stroke: #fff; stroke-linecap: round; stroke-linejoin: round; stroke-width: 2px;"/>
    <path d="m71.43,60.09l9.09-2.7c.36,2.26,2.33,3.99,4.69,3.99,2.63,0,4.75-2.13,4.75-4.75s-2.04-4.65-4.58-4.74c1.1-.87,1.81-2.21,1.81-3.73,0-2.63-2.13-4.75-4.75-4.75s-4.75,2.13-4.75,4.75c0,.94.27,1.81.74,2.55l-9.32,2.8" style="fill: none; stroke: #fff; stroke-linecap: round; stroke-linejoin: round; stroke-width: 2px;"/>
  </g>
</svg>