<?xml version="1.0" encoding="UTF-8"?>
<svg id="Layer_1" data-name="Layer 1" xmlns="http://www.w3.org/2000/svg" viewBox="0 0 137.98 141.69">
  <defs>
    <style>
      .cls-1, .cls-2, .cls-3, .cls-4 {
        stroke-miterlimit: 10;
      }

      .cls-1, .cls-2, .cls-4 {
        fill: none;
        stroke: #fff;
      }

      .cls-5 {
        fill: #5a97cb;
        stroke-width: 0px;
      }

      .cls-2 {
        stroke-width: .5px;
      }

      .cls-3 {
        fill: #fff;
        stroke: #005178;
        stroke-width: 6px;
      }

      .cls-4 {
        stroke-linecap: round;
        stroke-width: 2px;
      }
    </style>
  </defs>
  <g>
    <circle class="cls-3" cx="72.3" cy="71.27" r="55.41"/>
    <circle class="cls-5" cx="72.3" cy="71.27" r="48.69"/>
  </g>
  <g>
    <path class="cls-4" d="m82.4,103c0-.98.14-1.98-.03-2.93-.49-2.85.74-3.66,3.45-3.47,4.12.29,8.03-.28,9.73-4.86.44-1.2.54-2.6.5-3.89-.12-4.07-.76-8.14,4.89-9.42,1.53-.35,2.98-2.18,1.04-4.3-1.02-1.11-1.78-2.52-2.46-3.89-1.56-3.15-3.54-6.04-4-9.76-1.57-12.83-14.15-20.52-26.8-19.52"/>
    <path class="cls-4" d="m44.32,67.85c.3,5.35,2.34,10.69,6.25,15.16,4.93,5.63,7.44,12.32,6.4,20"/>
  </g>
  <g>
    <path class="cls-1" d="m63.12,39.17c-.19-.43-.48-.84-.85-1.18-1.38-1.26-3.47-1.23-4.82.01-.5-.42-1.07-.74-1.7-.95-.69-2.07-2.64-3.56-4.94-3.56-2.88,0-5.21,2.33-5.21,5.21-2.88,0-5.21,2.33-5.21,5.21s2.33,5.21,5.21,5.21c1.33,0,2.53-.5,3.45-1.32.63,1.16,1.88,1.93,3.29,1.86,1.48-.07,2.71-1.04,3.19-2.35.6.6,1.43.96,2.35.92.93-.04,1.74-.49,2.28-1.16.37.09.76.13,1.16.11,2.35-.11,4.16-2.1,4.06-4.45-.07-1.56-.98-2.89-2.27-3.57Z"/>
    <ellipse class="cls-1" cx="58.77" cy="51.05" rx="2.19" ry="1.65"/>
    <ellipse class="cls-1" cx="62.61" cy="54.62" rx="1.65" ry="1.37"/>
  </g>
  <path class="cls-1" d="m46.56,55.15c.09-.25.13-.51.13-.78,0-1.31-1.06-2.38-2.38-2.38-.77,0-1.44.36-1.88.93-.37-.3-.84-.49-1.36-.49-1.06,0-1.94.76-2.12,1.77-.15-.03-.31-.04-.47-.04-1.43,0-2.59,1.16-2.59,2.59s1.16,2.59,2.59,2.59c.25,0,.49-.04.72-.1.43.83,1.3,1.4,2.3,1.4.22,0,.43-.03.63-.08.29.56.86.94,1.53.94.95,0,1.73-.77,1.73-1.73,0-.18-.03-.34-.08-.5.17.04.34.07.51.07,1.19,0,2.16-.97,2.16-2.16,0-.94-.6-1.72-1.43-2.02Z"/>
  <circle class="cls-2" cx="48.9" cy="60.99" r="1"/>
  <circle class="cls-2" cx="45.9" cy="62.99" r="1"/>
  <circle class="cls-2" cx="50.9" cy="64.99" r="1"/>
</svg>