<svg width="151" height="101" viewBox="0 0 151 101" fill="none" xmlns="http://www.w3.org/2000/svg">
<path d="M81.7207 94.9698V79.7898C82.2707 79.7898 82.7407 79.7898 83.2107 79.7898C93.1707 79.7798 103.131 79.8198 113.091 79.6998C115.221 79.6698 117.381 79.2198 119.451 78.6798C122.501 77.8898 124.331 75.7998 124.551 72.6098C124.701 70.4298 124.711 68.2098 124.551 66.0298C124.301 62.9098 122.491 60.8298 119.671 59.5898C116.631 58.2498 113.391 58.1998 110.151 58.0898C103.721 57.8698 97.2907 57.6198 90.8607 57.3698C90.5907 57.3598 90.3107 57.2798 89.9607 57.2198V43.0598C91.0007 42.9798 92.1007 42.8798 93.2007 42.8198C100.181 42.4098 107.171 42.0698 114.141 41.5398C116.011 41.3998 117.901 40.8098 119.681 40.1398C122.081 39.2298 123.461 37.3198 123.601 34.7298C123.701 32.7798 123.711 30.8098 123.511 28.8698C123.191 25.7398 121.411 23.5798 118.511 22.3898C115.761 21.2598 112.851 21.0098 109.931 20.9898C101.691 20.9498 93.4507 20.9798 85.2107 20.9798C84.7407 20.9798 84.2707 20.9798 83.7307 20.9798C83.7007 20.6098 83.6607 20.3398 83.6607 20.0698C83.6607 15.7898 83.6707 11.5098 83.6407 7.22978C83.6407 6.43978 83.8607 6.14978 84.6807 6.01978C94.3307 4.55978 104.021 3.51978 113.791 3.41978C118.721 3.36978 123.621 3.58978 128.341 5.26978C136.451 8.14978 140.921 13.9998 141.701 22.4498C142.111 26.9698 142.041 31.5698 141.751 36.0998C141.331 42.4798 137.891 46.9398 132.071 49.5698C131.711 49.7298 131.341 49.8798 130.901 50.0698C131.041 50.1898 131.131 50.3098 131.251 50.3598C137.831 52.9398 141.621 57.9298 142.811 64.6898C143.861 70.6498 143.981 76.7498 142.201 82.6298C139.991 89.9598 134.601 94.0098 127.481 96.0498C123.521 97.1898 119.451 97.4398 115.361 97.3398C110.011 97.2098 104.651 97.1098 99.3107 96.7198C93.4607 96.2898 87.6407 95.5498 81.7507 94.9398L81.7207 94.9698Z" fill="url(#paint0_linear_208_2)"/>
<path d="M72.53 79.7302V96.5102H9.57C9.55 96.1002 9.52 95.7102 9.52 95.3302C9.52 91.1702 9.54 87.0102 9.5 82.8502C9.5 82.0202 9.75 81.4502 10.33 80.8702C21.05 70.2602 31.76 59.6602 42.43 49.0002C45.55 45.8802 48.35 42.4802 49.96 38.2902C51.04 35.4802 51.4 32.5702 51.02 29.5702C50.49 25.2702 47.61 22.3602 42.9 21.4902C41.26 21.1802 39.57 21.0202 37.9 21.0102C29.66 20.9602 21.42 20.9902 13.18 20.9902C12.71 20.9902 12.24 20.9902 11.7 20.9902C11.67 20.6502 11.64 20.4202 11.64 20.1902C11.64 15.9502 11.64 11.7102 11.64 7.47022C11.64 6.87022 11.65 6.44022 12.45 6.31022C22.47 4.63022 32.52 3.25022 42.72 3.48022C46.6 3.57022 50.45 3.96022 54.22 4.97022C62.17 7.09022 67.08 12.2002 68.78 20.2002C71.35 32.2702 69.03 43.3202 60.85 52.7102C56.08 58.1902 50.8 63.2202 45.7 68.4102C42.14 72.0302 38.5 75.5702 34.89 79.1502C34.76 79.2802 34.64 79.4402 34.39 79.7402H72.54L72.53 79.7302Z" fill="url(#paint1_linear_208_2)"/>
<defs>
<linearGradient id="paint0_linear_208_2" x1="112.631" y1="97.3898" x2="112.631" y2="3.42978" gradientUnits="userSpaceOnUse">
<stop stop-color="#004C9D"/>
<stop offset="0.15" stop-color="#1961AA"/>
<stop offset="0.37" stop-color="#3578B8"/>
<stop offset="0.58" stop-color="#4989C2"/>
<stop offset="0.79" stop-color="#5593C8"/>
<stop offset="1" stop-color="#5A97CB"/>
</linearGradient>
<linearGradient id="paint1_linear_208_2" x1="41.01" y1="96.5102" x2="41.01" y2="3.45022" gradientUnits="userSpaceOnUse">
<stop stop-color="#004C9D"/>
<stop offset="0.15" stop-color="#1961AA"/>
<stop offset="0.37" stop-color="#3578B8"/>
<stop offset="0.58" stop-color="#4989C2"/>
<stop offset="0.79" stop-color="#5593C8"/>
<stop offset="1" stop-color="#5A97CB"/>
</linearGradient>
</defs>
</svg>
