<?xml version="1.0" encoding="UTF-8"?>
<svg id="Layer_1" data-name="Layer 1" xmlns="http://www.w3.org/2000/svg" width="100%" height="100%" viewBox="0 0 116.8146906726 116.8146906726">
  <defs>
    <style>
      .cls-1 {
        fill: #5b97ca;
      }

      .cls-1, .cls-2 {
        stroke-width: 0px;
      }

      .cls-3 {
        stroke-width: .47103734px;
      }

      .cls-3, .cls-4, .cls-5, .cls-6, .cls-7 {
        stroke-miterlimit: 10;
      }

      .cls-3, .cls-4, .cls-5, .cls-7 {
        fill: none;
        stroke: #fff;
      }

      .cls-4 {
        stroke-width: .5554959774px;
      }

      .cls-5 {
        stroke-width: 1.6px;
      }

      .cls-6 {
        stroke: #005279;
        stroke-width: 6px;
      }

      .cls-6, .cls-2 {
        fill: #fff;
      }

      .cls-7 {
        stroke-width: .3865787356px;
      }
    </style>
  </defs>
  <g>
    <circle class="cls-6" cx="58.4073453363" cy="58.4073453363" r="55.4073453363"/>
    <circle class="cls-1" cx="58.4073453363" cy="58.4073453363" r="48.6947538512"/>
  </g>
  <path class="cls-2" d="M76.7156620952,41.1298944363c-.310919958-.2042125401-.3985455758-.6211904408-.1961240909-.9332797121l2.7051602311-4.1862351734c.0608668534-.093494758.1439171217-.1704791732.2417505287-.2240947361.3275434913-.179501525.738585176-.0594905077.9180870235.2680533061l.8960841974,1.6501481021,2.248664555-3.6519666986c.0140815829-.0267810156.0299445466-.052586851.0474819889-.0772433668.2164864601-.3043671597.6387216754-.375608847.9430888754-.1591223869s.3756086454.638721756.1591222458.9430889157l-2.85732549,4.6596387297c-.0611112934.098322287-.1464389171.1793112617-.2478138019.2352132094-.3270720252.1803593224-.7384268382.061426034-.9187864831-.2656463137l-.916373041-1.6907251443-2.1066433752,3.2360478229c-.1249572191.1922369143-.3388041785.3080705227-.5680837517.3077119246-.1241419891-.0045031139-.2446451112-.043110447-.3482896119-.1115884787Z"/>
  <path class="cls-2" d="M54.7837828176,29.3479536746c-.2952741839.2262457471-.7178345694.1715507817-.9457745847-.1224177884l-3.0608001363-3.9336953782c-.0682110826-.0882796229-.1135231884-.1920618965-.1318999298-.302099615-.0615230475-.3684025663.1872514466-.7169268292.5556544236-.7784500749l1.8532798506-.3021745238-2.706830257-3.3266233643c-.0206438381-.0221211601-.0397798832-.0456027813-.0572789574-.0702865423-.2160138939-.3047027288-.144117698-.7268269902.1605850441-.9428409222s.7268269999-.1441174811.9428409138.1605851906l3.4576049142,4.233380482c.072688336.0901014323.1210307097.1973536225.1403989175.3114884882.0624883025.3682401485-.1853718745.7174152363-.5536124337.7799037369l-1.8982765165.3079567032,2.360955262,3.0554610247c.140314006.1813320643.1791976527.4214070711.1032945839.6377585801-.0451654527.1157220522-.1213304428.2167686894-.2201410942.2920540035Z"/>
  <path class="cls-2" d="M40.2710836092,41.3579290506c-.2042126478.3109198872-.6211905789.3985453606-.93327978.1961237676l-4.1862342363-2.7051616812c-.0934947369-.0608668857-.1704791233-.1439171807-.2240946523-.2417506063-.1795014116-.3275435535-.0594902519-.7385851966.2680536241-.9180869307l1.6501484125-.8960836258-3.6519659196-2.24866582c-.0267810107-.0140815922-.0525868406-.0299445649-.0772433504-.0474820157-.3043670847-.2164865655-.3756086257-.6387218055-.1591220602-.9430889305s.6387218861-.3756084242.9430889708-.1591219191l4.6596377399,2.8573271042c.0983222659.0611113274.179311211.1464389792.2352131236.2478138834.1803592091.3270720877.0614257782.7384268595-.265646632.9187863911l-1.6907254618.9163724553,3.2360470932,2.1066444962c.192236871.1249572857.3080704053.3388042852.3077117278.5680838583-.0045031569.1241419875-.0431105317.2446450963-.1115885993.3482895733Z"/>
  <path class="cls-5" d="M67.0892115693,93.2352776821c0-.7972483427.1116751066-1.6136140524-.0209299587-2.3881624224-.3983230865-2.3266255459.6012177777-2.9835318551,2.8137412906-2.828877647,3.3633488679.2350894809,6.5513386224-.2281067455,7.9354621555-3.9641256627.3623297617-.9779904882.4396568657-2.1174415268.4073586731-3.1753958924-.1012496636-3.3163887557-.6226982046-6.6419773261,3.9869655334-7.6856134346,1.2478355007-.2825118648,2.4327777224-1.78049413.8521856827-3.5039950275-.8330257379-.9083334446-1.4494224496-2.053502054-2.0045924934-3.1707640517-1.2754927289-2.5668851706-2.8886080145-4.9233606939-3.2600676419-7.9569121698-1.6350245304-13.3525138006-17.8902213016-19.8877299377-30.2415504365-13.5574195257-12.4330812737,6.3722121468-15.2549864495,21.827441688-6.4190346419,31.9225884866,4.0178997204,4.5904855457,6.0705228499,10.0440688188,5.2220049281,16.3086773473"/>
  <g>
    <g>
      <rect class="cls-2" x="56.826837108" y="50.7607719573" width="1.5026274299" height="4.2073567679" rx=".4984023795" ry=".4984023795"/>
      <circle class="cls-2" cx="57.578150829" cy="56.4707561522" r=".7513137092"/>
    </g>
    <polygon class="cls-4" points="57.578150829 44.07676463 59.8411064262 49.8088500428 65.733560999 48.0042031738 62.6629659 53.3473499014 67.747780971 56.8290774766 61.655855914 57.7597870528 62.1040620234 63.9060771938 57.578150829 59.7235063247 53.0522396347 63.9060771938 53.500445744 57.7597870528 47.4085206871 56.8290774766 52.4933357581 53.3473499014 49.422740659 48.0042031738 55.3151952319 49.8088500428 57.578150829 44.07676463"/>
  </g>
  <g>
    <g>
      <rect class="cls-2" x="38.1798704004" y="24.4999800701" width=".693693407" height="1.9423415634" rx=".346846369" ry=".346846369"/>
      <circle class="cls-2" cx="38.5267171025" cy="27.136015046" r=".3468467073"/>
    </g>
    <polygon class="cls-7" points="38.5267171025 21.4142837676 39.5714187871 24.060521853 42.2916918787 23.2274000603 40.8741404797 25.6940831866 43.2215638569 27.301435389 40.4092044906 27.731100851 40.6161204716 30.5685580562 38.5267171025 28.6376589973 36.4373137333 30.5685580562 36.6442297144 27.731100851 33.8318703481 27.301435389 36.1792937253 25.6940831866 34.7617423263 23.2274000603 37.4820154179 24.060521853 38.5267171025 21.4142837676"/>
  </g>
  <g>
    <g>
      <rect class="cls-2" x="89.579747933" y="44.3482885078" width=".9968057944" height="2.7910561588" rx=".4984024001" ry=".4984024001"/>
      <circle class="cls-2" cx="90.078150829" cy="48.1361504354" r=".4984028859"/>
    </g>
    <polygon class="cls-4" points="90.078150829 39.9142837676 91.5793394624 43.7168071038 95.4882477231 42.519649117 93.4512910695 46.0641601732 96.82443131 48.3738519175 92.783199276 48.9912615734 93.0805280958 53.0685580562 90.078150829 50.2939442481 87.0757735623 53.0685580562 87.373102382 48.9912615734 83.3318703481 48.3738519175 86.7050105886 46.0641601732 84.668053935 42.519649117 88.5769621957 43.7168071038 90.078150829 39.9142837676"/>
  </g>
  <g>
    <g>
      <rect class="cls-2" x="65.1298091669" y="28.1741342889" width=".8452495932" height="2.3666988611" rx=".4226243673" ry=".4226243673"/>
      <circle class="cls-2" cx="65.5524339658" cy="31.3860827407" r=".4226247966"/>
    </g>
    <polygon class="cls-3" points="65.5524339658 24.4142837676 66.8253791247 27.6386644784 70.1399698009 26.6235245886 68.4127157746 29.6291216799 71.2729975835 31.5876436533 67.8462018833 32.1111812122 68.0983242837 35.5685580562 65.5524339658 33.2158016227 63.0065436478 35.5685580562 63.2586660482 32.1111812122 59.8318703481 31.5876436533 62.6921521569 29.6291216799 60.9648981307 26.6235245886 64.2794888068 27.6386644784 65.5524339658 24.4142837676"/>
  </g>
  <g>
    <g>
      <rect class="cls-2" x="24.5797479406" y="46.3482885078" width=".996805772" height="2.7910561588" rx=".4984023887" ry=".4984023887"/>
      <circle class="cls-2" cx="25.078150829" cy="50.1361504354" r=".4984028859"/>
    </g>
    <polygon class="cls-4" points="25.078150829 41.9142837676 26.5793394624 45.7168071038 30.4882477231 44.519649117 28.4512910695 48.0641601732 31.82443131 50.3738519175 27.783199276 50.9912615734 28.0805280958 55.0685580562 25.078150829 52.2939442481 22.0757735623 55.0685580562 22.373102382 50.9912615734 18.3318703481 50.3738519175 21.7050105886 48.0641601732 19.668053935 44.519649117 23.5769621957 45.7168071038 25.078150829 41.9142837676"/>
  </g>
</svg>