<svg id="Layer_1" data-name="Layer 1" xmlns="http://www.w3.org/2000/svg" width="100%" height="100%" viewBox="0 0 116.8146906725 116.8146906726">
  <defs>
    <style>
      .cls-1 {
        fill: #5b97ca;
      }

      .cls-1, .cls-2 {
        stroke-width: 0px;
      }

      .cls-3 {
        stroke: #005279;
        stroke-width: 6px;
      }

      .cls-3, .cls-2 {
        fill: #fff;
      }

      .cls-3, .cls-4 {
        stroke-miterlimit: 10;
      }

      .cls-4 {
        fill: none;
        stroke: #fff;
        stroke-width: 2px;
      }
    </style>
  </defs>
  <g>
    <circle class="cls-3" cx="58.4073453363" cy="58.4073453363" r="55.4073453363"/>
    <circle class="cls-1" cx="58.4073453363" cy="58.4073453363" r="48.6947538512"/>
  </g>
  <path class="cls-4" d="M67.0157935985,86.5685580562c0-.9965604283.1395938832-2.0170175655-.0261624484-2.985203028-.4979038581-2.9082819323.7515222221-3.7294148188,3.5171766133-3.5360970587,4.2041860849.2938618512,8.189173278-.2851334319,9.9193276944-4.9551570784.4529122021-1.2224881103.5495710821-2.6468019085.5091983414-3.9692448654-.1265620795-4.1454859446-.7783727558-8.3024716576,4.9837069167-9.6070167932,1.5597943758-.353139831,3.0409721529-2.2256176625,1.0652321033-4.3799937844-1.0412821724-1.1354168057-1.811778062-2.5668775675-2.5057406167-3.9634550647-1.5943659111-3.2086064633-3.6107600181-6.1542008674-4.0750845524-9.9461402123-2.043780663-16.6906422507-22.3627766271-24.8596624221-37.8019380456-16.9467744071-15.5413515921,7.9652651834-19.0687330619,27.28430211-8.0237933024,39.9032356082,5.0223746505,5.7381069322,7.5881535624,12.5550860235,6.5275061601,20.3858466841"/>
  <path class="cls-2" d="M50.9804290712,48.5616519822l5.986328125-8.755859375v-.0478515625h-5.474609375v-1.16796875h7.283203125v.84765625l-5.9541015625,8.7236328125v.0478515625h6.0341796875v1.1689453125h-7.875v-.81640625Z"/>
  <path class="cls-2" d="M59.4228118837,41.926398076l5.2392578125-7.662109375v-.0419921875h-4.791015625v-1.0224609375h6.3740234375v.7431640625l-5.2109375,7.6337890625v.0419921875h5.2802734375v1.0224609375h-6.8916015625v-.71484375Z"/>
  <path class="cls-2" d="M45.2782806337,41.7027652635l3.73828125-5.466796875v-.0302734375h-3.41796875v-.7294921875h4.546875v.529296875l-3.7177734375,5.447265625v.0302734375h3.767578125v.7294921875h-4.9169921875v-.509765625Z"/>
</svg>