<svg width="100%" height="100%" viewBox="0 0 19 19" fill="none" xmlns="http://www.w3.org/2000/svg">
<path d="M9.48018 0C6.44413 0 3.96094 2.39157 3.96094 5.31766V10.2718C3.96094 10.5467 4.19001 10.7666 4.47407 10.7666H14.4832C14.7673 10.7666 14.9964 10.5437 14.9964 10.2718V5.31766C14.9964 2.39462 12.5132 0 9.47713 0H9.48018Z" fill="#005178"/>
<path d="M17 14.5021C17 12.8986 15.6988 11.5974 14.0953 11.5974H4.90471C3.30116 11.5974 2 12.8986 2 14.5021V17.4068H17" fill="#005178"/>
<path d="M9.55359 9.53271C11.9169 9.53271 13.8328 7.61686 13.8328 5.25354C13.8328 2.89022 11.9169 0.974365 9.55359 0.974365C7.19027 0.974365 5.27441 2.89022 5.27441 5.25354C5.27441 7.61686 7.19027 9.53271 9.55359 9.53271Z" fill="white"/>
<g filter="url(#filter0_d_187_2)">
<path d="M7.23255 1.36213C9.02852 3.66818 11.3712 4.33709 14.1812 4.08663L13.552 1.90581L10.2228 0.134277L7.73958 0.815401L7.22949 1.35908L7.23255 1.36213Z" fill="#005178"/>
</g>
<g filter="url(#filter1_d_187_2)">
<path d="M9.00374 1.36216C7.94693 3.66821 6.56941 4.33712 4.91699 4.08666L5.28658 1.90584L7.36965 0.81543H8.70442L9.00374 1.35911V1.36216Z" fill="#005178"/>
</g>
<defs>
<filter id="filter0_d_187_2" x="3.22949" y="0.134277" width="14.9521" height="12.002" filterUnits="userSpaceOnUse" color-interpolation-filters="sRGB">
<feFlood flood-opacity="0" result="BackgroundImageFix"/>
<feColorMatrix in="SourceAlpha" type="matrix" values="0 0 0 0 0 0 0 0 0 0 0 0 0 0 0 0 0 0 127 0" result="hardAlpha"/>
<feOffset dy="4"/>
<feGaussianBlur stdDeviation="2"/>
<feComposite in2="hardAlpha" operator="out"/>
<feColorMatrix type="matrix" values="0 0 0 0 0 0 0 0 0 0 0 0 0 0 0 0 0 0 0.25 0"/>
<feBlend mode="normal" in2="BackgroundImageFix" result="effect1_dropShadow_187_2"/>
<feBlend mode="normal" in="SourceGraphic" in2="effect1_dropShadow_187_2" result="shape"/>
</filter>
<filter id="filter1_d_187_2" x="0.916992" y="0.81543" width="12.0869" height="11.3208" filterUnits="userSpaceOnUse" color-interpolation-filters="sRGB">
<feFlood flood-opacity="0" result="BackgroundImageFix"/>
<feColorMatrix in="SourceAlpha" type="matrix" values="0 0 0 0 0 0 0 0 0 0 0 0 0 0 0 0 0 0 127 0" result="hardAlpha"/>
<feOffset dy="4"/>
<feGaussianBlur stdDeviation="2"/>
<feComposite in2="hardAlpha" operator="out"/>
<feColorMatrix type="matrix" values="0 0 0 0 0 0 0 0 0 0 0 0 0 0 0 0 0 0 0.25 0"/>
<feBlend mode="normal" in2="BackgroundImageFix" result="effect1_dropShadow_187_2"/>
<feBlend mode="normal" in="SourceGraphic" in2="effect1_dropShadow_187_2" result="shape"/>
</filter>
</defs>
</svg>
